<?xml version="1.0" encoding="UTF-8" standalone="no"?>
<!DOCTYPE svg  PUBLIC '-//W3C//DTD SVG 1.1//EN'  'http://www.w3.org/Graphics/SVG/1.1/DTD/svg11.dtd'>
<svg version="1.1" xmlns="http://www.w3.org/2000/svg">
<defs>
<font id="Luma-Regular" horiz-adv-x="0">
<font-face panose-1="1 0 5 0 0 0 0 2 0 6" unicode-range="U+0020-FEFC" bbox="-126 -489 1255 1040" underline-position="-507" underline-thickness="29" descent="-200" units-per-em="1000" ascent="800" font-family="Luma" font-weight="400"/>
<missing-glyph d="M125 62h250v438h-250v-438zM62 0v562h375v-562h-375z" horiz-adv-x="500"/>
<glyph unicode="ٌّ" glyph-name="shaddehdamatan" arabic-form="isolated" d="M75 718q-45 7 -48 50l-4 53l45 3l4 -47q2 -22 21 -25q14 -2 20.5 5.5t8.5 19.5q1 6 1 15q0 15 -3 39l46 5l4 -54q0 -9 4.5 -16.5t15.5 -9.5q16 -2 23.5 5.5t10.5 21.5q1 6 0.5 16t-2.5 20l-4 23l45 5q2 -7 2 -14t2 -13q1 -12 1 -23t-2 -19q-5 -32 -29 -48 q-17 -11 -39 -11q-10 0 -21 2q-23 5 -36 23q-1 -3 -6.5 -8t-14 -10t-20 -8t-25.5 0zM18 958l38 12l28 -65l56 19q-16 29 -16 52q0 8 2 14q6 28 26 39q13 8 29 8q8 1 16 -1q26 -6 44 -34q6 -10 10 -23.5t-2 -28t-25 -29.5t-59 -28l-106 -34zM174 940q17 6 29 13t15 18 q-1 8 -7 15q-11 14 -23 16t-20 -5t-8 -22t14 -35z"/>
<glyph unicode="ٍّ" glyph-name="shaddehkasratan" arabic-form="isolated" d="M23 748l231 57l10 -38l-232 -56zM23 832l231 57l10 -38l-232 -56zM75 911q-45 7 -48 50l-4 53l45 3l4 -47q2 -22 21 -25q14 -2 20.5 5.5t8.5 19.5q1 6 1 15q0 15 -3 39l46 5l4 -54q0 -9 4.5 -16.5t15.5 -9.5q16 -2 23.5 5.5t10.5 21.5q1 6 0.5 16t-2.5 20l-4 23l45 5 q2 -7 2 -14t2 -13q1 -12 1 -23t-2 -19q-5 -32 -29 -48q-17 -11 -39 -11q-10 0 -21 2q-23 5 -36 23q-1 -3 -6.5 -8t-14 -10t-20 -8t-25.5 0z"/>
<glyph unicode="َّ" glyph-name="shaddehfatha" arabic-form="isolated" d="M75 718q-45 7 -48 50l-4 53l45 3l4 -47q2 -22 21 -25q14 -2 20.5 5.5t8.5 19.5q1 6 1 15q0 15 -3 39l46 5l4 -54q0 -9 4.5 -16.5t15.5 -9.5q16 -2 23.5 5.5t10.5 21.5q1 6 0.5 16t-2.5 20l-4 23l45 5q2 -7 2 -14t2 -13q1 -12 1 -23t-2 -19q-5 -32 -29 -48 q-17 -11 -39 -11q-10 0 -21 2q-23 5 -36 23q-1 -3 -6.5 -8t-14 -10t-20 -8t-25.5 0zM22 896l231 57l10 -38l-232 -56z"/>
<glyph unicode="ُّ" glyph-name="shaddehdamma" arabic-form="isolated" d="M75 718q-45 7 -48 50l-4 53l45 3l4 -47q2 -22 21 -25q14 -2 20.5 5.5t8.5 19.5q1 6 1 15q0 15 -3 39l46 5l4 -54q0 -9 4.5 -16.5t15.5 -9.5q16 -2 23.5 5.5t10.5 21.5q1 6 0.5 16t-2.5 20l-4 23l45 5q2 -7 2 -14t2 -13q1 -12 1 -23t-2 -19q-5 -32 -29 -48 q-17 -11 -39 -11q-10 0 -21 2q-23 5 -36 23q-1 -3 -6.5 -8t-14 -10t-20 -8t-25.5 0zM39 887l91 23q-16 29 -16 52q0 8 2 14q6 28 26 39q13 8 29 8q8 1 16 -1q26 -6 44 -34q6 -10 10.5 -24t-1.5 -29.5t-25.5 -30t-59.5 -25.5l-107 -29zM164 926q17 6 29 13t15 18q-1 8 -7 15 q-11 14 -23 16t-20 -5t-8 -22t14 -35z"/>
<glyph unicode="ِّ" glyph-name="shaddehkasra" arabic-form="isolated" d="M23 748l231 57l10 -38l-232 -56zM75 826q-45 7 -48 50l-4 53l45 3l4 -47q2 -22 21 -25q14 -2 20.5 5.5t8.5 19.5q1 6 1 15q0 15 -3 39l46 5l4 -54q0 -9 4.5 -16.5t15.5 -9.5q16 -2 23.5 5.5t10.5 21.5q1 6 0.5 16t-2.5 20l-4 23l45 5q2 -7 2 -14t2 -13q1 -12 1 -23 t-2 -19q-5 -32 -29 -48q-17 -11 -39 -11q-10 0 -21 2q-23 5 -36 23q-1 -3 -6.5 -8t-14 -10t-20 -8t-25.5 0z"/>
<glyph unicode="ﻟﻤ" glyph-name="lammeeminitial" arabic-form="initial" d="M303 345q-42 0 -67 -21.5t-25 -63.5v-111q1 -29 12.5 -47.5t30 -29t42 -14.5t49.5 -4h86v183q0 33 -8 54t-23 33t-35.5 16.5t-45.5 4.5h-16zM296 401h28q83 0 125 -37t42 -115v-195h88v-54h-230q-60 0 -102 13t-66 42q-25 -29 -67 -42t-101 -13h-14v54h18q25 0 48.5 4 t42.5 14.5t30.5 29t12.5 47.5v115q0 61 39.5 99t105.5 38zM561 0v54h22q24 0 46.5 3.5t40 14t27.5 29t10 47.5v532h60v-532q0 -78 -47.5 -113t-135.5 -35h-23z" horiz-adv-x="847"/>
<glyph unicode="ﺎً" glyph-name="aleffathatanfina" arabic-form="final" d="M253 0q-88 0 -135.5 35t-47.5 113v532h60v-532q0 -29 10 -47.5t27.5 -29t40 -14t46.5 -3.5h22v-54h-23zM-14 748l231 57l10 -38l-232 -56zM-17 832l231 57l10 -38l-232 -56z" horiz-adv-x="267"/>
<glyph unicode="اً" glyph-name="aleffathataniso" arabic-form="isolated" d="M140 0h-60v680h60v-680zM-1 748l231 57l10 -38l-232 -56zM-4 832l231 57l10 -38l-232 -56z" horiz-adv-x="205"/>
<glyph unicode="ﻟﻠّٰﻪ" glyph-name="lilah" arabic-form="isolated" d="M365 334q-18 6 -38.5 9.5t-43.5 3.5q-91 0 -132 -38t-41 -105q0 -71 43 -110.5t122 -39.5h90v280zM510 0h-235q-45 0 -85.5 12t-71.5 37t-49.5 63.5t-18.5 91.5q0 41 15 77t44 63t73 42.5t101 15.5q34 0 74 -8t68 -20v-320h85v-54zM773 0q-40 0 -74 9.5t-73 24.5 q-20 -17 -47 -25.5t-65 -8.5h-20v54h20q19 0 36.5 4t31 15.5t22 31t8.5 49.5v526h60v-529q0 -41 -13 -72q20 -9 47.5 -17t66.5 -8h21v-54h-21zM780 0v54h22q24 0 46.5 3.5t40 14t27.5 29t10 47.5v532h60v-532q0 -78 -47.5 -113t-135.5 -35h-23z" horiz-adv-x="1066"/>
<glyph unicode="ﻟﺂ" glyph-name="lamalefmaddaaboveiso" arabic-form="isolated" d="M50 0v54h150v497h60v-497h29q24 0 46.5 3.5t40 14t27.5 29t10 47.5v532h60v-532q0 -78 -47.5 -113t-135.5 -35h-240zM373 699q0 -53 -23 -81t-63 -28q-20 0 -37.5 10t-33 21.5t-29.5 21.5t-27 10q-17 0 -27 -15.5t-10 -45.5h-51q0 53 23 81t63 28q20 0 37.5 -10t33 -22 t29 -22t27.5 -10q17 0 27 16t10 46h51z" horiz-adv-x="553"/>
<glyph unicode="ﻠﺂ" glyph-name="lamalefmaddaabovefina" arabic-form="final" d="M588 0q-40 0 -81 9.5t-80 24.5q-40 -34 -117 -34h-260v54h150v497h60v-497h50q19 0 37.5 4t33 15.5t23.5 31t9 49.5v526h60v-529q0 -41 -13 -72q20 -9 54.5 -17t73.5 -8h34v-54h-34zM373 699q0 -53 -23 -81t-63 -28q-20 0 -37.5 10t-33 21.5t-29.5 21.5t-27 10 q-17 0 -27 -15.5t-10 -45.5h-51q0 53 23 81t63 28q20 0 37.5 -10t33 -22t29 -22t27.5 -10q17 0 27 16t10 46h51z" horiz-adv-x="613"/>
<glyph unicode="ﻟﺄ" glyph-name="lamalefhamzaaboveiso" arabic-form="isolated" d="M50 0v54h150v497h60v-497h29q24 0 46.5 3.5t40 14t27.5 29t10 47.5v532h60v-532q0 -78 -47.5 -113t-135.5 -35h-240zM129 641h44q-5 11 -7 23t-2 21q0 23 7.5 39t20 26.5t28.5 15t33 4.5q27 0 53 -16v-45q-14 11 -27.5 15t-24.5 4q-21 0 -32.5 -9.5t-11.5 -35.5 q0 -9 4.5 -21t12.5 -21h79v-43h-177v43z" horiz-adv-x="553"/>
<glyph unicode="ﻠﺄ" glyph-name="lamalefhamzaabovefina" arabic-form="final" d="M588 0q-40 0 -81 9.5t-80 24.5q-40 -34 -117 -34h-260v54h150v497h60v-497h50q19 0 37.5 4t33 15.5t23.5 31t9 49.5v526h60v-529q0 -41 -13 -72q20 -9 54.5 -17t73.5 -8h34v-54h-34zM129 641h44q-5 11 -7 23t-2 21q0 23 7.5 39t20 26.5t28.5 15t33 4.5q27 0 53 -16v-45 q-14 11 -27.5 15t-24.5 4q-21 0 -32.5 -9.5t-11.5 -35.5q0 -9 4.5 -21t12.5 -21h79v-43h-177v43z" horiz-adv-x="613"/>
<glyph unicode="ﻟﺈ" glyph-name="lamalefhamzabelowiso" arabic-form="isolated" d="M50 0v54h150v497h60v-497h29q24 0 46.5 3.5t40 14t27.5 29t10 47.5v532h60v-532q0 -78 -47.5 -113t-135.5 -35h-240zM112 -157h44q-5 11 -7 23t-2 21q0 23 7.5 39t20 26.5t28.5 15t33 4.5q27 0 53 -16v-45q-14 11 -27.5 15t-24.5 4q-21 0 -32.5 -9.5t-11.5 -35.5 q0 -9 4.5 -21t12.5 -21h79v-43h-177v43z" horiz-adv-x="553"/>
<glyph unicode="ﻠﺈ" glyph-name="lamalefhamzabelowfina" arabic-form="final" d="M588 0q-40 0 -81 9.5t-80 24.5q-40 -34 -117 -34h-260v54h150v497h60v-497h50q19 0 37.5 4t33 15.5t23.5 31t9 49.5v526h60v-529q0 -41 -13 -72q20 -9 54.5 -17t73.5 -8h34v-54h-34zM111 -157h44q-5 11 -7 23t-2 21q0 23 7.5 39t20 26.5t28.5 15t33 4.5q27 0 53 -16v-45 q-14 11 -27.5 15t-24.5 4q-21 0 -32.5 -9.5t-11.5 -35.5q0 -9 4.5 -21t12.5 -21h79v-43h-177v43z" horiz-adv-x="613"/>
<glyph unicode="ﻟﺎ" glyph-name="lamalefiso" arabic-form="isolated" d="M50 0v54h150v497h60v-497h29q24 0 46.5 3.5t40 14t27.5 29t10 47.5v532h60v-532q0 -78 -47.5 -113t-135.5 -35h-240z" horiz-adv-x="553"/>
<glyph unicode="ﻠﺎ" glyph-name="lamaleffina" arabic-form="final" d="M588 0q-40 0 -81 9.5t-80 24.5q-40 -34 -117 -34h-260v54h150v497h60v-497h50q19 0 37.5 4t33 15.5t23.5 31t9 49.5v526h60v-529q0 -41 -13 -72q20 -9 54.5 -17t73.5 -8h34v-54h-34z" horiz-adv-x="613"/>
<glyph unicode="ًّ" glyph-name="shaddahfathatan" d="M75 718q-45 7 -48 50l-4 53l45 3l4 -47q2 -22 21 -25q14 -2 20.5 5.5t8.5 19.5q1 6 1 15q0 15 -3 39l46 5l4 -54q0 -9 4.5 -16.5t15.5 -9.5q16 -2 23.5 5.5t10.5 21.5q1 6 0.5 16t-2.5 20l-4 23l45 5q2 -7 2 -14t2 -13q1 -12 1 -23t-2 -19q-5 -32 -29 -48 q-17 -11 -39 -11q-10 0 -21 2q-23 5 -36 23q-1 -3 -6.5 -8t-14 -10t-20 -8t-25.5 0z"/>
<glyph unicode="ء" glyph-name="hamza" arabic-form="isolated" d="M435 0h-355v54h95q-14 23 -21.5 48t-7.5 46q0 51 13 86.5t37 57.5t57.5 31.5t74.5 9.5q31 0 56.5 -6t50.5 -18v-60q-25 14 -51.5 21.5t-52.5 7.5q-33 0 -57 -6t-39.5 -21t-23.5 -40.5t-8 -65.5q0 -23 10 -46.5t28 -44.5h194v-54z" horiz-adv-x="475"/>
<glyph unicode="آ" glyph-name="alefmaddaaboveiso" arabic-form="isolated" d="M140 0h-60v680h60v-680zM256 820q0 -53 -23 -81t-63 -28q-20 0 -37.5 10t-33 21.5t-29.5 21.5t-27 10q-17 0 -27 -15.5t-10 -45.5h-51q0 53 23 81t63 28q20 0 37.5 -10t33 -22t29 -22t27.5 -10q17 0 27 16t10 46h51z" horiz-adv-x="220"/>
<glyph unicode="أ" glyph-name="alefhamzaaboveiso" arabic-form="isolated" d="M140 0h-60v680h60v-680zM16 754h44q-5 11 -7 23t-2 21q0 23 7.5 39t20 26.5t28.5 15t33 4.5q27 0 53 -16v-45q-14 11 -27.5 15t-24.5 4q-21 0 -32.5 -9.5t-11.5 -35.5q0 -9 4.5 -21t12.5 -21h79v-43h-177v43z" horiz-adv-x="220"/>
<glyph unicode="ؤ" glyph-name="wawhamzaiso" arabic-form="isolated" d="M365 334q-18 6 -38.5 9.5t-43.5 3.5q-91 0 -132 -38t-41 -105q0 -71 43 -110.5t122 -39.5h90v280zM425 -35q0 -50 -17 -85t-45.5 -57.5t-64.5 -32.5t-73 -10q-40 0 -75.5 8t-59.5 19v57q29 -14 64.5 -23.5t70.5 -9.5q27 0 52 7t44.5 24t31.5 45t12 69v24h-90 q-45 0 -85.5 12t-71.5 37t-49.5 63.5t-18.5 91.5q0 41 15 77t44 63t73 42.5t101 15.5q34 0 74 -8t68 -20v-409zM167 513h44q-5 11 -7 23t-2 21q0 23 7.5 39t20 26.5t28.5 15t33 4.5q27 0 53 -16v-45q-14 11 -27.5 15t-24.5 4q-21 0 -32.5 -9.5t-11.5 -35.5q0 -9 4.5 -21 t12.5 -21h79v-43h-177v43z" horiz-adv-x="505"/>
<glyph unicode="إ" glyph-name="alefhamzabelowiso" arabic-form="isolated" d="M140 0h-60v680h60v-680zM7 -157h44q-5 11 -7 23t-2 21q0 23 7.5 39t20 26.5t28.5 15t33 4.5q27 0 53 -16v-45q-14 11 -27.5 15t-24.5 4q-21 0 -32.5 -9.5t-11.5 -35.5q0 -9 4.5 -21t12.5 -21h79v-43h-177v43z" horiz-adv-x="220"/>
<glyph unicode="ئ" glyph-name="hamzakirsehiso" arabic-form="isolated" d="M293 -67q-50 0 -94 9t-77 32t-52.5 62.5t-19.5 100.5v106h60v-101q0 -48 14 -78t38.5 -47t58 -23t72.5 -6h90q31 0 66 2.5t63.5 10.5t47.5 24t19 43q0 19 -7 32.5t-20.5 23t-33.5 17t-46 16.5q-58 20 -84 47.5t-26 80.5q0 58 38.5 88t98.5 30q32 0 62.5 -7.5t56.5 -25.5 v-65q-26 21 -53.5 34t-65.5 13q-36 0 -57.5 -18t-21.5 -49q0 -30 20 -48t71 -34q28 -9 51.5 -19.5t40.5 -25.5t26 -35.5t9 -50.5q0 -46 -24.5 -73.5t-62 -42t-82 -19t-85.5 -4.5h-91zM47 389h44q-5 11 -7 23t-2 21q0 23 7.5 39t20 26.5t28.5 15t33 4.5q27 0 53 -16v-45 q-14 11 -27.5 15t-24.5 4q-21 0 -32.5 -9.5t-11.5 -35.5q0 -9 4.5 -21t12.5 -21h79v-43h-177v43z" horiz-adv-x="688"/>
<glyph unicode="ا" glyph-name="alefiso" arabic-form="isolated" d="M140 0h-60v680h60v-680z" horiz-adv-x="220"/>
<glyph unicode="ب" glyph-name="behiso" arabic-form="isolated" d="M233 0q-88 0 -135.5 35t-47.5 113v253h60v-253q0 -29 10 -47.5t27.5 -29t40 -14t46.5 -3.5h310q24 0 46.5 3.5t40 14t27.5 29t10 47.5v253h60v-253q0 -78 -47.5 -113t-135.5 -35h-312zM394 -177q-17 0 -29 12t-12 29t12 28.5t29 11.5t28.5 -11.5t11.5 -28.5t-11.5 -29 t-28.5 -12z" horiz-adv-x="808"/>
<glyph unicode="ة" glyph-name="tehmarboutaiso" arabic-form="isolated" d="M314 488q-17 0 -29 12t-12 29t12 28.5t29 11.5t28.5 -11.5t11.5 -28.5t-11.5 -29t-28.5 -12zM201 488q-16 0 -28 12t-12 29t12 28.5t28 11.5q17 0 29 -11.5t12 -28.5t-12 -29t-29 -12zM425 0h-150q-45 0 -85.5 12t-71.5 37t-49.5 63.5t-18.5 91.5q0 41 15 77t44 63 t73 42.5t101 15.5q34 0 74 -8t68 -20v-374zM365 334q-18 6 -38.5 9.5t-43.5 3.5q-91 0 -132 -38t-41 -105q0 -71 43 -110.5t122 -39.5h90v280z" horiz-adv-x="501"/>
<glyph unicode="ت" glyph-name="taiso" arabic-form="isolated" d="M233 0q-88 0 -135.5 35t-47.5 113v253h60v-253q0 -29 10 -47.5t27.5 -29t40 -14t46.5 -3.5h310q24 0 46.5 3.5t40 14t27.5 29t10 47.5v253h60v-253q0 -78 -47.5 -113t-135.5 -35h-312zM443 488q-17 0 -29 12t-12 29t12 28.5t29 11.5t28.5 -11.5t11.5 -28.5t-11.5 -29 t-28.5 -12zM330 488q-16 0 -28 12t-12 29t12 28.5t28 11.5q17 0 29 -11.5t12 -28.5t-12 -29t-29 -12z" horiz-adv-x="808"/>
<glyph unicode="ث" glyph-name="thaiso" arabic-form="isolated" d="M233 0q-88 0 -135.5 35t-47.5 113v253h60v-253q0 -29 10 -47.5t27.5 -29t40 -14t46.5 -3.5h310q24 0 46.5 3.5t40 14t27.5 29t10 47.5v253h60v-253q0 -78 -47.5 -113t-135.5 -35h-312zM445 487q-17 0 -29 12t-12 29t12 28.5t29 11.5t28.5 -11.5t11.5 -28.5t-11.5 -29 t-28.5 -12zM332 487q-16 0 -28 12t-12 29t12 28.5t28 11.5q17 0 29 -11.5t12 -28.5t-12 -29t-29 -12zM385 591q-17 0 -29 12t-12 29t12 28.5t29 11.5t28.5 -11.5t11.5 -28.5t-11.5 -29t-28.5 -12z" horiz-adv-x="808"/>
<glyph unicode="ج" glyph-name="jeemiso" arabic-form="isolated" d="M257 -217q-89 0 -143 33t-54 102q0 65 56 100.5t156 35.5h180v183q0 33 -11 54t-28 33t-39 16.5t-44 4.5h-55q-35 0 -65 -6t-53 -14v53q25 9 59 16t69 7h55q79 0 125.5 -35t46.5 -117v-249h-236q-34 0 -62.5 -4.5t-49.5 -14.5t-32.5 -25.5t-11.5 -37.5t10.5 -37.5 t29.5 -25t44.5 -14t55.5 -4.5h83v-54h-86zM477 -177q-17 0 -29 12t-12 29t12 28.5t29 11.5t28.5 -11.5t11.5 -28.5t-11.5 -29t-28.5 -12z" horiz-adv-x="572"/>
<glyph unicode="ح" glyph-name="haaiso" arabic-form="isolated" d="M257 -217q-89 0 -143 33t-54 102q0 65 56 100.5t156 35.5h180v183q0 33 -11 54t-28 33t-39 16.5t-44 4.5h-55q-35 0 -65 -6t-53 -14v53q25 9 59 16t69 7h55q79 0 125.5 -35t46.5 -117v-249h-236q-34 0 -62.5 -4.5t-49.5 -14.5t-32.5 -25.5t-11.5 -37.5t10.5 -37.5 t29.5 -25t44.5 -14t55.5 -4.5h83v-54h-86z" horiz-adv-x="572"/>
<glyph unicode="خ" glyph-name="khaiso" arabic-form="isolated" d="M257 -217q-89 0 -143 33t-54 102q0 65 56 100.5t156 35.5h180v183q0 33 -11 54t-28 33t-39 16.5t-44 4.5h-55q-35 0 -65 -6t-53 -14v53q25 9 59 16t69 7h55q79 0 125.5 -35t46.5 -117v-249h-236q-34 0 -62.5 -4.5t-49.5 -14.5t-32.5 -25.5t-11.5 -37.5t10.5 -37.5 t29.5 -25t44.5 -14t55.5 -4.5h83v-54h-86zM310 488q-17 0 -29 12t-12 29t12 28.5t29 11.5t28.5 -11.5t11.5 -28.5t-11.5 -29t-28.5 -12z" horiz-adv-x="572"/>
<glyph unicode="د" glyph-name="daliso" arabic-form="isolated" d="M40 54h309v183q0 33 -11 54t-28 33t-39 16.5t-44 4.5q-13 0 -31 -2t-37.5 -5t-39 -7t-36.5 -8v56q37 11 75 16.5t74 5.5q83 0 130 -35t47 -117v-249h-369v54z" horiz-adv-x="469"/>
<glyph unicode="ذ" glyph-name="zaliso" arabic-form="isolated" d="M40 54h309v183q0 33 -11 54t-28 33t-39 16.5t-44 4.5q-13 0 -31 -2t-37.5 -5t-39 -7t-36.5 -8v56q37 11 75 16.5t74 5.5q83 0 130 -35t47 -117v-249h-369v54zM222 488q-17 0 -29 12t-12 29t12 28.5t29 11.5t28.5 -11.5t11.5 -28.5t-11.5 -29t-28.5 -12z" horiz-adv-x="469"/>
<glyph unicode="ر" glyph-name="raiso" arabic-form="isolated" d="M152 401h60v-487q0 -64 -30.5 -100t-100.5 -36q-16 0 -34.5 4t-31.5 10v55q11 -8 28.5 -12.5t37.5 -4.5q32 0 51.5 18.5t19.5 69.5v483z" horiz-adv-x="292"/>
<glyph unicode="ز" glyph-name="zaiso" arabic-form="isolated" d="M152 401h60v-487q0 -64 -30.5 -100t-100.5 -36q-16 0 -34.5 4t-31.5 10v55q11 -8 28.5 -12.5t37.5 -4.5q32 0 51.5 18.5t19.5 69.5v483zM183 488q-17 0 -29 12t-12 29t12 28.5t29 11.5t28.5 -11.5t11.5 -28.5t-11.5 -29t-28.5 -12z" horiz-adv-x="292"/>
<glyph unicode="س" glyph-name="seeniso" arabic-form="isolated" d="M550 -96q-22 -5 -51 -10.5t-59.5 -9.5t-61 -6.5t-55.5 -2.5q-50 0 -94 9t-77 32t-52.5 62.5t-19.5 100.5v106h60v-101q0 -48 14 -78t38.5 -47t58 -23t72.5 -6q19 0 42 0.5t45.5 2t43.5 3.5t36 5v460h60v-328q21 -8 51.5 -13.5t63.5 -5.5q19 0 37.5 4t33 15.5t23.5 31 t9 49.5v247h60v-250q0 -41 -13 -72q20 -9 49.5 -17t68.5 -8q24 0 45 3.5t36 14t23.5 29t8.5 47.5v253h60v-253q0 -78 -42 -113t-130 -35h-1q-40 0 -76 9.5t-75 24.5q-40 -34 -117 -34q-56 0 -115 17v-113z" horiz-adv-x="1186"/>
<glyph unicode="ش" glyph-name="sheeniso" arabic-form="isolated" d="M550 -96q-22 -5 -51 -10.5t-59.5 -9.5t-61 -6.5t-55.5 -2.5q-50 0 -94 9t-77 32t-52.5 62.5t-19.5 100.5v106h60v-101q0 -48 14 -78t38.5 -47t58 -23t72.5 -6q19 0 42 0.5t45.5 2t43.5 3.5t36 5v460h60v-328q21 -8 51.5 -13.5t63.5 -5.5q19 0 37.5 4t33 15.5t23.5 31 t9 49.5v247h60v-250q0 -41 -13 -72q20 -9 49.5 -17t68.5 -8q24 0 45 3.5t36 14t23.5 29t8.5 47.5v253h60v-253q0 -78 -42 -113t-130 -35h-1q-40 0 -76 9.5t-75 24.5q-40 -34 -117 -34q-56 0 -115 17v-113zM852 487q-17 0 -29 12t-12 29t12 28.5t29 11.5t28.5 -11.5 t11.5 -28.5t-11.5 -29t-28.5 -12zM739 487q-16 0 -28 12t-12 29t12 28.5t28 11.5q17 0 29 -11.5t12 -28.5t-12 -29t-29 -12zM792 591q-17 0 -29 12t-12 29t12 28.5t29 11.5t28.5 -11.5t11.5 -28.5t-11.5 -29t-28.5 -12z" horiz-adv-x="1186"/>
<glyph unicode="ص" glyph-name="sadiso" arabic-form="isolated" d="M943 54v131q0 35 -3 64.5t-14 50.5t-34 33t-62 12q-34 0 -72 -9.5t-75.5 -36t-72 -72t-60.5 -117.5v-56h393zM550 -96q-22 -5 -51 -10.5t-59.5 -9.5t-61 -6.5t-55.5 -2.5q-50 0 -94 9t-77 32t-52.5 62.5t-19.5 100.5v106h60v-101q0 -48 14 -78t38.5 -47t58 -23t72.5 -6 q19 0 42 0.5t45.5 2t43.5 3.5t36 5v404h60v-121q19 40 48.5 73t66.5 56t80.5 35.5t90.5 12.5q46 0 78 -10.5t51.5 -34t28.5 -62.5t9 -96l1 -198h-454v-96z" horiz-adv-x="1084"/>
<glyph unicode="ض" glyph-name="dadiso" arabic-form="isolated" d="M943 54v131q0 35 -3 64.5t-14 50.5t-34 33t-62 12q-34 0 -72 -9.5t-75.5 -36t-72 -72t-60.5 -117.5v-56h393zM550 -96q-22 -5 -51 -10.5t-59.5 -9.5t-61 -6.5t-55.5 -2.5q-50 0 -94 9t-77 32t-52.5 62.5t-19.5 100.5v106h60v-101q0 -48 14 -78t38.5 -47t58 -23t72.5 -6 q19 0 42 0.5t45.5 2t43.5 3.5t36 5v404h60v-121q19 40 48.5 73t66.5 56t80.5 35.5t90.5 12.5q46 0 78 -10.5t51.5 -34t28.5 -62.5t9 -96l1 -198h-454v-96zM757 488q-17 0 -29 12t-12 29t12 28.5t29 11.5t28.5 -11.5t11.5 -28.5t-11.5 -29t-28.5 -12z" horiz-adv-x="1084"/>
<glyph unicode="ط" glyph-name="tahiso" arabic-form="isolated" d="M598 54v131q0 35 -3 64.5t-14 50.5t-34 33t-62 12q-34 0 -72 -9.5t-75.5 -36t-72 -72t-60.5 -117.5v-56h393zM145 54v626h60v-456q19 40 48.5 73t66.5 56t80.5 35.5t90.5 12.5q46 0 78 -10.5t51.5 -34t28.5 -62.5t9 -96v-198h-608v54h95z" horiz-adv-x="738"/>
<glyph unicode="ظ" glyph-name="zadiso" arabic-form="isolated" d="M598 54v131q0 35 -3 64.5t-14 50.5t-34 33t-62 12q-34 0 -72 -9.5t-75.5 -36t-72 -72t-60.5 -117.5v-56h393zM145 54v626h60v-456q19 40 48.5 73t66.5 56t80.5 35.5t90.5 12.5q46 0 78 -10.5t51.5 -34t28.5 -62.5t9 -96v-198h-608v54h95zM427 488q-17 0 -29 12t-12 29 t12 28.5t29 11.5t28.5 -11.5t11.5 -28.5t-11.5 -29t-28.5 -12z" horiz-adv-x="738"/>
<glyph unicode="ع" glyph-name="ayniso" arabic-form="isolated" d="M570 0h-294q-34 0 -62.5 -4.5t-49.5 -14.5t-32.5 -25.5t-11.5 -37.5t10.5 -37.5t29.5 -25t44.5 -14t55.5 -4.5h83v-54h-86q-89 0 -143 33t-54 102q0 65 56 100.5t156 35.5q-10 15 -17.5 34t-12.5 38t-7.5 37t-2.5 31q0 51 15.5 91t43 67.5t64.5 41.5t80 14q36 0 66 -8 t59 -25v-63q-28 20 -59.5 30.5t-62.5 10.5q-66 0 -106 -41t-40 -121q0 -15 4 -32.5t11.5 -36t18.5 -36.5t25 -32h219v-54z" horiz-adv-x="620"/>
<glyph unicode="غ" glyph-name="ghaiso" arabic-form="isolated" d="M570 0h-294q-34 0 -62.5 -4.5t-49.5 -14.5t-32.5 -25.5t-11.5 -37.5t10.5 -37.5t29.5 -25t44.5 -14t55.5 -4.5h83v-54h-86q-89 0 -143 33t-54 102q0 65 56 100.5t156 35.5q-10 15 -17.5 34t-12.5 38t-7.5 37t-2.5 31q0 51 15.5 91t43 67.5t64.5 41.5t80 14q36 0 66 -8 t59 -25v-63q-28 20 -59.5 30.5t-62.5 10.5q-66 0 -106 -41t-40 -121q0 -15 4 -32.5t11.5 -36t18.5 -36.5t25 -32h219v-54zM417 488q-17 0 -29 12t-12 29t12 28.5t29 11.5t28.5 -11.5t11.5 -28.5t-11.5 -29t-28.5 -12z" horiz-adv-x="620"/>
<glyph unicode="ف" glyph-name="faiso" arabic-form="isolated" d="M812 334q-18 6 -38.5 9.5t-43.5 3.5q-91 0 -132 -38t-41 -105q0 -71 43 -110.5t122 -39.5h90v280zM269 0q-95 0 -146.5 35t-51.5 117v193h60v-190q0 -31 11 -50.5t30 -31t43 -15.5t50 -4h294q-29 25 -45.5 62t-16.5 88q0 41 15 77t44 63t73 42.5t101 15.5q34 0 74 -8 t68 -20v-374h-603zM708 488q-17 0 -29 12t-12 29t12 28.5t29 11.5t28.5 -11.5t11.5 -28.5t-11.5 -29t-28.5 -12z" horiz-adv-x="952"/>
<glyph unicode="ق" glyph-name="kaafiso" arabic-form="isolated" d="M587 488q-17 0 -29 12t-12 29t12 28.5t29 11.5t28.5 -11.5t11.5 -28.5t-11.5 -29t-28.5 -12zM474 488q-16 0 -28 12t-12 29t12 28.5t28 11.5q17 0 29 -11.5t12 -28.5t-12 -29t-29 -12zM617 334q-18 6 -38.5 9.5t-43.5 3.5q-91 0 -132 -38t-41 -105q0 -71 43 -110.5 t122 -39.5h90v280zM313 -195q-50 0 -94 9t-77 32t-52.5 62.5t-19.5 100.5v208h60v-203q0 -48 14 -78t38.5 -47t58 -23t72.5 -6h137q19 0 42 0.5t45.5 2t43.5 3.5t36 5v129h-90q-45 0 -85.5 12t-71.5 37t-49.5 63.5t-18.5 91.5q0 41 15 77t44 63t73 42.5t101 15.5q34 0 74 -8 t68 -20v-540q-22 -5 -51 -10.5t-59.5 -9.5t-61 -6.5t-55.5 -2.5h-137z" horiz-adv-x="757"/>
<glyph unicode="ك" glyph-name="kafiso" arabic-form="isolated" d="M240 419h44q-5 11 -7 23t-2 21q0 23 7.5 39t20 26.5t28.5 15t33 4.5q27 0 53 -16v-45q-14 11 -27.5 15t-24.5 4q-21 0 -32.5 -9.5t-11.5 -35.5q0 -9 4.5 -21t12.5 -21h79v-43h-177v43zM589 14q-22 -5 -57 -9.5t-73 -8t-74.5 -5.5t-61.5 -2q-50 0 -94 9t-77 32t-52.5 62.5 t-19.5 100.5v106h60v-101q0 -48 14 -78t38.5 -47t58 -23t72.5 -6q19 0 48 0.5t59 2t57 3.5t42 5v625h60v-666z" horiz-adv-x="669"/>
<glyph unicode="ل" glyph-name="lamiso" arabic-form="isolated" d="M550 -96q-22 -5 -51 -10.5t-59.5 -9.5t-61 -6.5t-55.5 -2.5q-50 0 -94 9t-77 32t-52.5 62.5t-19.5 100.5v106h60v-101q0 -48 14 -78t38.5 -47t58 -23t72.5 -6q19 0 42 0.5t45.5 2t43.5 3.5t36 5v739h60v-776z" horiz-adv-x="630"/>
<glyph unicode="م" glyph-name="meemiso" arabic-form="isolated" d="M409 345q-42 0 -67 -21.5t-25 -63.5v-206h220v183q0 33 -8 54t-23 33t-35.5 16.5t-45.5 4.5h-16zM261 0q-29 0 -51.5 -4.5t-38 -17t-23.5 -34t-8 -54.5v-107h-60v119q0 82 47 117t130 35v210q0 61 39.5 99t105.5 38h28q83 0 125 -37t42 -115v-249h-336z" horiz-adv-x="647"/>
<glyph unicode="ن" glyph-name="nouniso" arabic-form="isolated" d="M308 488q-17 0 -29 12t-12 29t12 28.5t29 11.5t28.5 -11.5t11.5 -28.5t-11.5 -29t-28.5 -12zM530 -38q-22 -5 -51 -10.5t-59.5 -9.5t-61 -6.5t-55.5 -2.5q-50 0 -94 9t-77 32t-52.5 62.5t-19.5 100.5v208h60v-203q0 -48 14 -78t38.5 -47t58 -23t72.5 -6q19 0 42 0.5 t45.5 2t43.5 3.5t36 5v402h60v-439z" horiz-adv-x="590"/>
<glyph unicode="ه" glyph-name="haini" arabic-form="initial" d="M94 133q0 -36 20.5 -56.5t57.5 -22.5h95v79q0 38 -22.5 58.5t-64.5 20.5q-41 0 -63.5 -20.5t-22.5 -58.5zM262 345h-80q-13 0 -31 -2t-37.5 -5t-39 -7t-36.5 -8v56q37 11 75 16.5t74 5.5h80q83 0 130 -35t47 -117v-249h-453v54h69q-26 32 -26 79q0 30 11.5 55t31 42 t46 26.5t57.5 9.5t58 -9.5t46.5 -26.5t31 -42t11.5 -55l-1 -79h58v183q0 33 -11 54t-28 33t-39 16.5t-44 4.5z" horiz-adv-x="504"/>
<glyph unicode="و" glyph-name="wawiso" arabic-form="isolated" d="M365 334q-18 6 -38.5 9.5t-43.5 3.5q-91 0 -132 -38t-41 -105q0 -71 43 -110.5t122 -39.5h90v280zM425 -35q0 -50 -17 -85t-45.5 -57.5t-64.5 -32.5t-73 -10q-40 0 -75.5 8t-59.5 19v57q29 -14 64.5 -23.5t70.5 -9.5q27 0 52 7t44.5 24t31.5 45t12 69v24h-90 q-45 0 -85.5 12t-71.5 37t-49.5 63.5t-18.5 91.5q0 41 15 77t44 63t73 42.5t101 15.5q34 0 74 -8t68 -20v-409z" horiz-adv-x="505"/>
<glyph unicode="ى" glyph-name="alefma2souraiso" arabic-form="isolated" d="M293 -67q-50 0 -94 9t-77 32t-52.5 62.5t-19.5 100.5v106h60v-101q0 -48 14 -78t38.5 -47t58 -23t72.5 -6h90q31 0 66 2.5t63.5 10.5t47.5 24t19 43q0 19 -7 32.5t-20.5 23t-33.5 17t-46 16.5q-58 20 -84 47.5t-26 80.5q0 58 38.5 88t98.5 30q32 0 62.5 -7.5t56.5 -25.5 v-65q-26 21 -53.5 34t-65.5 13q-36 0 -57.5 -18t-21.5 -49q0 -30 20 -48t71 -34q28 -9 51.5 -19.5t40.5 -25.5t26 -35.5t9 -50.5q0 -46 -24.5 -73.5t-62 -42t-82 -19t-85.5 -4.5h-91z" horiz-adv-x="688"/>
<glyph unicode="ي" glyph-name="yaiso" arabic-form="isolated" d="M293 -67q-50 0 -94 9t-77 32t-52.5 62.5t-19.5 100.5v106h60v-101q0 -48 14 -78t38.5 -47t58 -23t72.5 -6h90q31 0 66 2.5t63.5 10.5t47.5 24t19 43q0 19 -7 32.5t-20.5 23t-33.5 17t-46 16.5q-58 20 -84 47.5t-26 80.5q0 58 38.5 88t98.5 30q32 0 62.5 -7.5t56.5 -25.5 v-65q-26 21 -53.5 34t-65.5 13q-36 0 -57.5 -18t-21.5 -49q0 -30 20 -48t71 -34q28 -9 51.5 -19.5t40.5 -25.5t26 -35.5t9 -50.5q0 -46 -24.5 -73.5t-62 -42t-82 -19t-85.5 -4.5h-91zM401 -199q-17 0 -29 12t-12 29t12 28.5t29 11.5t28.5 -11.5t11.5 -28.5t-11.5 -29 t-28.5 -12zM288 -199q-16 0 -28 12t-12 29t12 28.5t28 11.5q17 0 29 -11.5t12 -28.5t-12 -29t-29 -12z" horiz-adv-x="688"/>
<glyph unicode="ٱ" glyph-name="alefwaslaiso" arabic-form="isolated" d="M131 0h-60v680h60v-680z" horiz-adv-x="205"/>
<glyph unicode="پ" glyph-name="piso.001" arabic-form="isolated" d="M457 -66q17 0 29 -12t11 -29q1 -17 -11 -28t-29 -12q-17 0 -29 12q-12 11 -12 28t12 29t29 12zM344 -66q17 0 29 -12t12 -29t-12 -28t-29 -12q-16 0 -28 12q-12 11 -12 28t12 29t28 12zM397 -170q17 0 29 -12t11 -29q1 -17 -11 -28t-29 -12q-17 0 -29 12q-12 11 -12 28 t12 29t29 12zM260 0q-88 0 -135.5 35t-47.5 113v253h60v-253q0 -29 10 -47.5t27.5 -29t40 -14t46.5 -3.5h310q24 0 46.5 3.5t40 14t27.5 29t10 47.5v253h60v-253q0 -78 -47.5 -113t-135.5 -35h-312z" horiz-adv-x="823"/>
<glyph unicode="چ" glyph-name="giso" arabic-form="isolated" d="M510 -66q16 0 28 -12t12 -29t-12 -28t-28 -12q-17 0 -29 12q-12 11 -12 28t12 29t29 12zM397 -66q17 0 29 -12t12 -29t-12 -28t-29 -12q-16 0 -28 12q-12 11 -12 28t12 29t28 12zM450 -170q16 0 28 -12t12 -29t-12 -28t-28 -12q-17 0 -29 12q-12 11 -12 28t12 29t29 12z M253 -217q-89 0 -143 33t-54 102q0 65 56 100.5t156 35.5h180v183q0 33 -11 54t-28 33t-39 16.5t-44 4.5h-55q-35 0 -65 -6t-53 -14v53q25 9 59 16t69 7h55q79 0 125.5 -35t46.5 -117v-249h-236q-34 0 -62.5 -4.5t-49.5 -14.5t-32.5 -25.5t-11.5 -37.5t10.5 -37.5t29.5 -25 t44.5 -14t55.5 -4.5h83v-54h-86z" horiz-adv-x="558"/>
<glyph unicode="ژ" glyph-name="jehiso" arabic-form="isolated" d="M124 401h60v-487q0 -64 -30.5 -100t-100.5 -36q-16 0 -34.5 4t-31.5 10v55q11 -8 28.5 -12.5t37.5 -4.5q32 0 51.5 18.5t19.5 69.5v483zM188 487q-17 0 -29 12t-12 29t12 28.5t29 11.5t28.5 -11.5t11.5 -28.5t-11.5 -29t-28.5 -12zM75 487q-16 0 -28 12t-12 29t12 28.5 t28 11.5q17 0 29 -11.5t12 -28.5t-12 -29t-29 -12zM128 591q-17 0 -29 12t-12 29t12 28.5t29 11.5t28.5 -11.5t11.5 -28.5t-11.5 -29t-28.5 -12z" horiz-adv-x="255"/>
<glyph unicode="ڤ" glyph-name="vehiso" arabic-form="isolated" d="M812 334q-18 6 -38.5 9.5t-43.5 3.5q-91 0 -132 -38t-41 -105q0 -71 43 -110.5t122 -39.5h90v280zM269 0q-95 0 -146.5 35t-51.5 117v193h60v-190q0 -31 11 -50.5t30 -31t43 -15.5t50 -4h294q-29 25 -45.5 62t-16.5 88q0 41 15 77t44 63t73 42.5t101 15.5q34 0 74 -8 t68 -20v-374h-603zM757 487q-17 0 -29 12t-12 29t12 28.5t29 11.5t28.5 -11.5t11.5 -28.5t-11.5 -29t-28.5 -12zM644 487q-16 0 -28 12t-12 29t12 28.5t28 11.5q17 0 29 -11.5t12 -28.5t-12 -29t-29 -12zM697 591q-17 0 -29 12t-12 29t12 28.5t29 11.5t28.5 -11.5 t11.5 -28.5t-11.5 -29t-28.5 -12z" horiz-adv-x="952"/>
<glyph unicode="ک" glyph-name="kehehiso" arabic-form="isolated" d="M229 419h44q-5 11 -7 23t-2 21q0 23 7.5 39t20 26.5t28.5 15t33 4.5q27 0 53 -16v-45q-14 11 -27.5 15t-24.5 4q-21 0 -32.5 -9.5t-11.5 -35.5q0 -9 4.5 -21t12.5 -21h79v-43h-177v43zM589 14q-22 -5 -57 -9.5t-73 -8t-74.5 -5.5t-61.5 -2q-50 0 -94 9t-77 32t-52.5 62.5 t-19.5 100.5v106h60v-101q0 -48 14 -78t38.5 -47t58 -23t72.5 -6q19 0 48 0.5t59 2t57 3.5t42 5v625h60v-666z" horiz-adv-x="673"/>
<glyph unicode="گ" glyph-name="gafiso" arabic-form="isolated" d="M240 419h44q-5 11 -7 23t-2 21q0 23 7.5 39t20 26.5t28.5 15t33 4.5q27 0 53 -16v-45q-14 11 -27.5 15t-24.5 4q-21 0 -32.5 -9.5t-11.5 -35.5q0 -9 4.5 -21t12.5 -21h79v-43h-177v43zM589 14q-22 -5 -57 -9.5t-73 -8t-74.5 -5.5t-61.5 -2q-50 0 -94 9t-77 32t-52.5 62.5 t-19.5 100.5v106h60v-101q0 -48 14 -78t38.5 -47t58 -23t72.5 -6q19 0 48 0.5t59 2t57 3.5t42 5v625h60v-666z" horiz-adv-x="662"/>
<glyph unicode="ی" glyph-name="farsiyaiso" arabic-form="isolated" d="M319 -67q-50 0 -94 9t-77 32t-52.5 62.5t-19.5 100.5v106h60v-101q0 -48 14 -78t38.5 -47t58 -23t72.5 -6h90q31 0 66 2.5t63.5 10.5t47.5 24t19 43q0 19 -7 32.5t-20.5 23t-33.5 17t-46 16.5q-58 20 -84 47.5t-26 80.5q0 58 38.5 88t98.5 30q32 0 62.5 -7.5t56.5 -25.5 v-65q-26 21 -53.5 34t-65.5 13q-36 0 -57.5 -18t-21.5 -49q0 -30 20 -48t71 -34q28 -9 51.5 -19.5t40.5 -25.5t26 -35.5t9 -50.5q0 -46 -24.5 -73.5t-62 -42t-82 -19t-85.5 -4.5h-91z" horiz-adv-x="688"/>
<glyph unicode="ٱ" glyph-name="alefwaslafina" arabic-form="final" d="M253 0q-88 0 -135.5 35t-47.5 113v532h60v-532q0 -29 10 -47.5t27.5 -29t40 -14t46.5 -3.5h22v-54h-23z" horiz-adv-x="267"/>
<glyph unicode="پ" glyph-name="pfina" arabic-form="final" d="M432 -66q16 0 28 -12t12 -29t-12 -28t-28 -12q-17 0 -29 12q-12 11 -12 28t12 29t29 12zM319 -66q17 0 29 -12t12 -29t-12 -28t-29 -12q-16 0 -28 12q-12 11 -12 28t12 29t28 12zM372 -170q16 0 28 -12t12 -29t-12 -28t-28 -12q-17 0 -29 12q-12 11 -12 28t12 29t29 12z M238 0q-88 0 -135.5 35t-47.5 113v253h60v-253q0 -29 10 -47.5t27.5 -29t40 -14t46.5 -3.5h332q19 0 37.5 4t33 15.5t23.5 31t9 49.5v247h60v-250q0 -41 -13 -72q20 -9 54.5 -17t73.5 -8h34v-54h-34q-40 0 -81 9.5t-80 24.5q-40 -34 -117 -34h-333z" horiz-adv-x="876"/>
<glyph unicode="پ" glyph-name="pini" arabic-form="initial" d="M135 -66q17 0 29 -12t11 -29q1 -17 -11 -28t-29 -12q-17 0 -29 12q-12 11 -12 28t12 29t29 12zM22 -66q17 0 29 -12t12 -29t-12 -28t-29 -12q-16 0 -28 12q-12 11 -12 28t12 29t28 12zM75 -170q17 0 29 -12t11 -29q1 -17 -11 -28t-29 -12q-17 0 -29 12q-12 11 -12 28 t12 29t29 12zM-10 0v54h22q24 0 46.5 3.5t40 14t27.5 29t10 47.5v253h60v-253q0 -78 -47.5 -113t-135.5 -35h-23z" horiz-adv-x="249"/>
<glyph unicode="پ" glyph-name="pmedi" arabic-form="medial" d="M217 -66q17 0 29 -12t11 -29q1 -17 -11 -28t-29 -12q-17 0 -29 12q-12 11 -12 28t12 29t29 12zM104 -66q17 0 29 -12t12 -29t-12 -28t-29 -12q-16 0 -28 12q-12 11 -12 28t12 29t28 12zM157 -170q17 0 29 -12t11 -29q1 -17 -11 -28t-29 -12q-17 0 -29 12q-12 11 -12 28 t12 29t29 12zM312 0q-40 0 -81 9.5t-80 24.5q-40 -34 -117 -34h-43v54h43q19 0 37.5 4t33 15.5t23.5 31t9 49.5v247h60v-250q0 -41 -13 -72q20 -9 54.5 -17t73.5 -8h34v-54h-34z" horiz-adv-x="340"/>
<glyph unicode="چ" glyph-name="gfina" arabic-form="final" d="M534 -66q16 0 28 -12t12 -29t-12 -28t-28 -12q-17 0 -29 12q-12 11 -12 28t12 29t29 12zM421 -66q17 0 29 -12t12 -29t-12 -28t-29 -12q-16 0 -28 12q-12 11 -12 28t12 29t28 12zM474 -170q16 0 28 -12t12 -29t-12 -28t-28 -12q-17 0 -29 12q-12 11 -12 28t12 29t29 12z M248 -217q-89 0 -143 33t-54 102q0 65 56 100.5t156 35.5h180v183q0 33 -11 54t-28 33t-39 16.5t-44 4.5h-55q-35 0 -65 -6t-53 -14v53q25 9 59 16t69 7h55q79 0 125.5 -35t46.5 -117v-195h115v-54h-351q-34 0 -62.5 -4.5t-49.5 -14.5t-32.5 -25.5t-11.5 -37.5t10.5 -37.5 t29.5 -25t44.5 -14t55.5 -4.5h83v-54h-86z" horiz-adv-x="611"/>
<glyph unicode="چ" glyph-name="gini" arabic-form="initial" d="M259 -69q17 0 29 -12t11 -29q1 -17 -11 -28t-29 -12q-17 0 -29 12q-12 11 -12 28t12 29t29 12zM146 -69q17 0 29 -12t12 -29t-12 -28t-29 -12q-16 0 -28 12q-12 11 -12 28t12 29t28 12zM199 -173q17 0 29 -12t11 -29q1 -17 -11 -28t-29 -12q-17 0 -29 12q-12 11 -12 28 t12 29t29 12zM-9 54h373v183q0 33 -11 54t-28 33t-39 16.5t-44 4.5h-55q-35 0 -65 -6t-53 -14v53q25 9 59 16t69 7h55q79 0 125.5 -35t46.5 -117v-249h-433v54z" horiz-adv-x="471"/>
<glyph unicode="چ" glyph-name="gmedi" arabic-form="medial" d="M314 -86q16 0 28 -12t12 -29t-12 -28t-28 -12q-17 0 -29 12q-12 11 -12 28t12 29t29 12zM201 -86q17 0 29 -12t12 -29t-12 -28t-29 -12q-16 0 -28 12q-12 11 -12 28t12 29t28 12zM254 -190q16 0 28 -12t12 -29t-12 -28t-28 -12q-17 0 -29 12q-12 11 -12 28t12 29t29 12z M-10 54h373v183q0 33 -11 54t-28 33t-39 16.5t-44 4.5h-55q-35 0 -65 -6t-53 -14v53q25 9 59 16t69 7h55q79 0 125.5 -35t46.5 -117v-195h115v-54h-548v54z" horiz-adv-x="527"/>
<glyph unicode="ژ" glyph-name="jehfina" arabic-form="final" d="M108 401h60v-347h89v-54h-89v-86q0 -64 -30.5 -100t-100.5 -36q-16 0 -34.5 4t-31.5 10v55q11 -8 28.5 -12.5t37.5 -4.5q32 0 51.5 18.5t19.5 69.5v483zM188 487q-17 0 -29 12t-12 29t12 28.5t29 11.5t28.5 -11.5t11.5 -28.5t-11.5 -29t-28.5 -12zM75 487q-16 0 -28 12 t-12 29t12 28.5t28 11.5q17 0 29 -11.5t12 -28.5t-12 -29t-29 -12zM128 591q-17 0 -29 12t-12 29t12 28.5t29 11.5t28.5 -11.5t11.5 -28.5t-11.5 -29t-28.5 -12z" horiz-adv-x="252"/>
<glyph unicode="ک" glyph-name="kehehfina" arabic-form="final" d="M453 484l-15 -35h-215l34 35h32v58q0 40 24 63q22 22 64 24q23 0 42.5 -10.5t31.5 -29.5l-19 -23q-12 17 -26.5 21t-19.5 4h-2q-22 0 -37 -15q-13 -13 -13 -34v-58h119zM688 53h138v-53h-614q-42 0 -72.5 13t-50.5 35.5t-29.5 54t-9.5 67.5q0 48 13.5 92.5t38.5 83.5 l37 -26q-18 -31 -28.5 -64t-10.5 -71q0 -56 23.5 -93.5t83.5 -38.5h416v619l65 27v-646z" horiz-adv-x="819"/>
<glyph unicode="ک" glyph-name="kafini" arabic-form="initial" d="M-9 0v54h243q24 0 46.5 3.5t40 14t27.5 29t10 47.5l-1 56q-1 33 -11.5 54t-28 33t-39 16.5t-43.5 4.5h-202v61l373 307v-71l-293 -241h127q83 0 129 -35t48 -117l1 -68q1 -78 -47.5 -113t-135.5 -35h-244z" horiz-adv-x="499"/>
<glyph unicode="ک" glyph-name="kafmedi" arabic-form="medial" d="M33 373l373 307v-71l-293 -241h127q83 0 130 -35t47 -117v-62q0 -24 -3.5 -42.5t-9.5 -32.5q20 -9 54.5 -17t73.5 -8h47v-54h-47q-40 0 -81 9.5t-80 24.5q-40 -34 -117 -34h-263v54h263q19 0 37 4t32.5 15.5t23.5 31t10 49.5v50q0 33 -11 54t-28 33t-39 16.5t-44 4.5 h-202v61z" horiz-adv-x="570"/>
<glyph unicode="گ" glyph-name="gaffina" arabic-form="final" d="M453 484l-15 -35h-215l34 35h32v58q0 40 24 63q22 22 64 24q23 0 42.5 -10.5t31.5 -29.5l-19 -23q-12 17 -26.5 21t-19.5 4h-2q-22 0 -37 -15q-13 -13 -13 -34v-58h119zM688 53h138v-53h-614q-42 0 -72.5 13t-50.5 35.5t-29.5 54t-9.5 67.5q0 48 13.5 92.5t38.5 83.5 l37 -26q-18 -31 -28.5 -64t-10.5 -71q0 -56 23.5 -93.5t83.5 -38.5h416v619l65 27v-646z" horiz-adv-x="815"/>
<glyph unicode="گ" glyph-name="gafini" arabic-form="initial" d="M-9 0v54h243q24 0 46.5 3.5t40 14t27.5 29t10 47.5l-1 56q-1 33 -11.5 54t-28 33t-39 16.5t-43.5 4.5h-202v61l373 307v-71l-293 -241h127q83 0 129 -35t48 -117l1 -68q1 -78 -47.5 -113t-135.5 -35h-244z" horiz-adv-x="476"/>
<glyph unicode="گ" glyph-name="gafmedi" arabic-form="medial" d="M38 373l373 307v-71l-293 -241h127q83 0 130 -35t47 -117v-62q0 -24 -3.5 -42.5t-9.5 -32.5q20 -9 54.5 -17t73.5 -8h47v-54h-47q-40 0 -81 9.5t-80 24.5q-40 -34 -117 -34h-263v54h263q19 0 37 4t32.5 15.5t23.5 31t10 49.5v50q0 33 -11 54t-28 33t-39 16.5t-44 4.5 h-202v61z" horiz-adv-x="577"/>
<glyph unicode="ى" glyph-name="kirsehini" arabic-form="initial" d="M-9 0v54h22q24 0 46.5 3.5t40 14t27.5 29t10 47.5v253h60v-253q0 -78 -47.5 -113t-135.5 -35h-23z" horiz-adv-x="277"/>
<glyph unicode="ى" glyph-name="kirsehmedi" arabic-form="medial" d="M312 0q-40 0 -81 9.5t-80 24.5q-40 -34 -117 -34h-43v54h43q19 0 37.5 4t33 15.5t23.5 31t9 49.5v247h60v-250q0 -41 -13 -72q20 -9 54.5 -17t73.5 -8h34v-54h-34z" horiz-adv-x="337"/>
<glyph unicode="ی" glyph-name="alefma2sourafina" arabic-form="final" d="M491 251q0 45 13 75t35 48t51 24q22 5 47 5h15q33 -2 68 -11t68 -22v-316h103v-54h-163v331q-32 13 -64 17q-10 1 -19 2q-20 0 -37 -6q-25 -10 -41 -35t-16 -70v-167q0 -46 -24.5 -73.5t-62 -42t-82 -19t-85.5 -4.5h-4q-50 0 -94 9t-77 32t-52.5 62.5t-19.5 100.5v106h60 v-101q0 -48 14 -78t38.5 -47t58 -23t72.5 -6h3q31 0 65.5 2.5t63.5 10.5t47.5 24t18.5 43v183z" horiz-adv-x="882"/>
<glyph unicode="ی" glyph-name="yaini" arabic-form="initial" d="M-9 0v54h22q24 0 46.5 3.5t40 14t27.5 29t10 47.5v253h60v-253q0 -78 -47.5 -113t-135.5 -35h-23zM143 -177q-17 0 -29 12t-12 29t12 28.5t29 11.5t28.5 -11.5t11.5 -28.5t-11.5 -29t-28.5 -12zM30 -177q-16 0 -28 12t-12 29t12 28.5t28 11.5q17 0 29 -11.5t12 -28.5 t-12 -29t-29 -12z" horiz-adv-x="277"/>
<glyph unicode="ی" glyph-name="yamedi" arabic-form="medial" d="M312 0q-40 0 -81 9.5t-80 24.5q-40 -34 -117 -34h-43v54h43q19 0 37.5 4t33 15.5t23.5 31t9 49.5v247h60v-250q0 -41 -13 -72q20 -9 54.5 -17t73.5 -8h34v-54h-34zM216 -177q-17 0 -29 12t-12 29t12 28.5t29 11.5t28.5 -11.5t11.5 -28.5t-11.5 -29t-28.5 -12zM103 -177 q-16 0 -28 12t-12 29t12 28.5t28 11.5q17 0 29 -11.5t12 -28.5t-12 -29t-29 -12z" horiz-adv-x="337"/>
<glyph unicode="آ" glyph-name="alefmaddaabovefina" arabic-form="final" d="M253 0q-88 0 -135.5 35t-47.5 113v532h60v-532q0 -29 10 -47.5t27.5 -29t40 -14t46.5 -3.5h22v-54h-23zM248 820q0 -53 -23 -81t-63 -28q-20 0 -37.5 10t-33 21.5t-29.5 21.5t-27 10q-17 0 -27 -15.5t-10 -45.5h-51q0 53 23 81t63 28q20 0 37.5 -10t33 -22t29 -22 t27.5 -10q17 0 27 16t10 46h51z" horiz-adv-x="267"/>
<glyph unicode="أ" glyph-name="alefhamzaabovefina" arabic-form="final" d="M253 0q-88 0 -135.5 35t-47.5 113v532h60v-532q0 -29 10 -47.5t27.5 -29t40 -14t46.5 -3.5h22v-54h-23zM14 754h44q-5 11 -7 23t-2 21q0 23 7.5 39t20 26.5t28.5 15t33 4.5q27 0 53 -16v-45q-14 11 -27.5 15t-24.5 4q-21 0 -32.5 -9.5t-11.5 -35.5q0 -9 4.5 -21t12.5 -21 h79v-43h-177v43z" horiz-adv-x="267"/>
<glyph unicode="ؤ" glyph-name="wawhamzafina" arabic-form="final" d="M365 334q-18 6 -38.5 9.5t-43.5 3.5q-91 0 -132 -38t-41 -105q0 -71 43 -110.5t122 -39.5h90v280zM425 -35q0 -50 -17 -85t-45.5 -57.5t-64.5 -32.5t-73 -10q-40 0 -75.5 8t-59.5 19v57q29 -14 64.5 -23.5t70.5 -9.5q27 0 52 7t44.5 24t31.5 45t12 69v24h-90 q-45 0 -85.5 12t-71.5 37t-49.5 63.5t-18.5 91.5q0 41 15 77t44 63t73 42.5t101 15.5q34 0 74 -8t68 -20v-320h74v-54h-74v-35zM167 513h44q-5 11 -7 23t-2 21q0 23 7.5 39t20 26.5t28.5 15t33 4.5q27 0 53 -16v-45q-14 11 -27.5 15t-24.5 4q-21 0 -32.5 -9.5t-11.5 -35.5 q0 -9 4.5 -21t12.5 -21h79v-43h-177v43z" horiz-adv-x="490"/>
<glyph unicode="إ" glyph-name="alefhamzabelowfina" arabic-form="final" d="M253 0q-88 0 -135.5 35t-47.5 113v532h60v-532q0 -29 10 -47.5t27.5 -29t40 -14t46.5 -3.5h22v-54h-23zM36 -157h44q-5 11 -7 23t-2 21q0 23 7.5 39t20 26.5t28.5 15t33 4.5q27 0 53 -16v-45q-14 11 -27.5 15t-24.5 4q-21 0 -32.5 -9.5t-11.5 -35.5q0 -9 4.5 -21 t12.5 -21h79v-43h-177v43z" horiz-adv-x="267"/>
<glyph unicode="ئ" glyph-name="hamzakirsehfina" arabic-form="final" d="M491 251q0 45 13 75t35 48t51 24q22 5 47 5h15q33 -2 68 -11t68 -22v-316h103v-54h-163v331q-32 13 -64 17q-10 1 -19 2q-20 0 -37 -6q-25 -10 -41 -35t-16 -70v-167q0 -46 -24.5 -73.5t-62 -42t-82 -19t-85.5 -4.5h-4q-50 0 -94 9t-77 32t-52.5 62.5t-19.5 100.5v106h60 v-101q0 -48 14 -78t38.5 -47t58 -23t72.5 -6h3q31 0 65.5 2.5t63.5 10.5t47.5 24t18.5 43v183zM82 389h44q-5 11 -7 23t-2 21q0 23 7.5 39t20 26.5t28.5 15t33 4.5q27 0 53 -16v-45q-14 11 -27.5 15t-24.5 4q-21 0 -32.5 -9.5t-11.5 -35.5q0 -9 4.5 -21t12.5 -21h79v-43 h-177v43z" horiz-adv-x="882"/>
<glyph unicode="ئ" glyph-name="hamzakirsehini" arabic-form="initial" d="M-9 0v54h22q24 0 46.5 3.5t40 14t27.5 29t10 47.5v253h60v-253q0 -78 -47.5 -113t-135.5 -35h-23zM50 503h44q-5 11 -7 23t-2 21q0 23 7.5 39t20 26.5t28.5 15t33 4.5q27 0 53 -16v-45q-14 11 -27.5 15t-24.5 4q-21 0 -32.5 -9.5t-11.5 -35.5q0 -9 4.5 -21t12.5 -21h79 v-43h-177v43z" horiz-adv-x="277"/>
<glyph unicode="ئ" glyph-name="hamzakirsehmedi" arabic-form="medial" d="M312 0q-40 0 -81 9.5t-80 24.5q-40 -34 -117 -34h-43v54h43q19 0 37.5 4t33 15.5t23.5 31t9 49.5v247h60v-250q0 -41 -13 -72q20 -9 54.5 -17t73.5 -8h34v-54h-34zM63 503h44q-5 11 -7 23t-2 21q0 23 7.5 39t20 26.5t28.5 15t33 4.5q27 0 53 -16v-45q-14 11 -27.5 15 t-24.5 4q-21 0 -32.5 -9.5t-11.5 -35.5q0 -9 4.5 -21t12.5 -21h79v-43h-177v43z" horiz-adv-x="337"/>
<glyph unicode="ا" glyph-name="aleffina" arabic-form="final" d="M253 0q-88 0 -135.5 35t-47.5 113v532h60v-532q0 -29 10 -47.5t27.5 -29t40 -14t46.5 -3.5h22v-54h-23z" horiz-adv-x="267"/>
<glyph unicode="ب" glyph-name="behfina" arabic-form="final" d="M233 0q-88 0 -135.5 35t-47.5 113v253h60v-253q0 -29 10 -47.5t27.5 -29t40 -14t46.5 -3.5h332q19 0 37.5 4t33 15.5t23.5 31t9 49.5v247h60v-250q0 -41 -13 -72q20 -9 54.5 -17t73.5 -8h34v-54h-34q-40 0 -81 9.5t-80 24.5q-40 -34 -117 -34h-333zM391 -177 q-17 0 -29 12t-12 29t12 28.5t29 11.5t28.5 -11.5t11.5 -28.5t-11.5 -29t-28.5 -12z" horiz-adv-x="869"/>
<glyph unicode="ب" glyph-name="behini" arabic-form="initial" d="M-9 0v54h22q24 0 46.5 3.5t40 14t27.5 29t10 47.5v253h60v-253q0 -78 -47.5 -113t-135.5 -35h-23zM66 -177q-17 0 -29 12t-12 29t12 28.5t29 11.5t28.5 -11.5t11.5 -28.5t-11.5 -29t-28.5 -12z" horiz-adv-x="277"/>
<glyph unicode="ب" glyph-name="behmedi" arabic-form="medial" d="M312 0q-40 0 -81 9.5t-80 24.5q-40 -34 -117 -34h-43v54h43q19 0 37.5 4t33 15.5t23.5 31t9 49.5v247h60v-250q0 -41 -13 -72q20 -9 54.5 -17t73.5 -8h34v-54h-34zM163 -177q-17 0 -29 12t-12 29t12 28.5t29 11.5t28.5 -11.5t11.5 -28.5t-11.5 -29t-28.5 -12z" horiz-adv-x="337"/>
<glyph unicode="ة" glyph-name="tehmarboutafina" arabic-form="final" d="M365 334q-18 6 -38.5 9.5t-43.5 3.5q-91 0 -132 -38t-41 -105q0 -71 43 -110.5t122 -39.5h90v280zM510 0h-235q-45 0 -85.5 12t-71.5 37t-49.5 63.5t-18.5 91.5q0 41 15 77t44 63t73 42.5t101 15.5q34 0 74 -8t68 -20v-320h85v-54zM311 487q-17 0 -29 12t-12 29t12 28.5 t29 11.5t28.5 -11.5t11.5 -28.5t-11.5 -29t-28.5 -12zM198 487q-16 0 -28 12t-12 29t12 28.5t28 11.5q17 0 29 -11.5t12 -28.5t-12 -29t-29 -12z" horiz-adv-x="501"/>
<glyph unicode="ت" glyph-name="tafina" arabic-form="final" d="M233 0q-88 0 -135.5 35t-47.5 113v253h60v-253q0 -29 10 -47.5t27.5 -29t40 -14t46.5 -3.5h332q19 0 37.5 4t33 15.5t23.5 31t9 49.5v247h60v-250q0 -41 -13 -72q20 -9 54.5 -17t73.5 -8h34v-54h-34q-40 0 -81 9.5t-80 24.5q-40 -34 -117 -34h-333zM459 488q-17 0 -29 12 t-12 29t12 28.5t29 11.5t28.5 -11.5t11.5 -28.5t-11.5 -29t-28.5 -12zM346 488q-16 0 -28 12t-12 29t12 28.5t28 11.5q17 0 29 -11.5t12 -28.5t-12 -29t-29 -12z" horiz-adv-x="869"/>
<glyph unicode="ت" glyph-name="taini" arabic-form="initial" d="M-9 0v54h22q24 0 46.5 3.5t40 14t27.5 29t10 47.5v253h60v-253q0 -78 -47.5 -113t-135.5 -35h-23zM153 488q-17 0 -29 12t-12 29t12 28.5t29 11.5t28.5 -11.5t11.5 -28.5t-11.5 -29t-28.5 -12zM40 488q-16 0 -28 12t-12 29t12 28.5t28 11.5q17 0 29 -11.5t12 -28.5 t-12 -29t-29 -12z" horiz-adv-x="277"/>
<glyph unicode="ت" glyph-name="tamedi" arabic-form="medial" d="M312 0q-40 0 -81 9.5t-80 24.5q-40 -34 -117 -34h-43v54h43q19 0 37.5 4t33 15.5t23.5 31t9 49.5v247h60v-250q0 -41 -13 -72q20 -9 54.5 -17t73.5 -8h34v-54h-34zM219 488q-17 0 -29 12t-12 29t12 28.5t29 11.5t28.5 -11.5t11.5 -28.5t-11.5 -29t-28.5 -12zM106 488 q-16 0 -28 12t-12 29t12 28.5t28 11.5q17 0 29 -11.5t12 -28.5t-12 -29t-29 -12z" horiz-adv-x="337"/>
<glyph unicode="ث" glyph-name="thafina" arabic-form="final" d="M233 0q-88 0 -135.5 35t-47.5 113v253h60v-253q0 -29 10 -47.5t27.5 -29t40 -14t46.5 -3.5h332q19 0 37.5 4t33 15.5t23.5 31t9 49.5v247h60v-250q0 -41 -13 -72q20 -9 54.5 -17t73.5 -8h34v-54h-34q-40 0 -81 9.5t-80 24.5q-40 -34 -117 -34h-333zM447 487q-17 0 -29 12 t-12 29t12 28.5t29 11.5t28.5 -11.5t11.5 -28.5t-11.5 -29t-28.5 -12zM334 487q-16 0 -28 12t-12 29t12 28.5t28 11.5q17 0 29 -11.5t12 -28.5t-12 -29t-29 -12zM387 591q-17 0 -29 12t-12 29t12 28.5t29 11.5t28.5 -11.5t11.5 -28.5t-11.5 -29t-28.5 -12z" horiz-adv-x="869"/>
<glyph unicode="ث" glyph-name="thaini" arabic-form="initial" d="M-9 0v54h22q24 0 46.5 3.5t40 14t27.5 29t10 47.5v253h60v-253q0 -78 -47.5 -113t-135.5 -35h-23zM146 487q-17 0 -29 12t-12 29t12 28.5t29 11.5t28.5 -11.5t11.5 -28.5t-11.5 -29t-28.5 -12zM33 487q-16 0 -28 12t-12 29t12 28.5t28 11.5q17 0 29 -11.5t12 -28.5 t-12 -29t-29 -12zM86 591q-17 0 -29 12t-12 29t12 28.5t29 11.5t28.5 -11.5t11.5 -28.5t-11.5 -29t-28.5 -12z" horiz-adv-x="277"/>
<glyph unicode="ث" glyph-name="thamedi" arabic-form="medial" d="M312 0q-40 0 -81 9.5t-80 24.5q-40 -34 -117 -34h-43v54h43q19 0 37.5 4t33 15.5t23.5 31t9 49.5v247h60v-250q0 -41 -13 -72q20 -9 54.5 -17t73.5 -8h34v-54h-34zM221 487q-17 0 -29 12t-12 29t12 28.5t29 11.5t28.5 -11.5t11.5 -28.5t-11.5 -29t-28.5 -12zM108 487 q-16 0 -28 12t-12 29t12 28.5t28 11.5q17 0 29 -11.5t12 -28.5t-12 -29t-29 -12zM161 591q-17 0 -29 12t-12 29t12 28.5t29 11.5t28.5 -11.5t11.5 -28.5t-11.5 -29t-28.5 -12z" horiz-adv-x="337"/>
<glyph unicode="ج" glyph-name="jeemfina" arabic-form="final" d="M257 -217q-89 0 -143 33t-54 102q0 65 56 100.5t156 35.5h180v183q0 33 -11 54t-28 33t-39 16.5t-44 4.5h-55q-35 0 -65 -6t-53 -14v53q25 9 59 16t69 7h55q79 0 125.5 -35t46.5 -117v-195h115v-54h-351q-34 0 -62.5 -4.5t-49.5 -14.5t-32.5 -25.5t-11.5 -37.5 t10.5 -37.5t29.5 -25t44.5 -14t55.5 -4.5h83v-54h-86zM477 -177q-17 0 -29 12t-12 29t12 28.5t29 11.5t28.5 -11.5t11.5 -28.5t-11.5 -29t-28.5 -12z" horiz-adv-x="618"/>
<glyph unicode="ج" glyph-name="jeemini" arabic-form="initial" d="M-9 54h373v183q0 33 -11 54t-28 33t-39 16.5t-44 4.5h-55q-35 0 -65 -6t-53 -14v53q25 9 59 16t69 7h55q79 0 125.5 -35t46.5 -117v-249h-433v54zM215 -176q-17 0 -29 12t-12 29t12 28.5t29 11.5t28.5 -11.5t11.5 -28.5t-11.5 -29t-28.5 -12z" horiz-adv-x="484"/>
<glyph unicode="ج" glyph-name="jeemmedi" arabic-form="medial" d="M-9 54h373v183q0 33 -11 54t-28 33t-39 16.5t-44 4.5h-55q-35 0 -65 -6t-53 -14v53q25 9 59 16t69 7h55q79 0 125.5 -35t46.5 -117v-195h115v-54h-548v54zM244 -177q-17 0 -29 12t-12 29t12 28.5t29 11.5t28.5 -11.5t11.5 -28.5t-11.5 -29t-28.5 -12z" horiz-adv-x="530"/>
<glyph unicode="ح" glyph-name="haafina" arabic-form="final" d="M257 -217q-89 0 -143 33t-54 102q0 65 56 100.5t156 35.5h180v183q0 33 -11 54t-28 33t-39 16.5t-44 4.5h-55q-35 0 -65 -6t-53 -14v53q25 9 59 16t69 7h55q79 0 125.5 -35t46.5 -117v-195h115v-54h-351q-34 0 -62.5 -4.5t-49.5 -14.5t-32.5 -25.5t-11.5 -37.5 t10.5 -37.5t29.5 -25t44.5 -14t55.5 -4.5h83v-54h-86z" horiz-adv-x="618"/>
<glyph unicode="ح" glyph-name="haaini" arabic-form="initial" d="M-9 54h373v183q0 33 -11 54t-28 33t-39 16.5t-44 4.5h-55q-35 0 -65 -6t-53 -14v53q25 9 59 16t69 7h55q79 0 125.5 -35t46.5 -117v-249h-433v54z" horiz-adv-x="484"/>
<glyph unicode="ح" glyph-name="haamedi" arabic-form="medial" d="M-9 54h373v183q0 33 -11 54t-28 33t-39 16.5t-44 4.5h-55q-35 0 -65 -6t-53 -14v53q25 9 59 16t69 7h55q79 0 125.5 -35t46.5 -117v-195h115v-54h-548v54z" horiz-adv-x="530"/>
<glyph unicode="خ" glyph-name="khafina" arabic-form="final" d="M257 -217q-89 0 -143 33t-54 102q0 65 56 100.5t156 35.5h180v183q0 33 -11 54t-28 33t-39 16.5t-44 4.5h-55q-35 0 -65 -6t-53 -14v53q25 9 59 16t69 7h55q79 0 125.5 -35t46.5 -117v-195h115v-54h-351q-34 0 -62.5 -4.5t-49.5 -14.5t-32.5 -25.5t-11.5 -37.5 t10.5 -37.5t29.5 -25t44.5 -14t55.5 -4.5h83v-54h-86zM312 488q-17 0 -29 12t-12 29t12 28.5t29 11.5t28.5 -11.5t11.5 -28.5t-11.5 -29t-28.5 -12z" horiz-adv-x="618"/>
<glyph unicode="خ" glyph-name="khaini" arabic-form="initial" d="M-9 54h373v183q0 33 -11 54t-28 33t-39 16.5t-44 4.5h-55q-35 0 -65 -6t-53 -14v53q25 9 59 16t69 7h55q79 0 125.5 -35t46.5 -117v-249h-433v54zM232 488q-17 0 -29 12t-12 29t12 28.5t29 11.5t28.5 -11.5t11.5 -28.5t-11.5 -29t-28.5 -12z" horiz-adv-x="484"/>
<glyph unicode="خ" glyph-name="khamedi" arabic-form="medial" d="M-9 54h373v183q0 33 -11 54t-28 33t-39 16.5t-44 4.5h-55q-35 0 -65 -6t-53 -14v53q25 9 59 16t69 7h55q79 0 125.5 -35t46.5 -117v-195h115v-54h-548v54zM242 488q-17 0 -29 12t-12 29t12 28.5t29 11.5t28.5 -11.5t11.5 -28.5t-11.5 -29t-28.5 -12z" horiz-adv-x="530"/>
<glyph unicode="د" glyph-name="dalfina" arabic-form="final" d="M40 54h309v183q0 33 -11 54t-28 33t-39 16.5t-44 4.5q-13 0 -31 -2t-37.5 -5t-39 -7t-36.5 -8v56q37 11 75 16.5t74 5.5q83 0 130 -35t47 -117v-195h93v-54h-462v54z" horiz-adv-x="493"/>
<glyph unicode="ذ" glyph-name="zalfina" arabic-form="final" d="M40 54h309v183q0 33 -11 54t-28 33t-39 16.5t-44 4.5q-13 0 -31 -2t-37.5 -5t-39 -7t-36.5 -8v56q37 11 75 16.5t74 5.5q83 0 130 -35t47 -117v-195h93v-54h-462v54zM227 488q-17 0 -29 12t-12 29t12 28.5t29 11.5t28.5 -11.5t11.5 -28.5t-11.5 -29t-28.5 -12z" horiz-adv-x="493"/>
<glyph unicode="ر" glyph-name="rafina" arabic-form="final" d="M152 401h60v-347h89v-54h-89v-86q0 -64 -30.5 -100t-100.5 -36q-16 0 -34.5 4t-31.5 10v55q11 -8 28.5 -12.5t37.5 -4.5q32 0 51.5 18.5t19.5 69.5v483z" horiz-adv-x="292"/>
<glyph unicode="ز" glyph-name="zafina" arabic-form="final" d="M152 401h60v-347h89v-54h-89v-86q0 -64 -30.5 -100t-100.5 -36q-16 0 -34.5 4t-31.5 10v55q11 -8 28.5 -12.5t37.5 -4.5q32 0 51.5 18.5t19.5 69.5v483zM183 488q-17 0 -29 12t-12 29t12 28.5t29 11.5t28.5 -11.5t11.5 -28.5t-11.5 -29t-28.5 -12z" horiz-adv-x="292"/>
<glyph unicode="س" glyph-name="seenfina" arabic-form="final" d="M550 -96q-22 -5 -51 -10.5t-59.5 -9.5t-61 -6.5t-55.5 -2.5q-50 0 -94 9t-77 32t-52.5 62.5t-19.5 100.5v106h60v-101q0 -48 14 -78t38.5 -47t58 -23t72.5 -6q19 0 42 0.5t45.5 2t43.5 3.5t36 5v460h60v-328q20 -8 51 -13.5t64 -5.5q19 0 37.5 4t33 15.5t23.5 31t9 49.5 v247h60v-250q0 -41 -13 -72q20 -9 54.5 -17t73.5 -8q19 0 37.5 4t33 15.5t23.5 31t9 49.5v247h60v-250q0 -41 -13 -72q20 -9 54.5 -17t73.5 -8h34v-54h-34q-40 0 -81 9.5t-80 24.5q-40 -34 -117 -34q-40 0 -81 9.5t-80 24.5q-40 -34 -117 -34q-29 0 -57.5 5t-57.5 13v-114z " horiz-adv-x="1246"/>
<glyph unicode="س" glyph-name="seenini" arabic-form="initial" d="M580 0q-40 0 -76 9.5t-75 24.5q-40 -34 -117 -34q-40 0 -81 9.5t-80 24.5q-40 -34 -117 -34h-43v54h43q19 0 37.5 4t33 15.5t23.5 31t9 49.5v247h60v-250q0 -41 -13 -72q20 -9 54.5 -17t73.5 -8q19 0 37.5 4t33 15.5t23.5 31t9 49.5v247h60v-250q0 -41 -13 -72 q20 -9 49.5 -17t68.5 -8q24 0 45 3.5t36 14t23.5 29t8.5 47.5v253h60v-253q0 -78 -42 -113t-130 -35h-1z" horiz-adv-x="833"/>
<glyph unicode="س" glyph-name="seenmedi" arabic-form="medial" d="M860 0q-40 0 -81 9.5t-80 24.5q-40 -34 -117 -34q-40 0 -81 9.5t-80 24.5q-40 -34 -117 -34q-40 0 -81 9.5t-80 24.5q-40 -34 -117 -34h-35v54h35q19 0 37.5 4t33 15.5t23.5 31t9 49.5v247h60v-250q0 -41 -13 -72q20 -9 54.5 -17t73.5 -8q19 0 37.5 4t33 15.5t23.5 31 t9 49.5v247h60v-250q0 -41 -13 -72q20 -9 54.5 -17t73.5 -8q19 0 37.5 4t33 15.5t23.5 31t9 49.5v247h60v-250q0 -41 -13 -72q20 -9 54.5 -17t73.5 -8h34v-54h-34z" horiz-adv-x="885"/>
<glyph unicode="ش" glyph-name="sheenfina" arabic-form="final" d="M550 -96q-22 -5 -51 -10.5t-59.5 -9.5t-61 -6.5t-55.5 -2.5q-50 0 -94 9t-77 32t-52.5 62.5t-19.5 100.5v106h60v-101q0 -48 14 -78t38.5 -47t58 -23t72.5 -6q19 0 42 0.5t45.5 2t43.5 3.5t36 5v460h60v-328q20 -8 51 -13.5t64 -5.5q19 0 37.5 4t33 15.5t23.5 31t9 49.5 v247h60v-250q0 -41 -13 -72q20 -9 54.5 -17t73.5 -8q19 0 37.5 4t33 15.5t23.5 31t9 49.5v247h60v-250q0 -41 -13 -72q20 -9 54.5 -17t73.5 -8h34v-54h-34q-40 0 -81 9.5t-80 24.5q-40 -34 -117 -34q-40 0 -81 9.5t-80 24.5q-40 -34 -117 -34q-29 0 -57.5 5t-57.5 13v-114z M848 487q-17 0 -29 12t-12 29t12 28.5t29 11.5t28.5 -11.5t11.5 -28.5t-11.5 -29t-28.5 -12zM735 487q-16 0 -28 12t-12 29t12 28.5t28 11.5q17 0 29 -11.5t12 -28.5t-12 -29t-29 -12zM788 591q-17 0 -29 12t-12 29t12 28.5t29 11.5t28.5 -11.5t11.5 -28.5t-11.5 -29 t-28.5 -12z" horiz-adv-x="1246"/>
<glyph unicode="ش" glyph-name="sheenini" arabic-form="initial" d="M580 0q-40 0 -76 9.5t-75 24.5q-40 -34 -117 -34q-40 0 -81 9.5t-80 24.5q-40 -34 -117 -34h-43v54h43q19 0 37.5 4t33 15.5t23.5 31t9 49.5v247h60v-250q0 -41 -13 -72q20 -9 54.5 -17t73.5 -8q19 0 37.5 4t33 15.5t23.5 31t9 49.5v247h60v-250q0 -41 -13 -72 q20 -9 49.5 -17t68.5 -8q24 0 45 3.5t36 14t23.5 29t8.5 47.5v253h60v-253q0 -78 -42 -113t-130 -35h-1zM501 487q-17 0 -29 12t-12 29t12 28.5t29 11.5t28.5 -11.5t11.5 -28.5t-11.5 -29t-28.5 -12zM388 487q-16 0 -28 12t-12 29t12 28.5t28 11.5q17 0 29 -11.5t12 -28.5 t-12 -29t-29 -12zM441 591q-17 0 -29 12t-12 29t12 28.5t29 11.5t28.5 -11.5t11.5 -28.5t-11.5 -29t-28.5 -12z" horiz-adv-x="833"/>
<glyph unicode="ش" glyph-name="sheenmedi" arabic-form="medial" d="M860 0q-40 0 -81 9.5t-80 24.5q-40 -34 -117 -34q-40 0 -81 9.5t-80 24.5q-40 -34 -117 -34q-40 0 -81 9.5t-80 24.5q-40 -34 -117 -34h-35v54h35q19 0 37.5 4t33 15.5t23.5 31t9 49.5v247h60v-250q0 -41 -13 -72q20 -9 54.5 -17t73.5 -8q19 0 37.5 4t33 15.5t23.5 31 t9 49.5v247h60v-250q0 -41 -13 -72q20 -9 54.5 -17t73.5 -8q19 0 37.5 4t33 15.5t23.5 31t9 49.5v247h60v-250q0 -41 -13 -72q20 -9 54.5 -17t73.5 -8h34v-54h-34zM492 487q-17 0 -29 12t-12 29t12 28.5t29 11.5t28.5 -11.5t11.5 -28.5t-11.5 -29t-28.5 -12zM379 487 q-16 0 -28 12t-12 29t12 28.5t28 11.5q17 0 29 -11.5t12 -28.5t-12 -29t-29 -12zM432 591q-17 0 -29 12t-12 29t12 28.5t29 11.5t28.5 -11.5t11.5 -28.5t-11.5 -29t-28.5 -12z" horiz-adv-x="885"/>
<glyph unicode="ص" glyph-name="sadfina" arabic-form="final" d="M943 54v131q0 35 -3 64.5t-14 50.5t-34 33t-62 12q-34 0 -72 -9.5t-75.5 -36t-72 -72t-60.5 -117.5v-56h393zM1088 0h-538v-96q-22 -5 -51 -10.5t-59.5 -9.5t-61 -6.5t-55.5 -2.5q-50 0 -94 9t-77 32t-52.5 62.5t-19.5 100.5v106h60v-101q0 -48 14 -78t38.5 -47t58 -23 t72.5 -6q19 0 42 0.5t45.5 2t43.5 3.5t36 5v404h60v-121q19 40 48.5 73t66.5 56t80.5 35.5t90.5 12.5q46 0 78 -10.5t51.5 -34t28.5 -62.5t9 -96v-144h85v-54z" horiz-adv-x="1079"/>
<glyph unicode="ص" glyph-name="sadini" arabic-form="initial" d="M539 54v131q0 35 -3 64.5t-14 50.5t-34 33t-62 12q-34 0 -72 -9.5t-75.5 -36t-72 -72t-60.5 -117.5v-56h393zM86 54v291h60v-121q19 40 48.5 73t66.5 56t80.5 35.5t90.5 12.5q46 0 78 -10.5t51.5 -34t28.5 -62.5t9 -96l1 -198h-609v54h95z" horiz-adv-x="680"/>
<glyph unicode="ص" glyph-name="sadmedi" arabic-form="medial" d="M539 54v131q0 35 -3 64.5t-14 50.5t-34 33t-62 12q-34 0 -72 -9.5t-75.5 -36t-72 -72t-60.5 -117.5v-56h393zM86 54v291h60v-121q19 40 48.5 73t66.5 56t80.5 35.5t90.5 12.5q46 0 78 -10.5t51.5 -34t28.5 -62.5t9 -96v-144h84v-54h-692v54h95z" horiz-adv-x="674"/>
<glyph unicode="ض" glyph-name="dadfina" arabic-form="final" d="M943 54v131q0 35 -3 64.5t-14 50.5t-34 33t-62 12q-34 0 -72 -9.5t-75.5 -36t-72 -72t-60.5 -117.5v-56h393zM1088 0h-538v-96q-22 -5 -51 -10.5t-59.5 -9.5t-61 -6.5t-55.5 -2.5q-50 0 -94 9t-77 32t-52.5 62.5t-19.5 100.5v106h60v-101q0 -48 14 -78t38.5 -47t58 -23 t72.5 -6q19 0 42 0.5t45.5 2t43.5 3.5t36 5v404h60v-121q19 40 48.5 73t66.5 56t80.5 35.5t90.5 12.5q46 0 78 -10.5t51.5 -34t28.5 -62.5t9 -96v-144h85v-54zM773 488q-17 0 -29 12t-12 29t12 28.5t29 11.5t28.5 -11.5t11.5 -28.5t-11.5 -29t-28.5 -12z" horiz-adv-x="1079"/>
<glyph unicode="ض" glyph-name="dadini" arabic-form="initial" d="M539 54v131q0 35 -3 64.5t-14 50.5t-34 33t-62 12q-34 0 -72 -9.5t-75.5 -36t-72 -72t-60.5 -117.5v-56h393zM86 54v291h60v-121q19 40 48.5 73t66.5 56t80.5 35.5t90.5 12.5q46 0 78 -10.5t51.5 -34t28.5 -62.5t9 -96l1 -198h-609v54h95zM379 488q-17 0 -29 12t-12 29 t12 28.5t29 11.5t28.5 -11.5t11.5 -28.5t-11.5 -29t-28.5 -12z" horiz-adv-x="680"/>
<glyph unicode="ض" glyph-name="dadmedi" arabic-form="medial" d="M539 54v131q0 35 -3 64.5t-14 50.5t-34 33t-62 12q-34 0 -72 -9.5t-75.5 -36t-72 -72t-60.5 -117.5v-56h393zM86 54v291h60v-121q19 40 48.5 73t66.5 56t80.5 35.5t90.5 12.5q46 0 78 -10.5t51.5 -34t28.5 -62.5t9 -96v-144h84v-54h-692v54h95zM376 488q-17 0 -29 12 t-12 29t12 28.5t29 11.5t28.5 -11.5t11.5 -28.5t-11.5 -29t-28.5 -12z" horiz-adv-x="674"/>
<glyph unicode="ط" glyph-name="tahfina" arabic-form="final" d="M586 54v131q0 35 -3 64.5t-14 50.5t-34 33t-62 12q-34 0 -72 -9.5t-75.5 -36t-72 -72t-60.5 -117.5v-56h393zM730 0h-692v54h95v626h60v-456q19 40 48.5 73t66.5 56t80.5 35.5t90.5 12.5q46 0 78 -10.5t51.5 -34t28.5 -62.5t9 -96v-144h84v-54z" horiz-adv-x="720"/>
<glyph unicode="ط" glyph-name="tahini" arabic-form="initial" d="M539 54v131q0 35 -3 64.5t-14 50.5t-34 33t-62 12q-34 0 -72 -9.5t-75.5 -36t-72 -72t-60.5 -117.5v-56h393zM86 54v626h60v-456q19 40 48.5 73t66.5 56t80.5 35.5t90.5 12.5q46 0 78 -10.5t51.5 -34t28.5 -62.5t9 -96v-198h-608v54h95z" horiz-adv-x="679"/>
<glyph unicode="ط" glyph-name="tahmedi" arabic-form="medial" d="M542 54v131q0 35 -3 64.5t-14 50.5t-34 33t-62 12q-34 0 -72 -9.5t-75.5 -36t-72 -72t-60.5 -117.5v-56h393zM89 54v626h60v-456q19 40 48.5 73t66.5 56t80.5 35.5t90.5 12.5q46 0 78 -10.5t51.5 -34t28.5 -62.5t9 -96v-144h84v-54h-692v54h95z" horiz-adv-x="680"/>
<glyph unicode="ظ" glyph-name="zadfina" arabic-form="final" d="M598 54v131q0 35 -3 64.5t-14 50.5t-34 33t-62 12q-34 0 -72 -9.5t-75.5 -36t-72 -72t-60.5 -117.5v-56h393zM742 0h-692v54h95v626h60v-456q19 40 48.5 73t66.5 56t80.5 35.5t90.5 12.5q46 0 78 -10.5t51.5 -34t28.5 -62.5t9 -96v-144h84v-54zM457 488q-17 0 -29 12 t-12 29t12 28.5t29 11.5t28.5 -11.5t11.5 -28.5t-11.5 -29t-28.5 -12z" horiz-adv-x="733"/>
<glyph unicode="ظ" glyph-name="zadini" arabic-form="initial" d="M539 54v131q0 35 -3 64.5t-14 50.5t-34 33t-62 12q-34 0 -72 -9.5t-75.5 -36t-72 -72t-60.5 -117.5v-56h393zM86 54v626h60v-456q19 40 48.5 73t66.5 56t80.5 35.5t90.5 12.5q46 0 78 -10.5t51.5 -34t28.5 -62.5t9 -96v-198h-608v54h95zM394 488q-17 0 -29 12t-12 29 t12 28.5t29 11.5t28.5 -11.5t11.5 -28.5t-11.5 -29t-28.5 -12z" horiz-adv-x="679"/>
<glyph unicode="ظ" glyph-name="zadmedi" arabic-form="medial" d="M539 54v131q0 35 -3 64.5t-14 50.5t-34 33t-62 12q-34 0 -72 -9.5t-75.5 -36t-72 -72t-60.5 -117.5v-56h393zM86 54v626h60v-456q19 40 48.5 73t66.5 56t80.5 35.5t90.5 12.5q46 0 78 -10.5t51.5 -34t28.5 -62.5t9 -96v-144h84v-54h-692v54h95zM394 488q-17 0 -29 12 t-12 29t12 28.5t29 11.5t28.5 -11.5t11.5 -28.5t-11.5 -29t-28.5 -12z" horiz-adv-x="674"/>
<glyph unicode="ع" glyph-name="aynfina" arabic-form="final" d="M357 348q-50 0 -81 -8.5t-49 -22t-24.5 -30.5t-6.5 -34q0 -20 14.5 -47t37.5 -55t51.5 -53.5t57.5 -43.5q28 18 57 43.5t52 53.5t37.5 55t14.5 47q0 17 -6.5 34t-24.5 30.5t-49.5 22t-80.5 8.5zM624 0h-348q-34 0 -62.5 -4.5t-49.5 -14.5t-32.5 -25.5t-11.5 -37.5 t10.5 -37.5t29.5 -25t44.5 -14t55.5 -4.5h83v-54h-86q-89 0 -143 33t-54 102q0 65 56 100.5t156 35.5q-25 19 -49 44t-42.5 52t-29.5 54t-11 49q0 45 21.5 74.5t53.5 46.5t70.5 23.5t71.5 6.5q48 0 88 -9.5t68.5 -28t44.5 -46.5t16 -67q0 -22 -11 -49t-29.5 -54t-42.5 -52 t-49 -44h182v-54z" horiz-adv-x="615"/>
<glyph unicode="ع" glyph-name="aynini" arabic-form="initial" d="M-9 54h164q-10 15 -17.5 34t-12.5 38t-7.5 37t-2.5 31q0 51 15.5 91t43 67.5t64.5 41.5t80 14q36 0 66 -8t59 -25v-63q-28 20 -59.5 30.5t-62.5 10.5q-66 0 -106 -41t-40 -121q0 -15 4 -32.5t11.5 -36t18.5 -36.5t25 -32h219v-54h-462v54z" horiz-adv-x="503"/>
<glyph unicode="ع" glyph-name="aynmidi" arabic-form="medial" d="M490 253q0 -22 -11 -49t-29.5 -54t-42.5 -52t-49 -44h205v-54h-572v54h197q-25 19 -49 44t-42.5 52t-29.5 54t-11 49q0 45 21.5 74.5t53.5 46.5t70.5 23.5t71.5 6.5q48 0 88 -9.5t68.5 -28t44.5 -46.5t16 -67zM273 348q-50 0 -81 -8.5t-49 -22t-24.5 -30.5t-6.5 -34 q0 -20 14.5 -47t37.5 -55t51.5 -53.5t57.5 -43.5q28 18 57 43.5t52 53.5t37.5 55t14.5 47q0 17 -6.5 34t-24.5 30.5t-49.5 22t-80.5 8.5z" horiz-adv-x="554"/>
<glyph unicode="غ" glyph-name="ghafina" arabic-form="final" d="M357 348q-50 0 -81 -8.5t-49 -22t-24.5 -30.5t-6.5 -34q0 -20 14.5 -47t37.5 -55t51.5 -53.5t57.5 -43.5q28 18 57 43.5t52 53.5t37.5 55t14.5 47q0 17 -6.5 34t-24.5 30.5t-49.5 22t-80.5 8.5zM624 0h-348q-34 0 -62.5 -4.5t-49.5 -14.5t-32.5 -25.5t-11.5 -37.5 t10.5 -37.5t29.5 -25t44.5 -14t55.5 -4.5h83v-54h-86q-89 0 -143 33t-54 102q0 65 56 100.5t156 35.5q-25 19 -49 44t-42.5 52t-29.5 54t-11 49q0 45 21.5 74.5t53.5 46.5t70.5 23.5t71.5 6.5q48 0 88 -9.5t68.5 -28t44.5 -46.5t16 -67q0 -22 -11 -49t-29.5 -54t-42.5 -52 t-49 -44h182v-54zM357 488q-17 0 -29 12t-12 29t12 28.5t29 11.5t28.5 -11.5t11.5 -28.5t-11.5 -29t-28.5 -12z" horiz-adv-x="615"/>
<glyph unicode="غ" glyph-name="ghaini" arabic-form="initial" d="M-9 54h164q-10 15 -17.5 34t-12.5 38t-7.5 37t-2.5 31q0 51 15.5 91t43 67.5t64.5 41.5t80 14q36 0 66 -8t59 -25v-63q-28 20 -59.5 30.5t-62.5 10.5q-66 0 -106 -41t-40 -121q0 -15 4 -32.5t11.5 -36t18.5 -36.5t25 -32h219v-54h-462v54zM299 488q-17 0 -29 12t-12 29 t12 28.5t29 11.5t28.5 -11.5t11.5 -28.5t-11.5 -29t-28.5 -12z" horiz-adv-x="503"/>
<glyph unicode="غ" glyph-name="ghamedi" arabic-form="medial" d="M490 253q0 -22 -11 -49t-29.5 -54t-42.5 -52t-49 -44h205v-54h-572v54h197q-25 19 -49 44t-42.5 52t-29.5 54t-11 49q0 45 21.5 74.5t53.5 46.5t70.5 23.5t71.5 6.5q48 0 88 -9.5t68.5 -28t44.5 -46.5t16 -67zM273 348q-50 0 -81 -8.5t-49 -22t-24.5 -30.5t-6.5 -34 q0 -20 14.5 -47t37.5 -55t51.5 -53.5t57.5 -43.5q28 18 57 43.5t52 53.5t37.5 55t14.5 47q0 17 -6.5 34t-24.5 30.5t-49.5 22t-80.5 8.5zM274 488q-17 0 -29 12t-12 29t12 28.5t29 11.5t28.5 -11.5t11.5 -28.5t-11.5 -29t-28.5 -12z" horiz-adv-x="554"/>
<glyph unicode="ف" glyph-name="fafina" arabic-form="final" d="M812 334q-18 6 -38.5 9.5t-43.5 3.5q-91 0 -132 -38t-41 -105q0 -69 41 -108.5t116 -41.5h98v280zM269 0q-95 0 -146.5 35t-51.5 117v193h60v-190q0 -31 11 -50.5t30 -31t43 -15.5t50 -4h294q-29 25 -45.5 62t-16.5 88q0 41 15 77t44 63t73 42.5t101 15.5q34 0 74 -8 t68 -20v-320h75v-54h-678zM715 488q-17 0 -29 12t-12 29t12 28.5t29 11.5t28.5 -11.5t11.5 -28.5t-11.5 -29t-28.5 -12z" horiz-adv-x="939"/>
<glyph unicode="ف" glyph-name="faini" arabic-form="initial" d="M392 334q-18 6 -38.5 9.5t-43.5 3.5q-91 0 -132 -38t-41 -105q0 -71 43 -110.5t122 -39.5h90v280zM-9 54h148q-29 25 -45.5 62t-16.5 88q0 41 15 77t44 63t73 42.5t101 15.5q34 0 74 -8t68 -20v-374h-150h-9h-302v54zM296 488q-17 0 -29 12t-12 29t12 28.5t29 11.5 t28.5 -11.5t11.5 -28.5t-11.5 -29t-28.5 -12z" horiz-adv-x="532"/>
<glyph unicode="ف" glyph-name="famedi" arabic-form="medial" d="M392 334q-18 6 -38.5 9.5t-43.5 3.5q-91 0 -132 -38t-41 -105q0 -69 41 -108.5t116 -41.5h98v280zM-9 54h148q-29 25 -45.5 62t-16.5 88q0 41 15 77t44 63t73 42.5t101 15.5q34 0 74 -8t68 -20v-320h114v-54h-575v54zM285 488q-17 0 -29 12t-12 29t12 28.5t29 11.5 t28.5 -11.5t11.5 -28.5t-11.5 -29t-28.5 -12z" horiz-adv-x="557"/>
<glyph unicode="ق" glyph-name="kaaffina" arabic-form="final" d="M587 488q-17 0 -29 12t-12 29t12 28.5t29 11.5t28.5 -11.5t11.5 -28.5t-11.5 -29t-28.5 -12zM474 488q-16 0 -28 12t-12 29t12 28.5t28 11.5q17 0 29 -11.5t12 -28.5t-12 -29t-29 -12zM617 334q-18 6 -38.5 9.5t-43.5 3.5q-91 0 -132 -38t-41 -105q0 -71 43 -110.5 t122 -39.5h90v280zM313 -195q-50 0 -94 9t-77 32t-52.5 62.5t-19.5 100.5v208h60v-203q0 -48 14 -78t38.5 -47t58 -23t72.5 -6h137q19 0 42 0.5t45.5 2t43.5 3.5t36 5v129h-90q-45 0 -85.5 12t-71.5 37t-49.5 63.5t-18.5 91.5q0 41 15 77t44 63t73 42.5t101 15.5q34 0 74 -8 t68 -20v-320h81v-54h-81v-166q-22 -5 -51 -10.5t-59.5 -9.5t-61 -6.5t-55.5 -2.5h-137z" horiz-adv-x="749"/>
<glyph unicode="ق" glyph-name="kaafini" arabic-form="initial" d="M392 334q-18 6 -38.5 9.5t-43.5 3.5q-91 0 -132 -38t-41 -105q0 -71 43 -110.5t122 -39.5h90v280zM-9 54h148q-29 25 -45.5 62t-16.5 88q0 41 15 77t44 63t73 42.5t101 15.5q34 0 74 -8t68 -20v-374h-150h-9h-302v54zM335 488q-17 0 -29 12t-12 29t12 28.5t29 11.5 t28.5 -11.5t11.5 -28.5t-11.5 -29t-28.5 -12zM222 488q-16 0 -28 12t-12 29t12 28.5t28 11.5q17 0 29 -11.5t12 -28.5t-12 -29t-29 -12z" horiz-adv-x="532"/>
<glyph unicode="ق" glyph-name="kaafmedi" arabic-form="medial" d="M392 334q-18 6 -38.5 9.5t-43.5 3.5q-91 0 -132 -38t-41 -105q0 -69 41 -108.5t116 -41.5h98v280zM-9 54h148q-29 25 -45.5 62t-16.5 88q0 41 15 77t44 63t73 42.5t101 15.5q34 0 74 -8t68 -20v-320h114v-54h-575v54zM348 488q-17 0 -29 12t-12 29t12 28.5t29 11.5 t28.5 -11.5t11.5 -28.5t-11.5 -29t-28.5 -12zM235 488q-16 0 -28 12t-12 29t12 28.5t28 11.5q17 0 29 -11.5t12 -28.5t-12 -29t-29 -12z" horiz-adv-x="557"/>
<glyph unicode="ك" glyph-name="kaffina" arabic-form="final" d="M240 419h44q-5 11 -7 23t-2 21q0 23 7.5 39t20 26.5t28.5 15t33 4.5q27 0 53 -16v-45q-14 11 -27.5 15t-24.5 4q-21 0 -32.5 -9.5t-11.5 -35.5q0 -9 4.5 -21t12.5 -21h79v-43h-177v43zM323 -11q-50 0 -94 9t-77 32t-52.5 62.5t-19.5 100.5v106h60v-101q0 -48 14 -78 t38.5 -47t58 -23t72.5 -6q19 0 48 0.5t59 2t57 3.5t42 5v625h60v-626h92v-54h-151q-25 -3 -53.5 -5.5t-56.5 -3.5t-53.5 -1.5t-43.5 -0.5z" horiz-adv-x="677"/>
<glyph unicode="ل" glyph-name="lamfina" arabic-form="final" d="M550 -96q-22 -5 -51 -10.5t-59.5 -9.5t-61 -6.5t-55.5 -2.5q-50 0 -94 9t-77 32t-52.5 62.5t-19.5 100.5v106h60v-101q0 -48 14 -78t38.5 -47t58 -23t72.5 -6q19 0 42 0.5t45.5 2t43.5 3.5t36 5v739h60v-626h113v-54h-113v-96z" horiz-adv-x="654"/>
<glyph unicode="ل" glyph-name="lamini" arabic-form="initial" d="M-9 0v54h22q24 0 46.5 3.5t40 14t27.5 29t10 47.5v532h60v-532q0 -78 -47.5 -113t-135.5 -35h-23z" horiz-adv-x="277"/>
<glyph unicode="ل" glyph-name="lammedi" arabic-form="medial" d="M270 0q-40 0 -74 9.5t-73 24.5q-20 -17 -47 -25.5t-65 -8.5h-20v54h20q19 0 36.5 4t31 15.5t22 31t8.5 49.5v526h60v-529q0 -41 -13 -72q20 -9 47.5 -17t66.5 -8h21v-54h-21z" horiz-adv-x="282"/>
<glyph unicode="م" glyph-name="meemfina" arabic-form="final" d="M409 345q-42 0 -67 -21.5t-25 -63.5v-206h220v183q0 33 -8 54t-23 33t-35.5 16.5t-45.5 4.5h-16zM261 0q-29 0 -51.5 -4.5t-38 -17t-23.5 -34t-8 -54.5v-107h-60v119q0 82 47 117t130 35v210q0 61 39.5 99t105.5 38h28q83 0 125 -37t42 -115v-195h88v-54h-424z" horiz-adv-x="676"/>
<glyph unicode="م" glyph-name="meemini" arabic-form="initial" d="M295 345q-42 0 -67 -21.5t-25 -63.5v-111q1 -29 12.5 -47.5t30 -29t42 -14.5t49.5 -4h86v183q0 33 -8 54t-23 33t-35.5 16.5t-45.5 4.5h-16zM288 401h28q83 0 125 -37t42 -115v-249h-142q-60 0 -102 13t-66 42q-25 -29 -67 -42t-101 -13h-14v54h18q25 0 48.5 4t42.5 14.5 t30.5 29t12.5 47.5v115q0 61 39.5 99t105.5 38z" horiz-adv-x="533"/>
<glyph unicode="م" glyph-name="meemmedi" arabic-form="medial" d="M295 345q-42 0 -67 -21.5t-25 -63.5v-111q1 -29 12.5 -47.5t30 -29t42 -14.5t49.5 -4h86v183q0 33 -8 54t-23 33t-35.5 16.5t-45.5 4.5h-16zM288 401h28q83 0 125 -37t42 -115v-195h88v-54h-230q-60 0 -102 13t-66 42q-25 -29 -67 -42t-101 -13h-14v54h18q25 0 48.5 4 t42.5 14.5t30.5 29t12.5 47.5v115q0 61 39.5 99t105.5 38z" horiz-adv-x="562"/>
<glyph unicode="ن" glyph-name="nounfina" arabic-form="final" d="M298 488q-17 0 -29 12t-12 29t12 28.5t29 11.5t28.5 -11.5t11.5 -28.5t-11.5 -29t-28.5 -12zM530 -38q-22 -5 -51 -10.5t-59.5 -9.5t-61 -6.5t-55.5 -2.5q-50 0 -94 9t-77 32t-52.5 62.5t-19.5 100.5v208h60v-203q0 -48 14 -78t38.5 -47t58 -23t72.5 -6q19 0 42 0.5 t45.5 2t43.5 3.5t36 5v402h60v-347h104v-54h-104v-38z" horiz-adv-x="625"/>
<glyph unicode="ن" glyph-name="nounini" arabic-form="initial" d="M-9 0v54h22q24 0 46.5 3.5t40 14t27.5 29t10 47.5v253h60v-253q0 -78 -47.5 -113t-135.5 -35h-23zM165 488q-17 0 -29 12t-12 29t12 28.5t29 11.5t28.5 -11.5t11.5 -28.5t-11.5 -29t-28.5 -12z" horiz-adv-x="277"/>
<glyph unicode="ن" glyph-name="nounmedi" arabic-form="medial" d="M312 0q-40 0 -81 9.5t-80 24.5q-40 -34 -117 -34h-43v54h43q19 0 37.5 4t33 15.5t23.5 31t9 49.5v247h60v-250q0 -41 -13 -72q20 -9 54.5 -17t73.5 -8h34v-54h-34zM167 488q-17 0 -29 12t-12 29t12 28.5t29 11.5t28.5 -11.5t11.5 -28.5t-11.5 -29t-28.5 -12z" horiz-adv-x="337"/>
<glyph unicode="ه" glyph-name="haiso" arabic-form="isolated" d="M425 0h-150q-45 0 -85.5 12t-71.5 37t-49.5 63.5t-18.5 91.5q0 41 15 77t44 63t73 42.5t101 15.5q34 0 74 -8t68 -20v-374zM365 334q-18 6 -38.5 9.5t-43.5 3.5q-91 0 -132 -38t-41 -105q0 -71 43 -110.5t122 -39.5h90v280z" horiz-adv-x="485"/>
<glyph unicode="ه" glyph-name="hafina" arabic-form="final" d="M365 334q-18 6 -38.5 9.5t-43.5 3.5q-91 0 -132 -38t-41 -105q0 -71 43 -110.5t122 -39.5h90v280zM510 0h-235q-45 0 -85.5 12t-71.5 37t-49.5 63.5t-18.5 91.5q0 41 15 77t44 63t73 42.5t101 15.5q34 0 74 -8t68 -20v-320h85v-54z" horiz-adv-x="501"/>
<glyph unicode="ه" glyph-name="hamedi" arabic-form="medial" d="M94 133q0 -36 20.5 -56.5t57.5 -22.5h95v79q0 38 -22.5 58.5t-64.5 20.5q-41 0 -63.5 -20.5t-22.5 -58.5zM262 345h-80q-13 0 -31 -2t-37.5 -5t-39 -7t-36.5 -8v56q37 11 75 16.5t74 5.5h80q83 0 130 -35t47 -117v-195h66v-54h-519v54h69q-26 32 -26 79q0 30 11.5 55 t31 42t46 26.5t57.5 9.5t58 -9.5t46.5 -26.5t31 -42t11.5 -55l-1 -79h58v183q0 33 -11 54t-28 33t-39 16.5t-44 4.5z" horiz-adv-x="501"/>
<glyph unicode="و" glyph-name="wawfina" arabic-form="final" d="M365 334q-18 6 -38.5 9.5t-43.5 3.5q-91 0 -132 -38t-41 -105q0 -71 43 -110.5t122 -39.5h90v280zM425 -35q0 -50 -17 -85t-45.5 -57.5t-64.5 -32.5t-73 -10q-40 0 -75.5 8t-59.5 19v57q29 -14 64.5 -23.5t70.5 -9.5q27 0 52 7t44.5 24t31.5 45t12 69v24h-90 q-45 0 -85.5 12t-71.5 37t-49.5 63.5t-18.5 91.5q0 41 15 77t44 63t73 42.5t101 15.5q34 0 74 -8t68 -20v-320h74v-54h-74v-35z" horiz-adv-x="490"/>
<glyph unicode="ي" glyph-name="yafina" arabic-form="final" d="M491 251q0 45 13 75t35 48t51 24q22 5 47 5h15q33 -2 68 -11t68 -22v-316h103v-54h-163v331q-32 13 -64 17q-10 1 -19 2q-20 0 -37 -6q-25 -10 -41 -35t-16 -70v-167q0 -46 -24.5 -73.5t-62 -42t-82 -19t-85.5 -4.5h-4q-50 0 -94 9t-77 32t-52.5 62.5t-19.5 100.5v106h60 v-101q0 -48 14 -78t38.5 -47t58 -23t72.5 -6h3q31 0 65.5 2.5t63.5 10.5t47.5 24t18.5 43v183zM355 -199q-17 0 -29 12t-12 29t12 28.5t29 11.5t28.5 -11.5t11.5 -28.5t-11.5 -29t-28.5 -12zM242 -199q-16 0 -28 12t-12 29t12 28.5t28 11.5q17 0 29 -11.5t12 -28.5t-12 -29 t-29 -12z" horiz-adv-x="882"/>
<glyph glyph-name=".notdef" d="M125 62h250v438h-250v-438zM62 0v562h375v-562h-375z" horiz-adv-x="500"/>
<glyph glyph-name=".null"/>
<glyph glyph-name="nonmarkingreturn" horiz-adv-x="256"/>
<glyph unicode=" " glyph-name="space" horiz-adv-x="218"/>
<glyph unicode=" " glyph-name="space" horiz-adv-x="218"/>
<glyph unicode="!" glyph-name="exclam" d="M80 41q0 20 14.5 34.5t34.5 14.5t35 -14.5t15 -34.5t-15 -35t-35 -15t-34.5 15t-14.5 35zM159 169h-59v456h59v-456z" horiz-adv-x="259"/>
<glyph unicode='&quot;' glyph-name="quotedbl" d="M162 680h57l-4 -208h-48zM55 680h57l-4 -208h-48z" horiz-adv-x="264"/>
<glyph unicode="$" glyph-name="dollar" d="M236 56q21 3 39.5 10.5t32.5 20t22 29.5t8 40q0 24 -8 41t-21.5 29.5t-32 22t-40.5 17.5v-210zM186 536q-44 -4 -74.5 -26t-30.5 -66q0 -23 6.5 -38.5t19.5 -26.5t32.5 -19.5t46.5 -17.5v194zM341 492q-26 17 -51 28t-54 15v-208q37 -12 66.5 -26.5t49.5 -34.5 t30.5 -46.5t10.5 -63.5q0 -34 -12 -60.5t-33 -45.5t-50 -31t-62 -16v-98h-50v95q-45 2 -85 17.5t-67 36.5l17 53q31 -23 65 -38t70 -17v229q-37 11 -66.5 24t-50.5 31.5t-32 44.5t-11 62q0 33 13 59t35.5 44.5t51 29t60.5 12.5v92h50v-93q33 -4 62 -13.5t52 -25.5z" horiz-adv-x="415"/>
<glyph unicode="%" glyph-name="percent" d="M197 0h-58l357 594h58zM601 127q0 42 -23.5 64t-58.5 22t-58 -22t-23 -64t23 -63.5t58 -21.5t58.5 21.5t23.5 63.5zM657 127q0 -30 -11 -55t-29.5 -43.5t-44 -28.5t-53.5 -10t-53 10t-43.5 28.5t-29.5 43.5t-11 55t11 55.5t29.5 44t43.5 28.5t53 10t53.5 -10t44 -28.5 t29.5 -44t11 -55.5zM91 466q0 -42 23 -63.5t58 -21.5t58.5 21.5t23.5 63.5t-23.5 64t-58.5 22t-58 -22t-23 -64zM35 466q0 30 11 55.5t29.5 44t43.5 28.5t53 10t53.5 -10t44 -28.5t29.5 -44t11 -55.5t-11 -55t-29.5 -43.5t-44 -28.5t-53.5 -10t-53 10t-43.5 28.5t-29.5 43.5 t-11 55z" horiz-adv-x="685"/>
<glyph unicode="&apos;" glyph-name="quotesingle" d="M55 680h57l-4 -208h-48z" horiz-adv-x="156"/>
<glyph unicode="(" glyph-name="parenleft" d="M238 -140q-37 34 -69.5 77.5t-56.5 95.5t-38 111.5t-14 125.5t14 125.5t38 111.5t56.5 95t69.5 78h67q-39 -38 -73.5 -81t-60 -92.5t-40 -108t-14.5 -128.5t14.5 -128.5t40 -108t60 -92.5t73.5 -81h-67z" horiz-adv-x="326"/>
<glyph unicode=")" glyph-name="parenright" d="M77 680q37 -35 69.5 -78t56.5 -95t38 -111.5t14 -125.5t-14 -125.5t-38 -111.5t-56.5 -95.5t-69.5 -77.5h-67q39 38 73 81t59.5 92.5t40.5 108t15 128.5t-15 128.5t-40.5 108t-59.5 92.5t-73 81h67z" horiz-adv-x="281"/>
<glyph unicode="+" glyph-name="plus" d="M44 264v53h159v159h53v-159h159v-53h-159v-159h-53v159h-159z" horiz-adv-x="459"/>
<glyph unicode="-" glyph-name="hyphen" d="M70 286h269v-54h-269v54z" horiz-adv-x="388"/>
<glyph unicode="." glyph-name="period" d="M70 41q0 20 14.5 34.5t34.5 14.5t35 -14.5t15 -34.5t-15 -35t-35 -15t-34.5 15t-14.5 35z" horiz-adv-x="234"/>
<glyph unicode="/" glyph-name="slash" d="M13 -129l311 809h58l-311 -809h-58z" horiz-adv-x="401"/>
<glyph unicode="0" glyph-name="zero" d="M112 291q0 -56 11.5 -101.5t32 -78t50 -50.5t65.5 -18t65.5 18t50 50.5t32 78t11.5 101.5t-11.5 102t-32 79t-50 51t-65.5 18t-65.5 -18t-50 -51t-32 -79t-11.5 -102zM50 291q0 67 15.5 122.5t44 95.5t69.5 62.5t92 22.5t92 -22.5t69.5 -62.5t44 -95.5t15.5 -122.5 t-15.5 -122.5t-44 -95t-69.5 -61.5t-92 -22t-92 22t-69.5 61.5t-44 95t-15.5 122.5z" horiz-adv-x="542"/>
<glyph unicode="1" glyph-name="one" d="M15 552l174 42v-594h-61v521l-113 -23v54z" horiz-adv-x="279"/>
<glyph unicode="2" glyph-name="two" d="M5 54q56 47 109 93t93.5 91.5t65 92t24.5 94.5q0 58 -31 85.5t-79 27.5q-53 0 -92.5 -21.5t-68.5 -48.5v65q28 25 69 43t92 18q36 0 67.5 -10t54.5 -30.5t36 -52.5t13 -76q0 -50 -25 -99.5t-65 -97.5t-90.5 -92t-101.5 -82h285v-54h-356v54z" horiz-adv-x="401"/>
<glyph unicode="3" glyph-name="three" d="M37 80q28 -18 58.5 -28.5t71.5 -10.5q61 0 98 30t37 81q0 28 -9 48t-29 34t-51.5 23.5t-76.5 17.5v42q77 17 114 47t37 83q0 45 -29.5 69t-72.5 24q-51 0 -89 -25t-66 -55v65q10 13 26.5 25.5t36.5 22t43.5 15.5t48.5 6q42 0 73 -12t51 -32t30 -46.5t10 -56.5 q0 -27 -10 -52.5t-27.5 -45.5t-42 -33.5t-54.5 -17.5q31 -4 57.5 -15t46.5 -29.5t31.5 -44t11.5 -57.5q0 -33 -12.5 -62.5t-37 -51.5t-61 -35t-84.5 -13q-35 0 -70.5 8.5t-59.5 23.5v58z" horiz-adv-x="422"/>
<glyph unicode="4" glyph-name="four" d="M94 216h220v313zM373 216h74v-51h-74v-165h-59v165h-284v51l263 378h80v-378z" horiz-adv-x="477"/>
<glyph unicode="5" glyph-name="five" d="M42 81q30 -19 65.5 -29.5t67.5 -10.5q36 0 62.5 10.5t44 29t26 43t8.5 51.5q0 40 -19.5 66t-53.5 42t-78.5 24t-95.5 14l19 273h266v-54h-215l-12 -174q51 -6 96 -18t79 -34t53.5 -55.5t19.5 -83.5q0 -34 -11 -67t-35 -59.5t-62 -42.5t-91 -16q-36 0 -72.5 9t-61.5 24v58 z" horiz-adv-x="411"/>
<glyph unicode="6" glyph-name="six" d="M95 183q0 -33 10.5 -59.5t29.5 -45t44 -28.5t54 -10q30 0 56 10t45 28.5t29.5 45t10.5 59.5q0 65 -39.5 103.5t-100.5 38.5q-30 0 -55 -10t-44 -28.5t-29.5 -45t-10.5 -58.5zM305 594l-178 -270q23 28 52 40.5t67 12.5q37 0 71 -12.5t59.5 -37t41 -60.5t15.5 -83 q0 -39 -13.5 -74t-39 -62t-63 -42.5t-85.5 -15.5q-51 0 -87.5 15.5t-59.5 42.5t-34 62.5t-11 74.5q0 50 16 102t45 97l136 210h68z" horiz-adv-x="473"/>
<glyph unicode="7" glyph-name="seven" d="M10 594h350v-54l-238 -540h-63l238 540h-287v54z" horiz-adv-x="390"/>
<glyph unicode="8" glyph-name="eight" d="M236 40q28 0 52.5 7t43 21.5t29 36.5t10.5 53q0 30 -10.5 53.5t-29 40t-43 25.5t-52.5 9t-52.5 -9t-43 -25.5t-29 -40t-10.5 -53.5q0 -31 10.5 -53t29 -36.5t43 -21.5t52.5 -7zM236 342q43 0 74 27.5t31 76.5q0 50 -31 76t-74 26t-74 -26t-31 -76q0 -49 31 -76.5 t74 -27.5zM236 -10q-41 0 -77 11t-62.5 32t-41.5 52.5t-15 72.5q0 32 11.5 58.5t29.5 46t41 32t46 17.5q-19 6 -36.5 17.5t-30.5 28.5t-21 39t-8 48q0 38 13 66.5t35.5 47t52.5 28t63 9.5t62.5 -9.5t52 -28t36 -47t13.5 -66.5q0 -26 -8 -48t-21 -39t-30.5 -28.5t-36.5 -17.5 q23 -5 46 -17.5t41 -32t29.5 -46t11.5 -58.5q0 -41 -15 -72.5t-41.5 -52.5t-62.5 -32t-77 -11z" horiz-adv-x="472"/>
<glyph unicode="9" glyph-name="nine" d="M378 401q0 33 -10.5 59.5t-29.5 45t-44 28.5t-54 10q-30 0 -56 -10t-45 -28.5t-29.5 -45t-10.5 -59.5q0 -65 39.5 -103.5t100.5 -38.5q30 0 55 10t44 28.5t29.5 45t10.5 58.5zM175 0l171 260q-23 -28 -52 -40.5t-67 -12.5q-37 0 -71 12.5t-59.5 37t-41 60.5t-15.5 83 q0 39 13.5 74t39 62t63 42.5t85.5 15.5q51 0 87.5 -15.5t59.5 -42.5t34 -62.5t11 -74.5q0 -50 -16 -102t-45 -97l-130 -200h-67z" horiz-adv-x="473"/>
<glyph unicode=":" glyph-name="colon" d="M70 41q0 20 14.5 34.5t34.5 14.5t35 -14.5t15 -34.5t-15 -35t-35 -15t-34.5 15t-14.5 35zM70 292q0 20 14.5 34.5t34.5 14.5t35 -14.5t15 -34.5t-15 -35t-35 -15t-34.5 15t-14.5 35z" horiz-adv-x="225"/>
<glyph unicode="&lt;" glyph-name="less" d="M31 306l251 153v-66l-173 -102l173 -102v-66l-251 153v30z" horiz-adv-x="315"/>
<glyph unicode="=" glyph-name="equal" d="M45 385h379v-53h-379v53zM45 253h379v-53h-379v53z" horiz-adv-x="456"/>
<glyph unicode="&gt;" glyph-name="greater" d="M282 276l-251 -153v66l173 102l-173 102v66l251 -153v-30z" horiz-adv-x="311"/>
<glyph unicode="[" glyph-name="bracketleft" d="M132 -70h104v-47h-156v797h156v-47h-104v-703z" horiz-adv-x="276"/>
<glyph unicode="\" glyph-name="backslash" d="M324 -129l-311 809h58l311 -809h-58z" horiz-adv-x="400"/>
<glyph unicode="]" glyph-name="bracketright" d="M144 633h-104v47h156v-797h-156v47h104v703z" horiz-adv-x="276"/>
<glyph unicode="_" glyph-name="underscore" d="M43 -104v53h342v-53h-342z" horiz-adv-x="426"/>
<glyph unicode="{" glyph-name="braceleft" d="M172 387q0 -29 -7 -50t-18 -35t-24.5 -21.5t-27.5 -9.5q14 -2 27.5 -9.5t24.5 -21.5t18 -35t7 -50v-154q0 -92 76 -92h10v-47h-7q-69 0 -100.5 35t-31.5 104v152q0 27 -7 45t-18.5 29.5t-26 16t-30.5 4.5h-15v46h15q16 0 30.5 4.5t26 16t18.5 29.5t7 45v152 q0 69 31.5 104t100.5 35h7v-47h-10q-76 0 -76 -92v-154z" horiz-adv-x="286"/>
<glyph unicode="|" glyph-name="bar" d="M65 680h53v-795h-53v795z" horiz-adv-x="183"/>
<glyph unicode="}" glyph-name="braceright" d="M108 541q0 92 -76 92h-10v47h7q69 0 100.5 -35t31.5 -104v-152q0 -27 7 -45t18.5 -29.5t26 -16t30.5 -4.5h15v-46h-15q-16 0 -30.5 -4.5t-26 -16t-18.5 -29.5t-7 -45v-152q0 -69 -31.5 -104t-100.5 -35h-7v47h10q76 0 76 92v154q0 29 7 50t18 35t24.5 21.5t27.5 9.5 q-14 2 -27.5 9.5t-24.5 21.5t-18 35t-7 50v154z" horiz-adv-x="277"/>
<glyph unicode="£" glyph-name="sterling" d="M332 710q54 0 90.5 -18.5t53.5 -46.5l-42 -30q-13 15 -36.5 25.5t-61.5 10.5q-34 0 -60.5 -12t-45 -32t-28 -46.5t-9.5 -56.5q0 -26 9.5 -61.5t22.5 -74.5h141v-38h-130q6 -20 12 -49t6 -63q0 -23 -6.5 -46t-17 -44t-25 -39t-30.5 -30h159q56 0 94 18.5t65 53.5l62 -31 q-35 -49 -88 -74.5t-125 -25.5h-259v48q18 9 37 26t34.5 38.5t26 47.5t10.5 53q0 38 -8.5 67t-14.5 49h-72v38h60q-11 35 -20 70t-9 69q0 43 14.5 80.5t41.5 64.5t64.5 42.5t83.5 15.5z" horiz-adv-x="581"/>
<glyph unicode="«" glyph-name="guillemotleft" d="M266 215l122 -158h-67l-123 158l123 158h67zM128 215l122 -158h-67l-123 158l123 158h67z" horiz-adv-x="426"/>
<glyph unicode="·" glyph-name="periodcentered" d="M70 259q0 38 26 64t64 26t64 -26t26 -64t-26 -64t-64 -26t-64 26t-26 64z" horiz-adv-x="296"/>
<glyph unicode="∙" glyph-name="periodcentered" d="M70 259q0 38 26 64t64 26t64 -26t26 -64t-26 -64t-64 -26t-64 26t-26 64z" horiz-adv-x="296"/>
<glyph unicode="»" glyph-name="guillemotright" d="M60 373h67l123 -158l-123 -158h-67l122 158zM198 373h67l123 -158l-123 -158h-67l122 158z" horiz-adv-x="423"/>
<glyph unicode="×" glyph-name="multiply" d="M114 140l-37 37l115 115l-115 116l37 37l115 -115l116 115l37 -37l-115 -116l115 -115l-37 -37l-116 115z" horiz-adv-x="433"/>
<glyph unicode="÷" glyph-name="divide" d="M180 436q0 20 14.5 34.5t34.5 14.5t35 -14.5t15 -34.5t-15 -35t-35 -15t-34.5 15t-14.5 35zM180 144q0 20 14.5 34.5t34.5 14.5t35 -14.5t15 -34.5t-15 -35t-35 -15t-34.5 15t-14.5 35zM40 316h379v-53h-379v53z" horiz-adv-x="459"/>
<glyph unicode="،" glyph-name="arabiccoma" d="M50 41q0 15 7.5 32t18.5 33t23.5 29t23.5 21h39q-29 -29 -44 -70q14 -5 22.5 -17.5t8.5 -27.5q0 -20 -15 -35t-35 -15t-34.5 15t-14.5 35z" horiz-adv-x="212"/>
<glyph unicode="؛" glyph-name="arabicsemicolon" d="M66 41q0 20 14.5 34.5t34.5 14.5t35 -14.5t15 -34.5t-15 -35t-35 -15t-34.5 15t-14.5 35zM63 304q0 15 7.5 32t18.5 33t23.5 29t23.5 21h39q-29 -29 -44 -70q14 -5 22.5 -17.5t8.5 -27.5q0 -20 -15 -35t-35 -15t-34.5 15t-14.5 35z" horiz-adv-x="213"/>
<glyph unicode="؟" glyph-name="arabicquestionmark" d="M288 41q0 -20 -14.5 -35t-34.5 -15t-35 15t-15 35t15 34.5t35 14.5t34.5 -14.5t14.5 -34.5zM359 516q-30 31 -63 48t-79 17q-24 0 -45 -8t-37.5 -22t-26 -35t-9.5 -46q0 -33 13 -57.5t36 -42.5t54.5 -32t67.5 -26v-143h-60v115q-25 9 -55 21.5t-55.5 34t-43 53 t-17.5 77.5q0 33 11.5 63.5t34 53t55.5 36t77 13.5q47 0 83.5 -16t59.5 -40z" horiz-adv-x="407"/>
<glyph unicode="ـ" glyph-name="tatweel" d="M202 0h-211v54h211v-54z" horiz-adv-x="193"/>
<glyph unicode="ً" glyph-name="fathatan" d="M23 748l231 57l10 -38l-232 -56zM23 832l231 57l10 -38l-232 -56z"/>
<glyph unicode="ٌ" glyph-name="damatan" d="M-12 806l38 12l28 -65l56 19q-16 29 -16 52q0 8 2 14q6 28 26 39q13 8 29 8q8 1 16 -1q26 -6 44 -34q6 -10 10 -23.5t-2 -28t-25 -29.5t-59 -28l-106 -34zM144 788q17 6 29 13t15 18q-1 8 -7 15q-11 14 -23 16t-20 -5t-8 -22t14 -35z"/>
<glyph unicode="ٍ" glyph-name="kasratan" d="M23 -200l231 57l10 -38l-232 -56zM23 -116l231 57l10 -38l-232 -56z"/>
<glyph unicode="َ" glyph-name="fatha" d="M23 748l231 57l10 -38l-232 -56z"/>
<glyph unicode="ُ" glyph-name="damma" d="M-7 749l91 23q-16 29 -16 52q0 8 2 14q6 28 26 39q13 8 29 8q8 1 16 -1q26 -6 44 -34q6 -10 10.5 -24t-1.5 -29.5t-25.5 -30t-59.5 -25.5l-107 -29zM118 788q17 6 29 13t15 18q-1 8 -7 15q-11 14 -23 16t-20 -5t-8 -22t14 -35z"/>
<glyph unicode="ِ" glyph-name="kasra" d="M23 -124l231 57l10 -38l-232 -56z"/>
<glyph unicode="ّ" glyph-name="shaddah" d="M75 718q-45 7 -48 50l-4 53l45 3l4 -47q2 -22 21 -25q14 -2 20.5 5.5t8.5 19.5q1 6 1 15q0 15 -3 39l46 5l4 -54q0 -9 4.5 -16.5t15.5 -9.5q16 -2 23.5 5.5t10.5 21.5q1 6 0.5 16t-2.5 20l-4 23l45 5q2 -7 2 -14t2 -13q1 -12 1 -23t-2 -19q-5 -32 -29 -48 q-17 -11 -39 -11q-10 0 -21 2q-23 5 -36 23q-1 -3 -6.5 -8t-14 -10t-20 -8t-25.5 0z"/>
<glyph unicode="ْ" glyph-name="soukoun" d="M108 864q34 0 57.5 -23.5t23.5 -56.5q0 -34 -23.5 -57.5t-57.5 -23.5q-33 0 -56.5 23.5t-23.5 57.5q0 33 23.5 56.5t56.5 23.5zM108 829q-19 0 -32 -13t-13 -32t13 -32t32 -13t32 13t13 32t-13 32t-32 13z"/>
<glyph unicode="ٓ" glyph-name="madda" d="M321 820q0 -53 -23 -81t-63 -28q-20 0 -37.5 10t-33 21.5t-29.5 21.5t-27 10q-17 0 -27 -15.5t-10 -45.5h-51q0 53 23 81t63 28q20 0 37.5 -10t33 -22t29 -22t27.5 -10q17 0 27 16t10 46h51z" horiz-adv-x="346"/>
<glyph unicode="ٔ" glyph-name="arabichamzaabove" d="M27 754h44q-5 11 -7 23t-2 21q0 23 7.5 39t20 26.5t28.5 15t33 4.5q27 0 53 -16v-45q-14 11 -27.5 15t-24.5 4q-21 0 -32.5 -9.5t-11.5 -35.5q0 -9 4.5 -21t12.5 -21h79v-43h-177v43z" horiz-adv-x="237"/>
<glyph unicode="ٕ" glyph-name="arabichamzabelow" d="M21 -157h44q-5 11 -7 23t-2 21q0 23 7.5 39t20 26.5t28.5 15t33 4.5q27 0 53 -16v-45q-14 11 -27.5 15t-24.5 4q-21 0 -32.5 -9.5t-11.5 -35.5q0 -9 4.5 -21t12.5 -21h79v-43h-177v43z" horiz-adv-x="222"/>
<glyph unicode="ٖ" glyph-name="uni0656" d="M173 -485l-35 -4l-11 147l46 6v-149z" horiz-adv-x="287"/>
<glyph unicode="٠" glyph-name="zeroarabic" d="M90 259q0 20 14.5 34.5t34.5 14.5t35 -14.5t15 -34.5t-15 -35t-35 -15t-34.5 15t-14.5 35z" horiz-adv-x="279"/>
<glyph unicode="۰" glyph-name="zeroarabic" d="M90 259q0 20 14.5 34.5t34.5 14.5t35 -14.5t15 -34.5t-15 -35t-35 -15t-34.5 15t-14.5 35z" horiz-adv-x="279"/>
<glyph unicode="١" glyph-name="onearabic" d="M150 0h-60v594h60v-594z" horiz-adv-x="240"/>
<glyph unicode="۱" glyph-name="onearabic" d="M150 0h-60v594h60v-594z" horiz-adv-x="240"/>
<glyph unicode="٢" glyph-name="twoarabic" d="M395 594v-54h-151q-24 0 -46.5 -3.5t-40 -14t-27.5 -29t-10 -47.5v-446h-60v446q0 78 47.5 113t135.5 35h152z" horiz-adv-x="405"/>
<glyph unicode="۲" glyph-name="twoarabic" d="M395 594v-54h-151q-24 0 -46.5 -3.5t-40 -14t-27.5 -29t-10 -47.5v-446h-60v446q0 78 47.5 113t135.5 35h152z" horiz-adv-x="405"/>
<glyph unicode="٣" glyph-name="threearabic" d="M60 594h60v-167h17q30 0 47 7t25.5 18t10.5 24.5t2 28.5v89h59v-60q0 -3 0.5 -13.5t-1.5 -25.5t-7 -32t-16 -33q18 -3 39 -3q31 0 48.5 7t26.5 18t11 24.5t2 28.5v89h57v-60q0 -29 -3.5 -57t-18 -49.5t-43.5 -35t-80 -13.5q-16 0 -38.5 4.5t-39.5 12.5 q-14 -8 -32.5 -12.5t-43.5 -4.5h-10.5t-11.5 1v-380h-60v594z" horiz-adv-x="471"/>
<glyph unicode="۳" glyph-name="threearabic" d="M60 594h60v-167h17q30 0 47 7t25.5 18t10.5 24.5t2 28.5v89h59v-60q0 -3 0.5 -13.5t-1.5 -25.5t-7 -32t-16 -33q18 -3 39 -3q31 0 48.5 7t26.5 18t11 24.5t2 28.5v89h57v-60q0 -29 -3.5 -57t-18 -49.5t-43.5 -35t-80 -13.5q-16 0 -38.5 4.5t-39.5 12.5 q-14 -8 -32.5 -12.5t-43.5 -4.5h-10.5t-11.5 1v-380h-60v594z" horiz-adv-x="471"/>
<glyph unicode="٤" glyph-name="fourarabic" d="M215 540q-30 0 -49.5 -9.5t-31 -24t-15.5 -32.5t-4 -36q0 -39 8 -72t17 -53q14 6 32 6.5t40 0.5h205v-54h-202q-30 0 -49.5 -9t-31 -23.5t-15.5 -33t-4 -37.5q0 -24 1 -44.5t7 -34.5t19 -22t37 -8h238v-54h-262q-36 0 -55 15t-28 38t-10 52t-1 58q0 77 34 117 q-15 39 -24.5 78.5t-9.5 79.5q0 79 35 117.5t117 38.5h204v-54h-202z" horiz-adv-x="477"/>
<glyph unicode="٥" glyph-name="fivearabic" d="M122 290q0 -70 12 -117t33 -75t51 -39.5t66 -11.5t65 11.5t49 39.5t31 75t11 117q0 46 -11.5 91.5t-32 81.5t-50 58.5t-65.5 22.5t-65.5 -22t-50 -57.5t-32 -81t-11.5 -93.5zM60 290q0 57 15.5 112.5t44 98.5t69.5 69.5t92 26.5t92 -28t69.5 -72.5t44 -99t15.5 -107.5 q0 -79 -15 -135t-43 -92t-68.5 -52.5t-91.5 -16.5t-92.5 16.5t-70.5 52.5t-45 92t-16 135z" horiz-adv-x="562"/>
<glyph unicode="٦" glyph-name="sixarabic" d="M162 594q88 0 135.5 -35t47.5 -113v-446h-60v446q0 29 -10 47.5t-27.5 29t-40 14t-46.5 3.5h-151v54h152z" horiz-adv-x="405"/>
<glyph unicode="٧" glyph-name="sevenarabic" d="M192 0l-182 594h62l164 -539l168 539h61l-184 -594h-89z" horiz-adv-x="475"/>
<glyph unicode="۷" glyph-name="sevenarabic" d="M192 0l-182 594h62l164 -539l168 539h61l-184 -594h-89z" horiz-adv-x="475"/>
<glyph unicode="٨" glyph-name="eightarabic" d="M283 594l182 -594h-62l-164 539l-168 -539h-61l184 594h89z" horiz-adv-x="475"/>
<glyph unicode="۸" glyph-name="eightarabic" d="M283 594l182 -594h-62l-164 539l-168 -539h-61l184 594h89z" horiz-adv-x="475"/>
<glyph unicode="٩" glyph-name="ninearabic" d="M325 529q-18 6 -38.5 9.5t-43.5 3.5q-91 0 -132 -38t-41 -105q0 -71 43 -105.5t122 -34.5h90v270zM385 0h-60v205h-90q-45 0 -85.5 10.5t-71.5 33.5t-49.5 60t-18.5 90q0 41 15 77t44 63t73 42.5t101 15.5q34 0 74 -8t68 -20v-569z" horiz-adv-x="445"/>
<glyph unicode="۹" glyph-name="ninearabic" d="M325 529q-18 6 -38.5 9.5t-43.5 3.5q-91 0 -132 -38t-41 -105q0 -71 43 -105.5t122 -34.5h90v270zM385 0h-60v205h-90q-45 0 -85.5 10.5t-71.5 33.5t-49.5 60t-18.5 90q0 41 15 77t44 63t73 42.5t101 15.5q34 0 74 -8t68 -20v-569z" horiz-adv-x="445"/>
<glyph unicode="٪" glyph-name="percentarabic" d="M554 594l-357 -594h-58l357 594h58zM601 127q1 42 -23 64t-59 22t-58 -22t-23 -64q0 -41 23 -63t58 -22t59 22t23 63zM657 127q0 -30 -11 -55q-12 -26 -30 -44t-44 -28t-53 -10q-28 0 -53 10q-26 10 -44 28t-29 44q-11 25 -11 55q0 29 11 55t29 44t44 29q25 10 53 10 q27 0 53 -10q26 -11 44 -29t30 -44q11 -26 11 -55zM91 466q0 -42 23 -64t58 -21q34 -1 58 21t24 64t-24 64t-58 22q-35 0 -58 -22t-23 -64zM35 466q0 30 11 56q12 26 30 44t43 28t53 10t54 -10t44 -28t29 -44t11 -56t-11 -55t-29 -43t-44 -29q-26 -10 -54 -10t-53 10 q-25 11 -43 29t-30 43q-11 25 -11 55z" horiz-adv-x="694"/>
<glyph unicode="٫" glyph-name="uni066B" d="M240 235l-216 -413l-24 12l214 413z" horiz-adv-x="206"/>
<glyph unicode="٬" glyph-name="uni066C" d="M146 435h-79v63q0 95 67 129l9 -20q-46 -25 -46 -90h49v-82z" horiz-adv-x="174"/>
<glyph unicode="ٰ" glyph-name="arabicalefsuperscript" d="M23 744v174h34v-174h-34z"/>
<glyph unicode="۴" glyph-name="fourfarsi" d="M215 540q-30 0 -49.5 -9.5t-31 -24t-15.5 -32.5t-4 -36q0 -39 8 -72t17 -53q14 6 32 6.5t40 0.5h205v-54h-202q-30 0 -49.5 -9t-31 -23.5t-15.5 -33t-4 -37.5q0 -24 1 -44.5t7 -34.5t19 -22t37 -8h238v-54h-262q-36 0 -55 15t-28 38t-10 52t-1 58q0 77 34 117 q-15 39 -24.5 78.5t-9.5 79.5q0 79 35 117.5t117 38.5h204v-54h-202z" horiz-adv-x="475"/>
<glyph unicode="۵" glyph-name="fivefarsi" d="M122 290q0 -70 12 -117t33 -75t51 -39.5t66 -11.5t65 11.5t49 39.5t31 75t11 117q0 46 -11.5 91.5t-32 81.5t-50 58.5t-65.5 22.5t-65.5 -22t-50 -57.5t-32 -81t-11.5 -93.5zM60 290q0 57 15.5 112.5t44 98.5t69.5 69.5t92 26.5t92 -28t69.5 -72.5t44 -99t15.5 -107.5 q0 -79 -15 -135t-43 -92t-68.5 -52.5t-91.5 -16.5t-92.5 16.5t-70.5 52.5t-45 92t-16 135z" horiz-adv-x="562"/>
<glyph unicode="۶" glyph-name="sixfarsi" d="M162 594q88 0 135.5 -35t47.5 -113v-446h-60v446q0 29 -10 47.5t-27.5 29t-40 14t-46.5 3.5h-151v54h152z" horiz-adv-x="391"/>
<glyph unicode="‌" glyph-name="afii61664" d="M22 0h-22v795h22v-795z" horiz-adv-x="22"/>
<glyph unicode="‍" glyph-name="afii301" d="M78 730l-15 -14l-41 41v-757h-22v757l-41 -41l-15 14l53 53l-53 52l15 15l52 -53l52 53l15 -15l-52 -52z" horiz-adv-x="22"/>
<glyph unicode="‎" glyph-name="afii299" d="M148 783l-67 -67l-15 15l42 42h-86v-773h-22v795h106l-40 40l15 15z" horiz-adv-x="22"/>
<glyph unicode="‏" glyph-name="afii300" d="M22 0h-22v773h-86l42 -42l-15 -15l-67 67l67 67l15 -15l-40 -40h106v-795z" horiz-adv-x="22"/>
<glyph unicode="‐" glyph-name="uni2010" d="M343 0h-275v53h275v-53z" horiz-adv-x="411"/>
<glyph unicode="“" glyph-name="quotedblleft" d="M154 565q0 15 7.5 32t18.5 33t23.5 29t23.5 21h39q-29 -29 -44 -70q14 -5 22.5 -17.5t8.5 -27.5q0 -20 -15 -35t-35 -15t-34.5 15t-14.5 35zM18 565q0 15 7.5 32t18.5 33t23.5 29t23.5 21h39q-29 -29 -44 -70q14 -5 22.5 -17.5t8.5 -27.5q0 -20 -15 -35t-35 -15t-34.5 15 t-14.5 35z" horiz-adv-x="281"/>
<glyph unicode="”" glyph-name="quotedblright" d="M130 630q0 -15 -7.5 -32t-18.5 -33t-23.5 -29.5t-23.5 -20.5h-39q29 29 44 70q-14 5 -22.5 17.5t-8.5 27.5q0 20 15 35t35 15t34.5 -15t14.5 -35zM266 630q0 -15 -7.5 -32t-18.5 -33t-23.5 -29.5t-23.5 -20.5h-39q29 29 44 70q-14 5 -22.5 17.5t-8.5 27.5q0 20 15 35 t35 15t34.5 -15t14.5 -35z" horiz-adv-x="286"/>
<glyph unicode="€" glyph-name="Euro" d="M348 713q67 0 122.5 -29t81.5 -90l-50 -23q-21 46 -63.5 65t-87.5 19q-29 0 -58.5 -8t-53 -26t-38.5 -47t-15 -71v-78h215v-38h-215v-75h215v-38h-215v-76q0 -42 15 -71t38.5 -47t52.5 -26t58 -8q45 0 87.5 19t63.5 65l50 -23q-26 -61 -81.5 -90t-122.5 -29 q-42 0 -82.5 11.5t-72 37t-51.5 65.5t-20 97v76h-57v38h57v75h-57v38h57v79q0 57 20 96.5t51.5 65t72 37t82.5 11.5z" horiz-adv-x="601"/>
<glyph unicode="◌" glyph-name="dottedcircle" d="M199 20q-10 5 -19.5 10t-18.5 12l14 21q9 -5 17.5 -10t17.5 -10q15 -7 37 -12l-6 -26q-23 7 -42 15zM445 548q10 -5 19.5 -10t17.5 -13l-15 -20q-16 11 -34 19q-9 5 -18 8t-19 6l8 25q22 -6 41 -15zM347 -6q-6 -1 -12 -1h-11q-20 0 -42 3l4 26q16 -3 35 -3q10 0 21 1 t22 3l6 -27q-6 -1 -12 -1.5t-11 -0.5zM49 387l25 -9q-4 -9 -6.5 -18.5t-4.5 -19.5t-3 -19.5t-2 -19.5h-27q3 44 18 86zM546 469q7 -8 13 -17t12 -19l-23 -14q-8 16 -22 33q-6 7 -12.5 14t-14.5 15l18 19l15 -16q8 -7 14 -15zM552 106q-14 -17 -30 -33l-18 20q14 11 27 29 q13 16 22 33l24 -13q-6 -10 -12 -18.5t-13 -17.5zM594 181l-24 9q3 10 5.5 19t4.5 19q4 19 6 39h26q-2 -44 -18 -86zM121 496l19 -21q-8 -6 -14.5 -13t-13.5 -15q-6 -8 -11.5 -16.5t-11.5 -17.5l-22 13q12 20 25.5 37.5t28.5 32.5zM605 353q5 -23 5 -43l-24 -3q-1 9 -2.5 19 t-4.5 20t-6 19.5t-7 19.5l25 9q5 -10 8.5 -20t5.5 -21zM97 99q-7 8 -13 17t-13 19l24 13q5 -8 10.5 -16t11.5 -16q7 -8 13 -15l15 -14l-18 -19q-19 16 -30 31zM192 544q11 5 20 9.5t20 7.5l9 -25q-39 -13 -71 -36l-17 23q11 6 20 11t19 10zM39 215q-6 21 -6 43l25 3 q3 -38 20 -78l-26 -9q-5 10 -8 20t-5 21zM298 574q6 1 12 1h21q5 0 10 -1h10q5 0 10 -1l-3 -27q-9 1 -18.5 1.5t-18.5 0.5h-10q-5 0 -11 -1q-11 0 -21 -3l-6 27q6 1 12.5 1.5t12.5 1.5zM452 23q-11 -5 -20.5 -8.5t-19.5 -7.5l-10 25q21 7 38 16q19 10 34 19l16 -22 q-9 -6 -19 -11.5t-19 -10.5z" horiz-adv-x="649"/>
<glyph glyph-name="NULL"/>
<glyph glyph-name="lam_alef_comp" d="M588 0q-40 0 -81 9.5t-80 24.5q-40 -34 -117 -34h-260v54h150v497h60v-497h50q19 0 37.5 4t33 15.5t23.5 31t9 49.5v526h60v-529q0 -41 -13 -72q20 -9 54.5 -17t73.5 -8h34v-54h-34z" horiz-adv-x="613"/>
<glyph glyph-name="hamza_comp" d="M27 754h44q-5 11 -7 23t-2 21q0 23 7.5 39t20 26.5t28.5 15t33 4.5q27 0 53 -16v-45q-14 11 -27.5 15t-24.5 4q-21 0 -32.5 -9.5t-11.5 -35.5q0 -9 4.5 -21t12.5 -21h79v-43h-177v43z" horiz-adv-x="237"/>
<glyph glyph-name="madda_lamalef_comp" d="M327 699q0 -53 -23 -81t-63 -28q-20 0 -37.5 10t-33 21.5t-29.5 21.5t-27 10q-17 0 -27 -15.5t-10 -45.5h-51q0 53 23 81t63 28q20 0 37.5 -10t33 -22t29 -22t27.5 -10q17 0 27 16t10 46h51z" horiz-adv-x="351"/>
<glyph glyph-name="ya_med_comp" d="M312 0q-40 0 -81 9.5t-80 24.5q-40 -34 -117 -34h-43v54h43q19 0 37.5 4t33 15.5t23.5 31t9 49.5v247h60v-250q0 -41 -13 -72q20 -9 54.5 -17t73.5 -8h34v-54h-34z" horiz-adv-x="337"/>
<glyph glyph-name="two_dots_comp" d="M216 -177q-17 0 -29 12t-12 29t12 28.5t29 11.5t28.5 -11.5t11.5 -28.5t-11.5 -29t-28.5 -12zM103 -177q-16 0 -28 12t-12 29t12 28.5t28 11.5q17 0 29 -11.5t12 -28.5t-12 -29t-29 -12z" horiz-adv-x="319"/>
<glyph glyph-name="alef_mid_comp" d="M253 0q-88 0 -135.5 35t-47.5 113v532h60v-532q0 -29 10 -47.5t27.5 -29t40 -14t46.5 -3.5h22v-54h-23z" horiz-adv-x="267"/>
<glyph glyph-name="madda_alef_comp" d="M321 820q0 -53 -23 -81t-63 -28q-20 0 -37.5 10t-33 21.5t-29.5 21.5t-27 10q-17 0 -27 -15.5t-10 -45.5h-51q0 53 23 81t63 28q20 0 37.5 -10t33 -22t29 -22t27.5 -10q17 0 27 16t10 46h51z" horiz-adv-x="346"/>
<glyph glyph-name="alef_comp" d="M140 0h-60v680h60v-680z" horiz-adv-x="220"/>
<glyph glyph-name="one_dot_comp" d="M90 488q-17 0 -29 12t-12 29t12 28.5t29 11.5t28.5 -11.5t11.5 -28.5t-11.5 -29t-28.5 -12z" horiz-adv-x="168"/>
<glyph glyph-name="three_dots_comp" d="M196 487q-17 0 -29 12t-12 29t12 28.5t29 11.5t28.5 -11.5t11.5 -28.5t-11.5 -29t-28.5 -12zM83 487q-16 0 -28 12t-12 29t12 28.5t28 11.5q17 0 29 -11.5t12 -28.5t-12 -29t-29 -12zM136 591q-17 0 -29 12t-12 29t12 28.5t29 11.5t28.5 -11.5t11.5 -28.5t-11.5 -29 t-28.5 -12z" horiz-adv-x="268"/>
<glyph glyph-name="ya_ini_comp" d="M-9 0v54h22q24 0 46.5 3.5t40 14t27.5 29t10 47.5v253h60v-253q0 -78 -47.5 -113t-135.5 -35h-23z" horiz-adv-x="277"/>
<glyph glyph-name="ya_end_comp" d="M491 251q0 45 13 75t35 48t51 24q22 5 47 5h15q33 -2 68 -11t68 -22v-316h103v-54h-163v331q-32 13 -64 17q-10 1 -19 2q-20 0 -37 -6q-25 -10 -41 -35t-16 -70v-167q0 -46 -24.5 -73.5t-62 -42t-82 -19t-85.5 -4.5h-4q-50 0 -94 9t-77 32t-52.5 62.5t-19.5 100.5v106h60 v-101q0 -48 14 -78t38.5 -47t58 -23t72.5 -6h3q31 0 65.5 2.5t63.5 10.5t47.5 24t18.5 43v183z" horiz-adv-x="882"/>
<glyph glyph-name="ya_end_iso_comp" d="M293 -67q-50 0 -94 9t-77 32t-52.5 62.5t-19.5 100.5v106h60v-101q0 -48 14 -78t38.5 -47t58 -23t72.5 -6h90q31 0 66 2.5t63.5 10.5t47.5 24t19 43q0 19 -7 32.5t-20.5 23t-33.5 17t-46 16.5q-58 20 -84 47.5t-26 80.5q0 58 38.5 88t98.5 30q32 0 62.5 -7.5t56.5 -25.5 v-65q-26 21 -53.5 34t-65.5 13q-36 0 -57.5 -18t-21.5 -49q0 -30 20 -48t71 -34q28 -9 51.5 -19.5t40.5 -25.5t26 -35.5t9 -50.5q0 -46 -24.5 -73.5t-62 -42t-82 -19t-85.5 -4.5h-91z" horiz-adv-x="688"/>
<glyph glyph-name="waw_mid_comp" d="M365 334q-18 6 -38.5 9.5t-43.5 3.5q-91 0 -132 -38t-41 -105q0 -71 43 -110.5t122 -39.5h90v280zM425 -35q0 -50 -17 -85t-45.5 -57.5t-64.5 -32.5t-73 -10q-40 0 -75.5 8t-59.5 19v57q29 -14 64.5 -23.5t70.5 -9.5q27 0 52 7t44.5 24t31.5 45t12 69v24h-90 q-45 0 -85.5 12t-71.5 37t-49.5 63.5t-18.5 91.5q0 41 15 77t44 63t73 42.5t101 15.5q34 0 74 -8t68 -20v-320h74v-54h-74v-35z" horiz-adv-x="490"/>
<glyph glyph-name="waw_iso_comp" d="M365 334q-18 6 -38.5 9.5t-43.5 3.5q-91 0 -132 -38t-41 -105q0 -71 43 -110.5t122 -39.5h90v280zM425 -35q0 -50 -17 -85t-45.5 -57.5t-64.5 -32.5t-73 -10q-40 0 -75.5 8t-59.5 19v57q29 -14 64.5 -23.5t70.5 -9.5q27 0 52 7t44.5 24t31.5 45t12 69v24h-90 q-45 0 -85.5 12t-71.5 37t-49.5 63.5t-18.5 91.5q0 41 15 77t44 63t73 42.5t101 15.5q34 0 74 -8t68 -20v-409z" horiz-adv-x="505"/>
<glyph glyph-name="tah_marbouta_comp" d="M365 334q-18 6 -38.5 9.5t-43.5 3.5q-91 0 -132 -38t-41 -105q0 -71 43 -110.5t122 -39.5h90v280zM510 0h-235q-45 0 -85.5 12t-71.5 37t-49.5 63.5t-18.5 91.5q0 41 15 77t44 63t73 42.5t101 15.5q34 0 74 -8t68 -20v-320h85v-54z" horiz-adv-x="501"/>
<glyph glyph-name="tah_marbouta_iso_comp" d="M425 0h-150q-45 0 -85.5 12t-71.5 37t-49.5 63.5t-18.5 91.5q0 41 15 77t44 63t73 42.5t101 15.5q34 0 74 -8t68 -20v-374zM365 334q-18 6 -38.5 9.5t-43.5 3.5q-91 0 -132 -38t-41 -105q0 -71 43 -110.5t122 -39.5h90v280z" horiz-adv-x="485"/>
<glyph glyph-name="kaf_mid_comp" d="M392 334q-18 6 -38.5 9.5t-43.5 3.5q-91 0 -132 -38t-41 -105q0 -69 41 -108.5t116 -41.5h98v280zM-9 54h148q-29 25 -45.5 62t-16.5 88q0 41 15 77t44 63t73 42.5t101 15.5q34 0 74 -8t68 -20v-320h114v-54h-575v54z" horiz-adv-x="557"/>
<glyph glyph-name="kaf_ini_comp" d="M392 334q-18 6 -38.5 9.5t-43.5 3.5q-91 0 -132 -38t-41 -105q0 -71 43 -110.5t122 -39.5h90v280zM-9 54h148q-29 25 -45.5 62t-16.5 88q0 41 15 77t44 63t73 42.5t101 15.5q34 0 74 -8t68 -20v-374h-150h-9h-302v54z" horiz-adv-x="532"/>
<glyph glyph-name="kaf_final_iso_comp" d="M812 334q-18 6 -38.5 9.5t-43.5 3.5q-91 0 -132 -38t-41 -105q0 -71 43 -110.5t122 -39.5h90v280zM269 0q-95 0 -146.5 35t-51.5 117v193h60v-190q0 -31 11 -50.5t30 -31t43 -15.5t50 -4h294q-29 25 -45.5 62t-16.5 88q0 41 15 77t44 63t73 42.5t101 15.5q34 0 74 -8 t68 -20v-374h-603z" horiz-adv-x="952"/>
<glyph glyph-name="kaf_fina_comp" d="M812 334q-18 6 -38.5 9.5t-43.5 3.5q-91 0 -132 -38t-41 -105q0 -69 41 -108.5t116 -41.5h98v280zM269 0q-95 0 -146.5 35t-51.5 117v193h60v-190q0 -31 11 -50.5t30 -31t43 -15.5t50 -4h294q-29 25 -45.5 62t-16.5 88q0 41 15 77t44 63t73 42.5t101 15.5q34 0 74 -8 t68 -20v-320h75v-54h-678z" horiz-adv-x="939"/>
<glyph glyph-name="ayn_mid_comp" d="M490 253q0 -22 -11 -49t-29.5 -54t-42.5 -52t-49 -44h205v-54h-572v54h197q-25 19 -49 44t-42.5 52t-29.5 54t-11 49q0 45 21.5 74.5t53.5 46.5t70.5 23.5t71.5 6.5q48 0 88 -9.5t68.5 -28t44.5 -46.5t16 -67zM273 348q-50 0 -81 -8.5t-49 -22t-24.5 -30.5t-6.5 -34 q0 -20 14.5 -47t37.5 -55t51.5 -53.5t57.5 -43.5q28 18 57 43.5t52 53.5t37.5 55t14.5 47q0 17 -6.5 34t-24.5 30.5t-49.5 22t-80.5 8.5z" horiz-adv-x="554"/>
<glyph glyph-name="ayn_ini_comp" d="M-9 54h164q-10 15 -17.5 34t-12.5 38t-7.5 37t-2.5 31q0 51 15.5 91t43 67.5t64.5 41.5t80 14q36 0 66 -8t59 -25v-63q-28 20 -59.5 30.5t-62.5 10.5q-66 0 -106 -41t-40 -121q0 -15 4 -32.5t11.5 -36t18.5 -36.5t25 -32h219v-54h-462v54z" horiz-adv-x="503"/>
<glyph glyph-name="ayn_fina_comp" d="M357 348q-50 0 -81 -8.5t-49 -22t-24.5 -30.5t-6.5 -34q0 -20 14.5 -47t37.5 -55t51.5 -53.5t57.5 -43.5q28 18 57 43.5t52 53.5t37.5 55t14.5 47q0 17 -6.5 34t-24.5 30.5t-49.5 22t-80.5 8.5zM624 0h-348q-34 0 -62.5 -4.5t-49.5 -14.5t-32.5 -25.5t-11.5 -37.5 t10.5 -37.5t29.5 -25t44.5 -14t55.5 -4.5h83v-54h-86q-89 0 -143 33t-54 102q0 65 56 100.5t156 35.5q-25 19 -49 44t-42.5 52t-29.5 54t-11 49q0 45 21.5 74.5t53.5 46.5t70.5 23.5t71.5 6.5q48 0 88 -9.5t68.5 -28t44.5 -46.5t16 -67q0 -22 -11 -49t-29.5 -54t-42.5 -52 t-49 -44h182v-54z" horiz-adv-x="615"/>
<glyph glyph-name="ayn_fina_iso_comp" d="M570 0h-294q-34 0 -62.5 -4.5t-49.5 -14.5t-32.5 -25.5t-11.5 -37.5t10.5 -37.5t29.5 -25t44.5 -14t55.5 -4.5h83v-54h-86q-89 0 -143 33t-54 102q0 65 56 100.5t156 35.5q-10 15 -17.5 34t-12.5 38t-7.5 37t-2.5 31q0 51 15.5 91t43 67.5t64.5 41.5t80 14q36 0 66 -8 t59 -25v-63q-28 20 -59.5 30.5t-62.5 10.5q-66 0 -106 -41t-40 -121q0 -15 4 -32.5t11.5 -36t18.5 -36.5t25 -32h219v-54z" horiz-adv-x="620"/>
<glyph glyph-name="tah_mid_comp" d="M539 54v131q0 35 -3 64.5t-14 50.5t-34 33t-62 12q-34 0 -72 -9.5t-75.5 -36t-72 -72t-60.5 -117.5v-56h393zM86 54v626h60v-456q19 40 48.5 73t66.5 56t80.5 35.5t90.5 12.5q46 0 78 -10.5t51.5 -34t28.5 -62.5t9 -96v-144h84v-54h-692v54h95z" horiz-adv-x="674"/>
<glyph glyph-name="tah_ini_comp" d="M539 54v131q0 35 -3 64.5t-14 50.5t-34 33t-62 12q-34 0 -72 -9.5t-75.5 -36t-72 -72t-60.5 -117.5v-56h393zM86 54v626h60v-456q19 40 48.5 73t66.5 56t80.5 35.5t90.5 12.5q46 0 78 -10.5t51.5 -34t28.5 -62.5t9 -96v-198h-608v54h95z" horiz-adv-x="679"/>
<glyph glyph-name="tah_fina_comp" d="M598 54v131q0 35 -3 64.5t-14 50.5t-34 33t-62 12q-34 0 -72 -9.5t-75.5 -36t-72 -72t-60.5 -117.5v-56h393zM742 0h-692v54h95v626h60v-456q19 40 48.5 73t66.5 56t80.5 35.5t90.5 12.5q46 0 78 -10.5t51.5 -34t28.5 -62.5t9 -96v-144h84v-54z" horiz-adv-x="733"/>
<glyph glyph-name="tah_fina_iso_comp" d="M598 54v131q0 35 -3 64.5t-14 50.5t-34 33t-62 12q-34 0 -72 -9.5t-75.5 -36t-72 -72t-60.5 -117.5v-56h393zM145 54v626h60v-456q19 40 48.5 73t66.5 56t80.5 35.5t90.5 12.5q46 0 78 -10.5t51.5 -34t28.5 -62.5t9 -96v-198h-608v54h95z" horiz-adv-x="738"/>
<glyph glyph-name="sad_midi_comp" d="M539 54v131q0 35 -3 64.5t-14 50.5t-34 33t-62 12q-34 0 -72 -9.5t-75.5 -36t-72 -72t-60.5 -117.5v-56h393zM86 54v291h60v-121q19 40 48.5 73t66.5 56t80.5 35.5t90.5 12.5q46 0 78 -10.5t51.5 -34t28.5 -62.5t9 -96v-144h84v-54h-692v54h95z" horiz-adv-x="674"/>
<glyph glyph-name="sad_fina_comp" d="M943 54v131q0 35 -3 64.5t-14 50.5t-34 33t-62 12q-34 0 -72 -9.5t-75.5 -36t-72 -72t-60.5 -117.5v-56h393zM1088 0h-538v-96q-22 -5 -51 -10.5t-59.5 -9.5t-61 -6.5t-55.5 -2.5q-50 0 -94 9t-77 32t-52.5 62.5t-19.5 100.5v106h60v-101q0 -48 14 -78t38.5 -47t58 -23 t72.5 -6q19 0 42 0.5t45.5 2t43.5 3.5t36 5v404h60v-121q19 40 48.5 73t66.5 56t80.5 35.5t90.5 12.5q46 0 78 -10.5t51.5 -34t28.5 -62.5t9 -96v-144h85v-54z" horiz-adv-x="1079"/>
<glyph glyph-name="sad_ini_comp" d="M539 54v131q0 35 -3 64.5t-14 50.5t-34 33t-62 12q-34 0 -72 -9.5t-75.5 -36t-72 -72t-60.5 -117.5v-56h393zM86 54v291h60v-121q19 40 48.5 73t66.5 56t80.5 35.5t90.5 12.5q46 0 78 -10.5t51.5 -34t28.5 -62.5t9 -96l1 -198h-609v54h95z" horiz-adv-x="680"/>
<glyph glyph-name="sad_iso_comp" d="M943 54v131q0 35 -3 64.5t-14 50.5t-34 33t-62 12q-34 0 -72 -9.5t-75.5 -36t-72 -72t-60.5 -117.5v-56h393zM550 -96q-22 -5 -51 -10.5t-59.5 -9.5t-61 -6.5t-55.5 -2.5q-50 0 -94 9t-77 32t-52.5 62.5t-19.5 100.5v106h60v-101q0 -48 14 -78t38.5 -47t58 -23t72.5 -6 q19 0 42 0.5t45.5 2t43.5 3.5t36 5v404h60v-121q19 40 48.5 73t66.5 56t80.5 35.5t90.5 12.5q46 0 78 -10.5t51.5 -34t28.5 -62.5t9 -96l1 -198h-454v-96z" horiz-adv-x="1084"/>
<glyph glyph-name="seen_ini_comp" d="M580 0q-40 0 -76 9.5t-75 24.5q-40 -34 -117 -34q-40 0 -81 9.5t-80 24.5q-40 -34 -117 -34h-43v54h43q19 0 37.5 4t33 15.5t23.5 31t9 49.5v247h60v-250q0 -41 -13 -72q20 -9 54.5 -17t73.5 -8q19 0 37.5 4t33 15.5t23.5 31t9 49.5v247h60v-250q0 -41 -13 -72 q20 -9 49.5 -17t68.5 -8q24 0 45 3.5t36 14t23.5 29t8.5 47.5v253h60v-253q0 -78 -42 -113t-130 -35h-1z" horiz-adv-x="833"/>
<glyph glyph-name="seen_medi_comp" d="M860 0q-40 0 -81 9.5t-80 24.5q-40 -34 -117 -34q-40 0 -81 9.5t-80 24.5q-40 -34 -117 -34q-40 0 -81 9.5t-80 24.5q-40 -34 -117 -34h-35v54h35q19 0 37.5 4t33 15.5t23.5 31t9 49.5v247h60v-250q0 -41 -13 -72q20 -9 54.5 -17t73.5 -8q19 0 37.5 4t33 15.5t23.5 31 t9 49.5v247h60v-250q0 -41 -13 -72q20 -9 54.5 -17t73.5 -8q19 0 37.5 4t33 15.5t23.5 31t9 49.5v247h60v-250q0 -41 -13 -72q20 -9 54.5 -17t73.5 -8h34v-54h-34z" horiz-adv-x="885"/>
<glyph glyph-name="seen_fina_comp" d="M550 -96q-22 -5 -51 -10.5t-59.5 -9.5t-61 -6.5t-55.5 -2.5q-50 0 -94 9t-77 32t-52.5 62.5t-19.5 100.5v106h60v-101q0 -48 14 -78t38.5 -47t58 -23t72.5 -6q19 0 42 0.5t45.5 2t43.5 3.5t36 5v460h60v-328q20 -8 51 -13.5t64 -5.5q19 0 37.5 4t33 15.5t23.5 31t9 49.5 v247h60v-250q0 -41 -13 -72q20 -9 54.5 -17t73.5 -8q19 0 37.5 4t33 15.5t23.5 31t9 49.5v247h60v-250q0 -41 -13 -72q20 -9 54.5 -17t73.5 -8h34v-54h-34q-40 0 -81 9.5t-80 24.5q-40 -34 -117 -34q-40 0 -81 9.5t-80 24.5q-40 -34 -117 -34q-29 0 -57.5 5t-57.5 13v-114z " horiz-adv-x="1246"/>
<glyph glyph-name="seen_iso_comp" d="M550 -96q-22 -5 -51 -10.5t-59.5 -9.5t-61 -6.5t-55.5 -2.5q-50 0 -94 9t-77 32t-52.5 62.5t-19.5 100.5v106h60v-101q0 -48 14 -78t38.5 -47t58 -23t72.5 -6q19 0 42 0.5t45.5 2t43.5 3.5t36 5v460h60v-328q21 -8 51.5 -13.5t63.5 -5.5q19 0 37.5 4t33 15.5t23.5 31 t9 49.5v247h60v-250q0 -41 -13 -72q20 -9 49.5 -17t68.5 -8q24 0 45 3.5t36 14t23.5 29t8.5 47.5v253h60v-253q0 -78 -42 -113t-130 -35h-1q-40 0 -76 9.5t-75 24.5q-40 -34 -117 -34q-56 0 -115 17v-113z" horiz-adv-x="1186"/>
<glyph glyph-name="ra_midi_comp" d="M152 401h60v-347h89v-54h-89v-86q0 -64 -30.5 -100t-100.5 -36q-16 0 -34.5 4t-31.5 10v55q11 -8 28.5 -12.5t37.5 -4.5q32 0 51.5 18.5t19.5 69.5v483z" horiz-adv-x="292"/>
<glyph glyph-name="ra_iso_comp" d="M152 401h60v-487q0 -64 -30.5 -100t-100.5 -36q-16 0 -34.5 4t-31.5 10v55q11 -8 28.5 -12.5t37.5 -4.5q32 0 51.5 18.5t19.5 69.5v483z" horiz-adv-x="292"/>
<glyph glyph-name="da_medi_comp" d="M40 54h309v183q0 33 -11 54t-28 33t-39 16.5t-44 4.5q-13 0 -31 -2t-37.5 -5t-39 -7t-36.5 -8v56q37 11 75 16.5t74 5.5q83 0 130 -35t47 -117v-195h93v-54h-462v54z" horiz-adv-x="493"/>
<glyph glyph-name="da_iso_comp" d="M40 54h309v183q0 33 -11 54t-28 33t-39 16.5t-44 4.5q-13 0 -31 -2t-37.5 -5t-39 -7t-36.5 -8v56q37 11 75 16.5t74 5.5q83 0 130 -35t47 -117v-249h-369v54z" horiz-adv-x="469"/>
<glyph glyph-name="kha_medi_comp" d="M-9 54h373v183q0 33 -11 54t-28 33t-39 16.5t-44 4.5h-55q-35 0 -65 -6t-53 -14v53q25 9 59 16t69 7h55q79 0 125.5 -35t46.5 -117v-195h115v-54h-548v54z" horiz-adv-x="530"/>
<glyph glyph-name="kha_ini_comp" d="M-9 54h373v183q0 33 -11 54t-28 33t-39 16.5t-44 4.5h-55q-35 0 -65 -6t-53 -14v53q25 9 59 16t69 7h55q79 0 125.5 -35t46.5 -117v-249h-433v54z" horiz-adv-x="484"/>
</font>
</defs>
</svg>
