<?xml version="1.0" encoding="UTF-8" standalone="no"?>
<!DOCTYPE svg  PUBLIC '-//W3C//DTD SVG 1.1//EN'  'http://www.w3.org/Graphics/SVG/1.1/DTD/svg11.dtd'>
<svg version="1.1" xmlns="http://www.w3.org/2000/svg">
<defs>
<font id="Luma-SemiBold" horiz-adv-x="0">
<font-face panose-1="1 0 5 0 0 0 0 2 0 6" unicode-range="U+0020-FEFC" underline-thickness="29" units-per-em="1000" ascent="800" descent="-200" font-family="Luma" bbox="-126 -489 1313 1071" underline-position="-507" font-weight="600"/>
<missing-glyph horiz-adv-x="500" d="M125 62h250v438h-250v-438zM62 0v562h375v-562h-375z"/>
<glyph arabic-form="isolated" d="M74 716q-26 5 -39 19t-15 38l-5 60l63 5l5 -55q2 -14 12 -15q7 -2 11 3.5t5 12.5q2 9 1 24t-3 35l63 7l5 -63q1 -5 6 -10t10 -6q8 -1 11.5 5t5.5 14q0 5 -0.5 15t-1.5 16l-5 33l61 6q2 -5 3 -13t3 -22q1 -11 1 -23.5t-2 -20.5q-7 -33 -33 -51q-19 -13 -44 -13 q-10 0 -20 2q-9 2 -17.5 6.5t-15.5 10.5q-9 -8 -25 -16q-10 -5 -24 -6q-7 0 -16 2zM12 972l55 17l27 -62l33 11q-5 12 -7 24.5t-2 22.5q0 32 18.5 50t44.5 18q15 0 29 -6.5t25 -17.5t17.5 -25t6.5 -28q0 -20 -18.5 -42.5t-71.5 -39.5l-110 -35zM171 985q0 -12 7 -25 q22 6 28 19q-2 7 -9 14t-14 7q-12 0 -12 -15z" glyph-name="shaddehdamatan" unicode="ٌّ"/>
<glyph arabic-form="isolated" d="M19 765l241 60l14 -56l-242 -58zM-5 857l241 60l14 -56l-242 -58zM19 927q-26 5 -39 19t-15 38l-5 60l63 5l5 -55q2 -14 12 -15q7 -2 11 3.5t5 12.5q2 9 1 24t-3 35l63 7l5 -63q1 -5 6 -10t10 -6q8 -1 11.5 5t5.5 14q0 5 -0.5 15t-1.5 16l-5 33l61 6q2 -5 3 -13t3 -22 q1 -11 1 -23.5t-2 -20.5q-7 -33 -33 -51q-19 -13 -44 -13q-10 0 -20 2q-9 2 -17.5 6.5t-15.5 10.5q-9 -8 -25 -16q-10 -5 -24 -6q-7 0 -16 2z" glyph-name="shaddehkasratan" unicode="ٍّ"/>
<glyph arabic-form="isolated" d="M74 716q-26 5 -39 19t-15 38l-5 60l63 5l5 -55q2 -14 12 -15q7 -2 11 3.5t5 12.5q2 9 1 24t-3 35l63 7l5 -63q1 -5 6 -10t10 -6q8 -1 11.5 5t5.5 14q0 5 -0.5 15t-1.5 16l-5 33l61 6q2 -5 3 -13t3 -22q1 -11 1 -23.5t-2 -20.5q-7 -33 -33 -51q-19 -13 -44 -13 q-10 0 -20 2q-9 2 -17.5 6.5t-15.5 10.5q-9 -8 -25 -16q-10 -5 -24 -6q-7 0 -16 2zM11 936l241 60l14 -56l-242 -58z" glyph-name="shaddehfatha" unicode="َّ"/>
<glyph arabic-form="isolated" d="M74 716q-26 5 -39 19t-15 38l-5 60l63 5l5 -55q2 -14 12 -15q7 -2 11 3.5t5 12.5q2 9 1 24t-3 35l63 7l5 -63q1 -5 6 -10t10 -6q8 -1 11.5 5t5.5 14q0 5 -0.5 15t-1.5 16l-5 33l61 6q2 -5 3 -13t3 -22q1 -11 1 -23.5t-2 -20.5q-7 -33 -33 -51q-19 -13 -44 -13 q-10 0 -20 2q-9 2 -17.5 6.5t-15.5 10.5q-9 -8 -25 -16q-10 -5 -24 -6q-7 0 -16 2zM26 933l84 21q-5 12 -7 23t-2 22q0 32 18.5 50t44.5 18q15 0 29 -7t25.5 -18.5t18 -25.5t6.5 -28q0 -21 -19 -43.5t-73 -36.5l-112 -30zM161 974q22 6 28 19q-2 7 -9 14t-14 7 q-8 0 -10.5 -5t-2 -11.5t3 -13.5t4.5 -10z" glyph-name="shaddehdamma" unicode="ُّ"/>
<glyph arabic-form="isolated" d="M19 765l241 60l14 -56l-242 -58zM71 841q-26 5 -39 19t-15 38l-5 60l63 5l5 -55q2 -14 12 -15q7 -2 11 3.5t5 12.5q2 9 1 24t-3 35l63 7l5 -63q1 -5 6 -10t10 -6q8 -1 11.5 5t5.5 14q0 5 -0.5 15t-1.5 16l-5 33l61 6q2 -5 3 -13t3 -22q1 -11 1 -23.5t-2 -20.5 q-7 -33 -33 -51q-19 -13 -44 -13q-10 0 -20 2q-9 2 -17.5 6.5t-15.5 10.5q-9 -8 -25 -16q-10 -5 -24 -6q-7 0 -16 2z" glyph-name="shaddehkasra" unicode="ِّ"/>
<glyph horiz-adv-x="892" arabic-form="initial" glyph-name="lammeeminitial" unicode="ﻟﻤ" d="M298 294q-23 0 -36.5 -11t-13.5 -33v-79q0 -17 7.5 -28t20 -18.5t28.5 -10.5t33 -3h44v118q0 40 -18.5 52.5t-49.5 12.5h-15zM317 413q93 0 138.5 -42t45.5 -131v-129h98v-111h-259q-49 0 -87.5 9t-66.5 29q-55 -38 -150 -38h-45v111h48q17 0 33 3t28.5 10.5t20 18.5 t7.5 28v83q0 71 44 115t120 44h25zM581 0v111h39q30 0 51 9.5t21 40.5v519h120v-519q0 -85 -50 -123t-141 -38h-40z"/>
<glyph horiz-adv-x="292" arabic-form="final" glyph-name="aleffathatanfina" unicode="ﺎً" d="M261 0q-91 0 -141 38t-50 123v519h120v-519q0 -31 21 -40.5t51 -9.5h39v-111h-40zM19 765l241 60l14 -56l-242 -58zM-5 857l241 60l14 -56l-242 -58z"/>
<glyph horiz-adv-x="280" arabic-form="isolated" glyph-name="aleffathataniso" unicode="اً" d="M200 0h-120v680h120v-680zM19 765l241 60l14 -56l-242 -58zM-5 857l241 60l14 -56l-242 -58z"/>
<glyph horiz-adv-x="1258" arabic-form="isolated" glyph-name="lilah" unicode="ﻟﻠّٰﻪ" d="M358 298q-9 2 -26.5 5.5t-42.5 3.5q-63 0 -93 -27t-30 -70q0 -47 31 -73t85 -26h76v187zM568 0h-286q-45 0 -87 12.5t-74.5 38t-51.5 65t-19 94.5q0 43 15.5 80t46 64.5t75 43.5t102.5 16q16 0 41 -3t52 -7.5t52.5 -11.5t43.5 -14v-267h90v-111zM908 0q-49 0 -85 10.5 t-66 24.5q-20 -17 -52 -26t-71 -9h-84v111h79q68 0 68 71v498h120v-506q0 -16 -3 -27t-6 -19q15 -8 37.5 -12.5t46.5 -4.5h74v-111h-58zM947 0v111h39q30 0 51 9.5t21 40.5v519h120v-519q0 -85 -50 -123t-141 -38h-40z"/>
<glyph horiz-adv-x="638" arabic-form="isolated" glyph-name="lamalefmaddaaboveiso" unicode="ﻟﺂ" d="M367 0h-316v111h131v439h120v-439h64q30 0 51 9.5t21 40.5v519h120v-519q0 -85 -50 -123t-141 -38zM381 728q0 -63 -25.5 -97t-70.5 -34q-26 0 -44.5 12t-35.5 25q-11 8 -21 15.5t-18 7.5q-21 0 -21 -58h-76q0 63 25 97t70 34q25 0 44 -12t36 -25q11 -9 21.5 -16t18.5 -7 q20 0 20 58h77z"/>
<glyph horiz-adv-x="698" arabic-form="final" glyph-name="lamalefmaddaabovefina" unicode="ﻠﺂ" d="M375 0h-324v111h131v439h120v-439h68q68 0 68 71v498h120v-506q0 -16 -3 -27t-6 -19q15 -8 37.5 -12.5t46.5 -4.5h74v-111h-58q-49 0 -85 10.5t-66 24.5q-20 -17 -52 -26t-71 -9zM381 728q0 -63 -25.5 -97t-70.5 -34q-26 0 -44.5 12t-35.5 25q-11 8 -21 15.5t-18 7.5 q-21 0 -21 -58h-76q0 63 25 97t70 34q25 0 44 -12t36 -25q11 -9 21.5 -16t18.5 -7q20 0 20 58h77z"/>
<glyph horiz-adv-x="638" arabic-form="isolated" glyph-name="lamalefhamzaaboveiso" unicode="ﻟﺄ" d="M367 0h-316v111h131v439h120v-439h64q30 0 51 9.5t21 40.5v519h120v-519q0 -85 -50 -123t-141 -38zM141 671h40q-3 7 -5 17.5t-2 16.5q0 25 8 43t21.5 29t31.5 16.5t37 5.5q16 0 31 -5t33 -16v-67q-9 6 -24.5 12.5t-30.5 7.5t-25.5 -4.5t-10.5 -23.5q0 -5 2.5 -15 t7.5 -17h81v-63h-195v63z"/>
<glyph horiz-adv-x="698" arabic-form="final" glyph-name="lamalefhamzaabovefina" unicode="ﻠﺄ" d="M375 0h-324v111h131v439h120v-439h68q68 0 68 71v498h120v-506q0 -16 -3 -27t-6 -19q15 -8 37.5 -12.5t46.5 -4.5h74v-111h-58q-49 0 -85 10.5t-66 24.5q-20 -17 -52 -26t-71 -9zM141 671h40q-3 7 -5 17.5t-2 16.5q0 25 8 43t21.5 29t31.5 16.5t37 5.5q16 0 31 -5t33 -16 v-67q-9 6 -24.5 12.5t-30.5 7.5t-25.5 -4.5t-10.5 -23.5q0 -5 2.5 -15t7.5 -17h81v-63h-195v63z"/>
<glyph horiz-adv-x="638" arabic-form="isolated" glyph-name="lamalefhamzabelowiso" unicode="ﻟﺈ" d="M367 0h-316v111h131v439h120v-439h64q30 0 51 9.5t21 40.5v519h120v-519q0 -85 -50 -123t-141 -38zM125 -221h40q-3 7 -5 17.5t-2 16.5q0 25 8 43t21.5 29t31.5 16.5t37 5.5q16 0 31 -5t33 -16v-67q-9 6 -24.5 12.5t-30.5 7.5t-25.5 -4.5t-10.5 -23.5q0 -5 2.5 -15 t7.5 -17h81v-63h-195v63z"/>
<glyph horiz-adv-x="698" arabic-form="final" glyph-name="lamalefhamzabelowfina" unicode="ﻠﺈ" d="M375 0h-324v111h131v439h120v-439h68q68 0 68 71v498h120v-506q0 -16 -3 -27t-6 -19q15 -8 37.5 -12.5t46.5 -4.5h74v-111h-58q-49 0 -85 10.5t-66 24.5q-20 -17 -52 -26t-71 -9zM125 -221h40q-3 7 -5 17.5t-2 16.5q0 25 8 43t21.5 29t31.5 16.5t37 5.5q16 0 31 -5 t33 -16v-67q-9 6 -24.5 12.5t-30.5 7.5t-25.5 -4.5t-10.5 -23.5q0 -5 2.5 -15t7.5 -17h81v-63h-195v63z"/>
<glyph horiz-adv-x="638" arabic-form="isolated" glyph-name="lamalefiso" unicode="ﻟﺎ" d="M367 0h-316v111h131v439h120v-439h64q30 0 51 9.5t21 40.5v519h120v-519q0 -85 -50 -123t-141 -38z"/>
<glyph horiz-adv-x="698" arabic-form="final" glyph-name="lamaleffina" unicode="ﻠﺎ" d="M375 0h-324v111h131v439h120v-439h68q68 0 68 71v498h120v-506q0 -16 -3 -27t-6 -19q15 -8 37.5 -12.5t46.5 -4.5h74v-111h-58q-49 0 -85 10.5t-66 24.5q-20 -17 -52 -26t-71 -9z"/>
<glyph d="M74 716q-26 5 -39 19t-15 38l-5 60l63 5l5 -55q2 -14 12 -15q7 -2 11 3.5t5 12.5q2 9 1 24t-3 35l63 7l5 -63q1 -5 6 -10t10 -6q8 -1 11.5 5t5.5 14q0 5 -0.5 15t-1.5 16l-5 33l61 6q2 -5 3 -13t3 -22q1 -11 1 -23.5t-2 -20.5q-7 -33 -33 -51q-19 -13 -44 -13 q-10 0 -20 2q-9 2 -17.5 6.5t-15.5 10.5q-9 -8 -25 -16q-10 -5 -24 -6q-7 0 -16 2z" glyph-name="shaddahfathatan" unicode="ًّ"/>
<glyph horiz-adv-x="492" arabic-form="isolated" glyph-name="hamza" unicode="ء" d="M442 0h-387v111h73q-10 41 -10 75q0 17 5 49t31 64.5t67 49.5t93 17q32 0 63 -8t65 -25v-122q-42 24 -73.5 36t-51.5 12q-34 0 -55.5 -14t-29 -32.5t-7.5 -35.5q0 -8 2.5 -25t19.5 -41h195v-111z"/>
<glyph horiz-adv-x="280" arabic-form="isolated" glyph-name="alefmaddaaboveiso" unicode="آ" d="M200 0h-120v680h120v-680zM286 842q0 -63 -25.5 -97t-70.5 -34q-26 0 -44.5 12t-35.5 25q-11 8 -21 15.5t-18 7.5q-21 0 -21 -58h-76q0 63 25 97t70 34q25 0 44 -12t36 -25q11 -9 21.5 -16t18.5 -7q20 0 20 58h77z"/>
<glyph horiz-adv-x="280" arabic-form="isolated" glyph-name="alefhamzaaboveiso" unicode="أ" d="M200 0h-120v680h120v-680zM22 774h40q-3 7 -5 17.5t-2 16.5q0 25 8 43t21.5 29t31.5 16.5t37 5.5q16 0 31 -5t33 -16v-67q-9 6 -24.5 12.5t-30.5 7.5t-25.5 -4.5t-10.5 -23.5q0 -5 2.5 -15t7.5 -17h81v-63h-195v63z"/>
<glyph horiz-adv-x="558" arabic-form="isolated" glyph-name="wawhamzaiso" unicode="ؤ" d="M357 0h-75q-45 0 -87 12.5t-74.5 38t-51.5 65t-19 94.5q0 43 15.5 80t46 64.5t75 43.5t102.5 16q16 0 41 -3t52 -7.5t52.5 -11.5t43.5 -14v-401q0 -57 -21.5 -95t-54.5 -60.5t-73 -32t-78 -9.5q-84 0 -153 33v112q41 -23 76 -33.5t77 -10.5q44 0 75 24t31 75v20zM358 298 q-9 2 -26.5 5.5t-42.5 3.5q-63 0 -93 -27t-30 -70q0 -47 31 -73t85 -26h76v187zM155 533h40q-3 7 -5 17.5t-2 16.5q0 25 8 43t21.5 29t31.5 16.5t37 5.5q16 0 31 -5t33 -16v-67q-9 6 -24.5 12.5t-30.5 7.5t-25.5 -4.5t-10.5 -23.5q0 -5 2.5 -15t7.5 -17h81v-63h-195v63z"/>
<glyph horiz-adv-x="280" arabic-form="isolated" glyph-name="alefhamzabelowiso" unicode="إ" d="M200 0h-120v680h120v-680zM33 -221h40q-3 7 -5 17.5t-2 16.5q0 25 8 43t21.5 29t31.5 16.5t37 5.5q16 0 31 -5t33 -16v-67q-9 6 -24.5 12.5t-30.5 7.5t-25.5 -4.5t-10.5 -23.5q0 -5 2.5 -15t7.5 -17h81v-63h-195v63z"/>
<glyph horiz-adv-x="730" arabic-form="isolated" glyph-name="hamzakirsehiso" unicode="ئ" d="M293 -124q-50 0 -94 9.5t-77 33.5t-52.5 64.5t-19.5 102.5v190h120v-185q0 -32 9 -52t25 -31t39 -15.5t50 -4.5h154q22 0 43 4t37.5 11.5t26.5 18t10 23.5q0 17 -21 36t-56 30q-62 21 -96 52.5t-34 90.5q0 38 15 68t39 50.5t55 31.5t64 11t65.5 -10t66.5 -34v-121 q-42 35 -74 45.5t-58 10.5q-8 0 -18 -2t-18 -7.5t-13.5 -15t-5.5 -23.5q0 -26 19.5 -38.5t51.5 -24.5q29 -11 53.5 -24.5t42.5 -30.5t28 -39.5t10 -51.5q0 -50 -21 -83.5t-54.5 -53.5t-75 -28t-82.5 -8h-154zM99 409h40q-3 7 -5 17.5t-2 16.5q0 25 8 43t21.5 29t31.5 16.5 t37 5.5q16 0 31 -5t33 -16v-67q-9 6 -24.5 12.5t-30.5 7.5t-25.5 -4.5t-10.5 -23.5q0 -5 2.5 -15t7.5 -17h81v-63h-195v63z"/>
<glyph horiz-adv-x="280" arabic-form="isolated" glyph-name="alefiso" unicode="ا" d="M200 0h-120v680h120v-680z"/>
<glyph horiz-adv-x="842" arabic-form="isolated" glyph-name="behiso" unicode="ب" d="M241 0q-91 0 -141 38t-50 123v252h120v-252q0 -31 21 -40.5t51 -9.5h328q30 0 51 9.5t21 40.5v252h120v-252q0 -85 -50 -123t-141 -38h-330zM406 -239q-30 0 -51 21t-21 50q0 31 21 52t51 21q29 0 50.5 -21t21.5 -52q0 -29 -21.5 -50t-50.5 -21z"/>
<glyph horiz-adv-x="558" arabic-form="isolated" glyph-name="tehmarboutaiso" unicode="ة" d="M358 298q-9 2 -26.5 5.5t-42.5 3.5q-63 0 -93 -27t-30 -70q0 -47 31 -73t85 -26h76v187zM478 0h-196q-45 0 -87 12.5t-74.5 38t-51.5 65t-19 94.5q0 43 15.5 80t46 64.5t75 43.5t102.5 16q16 0 41 -3t52 -7.5t52.5 -11.5t43.5 -14v-378zM361 487q-30 0 -51 21t-21 50 q0 31 21 52t51 21q29 0 50.5 -21t21.5 -52q0 -29 -21.5 -50t-50.5 -21zM181 487q-30 0 -51 21t-21 50q0 31 21 52t51 21q29 0 50.5 -21t21.5 -52q0 -29 -21.5 -50t-50.5 -21z"/>
<glyph horiz-adv-x="842" arabic-form="isolated" glyph-name="taiso" unicode="ت" d="M241 0q-91 0 -141 38t-50 123v252h120v-252q0 -31 21 -40.5t51 -9.5h328q30 0 51 9.5t21 40.5v252h120v-252q0 -85 -50 -123t-141 -38h-330zM489 488q-30 0 -51 21t-21 50q0 31 21 52t51 21q29 0 50.5 -21t21.5 -52q0 -29 -21.5 -50t-50.5 -21zM309 488q-30 0 -51 21 t-21 50q0 31 21 52t51 21q29 0 50.5 -21t21.5 -52q0 -29 -21.5 -50t-50.5 -21z"/>
<glyph horiz-adv-x="842" arabic-form="isolated" glyph-name="thaiso" unicode="ث" d="M241 0q-91 0 -141 38t-50 123v252h120v-252q0 -31 21 -40.5t51 -9.5h328q30 0 51 9.5t21 40.5v252h120v-252q0 -85 -50 -123t-141 -38h-330zM406 628q-30 0 -51 21t-21 50q0 31 21 52t51 21q29 0 50.5 -21t21.5 -52q0 -29 -21.5 -50t-50.5 -21zM492 465q-30 0 -51 21 t-21 50q0 31 21 52t51 21q29 0 50.5 -21t21.5 -52q0 -29 -21.5 -50t-50.5 -21zM312 465q-30 0 -51 21t-21 50q0 31 21 52t51 21q29 0 50.5 -21t21.5 -52q0 -29 -21.5 -50t-50.5 -21z"/>
<glyph horiz-adv-x="601" arabic-form="isolated" glyph-name="jeemiso" unicode="ج" d="M280 0q-45 0 -74.5 -14.5t-29.5 -35.5t25.5 -33.5t64.5 -12.5h92v-121h-95q-46 0 -83.5 11.5t-64 33.5t-41 53t-14.5 69q0 72 57 116.5t159 44.5h146v127q0 19 -6.5 31.5t-17 19t-24 9t-26.5 2.5h-63q-14 0 -31 -1.5t-35.5 -4.5t-36 -7.5t-32.5 -10.5v108 q29 14 69.5 21.5t74.5 7.5h63q42 0 76 -9t58 -28.5t37 -51t13 -75.5v-249h-261zM479 -229q-30 0 -51 21t-21 50q0 31 21 52t51 21q29 0 50.5 -21t21.5 -52q0 -29 -21.5 -50t-50.5 -21z"/>
<glyph horiz-adv-x="601" arabic-form="isolated" glyph-name="haaiso" unicode="ح" d="M280 0q-45 0 -74.5 -14.5t-29.5 -35.5t25.5 -33.5t64.5 -12.5h92v-121h-95q-46 0 -83.5 11.5t-64 33.5t-41 53t-14.5 69q0 72 57 116.5t159 44.5h146v127q0 19 -6.5 31.5t-17 19t-24 9t-26.5 2.5h-63q-14 0 -31 -1.5t-35.5 -4.5t-36 -7.5t-32.5 -10.5v108 q29 14 69.5 21.5t74.5 7.5h63q42 0 76 -9t58 -28.5t37 -51t13 -75.5v-249h-261z"/>
<glyph horiz-adv-x="601" arabic-form="isolated" glyph-name="khaiso" unicode="خ" d="M280 0q-45 0 -74.5 -14.5t-29.5 -35.5t25.5 -33.5t64.5 -12.5h92v-121h-95q-46 0 -83.5 11.5t-64 33.5t-41 53t-14.5 69q0 72 57 116.5t159 44.5h146v127q0 19 -6.5 31.5t-17 19t-24 9t-26.5 2.5h-63q-14 0 -31 -1.5t-35.5 -4.5t-36 -7.5t-32.5 -10.5v108 q29 14 69.5 21.5t74.5 7.5h63q42 0 76 -9t58 -28.5t37 -51t13 -75.5v-249h-261zM317 488q-30 0 -51 21t-21 50q0 31 21 52t51 21q29 0 50.5 -21t21.5 -52q0 -29 -21.5 -50t-50.5 -21z"/>
<glyph horiz-adv-x="487" arabic-form="isolated" glyph-name="daliso" unicode="د" d="M40 111h268v127q0 19 -6.5 31.5t-17 19t-24 9t-26.5 2.5h-25q-14 0 -31 -1.5t-35.5 -4.5t-36 -7.5t-32.5 -10.5v108q29 14 69.5 21.5t74.5 7.5h25q42 0 76 -9t58 -28.5t37 -51t13 -75.5v-249h-387v111z"/>
<glyph horiz-adv-x="487" arabic-form="isolated" glyph-name="zaliso" unicode="ذ" d="M40 111h268v127q0 19 -6.5 31.5t-17 19t-24 9t-26.5 2.5h-25q-14 0 -31 -1.5t-35.5 -4.5t-36 -7.5t-32.5 -10.5v108q29 14 69.5 21.5t74.5 7.5h25q42 0 76 -9t58 -28.5t37 -51t13 -75.5v-249h-387v111zM239 488q-30 0 -51 21t-21 50q0 31 21 52t51 21q29 0 50.5 -21 t21.5 -52q0 -29 -21.5 -50t-50.5 -21z"/>
<glyph horiz-adv-x="338" arabic-form="isolated" glyph-name="raiso" unicode="ر" d="M138 413h120v-481q0 -77 -45 -113t-116 -36q-23 0 -44 4.5t-38 10.5v101q17 -6 34 -10t31 -4q27 0 42.5 13.5t15.5 51.5v463z"/>
<glyph horiz-adv-x="338" arabic-form="isolated" glyph-name="zaiso" unicode="ز" d="M138 413h120v-481q0 -77 -45 -113t-116 -36q-23 0 -44 4.5t-38 10.5v101q17 -6 34 -10t31 -4q27 0 42.5 13.5t15.5 51.5v463zM192 488q-30 0 -51 21t-21 50q0 31 21 52t51 21q29 0 50.5 -21t21.5 -52q0 -29 -21.5 -50t-50.5 -21z"/>
<glyph horiz-adv-x="1245" arabic-form="isolated" glyph-name="seeniso" unicode="س" d="M637 -147q-26 -6 -61.5 -12t-72.5 -10.5t-71.5 -7.5t-58.5 -3q-53 0 -105 10t-94 34.5t-68 67t-26 108.5v145h122v-140q0 -33 16 -54t40.5 -32.5t55 -16t59.5 -4.5h32.5t39.5 1t39.5 1.5t32.5 2.5v470h120v-294q32 -13 75 -13q68 0 68 71v236h121v-244q0 -16 -3 -27 t-6 -19q15 -8 37.5 -12.5t46.5 -4.5q68 0 68 71v236h121v-241q0 -49 -12 -82t-34.5 -53t-54.5 -28.5t-72 -8.5q-49 0 -85 10.5t-66 24.5q-20 -17 -52 -26t-71 -9q-41 0 -81 6v-153z"/>
<glyph horiz-adv-x="1245" arabic-form="isolated" glyph-name="sheeniso" unicode="ش" d="M637 -147q-26 -6 -61.5 -12t-72.5 -10.5t-71.5 -7.5t-58.5 -3q-53 0 -105 10t-94 34.5t-68 67t-26 108.5v145h122v-140q0 -33 16 -54t40.5 -32.5t55 -16t59.5 -4.5h32.5t39.5 1t39.5 1.5t32.5 2.5v470h120v-294q32 -13 75 -13q68 0 68 71v236h121v-244q0 -16 -3 -27 t-6 -19q15 -8 37.5 -12.5t46.5 -4.5q68 0 68 71v236h121v-241q0 -49 -12 -82t-34.5 -53t-54.5 -28.5t-72 -8.5q-49 0 -85 10.5t-66 24.5q-20 -17 -52 -26t-71 -9q-41 0 -81 6v-153zM837 628q-30 0 -51 21t-21 50q0 31 21 52t51 21q29 0 50.5 -21t21.5 -52q0 -29 -21.5 -50 t-50.5 -21zM923 465q-30 0 -51 21t-21 50q0 31 21 52t51 21q29 0 50.5 -21t21.5 -52q0 -29 -21.5 -50t-50.5 -21zM743 465q-30 0 -51 21t-21 50q0 31 21 52t51 21q29 0 50.5 -21t21.5 -52q0 -29 -21.5 -50t-50.5 -21z"/>
<glyph horiz-adv-x="1136" arabic-form="isolated" glyph-name="sadiso" unicode="ص" d="M940 111v82q0 23 -3 42.5t-11.5 34t-23 22.5t-37.5 8q-25 0 -59 -7t-69 -25.5t-67 -51t-53 -84.5v-21h323zM1056 0h-439v-147q-26 -6 -61.5 -12t-72.5 -10.5t-71.5 -7.5t-58.5 -3q-53 0 -105 10t-94 34.5t-68 67t-26 108.5v145h122v-140q0 -33 16 -54t40.5 -32.5t55 -16 t59.5 -4.5h32.5t39.5 1t39.5 1.5t32.5 2.5v443h116v-60q21 20 52 36t66 27.5t71 17.5t68 6q49 0 84 -10.5t57.5 -35t33.5 -64.5t11 -99v-204z"/>
<glyph horiz-adv-x="1136" arabic-form="isolated" glyph-name="dadiso" unicode="ض" d="M940 111v82q0 23 -3 42.5t-11.5 34t-23 22.5t-37.5 8q-25 0 -59 -7t-69 -25.5t-67 -51t-53 -84.5v-21h323zM1056 0h-439v-147q-26 -6 -61.5 -12t-72.5 -10.5t-71.5 -7.5t-58.5 -3q-53 0 -105 10t-94 34.5t-68 67t-26 108.5v145h122v-140q0 -33 16 -54t40.5 -32.5t55 -16 t59.5 -4.5h32.5t39.5 1t39.5 1.5t32.5 2.5v443h116v-60q21 20 52 36t66 27.5t71 17.5t68 6q49 0 84 -10.5t57.5 -35t33.5 -64.5t11 -99v-204zM782 488q-30 0 -51 21t-21 50q0 31 21 52t51 21q29 0 50.5 -21t21.5 -52q0 -29 -21.5 -50t-50.5 -21z"/>
<glyph horiz-adv-x="785" arabic-form="isolated" glyph-name="tahiso" unicode="ط" d="M589 111v82q0 23 -3 42.5t-11.5 34t-23 22.5t-37.5 8q-26 0 -60.5 -7.5t-70.5 -27t-68.5 -54.5t-52.5 -90v-10h327zM146 111v569h116v-354q21 20 52 36t66 27.5t71 17.5t68 6q49 0 84 -10.5t57.5 -35t33.5 -64.5t11 -99v-204h-655v111h96z"/>
<glyph horiz-adv-x="785" arabic-form="isolated" glyph-name="zadiso" unicode="ظ" d="M589 111v82q0 23 -3 42.5t-11.5 34t-23 22.5t-37.5 8q-26 0 -60.5 -7.5t-70.5 -27t-68.5 -54.5t-52.5 -90v-10h327zM146 111v569h116v-354q21 20 52 36t66 27.5t71 17.5t68 6q49 0 84 -10.5t57.5 -35t33.5 -64.5t11 -99v-204h-655v111h96zM455 488q-30 0 -51 21t-21 50 q0 31 21 52t51 21q29 0 50.5 -21t21.5 -52q0 -29 -21.5 -50t-50.5 -21z"/>
<glyph horiz-adv-x="632" arabic-form="isolated" glyph-name="ayniso" unicode="ع" d="M280 0q-45 0 -74.5 -14.5t-29.5 -35.5t25.5 -33.5t64.5 -12.5h92v-121h-95q-46 0 -83.5 11.5t-64 33.5t-41 53t-14.5 69q0 66 50 110t139 51q-8 25 -12 49t-4 41q0 52 16 93t44.5 68.5t66.5 42t82 14.5q38 0 68 -8t59 -25v-114q-28 23 -55.5 32t-58.5 9q-43 0 -74 -30.5 t-31 -84.5q0 -18 8.5 -42.5t25.5 -44.5h198v-111h-302z"/>
<glyph horiz-adv-x="632" arabic-form="isolated" glyph-name="ghaiso" unicode="غ" d="M280 0q-45 0 -74.5 -14.5t-29.5 -35.5t25.5 -33.5t64.5 -12.5h92v-121h-95q-46 0 -83.5 11.5t-64 33.5t-41 53t-14.5 69q0 66 50 110t139 51q-8 25 -12 49t-4 41q0 52 16 93t44.5 68.5t66.5 42t82 14.5q38 0 68 -8t59 -25v-114q-28 23 -55.5 32t-58.5 9q-43 0 -74 -30.5 t-31 -84.5q0 -18 8.5 -42.5t25.5 -44.5h198v-111h-302zM447 488q-30 0 -51 21t-21 50q0 31 21 52t51 21q29 0 50.5 -21t21.5 -52q0 -29 -21.5 -50t-50.5 -21z"/>
<glyph horiz-adv-x="979" arabic-form="isolated" glyph-name="faiso" unicode="ف" d="M779 298q-9 2 -26.5 5.5t-42.5 3.5q-63 0 -93 -27t-30 -70q0 -46 29.5 -71.5t80.5 -27.5h82v187zM262 111h230q-10 20 -15.5 45t-5.5 54q0 43 15.5 80t46 64.5t75 43.5t102.5 16q16 0 41 -3t52 -7.5t52.5 -11.5t43.5 -14v-378h-196h-9h-433q-91 0 -141 38t-50 123v184 h120v-184q0 -31 21 -40.5t51 -9.5zM703 488q-30 0 -51 21t-21 50q0 31 21 52t51 21q29 0 50.5 -21t21.5 -52q0 -29 -21.5 -50t-50.5 -21z"/>
<glyph horiz-adv-x="850" arabic-form="isolated" glyph-name="kaafiso" unicode="ق" d="M666 488q-30 0 -51 21t-21 50q0 31 21 52t51 21q29 0 50.5 -21t21.5 -52q0 -29 -21.5 -50t-50.5 -21zM486 488q-30 0 -51 21t-21 50q0 31 21 52t51 21q29 0 50.5 -21t21.5 -52q0 -29 -21.5 -50t-50.5 -21zM650 298q-9 2 -26.5 5.5t-42.5 3.5q-63 0 -93 -27t-30 -70 q0 -47 31 -73t85 -26h76v187zM430 -198h-67q-53 0 -105 10t-94 34.5t-68 67t-26 108.5v194h122v-189q0 -33 16 -54t40.5 -32.5t55 -16t59.5 -4.5h67h44t66 1t66 1.5t44 2.5v75h-76q-45 0 -87 12.5t-74.5 38t-51.5 65t-19 94.5q0 43 15.5 80t46 64.5t75 43.5t102.5 16 q16 0 41 -3t52 -7.5t52.5 -11.5t43.5 -14v-543q-26 -6 -73.5 -12t-99 -10.5t-97.5 -7.5t-70 -3z"/>
<glyph horiz-adv-x="718" arabic-form="isolated" glyph-name="kafiso" unicode="ك" d="M234 439h40q-3 7 -5 17.5t-2 16.5q0 25 8 43t21.5 29t31.5 16.5t37 5.5q16 0 31 -5t33 -16v-67q-9 6 -24.5 12.5t-30.5 7.5t-25.5 -4.5t-10.5 -23.5q0 -5 2.5 -15t7.5 -17h81v-63h-195v63zM638 17q-26 -6 -65 -11t-80 -9t-78.5 -6t-61.5 -2q-53 0 -105 10t-94 34.5 t-68 67t-26 108.5v145h122v-140q0 -33 16 -54t40.5 -32.5t55 -16t59.5 -4.5h35.5t47 1t47 1.5t35.5 2.5v568h120v-663z"/>
<glyph horiz-adv-x="697" arabic-form="isolated" glyph-name="lamiso" unicode="ل" d="M617 -147q-26 -6 -61.5 -12t-72.5 -10.5t-71.5 -7.5t-58.5 -3q-53 0 -105 10t-94 34.5t-68 67t-26 108.5v145h122v-140q0 -33 16 -54t40.5 -32.5t55 -16t59.5 -4.5h32.5t39.5 1t39.5 1.5t32.5 2.5v737h120v-827z"/>
<glyph horiz-adv-x="680" arabic-form="isolated" glyph-name="meemiso" unicode="م" d="M427 294q-23 0 -36.5 -11t-13.5 -33l-1 -139h134v118q0 40 -18.5 52.5t-49.5 12.5h-15zM257 111v143q0 71 44 115t120 44h25q93 0 138.5 -42t45.5 -131v-240h-380q-23 0 -36.5 -11.5t-13.5 -33.5l-1 -172h-119v169q0 71 44 115t120 44h13z"/>
<glyph horiz-adv-x="697" arabic-form="isolated" glyph-name="nouniso" unicode="ن" d="M336 488q-30 0 -51 21t-21 50q0 31 21 52t51 21q29 0 50.5 -21t21.5 -52q0 -29 -21.5 -50t-50.5 -21zM617 -90q-26 -6 -61.5 -12t-72.5 -10.5t-71.5 -7.5t-58.5 -3q-53 0 -105 10t-94 34.5t-68 67t-26 108.5v248h122v-243q0 -33 16 -54t40.5 -32.5t55 -16t59.5 -4.5h32.5 t39.5 1t39.5 1.5t32.5 2.5v413h120v-503z"/>
<glyph horiz-adv-x="555" arabic-form="initial" glyph-name="haini" unicode="ه" d="M141 133q0 -13 3 -22h106v22q0 50 -55 50q-26 0 -40 -13t-14 -37zM-9 111h60q-1 5 -1.5 10.5t-0.5 11.5q0 30 11.5 55t31 42t46 26.5t57.5 9.5t58 -9.5t46.5 -26.5t31 -42t11.5 -55v-22h44v127q0 19 -6.5 31.5t-17 19t-24 9t-26.5 2.5h-148q-14 0 -31 -1.5t-35.5 -4.5 t-36 -7.5t-32.5 -10.5v108q29 14 69.5 21.5t74.5 7.5h148q42 0 76 -9t58 -28.5t37 -51t13 -75.5v-249h-514v111z"/>
<glyph horiz-adv-x="558" arabic-form="isolated" glyph-name="wawiso" unicode="و" d="M357 0h-75q-45 0 -87 12.5t-74.5 38t-51.5 65t-19 94.5q0 43 15.5 80t46 64.5t75 43.5t102.5 16q16 0 41 -3t52 -7.5t52.5 -11.5t43.5 -14v-401q0 -57 -21.5 -95t-54.5 -60.5t-73 -32t-78 -9.5q-84 0 -153 33v112q41 -23 76 -33.5t77 -10.5q44 0 75 24t31 75v20zM358 298 q-9 2 -26.5 5.5t-42.5 3.5q-63 0 -93 -27t-30 -70q0 -47 31 -73t85 -26h76v187z"/>
<glyph horiz-adv-x="730" arabic-form="isolated" glyph-name="alefma2souraiso" unicode="ى" d="M293 -124q-50 0 -94 9.5t-77 33.5t-52.5 64.5t-19.5 102.5v190h120v-185q0 -32 9 -52t25 -31t39 -15.5t50 -4.5h154q22 0 43 4t37.5 11.5t26.5 18t10 23.5q0 17 -21 36t-56 30q-62 21 -96 52.5t-34 90.5q0 38 15 68t39 50.5t55 31.5t64 11t65.5 -10t66.5 -34v-121 q-42 35 -74 45.5t-58 10.5q-8 0 -18 -2t-18 -7.5t-13.5 -15t-5.5 -23.5q0 -26 19.5 -38.5t51.5 -24.5q29 -11 53.5 -24.5t42.5 -30.5t28 -39.5t10 -51.5q0 -50 -21 -83.5t-54.5 -53.5t-75 -28t-82.5 -8h-154z"/>
<glyph horiz-adv-x="730" arabic-form="isolated" glyph-name="yaiso" unicode="ي" d="M293 -124q-50 0 -94 9.5t-77 33.5t-52.5 64.5t-19.5 102.5v190h120v-185q0 -32 9 -52t25 -31t39 -15.5t50 -4.5h154q22 0 43 4t37.5 11.5t26.5 18t10 23.5q0 17 -21 36t-56 30q-62 21 -96 52.5t-34 90.5q0 38 15 68t39 50.5t55 31.5t64 11t65.5 -10t66.5 -34v-121 q-42 35 -74 45.5t-58 10.5q-8 0 -18 -2t-18 -7.5t-13.5 -15t-5.5 -23.5q0 -26 19.5 -38.5t51.5 -24.5q29 -11 53.5 -24.5t42.5 -30.5t28 -39.5t10 -51.5q0 -50 -21 -83.5t-54.5 -53.5t-75 -28t-82.5 -8h-154zM455 -309q-30 0 -51 21t-21 50q0 31 21 52t51 21q29 0 50.5 -21 t21.5 -52q0 -29 -21.5 -50t-50.5 -21zM275 -309q-30 0 -51 21t-21 50q0 31 21 52t51 21q29 0 50.5 -21t21.5 -52q0 -29 -21.5 -50t-50.5 -21z"/>
<glyph horiz-adv-x="280" arabic-form="isolated" glyph-name="alefwaslaiso" unicode="ٱ" d="M200 0h-120v680h120v-680z"/>
<glyph horiz-adv-x="842" arabic-form="isolated" glyph-name="piso.001" unicode="پ" d="M416 -199q24 0 42 -18q18 -17 18 -41q0 -26 -18 -43t-42 -17q-25 0 -42 17t-17 43q0 24 17 41q17 18 42 18zM487 -65q24 0 42 -17t17 -42q0 -26 -17 -43q-18 -17 -42 -17q-25 0 -42 17t-17 43q0 24 17 42q17 17 42 17zM339 -65q24 0 41 -17q18 -17 18 -42q0 -26 -18 -43 t-41 -17q-25 0 -42 17t-18 43q0 24 18 42q17 17 42 17zM241 0q-91 0 -141 38t-50 123v252h120v-252q0 -31 21 -40.5t51 -9.5h328q30 0 51 9.5t21 40.5v252h120v-252q0 -85 -50 -123t-141 -38h-330z"/>
<glyph horiz-adv-x="601" arabic-form="isolated" glyph-name="giso" unicode="چ" d="M496 -165q21 0 37 -15t15 -37q0 -23 -15 -37q-16 -15 -37 -16q-22 0 -37 16q-15 15 -15 37q0 21 15 37q15 15 37 15zM559 -47q21 0 36 -15q16 -15 16 -36q0 -23 -16 -38t-36 -15q-22 0 -37 15t-16 38q0 21 16 36q15 15 37 15zM428 -47q21 0 37 -15t15 -36q0 -23 -15 -38 q-16 -15 -37 -15q-22 0 -37 15t-15 38q0 21 15 36t37 15zM280 0q-45 0 -74.5 -14.5t-29.5 -35.5t25.5 -33.5t64.5 -12.5h92v-121h-95q-46 0 -83.5 11.5t-64 33.5t-41 53t-14.5 69q0 72 57 116.5t159 44.5h146v127q0 19 -6.5 31.5t-17 19t-24 9t-26.5 2.5h-63q-14 0 -31 -1.5 t-35.5 -4.5t-36 -7.5t-32.5 -10.5v108q29 14 69.5 21.5t74.5 7.5h63q42 0 76 -9t58 -28.5t37 -51t13 -75.5v-249h-261z"/>
<glyph horiz-adv-x="338" arabic-form="isolated" glyph-name="jehiso" unicode="ژ" d="M138 413h120v-481q0 -77 -45 -113t-116 -36q-23 0 -44 4.5t-38 10.5v101q17 -6 34 -10t31 -4q27 0 42.5 13.5t15.5 51.5v463zM185 628q-30 0 -51 21t-21 50q0 31 21 52t51 21q29 0 50.5 -21t21.5 -52q0 -29 -21.5 -50t-50.5 -21zM271 465q-30 0 -51 21t-21 50q0 31 21 52 t51 21q29 0 50.5 -21t21.5 -52q0 -29 -21.5 -50t-50.5 -21zM91 465q-30 0 -51 21t-21 50q0 31 21 52t51 21q29 0 50.5 -21t21.5 -52q0 -29 -21.5 -50t-50.5 -21z"/>
<glyph horiz-adv-x="948" arabic-form="isolated" glyph-name="vehiso" unicode="ڤ" d="M777 298q-9 2 -26.5 5.5t-42.5 3.5q-63 0 -93 -27t-30 -70q0 -46 29.5 -71.5t80.5 -27.5h82v187zM260 111h230q-10 20 -15.5 45t-5.5 54q0 43 15.5 80t46 64.5t75 43.5t102.5 16q16 0 41 -3t52 -7.5t52.5 -11.5t43.5 -14v-378h-196h-9h-433q-91 0 -141 38t-50 123v184 h120v-184q0 -31 21 -40.5t51 -9.5zM706 627q-30 0 -51 21t-21 50q0 31 21 52t51 21q29 0 50.5 -21t21.5 -52q0 -29 -21.5 -50t-50.5 -21zM792 464q-30 0 -51 21t-21 50q0 31 21 52t51 21q29 0 50.5 -21t21.5 -52q0 -29 -21.5 -50t-50.5 -21zM612 464q-30 0 -51 21t-21 50 q0 31 21 52t51 21q29 0 50.5 -21t21.5 -52q0 -29 -21.5 -50t-50.5 -21z"/>
<glyph horiz-adv-x="691" arabic-form="isolated" glyph-name="kehehiso" unicode="ک" d="M231 439h40q-3 7 -5 17.5t-2 16.5q0 25 8 43t21.5 29t31.5 16.5t37 5.5q16 0 31 -5t33 -16v-67q-9 6 -24.5 12.5t-30.5 7.5t-25.5 -4.5t-10.5 -23.5q0 -5 2.5 -15t7.5 -17h81v-63h-195v63zM638 17q-26 -6 -65 -11t-80 -9t-78.5 -6t-61.5 -2q-53 0 -105 10t-94 34.5 t-68 67t-26 108.5v145h122v-140q0 -33 16 -54t40.5 -32.5t55 -16t59.5 -4.5h35.5t47 1t47 1.5t35.5 2.5v568h120v-663z"/>
<glyph horiz-adv-x="684" arabic-form="isolated" glyph-name="gafiso" unicode="گ" d="M228 439h40q-3 7 -5 17.5t-2 16.5q0 25 8 43t21.5 29t31.5 16.5t37 5.5q16 0 31 -5t33 -16v-67q-9 6 -24.5 12.5t-30.5 7.5t-25.5 -4.5t-10.5 -23.5q0 -5 2.5 -15t7.5 -17h81v-63h-195v63zM638 17q-26 -6 -65 -11t-80 -9t-78.5 -6t-61.5 -2q-53 0 -105 10t-94 34.5 t-68 67t-26 108.5v145h122v-140q0 -33 16 -54t40.5 -32.5t55 -16t59.5 -4.5h35.5t47 1t47 1.5t35.5 2.5v568h120v-663z"/>
<glyph horiz-adv-x="730" arabic-form="isolated" glyph-name="farsiyaiso" unicode="ی" d="M293 -124q-50 0 -94 9.5t-77 33.5t-52.5 64.5t-19.5 102.5v190h120v-185q0 -32 9 -52t25 -31t39 -15.5t50 -4.5h154q22 0 43 4t37.5 11.5t26.5 18t10 23.5q0 17 -21 36t-56 30q-62 21 -96 52.5t-34 90.5q0 38 15 68t39 50.5t55 31.5t64 11t65.5 -10t66.5 -34v-121 q-42 35 -74 45.5t-58 10.5q-8 0 -18 -2t-18 -7.5t-13.5 -15t-5.5 -23.5q0 -26 19.5 -38.5t51.5 -24.5q29 -11 53.5 -24.5t42.5 -30.5t28 -39.5t10 -51.5q0 -50 -21 -83.5t-54.5 -53.5t-75 -28t-82.5 -8h-154z"/>
<glyph horiz-adv-x="292" arabic-form="final" glyph-name="alefwaslafina" unicode="ٱ" d="M261 0q-91 0 -141 38t-50 123v519h120v-519q0 -31 21 -40.5t51 -9.5h39v-111h-40z"/>
<glyph horiz-adv-x="934" arabic-form="final" glyph-name="pfina" unicode="پ" d="M445 -199q24 0 42 -18q18 -17 18 -41q0 -26 -18 -43t-42 -17q-25 0 -42 17t-17 43q0 24 17 41q17 18 42 18zM516 -65q24 0 42 -17t17 -42q0 -26 -17 -43q-18 -17 -42 -17q-25 0 -42 17t-17 43q0 24 17 42q17 17 42 17zM368 -65q24 0 41 -17q18 -17 18 -42q0 -26 -18 -43 t-41 -17q-25 0 -42 17t-18 43q0 24 18 42q17 17 42 17zM886 0q-49 0 -85 10.5t-66 24.5q-20 -17 -52 -26t-71 -9h-338q-91 0 -141 38t-50 123v252h120v-252q0 -31 21 -40.5t51 -9.5h332q68 0 68 71v231h120v-239q0 -16 -3 -27t-6 -19q15 -8 37.5 -12.5t46.5 -4.5h74v-111 h-58z"/>
<glyph horiz-adv-x="328" arabic-form="initial" glyph-name="pini" unicode="پ" d="M113 -199q24 0 42 -18q18 -17 18 -41q0 -26 -18 -43t-42 -17q-25 0 -42 17t-17 43q0 24 17 41q17 18 42 18zM184 -65q24 0 42 -17t17 -42q0 -26 -17 -43q-18 -17 -42 -17q-25 0 -42 17t-17 43q0 24 17 42q17 17 42 17zM36 -65q24 0 41 -17q18 -17 18 -42q0 -26 -18 -43 t-41 -17q-25 0 -42 17t-18 43q0 24 18 42q17 17 42 17zM-9 0v111h39q30 0 51 9.5t21 40.5v252h120v-252q0 -85 -50 -123t-141 -38h-40z"/>
<glyph horiz-adv-x="400" arabic-form="medial" glyph-name="pmedi" unicode="پ" d="M193 -207q29 0 51 -21t21 -50q1 -31 -21 -52t-51 -21q-30 0 -51 21t-21 52q0 29 21 50t51 21zM279 -44q29 0 51 -21t21 -50q1 -31 -21 -52t-51 -21q-30 0 -51 21t-21 52q0 29 21 50t51 21zM99 -44q29 0 51 -21t21 -50q1 -31 -21 -52t-51 -21q-30 0 -51 21t-21 52 q0 29 21 50t51 21zM349 0q-49 0 -85 10.5t-66 24.5q-20 -17 -52 -26t-71 -9h-84v111h79q68 0 68 71v231h120v-239q0 -16 -3 -27t-6 -19q15 -8 37.5 -12.5t46.5 -4.5h74v-111h-58z"/>
<glyph horiz-adv-x="621" arabic-form="final" glyph-name="gfina" unicode="چ" d="M512 -165q21 0 37 -15t15 -37q0 -23 -15 -37q-16 -15 -37 -16q-22 0 -37 16q-15 15 -15 37q0 21 15 37q15 15 37 15zM575 -47q21 0 36 -15q16 -15 16 -36q0 -23 -16 -38t-36 -15q-22 0 -37 15t-16 38q0 21 16 36q15 15 37 15zM444 -47q21 0 37 -15t15 -36q0 -23 -15 -38 q-16 -15 -37 -15q-22 0 -37 15t-15 38q0 21 15 36t37 15zM630 0h-350q-45 0 -74.5 -14.5t-29.5 -35.5t25.5 -33.5t64.5 -12.5h92v-121h-95q-46 0 -83.5 11.5t-64 33.5t-41 53t-14.5 69q0 72 57 116.5t159 44.5h146v127q0 19 -6.5 31.5t-17 19t-24 9t-26.5 2.5h-63 q-14 0 -31 -1.5t-35.5 -4.5t-36 -7.5t-32.5 -10.5v108q29 14 69.5 21.5t74.5 7.5h63q42 0 76 -9t58 -28.5t37 -51t13 -75.5v-138h89v-111z"/>
<glyph horiz-adv-x="510" arabic-form="initial" glyph-name="gini" unicode="چ" d="M226 -199q24 0 42 -18q18 -17 18 -41q0 -26 -18 -43t-42 -17q-25 0 -42 17t-17 43q0 24 17 41q17 18 42 18zM297 -65q24 0 42 -17t17 -42q0 -26 -17 -43q-18 -17 -42 -17q-25 0 -42 17t-17 43q0 24 17 42q17 17 42 17zM149 -65q24 0 41 -17q18 -17 18 -42q0 -26 -18 -43 t-41 -17q-25 0 -42 17t-18 43q0 24 18 42q17 17 42 17zM-9 111h340v127q0 19 -6.5 31.5t-17 19t-24 9t-26.5 2.5h-63q-14 0 -31 -1.5t-35.5 -4.5t-36 -7.5t-32.5 -10.5v108q29 14 69.5 21.5t74.5 7.5h63q42 0 76 -9t58 -28.5t37 -51t13 -75.5v-249h-459v111z"/>
<glyph horiz-adv-x="530" arabic-form="medial" glyph-name="gmedi" unicode="چ" d="M275 -199q24 0 42 -18q18 -17 18 -41q0 -26 -18 -43t-42 -17q-25 0 -42 17t-17 43q0 24 17 41q17 18 42 18zM346 -65q24 0 42 -17t17 -42q0 -26 -17 -43q-18 -17 -42 -17q-25 0 -42 17t-17 43q0 24 17 42q17 17 42 17zM198 -65q24 0 41 -17q18 -17 18 -42q0 -26 -18 -43 t-41 -17q-25 0 -42 17t-18 43q0 24 18 42q17 17 42 17zM-9 111h340v127q0 19 -6.5 31.5t-17 19t-24 9t-26.5 2.5h-63q-14 0 -31 -1.5t-35.5 -4.5t-36 -7.5t-32.5 -10.5v108q29 14 69.5 21.5t74.5 7.5h63q42 0 76 -9t58 -28.5t37 -51t13 -75.5v-138h89v-111h-548v111z"/>
<glyph horiz-adv-x="338" arabic-form="final" glyph-name="jehfina" unicode="ژ" d="M138 413h120v-302h89v-111h-89v-68q0 -77 -45 -113t-116 -36q-23 0 -44 4.5t-38 10.5v101q17 -6 34 -10t31 -4q27 0 42.5 13.5t15.5 51.5v463zM196 628q-30 0 -51 21t-21 50q0 31 21 52t51 21q29 0 50.5 -21t21.5 -52q0 -29 -21.5 -50t-50.5 -21zM282 465q-30 0 -51 21 t-21 50q0 31 21 52t51 21q29 0 50.5 -21t21.5 -52q0 -29 -21.5 -50t-50.5 -21zM102 465q-30 0 -51 21t-21 50q0 31 21 52t51 21q29 0 50.5 -21t21.5 -52q0 -29 -21.5 -50t-50.5 -21z"/>
<glyph horiz-adv-x="729" arabic-form="final" glyph-name="kehehfina" unicode="ک" d="M264 439h40q-3 7 -5 17.5t-2 16.5q0 25 8 43t21.5 29t31.5 16.5t37 5.5q16 0 31 -5t33 -16v-67q-9 6 -24.5 12.5t-30.5 7.5t-25.5 -4.5t-10.5 -23.5q0 -5 2.5 -15t7.5 -17h81v-63h-195v63zM738 111v-111h-192q-49 -5 -96.5 -8t-76.5 -3q-53 0 -105 10t-94 34.5t-68 67 t-26 108.5v145h122v-140q0 -33 16 -54t40.5 -32.5t55 -16t59.5 -4.5h35.5t47 1t47 1.5t35.5 2.5v568h120v-569h80z"/>
<glyph horiz-adv-x="499" arabic-form="initial" glyph-name="kafini" unicode="ک" d="M-9 0v111h256q16 0 30.5 3t25.5 10t17.5 18t6.5 27v52q0 20 -7.5 32.5t-18.5 20t-25 10t-28 2.5h-219v94l398 325v-142l-205 -166h21q46 0 83.5 -8.5t64 -27.5t41.5 -51t16 -78v-63q1 -90 -52 -129.5t-148 -39.5h-257z"/>
<glyph horiz-adv-x="556" arabic-form="medial" glyph-name="kafmedi" unicode="ک" d="M-9 0v111h256q16 0 30.5 3t25.5 10t17.5 18t6.5 27v52q0 20 -7.5 32.5t-18.5 20t-25 10t-28 2.5h-219v94l398 325v-142l-205 -166h21q46 0 83.5 -8.5t64 -27.5t41.5 -51t16 -78v-63q0 -28 -4 -48q14 -5 31.5 -7.5t36.5 -2.5h53v-111h-37q-46 0 -80 9.5t-63 21.5 q-50 -31 -137 -31h-257z"/>
<glyph horiz-adv-x="729" arabic-form="final" glyph-name="gaffina" unicode="گ" d="M264 439h40q-3 7 -5 17.5t-2 16.5q0 25 8 43t21.5 29t31.5 16.5t37 5.5q16 0 31 -5t33 -16v-67q-9 6 -24.5 12.5t-30.5 7.5t-25.5 -4.5t-10.5 -23.5q0 -5 2.5 -15t7.5 -17h81v-63h-195v63zM738 111v-111h-192q-49 -5 -96.5 -8t-76.5 -3q-53 0 -105 10t-94 34.5t-68 67 t-26 108.5v145h122v-140q0 -33 16 -54t40.5 -32.5t55 -16t59.5 -4.5h35.5t47 1t47 1.5t35.5 2.5v568h120v-569h80z"/>
<glyph horiz-adv-x="503" arabic-form="initial" glyph-name="gafini" unicode="گ" d="M-5 0v111h256q16 0 30.5 3t25.5 10t17.5 18t6.5 27v52q0 20 -7.5 32.5t-18.5 20t-25 10t-28 2.5h-219v94l398 325v-142l-205 -166h21q46 0 83.5 -8.5t64 -27.5t41.5 -51t16 -78v-63q1 -90 -52 -129.5t-148 -39.5h-257z"/>
<glyph horiz-adv-x="561" arabic-form="medial" glyph-name="gafmedi" unicode="گ" d="M-4 0v111h256q16 0 30.5 3t25.5 10t17.5 18t6.5 27v52q0 20 -7.5 32.5t-18.5 20t-25 10t-28 2.5h-219v94l398 325v-142l-205 -166h21q46 0 83.5 -8.5t64 -27.5t41.5 -51t16 -78v-63q0 -28 -4 -48q14 -5 31.5 -7.5t36.5 -2.5h53v-111h-37q-46 0 -80 9.5t-63 21.5 q-50 -31 -137 -31h-257z"/>
<glyph horiz-adv-x="303" arabic-form="initial" glyph-name="kirsehini" unicode="ى" d="M-8 0v111h39q30 0 51 9.5t21 40.5v252h120v-252q0 -85 -50 -123t-141 -38h-40z"/>
<glyph horiz-adv-x="399" arabic-form="medial" glyph-name="kirsehmedi" unicode="ى" d="M349 0q-49 0 -85 10.5t-66 24.5q-20 -17 -52 -26t-71 -9h-84v111h79q68 0 68 71v231h120v-239q0 -16 -3 -27t-6 -19q15 -8 37.5 -12.5t46.5 -4.5h74v-111h-58z"/>
<glyph horiz-adv-x="923" arabic-form="final" glyph-name="alefma2sourafina" unicode="ی" d="M473 251q0 46 15.5 77.5t41 50.5t58 27.5t65.5 8.5q17 0 41.5 -3t50.5 -8t52.5 -12t48.5 -16v-265h86v-111h-206v298q-5 2 -14 3t-19 2t-18.5 1h-13.5q-11 0 -22.5 -3.5t-22 -11t-17 -19.5t-6.5 -30v-211q0 -50 -27 -80.5t-67.5 -46.5t-87.5 -21t-88 -5h-4q-50 0 -98 9.5 t-86 33t-61.5 64t-23.5 102.5v191h120v-186q0 -32 13 -51.5t34.5 -31t48.5 -15.5t56 -4q22 0 48.5 1t49 4.5t38 11t15.5 20.5v226z"/>
<glyph horiz-adv-x="303" arabic-form="initial" glyph-name="yaini" unicode="ی" d="M-8 0v111h39q30 0 51 9.5t21 40.5v252h120v-252q0 -85 -50 -123t-141 -38h-40zM201 -240q-30 0 -51 21t-21 50q0 31 21 52t51 21q29 0 50.5 -21t21.5 -52q0 -29 -21.5 -50t-50.5 -21zM21 -240q-30 0 -51 21t-21 50q0 31 21 52t51 21q29 0 50.5 -21t21.5 -52 q0 -29 -21.5 -50t-50.5 -21z"/>
<glyph horiz-adv-x="399" arabic-form="medial" glyph-name="yamedi" unicode="ی" d="M349 0q-49 0 -85 10.5t-66 24.5q-20 -17 -52 -26t-71 -9h-84v111h79q68 0 68 71v231h120v-239q0 -16 -3 -27t-6 -19q15 -8 37.5 -12.5t46.5 -4.5h74v-111h-58zM288 -240q-30 0 -51 21t-21 50q0 31 21 52t51 21q29 0 50.5 -21t21.5 -52q0 -29 -21.5 -50t-50.5 -21z M108 -240q-30 0 -51 21t-21 50q0 31 21 52t51 21q29 0 50.5 -21t21.5 -52q0 -29 -21.5 -50t-50.5 -21z"/>
<glyph horiz-adv-x="292" arabic-form="final" glyph-name="alefmaddaabovefina" unicode="آ" d="M261 0q-91 0 -141 38t-50 123v519h120v-519q0 -31 21 -40.5t51 -9.5h39v-111h-40zM286 842q0 -63 -25.5 -97t-70.5 -34q-26 0 -44.5 12t-35.5 25q-11 8 -21 15.5t-18 7.5q-21 0 -21 -58h-76q0 63 25 97t70 34q25 0 44 -12t36 -25q11 -9 21.5 -16t18.5 -7q20 0 20 58h77z "/>
<glyph horiz-adv-x="292" arabic-form="final" glyph-name="alefhamzaabovefina" unicode="أ" d="M261 0q-91 0 -141 38t-50 123v519h120v-519q0 -31 21 -40.5t51 -9.5h39v-111h-40zM22 774h40q-3 7 -5 17.5t-2 16.5q0 25 8 43t21.5 29t31.5 16.5t37 5.5q16 0 31 -5t33 -16v-67q-9 6 -24.5 12.5t-30.5 7.5t-25.5 -4.5t-10.5 -23.5q0 -5 2.5 -15t7.5 -17h81v-63h-195v63z "/>
<glyph horiz-adv-x="559" arabic-form="final" glyph-name="wawhamzafina" unicode="ؤ" d="M358 298q-9 2 -26.5 5.5t-42.5 3.5q-63 0 -93 -27t-30 -70q0 -47 31 -73t85 -26h76v187zM357 0h-75q-45 0 -87 12.5t-74.5 38t-51.5 65t-19 94.5q0 43 15.5 80t46 64.5t75 43.5t102.5 16q16 0 41 -3t52 -7.5t52.5 -11.5t43.5 -14v-267h90v-111h-90v-23q0 -57 -21.5 -95 t-54.5 -60.5t-73 -32t-78 -9.5q-84 0 -153 33v112q41 -23 76 -33.5t77 -10.5q44 0 75 24t31 75v20zM155 533h40q-3 7 -5 17.5t-2 16.5q0 25 8 43t21.5 29t31.5 16.5t37 5.5q16 0 31 -5t33 -16v-67q-9 6 -24.5 12.5t-30.5 7.5t-25.5 -4.5t-10.5 -23.5q0 -5 2.5 -15t7.5 -17 h81v-63h-195v63z"/>
<glyph horiz-adv-x="292" arabic-form="final" glyph-name="alefhamzabelowfina" unicode="إ" d="M261 0q-91 0 -141 38t-50 123v519h120v-519q0 -31 21 -40.5t51 -9.5h39v-111h-40zM47 -221h40q-3 7 -5 17.5t-2 16.5q0 25 8 43t21.5 29t31.5 16.5t37 5.5q16 0 31 -5t33 -16v-67q-9 6 -24.5 12.5t-30.5 7.5t-25.5 -4.5t-10.5 -23.5q0 -5 2.5 -15t7.5 -17h81v-63h-195v63 z"/>
<glyph horiz-adv-x="923" arabic-form="final" glyph-name="hamzakirsehfina" unicode="ئ" d="M473 251q0 46 15.5 77.5t41 50.5t58 27.5t65.5 8.5q17 0 41.5 -3t50.5 -8t52.5 -12t48.5 -16v-265h86v-111h-206v298q-5 2 -14 3t-19 2t-18.5 1h-13.5q-11 0 -22.5 -3.5t-22 -11t-17 -19.5t-6.5 -30v-211q0 -50 -27 -80.5t-67.5 -46.5t-87.5 -21t-88 -5h-4q-50 0 -98 9.5 t-86 33t-61.5 64t-23.5 102.5v191h120v-186q0 -32 13 -51.5t34.5 -31t48.5 -15.5t56 -4q22 0 48.5 1t49 4.5t38 11t15.5 20.5v226zM99 409h40q-3 7 -5 17.5t-2 16.5q0 25 8 43t21.5 29t31.5 16.5t37 5.5q16 0 31 -5t33 -16v-67q-9 6 -24.5 12.5t-30.5 7.5t-25.5 -4.5 t-10.5 -23.5q0 -5 2.5 -15t7.5 -17h81v-63h-195v63z"/>
<glyph horiz-adv-x="303" arabic-form="initial" glyph-name="hamzakirsehini" unicode="ئ" d="M-8 0v111h39q30 0 51 9.5t21 40.5v252h120v-252q0 -85 -50 -123t-141 -38h-40zM42 552h40q-3 7 -5 17.5t-2 16.5q0 25 8 43t21.5 29t31.5 16.5t37 5.5q16 0 31 -5t33 -16v-67q-9 6 -24.5 12.5t-30.5 7.5t-25.5 -4.5t-10.5 -23.5q0 -5 2.5 -15t7.5 -17h81v-63h-195v63z "/>
<glyph horiz-adv-x="399" arabic-form="medial" glyph-name="hamzakirsehmedi" unicode="ئ" d="M349 0q-49 0 -85 10.5t-66 24.5q-20 -17 -52 -26t-71 -9h-84v111h79q68 0 68 71v231h120v-239q0 -16 -3 -27t-6 -19q15 -8 37.5 -12.5t46.5 -4.5h74v-111h-58zM85 552h40q-3 7 -5 17.5t-2 16.5q0 25 8 43t21.5 29t31.5 16.5t37 5.5q16 0 31 -5t33 -16v-67 q-9 6 -24.5 12.5t-30.5 7.5t-25.5 -4.5t-10.5 -23.5q0 -5 2.5 -15t7.5 -17h81v-63h-195v63z"/>
<glyph horiz-adv-x="292" arabic-form="final" glyph-name="aleffina" unicode="ا" d="M261 0q-91 0 -141 38t-50 123v519h120v-519q0 -31 21 -40.5t51 -9.5h39v-111h-40z"/>
<glyph horiz-adv-x="902" arabic-form="final" glyph-name="behfina" unicode="ب" d="M853 0q-49 0 -85 10.5t-66 24.5q-20 -17 -52 -26t-71 -9h-338q-91 0 -141 38t-50 123v252h120v-252q0 -31 21 -40.5t51 -9.5h332q68 0 68 71v231h120v-239q0 -16 -3 -27t-6 -19q15 -8 37.5 -12.5t46.5 -4.5h74v-111h-58zM430 -239q-30 0 -51 21t-21 50q0 31 21 52t51 21 q29 0 50.5 -21t21.5 -52q0 -29 -21.5 -50t-50.5 -21z"/>
<glyph horiz-adv-x="303" arabic-form="initial" glyph-name="behini" unicode="ب" d="M-8 0v111h39q30 0 51 9.5t21 40.5v252h120v-252q0 -85 -50 -123t-141 -38h-40zM83 -239q-30 0 -51 21t-21 50q0 31 21 52t51 21q29 0 50.5 -21t21.5 -52q0 -29 -21.5 -50t-50.5 -21z"/>
<glyph horiz-adv-x="399" arabic-form="medial" glyph-name="behmedi" unicode="ب" d="M349 0q-49 0 -85 10.5t-66 24.5q-20 -17 -52 -26t-71 -9h-84v111h79q68 0 68 71v231h120v-239q0 -16 -3 -27t-6 -19q15 -8 37.5 -12.5t46.5 -4.5h74v-111h-58zM194 -239q-30 0 -51 21t-21 50q0 31 21 52t51 21q29 0 50.5 -21t21.5 -52q0 -29 -21.5 -50t-50.5 -21z"/>
<glyph horiz-adv-x="559" arabic-form="final" glyph-name="tehmarboutafina" unicode="ة" d="M358 298q-9 2 -26.5 5.5t-42.5 3.5q-63 0 -93 -27t-30 -70q0 -47 31 -73t85 -26h76v187zM568 0h-286q-45 0 -87 12.5t-74.5 38t-51.5 65t-19 94.5q0 43 15.5 80t46 64.5t75 43.5t102.5 16q16 0 41 -3t52 -7.5t52.5 -11.5t43.5 -14v-267h90v-111zM374 487q-30 0 -51 21 t-21 50q0 31 21 52t51 21q29 0 50.5 -21t21.5 -52q0 -29 -21.5 -50t-50.5 -21zM194 487q-30 0 -51 21t-21 50q0 31 21 52t51 21q29 0 50.5 -21t21.5 -52q0 -29 -21.5 -50t-50.5 -21z"/>
<glyph horiz-adv-x="902" arabic-form="final" glyph-name="tafina" unicode="ت" d="M853 0q-49 0 -85 10.5t-66 24.5q-20 -17 -52 -26t-71 -9h-338q-91 0 -141 38t-50 123v252h120v-252q0 -31 21 -40.5t51 -9.5h332q68 0 68 71v231h120v-239q0 -16 -3 -27t-6 -19q15 -8 37.5 -12.5t46.5 -4.5h74v-111h-58zM506 488q-30 0 -51 21t-21 50q0 31 21 52t51 21 q29 0 50.5 -21t21.5 -52q0 -29 -21.5 -50t-50.5 -21zM326 488q-30 0 -51 21t-21 50q0 31 21 52t51 21q29 0 50.5 -21t21.5 -52q0 -29 -21.5 -50t-50.5 -21z"/>
<glyph horiz-adv-x="303" arabic-form="initial" glyph-name="taini" unicode="ت" d="M-8 0v111h39q30 0 51 9.5t21 40.5v252h120v-252q0 -85 -50 -123t-141 -38h-40zM239 488q-30 0 -51 21t-21 50q0 31 21 52t51 21q29 0 50.5 -21t21.5 -52q0 -29 -21.5 -50t-50.5 -21zM59 488q-30 0 -51 21t-21 50q0 31 21 52t51 21q29 0 50.5 -21t21.5 -52 q0 -29 -21.5 -50t-50.5 -21z"/>
<glyph horiz-adv-x="399" arabic-form="medial" glyph-name="tamedi" unicode="ت" d="M349 0q-49 0 -85 10.5t-66 24.5q-20 -17 -52 -26t-71 -9h-84v111h79q68 0 68 71v231h120v-239q0 -16 -3 -27t-6 -19q15 -8 37.5 -12.5t46.5 -4.5h74v-111h-58zM283 488q-30 0 -51 21t-21 50q0 31 21 52t51 21q29 0 50.5 -21t21.5 -52q0 -29 -21.5 -50t-50.5 -21zM103 488 q-30 0 -51 21t-21 50q0 31 21 52t51 21q29 0 50.5 -21t21.5 -52q0 -29 -21.5 -50t-50.5 -21z"/>
<glyph horiz-adv-x="902" arabic-form="final" glyph-name="thafina" unicode="ث" d="M853 0q-49 0 -85 10.5t-66 24.5q-20 -17 -52 -26t-71 -9h-338q-91 0 -141 38t-50 123v252h120v-252q0 -31 21 -40.5t51 -9.5h332q68 0 68 71v231h120v-239q0 -16 -3 -27t-6 -19q15 -8 37.5 -12.5t46.5 -4.5h74v-111h-58zM402 628q-30 0 -51 21t-21 50q0 31 21 52t51 21 q29 0 50.5 -21t21.5 -52q0 -29 -21.5 -50t-50.5 -21zM488 465q-30 0 -51 21t-21 50q0 31 21 52t51 21q29 0 50.5 -21t21.5 -52q0 -29 -21.5 -50t-50.5 -21zM308 465q-30 0 -51 21t-21 50q0 31 21 52t51 21q29 0 50.5 -21t21.5 -52q0 -29 -21.5 -50t-50.5 -21z"/>
<glyph horiz-adv-x="303" arabic-form="initial" glyph-name="thaini" unicode="ث" d="M-8 0v111h39q30 0 51 9.5t21 40.5v252h120v-252q0 -85 -50 -123t-141 -38h-40zM161 628q-30 0 -51 21t-21 50q0 31 21 52t51 21q29 0 50.5 -21t21.5 -52q0 -29 -21.5 -50t-50.5 -21zM247 465q-30 0 -51 21t-21 50q0 31 21 52t51 21q29 0 50.5 -21t21.5 -52 q0 -29 -21.5 -50t-50.5 -21zM67 465q-30 0 -51 21t-21 50q0 31 21 52t51 21q29 0 50.5 -21t21.5 -52q0 -29 -21.5 -50t-50.5 -21z"/>
<glyph horiz-adv-x="399" arabic-form="medial" glyph-name="thamedi" unicode="ث" d="M349 0q-49 0 -85 10.5t-66 24.5q-20 -17 -52 -26t-71 -9h-84v111h79q68 0 68 71v231h120v-239q0 -16 -3 -27t-6 -19q15 -8 37.5 -12.5t46.5 -4.5h74v-111h-58zM193 628q-30 0 -51 21t-21 50q0 31 21 52t51 21q29 0 50.5 -21t21.5 -52q0 -29 -21.5 -50t-50.5 -21zM279 465 q-30 0 -51 21t-21 50q0 31 21 52t51 21q29 0 50.5 -21t21.5 -52q0 -29 -21.5 -50t-50.5 -21zM99 465q-30 0 -51 21t-21 50q0 31 21 52t51 21q29 0 50.5 -21t21.5 -52q0 -29 -21.5 -50t-50.5 -21z"/>
<glyph horiz-adv-x="621" arabic-form="final" glyph-name="jeemfina" unicode="ج" d="M630 0h-350q-45 0 -74.5 -14.5t-29.5 -35.5t25.5 -33.5t64.5 -12.5h92v-121h-95q-46 0 -83.5 11.5t-64 33.5t-41 53t-14.5 69q0 72 57 116.5t159 44.5h146v127q0 19 -6.5 31.5t-17 19t-24 9t-26.5 2.5h-63q-14 0 -31 -1.5t-35.5 -4.5t-36 -7.5t-32.5 -10.5v108 q29 14 69.5 21.5t74.5 7.5h63q42 0 76 -9t58 -28.5t37 -51t13 -75.5v-138h89v-111zM480 -239q-30 0 -51 21t-21 50q0 31 21 52t51 21q29 0 50.5 -21t21.5 -52q0 -29 -21.5 -50t-50.5 -21z"/>
<glyph horiz-adv-x="510" arabic-form="initial" glyph-name="jeemini" unicode="ج" d="M-9 111h340v127q0 19 -6.5 31.5t-17 19t-24 9t-26.5 2.5h-63q-14 0 -31 -1.5t-35.5 -4.5t-36 -7.5t-32.5 -10.5v108q29 14 69.5 21.5t74.5 7.5h63q42 0 76 -9t58 -28.5t37 -51t13 -75.5v-249h-459v111zM230 -239q-30 0 -51 21t-21 50q0 31 21 52t51 21q29 0 50.5 -21 t21.5 -52q0 -29 -21.5 -50t-50.5 -21z"/>
<glyph horiz-adv-x="530" arabic-form="medial" glyph-name="jeemmedi" unicode="ج" d="M-9 111h340v127q0 19 -6.5 31.5t-17 19t-24 9t-26.5 2.5h-63q-14 0 -31 -1.5t-35.5 -4.5t-36 -7.5t-32.5 -10.5v108q29 14 69.5 21.5t74.5 7.5h63q42 0 76 -9t58 -28.5t37 -51t13 -75.5v-138h89v-111h-548v111zM269 -239q-30 0 -51 21t-21 50q0 31 21 52t51 21 q29 0 50.5 -21t21.5 -52q0 -29 -21.5 -50t-50.5 -21z"/>
<glyph horiz-adv-x="621" arabic-form="final" glyph-name="haafina" unicode="ح" d="M630 0h-350q-45 0 -74.5 -14.5t-29.5 -35.5t25.5 -33.5t64.5 -12.5h92v-121h-95q-46 0 -83.5 11.5t-64 33.5t-41 53t-14.5 69q0 72 57 116.5t159 44.5h146v127q0 19 -6.5 31.5t-17 19t-24 9t-26.5 2.5h-63q-14 0 -31 -1.5t-35.5 -4.5t-36 -7.5t-32.5 -10.5v108 q29 14 69.5 21.5t74.5 7.5h63q42 0 76 -9t58 -28.5t37 -51t13 -75.5v-138h89v-111z"/>
<glyph horiz-adv-x="510" arabic-form="initial" glyph-name="haaini" unicode="ح" d="M-9 111h340v127q0 19 -6.5 31.5t-17 19t-24 9t-26.5 2.5h-63q-14 0 -31 -1.5t-35.5 -4.5t-36 -7.5t-32.5 -10.5v108q29 14 69.5 21.5t74.5 7.5h63q42 0 76 -9t58 -28.5t37 -51t13 -75.5v-249h-459v111z"/>
<glyph horiz-adv-x="530" arabic-form="medial" glyph-name="haamedi" unicode="ح" d="M-9 111h340v127q0 19 -6.5 31.5t-17 19t-24 9t-26.5 2.5h-63q-14 0 -31 -1.5t-35.5 -4.5t-36 -7.5t-32.5 -10.5v108q29 14 69.5 21.5t74.5 7.5h63q42 0 76 -9t58 -28.5t37 -51t13 -75.5v-138h89v-111h-548v111z"/>
<glyph horiz-adv-x="621" arabic-form="final" glyph-name="khafina" unicode="خ" d="M630 0h-350q-45 0 -74.5 -14.5t-29.5 -35.5t25.5 -33.5t64.5 -12.5h92v-121h-95q-46 0 -83.5 11.5t-64 33.5t-41 53t-14.5 69q0 72 57 116.5t159 44.5h146v127q0 19 -6.5 31.5t-17 19t-24 9t-26.5 2.5h-63q-14 0 -31 -1.5t-35.5 -4.5t-36 -7.5t-32.5 -10.5v108 q29 14 69.5 21.5t74.5 7.5h63q42 0 76 -9t58 -28.5t37 -51t13 -75.5v-138h89v-111zM317 488q-30 0 -51 21t-21 50q0 31 21 52t51 21q29 0 50.5 -21t21.5 -52q0 -29 -21.5 -50t-50.5 -21z"/>
<glyph horiz-adv-x="510" arabic-form="initial" glyph-name="khaini" unicode="خ" d="M-9 111h340v127q0 19 -6.5 31.5t-17 19t-24 9t-26.5 2.5h-63q-14 0 -31 -1.5t-35.5 -4.5t-36 -7.5t-32.5 -10.5v108q29 14 69.5 21.5t74.5 7.5h63q42 0 76 -9t58 -28.5t37 -51t13 -75.5v-249h-459v111zM227 488q-30 0 -51 21t-21 50q0 31 21 52t51 21q29 0 50.5 -21 t21.5 -52q0 -29 -21.5 -50t-50.5 -21z"/>
<glyph horiz-adv-x="530" arabic-form="medial" glyph-name="khamedi" unicode="خ" d="M-9 111h340v127q0 19 -6.5 31.5t-17 19t-24 9t-26.5 2.5h-63q-14 0 -31 -1.5t-35.5 -4.5t-36 -7.5t-32.5 -10.5v108q29 14 69.5 21.5t74.5 7.5h63q42 0 76 -9t58 -28.5t37 -51t13 -75.5v-138h89v-111h-548v111zM242 488q-30 0 -51 21t-21 50q0 31 21 52t51 21 q29 0 50.5 -21t21.5 -52q0 -29 -21.5 -50t-50.5 -21z"/>
<glyph horiz-adv-x="493" arabic-form="final" glyph-name="dalfina" unicode="د" d="M40 111h268v127q0 19 -6.5 31.5t-17 19t-24 9t-26.5 2.5h-25q-14 0 -31 -1.5t-35.5 -4.5t-36 -7.5t-32.5 -10.5v108q29 14 69.5 21.5t74.5 7.5h25q42 0 76 -9t58 -28.5t37 -51t13 -75.5v-138h75v-111h-462v111z"/>
<glyph horiz-adv-x="493" arabic-form="final" glyph-name="zalfina" unicode="ذ" d="M40 111h268v127q0 19 -6.5 31.5t-17 19t-24 9t-26.5 2.5h-25q-14 0 -31 -1.5t-35.5 -4.5t-36 -7.5t-32.5 -10.5v108q29 14 69.5 21.5t74.5 7.5h25q42 0 76 -9t58 -28.5t37 -51t13 -75.5v-138h75v-111h-462v111zM239 488q-30 0 -51 21t-21 50q0 31 21 52t51 21 q29 0 50.5 -21t21.5 -52q0 -29 -21.5 -50t-50.5 -21z"/>
<glyph horiz-adv-x="338" arabic-form="final" glyph-name="rafina" unicode="ر" d="M138 413h120v-302h89v-111h-89v-68q0 -77 -45 -113t-116 -36q-23 0 -44 4.5t-38 10.5v101q17 -6 34 -10t31 -4q27 0 42.5 13.5t15.5 51.5v463z"/>
<glyph horiz-adv-x="338" arabic-form="final" glyph-name="zafina" unicode="ز" d="M138 413h120v-302h89v-111h-89v-68q0 -77 -45 -113t-116 -36q-23 0 -44 4.5t-38 10.5v101q17 -6 34 -10t31 -4q27 0 42.5 13.5t15.5 51.5v463zM192 488q-30 0 -51 21t-21 50q0 31 21 52t51 21q29 0 50.5 -21t21.5 -52q0 -29 -21.5 -50t-50.5 -21z"/>
<glyph horiz-adv-x="1304" arabic-form="final" glyph-name="seenfina" unicode="س" d="M992 0q-49 0 -85 10.5t-66 24.5q-20 -17 -52 -26t-71 -9q-41 0 -81 6v-153q-26 -6 -61.5 -12t-72.5 -10.5t-71.5 -7.5t-58.5 -3q-53 0 -105 10t-94 34.5t-68 67t-26 108.5v145h122v-140q0 -33 16 -54t40.5 -32.5t55 -16t59.5 -4.5h32.5t39.5 1t39.5 1.5t32.5 2.5v470h120 v-294q32 -13 75 -13q68 0 68 71v236h121v-244q0 -16 -3 -27t-6 -19q15 -8 37.5 -12.5t46.5 -4.5q35 0 51.5 20.5t16.5 55.5v231h120v-239q0 -16 -3 -27t-6 -19q15 -8 37.5 -12.5t46.5 -4.5h74v-111h-58q-49 0 -85 10.5t-66 24.5q-18 -15 -47.5 -24t-64.5 -11z"/>
<glyph horiz-adv-x="830" arabic-form="initial" glyph-name="seenini" unicode="س" d="M-9 0v111h39q30 0 51 9.5t21 40.5v252h120v-252q0 -22 -3 -40q16 -7 36.5 -11t41.5 -4q68 0 68 71v236h121v-244q0 -16 -3 -27t-6 -19q15 -8 37.5 -12.5t46.5 -4.5q68 0 68 71v236h121v-241q0 -49 -12 -82t-34.5 -53t-54.5 -28.5t-72 -8.5q-49 0 -85 10.5t-66 24.5 q-20 -17 -52 -26t-71 -9q-77 0 -155 23q-23 -12 -52.5 -17.5t-64.5 -5.5h-40z"/>
<glyph horiz-adv-x="889" arabic-form="medial" glyph-name="seenmedi" unicode="س" d="M577 0q-49 0 -85 10.5t-66 24.5q-20 -17 -52 -26t-71 -9q-77 0 -155 23q-23 -12 -52.5 -17.5t-64.5 -5.5h-40v111h39q30 0 51 9.5t21 40.5v252h120v-252q0 -22 -3 -40q16 -7 36.5 -11t41.5 -4q68 0 68 71v236h121v-244q0 -16 -3 -27t-6 -19q15 -8 37.5 -12.5t46.5 -4.5 q35 0 51.5 20.5t16.5 55.5v231h120v-239q0 -16 -3 -27t-6 -19q15 -8 37.5 -12.5t46.5 -4.5h74v-111h-58q-49 0 -85 10.5t-66 24.5q-18 -15 -47.5 -24t-64.5 -11z"/>
<glyph horiz-adv-x="1304" arabic-form="final" glyph-name="sheenfina" unicode="ش" d="M992 0q-49 0 -85 10.5t-66 24.5q-20 -17 -52 -26t-71 -9q-41 0 -81 6v-153q-26 -6 -61.5 -12t-72.5 -10.5t-71.5 -7.5t-58.5 -3q-53 0 -105 10t-94 34.5t-68 67t-26 108.5v145h122v-140q0 -33 16 -54t40.5 -32.5t55 -16t59.5 -4.5h32.5t39.5 1t39.5 1.5t32.5 2.5v470h120 v-294q32 -13 75 -13q68 0 68 71v236h121v-244q0 -16 -3 -27t-6 -19q15 -8 37.5 -12.5t46.5 -4.5q35 0 51.5 20.5t16.5 55.5v231h120v-239q0 -16 -3 -27t-6 -19q15 -8 37.5 -12.5t46.5 -4.5h74v-111h-58q-49 0 -85 10.5t-66 24.5q-18 -15 -47.5 -24t-64.5 -11zM837 628 q-30 0 -51 21t-21 50q0 31 21 52t51 21q29 0 50.5 -21t21.5 -52q0 -29 -21.5 -50t-50.5 -21zM923 465q-30 0 -51 21t-21 50q0 31 21 52t51 21q29 0 50.5 -21t21.5 -52q0 -29 -21.5 -50t-50.5 -21zM743 465q-30 0 -51 21t-21 50q0 31 21 52t51 21q29 0 50.5 -21t21.5 -52 q0 -29 -21.5 -50t-50.5 -21z"/>
<glyph horiz-adv-x="830" arabic-form="initial" glyph-name="sheenini" unicode="ش" d="M-9 0v111h39q30 0 51 9.5t21 40.5v252h120v-252q0 -22 -3 -40q16 -7 36.5 -11t41.5 -4q68 0 68 71v236h121v-244q0 -16 -3 -27t-6 -19q15 -8 37.5 -12.5t46.5 -4.5q68 0 68 71v236h121v-241q0 -49 -12 -82t-34.5 -53t-54.5 -28.5t-72 -8.5q-49 0 -85 10.5t-66 24.5 q-20 -17 -52 -26t-71 -9q-77 0 -155 23q-23 -12 -52.5 -17.5t-64.5 -5.5h-40zM427 628q-30 0 -51 21t-21 50q0 31 21 52t51 21q29 0 50.5 -21t21.5 -52q0 -29 -21.5 -50t-50.5 -21zM513 465q-30 0 -51 21t-21 50q0 31 21 52t51 21q29 0 50.5 -21t21.5 -52q0 -29 -21.5 -50 t-50.5 -21zM333 465q-30 0 -51 21t-21 50q0 31 21 52t51 21q29 0 50.5 -21t21.5 -52q0 -29 -21.5 -50t-50.5 -21z"/>
<glyph horiz-adv-x="889" arabic-form="medial" glyph-name="sheenmedi" unicode="ش" d="M577 0q-49 0 -85 10.5t-66 24.5q-20 -17 -52 -26t-71 -9q-77 0 -155 23q-23 -12 -52.5 -17.5t-64.5 -5.5h-40v111h39q30 0 51 9.5t21 40.5v252h120v-252q0 -22 -3 -40q16 -7 36.5 -11t41.5 -4q68 0 68 71v236h121v-244q0 -16 -3 -27t-6 -19q15 -8 37.5 -12.5t46.5 -4.5 q35 0 51.5 20.5t16.5 55.5v231h120v-239q0 -16 -3 -27t-6 -19q15 -8 37.5 -12.5t46.5 -4.5h74v-111h-58q-49 0 -85 10.5t-66 24.5q-18 -15 -47.5 -24t-64.5 -11zM428 628q-30 0 -51 21t-21 50q0 31 21 52t51 21q29 0 50.5 -21t21.5 -52q0 -29 -21.5 -50t-50.5 -21zM514 465 q-30 0 -51 21t-21 50q0 31 21 52t51 21q29 0 50.5 -21t21.5 -52q0 -29 -21.5 -50t-50.5 -21zM334 465q-30 0 -51 21t-21 50q0 31 21 52t51 21q29 0 50.5 -21t21.5 -52q0 -29 -21.5 -50t-50.5 -21z"/>
<glyph horiz-adv-x="1132" arabic-form="final" glyph-name="sadfina" unicode="ص" d="M940 111v82q0 23 -3 42.5t-11.5 34t-23 22.5t-37.5 8q-25 0 -59 -7t-69 -25.5t-67 -51t-53 -84.5v-21h323zM1141 0h-524v-147q-26 -6 -61.5 -12t-72.5 -10.5t-71.5 -7.5t-58.5 -3q-53 0 -105 10t-94 34.5t-68 67t-26 108.5v145h122v-140q0 -33 16 -54t40.5 -32.5t55 -16 t59.5 -4.5h32.5t39.5 1t39.5 1.5t32.5 2.5v443h116v-60q21 20 52 36t66 27.5t71 17.5t68 6q49 0 84 -10.5t57.5 -35t33.5 -64.5t11 -99v-93h85v-111z"/>
<glyph horiz-adv-x="726" arabic-form="initial" glyph-name="sadini" unicode="ص" d="M530 111v82q0 23 -3 42.5t-11.5 34t-23 22.5t-37.5 8q-26 0 -60.5 -7.5t-70.5 -27t-68.5 -54.5t-52.5 -90v-10h327zM646 0h-655v111h96v275h116v-60q21 20 52 36t66 27.5t71 17.5t68 6q49 0 84 -10.5t57.5 -35t33.5 -64.5t11 -99v-204z"/>
<glyph horiz-adv-x="721" arabic-form="medial" glyph-name="sadmedi" unicode="ص" d="M530 111v82q0 23 -3 42.5t-11.5 34t-23 22.5t-37.5 8q-26 0 -60.5 -7.5t-70.5 -27t-68.5 -54.5t-52.5 -90v-10h327zM730 0h-739v111h96v275h116v-60q21 20 52 36t66 27.5t71 17.5t68 6q49 0 84 -10.5t57.5 -35t33.5 -64.5t11 -99v-93h84v-111z"/>
<glyph horiz-adv-x="1132" arabic-form="final" glyph-name="dadfina" unicode="ض" d="M940 111v82q0 23 -3 42.5t-11.5 34t-23 22.5t-37.5 8q-25 0 -59 -7t-69 -25.5t-67 -51t-53 -84.5v-21h323zM1141 0h-524v-147q-26 -6 -61.5 -12t-72.5 -10.5t-71.5 -7.5t-58.5 -3q-53 0 -105 10t-94 34.5t-68 67t-26 108.5v145h122v-140q0 -33 16 -54t40.5 -32.5t55 -16 t59.5 -4.5h32.5t39.5 1t39.5 1.5t32.5 2.5v443h116v-60q21 20 52 36t66 27.5t71 17.5t68 6q49 0 84 -10.5t57.5 -35t33.5 -64.5t11 -99v-93h85v-111zM774 488q-30 0 -51 21t-21 50q0 31 21 52t51 21q29 0 50.5 -21t21.5 -52q0 -29 -21.5 -50t-50.5 -21z"/>
<glyph horiz-adv-x="726" arabic-form="initial" glyph-name="dadini" unicode="ض" d="M530 111v82q0 23 -3 42.5t-11.5 34t-23 22.5t-37.5 8q-26 0 -60.5 -7.5t-70.5 -27t-68.5 -54.5t-52.5 -90v-10h327zM646 0h-655v111h96v275h116v-60q21 20 52 36t66 27.5t71 17.5t68 6q49 0 84 -10.5t57.5 -35t33.5 -64.5t11 -99v-204zM390 488q-30 0 -51 21t-21 50 q0 31 21 52t51 21q29 0 50.5 -21t21.5 -52q0 -29 -21.5 -50t-50.5 -21z"/>
<glyph horiz-adv-x="721" arabic-form="medial" glyph-name="dadmedi" unicode="ض" d="M530 111v82q0 23 -3 42.5t-11.5 34t-23 22.5t-37.5 8q-26 0 -60.5 -7.5t-70.5 -27t-68.5 -54.5t-52.5 -90v-10h327zM730 0h-739v111h96v275h116v-60q21 20 52 36t66 27.5t71 17.5t68 6q49 0 84 -10.5t57.5 -35t33.5 -64.5t11 -99v-93h84v-111zM380 488q-30 0 -51 21 t-21 50q0 31 21 52t51 21q29 0 50.5 -21t21.5 -52q0 -29 -21.5 -50t-50.5 -21z"/>
<glyph horiz-adv-x="780" arabic-form="final" glyph-name="tahfina" unicode="ط" d="M589 111v82q0 23 -3 42.5t-11.5 34t-23 22.5t-37.5 8q-26 0 -60.5 -7.5t-70.5 -27t-68.5 -54.5t-52.5 -90v-10h327zM789 0h-739v111h96v569h116v-354q21 20 52 36t66 27.5t71 17.5t68 6q49 0 84 -10.5t57.5 -35t33.5 -64.5t11 -99v-93h84v-111z"/>
<glyph horiz-adv-x="726" arabic-form="initial" glyph-name="tahini" unicode="ط" d="M530 111v82q0 23 -3 42.5t-11.5 34t-23 22.5t-37.5 8q-26 0 -60.5 -7.5t-70.5 -27t-68.5 -54.5t-52.5 -90v-10h327zM87 111v569h116v-354q21 20 52 36t66 27.5t71 17.5t68 6q49 0 84 -10.5t57.5 -35t33.5 -64.5t11 -99v-204h-655v111h96z"/>
<glyph horiz-adv-x="721" arabic-form="medial" glyph-name="tahmedi" unicode="ط" d="M530 111v82q0 23 -3 42.5t-11.5 34t-23 22.5t-37.5 8q-26 0 -60.5 -7.5t-70.5 -27t-68.5 -54.5t-52.5 -90v-10h327zM730 0h-739v111h96v569h116v-354q21 20 52 36t66 27.5t71 17.5t68 6q49 0 84 -10.5t57.5 -35t33.5 -64.5t11 -99v-93h84v-111z"/>
<glyph horiz-adv-x="780" arabic-form="final" glyph-name="zadfina" unicode="ظ" d="M589 111v82q0 23 -3 42.5t-11.5 34t-23 22.5t-37.5 8q-26 0 -60.5 -7.5t-70.5 -27t-68.5 -54.5t-52.5 -90v-10h327zM789 0h-739v111h96v569h116v-354q21 20 52 36t66 27.5t71 17.5t68 6q49 0 84 -10.5t57.5 -35t33.5 -64.5t11 -99v-93h84v-111zM461 488q-30 0 -51 21 t-21 50q0 31 21 52t51 21q29 0 50.5 -21t21.5 -52q0 -29 -21.5 -50t-50.5 -21z"/>
<glyph horiz-adv-x="726" arabic-form="initial" glyph-name="zadini" unicode="ظ" d="M530 111v82q0 23 -3 42.5t-11.5 34t-23 22.5t-37.5 8q-26 0 -60.5 -7.5t-70.5 -27t-68.5 -54.5t-52.5 -90v-10h327zM87 111v569h116v-354q21 20 52 36t66 27.5t71 17.5t68 6q49 0 84 -10.5t57.5 -35t33.5 -64.5t11 -99v-204h-655v111h96zM402 488q-30 0 -51 21t-21 50 q0 31 21 52t51 21q29 0 50.5 -21t21.5 -52q0 -29 -21.5 -50t-50.5 -21z"/>
<glyph horiz-adv-x="721" arabic-form="medial" glyph-name="zadmedi" unicode="ظ" d="M530 111v82q0 23 -3 42.5t-11.5 34t-23 22.5t-37.5 8q-26 0 -60.5 -7.5t-70.5 -27t-68.5 -54.5t-52.5 -90v-10h327zM730 0h-739v111h96v569h116v-354q21 20 52 36t66 27.5t71 17.5t68 6q49 0 84 -10.5t57.5 -35t33.5 -64.5t11 -99v-93h84v-111zM406 488q-30 0 -51 21 t-21 50q0 31 21 52t51 21q29 0 50.5 -21t21.5 -52q0 -29 -21.5 -50t-50.5 -21z"/>
<glyph horiz-adv-x="682" arabic-form="final" glyph-name="aynfina" unicode="ع" d="M245 111q-29 34 -52.5 72t-23.5 69q0 49 24.5 81.5t60.5 52t77.5 27t75.5 7.5q49 0 92 -10.5t75 -31.5t51 -52.5t19 -73.5q0 -15 -7 -32.5t-18 -36t-25 -37t-28 -35.5h125v-111h-411q-45 0 -74.5 -14.5t-29.5 -35.5t25.5 -33.5t64.5 -12.5h92v-121h-95q-46 0 -83.5 11.5 t-64 33.5t-41 53t-14.5 69q0 66 49 109.5t136 51.5zM407 315q-33 0 -57.5 -6.5t-40.5 -16t-24 -20.5t-8 -20q0 -12 12.5 -30.5t32 -38t42.5 -38.5t43 -34q20 15 41 34t38.5 38.5t28.5 38t11 30.5q0 9 -6 20t-20.5 20.5t-37 16t-55.5 6.5z"/>
<glyph horiz-adv-x="508" arabic-form="initial" glyph-name="aynini" unicode="ع" d="M321 313q-43 0 -74 -30.5t-31 -84.5q0 -18 8.5 -42.5t25.5 -44.5h208v-111h-467v111h124q-8 25 -12 49t-4 41q0 52 16 93t44.5 68.5t66.5 42t82 14.5q38 0 68 -8t59 -25v-114q-28 23 -55.5 32t-58.5 9z"/>
<glyph horiz-adv-x="544" arabic-form="medial" glyph-name="aynmidi" unicode="ع" d="M506 252q0 -15 -7 -32.5t-18 -36t-25 -37t-28 -35.5h125v-111h-562v111h116q-29 34 -52.5 72t-23.5 69q0 49 24.5 81.5t60.5 52t77.5 27t75.5 7.5q49 0 92 -10.5t75 -31.5t51 -52.5t19 -73.5zM269 315q-33 0 -57.5 -6.5t-40.5 -16t-24 -20.5t-8 -20q0 -12 12.5 -30.5 t32 -38t42.5 -38.5t43 -34q20 15 41 34t38.5 38.5t28.5 38t11 30.5q0 9 -6 20t-20.5 20.5t-37 16t-55.5 6.5z"/>
<glyph horiz-adv-x="682" arabic-form="final" glyph-name="ghafina" unicode="غ" d="M245 111q-29 34 -52.5 72t-23.5 69q0 49 24.5 81.5t60.5 52t77.5 27t75.5 7.5q49 0 92 -10.5t75 -31.5t51 -52.5t19 -73.5q0 -15 -7 -32.5t-18 -36t-25 -37t-28 -35.5h125v-111h-411q-45 0 -74.5 -14.5t-29.5 -35.5t25.5 -33.5t64.5 -12.5h92v-121h-95q-46 0 -83.5 11.5 t-64 33.5t-41 53t-14.5 69q0 66 49 109.5t136 51.5zM407 315q-33 0 -57.5 -6.5t-40.5 -16t-24 -20.5t-8 -20q0 -12 12.5 -30.5t32 -38t42.5 -38.5t43 -34q20 15 41 34t38.5 38.5t28.5 38t11 30.5q0 9 -6 20t-20.5 20.5t-37 16t-55.5 6.5zM409 488q-30 0 -51 21t-21 50 q0 31 21 52t51 21q29 0 50.5 -21t21.5 -52q0 -29 -21.5 -50t-50.5 -21z"/>
<glyph horiz-adv-x="508" arabic-form="initial" glyph-name="ghaini" unicode="غ" d="M321 313q-43 0 -74 -30.5t-31 -84.5q0 -18 8.5 -42.5t25.5 -44.5h208v-111h-467v111h124q-8 25 -12 49t-4 41q0 52 16 93t44.5 68.5t66.5 42t82 14.5q38 0 68 -8t59 -25v-114q-28 23 -55.5 32t-58.5 9zM292 488q-30 0 -51 21t-21 50q0 31 21 52t51 21q29 0 50.5 -21 t21.5 -52q0 -29 -21.5 -50t-50.5 -21z"/>
<glyph horiz-adv-x="544" arabic-form="medial" glyph-name="ghamedi" unicode="غ" d="M506 252q0 -15 -7 -32.5t-18 -36t-25 -37t-28 -35.5h125v-111h-562v111h116q-29 34 -52.5 72t-23.5 69q0 49 24.5 81.5t60.5 52t77.5 27t75.5 7.5q49 0 92 -10.5t75 -31.5t51 -52.5t19 -73.5zM269 315q-33 0 -57.5 -6.5t-40.5 -16t-24 -20.5t-8 -20q0 -12 12.5 -30.5 t32 -38t42.5 -38.5t43 -34q20 15 41 34t38.5 38.5t28.5 38t11 30.5q0 9 -6 20t-20.5 20.5t-37 16t-55.5 6.5zM266 488q-30 0 -51 21t-21 50q0 31 21 52t51 21q29 0 50.5 -21t21.5 -52q0 -29 -21.5 -50t-50.5 -21z"/>
<glyph horiz-adv-x="956" arabic-form="final" glyph-name="fafina" unicode="ف" d="M779 298q-9 2 -26.5 5.5t-42.5 3.5q-63 0 -93 -27t-30 -70q0 -47 31 -73t85 -26h76v187zM70 161v184h120v-184q0 -31 21 -40.5t51 -9.5h230q-10 20 -15.5 45t-5.5 54q0 43 15.5 80t46 64.5t75 43.5t102.5 16q16 0 41 -3t52 -7.5t52.5 -11.5t43.5 -14v-267h66v-111h-704 q-91 0 -141 38t-50 123zM692 488q-30 0 -51 21t-21 50q0 31 21 52t51 21q29 0 50.5 -21t21.5 -52q0 -29 -21.5 -50t-50.5 -21z"/>
<glyph horiz-adv-x="586" arabic-form="initial" glyph-name="faini" unicode="ف" d="M386 298q-9 2 -26.5 5.5t-42.5 3.5q-63 0 -93 -27t-30 -70q0 -47 31 -73t85 -26h76v187zM-9 111h108q-10 20 -15.5 45t-5.5 54q0 43 15.5 80t46 64.5t75 43.5t102.5 16q16 0 41 -3t52 -7.5t52.5 -11.5t43.5 -14v-378h-515v111zM303 488q-30 0 -51 21t-21 50q0 31 21 52 t51 21q29 0 50.5 -21t21.5 -52q0 -29 -21.5 -50t-50.5 -21z"/>
<glyph horiz-adv-x="587" arabic-form="medial" glyph-name="famedi" unicode="ف" d="M386 298q-9 2 -26.5 5.5t-42.5 3.5q-63 0 -93 -27t-30 -70q0 -46 29.5 -71.5t80.5 -27.5h82v187zM-9 111h108q-10 20 -15.5 45t-5.5 54q0 43 15.5 80t46 64.5t75 43.5t102.5 16q16 0 41 -3t52 -7.5t52.5 -11.5t43.5 -14v-267h90v-111h-286h-9h-310v111zM303 488 q-30 0 -51 21t-21 50q0 31 21 52t51 21q29 0 50.5 -21t21.5 -52q0 -29 -21.5 -50t-50.5 -21z"/>
<glyph horiz-adv-x="835" arabic-form="final" glyph-name="kaaffina" unicode="ق" d="M650 488q-30 0 -51 21t-21 50q0 31 21 52t51 21q29 0 50.5 -21t21.5 -52q0 -29 -21.5 -50t-50.5 -21zM470 488q-30 0 -51 21t-21 50q0 31 21 52t51 21q29 0 50.5 -21t21.5 -52q0 -29 -21.5 -50t-50.5 -21zM634 298q-9 2 -26.5 5.5t-42.5 3.5q-63 0 -93 -27t-30 -70 q0 -47 31 -73t85 -26h76v187zM754 -163q-17 -4 -45 -8t-60.5 -7.5t-67.5 -7t-67.5 -5.5t-59 -3.5t-42.5 -1.5q-35 0 -74 4t-77 14t-72.5 26.5t-61 41t-42 57.5t-15.5 77v248h122v-243q0 -33 23.5 -54t57.5 -32.5t72 -16t67 -4.5h44.5t66.5 1t66.5 1.5t44.5 2.5v73h-76 q-45 0 -87 12.5t-74.5 38t-51.5 65t-19 94.5q0 43 15.5 80t46 64.5t75 43.5t102.5 16q16 0 41 -3t52 -7.5t52.5 -11.5t43.5 -14v-267h90v-111h-90v-163z"/>
<glyph horiz-adv-x="586" arabic-form="initial" glyph-name="kaafini" unicode="ق" d="M386 298q-9 2 -26.5 5.5t-42.5 3.5q-63 0 -93 -27t-30 -70q0 -47 31 -73t85 -26h76v187zM-9 111h108q-10 20 -15.5 45t-5.5 54q0 43 15.5 80t46 64.5t75 43.5t102.5 16q16 0 41 -3t52 -7.5t52.5 -11.5t43.5 -14v-378h-515v111zM401 488q-30 0 -51 21t-21 50q0 31 21 52 t51 21q29 0 50.5 -21t21.5 -52q0 -29 -21.5 -50t-50.5 -21zM221 488q-30 0 -51 21t-21 50q0 31 21 52t51 21q29 0 50.5 -21t21.5 -52q0 -29 -21.5 -50t-50.5 -21z"/>
<glyph horiz-adv-x="587" arabic-form="medial" glyph-name="kaafmedi" unicode="ق" d="M386 298q-9 2 -26.5 5.5t-42.5 3.5q-63 0 -93 -27t-30 -70q0 -46 29.5 -71.5t80.5 -27.5h82v187zM-9 111h108q-10 20 -15.5 45t-5.5 54q0 43 15.5 80t46 64.5t75 43.5t102.5 16q16 0 41 -3t52 -7.5t52.5 -11.5t43.5 -14v-267h90v-111h-286h-9h-310v111zM377 488 q-30 0 -51 21t-21 50q0 31 21 52t51 21q29 0 50.5 -21t21.5 -52q0 -29 -21.5 -50t-50.5 -21zM197 488q-30 0 -51 21t-21 50q0 31 21 52t51 21q29 0 50.5 -21t21.5 -52q0 -29 -21.5 -50t-50.5 -21z"/>
<glyph horiz-adv-x="729" arabic-form="final" glyph-name="kaffina" unicode="ك" d="M251 439h40q-3 7 -5 17.5t-2 16.5q0 25 8 43t21.5 29t31.5 16.5t37 5.5q16 0 31 -5t33 -16v-67q-9 6 -24.5 12.5t-30.5 7.5t-25.5 -4.5t-10.5 -23.5q0 -5 2.5 -15t7.5 -17h81v-63h-195v63zM738 111v-111h-192q-49 -5 -96.5 -8t-76.5 -3q-53 0 -105 10t-94 34.5t-68 67 t-26 108.5v145h122v-140q0 -33 16 -54t40.5 -32.5t55 -16t59.5 -4.5h35.5t47 1t47 1.5t35.5 2.5v568h120v-569h80z"/>
<glyph horiz-adv-x="712" arabic-form="final" glyph-name="lamfina" unicode="ل" d="M617 -147q-26 -6 -61.5 -12t-72.5 -10.5t-71.5 -7.5t-58.5 -3q-53 0 -105 10t-94 34.5t-68 67t-26 108.5v145h122v-140q0 -33 16 -54t40.5 -32.5t55 -16t59.5 -4.5h32.5t39.5 1t39.5 1.5t32.5 2.5v737h120v-569h104v-111h-104v-147z"/>
<glyph horiz-adv-x="303" arabic-form="initial" glyph-name="lamini" unicode="ل" d="M-8 0v111h39q30 0 51 9.5t21 40.5v519h120v-519q0 -85 -50 -123t-141 -38h-40z"/>
<glyph horiz-adv-x="398" arabic-form="medial" glyph-name="lammedi" unicode="ل" d="M349 0q-49 0 -85 10.5t-66 24.5q-20 -17 -52 -26t-71 -9h-84v111h79q68 0 68 71v498h120v-506q0 -16 -3 -27t-6 -19q15 -8 37.5 -12.5t46.5 -4.5h74v-111h-58z"/>
<glyph horiz-adv-x="705" arabic-form="final" glyph-name="meemfina" unicode="م" d="M427 294q-23 0 -36.5 -11t-13.5 -33l-1 -139h134v118q0 40 -18.5 52.5t-49.5 12.5h-15zM257 111v143q0 71 44 115t120 44h25q93 0 138.5 -42t45.5 -131v-129h84v-111h-464q-23 0 -36.5 -11.5t-13.5 -33.5l-1 -172h-119v169q0 71 44 115t120 44h13z"/>
<glyph horiz-adv-x="551" arabic-form="initial" glyph-name="meemini" unicode="م" d="M298 294q-23 0 -36.5 -11t-13.5 -33v-79q0 -17 7.5 -28t20 -18.5t28.5 -10.5t33 -3h44v118q0 40 -18.5 52.5t-49.5 12.5h-15zM317 413q93 0 138.5 -42t45.5 -131v-240h-161q-49 0 -87.5 9t-66.5 29q-55 -38 -150 -38h-45v111h48q17 0 33 3t28.5 10.5t20 18.5t7.5 28v83 q0 71 44 115t120 44h25z"/>
<glyph horiz-adv-x="590" arabic-form="medial" glyph-name="meemmedi" unicode="م" d="M298 294q-23 0 -36.5 -11t-13.5 -33v-79q0 -17 7.5 -28t20 -18.5t28.5 -10.5t33 -3h44v118q0 40 -18.5 52.5t-49.5 12.5h-15zM317 413q93 0 138.5 -42t45.5 -131v-129h98v-111h-259q-49 0 -87.5 9t-66.5 29q-55 -38 -150 -38h-45v111h48q17 0 33 3t28.5 10.5t20 18.5 t7.5 28v83q0 71 44 115t120 44h25z"/>
<glyph horiz-adv-x="718" arabic-form="final" glyph-name="nounfina" unicode="ن" d="M329 488q-30 0 -51 21t-21 50q0 31 21 52t51 21q29 0 50.5 -21t21.5 -52q0 -29 -21.5 -50t-50.5 -21zM617 -90q-26 -6 -61.5 -12t-72.5 -10.5t-71.5 -7.5t-58.5 -3q-53 0 -105 10t-94 34.5t-68 67t-26 108.5v248h122v-243q0 -33 16 -54t40.5 -32.5t55 -16t59.5 -4.5h32.5 t39.5 1t39.5 1.5t32.5 2.5v413h120v-302h110v-111h-110v-90z"/>
<glyph horiz-adv-x="303" arabic-form="initial" glyph-name="nounini" unicode="ن" d="M-8 0v111h39q30 0 51 9.5t21 40.5v252h120v-252q0 -85 -50 -123t-141 -38h-40zM161 488q-30 0 -51 21t-21 50q0 31 21 52t51 21q29 0 50.5 -21t21.5 -52q0 -29 -21.5 -50t-50.5 -21z"/>
<glyph horiz-adv-x="399" arabic-form="medial" glyph-name="nounmedi" unicode="ن" d="M349 0q-49 0 -85 10.5t-66 24.5q-20 -17 -52 -26t-71 -9h-84v111h79q68 0 68 71v231h120v-239q0 -16 -3 -27t-6 -19q15 -8 37.5 -12.5t46.5 -4.5h74v-111h-58zM195 488q-30 0 -51 21t-21 50q0 31 21 52t51 21q29 0 50.5 -21t21.5 -52q0 -29 -21.5 -50t-50.5 -21z"/>
<glyph horiz-adv-x="558" arabic-form="isolated" glyph-name="haiso" unicode="ه" d="M358 298q-9 2 -26.5 5.5t-42.5 3.5q-63 0 -93 -27t-30 -70q0 -47 31 -73t85 -26h76v187zM478 0h-196q-45 0 -87 12.5t-74.5 38t-51.5 65t-19 94.5q0 43 15.5 80t46 64.5t75 43.5t102.5 16q16 0 41 -3t52 -7.5t52.5 -11.5t43.5 -14v-378z"/>
<glyph horiz-adv-x="559" arabic-form="final" glyph-name="hafina" unicode="ه" d="M358 298q-9 2 -26.5 5.5t-42.5 3.5q-63 0 -93 -27t-30 -70q0 -47 31 -73t85 -26h76v187zM568 0h-286q-45 0 -87 12.5t-74.5 38t-51.5 65t-19 94.5q0 43 15.5 80t46 64.5t75 43.5t102.5 16q16 0 41 -3t52 -7.5t52.5 -11.5t43.5 -14v-267h90v-111z"/>
<glyph horiz-adv-x="567" arabic-form="medial" glyph-name="hamedi" unicode="ه" d="M141 133q0 -13 3 -22h106v22q0 50 -55 50q-26 0 -40 -13t-14 -37zM-9 111h60q-1 5 -1.5 10.5t-0.5 11.5q0 30 11.5 55t31 42t46 26.5t57.5 9.5t58 -9.5t46.5 -26.5t31 -42t11.5 -55v-22h44v127q0 19 -6.5 31.5t-17 19t-24 9t-26.5 2.5h-148q-14 0 -31 -1.5t-35.5 -4.5 t-36 -7.5t-32.5 -10.5v108q29 14 69.5 21.5t74.5 7.5h148q42 0 76 -9t58 -28.5t37 -51t13 -75.5v-138h71v-111h-585v111z"/>
<glyph horiz-adv-x="559" arabic-form="final" glyph-name="wawfina" unicode="و" d="M358 298q-9 2 -26.5 5.5t-42.5 3.5q-63 0 -93 -27t-30 -70q0 -47 31 -73t85 -26h76v187zM357 0h-75q-45 0 -87 12.5t-74.5 38t-51.5 65t-19 94.5q0 43 15.5 80t46 64.5t75 43.5t102.5 16q16 0 41 -3t52 -7.5t52.5 -11.5t43.5 -14v-267h90v-111h-90v-23q0 -57 -21.5 -95 t-54.5 -60.5t-73 -32t-78 -9.5q-84 0 -153 33v112q41 -23 76 -33.5t77 -10.5q44 0 75 24t31 75v20z"/>
<glyph horiz-adv-x="923" arabic-form="final" glyph-name="yafina" unicode="ي" d="M473 251q0 46 15.5 77.5t41 50.5t58 27.5t65.5 8.5q17 0 41.5 -3t50.5 -8t52.5 -12t48.5 -16v-265h86v-111h-206v298q-5 2 -14 3t-19 2t-18.5 1h-13.5q-11 0 -22.5 -3.5t-22 -11t-17 -19.5t-6.5 -30v-211q0 -50 -27 -80.5t-67.5 -46.5t-87.5 -21t-88 -5h-4q-50 0 -98 9.5 t-86 33t-61.5 64t-23.5 102.5v191h120v-186q0 -32 13 -51.5t34.5 -31t48.5 -15.5t56 -4q22 0 48.5 1t49 4.5t38 11t15.5 20.5v226zM407 -309q-30 0 -51 21t-21 50q0 31 21 52t51 21q29 0 50.5 -21t21.5 -52q0 -29 -21.5 -50t-50.5 -21zM227 -309q-30 0 -51 21t-21 50 q0 31 21 52t51 21q29 0 50.5 -21t21.5 -52q0 -29 -21.5 -50t-50.5 -21z"/>
<glyph horiz-adv-x="500" d="M125 62h250v438h-250v-438zM62 0v562h375v-562h-375z" glyph-name=".notdef"/>
<glyph glyph-name=".null"/>
<glyph horiz-adv-x="256" glyph-name="nonmarkingreturn"/>
<glyph horiz-adv-x="218" glyph-name="space" unicode=" "/>
<glyph horiz-adv-x="218" glyph-name="space" unicode=" "/>
<glyph horiz-adv-x="322" d="M82 71q0 33 23.5 57t56.5 24t56.5 -24t23.5 -57t-23.5 -56t-56.5 -23t-56.5 23t-23.5 56zM220 201h-120v479h120v-479z" glyph-name="exclam" unicode="!"/>
<glyph horiz-adv-x="297" d="M168 680h75l-4 -222h-66zM54 680h75l-4 -222h-67z" glyph-name="quotedbl" unicode='&quot;'/>
<glyph horiz-adv-x="473" d="M360 449q-29 19 -62 29.5t-71 10.5t-59.5 -16t-21.5 -43q0 -22 20.5 -37.5t51.5 -29.5t66.5 -28.5t66.5 -36t51.5 -51.5t20.5 -74q0 -36 -11.5 -63.5t-31.5 -48t-47.5 -34t-60.5 -20.5v-103h-94v97q-41 2 -77.5 13.5t-62.5 26.5l22 106q30 -18 64 -30t73 -12 q41 0 70.5 14t29.5 50q0 24 -20.5 40t-51 30t-66 28.5t-66 35t-51 49t-20.5 71.5q0 35 12 63.5t33 49.5t49.5 35t61.5 19v90h94v-89q62 -9 110 -38z" glyph-name="dollar" unicode="$"/>
<glyph horiz-adv-x="714" d="M224 0h-85l357 594h85zM593 139q0 29 -16.5 45t-42.5 16t-42 -16t-16 -45t16 -45t42 -16t42.5 16t16.5 45zM683 139q0 -33 -12 -60.5t-32 -47t-47 -30.5t-58 -11t-58 11t-47.5 30.5t-32 47t-11.5 60.5t11.5 60.5t32 47t47.5 30.5t58 11t58 -11t47 -30.5t32 -47t12 -60.5z M129 455q0 -29 16.5 -45t41.5 -16q26 0 42.5 16t16.5 45t-16.5 45t-42.5 16q-25 0 -41.5 -16t-16.5 -45zM38 455q0 33 11.5 60.5t32 47t47.5 30.5t58 11t58 -11t47.5 -30.5t32 -47t11.5 -60.5t-11.5 -60.5t-32 -47t-47.5 -30.5t-58 -11t-58 11t-47.5 30.5t-32 47t-11.5 60.5 z" glyph-name="percent" unicode="%"/>
<glyph horiz-adv-x="173" d="M54 680h75l-4 -222h-67z" glyph-name="quotesingle" unicode="&apos;"/>
<glyph horiz-adv-x="387" d="M233 -139q-39 37 -71 84t-54.5 100t-35 110t-12.5 116q0 58 12.5 115.5t35 110.5t54.5 99.5t71 83.5h133q-90 -89 -139 -191.5t-49 -217.5t49 -218t139 -192h-133z" glyph-name="parenleft" unicode="("/>
<glyph horiz-adv-x="404" d="M38 -139q90 89 139 192t49 218t-49 217.5t-139 191.5h133q39 -37 71 -83.5t54.5 -99.5t35 -110.5t12.5 -115.5q0 -59 -12.5 -116t-35 -110t-54.5 -100t-71 -84h-133z" glyph-name="parenright" unicode=")"/>
<glyph horiz-adv-x="459" d="M40 247v91h144v144h91v-144h144v-91h-144v-144h-91v144h-144z" glyph-name="plus" unicode="+"/>
<glyph horiz-adv-x="400" d="M70 314h269v-107h-269v107z" glyph-name="hyphen" unicode="-"/>
<glyph horiz-adv-x="293" d="M68 71q0 33 23.5 57t56.5 24t56.5 -24t23.5 -57t-23.5 -56t-56.5 -23t-56.5 23t-23.5 56z" glyph-name="period" unicode="."/>
<glyph horiz-adv-x="455" d="M13 -125l309 805h123l-309 -805h-123z" glyph-name="slash" unicode="/"/>
<glyph horiz-adv-x="561" d="M176 296q0 -97 29 -148t78 -51q48 0 77.5 51t29.5 148q0 99 -29.5 150t-77.5 51q-49 0 -78 -51t-29 -150zM50 296q0 68 16.5 124.5t47 97.5t73.5 63.5t96 22.5t96 -22.5t73 -63.5t46.5 -97.5t16.5 -124.5q0 -67 -16.5 -123.5t-46.5 -97t-73 -63t-96 -22.5t-96 22.5 t-73.5 63t-47 97t-16.5 123.5z" glyph-name="zero" unicode="0"/>
<glyph horiz-adv-x="324" d="M15 547l236 56v-603h-125v465l-111 -27v109z" glyph-name="one" unicode="1"/>
<glyph horiz-adv-x="464" d="M432 111v-111h-395v93q51 44 97 85t81.5 80t56 76t20.5 73q0 33 -14.5 51t-33 24t-36.5 6q-9 0 -27.5 -2.5t-45 -12t-49.5 -24.5t-35 -31v121q33 30 80 47.5t106 17.5q39 0 73.5 -11t60 -33.5t40.5 -55.5t15 -77t-16.5 -85.5t-44 -81t-64.5 -77t-78 -72.5h209z" glyph-name="two" unicode="2"/>
<glyph horiz-adv-x="426" d="M34 140q27 -20 60.5 -33t75.5 -13q41 0 67 18t26 53q0 43 -32.5 66t-101.5 27v74q63 5 92.5 33.5t29.5 67.5q0 31 -20 46t-50 15q-44 0 -83 -21t-67 -46v118q35 30 78.5 44.5t90.5 14.5q84 0 131 -41.5t47 -113.5q0 -57 -32.5 -94t-79.5 -54q55 -15 89.5 -51t34.5 -93 q0 -43 -17.5 -74.5t-46.5 -52t-67 -30.5t-79 -10q-47 0 -83 9.5t-63 24.5v116z" glyph-name="three" unicode="3"/>
<glyph horiz-adv-x="547" d="M153 243h161v208zM511 143h-76v-143h-121v143h-282v91l253 360h150v-351h76v-100z" glyph-name="four" unicode="4"/>
<glyph horiz-adv-x="436" d="M48 133q26 -16 57.5 -27.5t66.5 -11.5q51 0 80 19.5t29 64.5q0 31 -18 52t-47.5 35.5t-68.5 22t-81 11.5l21 295h299v-112h-198l-8 -93q46 -6 86 -21t69.5 -39.5t46.5 -61t17 -85.5q0 -90 -59 -141t-162 -51q-35 0 -69.5 8t-60.5 22v113z" glyph-name="five" unicode="5"/>
<glyph horiz-adv-x="510" d="M158 194q0 -48 28 -74.5t68 -26.5q42 0 70 26.5t28 74.5t-28 74.5t-70 26.5q-41 0 -68.5 -26.5t-27.5 -74.5zM359 594l-136 -218q22 17 56 17q37 0 72 -12.5t62 -37.5t43 -61.5t16 -84.5q0 -44 -15 -81.5t-43.5 -65.5t-69 -44t-92.5 -16q-54 0 -93.5 16t-66 44 t-39.5 65.5t-13 81.5q0 30 7 58.5t17.5 55t23.5 50t24 42.5l116 191h131z" glyph-name="six" unicode="6"/>
<glyph horiz-adv-x="423" d="M20 482v112h376v-113l-215 -481h-129l211 482h-243z" glyph-name="seven" unicode="7"/>
<glyph horiz-adv-x="490" d="M247 91q36 0 60 20t24 57q0 38 -24 62t-60 24t-60 -24t-24 -62q0 -37 24 -57t60 -20zM247 356q30 0 50.5 20.5t20.5 54.5t-20.5 53t-50.5 19t-50.5 -19t-20.5 -53t20.5 -54.5t50.5 -20.5zM247 -10q-43 0 -81 11.5t-66 33.5t-44 54.5t-16 73.5q0 28 8.5 51t22.5 41t33 30 t39 18q-36 17 -57.5 51.5t-21.5 82.5q0 40 14.5 71t39.5 52.5t58.5 32.5t70.5 11t70.5 -11t58 -32.5t39 -52.5t14.5 -71q0 -48 -21 -82.5t-57 -51.5q20 -6 38.5 -18t33 -30t23 -41t8.5 -51q0 -41 -16.5 -73.5t-44.5 -54.5t-65.5 -33.5t-80.5 -11.5z" glyph-name="eight" unicode="8"/>
<glyph horiz-adv-x="517" d="M354 390q0 48 -28 74.5t-68 26.5q-42 0 -70 -26.5t-28 -74.5t28 -74.5t70 -26.5q41 0 68.5 26.5t27.5 74.5zM159 0l130 208q-22 -17 -56 -17q-37 0 -72 12.5t-62 37.5t-43 61.5t-16 84.5q0 43 15 81t43.5 66t69 44t92.5 16q54 0 93.5 -16t66 -44t39.5 -66t13 -81 q0 -30 -7 -58.5t-17.5 -55t-23.5 -50t-24 -42.5l-110 -181h-131z" glyph-name="nine" unicode="9"/>
<glyph horiz-adv-x="274" d="M68 71q0 33 23.5 57t56.5 24t56.5 -24t23.5 -57t-23.5 -56t-56.5 -23t-56.5 23t-23.5 56zM68 322q0 33 23.5 57t56.5 24t56.5 -24t23.5 -57t-23.5 -56t-56.5 -23t-56.5 23t-23.5 56z" glyph-name="colon" unicode=":"/>
<glyph horiz-adv-x="356" d="M47 308l264 166v-104l-136 -79l136 -79v-104l-264 166v34z" glyph-name="less" unicode="&lt;"/>
<glyph horiz-adv-x="456" d="M45 410h379v-83h-379v83zM45 260h379v-82h-379v82z" glyph-name="equal" unicode="="/>
<glyph horiz-adv-x="344" d="M311 274l-264 -166v104l136 79l-136 79v104l264 -166v-34z" glyph-name="greater" unicode="&gt;"/>
<glyph horiz-adv-x="313" d="M192 -44h83v-94h-195v818h195v-94h-83v-630z" glyph-name="bracketleft" unicode="["/>
<glyph horiz-adv-x="455" d="M324 -130l-311 810h123l311 -810h-123z" glyph-name="backslash" unicode="\"/>
<glyph horiz-adv-x="326" d="M163 586h-83v94h195v-818h-195v94h83v630z" glyph-name="bracketright" unicode="]"/>
<glyph horiz-adv-x="469" d="M50 -51h362v-99h-362v99z" glyph-name="underscore" unicode="_"/>
<glyph horiz-adv-x="364" d="M236 413q0 -33 -10 -58.5t-26.5 -44t-37.5 -28.5t-44 -11q23 -1 44 -11t37.5 -28.5t26.5 -44t10 -58.5v-118q0 -23 8 -39t37 -16h33v-94h-49q-66 0 -104 36.5t-38 111.5v127q0 48 -21.5 66.5t-54.5 18.5h-15v98h15q33 0 54.5 18.5t21.5 66.5v127q0 75 38 111.5t104 36.5 h49v-94h-33q-29 0 -37 -16t-8 -39v-118z" glyph-name="braceleft" unicode="{"/>
<glyph horiz-adv-x="234" d="M68 680h112v-818h-112v818z" glyph-name="bar" unicode="|"/>
<glyph horiz-adv-x="353" d="M110 531q0 23 -8 39t-37 16h-33v94h49q66 0 104 -36.5t38 -111.5v-127q0 -48 21.5 -66.5t54.5 -18.5h15v-98h-15q-33 0 -54.5 -18.5t-21.5 -66.5v-127q0 -75 -38 -111.5t-104 -36.5h-49v94h33q29 0 37 16t8 39v118q0 33 10 58.5t26.5 44t37.5 28.5t44 11q-23 1 -44 11 t-37.5 28.5t-26.5 44t-10 58.5v118z" glyph-name="braceright" unicode="}"/>
<glyph horiz-adv-x="581" d="M84 244v97h72v61q0 52 14.5 92t40 67.5t60.5 42t76 14.5q44 0 79 -12.5t53 -29.5v-128q-23 26 -52 40t-66 14q-42 0 -63.5 -30t-21.5 -78v-53h136v-97h-136q-2 -51 -20.5 -83t-41.5 -51h270v-110h-400v110q38 20 54 50t18 84h-72z" glyph-name="sterling" unicode="£"/>
<glyph horiz-adv-x="485" d="M332 215l122 -158h-116l-123 158l123 158h116zM155 215l122 -158h-116l-123 158l123 158h116z" glyph-name="guillemotleft" unicode="«"/>
<glyph horiz-adv-x="324" d="M70 260q0 41 28 69t69 28t69 -28t28 -69t-28 -69t-69 -28t-69 28t-28 69z" glyph-name="periodcentered" unicode="·"/>
<glyph horiz-adv-x="324" d="M70 260q0 41 28 69t69 28t69 -28t28 -69t-28 -69t-69 -28t-69 28t-28 69z" glyph-name="periodcentered" unicode="∙"/>
<glyph horiz-adv-x="476" d="M38 373h116l123 -158l-123 -158h-116l122 158zM215 373h116l123 -158l-123 -158h-116l122 158z" glyph-name="guillemotright" unicode="»"/>
<glyph horiz-adv-x="433" d="M128 126l-65 65l102 101l-102 102l65 65l101 -102l102 102l65 -65l-102 -102l102 -101l-65 -65l-102 102z" glyph-name="multiply" unicode="×"/>
<glyph horiz-adv-x="462" d="M166 450q0 27 19 46t45 19t45.5 -19t19.5 -46q0 -26 -19.5 -45t-45.5 -19t-45 19t-19 45zM166 136q0 26 19 45.5t45 19.5t45.5 -19.5t19.5 -45.5t-19.5 -45t-45.5 -19t-45 19t-19 45zM41 339h379v-91h-379v91z" glyph-name="divide" unicode="÷"/>
<glyph horiz-adv-x="262" d="M51 76q0 21 10 43.5t25.5 44t33.5 39.5t33 29h54q-17 -18 -30.5 -38.5t-24.5 -44.5q26 -8 42.5 -29.5t16.5 -48.5q0 -33 -23.5 -56t-56.5 -23t-56.5 23.5t-23.5 60.5z" glyph-name="arabiccoma" unicode="،"/>
<glyph horiz-adv-x="275" d="M64 71q0 33 23.5 57t56.5 24t56.5 -24t23.5 -57t-23.5 -56t-56.5 -23t-56.5 23t-23.5 56zM64 339q0 21 10 43.5t25.5 44t33.5 39.5t33 29h54q-17 -18 -30.5 -38.5t-24.5 -44.5q26 -8 42.5 -29.5t16.5 -48.5q0 -33 -23.5 -56t-56.5 -23t-56.5 23.5t-23.5 60.5z" glyph-name="arabicsemicolon" unicode="؛"/>
<glyph horiz-adv-x="443" d="M338 70q0 -16 -6 -30.5t-16.5 -25t-24.5 -16.5t-30 -6q-35 0 -59 23t-24 55q0 34 24 58t59 24q32 0 54.5 -24t22.5 -58zM396 504q-35 29 -70.5 47.5t-78.5 18.5q-34 0 -57 -17t-23 -52q0 -24 9.5 -40t28 -28t46.5 -22t65 -20v-201h-112v143q-23 6 -50 18t-51 32.5 t-40 51.5t-16 75t14 76t38.5 53t58 31t73.5 10q56 0 98.5 -18t66.5 -42v-116z" glyph-name="arabicquestionmark" unicode="؟"/>
<glyph horiz-adv-x="193" d="M202 0h-211v111h211v-111z" glyph-name="tatweel" unicode="ـ"/>
<glyph d="M19 765l241 60l14 -56l-242 -58zM-5 857l241 60l14 -56l-242 -58z" glyph-name="fathatan" unicode="ً"/>
<glyph d="M-18 820l55 17l27 -62l33 11q-5 12 -7 24.5t-2 22.5q0 32 18.5 50t44.5 18q15 0 29 -6.5t25 -17.5t17.5 -25t6.5 -28q0 -20 -18.5 -42.5t-71.5 -39.5l-110 -35zM141 833q0 -12 7 -25q22 6 28 19q-2 7 -9 14t-14 7q-12 0 -12 -15z" glyph-name="damatan" unicode="ٌ"/>
<glyph d="M19 -177l241 60l14 -56l-242 -58zM-6 -85l241 60l14 -56l-242 -58z" glyph-name="kasratan" unicode="ٍ"/>
<glyph d="M19 765l241 60l14 -56l-242 -58z" glyph-name="fatha" unicode="َ"/>
<glyph d="M-11 767l84 21q-5 12 -7 23t-2 22q0 32 18.5 50t44.5 18q15 0 29 -7t25.5 -18.5t18 -25.5t6.5 -28q0 -21 -19 -43.5t-73 -36.5l-112 -30zM124 808q22 6 28 19q-2 7 -9 14t-14 7q-8 0 -10.5 -5t-2 -11.5t3 -13.5t4.5 -10z" glyph-name="damma" unicode="ُ"/>
<glyph d="M24 -121l241 60l14 -56l-242 -58z" glyph-name="kasra" unicode="ِ"/>
<glyph d="M74 716q-26 5 -39 19t-15 38l-5 60l63 5l5 -55q2 -14 12 -15q7 -2 11 3.5t5 12.5q2 9 1 24t-3 35l63 7l5 -63q1 -5 6 -10t10 -6q8 -1 11.5 5t5.5 14q0 5 -0.5 15t-1.5 16l-5 33l61 6q2 -5 3 -13t3 -22q1 -11 1 -23.5t-2 -20.5q-7 -33 -33 -51q-19 -13 -44 -13 q-10 0 -20 2q-9 2 -17.5 6.5t-15.5 10.5q-9 -8 -25 -16q-10 -5 -24 -6q-7 0 -16 2z" glyph-name="shaddah" unicode="ّ"/>
<glyph d="M108 864q34 0 57.5 -23.5t23.5 -56.5q0 -34 -23.5 -57.5t-57.5 -23.5q-33 0 -56.5 23.5t-23.5 57.5q0 33 23.5 56.5t56.5 23.5zM108 814q-12 0 -21 -9t-9 -21t9 -21t21 -9t21 9t9 21t-9 21t-21 9z" glyph-name="soukoun" unicode="ْ"/>
<glyph horiz-adv-x="352" d="M331 842q0 -63 -25.5 -97t-70.5 -34q-26 0 -44.5 12t-35.5 25q-11 8 -21 15.5t-18 7.5q-21 0 -21 -58h-76q0 63 25 97t70 34q25 0 44 -12t36 -25q11 -9 21.5 -16t18.5 -7q20 0 20 58h77z" glyph-name="madda" unicode="ٓ"/>
<glyph horiz-adv-x="237" d="M15 774h40q-3 7 -5 17.5t-2 16.5q0 25 8 43t21.5 29t31.5 16.5t37 5.5q16 0 31 -5t33 -16v-67q-9 6 -24.5 12.5t-30.5 7.5t-25.5 -4.5t-10.5 -23.5q0 -5 2.5 -15t7.5 -17h81v-63h-195v63z" glyph-name="arabichamzaabove" unicode="ٔ"/>
<glyph horiz-adv-x="222" d="M15 -221h40q-3 7 -5 17.5t-2 16.5q0 25 8 43t21.5 29t31.5 16.5t37 5.5q16 0 31 -5t33 -16v-67q-9 6 -24.5 12.5t-30.5 7.5t-25.5 -4.5t-10.5 -23.5q0 -5 2.5 -15t7.5 -17h81v-63h-195v63z" glyph-name="arabichamzabelow" unicode="ٕ"/>
<glyph horiz-adv-x="287" d="M173 -485l-35 -4l-11 147l46 6v-149z" glyph-name="uni0656" unicode="ٖ"/>
<glyph horiz-adv-x="310" d="M89 258q0 33 23.5 57t56.5 24t56.5 -24t23.5 -57t-23.5 -56t-56.5 -23t-56.5 23t-23.5 56z" glyph-name="zeroarabic" unicode="٠"/>
<glyph horiz-adv-x="310" d="M89 258q0 33 23.5 57t56.5 24t56.5 -24t23.5 -57t-23.5 -56t-56.5 -23t-56.5 23t-23.5 56z" glyph-name="zeroarabic" unicode="۰"/>
<glyph horiz-adv-x="279" d="M200 0h-120v595h120v-595z" glyph-name="onearabic" unicode="١"/>
<glyph horiz-adv-x="279" d="M200 0h-120v595h120v-595z" glyph-name="onearabic" unicode="۱"/>
<glyph horiz-adv-x="422" d="M408 594v-111h-159q-30 0 -51 -9.5t-21 -40.5v-433h-120v433q0 85 50 123t141 38h160z" glyph-name="twoarabic" unicode="٢"/>
<glyph horiz-adv-x="422" d="M408 594v-111h-159q-30 0 -51 -9.5t-21 -40.5v-433h-120v433q0 85 50 123t141 38h160z" glyph-name="twoarabic" unicode="۲"/>
<glyph horiz-adv-x="550" d="M59 594h122v-134h4q23 0 37.5 12.5t14.5 23.5v98h121v-71v-25t-6 -38q29 5 43 14.5t14 21.5v98h119v-71q0 -33 -8 -64.5t-29 -56t-57.5 -40t-94.5 -15.5q-14 0 -34 3.5t-37 9.5q-6 -3 -17.5 -5t-24 -3.5t-25 -2.5t-20.5 -2v-347h-122v594z" glyph-name="threearabic" unicode="٣"/>
<glyph horiz-adv-x="550" d="M59 594h122v-134h4q23 0 37.5 12.5t14.5 23.5v98h121v-71v-25t-6 -38q29 5 43 14.5t14 21.5v98h119v-71q0 -33 -8 -64.5t-29 -56t-57.5 -40t-94.5 -15.5q-14 0 -34 3.5t-37 9.5q-6 -3 -17.5 -5t-24 -3.5t-25 -2.5t-20.5 -2v-347h-122v594z" glyph-name="threearabic" unicode="۳"/>
<glyph horiz-adv-x="507" d="M236 481q-18 0 -29 -5.5t-17.5 -14t-9 -19t-2.5 -20.5q0 -21 2.5 -39t7.5 -33q4 0 11 0.5t31.5 0.5h74.5h142v-112h-211q-35 0 -46.5 -19.5t-11.5 -41.5q0 -29 15 -47.5t34 -18.5h220v-112h-266q-46 0 -70.5 16t-35.5 41.5t-12.5 57t-1.5 63.5q0 67 27 112 q-12 35 -19.5 66t-7.5 66q0 89 40 130.5t133 41.5h213v-113h-211z" glyph-name="fourarabic" unicode="٤"/>
<glyph horiz-adv-x="552" d="M164 286q0 -54 8.5 -88.5t23.5 -53.5t36 -26t47 -7q25 0 45 7t34.5 26t22 53.5t7.5 88.5q0 36 -8 72t-22.5 64t-35.5 45.5t-46 17.5q-26 0 -46.5 -17t-35 -45t-22.5 -64t-8 -73zM40 286q0 59 16.5 115.5t47 101t74.5 71.5t98 27q55 0 98.5 -28.5t74 -74t47 -101.5 t16.5 -111q0 -81 -16 -137t-46 -90t-73.5 -49t-97.5 -15t-98.5 15t-75.5 49t-48 90t-17 137z" glyph-name="fivearabic" unicode="٥"/>
<glyph horiz-adv-x="447" d="M196 594q91 0 141 -38t50 -123v-433h-120v433q0 31 -21 40.5t-51 9.5h-165v111h166z" glyph-name="sixarabic" unicode="٦"/>
<glyph horiz-adv-x="541" d="M523 594l-183 -594h-131l-182 594h127l121 -395l122 395h126z" glyph-name="sevenarabic" unicode="٧"/>
<glyph horiz-adv-x="541" d="M523 594l-183 -594h-131l-182 594h127l121 -395l122 395h126z" glyph-name="sevenarabic" unicode="۷"/>
<glyph horiz-adv-x="544" d="M27 0l183 594h131l182 -594h-127l-121 395l-122 -395h-126z" glyph-name="eightarabic" unicode="٨"/>
<glyph horiz-adv-x="544" d="M27 0l183 594h131l182 -594h-127l-121 395l-122 -395h-126z" glyph-name="eightarabic" unicode="۸"/>
<glyph horiz-adv-x="505" d="M320 0v183h-75q-45 0 -87 12.5t-74.5 38t-51.5 65t-19 94.5q0 43 15.5 80t46 64.5t75 43.5t102.5 16q16 0 41 -3t52 -7.5t52.5 -11.5t43.5 -14v-561h-121zM321 481q-9 2 -26.5 5.5t-42.5 3.5q-63 0 -93 -27t-30 -70q0 -47 31 -73t85 -26h76v187z" glyph-name="ninearabic" unicode="٩"/>
<glyph horiz-adv-x="505" d="M320 0v183h-75q-45 0 -87 12.5t-74.5 38t-51.5 65t-19 94.5q0 43 15.5 80t46 64.5t75 43.5t102.5 16q16 0 41 -3t52 -7.5t52.5 -11.5t43.5 -14v-561h-121zM321 481q-9 2 -26.5 5.5t-42.5 3.5q-63 0 -93 -27t-30 -70q0 -47 31 -73t85 -26h76v187z" glyph-name="ninearabic" unicode="۹"/>
<glyph horiz-adv-x="694" d="M218 0h-106l357 594h106zM580 139q0 29 -16.5 45t-42.5 16t-42 -16t-16 -45t16 -45t42 -16t42.5 16t16.5 45zM670 139q0 -33 -12 -60.5t-32 -47t-47 -30.5t-58 -11t-58 11t-47.5 30.5t-32 47t-11.5 60.5t11.5 60.5t32 47t47.5 30.5t58 11t58 -11t47 -30.5t32 -47 t12 -60.5zM116 455q0 -29 16.5 -45t41.5 -16q26 0 42.5 16t16.5 45t-16.5 45t-42.5 16q-25 0 -41.5 -16t-16.5 -45zM25 455q0 33 11.5 60.5t32 47t47.5 30.5t58 11t58 -11t47.5 -30.5t32 -47t11.5 -60.5t-11.5 -60.5t-32 -47t-47.5 -30.5t-58 -11t-58 11t-47.5 30.5t-32 47 t-11.5 60.5z" glyph-name="percentarabic" unicode="٪"/>
<glyph horiz-adv-x="206" d="M240 235l-216 -413l-24 12l214 413z" glyph-name="uni066B" unicode="٫"/>
<glyph horiz-adv-x="174" d="M146 435h-79v63q0 95 67 129l9 -20q-46 -25 -46 -90h49v-82z" glyph-name="uni066C" unicode="٬"/>
<glyph d="M23 744v174h34v-174h-34z" glyph-name="arabicalefsuperscript" unicode="ٰ"/>
<glyph horiz-adv-x="507" d="M236 481q-18 0 -29 -5.5t-17.5 -14t-9 -19t-2.5 -20.5q0 -21 2.5 -39t7.5 -33q4 0 11 0.5t31.5 0.5h74.5h142v-112h-211q-35 0 -46.5 -19.5t-11.5 -41.5q0 -29 15 -47.5t34 -18.5h220v-112h-266q-46 0 -70.5 16t-35.5 41.5t-12.5 57t-1.5 63.5q0 67 27 112 q-12 35 -19.5 66t-7.5 66q0 89 40 130.5t133 41.5h213v-113h-211z" glyph-name="fourfarsi" unicode="۴"/>
<glyph horiz-adv-x="552" d="M164 286q0 -54 8.5 -88.5t23.5 -53.5t36 -26t47 -7q25 0 45 7t34.5 26t22 53.5t7.5 88.5q0 36 -8 72t-22.5 64t-35.5 45.5t-46 17.5q-26 0 -46.5 -17t-35 -45t-22.5 -64t-8 -73zM40 286q0 59 16.5 115.5t47 101t74.5 71.5t98 27q55 0 98.5 -28.5t74 -74t47 -101.5 t16.5 -111q0 -81 -16 -137t-46 -90t-73.5 -49t-97.5 -15t-98.5 15t-75.5 49t-48 90t-17 137z" glyph-name="fivefarsi" unicode="۵"/>
<glyph horiz-adv-x="447" d="M196 594q91 0 141 -38t50 -123v-433h-120v433q0 31 -21 40.5t-51 9.5h-165v111h166z" glyph-name="sixfarsi" unicode="۶"/>
<glyph horiz-adv-x="22" d="M22 0h-22v795h22v-795z" glyph-name="afii61664" unicode="‌"/>
<glyph horiz-adv-x="22" d="M78 730l-15 -14l-41 41v-757h-22v757l-41 -41l-15 14l53 53l-53 52l15 15l52 -53l52 53l15 -15l-52 -52z" glyph-name="afii301" unicode="‍"/>
<glyph horiz-adv-x="22" d="M148 783l-67 -67l-15 15l42 42h-86v-773h-22v795h106l-40 40l15 15z" glyph-name="afii299" unicode="‎"/>
<glyph horiz-adv-x="22" d="M22 0h-22v773h-86l42 -42l-15 -15l-67 67l67 67l15 -15l-40 -40h106v-795z" glyph-name="afii300" unicode="‏"/>
<glyph horiz-adv-x="411" d="M343 0h-275v111h275v-111z" glyph-name="uni2010" unicode="‐"/>
<glyph horiz-adv-x="394" d="M212 598q0 21 10 43.5t25.5 44t33.5 39.5t33 29h54q-17 -18 -30.5 -38.5t-24.5 -44.5q26 -8 42.5 -29.5t16.5 -48.5q0 -33 -23.5 -56t-56.5 -23t-56.5 23.5t-23.5 60.5zM21 598q0 21 10 43.5t25.5 44t33.5 39.5t33 29h54q-17 -18 -30.5 -38.5t-24.5 -44.5 q26 -8 42.5 -29.5t16.5 -48.5q0 -33 -23.5 -56t-56.5 -23t-56.5 23.5t-23.5 60.5z" glyph-name="quotedblleft" unicode="“"/>
<glyph horiz-adv-x="389" d="M181 670q0 -21 -10 -43.5t-25.5 -44t-33.5 -39.5t-33 -29h-54q17 18 30.5 38.5t24.5 44.5q-26 8 -42.5 29.5t-16.5 48.5q0 33 23.5 56t56.5 23t56.5 -23.5t23.5 -60.5zM372 670q0 -21 -10 -43.5t-25.5 -44t-33.5 -39.5t-33 -29h-54q17 18 30.5 38.5t24.5 44.5 q-26 8 -42.5 29.5t-16.5 48.5q0 33 23.5 56t56.5 23t56.5 -23.5t23.5 -60.5z" glyph-name="quotedblright" unicode="”"/>
<glyph horiz-adv-x="601" d="M52 324v65h63q11 49 34 88.5t56 67.5t75 43.5t91 15.5q39 0 74 -9t67 -30v-137q-25 29 -59 45.5t-78 16.5q-49 0 -81 -27t-47 -74h132v-65h-144q-1 -7 -1 -13.5v-13.5v-13.5t1 -13.5h144v-65h-132q17 -48 50 -74.5t81 -26.5q46 0 78 15t64 46v-131q-36 -25 -73 -34.5 t-76 -9.5q-50 0 -92.5 15.5t-75 43.5t-55 67.5t-33.5 88.5h-63v65h54q-1 7 -1 13.5v13.5v13.5t1 13.5h-54z" glyph-name="Euro" unicode="€"/>
<glyph horiz-adv-x="649" d="M199 20q-10 5 -19.5 10t-18.5 12l14 21q9 -5 17.5 -10t17.5 -10q15 -7 37 -12l-6 -26q-23 7 -42 15zM445 548q10 -5 19.5 -10t17.5 -13l-15 -20q-16 11 -34 19q-9 5 -18 8t-19 6l8 25q22 -6 41 -15zM347 -6q-6 -1 -12 -1h-11q-20 0 -42 3l4 26q16 -3 35 -3q10 0 21 1 t22 3l6 -27q-6 -1 -12 -1.5t-11 -0.5zM49 387l25 -9q-4 -9 -6.5 -18.5t-4.5 -19.5t-3 -19.5t-2 -19.5h-27q3 44 18 86zM546 469q7 -8 13 -17t12 -19l-23 -14q-8 16 -22 33q-6 7 -12.5 14t-14.5 15l18 19l15 -16q8 -7 14 -15zM552 106q-14 -17 -30 -33l-18 20q14 11 27 29 q13 16 22 33l24 -13q-6 -10 -12 -18.5t-13 -17.5zM594 181l-24 9q3 10 5.5 19t4.5 19q4 19 6 39h26q-2 -44 -18 -86zM121 496l19 -21q-8 -6 -14.5 -13t-13.5 -15q-6 -8 -11.5 -16.5t-11.5 -17.5l-22 13q12 20 25.5 37.5t28.5 32.5zM605 353q5 -23 5 -43l-24 -3q-1 9 -2.5 19 t-4.5 20t-6 19.5t-7 19.5l25 9q5 -10 8.5 -20t5.5 -21zM97 99q-7 8 -13 17t-13 19l24 13q5 -8 10.5 -16t11.5 -16q7 -8 13 -15l15 -14l-18 -19q-19 16 -30 31zM192 544q11 5 20 9.5t20 7.5l9 -25q-39 -13 -71 -36l-17 23q11 6 20 11t19 10zM39 215q-6 21 -6 43l25 3 q3 -38 20 -78l-26 -9q-5 10 -8 20t-5 21zM298 574q6 1 12 1h21q5 0 10 -1h10q5 0 10 -1l-3 -27q-9 1 -18.5 1.5t-18.5 0.5h-10q-5 0 -11 -1q-11 0 -21 -3l-6 27q6 1 12.5 1.5t12.5 1.5zM452 23q-11 -5 -20.5 -8.5t-19.5 -7.5l-10 25q21 7 38 16q19 10 34 19l16 -22 q-9 -6 -19 -11.5t-19 -10.5z" glyph-name="dottedcircle" unicode="◌"/>
<glyph glyph-name="NULL"/>
<glyph horiz-adv-x="698" d="M375 0h-324v111h131v439h120v-439h68q68 0 68 71v498h120v-506q0 -16 -3 -27t-6 -19q15 -8 37.5 -12.5t46.5 -4.5h74v-111h-58q-49 0 -85 10.5t-66 24.5q-20 -17 -52 -26t-71 -9z" glyph-name="lam_alef_comp"/>
<glyph horiz-adv-x="237" d="M15 774h40q-3 7 -5 17.5t-2 16.5q0 25 8 43t21.5 29t31.5 16.5t37 5.5q16 0 31 -5t33 -16v-67q-9 6 -24.5 12.5t-30.5 7.5t-25.5 -4.5t-10.5 -23.5q0 -5 2.5 -15t7.5 -17h81v-63h-195v63z" glyph-name="hamza_comp"/>
<glyph horiz-adv-x="351" d="M335 728q0 -63 -25.5 -97t-70.5 -34q-26 0 -44.5 12t-35.5 25q-11 8 -21 15.5t-18 7.5q-21 0 -21 -58h-76q0 63 25 97t70 34q25 0 44 -12t36 -25q11 -9 21.5 -16t18.5 -7q20 0 20 58h77z" glyph-name="madda_lamalef_comp"/>
<glyph horiz-adv-x="399" d="M349 0q-49 0 -85 10.5t-66 24.5q-20 -17 -52 -26t-71 -9h-84v111h79q68 0 68 71v231h120v-239q0 -16 -3 -27t-6 -19q15 -8 37.5 -12.5t46.5 -4.5h74v-111h-58z" glyph-name="ya_med_comp"/>
<glyph horiz-adv-x="432" d="M315 -240q-30 0 -51 21t-21 50q0 31 21 52t51 21q29 0 50.5 -21t21.5 -52q0 -29 -21.5 -50t-50.5 -21zM135 -240q-30 0 -51 21t-21 50q0 31 21 52t51 21q29 0 50.5 -21t21.5 -52q0 -29 -21.5 -50t-50.5 -21z" glyph-name="two_dots_comp"/>
<glyph horiz-adv-x="292" d="M261 0q-91 0 -141 38t-50 123v519h120v-519q0 -31 21 -40.5t51 -9.5h39v-111h-40z" glyph-name="alef_mid_comp"/>
<glyph horiz-adv-x="352" d="M331 842q0 -63 -25.5 -97t-70.5 -34q-26 0 -44.5 12t-35.5 25q-11 8 -21 15.5t-18 7.5q-21 0 -21 -58h-76q0 63 25 97t70 34q25 0 44 -12t36 -25q11 -9 21.5 -16t18.5 -7q20 0 20 58h77z" glyph-name="madda_alef_comp"/>
<glyph horiz-adv-x="280" d="M200 0h-120v680h120v-680z" glyph-name="alef_comp"/>
<glyph horiz-adv-x="226" d="M120 488q-30 0 -51 21t-21 50q0 31 21 52t51 21q29 0 50.5 -21t21.5 -52q0 -29 -21.5 -50t-50.5 -21z" glyph-name="one_dot_comp"/>
<glyph horiz-adv-x="375" d="M203 628q-30 0 -51 21t-21 50q0 31 21 52t51 21q29 0 50.5 -21t21.5 -52q0 -29 -21.5 -50t-50.5 -21zM289 465q-30 0 -51 21t-21 50q0 31 21 52t51 21q29 0 50.5 -21t21.5 -52q0 -29 -21.5 -50t-50.5 -21zM109 465q-30 0 -51 21t-21 50q0 31 21 52t51 21q29 0 50.5 -21 t21.5 -52q0 -29 -21.5 -50t-50.5 -21z" glyph-name="three_dots_comp"/>
<glyph horiz-adv-x="303" d="M-8 0v111h39q30 0 51 9.5t21 40.5v252h120v-252q0 -85 -50 -123t-141 -38h-40z" glyph-name="ya_ini_comp"/>
<glyph horiz-adv-x="923" d="M473 251q0 46 15.5 77.5t41 50.5t58 27.5t65.5 8.5q17 0 41.5 -3t50.5 -8t52.5 -12t48.5 -16v-265h86v-111h-206v298q-5 2 -14 3t-19 2t-18.5 1h-13.5q-11 0 -22.5 -3.5t-22 -11t-17 -19.5t-6.5 -30v-211q0 -50 -27 -80.5t-67.5 -46.5t-87.5 -21t-88 -5h-4q-50 0 -98 9.5 t-86 33t-61.5 64t-23.5 102.5v191h120v-186q0 -32 13 -51.5t34.5 -31t48.5 -15.5t56 -4q22 0 48.5 1t49 4.5t38 11t15.5 20.5v226z" glyph-name="ya_end_comp"/>
<glyph horiz-adv-x="730" d="M293 -124q-50 0 -94 9.5t-77 33.5t-52.5 64.5t-19.5 102.5v190h120v-185q0 -32 9 -52t25 -31t39 -15.5t50 -4.5h154q22 0 43 4t37.5 11.5t26.5 18t10 23.5q0 17 -21 36t-56 30q-62 21 -96 52.5t-34 90.5q0 38 15 68t39 50.5t55 31.5t64 11t65.5 -10t66.5 -34v-121 q-42 35 -74 45.5t-58 10.5q-8 0 -18 -2t-18 -7.5t-13.5 -15t-5.5 -23.5q0 -26 19.5 -38.5t51.5 -24.5q29 -11 53.5 -24.5t42.5 -30.5t28 -39.5t10 -51.5q0 -50 -21 -83.5t-54.5 -53.5t-75 -28t-82.5 -8h-154z" glyph-name="ya_end_iso_comp"/>
<glyph horiz-adv-x="559" d="M358 298q-9 2 -26.5 5.5t-42.5 3.5q-63 0 -93 -27t-30 -70q0 -47 31 -73t85 -26h76v187zM357 0h-75q-45 0 -87 12.5t-74.5 38t-51.5 65t-19 94.5q0 43 15.5 80t46 64.5t75 43.5t102.5 16q16 0 41 -3t52 -7.5t52.5 -11.5t43.5 -14v-267h90v-111h-90v-23q0 -57 -21.5 -95 t-54.5 -60.5t-73 -32t-78 -9.5q-84 0 -153 33v112q41 -23 76 -33.5t77 -10.5q44 0 75 24t31 75v20z" glyph-name="waw_mid_comp"/>
<glyph horiz-adv-x="558" d="M357 0h-75q-45 0 -87 12.5t-74.5 38t-51.5 65t-19 94.5q0 43 15.5 80t46 64.5t75 43.5t102.5 16q16 0 41 -3t52 -7.5t52.5 -11.5t43.5 -14v-401q0 -57 -21.5 -95t-54.5 -60.5t-73 -32t-78 -9.5q-84 0 -153 33v112q41 -23 76 -33.5t77 -10.5q44 0 75 24t31 75v20zM358 298 q-9 2 -26.5 5.5t-42.5 3.5q-63 0 -93 -27t-30 -70q0 -47 31 -73t85 -26h76v187z" glyph-name="waw_iso_comp"/>
<glyph horiz-adv-x="559" d="M358 298q-9 2 -26.5 5.5t-42.5 3.5q-63 0 -93 -27t-30 -70q0 -47 31 -73t85 -26h76v187zM568 0h-286q-45 0 -87 12.5t-74.5 38t-51.5 65t-19 94.5q0 43 15.5 80t46 64.5t75 43.5t102.5 16q16 0 41 -3t52 -7.5t52.5 -11.5t43.5 -14v-267h90v-111z" glyph-name="tah_marbouta_comp"/>
<glyph horiz-adv-x="558" d="M358 298q-9 2 -26.5 5.5t-42.5 3.5q-63 0 -93 -27t-30 -70q0 -47 31 -73t85 -26h76v187zM478 0h-196q-45 0 -87 12.5t-74.5 38t-51.5 65t-19 94.5q0 43 15.5 80t46 64.5t75 43.5t102.5 16q16 0 41 -3t52 -7.5t52.5 -11.5t43.5 -14v-378z" glyph-name="tah_marbouta_iso_comp"/>
<glyph horiz-adv-x="587" d="M386 298q-9 2 -26.5 5.5t-42.5 3.5q-63 0 -93 -27t-30 -70q0 -46 29.5 -71.5t80.5 -27.5h82v187zM-9 111h108q-10 20 -15.5 45t-5.5 54q0 43 15.5 80t46 64.5t75 43.5t102.5 16q16 0 41 -3t52 -7.5t52.5 -11.5t43.5 -14v-267h90v-111h-286h-9h-310v111z" glyph-name="kaf_mid_comp"/>
<glyph horiz-adv-x="586" d="M386 298q-9 2 -26.5 5.5t-42.5 3.5q-63 0 -93 -27t-30 -70q0 -47 31 -73t85 -26h76v187zM-9 111h108q-10 20 -15.5 45t-5.5 54q0 43 15.5 80t46 64.5t75 43.5t102.5 16q16 0 41 -3t52 -7.5t52.5 -11.5t43.5 -14v-378h-515v111z" glyph-name="kaf_ini_comp"/>
<glyph horiz-adv-x="979" d="M779 298q-9 2 -26.5 5.5t-42.5 3.5q-63 0 -93 -27t-30 -70q0 -46 29.5 -71.5t80.5 -27.5h82v187zM262 111h230q-10 20 -15.5 45t-5.5 54q0 43 15.5 80t46 64.5t75 43.5t102.5 16q16 0 41 -3t52 -7.5t52.5 -11.5t43.5 -14v-378h-196h-9h-433q-91 0 -141 38t-50 123v184 h120v-184q0 -31 21 -40.5t51 -9.5z" glyph-name="kaf_final_iso_comp"/>
<glyph horiz-adv-x="956" d="M779 298q-9 2 -26.5 5.5t-42.5 3.5q-63 0 -93 -27t-30 -70q0 -47 31 -73t85 -26h76v187zM70 161v184h120v-184q0 -31 21 -40.5t51 -9.5h230q-10 20 -15.5 45t-5.5 54q0 43 15.5 80t46 64.5t75 43.5t102.5 16q16 0 41 -3t52 -7.5t52.5 -11.5t43.5 -14v-267h66v-111h-704 q-91 0 -141 38t-50 123z" glyph-name="kaf_fina_comp"/>
<glyph horiz-adv-x="544" d="M506 252q0 -15 -7 -32.5t-18 -36t-25 -37t-28 -35.5h125v-111h-562v111h116q-29 34 -52.5 72t-23.5 69q0 49 24.5 81.5t60.5 52t77.5 27t75.5 7.5q49 0 92 -10.5t75 -31.5t51 -52.5t19 -73.5zM269 315q-33 0 -57.5 -6.5t-40.5 -16t-24 -20.5t-8 -20q0 -12 12.5 -30.5 t32 -38t42.5 -38.5t43 -34q20 15 41 34t38.5 38.5t28.5 38t11 30.5q0 9 -6 20t-20.5 20.5t-37 16t-55.5 6.5z" glyph-name="ayn_mid_comp"/>
<glyph horiz-adv-x="508" d="M321 313q-43 0 -74 -30.5t-31 -84.5q0 -18 8.5 -42.5t25.5 -44.5h208v-111h-467v111h124q-8 25 -12 49t-4 41q0 52 16 93t44.5 68.5t66.5 42t82 14.5q38 0 68 -8t59 -25v-114q-28 23 -55.5 32t-58.5 9z" glyph-name="ayn_ini_comp"/>
<glyph horiz-adv-x="682" d="M245 111q-29 34 -52.5 72t-23.5 69q0 49 24.5 81.5t60.5 52t77.5 27t75.5 7.5q49 0 92 -10.5t75 -31.5t51 -52.5t19 -73.5q0 -15 -7 -32.5t-18 -36t-25 -37t-28 -35.5h125v-111h-411q-45 0 -74.5 -14.5t-29.5 -35.5t25.5 -33.5t64.5 -12.5h92v-121h-95q-46 0 -83.5 11.5 t-64 33.5t-41 53t-14.5 69q0 66 49 109.5t136 51.5zM407 315q-33 0 -57.5 -6.5t-40.5 -16t-24 -20.5t-8 -20q0 -12 12.5 -30.5t32 -38t42.5 -38.5t43 -34q20 15 41 34t38.5 38.5t28.5 38t11 30.5q0 9 -6 20t-20.5 20.5t-37 16t-55.5 6.5z" glyph-name="ayn_fina_comp"/>
<glyph horiz-adv-x="632" d="M280 0q-45 0 -74.5 -14.5t-29.5 -35.5t25.5 -33.5t64.5 -12.5h92v-121h-95q-46 0 -83.5 11.5t-64 33.5t-41 53t-14.5 69q0 66 50 110t139 51q-8 25 -12 49t-4 41q0 52 16 93t44.5 68.5t66.5 42t82 14.5q38 0 68 -8t59 -25v-114q-28 23 -55.5 32t-58.5 9q-43 0 -74 -30.5 t-31 -84.5q0 -18 8.5 -42.5t25.5 -44.5h198v-111h-302z" glyph-name="ayn_fina_iso_comp"/>
<glyph horiz-adv-x="721" d="M530 111v82q0 23 -3 42.5t-11.5 34t-23 22.5t-37.5 8q-26 0 -60.5 -7.5t-70.5 -27t-68.5 -54.5t-52.5 -90v-10h327zM730 0h-739v111h96v569h116v-354q21 20 52 36t66 27.5t71 17.5t68 6q49 0 84 -10.5t57.5 -35t33.5 -64.5t11 -99v-93h84v-111z" glyph-name="tah_mid_comp"/>
<glyph horiz-adv-x="726" d="M530 111v82q0 23 -3 42.5t-11.5 34t-23 22.5t-37.5 8q-26 0 -60.5 -7.5t-70.5 -27t-68.5 -54.5t-52.5 -90v-10h327zM87 111v569h116v-354q21 20 52 36t66 27.5t71 17.5t68 6q49 0 84 -10.5t57.5 -35t33.5 -64.5t11 -99v-204h-655v111h96z" glyph-name="tah_ini_comp"/>
<glyph horiz-adv-x="780" d="M589 111v82q0 23 -3 42.5t-11.5 34t-23 22.5t-37.5 8q-26 0 -60.5 -7.5t-70.5 -27t-68.5 -54.5t-52.5 -90v-10h327zM789 0h-739v111h96v569h116v-354q21 20 52 36t66 27.5t71 17.5t68 6q49 0 84 -10.5t57.5 -35t33.5 -64.5t11 -99v-93h84v-111z" glyph-name="tah_fina_comp"/>
<glyph horiz-adv-x="785" d="M589 111v82q0 23 -3 42.5t-11.5 34t-23 22.5t-37.5 8q-26 0 -60.5 -7.5t-70.5 -27t-68.5 -54.5t-52.5 -90v-10h327zM146 111v569h116v-354q21 20 52 36t66 27.5t71 17.5t68 6q49 0 84 -10.5t57.5 -35t33.5 -64.5t11 -99v-204h-655v111h96z" glyph-name="tah_fina_iso_comp"/>
<glyph horiz-adv-x="721" d="M530 111v82q0 23 -3 42.5t-11.5 34t-23 22.5t-37.5 8q-26 0 -60.5 -7.5t-70.5 -27t-68.5 -54.5t-52.5 -90v-10h327zM730 0h-739v111h96v275h116v-60q21 20 52 36t66 27.5t71 17.5t68 6q49 0 84 -10.5t57.5 -35t33.5 -64.5t11 -99v-93h84v-111z" glyph-name="sad_midi_comp"/>
<glyph horiz-adv-x="1132" d="M940 111v82q0 23 -3 42.5t-11.5 34t-23 22.5t-37.5 8q-25 0 -59 -7t-69 -25.5t-67 -51t-53 -84.5v-21h323zM1141 0h-524v-147q-26 -6 -61.5 -12t-72.5 -10.5t-71.5 -7.5t-58.5 -3q-53 0 -105 10t-94 34.5t-68 67t-26 108.5v145h122v-140q0 -33 16 -54t40.5 -32.5t55 -16 t59.5 -4.5h32.5t39.5 1t39.5 1.5t32.5 2.5v443h116v-60q21 20 52 36t66 27.5t71 17.5t68 6q49 0 84 -10.5t57.5 -35t33.5 -64.5t11 -99v-93h85v-111z" glyph-name="sad_fina_comp"/>
<glyph horiz-adv-x="726" d="M530 111v82q0 23 -3 42.5t-11.5 34t-23 22.5t-37.5 8q-26 0 -60.5 -7.5t-70.5 -27t-68.5 -54.5t-52.5 -90v-10h327zM646 0h-655v111h96v275h116v-60q21 20 52 36t66 27.5t71 17.5t68 6q49 0 84 -10.5t57.5 -35t33.5 -64.5t11 -99v-204z" glyph-name="sad_ini_comp"/>
<glyph horiz-adv-x="1136" d="M940 111v82q0 23 -3 42.5t-11.5 34t-23 22.5t-37.5 8q-25 0 -59 -7t-69 -25.5t-67 -51t-53 -84.5v-21h323zM1056 0h-439v-147q-26 -6 -61.5 -12t-72.5 -10.5t-71.5 -7.5t-58.5 -3q-53 0 -105 10t-94 34.5t-68 67t-26 108.5v145h122v-140q0 -33 16 -54t40.5 -32.5t55 -16 t59.5 -4.5h32.5t39.5 1t39.5 1.5t32.5 2.5v443h116v-60q21 20 52 36t66 27.5t71 17.5t68 6q49 0 84 -10.5t57.5 -35t33.5 -64.5t11 -99v-204z" glyph-name="sad_iso_comp"/>
<glyph horiz-adv-x="830" d="M-9 0v111h39q30 0 51 9.5t21 40.5v252h120v-252q0 -22 -3 -40q16 -7 36.5 -11t41.5 -4q68 0 68 71v236h121v-244q0 -16 -3 -27t-6 -19q15 -8 37.5 -12.5t46.5 -4.5q68 0 68 71v236h121v-241q0 -49 -12 -82t-34.5 -53t-54.5 -28.5t-72 -8.5q-49 0 -85 10.5t-66 24.5 q-20 -17 -52 -26t-71 -9q-77 0 -155 23q-23 -12 -52.5 -17.5t-64.5 -5.5h-40z" glyph-name="seen_ini_comp"/>
<glyph horiz-adv-x="889" d="M577 0q-49 0 -85 10.5t-66 24.5q-20 -17 -52 -26t-71 -9q-77 0 -155 23q-23 -12 -52.5 -17.5t-64.5 -5.5h-40v111h39q30 0 51 9.5t21 40.5v252h120v-252q0 -22 -3 -40q16 -7 36.5 -11t41.5 -4q68 0 68 71v236h121v-244q0 -16 -3 -27t-6 -19q15 -8 37.5 -12.5t46.5 -4.5 q35 0 51.5 20.5t16.5 55.5v231h120v-239q0 -16 -3 -27t-6 -19q15 -8 37.5 -12.5t46.5 -4.5h74v-111h-58q-49 0 -85 10.5t-66 24.5q-18 -15 -47.5 -24t-64.5 -11z" glyph-name="seen_medi_comp"/>
<glyph horiz-adv-x="1304" d="M992 0q-49 0 -85 10.5t-66 24.5q-20 -17 -52 -26t-71 -9q-41 0 -81 6v-153q-26 -6 -61.5 -12t-72.5 -10.5t-71.5 -7.5t-58.5 -3q-53 0 -105 10t-94 34.5t-68 67t-26 108.5v145h122v-140q0 -33 16 -54t40.5 -32.5t55 -16t59.5 -4.5h32.5t39.5 1t39.5 1.5t32.5 2.5v470h120 v-294q32 -13 75 -13q68 0 68 71v236h121v-244q0 -16 -3 -27t-6 -19q15 -8 37.5 -12.5t46.5 -4.5q35 0 51.5 20.5t16.5 55.5v231h120v-239q0 -16 -3 -27t-6 -19q15 -8 37.5 -12.5t46.5 -4.5h74v-111h-58q-49 0 -85 10.5t-66 24.5q-18 -15 -47.5 -24t-64.5 -11z" glyph-name="seen_fina_comp"/>
<glyph horiz-adv-x="1245" d="M637 -147q-26 -6 -61.5 -12t-72.5 -10.5t-71.5 -7.5t-58.5 -3q-53 0 -105 10t-94 34.5t-68 67t-26 108.5v145h122v-140q0 -33 16 -54t40.5 -32.5t55 -16t59.5 -4.5h32.5t39.5 1t39.5 1.5t32.5 2.5v470h120v-294q32 -13 75 -13q68 0 68 71v236h121v-244q0 -16 -3 -27 t-6 -19q15 -8 37.5 -12.5t46.5 -4.5q68 0 68 71v236h121v-241q0 -49 -12 -82t-34.5 -53t-54.5 -28.5t-72 -8.5q-49 0 -85 10.5t-66 24.5q-20 -17 -52 -26t-71 -9q-41 0 -81 6v-153z" glyph-name="seen_iso_comp"/>
<glyph horiz-adv-x="338" d="M138 413h120v-302h89v-111h-89v-68q0 -77 -45 -113t-116 -36q-23 0 -44 4.5t-38 10.5v101q17 -6 34 -10t31 -4q27 0 42.5 13.5t15.5 51.5v463z" glyph-name="ra_midi_comp"/>
<glyph horiz-adv-x="338" d="M138 413h120v-481q0 -77 -45 -113t-116 -36q-23 0 -44 4.5t-38 10.5v101q17 -6 34 -10t31 -4q27 0 42.5 13.5t15.5 51.5v463z" glyph-name="ra_iso_comp"/>
<glyph horiz-adv-x="493" d="M40 111h268v127q0 19 -6.5 31.5t-17 19t-24 9t-26.5 2.5h-25q-14 0 -31 -1.5t-35.5 -4.5t-36 -7.5t-32.5 -10.5v108q29 14 69.5 21.5t74.5 7.5h25q42 0 76 -9t58 -28.5t37 -51t13 -75.5v-138h75v-111h-462v111z" glyph-name="da_medi_comp"/>
<glyph horiz-adv-x="487" d="M40 111h268v127q0 19 -6.5 31.5t-17 19t-24 9t-26.5 2.5h-25q-14 0 -31 -1.5t-35.5 -4.5t-36 -7.5t-32.5 -10.5v108q29 14 69.5 21.5t74.5 7.5h25q42 0 76 -9t58 -28.5t37 -51t13 -75.5v-249h-387v111z" glyph-name="da_iso_comp"/>
<glyph horiz-adv-x="530" d="M-9 111h340v127q0 19 -6.5 31.5t-17 19t-24 9t-26.5 2.5h-63q-14 0 -31 -1.5t-35.5 -4.5t-36 -7.5t-32.5 -10.5v108q29 14 69.5 21.5t74.5 7.5h63q42 0 76 -9t58 -28.5t37 -51t13 -75.5v-138h89v-111h-548v111z" glyph-name="kha_medi_comp"/>
</font>
</defs>
</svg>
