<?xml version="1.0" standalone="no"?>
<!DOCTYPE svg PUBLIC "-//W3C//DTD SVG 1.1//EN" "http://www.w3.org/Graphics/SVG/1.1/DTD/svg11.dtd" >
<svg xmlns="http://www.w3.org/2000/svg" xmlns:xlink="http://www.w3.org/1999/xlink" version="1.1">
<metadata>
Created by FontForge 20170924 at Fri Jun 16 23:29:01 2017
 By www-data
Copyright \(c\) 2017 by 29Letters. All rights reserved.
</metadata>
<defs>
<font id="29LTBukra-Rg" horiz-adv-x="0" >
  <font-face 
    font-family="29LT Bukra Rg"
    font-weight="400"
    font-stretch="normal"
    units-per-em="1000"
    panose-1="0 0 5 0 0 0 0 0 0 0"
    ascent="800"
    descent="-200"
    x-height="556"
    cap-height="811"
    bbox="-830 -449 1937 1091"
    underline-thickness="50"
    underline-position="-100"
    stemh="67"
    stemv="98"
    unicode-range="U+000D-FEFC"
  />
<missing-glyph horiz-adv-x="500" 
 />
    <glyph glyph-name="T_T.liga" unicode="TT" horiz-adv-x="1258" 
d="M1230 811v-93h-268v-718h-99v718h-467v-718h-99v718h-269v93h1202z" />
    <glyph glyph-name="f_b.liga" unicode="fb" horiz-adv-x="1068" 
d="M705 569c188 0 311 -106 311 -291v-1c0 -180 -115 -294 -312 -294c-67 0 -150 15 -214 35v701h-144c-77 0 -112 -26 -112 -105v-58h208v-92h-208v-464h-100v464h-107v92h107v73c0 139 67 182 218 182h238v-252c40 6 79 10 115 10zM920 276v2c0 119 -75 201 -212 201
c-35 0 -74 -5 -118 -16v-377c39 -9 84 -13 117 -13c130 0 213 77 213 203z" />
    <glyph glyph-name="f_h.liga" unicode="fh" horiz-adv-x="1068" 
d="M979 0h-100v344c0 97 -55 131 -147 131c-39 0 -90 -5 -142 -15v-460h-100v719h-144c-77 0 -112 -26 -112 -105v-58h208v-92h-208v-464h-100v464h-107v92h107v73c0 139 67 182 218 182h238v-252c57 7 110 12 147 12c134 0 241 -49 241 -208c0 -121 1 -242 1 -363z" />
    <glyph glyph-name="f_k.liga" unicode="fk" horiz-adv-x="980" 
d="M966 0h-128l-248 272v-272h-100v719h-144c-77 0 -112 -26 -112 -105v-58h208v-92h-208v-464h-100v464h-107v92h107v73c0 139 67 182 218 182h238v-528l240 273h117l-240 -273z" />
    <glyph glyph-name="f_t.liga" unicode="ft" horiz-adv-x="867" 
d="M733 91h94v-91h-127c-146 0 -192 58 -192 175v291h-34v-2h-240v-464h-100v464h-107v92h107v61c0 139 67 182 218 182h67v-92h-73c-77 0 -112 -26 -112 -105v-46h274v203h98v-203h219v-90h-219v-261c0 -89 43 -114 127 -114z" />
    <glyph glyph-name="fi" unicode="fi" horiz-adv-x="638" 
d="M548 556v-556h-100v464h-214v-464h-99v464h-108v92h108v73c0 143 69 182 218 182h190v-92h-187c-87 0 -122 -24 -122 -111v-52h314z" />
    <glyph glyph-name="fl" unicode="fl" horiz-adv-x="679" 
d="M590 811v-811h-100v719h-144c-77 0 -112 -26 -112 -105v-58h208v-92h-208v-464h-100v464h-107v92h107v73c0 139 67 182 218 182h238z" />
    <glyph glyph-name="uni067E067E.init" unicode="&#xfb58;&#xfb59;" horiz-adv-x="889" 
d="M0 0v98h160v458h98v-458h465v458h98v-556h-821zM190 -182c0 -40 -32 -63 -68 -63s-68 23 -68 63c0 37 30 63 68 63c39 0 68 -26 68 -63zM303 -119c39 0 68 -26 68 -63c0 -40 -31 -63 -68 -63c-36 0 -68 23 -68 63c0 37 30 63 68 63zM661 -182c0 -40 -32 -63 -68 -63
s-68 23 -68 63c0 37 30 63 68 63c39 0 68 -26 68 -63zM774 -119c39 0 68 -26 68 -63c0 -40 -31 -63 -68 -63c-36 0 -68 23 -68 63c0 37 30 63 68 63zM213 -258c35 0 61 -23 61 -56c0 -36 -27 -57 -61 -57c-31 0 -61 21 -61 57c0 33 27 56 61 56zM684 -258
c35 0 61 -23 61 -56c0 -36 -27 -57 -61 -57c-31 0 -61 21 -61 57c0 33 27 56 61 56z" />
    <glyph glyph-name="uniFEFB" unicode="&#xfedf;&#xfe8e;" horiz-adv-x="682" arabic-form="isolated" 
d="M47 0l-19 98h285c117 0 184 56 184 158v629h98v-621c0 -175 -100 -264 -293 -264h-255zM188 172v538h98v-538h-98z" />
    <glyph glyph-name="uniFEFC" unicode="&#xfee0;&#xfe8e;" horiz-adv-x="739" arabic-form="final" 
d="M595 267c0 -116 57 -169 164 -169v-98c-101 0 -175 41 -201 112c-45 -75 -131 -112 -256 -112h-255l-19 98h285c117 0 184 56 184 158v629h98v-618zM286 710v-538h-98v538h98z" />
    <glyph glyph-name="uniFEF7" unicode="&#xfedf;&#xfe84;" horiz-adv-x="682" arabic-form="isolated" 
d="M162 787v72c0 61 37 102 101 102h21v-55h-27c-25 0 -37 -17 -37 -42v-18h91v-59h-149zM47 0l-19 98h285c117 0 184 56 184 158v629h98v-621c0 -175 -100 -264 -293 -264h-255zM188 172v538h98v-538h-98z" />
    <glyph glyph-name="uniFEF8" unicode="&#xfee0;&#xfe84;" horiz-adv-x="739" arabic-form="final" 
d="M311 846v-59h-149v72c0 61 37 102 101 102h21v-55h-27c-25 0 -37 -17 -37 -42v-18h91zM595 267c0 -116 57 -169 164 -169v-98c-101 0 -175 41 -201 112c-45 -75 -131 -112 -256 -112h-255l-19 98h285c117 0 184 56 184 158v629h98v-618zM286 172h-98v538h98v-538z" />
    <glyph glyph-name="uniFEF9" unicode="&#xfedf;&#xfe88;" horiz-adv-x="682" arabic-form="isolated" 
d="M47 0l-19 98h285c117 0 184 56 184 158v629h98v-621c0 -175 -100 -264 -293 -264h-255zM188 172v538h98v-538h-98zM167 -239v72c0 61 38 102 102 102h29v-55h-35c-25 0 -37 -17 -37 -42v-18h100v-59h-159z" />
    <glyph glyph-name="uniFEFA" unicode="&#xfee0;&#xfe88;" horiz-adv-x="739" arabic-form="final" 
d="M595 267c0 -116 57 -169 164 -169v-98c-101 0 -175 41 -201 112c-45 -75 -131 -112 -256 -112h-255l-19 98h285c117 0 184 56 184 158v629h98v-618zM286 710v-538h-98v538h98zM226 -162v-18h100v-59h-159v72c0 61 38 102 102 102h29v-55h-35c-25 0 -37 -17 -37 -42z" />
    <glyph glyph-name="uniFEF5" unicode="&#xfedf;&#xfe82;" horiz-adv-x="682" arabic-form="isolated" 
d="M47 0l-19 98h285c117 0 184 56 184 158v629h98v-621c0 -175 -100 -264 -293 -264h-255zM147 755v66h180v-66h-180zM188 172v538h98v-538h-98z" />
    <glyph glyph-name="uniFEF6" unicode="&#xfee0;&#xfe82;" horiz-adv-x="739" arabic-form="final" 
d="M595 267c0 -116 57 -169 164 -169v-98c-101 0 -175 41 -201 112c-45 -75 -131 -112 -256 -112h-255l-19 98h285c117 0 184 56 184 158v629h98v-618zM327 821v-66h-180v66h180zM286 172h-98v538h98v-538z" />
    <glyph glyph-name="uni06440671" unicode="&#xfedf;&#xfb51;" horiz-adv-x="682" 
d="M124 753v68c0 66 38 100 110 100h5c72 0 110 -34 110 -100v-68h-225zM47 0l-19 98h285c117 0 184 56 184 158v629h98v-621c0 -175 -100 -264 -293 -264h-255zM194 812h85v14c0 26 -14 39 -40 39h-5c-27 0 -40 -13 -40 -39v-14zM188 172v538h98v-538h-98z" />
    <glyph glyph-name="uni06440671.fina" unicode="&#xfee0;&#xfb51;" horiz-adv-x="739" 
d="M349 821v-68h-225v68c0 66 38 100 110 100h5c72 0 110 -34 110 -100zM595 267c0 -116 57 -169 164 -169v-98c-101 0 -175 41 -201 112c-45 -75 -131 -112 -256 -112h-255l-19 98h285c117 0 184 56 184 158v629h98v-618zM279 812v14c0 26 -14 39 -40 39h-5
c-27 0 -40 -13 -40 -39v-14h85zM286 172h-98v538h98v-538z" />
    <glyph glyph-name="uniFC5A.init" unicode="&#xfef3;&#xfef4;" horiz-adv-x="889" 
d="M0 0v98h160v458h98v-458h465v458h98v-556h-821zM118 -111c40 0 70 -26 70 -64c0 -41 -32 -65 -70 -65c-37 0 -70 24 -70 65c0 38 31 64 70 64zM303 -111c40 0 70 -26 70 -64c0 -41 -32 -65 -70 -65c-37 0 -70 24 -70 65c0 38 31 64 70 64zM589 -111c40 0 70 -26 70 -64
c0 -41 -32 -65 -70 -65c-37 0 -70 24 -70 65c0 38 31 64 70 64zM774 -111c40 0 70 -26 70 -64c0 -41 -32 -65 -70 -65c-37 0 -70 24 -70 65c0 38 31 64 70 64z" />
    <glyph glyph-name="uniFE8E" unicode="&#x627;" horiz-adv-x="340" arabic-form="final" 
d="M185 98h175v-98h-273v811h98v-713z" />
    <glyph glyph-name="uniFE84" unicode="&#x623;" horiz-adv-x="340" arabic-form="final" 
d="M210 827v-59h-149v72c0 61 37 102 101 102h21v-55h-27c-25 0 -37 -17 -37 -42v-18h91zM185 98h175v-98h-273v691h98v-593z" />
    <glyph glyph-name="uniFE88" unicode="&#x625;" horiz-adv-x="340" arabic-form="final" 
d="M185 98h175v-98h-273v811h98v-713zM175 -162v-18h100v-59h-159v72c0 61 38 102 102 102h29v-55h-35c-25 0 -37 -17 -37 -42z" />
    <glyph glyph-name="uniFE82" unicode="&#x622;" horiz-adv-x="340" arabic-form="final" 
d="M226 922v-66h-180v66h180zM185 98h175v-98h-273v811h98v-713z" />
    <glyph glyph-name="uniFB51" unicode="&#x671;" horiz-adv-x="340" arabic-form="final" 
d="M248 802v-68h-225v68c0 66 38 100 110 100h5c72 0 110 -34 110 -100zM178 793v14c0 26 -14 39 -40 39h-5c-27 0 -40 -13 -40 -39v-14h85zM185 98h175v-98h-273v691h98v-593z" />
    <glyph glyph-name="uni066E.init" unicode="&#x66e;" horiz-adv-x="268" 
d="M0 0v98h102v458h98v-556h-200z" />
    <glyph glyph-name="uni066E.medi" unicode="&#x66e;" horiz-adv-x="302" 
d="M200 98h122v-98h-322v98h102v458h98v-458z" />
    <glyph glyph-name="uni066E.fina" unicode="&#x66e;" horiz-adv-x="839" 
d="M737 98h122v-98h-509c-202 0 -296 98 -296 281v188h98v-178c0 -138 85 -193 218 -193h269v458h98v-458z" />
    <glyph glyph-name="uniFE90" unicode="&#x628;" horiz-adv-x="839" arabic-form="final" 
d="M737 98h122v-98h-509c-202 0 -296 98 -296 281v188h98v-178c0 -138 85 -193 218 -193h269v458h98v-458zM441 -111c38 0 70 -26 70 -64c0 -43 -34 -66 -70 -66c-38 0 -71 23 -71 66c0 38 31 64 71 64z" />
    <glyph glyph-name="uniFE92" unicode="&#x628;" horiz-adv-x="302" arabic-form="medial" 
d="M200 98h122v-98h-322v98h102v458h98v-458zM153 -112c38 0 70 -26 70 -64c0 -43 -34 -66 -70 -66c-38 0 -71 23 -71 66c0 38 31 64 71 64z" />
    <glyph glyph-name="uniFE91" unicode="&#x628;" horiz-adv-x="268" arabic-form="initial" 
d="M0 0v98h102v458h98v-556h-200zM100 -241c-38 0 -71 23 -71 66c0 38 31 64 71 64c38 0 70 -26 70 -64c0 -43 -34 -66 -70 -66z" />
    <glyph glyph-name="uniFB57" unicode="&#x67e;" horiz-adv-x="839" arabic-form="final" 
d="M737 98h122v-98h-509c-202 0 -296 98 -296 281v188h98v-178c0 -138 85 -193 218 -193h269v458h98v-458zM418 -182c0 -40 -32 -63 -68 -63s-68 23 -68 63c0 37 30 63 68 63c39 0 68 -26 68 -63zM531 -119c39 0 68 -26 68 -63c0 -40 -31 -63 -68 -63c-36 0 -68 23 -68 63
c0 37 30 63 68 63zM441 -258c35 0 61 -23 61 -56c0 -36 -27 -57 -61 -57c-31 0 -61 21 -61 57c0 33 27 56 61 56z" />
    <glyph glyph-name="uniFB59" unicode="&#x67e;" horiz-adv-x="417" arabic-form="medial" 
d="M437 98v-98h-437v98h160v458h98v-458h179zM190 -182c0 -40 -32 -63 -68 -63s-68 23 -68 63c0 37 30 63 68 63c39 0 68 -26 68 -63zM303 -119c39 0 68 -26 68 -63c0 -40 -31 -63 -68 -63c-36 0 -68 23 -68 63c0 37 30 63 68 63zM213 -258c35 0 61 -23 61 -56
c0 -36 -27 -57 -61 -57c-31 0 -61 21 -61 57c0 33 27 56 61 56z" />
    <glyph glyph-name="uniFB58" unicode="&#x67e;" horiz-adv-x="360" arabic-form="initial" 
d="M0 0v98h194v458h98v-556h-292zM64 -245c-36 0 -68 23 -68 63c0 37 30 63 68 63c39 0 68 -26 68 -63c0 -40 -32 -63 -68 -63zM245 -245c-36 0 -68 23 -68 63c0 37 30 63 68 63c39 0 68 -26 68 -63c0 -40 -31 -63 -68 -63zM155 -371c-31 0 -61 21 -61 57c0 33 27 56 61 56
c35 0 61 -23 61 -56c0 -36 -27 -57 -61 -57z" />
    <glyph glyph-name="uniFE96" unicode="&#x62a;" horiz-adv-x="839" arabic-form="final" 
d="M315 624c-37 0 -70 24 -70 65c0 38 31 65 70 65c40 0 70 -27 70 -65c0 -41 -32 -65 -70 -65zM500 624c-37 0 -70 24 -70 65c0 38 31 65 70 65c40 0 70 -27 70 -65c0 -41 -32 -65 -70 -65zM737 98h122v-98h-509c-202 0 -296 98 -296 281v188h98v-178
c0 -138 85 -193 218 -193h269v458h98v-458z" />
    <glyph glyph-name="uniFE98" unicode="&#x62a;" horiz-adv-x="417" arabic-form="medial" 
d="M119 666c-37 0 -70 24 -70 65c0 38 31 65 70 65c40 0 70 -27 70 -65c0 -41 -32 -65 -70 -65zM304 666c-37 0 -70 24 -70 65c0 38 31 65 70 65c40 0 70 -27 70 -65c0 -41 -32 -65 -70 -65zM437 98v-98h-437v98h160v458h98v-458h179z" />
    <glyph glyph-name="uniFE97" unicode="&#x62a;" horiz-adv-x="437" arabic-form="initial" 
d="M157 666c-37 0 -70 24 -70 65c0 38 31 65 70 65c40 0 70 -27 70 -65c0 -41 -32 -65 -70 -65zM342 666c-37 0 -70 24 -70 65c0 38 31 65 70 65c40 0 70 -27 70 -65c0 -41 -32 -65 -70 -65zM0 0v98h194v458h98v-556h-292z" />
    <glyph glyph-name="uniFE9A" unicode="&#x62b;" horiz-adv-x="839" arabic-form="final" 
d="M408 761c-31 0 -61 21 -61 57c0 33 27 56 61 56c35 0 61 -23 61 -56c0 -36 -28 -57 -61 -57zM317 624c-36 0 -68 23 -68 63c0 37 30 63 68 63c39 0 68 -26 68 -63c0 -40 -32 -63 -68 -63zM430 687c0 37 30 63 68 63c39 0 68 -26 68 -63c0 -40 -31 -63 -68 -63
c-36 0 -68 23 -68 63zM737 98h122v-98h-509c-202 0 -296 98 -296 281v188h98v-178c0 -138 85 -193 218 -193h269v458h98v-458z" />
    <glyph glyph-name="uniFE9C" unicode="&#x62b;" horiz-adv-x="417" arabic-form="medial" 
d="M212 803c-31 0 -61 21 -61 57c0 33 27 56 61 56c35 0 61 -23 61 -56c0 -36 -28 -57 -61 -57zM121 666c-36 0 -68 23 -68 63c0 37 30 63 68 63c39 0 68 -26 68 -63c0 -40 -32 -63 -68 -63zM234 729c0 37 30 63 68 63c39 0 68 -26 68 -63c0 -40 -31 -63 -68 -63
c-36 0 -68 23 -68 63zM437 98v-98h-437v98h160v458h98v-458h179z" />
    <glyph glyph-name="uniFE9B" unicode="&#x62b;" horiz-adv-x="432" arabic-form="initial" 
d="M250 817c-31 0 -61 21 -61 57c0 33 27 56 61 56c35 0 61 -23 61 -56c0 -36 -28 -57 -61 -57zM159 680c-36 0 -68 23 -68 63c0 37 30 63 68 63c39 0 68 -26 68 -63c0 -40 -32 -63 -68 -63zM340 680c-36 0 -68 23 -68 63c0 37 30 63 68 63c39 0 68 -26 68 -63
c0 -40 -31 -63 -68 -63zM0 0v98h194v458h98v-556h-292z" />
    <glyph glyph-name="uniFB67" unicode="&#x679;" horiz-adv-x="839" arabic-form="final" 
d="M521 661v-69h-226v203h74v-40h53c60 0 99 -37 99 -94zM447 651v18c0 20 -11 31 -32 31h-46v-49h78zM737 98h122v-98h-509c-202 0 -296 98 -296 281v188h98v-178c0 -138 85 -193 218 -193h269v458h98v-458z" />
    <glyph glyph-name="uniFB69" unicode="&#x679;" horiz-adv-x="417" arabic-form="medial" 
d="M325 703v-69h-226v203h74v-40h53c60 0 99 -37 99 -94zM251 693v18c0 20 -11 31 -32 31h-46v-49h78zM437 98v-98h-437v98h160v458h98v-458h179z" />
    <glyph glyph-name="uniFB68" unicode="&#x679;" horiz-adv-x="378" arabic-form="initial" 
d="M148 630v203h74v-40h53c60 0 99 -37 99 -94v-69h-226zM222 689h78v18c0 20 -11 31 -32 31h-46v-49zM0 0v98h194v458h98v-556h-292z" />
    <glyph glyph-name="uniFE9E" unicode="&#x62c;" horiz-adv-x="645" arabic-form="final" 
d="M545 98h120v-98h-373c-63 0 -95 -24 -122 -90l-56 -139l-89 34l62 153c40 102 94 140 196 140h165c14 57 23 127 23 180c0 121 -69 195 -181 195c-57 0 -98 -12 -160 -49l-35 90c72 38 133 57 202 57c173 0 267 -112 267 -298c0 -54 -8 -117 -19 -175zM347 -133
c38 0 70 -26 70 -65c0 -43 -34 -66 -70 -66c-38 0 -71 23 -71 66c0 39 31 65 71 65z" />
    <glyph glyph-name="uniFEA0" unicode="&#x62c;" horiz-adv-x="604" arabic-form="medial" 
d="M504 98h120v-98h-624v98h407c14 57 23 127 23 180c0 121 -69 195 -181 195c-57 0 -98 -12 -160 -49l-35 90c72 38 133 57 202 57c173 0 267 -112 267 -298c0 -54 -8 -117 -19 -175zM269 -111c38 0 70 -26 70 -64c0 -43 -34 -66 -70 -66c-38 0 -71 23 -71 66
c0 38 31 64 71 64z" />
    <glyph glyph-name="uniFE9F" unicode="&#x62c;" horiz-adv-x="577" arabic-form="initial" 
d="M256 571c173 0 267 -112 267 -298c0 -88 -20 -198 -42 -273h-481v98h407c14 57 23 127 23 180c0 121 -69 195 -181 195c-57 0 -98 -12 -160 -49l-35 90c72 38 133 57 202 57zM269 -111c38 0 70 -26 70 -64c0 -43 -34 -66 -70 -66c-38 0 -71 23 -71 66c0 38 31 64 71 64z
" />
    <glyph glyph-name="uniFB7B" unicode="&#x686;" horiz-adv-x="699" arabic-form="final" 
d="M599 98h120v-98h-403c-81 0 -130 -29 -172 -96l-42 -64l-77 56l51 75c59 89 125 127 231 127h195c14 57 23 127 23 180c0 121 -69 195 -181 195c-57 0 -98 -12 -160 -49l-35 90c72 38 133 57 202 57c173 0 267 -112 267 -298c0 -54 -8 -117 -19 -175zM385 -187
c0 -40 -32 -63 -68 -63s-68 23 -68 63c0 37 30 63 68 63c39 0 68 -26 68 -63zM498 -124c39 0 68 -26 68 -63c0 -40 -31 -63 -68 -63c-36 0 -68 23 -68 63c0 37 30 63 68 63zM408 -263c35 0 61 -23 61 -56c0 -36 -27 -57 -61 -57c-31 0 -61 21 -61 57c0 33 27 56 61 56z" />
    <glyph glyph-name="uniFB7D" unicode="&#x686;" horiz-adv-x="604" arabic-form="medial" 
d="M504 98h120v-98h-624v98h407c14 57 23 127 23 180c0 121 -69 195 -181 195c-57 0 -98 -12 -160 -49l-35 90c72 38 133 57 202 57c173 0 267 -112 267 -298c0 -54 -8 -117 -19 -175zM246 -182c0 -40 -32 -63 -68 -63s-68 23 -68 63c0 37 30 63 68 63c39 0 68 -26 68 -63z
M359 -119c39 0 68 -26 68 -63c0 -40 -31 -63 -68 -63c-36 0 -68 23 -68 63c0 37 30 63 68 63zM269 -258c35 0 61 -23 61 -56c0 -36 -27 -57 -61 -57c-31 0 -61 21 -61 57c0 33 27 56 61 56z" />
    <glyph glyph-name="uniFB7C" unicode="&#x686;" horiz-adv-x="577" arabic-form="initial" 
d="M256 571c173 0 267 -112 267 -298c0 -88 -20 -198 -42 -273h-481v98h407c14 57 23 127 23 180c0 121 -69 195 -181 195c-57 0 -98 -12 -160 -49l-35 90c72 38 133 57 202 57zM246 -182c0 -40 -32 -63 -68 -63s-68 23 -68 63c0 37 30 63 68 63c39 0 68 -26 68 -63z
M359 -119c39 0 68 -26 68 -63c0 -40 -31 -63 -68 -63c-36 0 -68 23 -68 63c0 37 30 63 68 63zM269 -258c35 0 61 -23 61 -56c0 -36 -27 -57 -61 -57c-31 0 -61 21 -61 57c0 33 27 56 61 56z" />
    <glyph glyph-name="uniFEA2" unicode="&#x62d;" horiz-adv-x="645" arabic-form="final" 
d="M545 98h120v-98h-373c-63 0 -95 -24 -122 -90l-56 -139l-89 34l62 153c40 102 94 140 196 140h165c14 57 23 127 23 180c0 121 -69 195 -181 195c-57 0 -98 -12 -160 -49l-35 90c72 38 133 57 202 57c173 0 267 -112 267 -298c0 -54 -8 -117 -19 -175z" />
    <glyph glyph-name="uniFEA4" unicode="&#x62d;" horiz-adv-x="604" arabic-form="medial" 
d="M504 98h120v-98h-624v98h407c14 57 23 127 23 180c0 121 -69 195 -181 195c-57 0 -98 -12 -160 -49l-35 90c72 38 133 57 202 57c173 0 267 -112 267 -298c0 -54 -8 -117 -19 -175z" />
    <glyph glyph-name="uniFEA3" unicode="&#x62d;" horiz-adv-x="577" arabic-form="initial" 
d="M256 571c173 0 267 -112 267 -298c0 -88 -20 -198 -42 -273h-481v98h407c14 57 23 127 23 180c0 121 -69 195 -181 195c-57 0 -98 -12 -160 -49l-35 90c72 38 133 57 202 57z" />
    <glyph glyph-name="uniFEA6" unicode="&#x62e;" horiz-adv-x="645" arabic-form="final" 
d="M317 688c-38 0 -71 23 -71 65c0 39 31 65 71 65c38 0 70 -26 70 -65c0 -42 -34 -65 -70 -65zM545 98h120v-98h-373c-63 0 -95 -24 -122 -90l-56 -139l-89 34l62 153c40 102 94 140 196 140h165c14 57 23 127 23 180c0 121 -69 195 -181 195c-57 0 -98 -12 -160 -49
l-35 90c72 38 133 57 202 57c173 0 267 -112 267 -298c0 -54 -8 -117 -19 -175z" />
    <glyph glyph-name="uniFEA8" unicode="&#x62e;" horiz-adv-x="604" arabic-form="medial" 
d="M264 688c-38 0 -71 23 -71 65c0 39 31 65 71 65c38 0 70 -26 70 -65c0 -42 -34 -65 -70 -65zM504 98h120v-98h-624v98h407c14 57 23 127 23 180c0 121 -69 195 -181 195c-57 0 -98 -12 -160 -49l-35 90c72 38 133 57 202 57c173 0 267 -112 267 -298
c0 -54 -8 -117 -19 -175z" />
    <glyph glyph-name="uniFEA7" unicode="&#x62e;" horiz-adv-x="577" arabic-form="initial" 
d="M264 688c-38 0 -71 23 -71 65c0 39 31 65 71 65c38 0 70 -26 70 -65c0 -42 -34 -65 -70 -65zM256 571c173 0 267 -112 267 -298c0 -88 -20 -198 -42 -273h-481v98h407c14 57 23 127 23 180c0 121 -69 195 -181 195c-57 0 -98 -12 -160 -49l-35 90c72 38 133 57 202 57z
" />
    <glyph glyph-name="uniFEAA" unicode="&#x62f;" horiz-adv-x="583" arabic-form="final" 
d="M481 98h122v-98h-575v98h360v211c0 102 -51 149 -145 149h-38v98h24c172 0 252 -87 252 -255v-203z" />
    <glyph glyph-name="uniFEAC" unicode="&#x630;" horiz-adv-x="583" arabic-form="final" 
d="M243 673c-38 0 -71 23 -71 65c0 39 31 65 71 65c38 0 70 -26 70 -65c0 -42 -34 -65 -70 -65zM481 98h122v-98h-575v98h360v211c0 102 -51 149 -145 149h-38v98h24c172 0 252 -87 252 -255v-203z" />
    <glyph glyph-name="uniFB89" unicode="&#x688;" horiz-adv-x="583" arabic-form="final" 
d="M355 703v-69h-226v203h74v-40h53c60 0 99 -37 99 -94zM281 693v18c0 20 -11 31 -32 31h-46v-49h78zM481 98h122v-98h-575v98h360v211c0 102 -51 149 -145 149h-38v98h24c172 0 252 -87 252 -255v-203z" />
    <glyph glyph-name="uniFEAE" unicode="&#x631;" horiz-adv-x="351" arabic-form="final" 
d="M371 98v-98h-118v-5c0 -165 -62 -215 -185 -215c-26 0 -53 4 -78 10l-8 85c30 -4 52 -6 77 -6c59 0 96 29 96 111v576h98v-458h118z" />
    <glyph glyph-name="uniFEB0" unicode="&#x632;" horiz-adv-x="351" arabic-form="final" 
d="M205 673c-38 0 -71 23 -71 65c0 39 31 65 71 65c38 0 70 -26 70 -65c0 -42 -34 -65 -70 -65zM371 98v-98h-118v-5c0 -165 -62 -215 -185 -215c-26 0 -53 4 -78 10l-8 85c30 -4 52 -6 77 -6c59 0 96 29 96 111v576h98v-458h118z" />
    <glyph glyph-name="uniFB8D" unicode="&#x691;" horiz-adv-x="351" arabic-form="final" 
d="M317 703v-69h-226v203h74v-40h53c60 0 99 -37 99 -94zM243 693v18c0 20 -11 31 -32 31h-46v-49h78zM371 98v-98h-118v-5c0 -165 -62 -215 -185 -215c-26 0 -53 4 -78 10l-8 85c30 -4 52 -6 77 -6c59 0 96 29 96 111v576h98v-458h118z" />
    <glyph glyph-name="uniFB8B" unicode="&#x698;" horiz-adv-x="351" arabic-form="final" 
d="M204 803c-31 0 -61 21 -61 57c0 33 27 56 61 56c35 0 61 -23 61 -56c0 -36 -28 -57 -61 -57zM113 666c-36 0 -68 23 -68 63c0 37 30 63 68 63c39 0 68 -26 68 -63c0 -40 -32 -63 -68 -63zM226 729c0 37 30 63 68 63c39 0 68 -26 68 -63c0 -40 -31 -63 -68 -63
c-36 0 -68 23 -68 63zM371 98v-98h-118v-5c0 -165 -62 -215 -185 -215c-26 0 -53 4 -78 10l-8 85c30 -4 52 -6 77 -6c59 0 96 29 96 111v576h98v-458h118z" />
    <glyph glyph-name="uniFEB2" unicode="&#x633;" horiz-adv-x="1473" arabic-form="final" 
d="M1329 267c0 -116 57 -169 164 -169v-98c-95 0 -166 36 -196 99c-37 -73 -110 -109 -217 -109c-98 0 -178 46 -205 123c-33 -72 -101 -113 -198 -113h-102v-125h-225c-193 0 -296 98 -296 277v336h99v-324c0 -138 84 -191 212 -191h112v515h98v-390h101
c82 0 157 46 157 151v239h98v-252c0 -91 59 -147 149 -147c95 0 151 52 151 156v318h98v-296z" />
    <glyph glyph-name="uniFEB4" unicode="&#x633;" horiz-adv-x="1126" arabic-form="medial" 
d="M982 267c0 -116 57 -169 164 -169v-98c-95 0 -166 36 -196 99c-37 -73 -110 -109 -217 -109c-98 0 -178 46 -205 123c-33 -72 -101 -113 -198 -113h-330v98h131v390h98v-390h100c82 0 157 46 157 151v239h98v-252c0 -91 59 -147 149 -147c95 0 151 52 151 156v318h98
v-296z" />
    <glyph glyph-name="uniFEB3" unicode="&#x633;" horiz-adv-x="1039" arabic-form="initial" 
d="M884 563h98v-309c0 -176 -82 -264 -249 -264c-98 0 -178 46 -205 123c-33 -72 -101 -113 -198 -113h-330v98h131v390h98v-390h100c82 0 157 46 157 151v239h98v-252c0 -91 59 -147 149 -147c95 0 151 52 151 156v318z" />
    <glyph glyph-name="uniFEB6" unicode="&#x634;" horiz-adv-x="1473" arabic-form="final" 
d="M883 735c-31 0 -61 21 -61 57c0 33 27 56 61 56c35 0 61 -23 61 -56c0 -36 -28 -57 -61 -57zM792 598c-36 0 -68 23 -68 63c0 37 30 63 68 63c39 0 68 -26 68 -63c0 -40 -32 -63 -68 -63zM905 661c0 37 30 63 68 63c39 0 68 -26 68 -63c0 -40 -31 -63 -68 -63
c-36 0 -68 23 -68 63zM1329 267c0 -116 57 -169 164 -169v-98c-95 0 -166 36 -196 99c-37 -73 -110 -109 -217 -109c-98 0 -178 46 -205 123c-33 -72 -101 -113 -198 -113h-102v-125h-225c-193 0 -296 98 -296 277v336h99v-324c0 -138 84 -191 212 -191h112v515h98v-390h101
c82 0 157 46 157 151v239h98v-252c0 -91 59 -147 149 -147c95 0 151 52 151 156v318h98v-296z" />
    <glyph glyph-name="uniFEB8" unicode="&#x634;" horiz-adv-x="1126" arabic-form="medial" 
d="M533 735c-31 0 -61 21 -61 57c0 33 27 56 61 56c35 0 61 -23 61 -56c0 -36 -28 -57 -61 -57zM442 598c-36 0 -68 23 -68 63c0 37 30 63 68 63c39 0 68 -26 68 -63c0 -40 -32 -63 -68 -63zM555 661c0 37 30 63 68 63c39 0 68 -26 68 -63c0 -40 -31 -63 -68 -63
c-36 0 -68 23 -68 63zM982 267c0 -116 57 -169 164 -169v-98c-95 0 -166 36 -196 99c-37 -73 -110 -109 -217 -109c-98 0 -178 46 -205 123c-33 -72 -101 -113 -198 -113h-330v98h131v390h98v-390h100c82 0 157 46 157 151v239h98v-252c0 -91 59 -147 149 -147
c95 0 151 52 151 156v318h98v-296z" />
    <glyph glyph-name="uniFEB7" unicode="&#x634;" horiz-adv-x="1039" arabic-form="initial" 
d="M533 735c-31 0 -61 21 -61 57c0 33 27 56 61 56c35 0 61 -23 61 -56c0 -36 -28 -57 -61 -57zM442 598c-36 0 -68 23 -68 63c0 37 30 63 68 63c39 0 68 -26 68 -63c0 -40 -32 -63 -68 -63zM555 661c0 37 30 63 68 63c39 0 68 -26 68 -63c0 -40 -31 -63 -68 -63
c-36 0 -68 23 -68 63zM884 563h98v-309c0 -176 -82 -264 -249 -264c-98 0 -178 46 -205 123c-33 -72 -101 -113 -198 -113h-330v98h131v390h98v-390h100c82 0 157 46 157 151v239h98v-252c0 -91 59 -147 149 -147c95 0 151 52 151 156v318z" />
    <glyph glyph-name="uniFEBA" unicode="&#x635;" horiz-adv-x="1217" arabic-form="final" 
d="M1114 98h123v-98h-662v-125h-225c-193 0 -296 98 -296 277v336h99v-324c0 -138 84 -191 212 -191h112v637h98v-54h246c192 0 295 -99 294 -280zM1016 292c1 116 -74 166 -187 166h-254v-360h441v194z" />
    <glyph glyph-name="uniFEBC" unicode="&#x635;" horiz-adv-x="841" arabic-form="medial" 
d="M739 98h122v-98h-861v98h102v512h98v-54h246c192 0 295 -99 294 -280zM641 292c1 116 -74 166 -187 166h-254v-360h441v194z" />
    <glyph glyph-name="uniFEBB" unicode="&#x635;" horiz-adv-x="797" arabic-form="initial" 
d="M446 556c192 0 295 -99 294 -280l-1 -276h-739v98h102v512h98v-54h246zM641 292c1 116 -74 166 -187 166h-254v-360h441v194z" />
    <glyph glyph-name="uniFEBE" unicode="&#x636;" horiz-adv-x="1217" arabic-form="final" 
d="M816 673c-38 0 -71 23 -71 65c0 39 31 65 71 65c38 0 70 -26 70 -65c0 -42 -34 -65 -70 -65zM1114 98h123v-98h-662v-125h-225c-193 0 -296 98 -296 277v336h99v-324c0 -138 84 -191 212 -191h112v637h98v-54h246c192 0 295 -99 294 -280zM1016 292
c1 116 -74 166 -187 166h-254v-360h441v194z" />
    <glyph glyph-name="uniFEC0" unicode="&#x636;" horiz-adv-x="841" arabic-form="medial" 
d="M420 673c-38 0 -71 23 -71 65c0 39 31 65 71 65c38 0 70 -26 70 -65c0 -42 -34 -65 -70 -65zM739 98h122v-98h-861v98h102v512h98v-54h246c192 0 295 -99 294 -280zM641 292c1 116 -74 166 -187 166h-254v-360h441v194z" />
    <glyph glyph-name="uniFEBF" unicode="&#x636;" horiz-adv-x="797" arabic-form="initial" 
d="M420 673c-38 0 -71 23 -71 65c0 39 31 65 71 65c38 0 70 -26 70 -65c0 -42 -34 -65 -70 -65zM446 556c192 0 295 -99 294 -280l-1 -276h-739v98h102v512h98v-54h246zM641 292c1 116 -74 166 -187 166h-254v-360h441v194z" />
    <glyph glyph-name="uniFEC2" unicode="&#x637;" horiz-adv-x="894" arabic-form="final" 
d="M792 98h122v-98h-887l20 98h108v713h98v-255h246c192 0 295 -99 294 -280zM694 292c1 116 -74 166 -187 166h-254v-360h441v194z" />
    <glyph glyph-name="uniFEC4" unicode="&#x637;" horiz-adv-x="845" arabic-form="medial" 
d="M743 98h122v-98h-865v98h106v721h98v-263h246c192 0 295 -99 294 -280zM645 292c1 116 -74 166 -187 166h-254v-360h441v194z" />
    <glyph glyph-name="uniFEC3" unicode="&#x637;" horiz-adv-x="801" arabic-form="initial" 
d="M450 556c192 0 295 -99 294 -280l-1 -276h-743v98h106v721h98v-263h246zM645 292c1 116 -74 166 -187 166h-254v-360h441v194z" />
    <glyph glyph-name="uniFEC6" unicode="&#x638;" horiz-adv-x="894" arabic-form="final" 
d="M792 98h122v-98h-887l20 98h108v713h98v-255h246c192 0 295 -99 294 -280zM505 673c-38 0 -71 23 -71 65c0 39 31 65 71 65c38 0 70 -26 70 -65c0 -42 -34 -65 -70 -65zM694 292c1 116 -74 166 -187 166h-254v-360h441v194z" />
    <glyph glyph-name="uniFEC8" unicode="&#x638;" horiz-adv-x="845" arabic-form="medial" 
d="M743 98h122v-98h-865v98h106v721h98v-263h246c192 0 295 -99 294 -280zM455 673c-38 0 -71 23 -71 65c0 39 31 65 71 65c38 0 70 -26 70 -65c0 -42 -34 -65 -70 -65zM645 292c1 116 -74 166 -187 166h-254v-360h441v194z" />
    <glyph glyph-name="uniFEC7" unicode="&#x638;" horiz-adv-x="801" arabic-form="initial" 
d="M450 556c192 0 295 -99 294 -280l-1 -276h-743v98h106v721h98v-263h246zM455 673c-38 0 -71 23 -71 65c0 39 31 65 71 65c38 0 70 -26 70 -65c0 -42 -34 -65 -70 -65zM645 292c1 116 -74 166 -187 166h-254v-360h441v194z" />
    <glyph glyph-name="uniFECA" unicode="&#x639;" horiz-adv-x="738" arabic-form="final" 
d="M758 98v-98h-463c-63 0 -95 -24 -122 -90l-56 -139l-89 34l62 153c33 84 75 125 146 136l-135 355c91 78 191 122 298 122c108 0 204 -44 298 -123l-133 -350h194zM467 98l121 301c-60 48 -125 74 -189 74c-62 0 -127 -25 -189 -73l117 -302h140z" />
    <glyph glyph-name="uniFECC" unicode="&#x639;" horiz-adv-x="679" arabic-form="medial" 
d="M699 98v-98h-699v98h174l-134 351c91 78 191 122 298 122c108 0 204 -44 298 -123l-133 -350h196zM406 98l121 301c-60 48 -125 74 -189 74c-62 0 -127 -25 -189 -73l117 -302h140z" />
    <glyph glyph-name="uniFECB" unicode="&#x639;" horiz-adv-x="614" arabic-form="initial" 
d="M561 98v-98h-561v98h128c-35 86 -50 154 -50 210c0 168 104 263 258 263c57 0 125 -17 203 -51l-33 -91c-65 30 -114 44 -163 44c-102 0 -172 -67 -172 -181c0 -58 25 -129 68 -194h322z" />
    <glyph glyph-name="uniFECE" unicode="&#x63a;" horiz-adv-x="738" arabic-form="final" 
d="M400 688c-38 0 -71 23 -71 65c0 39 31 65 71 65c38 0 70 -26 70 -65c0 -42 -34 -65 -70 -65zM758 98v-98h-463c-63 0 -95 -24 -122 -90l-56 -139l-89 34l62 153c33 84 75 125 146 136l-135 355c91 78 191 122 298 122c108 0 204 -44 298 -123l-133 -350h194zM467 98
l121 301c-60 48 -125 74 -189 74c-62 0 -127 -25 -189 -73l117 -302h140z" />
    <glyph glyph-name="uniFED0" unicode="&#x63a;" horiz-adv-x="679" arabic-form="medial" 
d="M341 688c-38 0 -71 23 -71 65c0 39 31 65 71 65c38 0 70 -26 70 -65c0 -42 -34 -65 -70 -65zM699 98v-98h-699v98h174l-134 351c91 78 191 122 298 122c108 0 204 -44 298 -123l-133 -350h196zM406 98l121 301c-60 48 -125 74 -189 74c-62 0 -127 -25 -189 -73l117 -302
h140z" />
    <glyph glyph-name="uniFECF" unicode="&#x63a;" horiz-adv-x="614" arabic-form="initial" 
d="M337 688c-38 0 -71 23 -71 65c0 39 31 65 71 65c38 0 70 -26 70 -65c0 -42 -34 -65 -70 -65zM561 98v-98h-561v98h128c-35 86 -50 154 -50 210c0 168 104 263 258 263c57 0 125 -17 203 -51l-33 -91c-65 30 -114 44 -163 44c-102 0 -172 -67 -172 -181
c0 -58 25 -129 68 -194h322z" />
    <glyph glyph-name="uniFED2" unicode="&#x641;" horiz-adv-x="1029" arabic-form="final" 
d="M740 673c-38 0 -71 23 -71 65c0 39 31 65 71 65c38 0 70 -26 70 -65c0 -42 -34 -65 -70 -65zM928 98h121v-98h-126h-6h-147h-420c-202 0 -296 98 -296 281v188h98v-178c0 -138 85 -193 218 -193h156c-41 46 -63 107 -63 178v1c0 168 127 279 320 279h145v-458zM763 98h67
v361h-67c-122 0 -207 -70 -207 -182v-1c0 -108 86 -178 207 -178z" />
    <glyph glyph-name="uniFED4" unicode="&#x641;" horiz-adv-x="653" arabic-form="medial" 
d="M410 673c-38 0 -71 23 -71 65c0 39 31 65 71 65c38 0 70 -26 70 -65c0 -42 -34 -65 -70 -65zM551 98h122v-98h-127h-5h-148h-393v98h149c-41 46 -63 107 -63 178v1c0 168 127 279 320 279h145v-458zM386 98h67v361h-67c-122 0 -207 -70 -207 -182v-1
c0 -108 86 -178 207 -178z" />
    <glyph glyph-name="uniFED3" unicode="&#x641;" horiz-adv-x="618" arabic-form="initial" 
d="M410 673c-38 0 -71 23 -71 65c0 39 31 65 71 65c38 0 70 -26 70 -65c0 -42 -34 -65 -70 -65zM551 556v-499l-1 -11v-46h-4h-153h-393v98h149c-41 46 -63 107 -63 178v1c0 168 127 279 320 279h145zM386 98h67v361h-67c-122 0 -207 -70 -207 -182v-1
c0 -108 86 -178 207 -178z" />
    <glyph glyph-name="uniFB6B" unicode="&#x6a4;" horiz-adv-x="1029" arabic-form="final" 
d="M739 803c-31 0 -61 21 -61 57c0 33 27 56 61 56c35 0 61 -23 61 -56c0 -36 -28 -57 -61 -57zM648 666c-36 0 -68 23 -68 63c0 37 30 63 68 63c39 0 68 -26 68 -63c0 -40 -32 -63 -68 -63zM761 729c0 37 30 63 68 63c39 0 68 -26 68 -63c0 -40 -31 -63 -68 -63
c-36 0 -68 23 -68 63zM928 98h121v-98h-126h-6h-147h-420c-202 0 -296 98 -296 281v188h98v-178c0 -138 85 -193 218 -193h156c-41 46 -63 107 -63 178v1c0 168 127 279 320 279h145v-458zM763 98h67v361h-67c-122 0 -207 -70 -207 -182v-1c0 -108 86 -178 207 -178z" />
    <glyph glyph-name="uniFB6D" unicode="&#x6a4;" horiz-adv-x="653" arabic-form="medial" 
d="M409 803c-31 0 -61 21 -61 57c0 33 27 56 61 56c35 0 61 -23 61 -56c0 -36 -28 -57 -61 -57zM318 666c-36 0 -68 23 -68 63c0 37 30 63 68 63c39 0 68 -26 68 -63c0 -40 -32 -63 -68 -63zM431 729c0 37 30 63 68 63c39 0 68 -26 68 -63c0 -40 -31 -63 -68 -63
c-36 0 -68 23 -68 63zM551 98h122v-98h-127h-5h-148h-393v98h149c-41 46 -63 107 -63 178v1c0 168 127 279 320 279h145v-458zM386 98h67v361h-67c-122 0 -207 -70 -207 -182v-1c0 -108 86 -178 207 -178z" />
    <glyph glyph-name="uniFB6C" unicode="&#x6a4;" horiz-adv-x="618" arabic-form="initial" 
d="M409 803c-31 0 -61 21 -61 57c0 33 27 56 61 56c35 0 61 -23 61 -56c0 -36 -28 -57 -61 -57zM318 666c-36 0 -68 23 -68 63c0 37 30 63 68 63c39 0 68 -26 68 -63c0 -40 -32 -63 -68 -63zM431 729c0 37 30 63 68 63c39 0 68 -26 68 -63c0 -40 -31 -63 -68 -63
c-36 0 -68 23 -68 63zM86 277c0 168 127 279 320 279h145v-499l-1 -11v-46h-4h-153h-393v98h149c-41 46 -63 107 -63 178v1zM453 98v361h-67c-122 0 -207 -70 -207 -182v-1c0 -108 86 -178 207 -178h67z" />
    <glyph glyph-name="uni06A1.init" unicode="&#x6a1;" horiz-adv-x="618" 
d="M551 556v-499l-1 -11v-46h-4h-153h-393v98h149c-41 46 -63 107 -63 178v1c0 168 127 279 320 279h145zM386 98h67v361h-67c-122 0 -207 -70 -207 -182v-1c0 -108 86 -178 207 -178z" />
    <glyph glyph-name="uni06A1.medi" unicode="&#x6a1;" horiz-adv-x="653" 
d="M551 98h122v-98h-127h-5h-148h-393v98h149c-41 46 -63 107 -63 178v1c0 168 127 279 320 279h145v-458zM386 98h67v361h-67c-122 0 -207 -70 -207 -182v-1c0 -108 86 -178 207 -178z" />
    <glyph glyph-name="uni06A1.fina" unicode="&#x6a1;" horiz-adv-x="1030" 
d="M928 98h122v-98h-127h-5h-148h-420c-202 0 -296 98 -296 281v188h98v-178c0 -138 85 -193 218 -193h156c-41 46 -63 107 -63 178v1c0 168 127 279 320 279h145v-458zM763 98h67v361h-67c-122 0 -207 -70 -207 -182v-1c0 -108 86 -178 207 -178z" />
    <glyph glyph-name="uni066F.fina" unicode="&#x66f;" horiz-adv-x="877" 
d="M897 98v-98h-122v-220h-425c-199 0 -296 95 -296 281v220h98v-210c0 -140 88 -193 218 -193h307v137h-60c-183 0 -307 97 -307 261v1c0 168 127 279 320 279h145v-458h122zM610 98h67v361h-67c-122 0 -207 -70 -207 -182v-1c0 -108 86 -178 207 -178z" />
    <glyph glyph-name="uniFED6" unicode="&#x642;" horiz-adv-x="877" arabic-form="final" 
d="M513 666c-37 0 -70 24 -70 65c0 38 31 65 70 65c40 0 70 -27 70 -65c0 -41 -32 -65 -70 -65zM698 666c-37 0 -70 24 -70 65c0 38 31 65 70 65c40 0 70 -27 70 -65c0 -41 -32 -65 -70 -65zM897 98v-98h-122v-220h-425c-199 0 -296 95 -296 281v220h98v-210
c0 -140 88 -193 218 -193h307v137h-60c-183 0 -307 97 -307 261v1c0 168 127 279 320 279h145v-458h122zM610 98h67v361h-67c-122 0 -207 -70 -207 -182v-1c0 -108 86 -178 207 -178z" />
    <glyph glyph-name="uniFED8" unicode="&#x642;" horiz-adv-x="653" arabic-form="medial" 
d="M316 666c-37 0 -70 24 -70 65c0 38 31 65 70 65c40 0 70 -27 70 -65c0 -41 -32 -65 -70 -65zM501 666c-37 0 -70 24 -70 65c0 38 31 65 70 65c40 0 70 -27 70 -65c0 -41 -32 -65 -70 -65zM551 98h122v-98h-127h-5h-148h-393v98h149c-41 46 -63 107 -63 178v1
c0 168 127 279 320 279h145v-458zM386 98h67v361h-67c-122 0 -207 -70 -207 -182v-1c0 -108 86 -178 207 -178z" />
    <glyph glyph-name="uniFED7" unicode="&#x642;" horiz-adv-x="618" arabic-form="initial" 
d="M316 666c-37 0 -70 24 -70 65c0 38 31 65 70 65c40 0 70 -27 70 -65c0 -41 -32 -65 -70 -65zM501 796c40 0 70 -27 70 -65c0 -41 -32 -65 -70 -65c-37 0 -70 24 -70 65c0 38 31 65 70 65zM86 277c0 168 127 279 320 279h145v-499l-1 -11v-46h-4h-153h-393v98h149
c-41 46 -63 107 -63 178v1zM453 98v361h-67c-122 0 -207 -70 -207 -182v-1c0 -108 86 -178 207 -178h67z" />
    <glyph glyph-name="uniFEDA" unicode="&#x643;" horiz-adv-x="835" arabic-form="final" 
d="M737 98h118v-98h-505c-202 0 -296 98 -296 281v188h98v-178c0 -138 85 -193 218 -193h269v713h98v-713zM514 538v-76h-210v116c0 68 42 110 110 110h63v-58h-57c-33 0 -51 -17 -51 -50v-42h145z" />
    <glyph glyph-name="uniFEDC" unicode="&#x643;" horiz-adv-x="709" arabic-form="medial" 
d="M607 98h122v-98h-729v98h507v169c0 97 -53 142 -141 142h-276c-16 23 -31 57 -33 98l156 304h120l-166 -303h189c166 0 251 -83 251 -255v-155z" />
    <glyph glyph-name="uniFEDB" unicode="&#x643;" horiz-adv-x="664" arabic-form="initial" 
d="M0 0v98h507v169c0 97 -53 142 -141 142h-276c-16 23 -31 57 -33 98l156 304h120l-166 -303h189c166 0 251 -83 251 -255v-253h-607z" />
    <glyph glyph-name="uniFB8F" unicode="&#x6a9;" horiz-adv-x="953" arabic-form="final" 
d="M851 98h122v-98h-623c-202 0 -296 98 -296 281v188h98v-178c0 -138 85 -193 218 -193h382v169c0 97 -53 142 -141 142h-236c-16 23 -32 57 -33 98l156 305h120l-166 -304h148c167 0 251 -83 251 -255v-155z" />
    <glyph glyph-name="uniFB91" unicode="&#x6a9;" horiz-adv-x="709" arabic-form="medial" 
d="M607 98h122v-98h-729v98h507v169c0 97 -53 142 -141 142h-276c-16 23 -31 57 -33 98l156 304h120l-166 -303h189c166 0 251 -83 251 -255v-155z" />
    <glyph glyph-name="uniFB90" unicode="&#x6a9;" horiz-adv-x="664" arabic-form="initial" 
d="M0 0v98h507v169c0 97 -53 142 -141 142h-276c-16 23 -31 57 -33 98l156 304h120l-166 -303h189c166 0 251 -83 251 -255v-253h-607z" />
    <glyph glyph-name="uniFB93" unicode="&#x6af;" horiz-adv-x="953" arabic-form="final" 
d="M851 98h122v-98h-623c-202 0 -296 98 -296 281v188h98v-178c0 -138 85 -193 218 -193h382v169c0 97 -53 142 -141 142h-236c-16 23 -32 57 -33 98l156 305h120l-166 -304h148c167 0 251 -83 251 -255v-155zM422 812l-166 -312l-99 -1l167 313h98z" />
    <glyph glyph-name="uniFB95" unicode="&#x6af;" horiz-adv-x="825" arabic-form="medial" 
d="M253 812l-166 -312l-99 -1l167 313h98zM723 98h122v-98h-845v98h623v169c0 97 -53 142 -141 142h-276c-16 23 -31 57 -33 98l156 304h120l-166 -303h189c166 0 251 -83 251 -255v-155z" />
    <glyph glyph-name="uniFB94" unicode="&#x6af;" horiz-adv-x="780" arabic-form="initial" 
d="M253 812l-166 -312l-99 -1l167 313h98zM472 508c166 0 251 -83 251 -255v-253h-723v98h623v169c0 97 -53 142 -141 142h-276c-16 23 -31 57 -33 98l156 304h120l-166 -303h189z" />
    <glyph glyph-name="uniFEDE" unicode="&#x644;" horiz-adv-x="677" arabic-form="final" 
d="M697 98v-98h-122v-125h-225c-193 0 -296 98 -296 277v336h99v-324c0 -138 84 -191 212 -191h112v838h98v-713h122z" />
    <glyph glyph-name="uniFEE0" unicode="&#x644;" horiz-adv-x="314" arabic-form="medial" 
d="M213 98h122v-98h-335v98h115v713h98v-713z" />
    <glyph glyph-name="uniFEDF" unicode="&#x644;" horiz-adv-x="340" arabic-form="initial" 
d="M155 811h98v-811h-266v98h168v713z" />
    <glyph glyph-name="uniFEE2" unicode="&#x645;" horiz-adv-x="911" arabic-form="final" 
d="M931 98v-98h-143c-48 -69 -125 -109 -221 -109h-1c-150 0 -255 96 -274 245c-94 -7 -140 -76 -140 -187v-169h-98v184c0 169 87 264 238 270c17 154 123 254 274 254h1c164 0 274 -120 274 -301v-1c0 -31 -3 -61 -10 -88h100zM743 188v1c0 120 -70 201 -176 201h-1
c-107 0 -178 -81 -178 -201v-1c0 -119 71 -198 178 -198h1c106 0 176 80 176 198z" />
    <glyph glyph-name="uniFEE4" unicode="&#x645;" horiz-adv-x="715" arabic-form="medial" 
d="M735 98v-98h-152c-48 -69 -125 -109 -221 -109h-1c-97 0 -175 40 -223 109h-138v98h94c-7 27 -10 57 -10 88v1c0 181 111 301 277 301h1c164 0 274 -120 274 -301v-1c0 -31 -3 -61 -10 -88h109zM538 188v1c0 120 -70 201 -176 201h-1c-107 0 -178 -81 -178 -201v-1
c0 -119 71 -198 178 -198h1c106 0 176 80 176 198z" />
    <glyph glyph-name="uniFEE3" unicode="&#x645;" horiz-adv-x="680" arabic-form="initial" 
d="M362 488c164 0 274 -120 274 -301v-1c0 -176 -110 -295 -274 -295h-1c-97 0 -175 40 -223 109h-138v98h94c-7 27 -10 57 -10 88v1c0 181 111 301 277 301h1zM538 188v1c0 120 -70 201 -176 201h-1c-107 0 -178 -81 -178 -201v-1c0 -119 71 -198 178 -198h1
c106 0 176 80 176 198z" />
    <glyph glyph-name="uniFEE6" unicode="&#x646;" horiz-adv-x="677" arabic-form="final" 
d="M319 605c-38 0 -71 23 -71 65c0 39 31 65 71 65c38 0 70 -26 70 -65c0 -42 -34 -65 -70 -65zM697 98v-98h-122v-125h-225c-193 0 -296 98 -296 277v336h99v-324c0 -138 84 -191 212 -191h112v515h98v-390h122z" />
    <glyph glyph-name="uniFEE8" unicode="&#x646;" horiz-adv-x="302" arabic-form="medial" 
d="M152 673c-38 0 -71 23 -71 65c0 39 31 65 71 65c38 0 70 -26 70 -65c0 -42 -34 -65 -70 -65zM200 98h122v-98h-322v98h102v458h98v-458z" />
    <glyph glyph-name="uniFEE7" unicode="&#x646;" horiz-adv-x="268" arabic-form="initial" 
d="M154 673c-38 0 -71 23 -71 65c0 39 31 65 71 65c38 0 70 -26 70 -65c0 -42 -34 -65 -70 -65zM0 0v98h102v458h98v-556h-200z" />
    <glyph glyph-name="uniFB9F" unicode="&#x6ba;" horiz-adv-x="677" arabic-form="final" 
d="M697 98v-98h-122v-125h-225c-193 0 -296 98 -296 277v336h99v-324c0 -138 84 -191 212 -191h112v515h98v-390h122z" />
    <glyph glyph-name="uniFEE9" unicode="&#x647;" horiz-adv-x="840" arabic-form="isolated" 
d="M412 666c225 0 392 -144 392 -409c0 -60 -10 -152 -29 -257h-748l20 98h123c-7 35 -11 76 -11 109c0 140 89 233 214 233s214 -92 214 -230c0 -34 -5 -76 -12 -112h117c9 60 13 108 13 152c0 209 -125 318 -308 318c-82 0 -153 -20 -230 -62l-35 88c96 49 189 72 280 72z
M257 196c0 -34 4 -69 10 -98h212c6 28 10 63 10 98c0 87 -47 146 -118 146c-69 0 -114 -59 -114 -146z" />
    <glyph glyph-name="uniFEEA" unicode="&#x647;" horiz-adv-x="620" arabic-form="final" 
d="M518 98h122v-98h-220h-60c-184 0 -307 110 -307 276v1c0 168 127 279 320 279h47v50h98v-508zM420 98v361h-67c-122 0 -207 -70 -207 -182v-1c0 -108 86 -178 207 -178h67z" />
    <glyph glyph-name="uniFEEC" unicode="&#x647;" horiz-adv-x="867" arabic-form="medial" 
d="M744 98h143v-98h-887v98h123c-7 35 -11 76 -11 109c0 140 89 233 214 233s214 -92 214 -230c0 -34 -5 -76 -12 -112h117c9 60 13 108 13 152c0 209 -125 318 -308 318c-82 0 -153 -20 -230 -62l-35 88c96 49 189 72 280 72c225 0 392 -144 392 -409
c0 -40 -5 -95 -13 -159zM210 196c0 -34 4 -69 10 -98h212c6 28 10 63 10 98c0 87 -47 146 -118 146c-69 0 -114 -59 -114 -146z" />
    <glyph glyph-name="uniFEEB" unicode="&#x647;" horiz-adv-x="811" arabic-form="initial" 
d="M365 666c225 0 392 -144 392 -409c0 -60 -10 -152 -29 -257h-728v98h123c-7 35 -11 76 -11 109c0 140 89 233 214 233s214 -92 214 -230c0 -34 -5 -76 -12 -112h117c9 60 13 108 13 152c0 209 -125 318 -308 318c-82 0 -153 -20 -230 -62l-35 88c96 49 189 72 280 72z
M210 196c0 -34 4 -69 10 -98h212c6 28 10 63 10 98c0 87 -47 146 -118 146c-69 0 -114 -59 -114 -146z" />
    <glyph glyph-name="uniFBA5" unicode="&#x6c0;" horiz-adv-x="620" arabic-form="final" 
d="M526 739v-76h-210v116c0 68 42 110 110 110h63v-58h-57c-33 0 -51 -17 -51 -50v-42h145zM518 98h122v-98h-220h-60c-184 0 -307 110 -307 276v1c0 168 127 279 320 279h47v50h98v-508zM420 98v361h-67c-122 0 -207 -70 -207 -182v-1c0 -108 86 -178 207 -178h67z" />
    <glyph glyph-name="uniFBA7" unicode="&#x6c1;" horiz-adv-x="583" arabic-form="final" 
d="M481 98h122v-98h-220v464h-90c-90 0 -135 -58 -135 -142l1 -168h-98l-1 152c-1 168 91 250 250 250h171v-458z" />
    <glyph glyph-name="uniFBA9" unicode="&#x6c1;" horiz-adv-x="771" arabic-form="medial" 
d="M316 -220c-127 0 -215 65 -222 196v24h-94v98h89v289h99v-407c0 -92 48 -137 129 -137h84v255h390v-98h-292v-220h-183zM637 -222l-74 2l52 175l103 -1z" />
    <glyph glyph-name="uniFBA8" unicode="&#x6c1;" horiz-adv-x="360" arabic-form="initial" 
d="M0 0v98h194v458h98v-556h-292zM177 -222l-74 2l52 175l103 -1z" />
    <glyph glyph-name="uni06C2.fina" unicode="&#x6c2;" horiz-adv-x="583" 
d="M416 704v-76h-210v116c0 68 42 110 110 110h63v-58h-57c-33 0 -51 -17 -51 -50v-42h145zM481 98h122v-98h-220v464h-90c-90 0 -135 -58 -135 -142l1 -168h-98l-1 152c-1 168 91 250 250 250h171v-458z" />
    <glyph glyph-name="uniFBAB" unicode="&#x6be;" horiz-adv-x="914" arabic-form="final" 
d="M791 98h143v-98h-907l20 98h123c-7 35 -11 76 -11 109c0 140 89 233 214 233s214 -92 214 -230c0 -34 -5 -76 -12 -112h117c9 60 13 108 13 152c0 209 -125 318 -308 318c-82 0 -153 -20 -230 -62l-35 88c96 49 189 72 280 72c225 0 392 -144 392 -409
c0 -40 -5 -95 -13 -159zM257 196c0 -34 4 -69 10 -98h212c6 28 10 63 10 98c0 87 -47 146 -118 146c-69 0 -114 -59 -114 -146z" />
    <glyph glyph-name="uniFBAD" unicode="&#x6be;" horiz-adv-x="867" arabic-form="medial" 
d="M744 98h143v-98h-887v98h123c-7 35 -11 76 -11 109c0 140 89 233 214 233s214 -92 214 -230c0 -34 -5 -76 -12 -112h117c9 60 13 108 13 152c0 209 -125 318 -308 318c-82 0 -153 -20 -230 -62l-35 88c96 49 189 72 280 72c225 0 392 -144 392 -409
c0 -40 -5 -95 -13 -159zM210 196c0 -34 4 -69 10 -98h212c6 28 10 63 10 98c0 87 -47 146 -118 146c-69 0 -114 -59 -114 -146z" />
    <glyph glyph-name="uniFBAC" unicode="&#x6be;" horiz-adv-x="811" arabic-form="initial" 
d="M365 666c225 0 392 -144 392 -409c0 -60 -10 -152 -29 -257h-728v98h123c-7 35 -11 76 -11 109c0 140 89 233 214 233s214 -92 214 -230c0 -34 -5 -76 -12 -112h117c9 60 13 108 13 152c0 209 -125 318 -308 318c-82 0 -153 -20 -230 -62l-35 88c96 49 189 72 280 72z
M210 196c0 -34 4 -69 10 -98h212c6 28 10 63 10 98c0 87 -47 146 -118 146c-69 0 -114 -59 -114 -146z" />
    <glyph glyph-name="uniFE94" unicode="&#x629;" horiz-adv-x="620" arabic-form="final" 
d="M269 686c-37 0 -70 24 -70 65c0 38 31 65 70 65c40 0 70 -27 70 -65c0 -41 -32 -65 -70 -65zM454 686c-37 0 -70 24 -70 65c0 38 31 65 70 65c40 0 70 -27 70 -65c0 -41 -32 -65 -70 -65zM518 98h122v-98h-220h-60c-184 0 -307 110 -307 276v1c0 168 127 279 320 279h47
v50h98v-508zM420 98v361h-67c-122 0 -207 -70 -207 -182v-1c0 -108 86 -178 207 -178h67z" />
    <glyph glyph-name="uni06C3.fina" unicode="&#x6c3;" horiz-adv-x="583" 
d="M218 668c-37 0 -70 24 -70 65c0 38 31 65 70 65c40 0 70 -27 70 -65c0 -41 -32 -65 -70 -65zM403 668c-37 0 -70 24 -70 65c0 38 31 65 70 65c40 0 70 -27 70 -65c0 -41 -32 -65 -70 -65zM481 98h122v-98h-220v464h-90c-90 0 -135 -58 -135 -142l1 -168h-98l-1 152
c-1 168 91 250 250 250h171v-458z" />
    <glyph glyph-name="uniFEEE" unicode="&#x648;" horiz-adv-x="620" arabic-form="final" 
d="M640 98v-98h-122c-3 -164 -81 -220 -225 -220c-54 0 -102 7 -159 27l-18 104c63 -22 116 -32 173 -32c78 0 131 28 131 112v9h-60c-184 0 -307 110 -307 276v1c0 168 127 279 320 279h145v-458h122zM353 98h67v361h-67c-122 0 -207 -70 -207 -182v-1
c0 -108 86 -178 207 -178z" />
    <glyph glyph-name="uniFE86" unicode="&#x624;" horiz-adv-x="620" arabic-form="final" 
d="M468 702v-76h-210v116c0 68 42 110 110 110h63v-58h-57c-33 0 -51 -17 -51 -50v-42h145zM640 98v-98h-122c-3 -164 -81 -220 -225 -220c-54 0 -102 7 -159 27l-18 104c63 -22 116 -32 173 -32c78 0 131 28 131 112v9h-60c-184 0 -307 110 -307 276v1
c0 168 127 279 320 279h145v-458h122zM353 98h67v361h-67c-122 0 -207 -70 -207 -182v-1c0 -108 86 -178 207 -178z" />
    <glyph glyph-name="uniFEF0" unicode="&#x649;" horiz-adv-x="1061" arabic-form="final" 
d="M959 98h122v-98h-220v463h-98c-91 0 -135 -57 -135 -141v-447h-278c-199 0 -296 95 -296 281v220h98v-210c0 -140 88 -193 218 -193h160v333c-1 168 91 250 249 250h180v-458z" />
    <glyph glyph-name="uniFEF2" unicode="&#x64a;" horiz-adv-x="1061" arabic-form="final" 
d="M959 98h122v-98h-220v463h-98c-91 0 -135 -57 -135 -141v-447h-278c-199 0 -296 95 -296 281v220h98v-210c0 -140 88 -193 218 -193h160v333c-1 168 91 250 249 250h180v-458zM328 -236c40 0 70 -26 70 -64c0 -41 -32 -65 -70 -65c-37 0 -70 24 -70 65c0 38 31 64 70 64z
M513 -236c40 0 70 -26 70 -64c0 -41 -32 -65 -70 -65c-37 0 -70 24 -70 65c0 38 31 64 70 64z" />
    <glyph glyph-name="uniFEF4" unicode="&#x64a;" horiz-adv-x="417" arabic-form="medial" 
d="M437 98v-98h-437v98h160v458h98v-458h179zM118 -111c40 0 70 -26 70 -64c0 -41 -32 -65 -70 -65c-37 0 -70 24 -70 65c0 38 31 64 70 64zM303 -111c40 0 70 -26 70 -64c0 -41 -32 -65 -70 -65c-37 0 -70 24 -70 65c0 38 31 64 70 64z" />
    <glyph glyph-name="uniFEF3" unicode="&#x64a;" horiz-adv-x="360" arabic-form="initial" 
d="M0 0v98h194v458h98v-556h-292zM60 -240c-37 0 -70 24 -70 65c0 38 31 64 70 64c40 0 70 -26 70 -64c0 -41 -32 -65 -70 -65zM245 -240c-37 0 -70 24 -70 65c0 38 31 64 70 64c40 0 70 -26 70 -64c0 -41 -32 -65 -70 -65z" />
    <glyph glyph-name="uniFE8A" unicode="&#x626;" horiz-adv-x="1061" arabic-form="final" 
d="M894 705v-76h-210v116c0 68 42 110 110 110h63v-58h-57c-33 0 -51 -17 -51 -50v-42h145zM959 98h122v-98h-220v463h-98c-91 0 -135 -57 -135 -141v-447h-278c-199 0 -296 95 -296 281v220h98v-210c0 -140 88 -193 218 -193h160v333c-1 168 91 250 249 250h180v-458z" />
    <glyph glyph-name="uniFE8C" unicode="&#x626;" horiz-adv-x="302" arabic-form="medial" 
d="M225 692v-59h-149v72c0 61 37 102 101 102h21v-55h-27c-25 0 -37 -17 -37 -42v-18h91zM200 98h122v-98h-322v98h102v458h98v-458z" />
    <glyph glyph-name="uniFE8B" unicode="&#x626;" horiz-adv-x="268" arabic-form="initial" 
d="M64 633v72c0 61 37 102 101 102h21v-55h-27c-25 0 -37 -17 -37 -42v-18h91v-59h-149zM0 0v98h102v458h98v-556h-200z" />
    <glyph glyph-name="uniFBFD" unicode="&#x6cc;" horiz-adv-x="1061" arabic-form="final" 
d="M959 98h122v-98h-220v463h-98c-91 0 -135 -57 -135 -141v-447h-278c-199 0 -296 95 -296 281v220h98v-210c0 -140 88 -193 218 -193h160v333c-1 168 91 250 249 250h180v-458z" />
    <glyph glyph-name="uniFBFF" unicode="&#x6cc;" horiz-adv-x="417" arabic-form="medial" 
d="M437 98v-98h-437v98h160v458h98v-458h179zM118 -111c40 0 70 -26 70 -64c0 -41 -32 -65 -70 -65c-37 0 -70 24 -70 65c0 38 31 64 70 64zM303 -111c40 0 70 -26 70 -64c0 -41 -32 -65 -70 -65c-37 0 -70 24 -70 65c0 38 31 64 70 64z" />
    <glyph glyph-name="uniFBFE" unicode="&#x6cc;" horiz-adv-x="360" arabic-form="initial" 
d="M0 0v98h194v458h98v-556h-292zM60 -240c-37 0 -70 24 -70 65c0 38 31 64 70 64c40 0 70 -26 70 -64c0 -41 -32 -65 -70 -65zM245 -240c-37 0 -70 24 -70 65c0 38 31 64 70 64c40 0 70 -26 70 -64c0 -41 -32 -65 -70 -65z" />
    <glyph glyph-name="uniFBAF" unicode="&#x6d2;" horiz-adv-x="733" arabic-form="final" 
d="M258 -220c-156 0 -230 53 -230 186v132h725v-98h-626v-40c0 -61 35 -82 107 -82h304v-98h-280z" />
    <glyph glyph-name="uniFBB1" unicode="&#x6d3;" horiz-adv-x="733" arabic-form="final" 
d="M251 208v116c0 68 42 110 110 110h63v-58h-57c-33 0 -51 -17 -51 -50v-42h145v-76h-210zM258 -220c-156 0 -230 53 -230 186v132h725v-98h-626v-40c0 -61 35 -82 107 -82h304v-98h-280z" />
    <glyph glyph-name="uni06D5.fina" unicode="&#x6d5;" horiz-adv-x="620" 
d="M518 98h122v-98h-220h-60c-184 0 -307 110 -307 276v1c0 168 127 279 320 279h47v50h98v-508zM420 98v361h-67c-122 0 -207 -70 -207 -182v-1c0 -108 86 -178 207 -178h67z" />
    <glyph glyph-name="uniFC6A" unicode="&#xfc6a;" horiz-adv-x="726" arabic-form="final" 
d="M724 99h22v-99h-22c-167 0 -254 91 -254 264v194h-217v-463c0 -165 -62 -215 -185 -215c-26 0 -53 4 -78 10l-8 85c30 -4 52 -6 77 -6c59 0 96 29 96 111v576h315v120h98v-418c0 -104 53 -159 156 -159zM412 -111c38 0 70 -26 70 -64c0 -43 -34 -66 -70 -66
c-38 0 -71 23 -71 66c0 38 31 64 71 64z" />
    <glyph glyph-name="uniFC6B" unicode="&#xfc6b;" horiz-adv-x="726" arabic-form="final" 
d="M205 673c-38 0 -71 23 -71 65c0 39 31 65 71 65c38 0 70 -26 70 -65c0 -42 -34 -65 -70 -65zM724 99h22v-99h-22c-167 0 -254 91 -254 264v194h-217v-463c0 -165 -62 -215 -185 -215c-26 0 -53 4 -78 10l-8 85c30 -4 52 -6 77 -6c59 0 96 29 96 111v576h315v120h98v-418
c0 -104 53 -159 156 -159zM412 -111c38 0 70 -26 70 -64c0 -43 -34 -66 -70 -66c-38 0 -71 23 -71 66c0 38 31 64 71 64z" />
    <glyph glyph-name="uniFC6D" unicode="&#xfc6d;" horiz-adv-x="1063" arabic-form="final" 
d="M319 605c-38 0 -71 23 -71 65c0 39 31 65 71 65c38 0 70 -26 70 -65c0 -42 -34 -65 -70 -65zM1061 99h22v-99h-22c-167 0 -254 91 -254 264v126h-232v-515h-225c-193 0 -296 98 -296 277v336h99v-324c0 -138 84 -191 212 -191h112v515h330v120h98v-350
c0 -104 53 -159 156 -159zM763 -111c38 0 70 -26 70 -64c0 -43 -34 -66 -70 -66c-38 0 -71 23 -71 66c0 38 31 64 71 64z" />
    <glyph glyph-name="uniFC6E" unicode="&#xfc6e;" horiz-adv-x="1162" arabic-form="final" 
d="M1160 99h22v-99h-22c-166 0 -254 91 -254 264v199h-126c-101 0 -152 -64 -152 -158v-430h-278c-199 0 -296 95 -296 281v220h98v-210c0 -140 88 -193 218 -193h160v333c0 168 91 250 250 250h126v120h99v-418c0 -104 53 -159 155 -159zM831 -111c38 0 70 -26 70 -64
c0 -43 -34 -66 -70 -66c-38 0 -71 23 -71 66c0 38 31 64 71 64z" />
    <glyph glyph-name="uniFC6F" unicode="&#xfc6f;" horiz-adv-x="1162" arabic-form="final" 
d="M1160 99h22v-99h-22c-166 0 -254 91 -254 264v199h-126c-101 0 -152 -64 -152 -158v-430h-278c-199 0 -296 95 -296 281v220h98v-210c0 -140 88 -193 218 -193h160v333c0 168 91 250 250 250h126v120h99v-418c0 -104 53 -159 155 -159zM831 -111c38 0 70 -26 70 -64
c0 -43 -34 -66 -70 -66c-38 0 -71 23 -71 66c0 38 31 64 71 64zM328 -236c40 0 70 -26 70 -64c0 -41 -32 -65 -70 -65c-37 0 -70 24 -70 65c0 38 31 64 70 64zM513 -236c40 0 70 -26 70 -64c0 -41 -32 -65 -70 -65c-37 0 -70 24 -70 65c0 38 31 64 70 64z" />
    <glyph glyph-name="uniFC70" unicode="&#xfc70;" horiz-adv-x="726" arabic-form="final" 
d="M427 786c-37 0 -70 24 -70 65c0 38 31 65 70 65c40 0 70 -27 70 -65c0 -41 -32 -65 -70 -65zM612 786c-37 0 -70 24 -70 65c0 38 31 65 70 65c40 0 70 -27 70 -65c0 -41 -32 -65 -70 -65zM724 99h22v-99h-22c-167 0 -254 91 -254 264v194h-217v-463
c0 -165 -62 -215 -185 -215c-26 0 -53 4 -78 10l-8 85c30 -4 52 -6 77 -6c59 0 96 29 96 111v576h315v120h98v-418c0 -104 53 -159 156 -159z" />
    <glyph glyph-name="uniFC71" unicode="&#xfc71;" horiz-adv-x="726" arabic-form="final" 
d="M427 786c-37 0 -70 24 -70 65c0 38 31 65 70 65c40 0 70 -27 70 -65c0 -41 -32 -65 -70 -65zM612 786c-37 0 -70 24 -70 65c0 38 31 65 70 65c40 0 70 -27 70 -65c0 -41 -32 -65 -70 -65zM199 673c-38 0 -71 23 -71 65c0 39 31 65 71 65c38 0 70 -26 70 -65
c0 -42 -34 -65 -70 -65zM724 99h22v-99h-22c-167 0 -254 91 -254 264v194h-217v-463c0 -165 -62 -215 -185 -215c-26 0 -53 4 -78 10l-8 85c30 -4 52 -6 77 -6c59 0 96 29 96 111v576h315v120h98v-418c0 -104 53 -159 156 -159z" />
    <glyph glyph-name="uniFC73" unicode="&#xfc73;" horiz-adv-x="1063" arabic-form="final" 
d="M764 718c-37 0 -70 24 -70 65c0 38 31 65 70 65c40 0 70 -27 70 -65c0 -41 -32 -65 -70 -65zM949 718c-37 0 -70 24 -70 65c0 38 31 65 70 65c40 0 70 -27 70 -65c0 -41 -32 -65 -70 -65zM319 605c-38 0 -71 23 -71 65c0 39 31 65 71 65c38 0 70 -26 70 -65
c0 -42 -34 -65 -70 -65zM1061 99h22v-99h-22c-167 0 -254 91 -254 264v126h-232v-515h-225c-193 0 -296 98 -296 277v336h99v-324c0 -138 84 -191 212 -191h112v515h330v120h98v-350c0 -104 53 -159 156 -159z" />
    <glyph glyph-name="uniFC74" unicode="&#xfc74;" horiz-adv-x="1162" arabic-form="final" 
d="M864 786c-37 0 -70 24 -70 65c0 38 31 65 70 65c40 0 70 -27 70 -65c0 -41 -32 -65 -70 -65zM1049 786c-37 0 -70 24 -70 65c0 38 31 65 70 65c40 0 70 -27 70 -65c0 -41 -32 -65 -70 -65zM1160 99h22v-99h-22c-166 0 -254 91 -254 264v199h-126
c-101 0 -152 -64 -152 -158v-430h-278c-199 0 -296 95 -296 281v220h98v-210c0 -140 88 -193 218 -193h160v333c0 168 91 250 250 250h126v120h99v-418c0 -104 53 -159 155 -159z" />
    <glyph glyph-name="uniFC75" unicode="&#xfc75;" horiz-adv-x="1162" arabic-form="final" 
d="M864 786c-37 0 -70 24 -70 65c0 38 31 65 70 65c40 0 70 -27 70 -65c0 -41 -32 -65 -70 -65zM1049 786c-37 0 -70 24 -70 65c0 38 31 65 70 65c40 0 70 -27 70 -65c0 -41 -32 -65 -70 -65zM1160 99h22v-99h-22c-166 0 -254 91 -254 264v199h-126
c-101 0 -152 -64 -152 -158v-430h-278c-199 0 -296 95 -296 281v220h98v-210c0 -140 88 -193 218 -193h160v333c0 168 91 250 250 250h126v120h99v-418c0 -104 53 -159 155 -159zM328 -236c40 0 70 -26 70 -64c0 -41 -32 -65 -70 -65c-37 0 -70 24 -70 65c0 38 31 64 70 64z
M513 -236c40 0 70 -26 70 -64c0 -41 -32 -65 -70 -65c-37 0 -70 24 -70 65c0 38 31 64 70 64z" />
    <glyph glyph-name="uniFC76" unicode="&#xfc76;" horiz-adv-x="726" arabic-form="final" 
d="M520 923c-31 0 -61 21 -61 57c0 33 27 56 61 56c35 0 61 -23 61 -56c0 -36 -28 -57 -61 -57zM429 786c-36 0 -68 23 -68 63c0 37 30 63 68 63c39 0 68 -26 68 -63c0 -40 -32 -63 -68 -63zM542 849c0 37 30 63 68 63c39 0 68 -26 68 -63c0 -40 -31 -63 -68 -63
c-36 0 -68 23 -68 63zM724 99h22v-99h-22c-167 0 -254 91 -254 264v194h-217v-463c0 -165 -62 -215 -185 -215c-26 0 -53 4 -78 10l-8 85c30 -4 52 -6 77 -6c59 0 96 29 96 111v576h315v120h98v-418c0 -104 53 -159 156 -159z" />
    <glyph glyph-name="uniFC77" unicode="&#xfc77;" horiz-adv-x="726" arabic-form="final" 
d="M520 923c-31 0 -61 21 -61 57c0 33 27 56 61 56c35 0 61 -23 61 -56c0 -36 -28 -57 -61 -57zM429 786c-36 0 -68 23 -68 63c0 37 30 63 68 63c39 0 68 -26 68 -63c0 -40 -32 -63 -68 -63zM542 849c0 37 30 63 68 63c39 0 68 -26 68 -63c0 -40 -31 -63 -68 -63
c-36 0 -68 23 -68 63zM199 673c-38 0 -71 23 -71 65c0 39 31 65 71 65c38 0 70 -26 70 -65c0 -42 -34 -65 -70 -65zM724 99h22v-99h-22c-167 0 -254 91 -254 264v194h-217v-463c0 -165 -62 -215 -185 -215c-26 0 -53 4 -78 10l-8 85c30 -4 52 -6 77 -6c59 0 96 29 96 111
v576h315v120h98v-418c0 -104 53 -159 156 -159z" />
    <glyph glyph-name="uniFC79" unicode="&#xfc79;" horiz-adv-x="1063" arabic-form="final" 
d="M857 855c-31 0 -61 21 -61 57c0 33 27 56 61 56c35 0 61 -23 61 -56c0 -36 -28 -57 -61 -57zM766 718c-36 0 -68 23 -68 63c0 37 30 63 68 63c39 0 68 -26 68 -63c0 -40 -32 -63 -68 -63zM879 781c0 37 30 63 68 63c39 0 68 -26 68 -63c0 -40 -31 -63 -68 -63
c-36 0 -68 23 -68 63zM319 605c-38 0 -71 23 -71 65c0 39 31 65 71 65c38 0 70 -26 70 -65c0 -42 -34 -65 -70 -65zM1061 99h22v-99h-22c-167 0 -254 91 -254 264v126h-232v-515h-225c-193 0 -296 98 -296 277v336h99v-324c0 -138 84 -191 212 -191h112v515h330v120h98v-350
c0 -104 53 -159 156 -159z" />
    <glyph glyph-name="uniFC7A" unicode="&#xfc7a;" horiz-adv-x="1162" arabic-form="final" 
d="M957 923c-31 0 -61 21 -61 57c0 33 27 56 61 56c35 0 61 -23 61 -56c0 -36 -28 -57 -61 -57zM866 786c-36 0 -68 23 -68 63c0 37 30 63 68 63c39 0 68 -26 68 -63c0 -40 -32 -63 -68 -63zM979 849c0 37 30 63 68 63c39 0 68 -26 68 -63c0 -40 -31 -63 -68 -63
c-36 0 -68 23 -68 63zM1160 99h22v-99h-22c-166 0 -254 91 -254 264v199h-126c-101 0 -152 -64 -152 -158v-430h-278c-199 0 -296 95 -296 281v220h98v-210c0 -140 88 -193 218 -193h160v333c0 168 91 250 250 250h126v120h99v-418c0 -104 53 -159 155 -159z" />
    <glyph glyph-name="uniFC7B" unicode="&#xfc7b;" horiz-adv-x="1162" arabic-form="final" 
d="M957 923c-31 0 -61 21 -61 57c0 33 27 56 61 56c35 0 61 -23 61 -56c0 -36 -28 -57 -61 -57zM866 786c-36 0 -68 23 -68 63c0 37 30 63 68 63c39 0 68 -26 68 -63c0 -40 -32 -63 -68 -63zM979 849c0 37 30 63 68 63c39 0 68 -26 68 -63c0 -40 -31 -63 -68 -63
c-36 0 -68 23 -68 63zM1160 99h22v-99h-22c-166 0 -254 91 -254 264v199h-126c-101 0 -152 -64 -152 -158v-430h-278c-199 0 -296 95 -296 281v220h98v-210c0 -140 88 -193 218 -193h160v333c0 168 91 250 250 250h126v120h99v-418c0 -104 53 -159 155 -159zM328 -236
c40 0 70 -26 70 -64c0 -41 -32 -65 -70 -65c-37 0 -70 24 -70 65c0 38 31 64 70 64zM513 -236c40 0 70 -26 70 -64c0 -41 -32 -65 -70 -65c-37 0 -70 24 -70 65c0 38 31 64 70 64z" />
    <glyph glyph-name="uniFD0E" unicode="&#xfd0e;" horiz-adv-x="1422" arabic-form="isolated" 
d="M1267 563h98v-309c0 -181 -86 -264 -249 -264c-94 0 -159 36 -196 102c-34 -68 -99 -102 -203 -102c-163 0 -248 91 -248 264v136h-216v-395c0 -165 -62 -215 -185 -215c-26 0 -53 4 -78 10l-8 85c30 -4 52 -6 77 -6c59 0 96 29 96 111v627h98v-119h314v-243
c0 -103 53 -156 150 -156c94 0 151 52 151 156v243h98v-243c0 -103 52 -156 150 -156c94 0 151 52 151 156v318z" />
    <glyph glyph-name="uniFD2A" unicode="&#xfd2a;" horiz-adv-x="1509" arabic-form="final" 
d="M1365 267c0 -116 57 -169 164 -169v-98c-95 0 -166 36 -195 99c-39 -74 -112 -109 -218 -109c-94 0 -159 36 -196 102c-34 -68 -99 -102 -203 -102c-163 0 -248 91 -248 264v136h-216v-395c0 -165 -62 -215 -185 -215c-26 0 -53 4 -78 10l-8 85c30 -4 52 -6 77 -6
c59 0 96 29 96 111v627h98v-119h314v-243c0 -103 53 -156 150 -156c94 0 151 52 151 156v243h98v-243c0 -103 52 -156 150 -156c94 0 151 52 151 156v318h98v-296z" />
    <glyph glyph-name="uniFCFB" unicode="&#xfcfb;" horiz-adv-x="1831" arabic-form="isolated" 
d="M1675 563h98v-309c0 -181 -86 -264 -240 -264c-98 0 -165 40 -201 111c-35 -75 -104 -111 -218 -111c-162 0 -259 91 -259 264v329h-92c-91 0 -135 -57 -135 -141v-567h-278c-199 0 -296 95 -296 281v220h98v-210c0 -140 88 -193 218 -193h160v453c0 168 91 250 250 250
h173v-424c0 -105 57 -163 161 -163c101 0 162 55 162 163v236h99v-243c0 -103 51 -156 150 -156c95 0 150 50 150 156v318z" />
    <glyph glyph-name="uniFD17" unicode="&#xfd17;" horiz-adv-x="1917" arabic-form="final" 
d="M1773 267c0 -116 57 -169 164 -169v-98c-95 0 -165 36 -195 99c-38 -74 -109 -109 -209 -109c-98 0 -165 40 -201 111c-35 -75 -104 -111 -218 -111c-162 0 -259 91 -259 264v329h-92c-91 0 -135 -57 -135 -141v-567h-278c-199 0 -296 95 -296 281v220h98v-210
c0 -140 88 -193 218 -193h160v453c0 168 91 250 250 250h173v-424c0 -105 57 -163 161 -163c101 0 162 55 162 163v236h99v-243c0 -103 51 -156 150 -156c95 0 150 50 150 156v318h98v-296z" />
    <glyph glyph-name="uniFCFC" unicode="&#xfcfc;" horiz-adv-x="1831" arabic-form="isolated" 
d="M1675 563h98v-309c0 -181 -86 -264 -240 -264c-98 0 -165 40 -201 111c-35 -75 -104 -111 -218 -111c-162 0 -259 91 -259 264v329h-92c-91 0 -135 -57 -135 -141v-567h-278c-199 0 -296 95 -296 281v220h98v-210c0 -140 88 -193 218 -193h160v453c0 168 91 250 250 250
h173v-424c0 -105 57 -163 161 -163c101 0 162 55 162 163v236h99v-243c0 -103 51 -156 150 -156c95 0 150 50 150 156v318zM328 -236c40 0 70 -26 70 -64c0 -41 -32 -65 -70 -65c-37 0 -70 24 -70 65c0 38 31 64 70 64zM513 -236c40 0 70 -26 70 -64c0 -41 -32 -65 -70 -65
c-37 0 -70 24 -70 65c0 38 31 64 70 64z" />
    <glyph glyph-name="uniFD18" unicode="&#xfd18;" horiz-adv-x="1917" arabic-form="final" 
d="M1773 267c0 -116 57 -169 164 -169v-98c-95 0 -165 36 -195 99c-38 -74 -109 -109 -209 -109c-98 0 -165 40 -201 111c-35 -75 -104 -111 -218 -111c-162 0 -259 91 -259 264v329h-92c-91 0 -135 -57 -135 -141v-567h-278c-199 0 -296 95 -296 281v220h98v-210
c0 -140 88 -193 218 -193h160v453c0 168 91 250 250 250h173v-424c0 -105 57 -163 161 -163c101 0 162 55 162 163v236h99v-243c0 -103 51 -156 150 -156c95 0 150 50 150 156v318h98v-296zM328 -236c40 0 70 -26 70 -64c0 -41 -32 -65 -70 -65c-37 0 -70 24 -70 65
c0 38 31 64 70 64zM513 -236c40 0 70 -26 70 -64c0 -41 -32 -65 -70 -65c-37 0 -70 24 -70 65c0 38 31 64 70 64z" />
    <glyph glyph-name="uniFD0D" unicode="&#xfd0d;" horiz-adv-x="1422" arabic-form="isolated" 
d="M918 735c-31 0 -61 21 -61 57c0 33 27 56 61 56c35 0 61 -23 61 -56c0 -36 -28 -57 -61 -57zM827 598c-36 0 -68 23 -68 63c0 37 30 63 68 63c39 0 68 -26 68 -63c0 -40 -32 -63 -68 -63zM940 661c0 37 30 63 68 63c39 0 68 -26 68 -63c0 -40 -31 -63 -68 -63
c-36 0 -68 23 -68 63zM1267 563h98v-309c0 -181 -86 -264 -249 -264c-94 0 -159 36 -196 102c-34 -68 -99 -102 -203 -102c-163 0 -248 91 -248 264v136h-216v-395c0 -165 -62 -215 -185 -215c-26 0 -53 4 -78 10l-8 85c30 -4 52 -6 77 -6c59 0 96 29 96 111v627h98v-119
h314v-243c0 -103 53 -156 150 -156c94 0 151 52 151 156v243h98v-243c0 -103 52 -156 150 -156c94 0 151 52 151 156v318z" />
    <glyph glyph-name="uniFD29" unicode="&#xfd29;" horiz-adv-x="1509" arabic-form="final" 
d="M918 735c-31 0 -61 21 -61 57c0 33 27 56 61 56c35 0 61 -23 61 -56c0 -36 -28 -57 -61 -57zM827 598c-36 0 -68 23 -68 63c0 37 30 63 68 63c39 0 68 -26 68 -63c0 -40 -32 -63 -68 -63zM940 661c0 37 30 63 68 63c39 0 68 -26 68 -63c0 -40 -31 -63 -68 -63
c-36 0 -68 23 -68 63zM1365 267c0 -116 57 -169 164 -169v-98c-95 0 -166 36 -195 99c-39 -74 -112 -109 -218 -109c-94 0 -159 36 -196 102c-34 -68 -99 -102 -203 -102c-163 0 -248 91 -248 264v136h-216v-395c0 -165 -62 -215 -185 -215c-26 0 -53 4 -78 10l-8 85
c30 -4 52 -6 77 -6c59 0 96 29 96 111v627h98v-119h314v-243c0 -103 53 -156 150 -156c94 0 151 52 151 156v243h98v-243c0 -103 52 -156 150 -156c94 0 151 52 151 156v318h98v-296z" />
    <glyph glyph-name="uniFCFD" unicode="&#xfcfd;" horiz-adv-x="1831" arabic-form="isolated" 
d="M1326 735c-31 0 -61 21 -61 57c0 33 27 56 61 56c35 0 61 -23 61 -56c0 -36 -28 -57 -61 -57zM1235 598c-36 0 -68 23 -68 63c0 37 30 63 68 63c39 0 68 -26 68 -63c0 -40 -32 -63 -68 -63zM1348 661c0 37 30 63 68 63c39 0 68 -26 68 -63c0 -40 -31 -63 -68 -63
c-36 0 -68 23 -68 63zM1675 563h98v-309c0 -181 -86 -264 -240 -264c-98 0 -165 40 -201 111c-35 -75 -104 -111 -218 -111c-162 0 -259 91 -259 264v329h-92c-91 0 -135 -57 -135 -141v-567h-278c-199 0 -296 95 -296 281v220h98v-210c0 -140 88 -193 218 -193h160v453
c0 168 91 250 250 250h173v-424c0 -105 57 -163 161 -163c101 0 162 55 162 163v236h99v-243c0 -103 51 -156 150 -156c95 0 150 50 150 156v318z" />
    <glyph glyph-name="uniFD19" unicode="&#xfd19;" horiz-adv-x="1917" arabic-form="final" 
d="M1326 735c-31 0 -61 21 -61 57c0 33 27 56 61 56c35 0 61 -23 61 -56c0 -36 -28 -57 -61 -57zM1235 598c-36 0 -68 23 -68 63c0 37 30 63 68 63c39 0 68 -26 68 -63c0 -40 -32 -63 -68 -63zM1348 661c0 37 30 63 68 63c39 0 68 -26 68 -63c0 -40 -31 -63 -68 -63
c-36 0 -68 23 -68 63zM1773 267c0 -116 57 -169 164 -169v-98c-95 0 -165 36 -195 99c-38 -74 -109 -109 -209 -109c-98 0 -165 40 -201 111c-35 -75 -104 -111 -218 -111c-162 0 -259 91 -259 264v329h-92c-91 0 -135 -57 -135 -141v-567h-278c-199 0 -296 95 -296 281v220
h98v-210c0 -140 88 -193 218 -193h160v453c0 168 91 250 250 250h173v-424c0 -105 57 -163 161 -163c101 0 162 55 162 163v236h99v-243c0 -103 51 -156 150 -156c95 0 150 50 150 156v318h98v-296z" />
    <glyph glyph-name="uniFCFE" unicode="&#xfcfe;" horiz-adv-x="1831" arabic-form="isolated" 
d="M1326 735c-31 0 -61 21 -61 57c0 33 27 56 61 56c35 0 61 -23 61 -56c0 -36 -28 -57 -61 -57zM1235 598c-36 0 -68 23 -68 63c0 37 30 63 68 63c39 0 68 -26 68 -63c0 -40 -32 -63 -68 -63zM1348 661c0 37 30 63 68 63c39 0 68 -26 68 -63c0 -40 -31 -63 -68 -63
c-36 0 -68 23 -68 63zM1675 563h98v-309c0 -181 -86 -264 -240 -264c-98 0 -165 40 -201 111c-35 -75 -104 -111 -218 -111c-162 0 -259 91 -259 264v329h-92c-91 0 -135 -57 -135 -141v-567h-278c-199 0 -296 95 -296 281v220h98v-210c0 -140 88 -193 218 -193h160v453
c0 168 91 250 250 250h173v-424c0 -105 57 -163 161 -163c101 0 162 55 162 163v236h99v-243c0 -103 51 -156 150 -156c95 0 150 50 150 156v318zM328 -236c40 0 70 -26 70 -64c0 -41 -32 -65 -70 -65c-37 0 -70 24 -70 65c0 38 31 64 70 64zM513 -236c40 0 70 -26 70 -64
c0 -41 -32 -65 -70 -65c-37 0 -70 24 -70 65c0 38 31 64 70 64z" />
    <glyph glyph-name="uniFD1A" unicode="&#xfd1a;" horiz-adv-x="1917" arabic-form="final" 
d="M1326 735c-31 0 -61 21 -61 57c0 33 27 56 61 56c35 0 61 -23 61 -56c0 -36 -28 -57 -61 -57zM1235 598c-36 0 -68 23 -68 63c0 37 30 63 68 63c39 0 68 -26 68 -63c0 -40 -32 -63 -68 -63zM1348 661c0 37 30 63 68 63c39 0 68 -26 68 -63c0 -40 -31 -63 -68 -63
c-36 0 -68 23 -68 63zM1773 267c0 -116 57 -169 164 -169v-98c-95 0 -165 36 -195 99c-38 -74 -109 -109 -209 -109c-98 0 -165 40 -201 111c-35 -75 -104 -111 -218 -111c-162 0 -259 91 -259 264v329h-92c-91 0 -135 -57 -135 -141v-567h-278c-199 0 -296 95 -296 281v220
h98v-210c0 -140 88 -193 218 -193h160v453c0 168 91 250 250 250h173v-424c0 -105 57 -163 161 -163c101 0 162 55 162 163v236h99v-243c0 -103 51 -156 150 -156c95 0 150 50 150 156v318h98v-296zM328 -236c40 0 70 -26 70 -64c0 -41 -32 -65 -70 -65c-37 0 -70 24 -70 65
c0 38 31 64 70 64zM513 -236c40 0 70 -26 70 -64c0 -41 -32 -65 -70 -65c-37 0 -70 24 -70 65c0 38 31 64 70 64z" />
    <glyph glyph-name="uniFD05" unicode="&#xfd05;" horiz-adv-x="1642" arabic-form="isolated" 
d="M1291 556c201 0 295 -94 294 -280l-1 -276h-481c-163 0 -248 91 -248 264v319h-92c-91 0 -135 -57 -135 -141v-567h-278c-199 0 -296 95 -296 281v220h98v-210c0 -140 88 -193 218 -193h160v453c0 168 91 250 250 250h173v-120h338zM1492 292c1 116 -74 166 -187 166
h-352v-203c0 -103 53 -157 150 -157h389v194z" />
    <glyph glyph-name="uniFD21" unicode="&#xfd21;" horiz-adv-x="1686" arabic-form="final" 
d="M1584 98h122v-98h-603c-163 0 -248 91 -248 264v319h-92c-91 0 -135 -57 -135 -141v-567h-278c-199 0 -296 95 -296 281v220h98v-210c0 -140 88 -193 218 -193h160v453c0 168 91 250 250 250h173v-120h338c201 0 295 -94 294 -280zM1492 292c1 116 -74 166 -187 166h-352
v-203c0 -103 53 -157 150 -157h389v194z" />
    <glyph glyph-name="uniFD06" unicode="&#xfd06;" horiz-adv-x="1642" arabic-form="isolated" 
d="M1291 556c201 0 295 -94 294 -280l-1 -276h-481c-163 0 -248 91 -248 264v319h-92c-91 0 -135 -57 -135 -141v-567h-278c-199 0 -296 95 -296 281v220h98v-210c0 -140 88 -193 218 -193h160v453c0 168 91 250 250 250h173v-120h338zM1492 292c1 116 -74 166 -187 166
h-352v-203c0 -103 53 -157 150 -157h389v194zM328 -236c40 0 70 -26 70 -64c0 -41 -32 -65 -70 -65c-37 0 -70 24 -70 65c0 38 31 64 70 64zM513 -236c40 0 70 -26 70 -64c0 -41 -32 -65 -70 -65c-37 0 -70 24 -70 65c0 38 31 64 70 64z" />
    <glyph glyph-name="uniFD22" unicode="&#xfd22;" horiz-adv-x="1686" arabic-form="final" 
d="M1584 98h122v-98h-603c-163 0 -248 91 -248 264v319h-92c-91 0 -135 -57 -135 -141v-567h-278c-199 0 -296 95 -296 281v220h98v-210c0 -140 88 -193 218 -193h160v453c0 168 91 250 250 250h173v-120h338c201 0 295 -94 294 -280zM1492 292c1 116 -74 166 -187 166h-352
v-203c0 -103 53 -157 150 -157h389v194zM328 -236c40 0 70 -26 70 -64c0 -41 -32 -65 -70 -65c-37 0 -70 24 -70 65c0 38 31 64 70 64zM513 -236c40 0 70 -26 70 -64c0 -41 -32 -65 -70 -65c-37 0 -70 24 -70 65c0 38 31 64 70 64z" />
    <glyph glyph-name="uniFD07" unicode="&#xfd07;" horiz-adv-x="1642" arabic-form="isolated" 
d="M1258 673c-38 0 -71 23 -71 65c0 39 31 65 71 65c38 0 70 -26 70 -65c0 -42 -34 -65 -70 -65zM1291 556c201 0 295 -94 294 -280l-1 -276h-481c-163 0 -248 91 -248 264v319h-92c-91 0 -135 -57 -135 -141v-567h-278c-199 0 -296 95 -296 281v220h98v-210
c0 -140 88 -193 218 -193h160v453c0 168 91 250 250 250h173v-120h338zM1492 292c1 116 -74 166 -187 166h-352v-203c0 -103 53 -157 150 -157h389v194z" />
    <glyph glyph-name="uniFD23" unicode="&#xfd23;" horiz-adv-x="1686" arabic-form="final" 
d="M1258 673c-38 0 -71 23 -71 65c0 39 31 65 71 65c38 0 70 -26 70 -65c0 -42 -34 -65 -70 -65zM1584 98h122v-98h-603c-163 0 -248 91 -248 264v319h-92c-91 0 -135 -57 -135 -141v-567h-278c-199 0 -296 95 -296 281v220h98v-210c0 -140 88 -193 218 -193h160v453
c0 168 91 250 250 250h173v-120h338c201 0 295 -94 294 -280zM1492 292c1 116 -74 166 -187 166h-352v-203c0 -103 53 -157 150 -157h389v194z" />
    <glyph glyph-name="uniFD08" unicode="&#xfd08;" horiz-adv-x="1642" arabic-form="isolated" 
d="M1258 673c-38 0 -71 23 -71 65c0 39 31 65 71 65c38 0 70 -26 70 -65c0 -42 -34 -65 -70 -65zM1291 556c201 0 295 -94 294 -280l-1 -276h-481c-163 0 -248 91 -248 264v319h-92c-91 0 -135 -57 -135 -141v-567h-278c-199 0 -296 95 -296 281v220h98v-210
c0 -140 88 -193 218 -193h160v453c0 168 91 250 250 250h173v-120h338zM1492 292c1 116 -74 166 -187 166h-352v-203c0 -103 53 -157 150 -157h389v194zM328 -236c40 0 70 -26 70 -64c0 -41 -32 -65 -70 -65c-37 0 -70 24 -70 65c0 38 31 64 70 64zM513 -236
c40 0 70 -26 70 -64c0 -41 -32 -65 -70 -65c-37 0 -70 24 -70 65c0 38 31 64 70 64z" />
    <glyph glyph-name="uniFD24" unicode="&#xfd24;" horiz-adv-x="1686" arabic-form="final" 
d="M1258 673c-38 0 -71 23 -71 65c0 39 31 65 71 65c38 0 70 -26 70 -65c0 -42 -34 -65 -70 -65zM1584 98h122v-98h-603c-163 0 -248 91 -248 264v319h-92c-91 0 -135 -57 -135 -141v-567h-278c-199 0 -296 95 -296 281v220h98v-210c0 -140 88 -193 218 -193h160v453
c0 168 91 250 250 250h173v-120h338c201 0 295 -94 294 -280zM1492 292c1 116 -74 166 -187 166h-352v-203c0 -103 53 -157 150 -157h389v194zM328 -236c40 0 70 -26 70 -64c0 -41 -32 -65 -70 -65c-37 0 -70 24 -70 65c0 38 31 64 70 64zM513 -236c40 0 70 -26 70 -64
c0 -41 -32 -65 -70 -65c-37 0 -70 24 -70 65c0 38 31 64 70 64z" />
    <glyph glyph-name="uniFC8A" unicode="&#xfc8a;" horiz-adv-x="726" arabic-form="final" 
d="M521 793c-38 0 -71 23 -71 65c0 39 31 65 71 65c38 0 70 -26 70 -65c0 -42 -34 -65 -70 -65zM724 99h22v-99h-22c-167 0 -254 91 -254 264v194h-217v-463c0 -165 -62 -215 -185 -215c-26 0 -53 4 -78 10l-8 85c30 -4 52 -6 77 -6c59 0 96 29 96 111v576h315v120h98v-418
c0 -104 53 -159 156 -159z" />
    <glyph glyph-name="uniFC8B" unicode="&#xfc8b;" horiz-adv-x="726" arabic-form="final" 
d="M521 793c-38 0 -71 23 -71 65c0 39 31 65 71 65c38 0 70 -26 70 -65c0 -42 -34 -65 -70 -65zM199 673c-38 0 -71 23 -71 65c0 39 31 65 71 65c38 0 70 -26 70 -65c0 -42 -34 -65 -70 -65zM724 99h22v-99h-22c-167 0 -254 91 -254 264v194h-217v-463
c0 -165 -62 -215 -185 -215c-26 0 -53 4 -78 10l-8 85c30 -4 52 -6 77 -6c59 0 96 29 96 111v576h315v120h98v-418c0 -104 53 -159 156 -159z" />
    <glyph glyph-name="uniFC8D" unicode="&#xfc8d;" horiz-adv-x="1063" arabic-form="final" 
d="M858 725c-38 0 -71 23 -71 65c0 39 31 65 71 65c38 0 70 -26 70 -65c0 -42 -34 -65 -70 -65zM319 605c-38 0 -71 23 -71 65c0 39 31 65 71 65c38 0 70 -26 70 -65c0 -42 -34 -65 -70 -65zM1061 99h22v-99h-22c-167 0 -254 91 -254 264v126h-232v-515h-225
c-193 0 -296 98 -296 277v336h99v-324c0 -138 84 -191 212 -191h112v515h330v120h98v-350c0 -104 53 -159 156 -159z" />
    <glyph glyph-name="uniFC8E" unicode="&#xfc8e;" horiz-adv-x="1162" arabic-form="final" 
d="M958 793c-38 0 -71 23 -71 65c0 39 31 65 71 65c38 0 70 -26 70 -65c0 -42 -34 -65 -70 -65zM1160 99h22v-99h-22c-166 0 -254 91 -254 264v199h-126c-101 0 -152 -64 -152 -158v-430h-278c-199 0 -296 95 -296 281v220h98v-210c0 -140 88 -193 218 -193h160v333
c0 168 91 250 250 250h126v120h99v-418c0 -104 53 -159 155 -159z" />
    <glyph glyph-name="uniFC8F" unicode="&#xfc8f;" horiz-adv-x="1162" arabic-form="final" 
d="M958 793c-38 0 -71 23 -71 65c0 39 31 65 71 65c38 0 70 -26 70 -65c0 -42 -34 -65 -70 -65zM1160 99h22v-99h-22c-166 0 -254 91 -254 264v199h-126c-101 0 -152 -64 -152 -158v-430h-278c-199 0 -296 95 -296 281v220h98v-210c0 -140 88 -193 218 -193h160v333
c0 168 91 250 250 250h126v120h99v-418c0 -104 53 -159 155 -159zM328 -236c40 0 70 -26 70 -64c0 -41 -32 -65 -70 -65c-37 0 -70 24 -70 65c0 38 31 64 70 64zM513 -236c40 0 70 -26 70 -64c0 -41 -32 -65 -70 -65c-37 0 -70 24 -70 65c0 38 31 64 70 64z" />
    <glyph glyph-name="uniFC91" unicode="&#xfc91;" horiz-adv-x="726" arabic-form="final" 
d="M724 99h22v-99h-22c-167 0 -254 91 -254 264v194h-217v-463c0 -165 -62 -215 -185 -215c-26 0 -53 4 -78 10l-8 85c30 -4 52 -6 77 -6c59 0 96 29 96 111v576h315v120h98v-418c0 -104 53 -159 156 -159zM372 -111c40 0 70 -26 70 -64c0 -41 -32 -65 -70 -65
c-37 0 -70 24 -70 65c0 38 31 64 70 64zM557 -111c40 0 70 -26 70 -64c0 -41 -32 -65 -70 -65c-37 0 -70 24 -70 65c0 38 31 64 70 64z" />
    <glyph glyph-name="uniFC92" unicode="&#xfc92;" horiz-adv-x="726" arabic-form="final" 
d="M199 673c-38 0 -71 23 -71 65c0 39 31 65 71 65c38 0 70 -26 70 -65c0 -42 -34 -65 -70 -65zM724 99h22v-99h-22c-167 0 -254 91 -254 264v194h-217v-463c0 -165 -62 -215 -185 -215c-26 0 -53 4 -78 10l-8 85c30 -4 52 -6 77 -6c59 0 96 29 96 111v576h315v120h98v-418
c0 -104 53 -159 156 -159zM372 -111c40 0 70 -26 70 -64c0 -41 -32 -65 -70 -65c-37 0 -70 24 -70 65c0 38 31 64 70 64zM557 -111c40 0 70 -26 70 -64c0 -41 -32 -65 -70 -65c-37 0 -70 24 -70 65c0 38 31 64 70 64z" />
    <glyph glyph-name="uniFC94" unicode="&#xfc94;" horiz-adv-x="1063" arabic-form="final" 
d="M319 605c-38 0 -71 23 -71 65c0 39 31 65 71 65c38 0 70 -26 70 -65c0 -42 -34 -65 -70 -65zM1061 99h22v-99h-22c-167 0 -254 91 -254 264v126h-232v-515h-225c-193 0 -296 98 -296 277v336h99v-324c0 -138 84 -191 212 -191h112v515h330v120h98v-350
c0 -104 53 -159 156 -159zM700 -111c40 0 70 -26 70 -64c0 -41 -32 -65 -70 -65c-37 0 -70 24 -70 65c0 38 31 64 70 64zM885 -111c40 0 70 -26 70 -64c0 -41 -32 -65 -70 -65c-37 0 -70 24 -70 65c0 38 31 64 70 64z" />
    <glyph glyph-name="uniFC64" unicode="&#xfc64;" horiz-adv-x="726" arabic-form="final" 
d="M594 812v-59h-149v72c0 61 37 102 101 102h21v-55h-27c-25 0 -37 -17 -37 -42v-18h91zM724 99h22v-99h-22c-167 0 -254 91 -254 264v194h-217v-463c0 -165 -62 -215 -185 -215c-26 0 -53 4 -78 10l-8 85c30 -4 52 -6 77 -6c59 0 96 29 96 111v576h315v120h98v-418
c0 -104 53 -159 156 -159z" />
    <glyph glyph-name="uniFC65" unicode="&#xfc65;" horiz-adv-x="726" arabic-form="final" 
d="M594 812v-59h-149v72c0 61 37 102 101 102h21v-55h-27c-25 0 -37 -17 -37 -42v-18h91zM199 673c-38 0 -71 23 -71 65c0 39 31 65 71 65c38 0 70 -26 70 -65c0 -42 -34 -65 -70 -65zM724 99h22v-99h-22c-167 0 -254 91 -254 264v194h-217v-463c0 -165 -62 -215 -185 -215
c-26 0 -53 4 -78 10l-8 85c30 -4 52 -6 77 -6c59 0 96 29 96 111v576h315v120h98v-418c0 -104 53 -159 156 -159z" />
    <glyph glyph-name="uniFC67" unicode="&#xfc67;" horiz-adv-x="1063" arabic-form="final" 
d="M931 744v-59h-149v72c0 61 37 102 101 102h21v-55h-27c-25 0 -37 -17 -37 -42v-18h91zM319 605c-38 0 -71 23 -71 65c0 39 31 65 71 65c38 0 70 -26 70 -65c0 -42 -34 -65 -70 -65zM1061 99h22v-99h-22c-167 0 -254 91 -254 264v126h-232v-515h-225
c-193 0 -296 98 -296 277v336h99v-324c0 -138 84 -191 212 -191h112v515h330v120h98v-350c0 -104 53 -159 156 -159z" />
    <glyph glyph-name="uniFC68" unicode="&#xfc68;" horiz-adv-x="1162" arabic-form="final" 
d="M1031 812v-59h-149v72c0 61 37 102 101 102h21v-55h-27c-25 0 -37 -17 -37 -42v-18h91zM1160 99h22v-99h-22c-166 0 -254 91 -254 264v199h-126c-101 0 -152 -64 -152 -158v-430h-278c-199 0 -296 95 -296 281v220h98v-210c0 -140 88 -193 218 -193h160v333
c0 168 91 250 250 250h126v120h99v-418c0 -104 53 -159 155 -159z" />
    <glyph glyph-name="uniFC69" unicode="&#xfc69;" horiz-adv-x="1162" arabic-form="final" 
d="M1031 812v-59h-149v72c0 61 37 102 101 102h21v-55h-27c-25 0 -37 -17 -37 -42v-18h91zM1160 99h22v-99h-22c-166 0 -254 91 -254 264v199h-126c-101 0 -152 -64 -152 -158v-430h-278c-199 0 -296 95 -296 281v220h98v-210c0 -140 88 -193 218 -193h160v333
c0 168 91 250 250 250h126v120h99v-418c0 -104 53 -159 155 -159zM328 -236c40 0 70 -26 70 -64c0 -41 -32 -65 -70 -65c-37 0 -70 24 -70 65c0 38 31 64 70 64zM513 -236c40 0 70 -26 70 -64c0 -41 -32 -65 -70 -65c-37 0 -70 24 -70 65c0 38 31 64 70 64z" />
    <glyph glyph-name=".notdef" horiz-adv-x="500" 
 />
    <glyph glyph-name="A" unicode="A" horiz-adv-x="779" 
d="M653 0l-88 239h-351l-88 -239h-103l305 811h119l309 -811h-103zM385 705l-140 -377h288l-142 377l-3 8z" />
    <glyph glyph-name="Aacute" unicode="&#xc1;" horiz-adv-x="779" 
d="M567 1020l-146 -141h-98l128 141h116zM653 0l-88 239h-351l-88 -239h-103l305 811h119l309 -811h-103zM385 705l-140 -377h288l-142 377l-3 8z" />
    <glyph glyph-name="Abreve" unicode="&#x102;" horiz-adv-x="779" 
d="M390 872c-100 0 -156 43 -167 142h66c9 -63 36 -89 101 -89s92 26 101 89h66c-11 -99 -67 -142 -167 -142zM653 0l-88 239h-351l-88 -239h-103l305 811h119l309 -811h-103zM385 705l-140 -377h288l-142 377l-3 8z" />
    <glyph glyph-name="uni01CD" unicode="&#x1cd;" horiz-adv-x="779" 
d="M441 875h-100l-151 148h97l104 -106l102 106h97zM653 0l-88 239h-351l-88 -239h-103l305 811h119l309 -811h-103zM385 705l-140 -377h288l-142 377l-3 8z" />
    <glyph glyph-name="Acircumflex" unicode="&#xc2;" horiz-adv-x="779" 
d="M392 978l-101 -105h-92l146 148h92l148 -148h-91zM653 0l-88 239h-351l-88 -239h-103l305 811h119l309 -811h-103zM385 705l-140 -377h288l-142 377l-3 8z" />
    <glyph glyph-name="Adieresis" unicode="&#xc4;" horiz-adv-x="779" 
d="M300 875c-36 0 -69 21 -68 61c1 37 31 62 68 62c36 0 65 -25 65 -62c0 -40 -31 -61 -65 -61zM479 875c-36 0 -69 21 -68 61c0 37 31 62 68 62c36 0 65 -25 65 -62c0 -40 -31 -61 -65 -61zM653 0l-88 239h-351l-88 -239h-103l305 811h119l309 -811h-103zM385 705
l-140 -377h288l-142 377l-3 8z" />
    <glyph glyph-name="Agrave" unicode="&#xc0;" horiz-adv-x="779" 
d="M456 875h-66l-143 148h119zM653 0l-88 239h-351l-88 -239h-103l305 811h119l309 -811h-103zM385 705l-140 -377h288l-142 377l-3 8z" />
    <glyph glyph-name="Amacron" unicode="&#x100;" horiz-adv-x="779" 
d="M538 946v-71h-296v71h296zM653 0l-88 239h-351l-88 -239h-103l305 811h119l309 -811h-103zM385 705l-140 -377h288l-142 377l-3 8z" />
    <glyph glyph-name="Aogonek" unicode="&#x104;" horiz-adv-x="779" 
d="M724 -176c14 0 29 2 40 4v-46c-12 -3 -39 -6 -59 -6c-75 0 -149 32 -150 106c-1 49 26 84 97 121l-87 236h-351l-88 -239h-103l305 811h119l309 -811c-85 -36 -115 -66 -115 -107c1 -45 36 -69 83 -69zM385 705l-140 -377h288l-142 377l-3 8z" />
    <glyph glyph-name="Aring" unicode="&#xc5;" horiz-adv-x="779" 
d="M392 873c-62 0 -113 48 -113 110s49 108 113 108c61 0 111 -49 111 -110c0 -63 -48 -108 -111 -108zM392 1035c-33 0 -57 -23 -56 -53c-2 -31 24 -53 55 -53c34 0 56 22 56 53c-1 30 -23 53 -55 53zM653 0l-88 239h-351l-88 -239h-103l305 811h119l309 -811h-103z
M385 705l-140 -377h288l-142 377l-3 8z" />
    <glyph glyph-name="Atilde" unicode="&#xc3;" horiz-adv-x="779" 
d="M327 913c-23 0 -33 -12 -40 -42h-75c6 72 32 119 101 119c68 0 95 -43 145 -43c22 0 32 14 39 42h75c-6 -72 -30 -118 -100 -118c-66 0 -95 42 -145 42zM653 0l-88 239h-351l-88 -239h-103l305 811h119l309 -811h-103zM385 705l-140 -377h288l-142 377l-3 8z" />
    <glyph glyph-name="AE" unicode="&#xc6;" horiz-adv-x="1115" 
d="M640 93h397v-93h-496v224h-280l-143 -224h-110l529 811h496v-93h-393v-253h355v-93h-355v-279zM541 675l-235 -362h235v362z" />
    <glyph glyph-name="B" unicode="B" horiz-adv-x="736" 
d="M505 430c111 -19 170 -89 170 -199v-1c0 -170 -127 -230 -292 -230h-275v811h260c174 0 273 -62 273 -198v-1c0 -92 -51 -162 -136 -182zM365 717h-159v-258h159c123 0 178 47 178 132v1c0 95 -71 125 -178 125zM575 239v1c0 99 -72 140 -181 140h-188v-286h185
c127 0 184 58 184 145z" />
    <glyph glyph-name="C" unicode="C" horiz-adv-x="781" 
d="M470 -12c-244 0 -419 171 -420 417v1c0 246 176 418 420 418h1c99 0 187 -30 260 -80l-39 -84c-69 46 -141 67 -216 67h-1c-168 0 -318 -111 -318 -321v-1c1 -209 149 -321 317 -321h1c75 0 148 21 217 67l39 -85c-70 -47 -155 -78 -260 -78h-1z" />
    <glyph glyph-name="Cacute" unicode="&#x106;" horiz-adv-x="781" 
d="M402 879l128 141h116l-146 -141h-98zM470 -12c-244 0 -419 171 -420 417v1c0 246 176 418 420 418h1c99 0 187 -30 260 -80l-39 -84c-69 46 -141 67 -216 67h-1c-168 0 -318 -111 -318 -321v-1c1 -209 149 -321 317 -321h1c75 0 148 21 217 67l39 -85
c-70 -47 -155 -78 -260 -78h-1z" />
    <glyph glyph-name="Ccaron" unicode="&#x10c;" horiz-adv-x="781" 
d="M420 875l-151 148h97l104 -106l102 106h97l-149 -148h-100zM470 -12c-244 0 -419 171 -420 417v1c0 246 176 418 420 418h1c99 0 187 -30 260 -80l-39 -84c-69 46 -141 67 -216 67h-1c-168 0 -318 -111 -318 -321v-1c1 -209 149 -321 317 -321h1c75 0 148 21 217 67
l39 -85c-70 -47 -155 -78 -260 -78h-1z" />
    <glyph glyph-name="Ccedilla" unicode="&#xc7;" horiz-adv-x="781" 
d="M731 66c-67 -45 -147 -75 -245 -78l-30 -46c3 1 13 2 20 2c48 0 99 -23 99 -76c-1 -60 -53 -88 -123 -88c-28 0 -53 3 -80 12l-4 46c21 -6 57 -14 80 -14c46 0 74 13 74 41c0 27 -25 37 -65 37c-25 0 -53 -7 -67 -12l-7 10l56 89c-228 14 -388 181 -389 416v1
c0 246 176 418 420 418h1c99 0 187 -30 260 -80l-39 -84c-69 46 -141 67 -216 67h-1c-168 0 -318 -111 -318 -321v-1c1 -209 149 -321 317 -321h1c75 0 148 21 217 67z" />
    <glyph glyph-name="Ccircumflex" unicode="&#x108;" horiz-adv-x="781" 
d="M278 873l146 148h92l148 -148h-91l-102 105l-101 -105h-92zM470 -12c-244 0 -419 171 -420 417v1c0 246 176 418 420 418h1c99 0 187 -30 260 -80l-39 -84c-69 46 -141 67 -216 67h-1c-168 0 -318 -111 -318 -321v-1c1 -209 149 -321 317 -321h1c75 0 148 21 217 67
l39 -85c-70 -47 -155 -78 -260 -78h-1z" />
    <glyph glyph-name="Cdotaccent" unicode="&#x10a;" horiz-adv-x="781" 
d="M470 874c-37 0 -70 22 -70 64c0 38 31 64 70 64c38 0 69 -26 69 -64c0 -42 -33 -64 -69 -64zM470 -12c-244 0 -419 171 -420 417v1c0 246 176 418 420 418h1c99 0 187 -30 260 -80l-39 -84c-69 46 -141 67 -216 67h-1c-168 0 -318 -111 -318 -321v-1
c1 -209 149 -321 317 -321h1c75 0 148 21 217 67l39 -85c-70 -47 -155 -78 -260 -78h-1z" />
    <glyph glyph-name="D" unicode="D" horiz-adv-x="829" 
d="M337 811c269 0 438 -156 438 -402v-1c-1 -249 -170 -408 -438 -408h-229v811h229zM668 408v1c0 193 -119 309 -318 309h-144v-625h144c198 0 317 118 318 315z" />
    <glyph glyph-name="Eth" unicode="&#xd0;" horiz-adv-x="829" 
d="M337 811c269 0 438 -156 438 -402v-1c-1 -249 -170 -408 -438 -408h-229v378h-92v78h92v355h229zM668 408v1c0 193 -119 309 -318 309h-144v-262h111v-78h-111v-285h144c198 0 317 118 318 315z" />
    <glyph glyph-name="Dcaron" unicode="&#x10e;" horiz-adv-x="829" 
d="M465 875h-100l-151 148h97l104 -106l102 106h97zM337 811c269 0 438 -156 438 -402v-1c-1 -249 -170 -408 -438 -408h-229v811h229zM668 408v1c0 193 -119 309 -318 309h-144v-625h144c198 0 317 118 318 315z" />
    <glyph glyph-name="Dcroat" unicode="&#x110;" horiz-adv-x="829" 
d="M337 811c269 0 438 -156 438 -402v-1c-1 -249 -170 -408 -438 -408h-229v378h-92v78h92v355h229zM668 408v1c0 193 -119 309 -318 309h-144v-262h111v-78h-111v-285h144c198 0 317 118 318 315z" />
    <glyph glyph-name="E" unicode="E" horiz-adv-x="682" 
d="M108 0v811h492v-93h-394v-253h356v-93h-356v-279h398v-93h-496z" />
    <glyph glyph-name="Eacute" unicode="&#xc9;" horiz-adv-x="682" 
d="M297 879l128 141h116l-146 -141h-98zM108 0v811h492v-93h-394v-253h356v-93h-356v-279h398v-93h-496z" />
    <glyph glyph-name="Ebreve" unicode="&#x114;" horiz-adv-x="682" 
d="M364 872c-100 0 -156 43 -167 142h66c9 -63 36 -89 101 -89s92 26 101 89h66c-11 -99 -67 -142 -167 -142zM108 0v811h492v-93h-394v-253h356v-93h-356v-279h398v-93h-496z" />
    <glyph glyph-name="Ecaron" unicode="&#x11a;" horiz-adv-x="682" 
d="M315 875l-151 148h97l104 -106l102 106h97l-149 -148h-100zM108 0v811h492v-93h-394v-253h356v-93h-356v-279h398v-93h-496z" />
    <glyph glyph-name="Ecircumflex" unicode="&#xca;" horiz-adv-x="682" 
d="M173 873l146 148h92l148 -148h-91l-102 105l-101 -105h-92zM108 0v811h492v-93h-394v-253h356v-93h-356v-279h398v-93h-496z" />
    <glyph glyph-name="Edieresis" unicode="&#xcb;" horiz-adv-x="682" 
d="M274 875c-36 0 -69 21 -68 61c1 37 31 62 68 62c36 0 65 -25 65 -62c0 -40 -31 -61 -65 -61zM453 875c-36 0 -69 21 -68 61c0 37 31 62 68 62c36 0 65 -25 65 -62c0 -40 -31 -61 -65 -61zM108 0v811h492v-93h-394v-253h356v-93h-356v-279h398v-93h-496z" />
    <glyph glyph-name="Edotaccent" unicode="&#x116;" horiz-adv-x="682" 
d="M365 874c-37 0 -70 22 -70 64c0 38 31 64 70 64c38 0 69 -26 69 -64c0 -42 -33 -64 -69 -64zM108 0v811h492v-93h-394v-253h356v-93h-356v-279h398v-93h-496z" />
    <glyph glyph-name="Egrave" unicode="&#xc8;" horiz-adv-x="682" 
d="M364 875l-143 148h119l90 -148h-66zM108 0v811h492v-93h-394v-253h356v-93h-356v-279h398v-93h-496z" />
    <glyph glyph-name="Emacron" unicode="&#x112;" horiz-adv-x="682" 
d="M216 875v71h296v-71h-296zM108 0v811h492v-93h-394v-253h356v-93h-356v-279h398v-93h-496z" />
    <glyph glyph-name="Eogonek" unicode="&#x118;" horiz-adv-x="682" 
d="M568 -155c14 0 27 3 37 4v-47c-11 -2 -38 -5 -58 -5c-78 0 -151 24 -149 94c2 42 35 77 99 109h-389v811h492v-93h-394v-253h356v-93h-356v-279h398v-93c-78 -34 -118 -60 -119 -99c-2 -40 37 -56 83 -56z" />
    <glyph glyph-name="uni1EBC" unicode="&#x1ebc;" horiz-adv-x="682" 
d="M186 871c6 72 32 119 101 119c68 0 95 -43 145 -43c22 0 32 14 39 42h75c-6 -72 -30 -118 -100 -118c-66 0 -95 42 -145 42c-23 0 -33 -12 -40 -42h-75zM108 0v811h492v-93h-394v-253h356v-93h-356v-279h398v-93h-496z" />
    <glyph glyph-name="F" unicode="F" horiz-adv-x="666" 
d="M108 0v811h486v-93h-388v-254h349v-93h-349v-371h-98z" />
    <glyph glyph-name="G" unicode="G" horiz-adv-x="809" 
d="M419 418h335v-349c-75 -51 -184 -81 -284 -81c-244 0 -419 173 -420 418v1c0 245 176 417 421 417c97 0 188 -26 276 -80l-40 -89c-64 46 -144 73 -232 73c-168 0 -318 -112 -318 -321v-1c1 -209 149 -321 317 -322c69 0 132 18 187 53v190h-242v91z" />
    <glyph glyph-name="Gbreve" unicode="&#x11e;" horiz-adv-x="809" 
d="M458 872c-100 0 -156 43 -167 142h66c9 -63 36 -89 101 -89s92 26 101 89h66c-11 -99 -67 -142 -167 -142zM419 418h335v-349c-75 -51 -184 -81 -284 -81c-244 0 -419 173 -420 418v1c0 245 176 417 421 417c97 0 188 -26 276 -80l-40 -89c-64 46 -144 73 -232 73
c-168 0 -318 -112 -318 -321v-1c1 -209 149 -321 317 -322c69 0 132 18 187 53v190h-242v91z" />
    <glyph glyph-name="Gcircumflex" unicode="&#x11c;" horiz-adv-x="809" 
d="M460 978l-101 -105h-92l146 148h92l148 -148h-91zM419 418h335v-349c-75 -51 -184 -81 -284 -81c-244 0 -419 173 -420 418v1c0 245 176 417 421 417c97 0 188 -26 276 -80l-40 -89c-64 46 -144 73 -232 73c-168 0 -318 -112 -318 -321v-1c1 -209 149 -321 317 -322
c69 0 132 18 187 53v190h-242v91z" />
    <glyph glyph-name="Gcommaaccent" unicode="&#x122;" horiz-adv-x="809" 
d="M419 418h335v-349c-75 -51 -184 -81 -284 -81c-244 0 -419 173 -420 418v1c0 245 176 417 421 417c97 0 188 -26 276 -80l-40 -89c-64 46 -144 73 -232 73c-168 0 -318 -112 -318 -321v-1c1 -209 149 -321 317 -322c69 0 132 18 187 53v190h-242v91zM363 -220l61 178h92
l-85 -178h-68z" />
    <glyph glyph-name="Gdotaccent" unicode="&#x120;" horiz-adv-x="809" 
d="M459 874c-37 0 -70 22 -70 64c0 38 31 64 70 64c38 0 69 -26 69 -64c0 -42 -33 -64 -69 -64zM419 418h335v-349c-75 -51 -184 -81 -284 -81c-244 0 -419 173 -420 418v1c0 245 176 417 421 417c97 0 188 -26 276 -80l-40 -89c-64 46 -144 73 -232 73
c-168 0 -318 -112 -318 -321v-1c1 -209 149 -321 317 -322c69 0 132 18 187 53v190h-242v91z" />
    <glyph glyph-name="H" unicode="H" horiz-adv-x="843" 
d="M108 0v811h98v-347h431v347h99v-811h-99v371h-431v-371h-98z" />
    <glyph glyph-name="Hbar" unicode="&#x126;" horiz-adv-x="843" 
d="M802 687v-85h-66v-602h-99v371h-431v-371h-98v602h-66v85h66v124h98v-124h431v124h99v-124h66zM637 464v138h-431v-138h431z" />
    <glyph glyph-name="Hcircumflex" unicode="&#x124;" horiz-adv-x="843" 
d="M231 873l146 148h92l148 -148h-91l-102 105l-101 -105h-92zM108 0v811h98v-347h431v347h99v-811h-99v371h-431v-371h-98z" />
    <glyph glyph-name="I" unicode="I" horiz-adv-x="313" 
d="M108 0v811h98v-811h-98z" />
    <glyph glyph-name="IJ" unicode="&#x132;" horiz-adv-x="791" 
d="M108 0v811h98v-811h-98zM491 -12c-67 0 -126 17 -169 38l36 84c36 -15 73 -25 112 -25c70 0 116 38 116 137v589h98v-603c0 -145 -68 -220 -193 -220z" />
    <glyph glyph-name="Iacute" unicode="&#xcd;" horiz-adv-x="313" 
d="M90 879l128 141h116l-146 -141h-98zM108 0v811h98v-811h-98z" />
    <glyph glyph-name="Ibreve" unicode="&#x12c;" horiz-adv-x="313" 
d="M157 872c-100 0 -156 43 -167 142h66c9 -63 36 -89 101 -89s92 26 101 89h66c-11 -99 -67 -142 -167 -142zM108 0v811h98v-811h-98z" />
    <glyph glyph-name="uni01CF" unicode="&#x1cf;" horiz-adv-x="313" 
d="M108 875l-151 148h97l104 -106l102 106h97l-149 -148h-100zM108 0v811h98v-811h-98z" />
    <glyph glyph-name="Icircumflex" unicode="&#xce;" horiz-adv-x="313" 
d="M-34 873l146 148h92l148 -148h-91l-102 105l-101 -105h-92zM108 0v811h98v-811h-98z" />
    <glyph glyph-name="Idieresis" unicode="&#xcf;" horiz-adv-x="313" 
d="M67 875c-36 0 -69 21 -68 61c1 37 31 62 68 62c36 0 65 -25 65 -62c0 -40 -31 -61 -65 -61zM246 875c-36 0 -69 21 -68 61c0 37 31 62 68 62c36 0 65 -25 65 -62c0 -40 -31 -61 -65 -61zM108 0v811h98v-811h-98z" />
    <glyph glyph-name="Idotaccent" unicode="&#x130;" horiz-adv-x="313" 
d="M158 874c-37 0 -70 22 -70 64c0 38 31 64 70 64c38 0 69 -26 69 -64c0 -42 -33 -64 -69 -64zM108 0v811h98v-811h-98z" />
    <glyph glyph-name="uni1ECA" unicode="&#x1eca;" horiz-adv-x="313" 
d="M108 0v811h98v-811h-98zM158 -186c-37 0 -71 23 -71 66c0 38 32 64 71 64s71 -26 71 -64c0 -43 -34 -66 -71 -66z" />
    <glyph glyph-name="Igrave" unicode="&#xcc;" horiz-adv-x="313" 
d="M157 875l-143 148h119l90 -148h-66zM108 0v811h98v-811h-98z" />
    <glyph glyph-name="Imacron" unicode="&#x12a;" horiz-adv-x="313" 
d="M9 875v71h296v-71h-296zM108 0v811h98v-811h-98z" />
    <glyph glyph-name="Iogonek" unicode="&#x12e;" horiz-adv-x="313" 
d="M176 -176c14 0 26 2 36 4v-46c-11 -3 -38 -6 -59 -6c-83 0 -151 28 -150 102c2 57 34 92 105 127v806h98v-811c-79 -34 -116 -65 -117 -111c-1 -45 34 -65 87 -65z" />
    <glyph glyph-name="Itilde" unicode="&#x128;" horiz-adv-x="313" 
d="M-21 871c6 72 32 119 101 119c68 0 95 -43 145 -43c22 0 32 14 39 42h75c-6 -72 -30 -118 -100 -118c-66 0 -95 42 -145 42c-23 0 -33 -12 -40 -42h-75zM108 0v811h98v-811h-98z" />
    <glyph glyph-name="J" unicode="J" horiz-adv-x="478" 
d="M178 -12c-67 0 -126 17 -169 38l36 84c36 -15 73 -25 112 -25c70 0 116 38 116 137v589h98v-603c0 -145 -68 -220 -193 -220z" />
    <glyph glyph-name="Jcircumflex" unicode="&#x134;" horiz-adv-x="478" 
d="M133 873l146 148h92l148 -148h-91l-102 105l-101 -105h-92zM178 -12c-67 0 -126 17 -169 38l36 84c36 -15 73 -25 112 -25c70 0 116 38 116 137v589h98v-603c0 -145 -68 -220 -193 -220z" />
    <glyph glyph-name="K" unicode="K" horiz-adv-x="744" 
d="M315 408l397 -408h-127l-379 389v-389h-98v811h98v-394l361 394h118z" />
    <glyph glyph-name="Kcommaaccent" unicode="&#x136;" horiz-adv-x="744" 
d="M315 408l397 -408h-127l-379 389v-389h-98v811h98v-394l361 394h118zM261 -220l61 178h92l-85 -178h-68z" />
    <glyph glyph-name="L" unicode="L" horiz-adv-x="661" 
d="M108 0v811h98v-718h376v-93h-474z" />
    <glyph glyph-name="Lacute" unicode="&#x139;" horiz-adv-x="661" 
d="M92 879l128 141h116l-146 -141h-98zM108 0v811h98v-718h376v-93h-474z" />
    <glyph glyph-name="Lcaron" unicode="&#x13d;" horiz-adv-x="661" 
d="M108 0v811h98v-718h376v-93h-474zM275 590l41 221h82l-64 -221h-59z" />
    <glyph glyph-name="Lcommaaccent" unicode="&#x13b;" horiz-adv-x="661" 
d="M108 0v811h98v-718h376v-93h-474zM239 -220l61 178h92l-85 -178h-68z" />
    <glyph glyph-name="Ldot" unicode="&#x13f;" horiz-adv-x="661" 
d="M108 0v811h98v-718h376v-93h-474zM416 384c-37 0 -71 23 -71 66c0 39 32 65 71 65s71 -26 71 -65c0 -43 -34 -66 -71 -66z" />
    <glyph glyph-name="uni1E36" unicode="&#x1e36;" horiz-adv-x="661" 
d="M108 0v811h98v-718h376v-93h-474zM350 -186c-37 0 -71 23 -71 66c0 38 32 64 71 64s71 -26 71 -64c0 -43 -34 -66 -71 -66z" />
    <glyph glyph-name="Lslash" unicode="&#x141;" horiz-adv-x="661" 
d="M206 93h376v-93h-474v383l-93 -49l-27 58l120 64v355h98v-303l96 51l27 -58l-123 -65v-343z" />
    <glyph glyph-name="M" unicode="M" horiz-adv-x="988" 
d="M756 811h124v-811h-98v645l-9 -31l-232 -614h-93l-234 615l-8 28v-643h-98v811h124l233 -611l30 -104l29 103z" />
    <glyph glyph-name="N" unicode="N" horiz-adv-x="849" 
d="M643 811h99v-811h-115l-421 666v-666h-98v811h114l421 -666v666z" />
    <glyph glyph-name="Nacute" unicode="&#x143;" horiz-adv-x="849" 
d="M584 1020l-146 -141h-98l128 141h116zM643 811h99v-811h-115l-421 666v-666h-98v811h114l421 -666v666z" />
    <glyph glyph-name="Ncaron" unicode="&#x147;" horiz-adv-x="849" 
d="M458 875h-100l-151 148h97l104 -106l102 106h97zM643 811h99v-811h-115l-421 666v-666h-98v811h114l421 -666v666z" />
    <glyph glyph-name="Ncommaaccent" unicode="&#x145;" horiz-adv-x="849" 
d="M643 811h99v-811h-115l-421 666v-666h-98v811h114l421 -666v666zM313 -220l61 178h92l-85 -178h-68z" />
    <glyph glyph-name="Eng" unicode="&#x14a;" horiz-adv-x="814" 
d="M609 811h97v-793c0 -189 -43 -247 -186 -247c-13 0 -26 1 -38 3l-16 92c20 -5 36 -7 51 -7c68 0 92 37 92 143v20l-403 692v-714h-98v811h132l369 -633v633z" />
    <glyph glyph-name="Ntilde" unicode="&#xd1;" horiz-adv-x="849" 
d="M344 913c-23 0 -33 -12 -40 -42h-75c6 72 32 119 101 119c68 0 95 -43 145 -43c22 0 32 14 39 42h75c-6 -72 -30 -118 -100 -118c-66 0 -95 42 -145 42zM643 811h99v-811h-115l-421 666v-666h-98v811h114l421 -666v666z" />
    <glyph glyph-name="O" unicode="O" horiz-adv-x="899" 
d="M449 -12c-245 0 -399 189 -399 419v1c0 231 153 416 399 416h1c246 0 400 -185 400 -416v-1c-1 -230 -155 -419 -400 -419h-1zM449 85h2c177 0 299 140 299 323v1c0 184 -120 318 -299 318h-2c-180 0 -300 -134 -300 -318v-1c1 -183 121 -323 300 -323z" />
    <glyph glyph-name="Oacute" unicode="&#xd3;" horiz-adv-x="899" 
d="M374 879l128 141h116l-146 -141h-98zM449 -12c-245 0 -399 189 -399 419v1c0 231 153 416 399 416h1c246 0 400 -185 400 -416v-1c-1 -230 -155 -419 -400 -419h-1zM449 85h2c177 0 299 140 299 323v1c0 184 -120 318 -299 318h-2c-180 0 -300 -134 -300 -318v-1
c1 -183 121 -323 300 -323z" />
    <glyph glyph-name="Obreve" unicode="&#x14e;" horiz-adv-x="899" 
d="M441 872c-100 0 -156 43 -167 142h66c9 -63 36 -89 101 -89s92 26 101 89h66c-11 -99 -67 -142 -167 -142zM449 -12c-245 0 -399 189 -399 419v1c0 231 153 416 399 416h1c246 0 400 -185 400 -416v-1c-1 -230 -155 -419 -400 -419h-1zM449 85h2c177 0 299 140 299 323v1
c0 184 -120 318 -299 318h-2c-180 0 -300 -134 -300 -318v-1c1 -183 121 -323 300 -323z" />
    <glyph glyph-name="uni01D1" unicode="&#x1d1;" horiz-adv-x="899" 
d="M392 875l-151 148h97l104 -106l102 106h97l-149 -148h-100zM449 -12c-245 0 -399 189 -399 419v1c0 231 153 416 399 416h1c246 0 400 -185 400 -416v-1c-1 -230 -155 -419 -400 -419h-1zM449 85h2c177 0 299 140 299 323v1c0 184 -120 318 -299 318h-2
c-180 0 -300 -134 -300 -318v-1c1 -183 121 -323 300 -323z" />
    <glyph glyph-name="Ocircumflex" unicode="&#xd4;" horiz-adv-x="899" 
d="M250 873l146 148h92l148 -148h-91l-102 105l-101 -105h-92zM449 -12c-245 0 -399 189 -399 419v1c0 231 153 416 399 416h1c246 0 400 -185 400 -416v-1c-1 -230 -155 -419 -400 -419h-1zM449 85h2c177 0 299 140 299 323v1c0 184 -120 318 -299 318h-2
c-180 0 -300 -134 -300 -318v-1c1 -183 121 -323 300 -323z" />
    <glyph glyph-name="Odieresis" unicode="&#xd6;" horiz-adv-x="899" 
d="M351 875c-36 0 -69 21 -68 61c1 37 31 62 68 62c36 0 65 -25 65 -62c0 -40 -31 -61 -65 -61zM530 875c-36 0 -69 21 -68 61c0 37 31 62 68 62c36 0 65 -25 65 -62c0 -40 -31 -61 -65 -61zM449 -12c-245 0 -399 189 -399 419v1c0 231 153 416 399 416h1
c246 0 400 -185 400 -416v-1c-1 -230 -155 -419 -400 -419h-1zM449 85h2c177 0 299 140 299 323v1c0 184 -120 318 -299 318h-2c-180 0 -300 -134 -300 -318v-1c1 -183 121 -323 300 -323z" />
    <glyph glyph-name="uni1ECC" unicode="&#x1ecc;" horiz-adv-x="899" 
d="M449 -12c-245 0 -399 189 -399 419v1c0 231 153 416 399 416h1c246 0 400 -185 400 -416v-1c-1 -230 -155 -419 -400 -419h-1zM449 85h2c177 0 299 140 299 323v1c0 184 -120 318 -299 318h-2c-180 0 -300 -134 -300 -318v-1c1 -183 121 -323 300 -323zM447 -204
c-37 0 -71 23 -71 66c0 38 32 64 71 64s71 -26 71 -64c0 -43 -34 -66 -71 -66z" />
    <glyph glyph-name="Ograve" unicode="&#xd2;" horiz-adv-x="899" 
d="M441 875l-143 148h119l90 -148h-66zM449 -12c-245 0 -399 189 -399 419v1c0 231 153 416 399 416h1c246 0 400 -185 400 -416v-1c-1 -230 -155 -419 -400 -419h-1zM449 85h2c177 0 299 140 299 323v1c0 184 -120 318 -299 318h-2c-180 0 -300 -134 -300 -318v-1
c1 -183 121 -323 300 -323z" />
    <glyph glyph-name="Ohungarumlaut" unicode="&#x150;" horiz-adv-x="899" 
d="M310 881l98 141h116l-116 -141h-98zM493 881l98 141h116l-116 -141h-98zM449 -12c-245 0 -399 189 -399 419v1c0 231 153 416 399 416h1c246 0 400 -185 400 -416v-1c-1 -230 -155 -419 -400 -419h-1zM449 85h2c177 0 299 140 299 323v1c0 184 -120 318 -299 318h-2
c-180 0 -300 -134 -300 -318v-1c1 -183 121 -323 300 -323z" />
    <glyph glyph-name="Omacron" unicode="&#x14c;" horiz-adv-x="899" 
d="M293 875v71h296v-71h-296zM449 -12c-245 0 -399 189 -399 419v1c0 231 153 416 399 416h1c246 0 400 -185 400 -416v-1c-1 -230 -155 -419 -400 -419h-1zM449 85h2c177 0 299 140 299 323v1c0 184 -120 318 -299 318h-2c-180 0 -300 -134 -300 -318v-1
c1 -183 121 -323 300 -323z" />
    <glyph glyph-name="Oslash" unicode="&#xd8;" horiz-adv-x="899" 
d="M857 827l-110 -129c66 -75 103 -177 103 -290v-1c-1 -230 -155 -419 -400 -419h-1c-96 0 -178 29 -242 78l-92 -107l-88 35l116 135c-60 74 -93 172 -93 278v1c0 231 153 416 399 416h1c90 0 168 -25 230 -68l89 104zM149 408c0 -77 22 -147 60 -201l406 474
c-45 29 -101 46 -164 46h-2c-180 0 -300 -134 -300 -318v-1zM750 409c0 84 -25 157 -69 212l-410 -479c49 -36 109 -57 178 -57h2c177 0 299 140 299 323v1z" />
    <glyph glyph-name="Otilde" unicode="&#xd5;" horiz-adv-x="899" 
d="M263 871c6 72 32 119 101 119c68 0 95 -43 145 -43c22 0 32 14 39 42h75c-6 -72 -30 -118 -100 -118c-66 0 -95 42 -145 42c-23 0 -33 -12 -40 -42h-75zM449 -12c-245 0 -399 189 -399 419v1c0 231 153 416 399 416h1c246 0 400 -185 400 -416v-1
c-1 -230 -155 -419 -400 -419h-1zM449 85h2c177 0 299 140 299 323v1c0 184 -120 318 -299 318h-2c-180 0 -300 -134 -300 -318v-1c1 -183 121 -323 300 -323z" />
    <glyph glyph-name="OE" unicode="&#x152;" horiz-adv-x="1324" 
d="M848 93h398v-93h-496v121c-69 -82 -172 -133 -300 -133h-1c-245 0 -399 189 -399 419v1c0 231 153 416 399 416h1c128 0 231 -50 300 -130v117h492v-93h-394v-253h356v-93h-355c-1 -3 -1 -5 -1 -8v-271zM451 85c177 0 299 140 299 323v1c0 184 -120 318 -299 318h-2
c-180 0 -300 -134 -300 -318v-1c1 -183 121 -323 300 -323h2z" />
    <glyph glyph-name="P" unicode="P" horiz-adv-x="715" 
d="M381 811c207 0 284 -109 284 -243v-1c-1 -160 -102 -254 -283 -254h-176v-313h-98v811h273zM566 564v1c0 112 -72 154 -189 154h-171v-314h171c136 0 189 61 189 159z" />
    <glyph glyph-name="Thorn" unicode="&#xde;" horiz-adv-x="693" 
d="M359 652c207 0 284 -109 284 -243c-1 -161 -102 -255 -283 -255h-170v-154h-100v811h100v-159h169zM355 246c136 0 189 61 189 160c0 112 -72 154 -189 154h-165v-314h165z" />
    <glyph glyph-name="Q" unicode="Q" horiz-adv-x="930" 
d="M881 -33l-66 -65l-148 147c-60 -39 -133 -61 -217 -61h-1c-245 0 -399 189 -399 419v1c0 231 153 416 399 416h1c246 0 400 -185 400 -416v-1c-1 -116 -40 -222 -111 -298zM451 85c54 0 102 13 144 36l-110 109l66 66l117 -117c52 58 82 138 82 229v1
c0 184 -120 318 -299 318h-2c-180 0 -300 -134 -300 -318v-1c1 -183 121 -323 300 -323h2z" />
    <glyph glyph-name="R" unicode="R" horiz-adv-x="767" 
d="M607 0l-216 336h-185v-336h-98v811h306c194 0 285 -92 285 -231v-1c0 -122 -73 -211 -204 -236l222 -343h-110zM206 719v-296h218c107 0 175 56 175 152v1c0 95 -69 143 -175 143h-218z" />
    <glyph glyph-name="Racute" unicode="&#x154;" horiz-adv-x="767" 
d="M548 1020l-146 -141h-98l128 141h116zM607 0l-216 336h-185v-336h-98v811h306c194 0 285 -92 285 -231v-1c0 -122 -73 -211 -204 -236l222 -343h-110zM206 719v-296h218c107 0 175 56 175 152v1c0 95 -69 143 -175 143h-218z" />
    <glyph glyph-name="Rcaron" unicode="&#x158;" horiz-adv-x="767" 
d="M422 875h-100l-151 148h97l104 -106l102 106h97zM607 0l-216 336h-185v-336h-98v811h306c194 0 285 -92 285 -231v-1c0 -122 -73 -211 -204 -236l222 -343h-110zM206 719v-296h218c107 0 175 56 175 152v1c0 95 -69 143 -175 143h-218z" />
    <glyph glyph-name="Rcommaaccent" unicode="&#x156;" horiz-adv-x="767" 
d="M495 343l222 -343h-110l-216 336h-185v-336h-98v811h306c194 0 285 -92 285 -231v-1c0 -122 -73 -211 -204 -236zM206 719v-296h218c107 0 175 56 175 152v1c0 95 -69 143 -175 143h-218zM281 -220l61 178h92l-85 -178h-68z" />
    <glyph glyph-name="S" unicode="S" horiz-adv-x="714" 
d="M345 -12c-100 0 -199 27 -270 76l39 83c62 -44 145 -70 228 -70c126 0 198 57 198 141v2c0 71 -47 107 -176 147c-22 7 -45 13 -68 20c-141 43 -202 109 -202 227v2c0 124 100 208 266 208c95 0 192 -25 259 -70l-38 -83c-60 41 -141 64 -220 64
c-113 0 -168 -50 -168 -117v-2c0 -81 48 -110 140 -141l70 -20c170 -49 238 -119 238 -233v-2c-1 -143 -114 -232 -296 -232z" />
    <glyph glyph-name="Sacute" unicode="&#x15a;" horiz-adv-x="714" 
d="M290 879l128 141h116l-146 -141h-98zM345 -12c-100 0 -199 27 -270 76l39 83c62 -44 145 -70 228 -70c126 0 198 57 198 141v2c0 71 -47 107 -176 147c-22 7 -45 13 -68 20c-141 43 -202 109 -202 227v2c0 124 100 208 266 208c95 0 192 -25 259 -70l-38 -83
c-60 41 -141 64 -220 64c-113 0 -168 -50 -168 -117v-2c0 -81 48 -110 140 -141l70 -20c170 -49 238 -119 238 -233v-2c-1 -143 -114 -232 -296 -232z" />
    <glyph glyph-name="Scaron" unicode="&#x160;" horiz-adv-x="714" 
d="M308 875l-151 148h97l104 -106l102 106h97l-149 -148h-100zM345 -12c-100 0 -199 27 -270 76l39 83c62 -44 145 -70 228 -70c126 0 198 57 198 141v2c0 71 -47 107 -176 147c-22 7 -45 13 -68 20c-141 43 -202 109 -202 227v2c0 124 100 208 266 208
c95 0 192 -25 259 -70l-38 -83c-60 41 -141 64 -220 64c-113 0 -168 -50 -168 -117v-2c0 -81 48 -110 140 -141l70 -20c170 -49 238 -119 238 -233v-2c-1 -143 -114 -232 -296 -232z" />
    <glyph glyph-name="Scedilla" unicode="&#x15e;" horiz-adv-x="714" 
d="M403 455c170 -49 238 -119 238 -233v-2c-1 -135 -101 -222 -265 -231l-31 -47c3 1 13 2 20 2c48 0 99 -23 99 -76c-1 -60 -53 -88 -123 -88c-28 0 -53 3 -80 12l-4 46c21 -6 57 -14 80 -14c46 0 74 13 74 41c0 27 -25 37 -65 37c-25 0 -53 -7 -67 -12l-7 10l56 88
c-94 3 -186 30 -253 76l39 83c62 -44 145 -70 228 -70c126 0 198 57 198 141v2c0 71 -47 107 -176 147c-22 7 -45 13 -68 20c-141 43 -202 109 -202 227v2c0 124 100 208 266 208c95 0 192 -25 259 -70l-38 -83c-60 41 -141 64 -220 64c-113 0 -168 -50 -168 -117v-2
c0 -81 48 -110 140 -141z" />
    <glyph glyph-name="Scircumflex" unicode="&#x15c;" horiz-adv-x="714" 
d="M166 873l146 148h92l148 -148h-91l-102 105l-101 -105h-92zM345 -12c-100 0 -199 27 -270 76l39 83c62 -44 145 -70 228 -70c126 0 198 57 198 141v2c0 71 -47 107 -176 147c-22 7 -45 13 -68 20c-141 43 -202 109 -202 227v2c0 124 100 208 266 208
c95 0 192 -25 259 -70l-38 -83c-60 41 -141 64 -220 64c-113 0 -168 -50 -168 -117v-2c0 -81 48 -110 140 -141l70 -20c170 -49 238 -119 238 -233v-2c-1 -143 -114 -232 -296 -232z" />
    <glyph glyph-name="Scommaaccent" unicode="&#x218;" horiz-adv-x="714" 
d="M345 -12c-100 0 -199 27 -270 76l39 83c62 -44 145 -70 228 -70c126 0 198 57 198 141v2c0 71 -47 107 -176 147c-22 7 -45 13 -68 20c-141 43 -202 109 -202 227v2c0 124 100 208 266 208c95 0 192 -25 259 -70l-38 -83c-60 41 -141 64 -220 64
c-113 0 -168 -50 -168 -117v-2c0 -81 48 -110 140 -141l70 -20c170 -49 238 -119 238 -233v-2c-1 -143 -114 -232 -296 -232zM247 -220l61 178h92l-85 -178h-68z" />
    <glyph glyph-name="uni018F" unicode="&#x18f;" horiz-adv-x="847" 
d="M410 826c237 0 377 -155 377 -417v-1c-1 -264 -132 -420 -354 -420h-1c-233 0 -372 147 -372 397v58h626c-11 181 -113 287 -281 287h-1c-87 0 -179 -24 -252 -68l-39 84c84 52 191 80 296 80h1zM432 84c146 0 234 95 252 262h-523c15 -166 113 -262 270 -262h1z" />
    <glyph glyph-name="T" unicode="T" horiz-adv-x="692" 
d="M297 0v718h-269v93h636v-93h-268v-718h-99z" />
    <glyph glyph-name="Tbar" unicode="&#x166;" horiz-adv-x="692" 
d="M664 718h-268v-182h100v-78h-100v-458h-99v458h-102v78h102v182h-269v93h636v-93z" />
    <glyph glyph-name="Tcaron" unicode="&#x164;" horiz-adv-x="692" 
d="M297 875l-151 148h97l104 -106l102 106h97l-149 -148h-100zM297 0v718h-269v93h636v-93h-268v-718h-99z" />
    <glyph glyph-name="uni0162" unicode="&#x162;" horiz-adv-x="692" 
d="M396 0h-24l-38 -58c3 1 13 2 20 2c48 0 99 -23 99 -76c-1 -60 -53 -88 -123 -88c-28 0 -53 3 -80 12l-4 46c21 -6 57 -14 80 -14c46 0 74 13 74 41c0 27 -25 37 -65 37c-25 0 -53 -7 -67 -12l-7 10l63 100h-27v718h-269v93h636v-93h-268v-718z" />
    <glyph glyph-name="uni021A" unicode="&#x21a;" horiz-adv-x="692" 
d="M297 0v718h-269v93h636v-93h-268v-718h-99zM236 -220l61 178h92l-85 -178h-68z" />
    <glyph glyph-name="U" unicode="U" horiz-adv-x="882" 
d="M441 -12c-237 0 -333 117 -333 327v496h98v-470c0 -180 69 -256 235 -256s235 76 235 256v470h98v-496c0 -210 -96 -327 -333 -327z" />
    <glyph glyph-name="Uacute" unicode="&#xda;" horiz-adv-x="882" 
d="M374 879l128 141h116l-146 -141h-98zM441 -12c-237 0 -333 117 -333 327v496h98v-470c0 -180 69 -256 235 -256s235 76 235 256v470h98v-496c0 -210 -96 -327 -333 -327z" />
    <glyph glyph-name="Ubreve" unicode="&#x16c;" horiz-adv-x="882" 
d="M441 872c-100 0 -156 43 -167 142h66c9 -63 36 -89 101 -89s92 26 101 89h66c-11 -99 -67 -142 -167 -142zM441 -12c-237 0 -333 117 -333 327v496h98v-470c0 -180 69 -256 235 -256s235 76 235 256v470h98v-496c0 -210 -96 -327 -333 -327z" />
    <glyph glyph-name="uni01D3" unicode="&#x1d3;" horiz-adv-x="882" 
d="M392 875l-151 148h97l104 -106l102 106h97l-149 -148h-100zM441 -12c-237 0 -333 117 -333 327v496h98v-470c0 -180 69 -256 235 -256s235 76 235 256v470h98v-496c0 -210 -96 -327 -333 -327z" />
    <glyph glyph-name="Ucircumflex" unicode="&#xdb;" horiz-adv-x="882" 
d="M250 873l146 148h92l148 -148h-91l-102 105l-101 -105h-92zM441 -12c-237 0 -333 117 -333 327v496h98v-470c0 -180 69 -256 235 -256s235 76 235 256v470h98v-496c0 -210 -96 -327 -333 -327z" />
    <glyph glyph-name="Udieresis" unicode="&#xdc;" horiz-adv-x="882" 
d="M351 875c-36 0 -69 21 -68 61c1 37 31 62 68 62c36 0 65 -25 65 -62c0 -40 -31 -61 -65 -61zM530 875c-36 0 -69 21 -68 61c0 37 31 62 68 62c36 0 65 -25 65 -62c0 -40 -31 -61 -65 -61zM441 -12c-237 0 -333 117 -333 327v496h98v-470c0 -180 69 -256 235 -256
s235 76 235 256v470h98v-496c0 -210 -96 -327 -333 -327z" />
    <glyph glyph-name="uni1EE4" unicode="&#x1ee4;" horiz-adv-x="882" 
d="M441 -12c-237 0 -333 117 -333 327v496h98v-470c0 -180 69 -256 235 -256s235 76 235 256v470h98v-496c0 -210 -96 -327 -333 -327zM440 -197c-37 0 -71 23 -71 66c0 38 32 64 71 64s71 -26 71 -64c0 -43 -34 -66 -71 -66z" />
    <glyph glyph-name="Ugrave" unicode="&#xd9;" horiz-adv-x="882" 
d="M441 875l-143 148h119l90 -148h-66zM441 -12c-237 0 -333 117 -333 327v496h98v-470c0 -180 69 -256 235 -256s235 76 235 256v470h98v-496c0 -210 -96 -327 -333 -327z" />
    <glyph glyph-name="Uhungarumlaut" unicode="&#x170;" horiz-adv-x="882" 
d="M310 881l98 141h116l-116 -141h-98zM493 881l98 141h116l-116 -141h-98zM441 -12c-237 0 -333 117 -333 327v496h98v-470c0 -180 69 -256 235 -256s235 76 235 256v470h98v-496c0 -210 -96 -327 -333 -327z" />
    <glyph glyph-name="Umacron" unicode="&#x16a;" horiz-adv-x="882" 
d="M293 875v71h296v-71h-296zM441 -12c-237 0 -333 117 -333 327v496h98v-470c0 -180 69 -256 235 -256s235 76 235 256v470h98v-496c0 -210 -96 -327 -333 -327z" />
    <glyph glyph-name="Uogonek" unicode="&#x172;" horiz-adv-x="882" 
d="M676 811h98v-496c0 -185 -74 -298 -254 -322c-72 -32 -109 -58 -110 -95c-2 -40 37 -56 83 -56c14 0 27 3 37 4v-47c-11 -2 -38 -5 -58 -5c-78 0 -151 24 -149 94c2 39 30 71 83 101c-211 11 -298 127 -298 326v496h98v-470c0 -180 69 -256 235 -256s235 76 235 256v470z
" />
    <glyph glyph-name="Uring" unicode="&#x16e;" horiz-adv-x="882" 
d="M443 873c-62 0 -113 48 -113 110s49 108 113 108c61 0 111 -49 111 -110c0 -63 -48 -108 -111 -108zM442 929c34 0 56 22 56 53c-1 30 -23 53 -55 53c-33 0 -57 -23 -56 -53c-2 -31 24 -53 55 -53zM441 -12c-237 0 -333 117 -333 327v496h98v-470
c0 -180 69 -256 235 -256s235 76 235 256v470h98v-496c0 -210 -96 -327 -333 -327z" />
    <glyph glyph-name="Utilde" unicode="&#x168;" horiz-adv-x="882" 
d="M263 871c6 72 32 119 101 119c68 0 95 -43 145 -43c22 0 32 14 39 42h75c-6 -72 -30 -118 -100 -118c-66 0 -95 42 -145 42c-23 0 -33 -12 -40 -42h-75zM441 -12c-237 0 -333 117 -333 327v496h98v-470c0 -180 69 -256 235 -256s235 76 235 256v470h98v-496
c0 -210 -96 -327 -333 -327z" />
    <glyph glyph-name="V" unicode="V" horiz-adv-x="756" 
d="M620 811h106l-279 -811h-141l-276 811h106l241 -713z" />
    <glyph glyph-name="W" unicode="W" horiz-adv-x="1065" 
d="M922 811h102l-200 -811h-135l-156 700l-157 -700h-135l-200 811h103l168 -706l156 706h129l156 -706z" />
    <glyph glyph-name="Wacute" unicode="&#x1e82;" horiz-adv-x="1065" 
d="M710 1020l-146 -141h-98l128 141h116zM922 811h102l-200 -811h-135l-156 700l-157 -700h-135l-200 811h103l168 -706l156 706h129l156 -706z" />
    <glyph glyph-name="Wcircumflex" unicode="&#x174;" horiz-adv-x="1065" 
d="M535 978l-101 -105h-92l146 148h92l148 -148h-91zM922 811h102l-200 -811h-135l-156 700l-157 -700h-135l-200 811h103l168 -706l156 706h129l156 -706z" />
    <glyph glyph-name="Wdieresis" unicode="&#x1e84;" horiz-adv-x="1065" 
d="M443 875c-36 0 -69 21 -68 61c1 37 31 62 68 62c36 0 65 -25 65 -62c0 -40 -31 -61 -65 -61zM622 875c-36 0 -69 21 -68 61c0 37 31 62 68 62c36 0 65 -25 65 -62c0 -40 -31 -61 -65 -61zM922 811h102l-200 -811h-135l-156 700l-157 -700h-135l-200 811h103l168 -706
l156 706h129l156 -706z" />
    <glyph glyph-name="Wgrave" unicode="&#x1e80;" horiz-adv-x="1065" 
d="M599 875h-66l-143 148h119zM922 811h102l-200 -811h-135l-156 700l-157 -700h-135l-200 811h103l168 -706l156 706h129l156 -706z" />
    <glyph glyph-name="X" unicode="X" horiz-adv-x="757" 
d="M29 0l291 408l-286 403h116l230 -324l231 324h112l-287 -399l292 -412h-117l-235 333l-238 -333h-109z" />
    <glyph glyph-name="Y" unicode="Y" horiz-adv-x="745" 
d="M609 811h111l-298 -496v-315h-99v315l-298 496h111l237 -405z" />
    <glyph glyph-name="Yacute" unicode="&#xdd;" horiz-adv-x="745" 
d="M550 1020l-146 -141h-98l128 141h116zM609 811h111l-298 -496v-315h-99v315l-298 496h111l237 -405z" />
    <glyph glyph-name="Ycircumflex" unicode="&#x176;" horiz-adv-x="745" 
d="M375 978l-101 -105h-92l146 148h92l148 -148h-91zM609 811h111l-298 -496v-315h-99v315l-298 496h111l237 -405z" />
    <glyph glyph-name="Ydieresis" unicode="&#x178;" horiz-adv-x="745" 
d="M283 875c-36 0 -69 21 -68 61c1 37 31 62 68 62c36 0 65 -25 65 -62c0 -40 -31 -61 -65 -61zM462 875c-36 0 -69 21 -68 61c0 37 31 62 68 62c36 0 65 -25 65 -62c0 -40 -31 -61 -65 -61zM609 811h111l-298 -496v-315h-99v315l-298 496h111l237 -405z" />
    <glyph glyph-name="Ygrave" unicode="&#x1ef2;" horiz-adv-x="745" 
d="M439 875h-66l-143 148h119zM609 811h111l-298 -496v-315h-99v315l-298 496h111l237 -405z" />
    <glyph glyph-name="uni0232" unicode="&#x232;" horiz-adv-x="745" 
d="M521 946v-71h-296v71h296zM609 811h111l-298 -496v-315h-99v315l-298 496h111l237 -405z" />
    <glyph glyph-name="uni1EF8" unicode="&#x1ef8;" horiz-adv-x="745" 
d="M310 913c-23 0 -33 -12 -40 -42h-75c6 72 32 119 101 119c68 0 95 -43 145 -43c22 0 32 14 39 42h75c-6 -72 -30 -118 -100 -118c-66 0 -95 42 -145 42zM609 811h111l-298 -496v-315h-99v315l-298 496h111l237 -405z" />
    <glyph glyph-name="Z" unicode="Z" horiz-adv-x="691" 
d="M646 811v-91l-482 -627h480v-93h-603v92l483 627h-451v93z" />
    <glyph glyph-name="Zacute" unicode="&#x179;" horiz-adv-x="691" 
d="M537 1020l-146 -141h-98l128 141h116zM646 811v-91l-482 -627h480v-93h-603v92l483 627h-451v93z" />
    <glyph glyph-name="Zcaron" unicode="&#x17d;" horiz-adv-x="691" 
d="M411 875h-100l-151 148h97l104 -106l102 106h97zM646 811v-91l-482 -627h480v-93h-603v92l483 627h-451v93z" />
    <glyph glyph-name="Zdotaccent" unicode="&#x17b;" horiz-adv-x="691" 
d="M361 874c-37 0 -70 22 -70 64c0 38 31 64 70 64c38 0 69 -26 69 -64c0 -42 -33 -64 -69 -64zM646 811v-91l-482 -627h480v-93h-603v92l483 627h-451v93z" />
    <glyph glyph-name="a" unicode="a" horiz-adv-x="619" 
d="M291 575c152 0 244 -68 244 -212v-335c-54 -17 -147 -38 -233 -38c-168 0 -263 66 -263 185v1c0 118 91 186 253 186c40 0 92 -5 145 -12v11c0 78 -51 126 -169 126c-55 0 -129 -12 -189 -39l21 91c48 22 121 36 191 36zM139 178c0 -66 53 -97 163 -97c38 0 94 7 135 17
v162c-21 4 -89 13 -135 13c-110 0 -163 -31 -163 -95z" />
    <glyph glyph-name="aacute" unicode="&#xe1;" horiz-adv-x="619" 
d="M475 782l-146 -141h-98l128 141h116zM291 575c152 0 244 -68 244 -212v-335c-54 -17 -147 -38 -233 -38c-168 0 -263 66 -263 185v1c0 118 91 186 253 186c40 0 92 -5 145 -12v11c0 78 -51 126 -169 126c-55 0 -129 -12 -189 -39l21 91c48 22 121 36 191 36zM139 178
c0 -66 53 -97 163 -97c38 0 94 7 135 17v162c-21 4 -89 13 -135 13c-110 0 -163 -31 -163 -95z" />
    <glyph glyph-name="abreve" unicode="&#x103;" horiz-adv-x="619" 
d="M298 634c-100 0 -156 43 -167 142h66c9 -63 36 -89 101 -89s92 26 101 89h66c-11 -99 -67 -142 -167 -142zM291 575c152 0 244 -68 244 -212v-335c-54 -17 -147 -38 -233 -38c-168 0 -263 66 -263 185v1c0 118 91 186 253 186c40 0 92 -5 145 -12v11
c0 78 -51 126 -169 126c-55 0 -129 -12 -189 -39l21 91c48 22 121 36 191 36zM139 178c0 -66 53 -97 163 -97c38 0 94 7 135 17v162c-21 4 -89 13 -135 13c-110 0 -163 -31 -163 -95z" />
    <glyph glyph-name="uni01CE" unicode="&#x1ce;" horiz-adv-x="619" 
d="M349 637h-100l-151 148h97l104 -106l102 106h97zM291 575c152 0 244 -68 244 -212v-335c-54 -17 -147 -38 -233 -38c-168 0 -263 66 -263 185v1c0 118 91 186 253 186c40 0 92 -5 145 -12v11c0 78 -51 126 -169 126c-55 0 -129 -12 -189 -39l21 91c48 22 121 36 191 36z
M139 178c0 -66 53 -97 163 -97c38 0 94 7 135 17v162c-21 4 -89 13 -135 13c-110 0 -163 -31 -163 -95z" />
    <glyph glyph-name="acircumflex" unicode="&#xe2;" horiz-adv-x="619" 
d="M300 740l-101 -105h-92l146 148h92l148 -148h-91zM291 575c152 0 244 -68 244 -212v-335c-54 -17 -147 -38 -233 -38c-168 0 -263 66 -263 185v1c0 118 91 186 253 186c40 0 92 -5 145 -12v11c0 78 -51 126 -169 126c-55 0 -129 -12 -189 -39l21 91c48 22 121 36 191 36z
M139 178c0 -66 53 -97 163 -97c38 0 94 7 135 17v162c-21 4 -89 13 -135 13c-110 0 -163 -31 -163 -95z" />
    <glyph glyph-name="adieresis" unicode="&#xe4;" horiz-adv-x="619" 
d="M208 637c-36 0 -69 21 -68 61c1 37 31 62 68 62c36 0 65 -25 65 -62c0 -40 -31 -61 -65 -61zM387 637c-36 0 -69 21 -68 61c0 37 31 62 68 62c36 0 65 -25 65 -62c0 -40 -31 -61 -65 -61zM291 575c152 0 244 -68 244 -212v-335c-54 -17 -147 -38 -233 -38
c-168 0 -263 66 -263 185v1c0 118 91 186 253 186c40 0 92 -5 145 -12v11c0 78 -51 126 -169 126c-55 0 -129 -12 -189 -39l21 91c48 22 121 36 191 36zM139 178c0 -66 53 -97 163 -97c38 0 94 7 135 17v162c-21 4 -89 13 -135 13c-110 0 -163 -31 -163 -95z" />
    <glyph glyph-name="agrave" unicode="&#xe0;" horiz-adv-x="619" 
d="M364 637h-66l-143 148h119zM291 575c152 0 244 -68 244 -212v-335c-54 -17 -147 -38 -233 -38c-168 0 -263 66 -263 185v1c0 118 91 186 253 186c40 0 92 -5 145 -12v11c0 78 -51 126 -169 126c-55 0 -129 -12 -189 -39l21 91c48 22 121 36 191 36zM139 178
c0 -66 53 -97 163 -97c38 0 94 7 135 17v162c-21 4 -89 13 -135 13c-110 0 -163 -31 -163 -95z" />
    <glyph glyph-name="amacron" unicode="&#x101;" horiz-adv-x="619" 
d="M446 708v-71h-296v71h296zM291 575c152 0 244 -68 244 -212v-335c-54 -17 -147 -38 -233 -38c-168 0 -263 66 -263 185v1c0 118 91 186 253 186c40 0 92 -5 145 -12v11c0 78 -51 126 -169 126c-55 0 -129 -12 -189 -39l21 91c48 22 121 36 191 36zM139 178
c0 -66 53 -97 163 -97c38 0 94 7 135 17v162c-21 4 -89 13 -135 13c-110 0 -163 -31 -163 -95z" />
    <glyph glyph-name="aogonek" unicode="&#x105;" horiz-adv-x="619" 
d="M499 -127c14 0 27 3 37 4v-47c-11 -2 -38 -5 -58 -5c-78 0 -151 24 -149 94c1 28 16 53 44 75c-23 -2 -47 -4 -71 -4c-168 0 -263 66 -263 185v1c0 118 91 186 253 186c40 0 92 -5 145 -12v11c0 78 -51 126 -169 126c-55 0 -129 -12 -189 -39l21 91c48 22 121 36 191 36
c152 0 244 -68 244 -212v-335c-78 -34 -118 -60 -119 -99c-2 -40 37 -56 83 -56zM139 178c0 -66 53 -97 163 -97c38 0 94 7 135 17v162c-21 4 -89 13 -135 13c-110 0 -163 -31 -163 -95z" />
    <glyph glyph-name="aring" unicode="&#xe5;" horiz-adv-x="619" 
d="M300 635c-62 0 -113 48 -113 110s49 108 113 108c61 0 111 -49 111 -110c0 -63 -48 -108 -111 -108zM300 797c-33 0 -57 -23 -56 -53c-2 -31 24 -53 55 -53c34 0 56 22 56 53c-1 30 -23 53 -55 53zM291 575c152 0 244 -68 244 -212v-335c-54 -17 -147 -38 -233 -38
c-168 0 -263 66 -263 185v1c0 118 91 186 253 186c40 0 92 -5 145 -12v11c0 78 -51 126 -169 126c-55 0 -129 -12 -189 -39l21 91c48 22 121 36 191 36zM139 178c0 -66 53 -97 163 -97c38 0 94 7 135 17v162c-21 4 -89 13 -135 13c-110 0 -163 -31 -163 -95z" />
    <glyph glyph-name="atilde" unicode="&#xe3;" horiz-adv-x="619" 
d="M235 675c-23 0 -33 -12 -40 -42h-75c6 72 32 119 101 119c68 0 95 -43 145 -43c22 0 32 14 39 42h75c-6 -72 -30 -118 -100 -118c-66 0 -95 42 -145 42zM291 575c152 0 244 -68 244 -212v-335c-54 -17 -147 -38 -233 -38c-168 0 -263 66 -263 185v1c0 118 91 186 253 186
c40 0 92 -5 145 -12v11c0 78 -51 126 -169 126c-55 0 -129 -12 -189 -39l21 91c48 22 121 36 191 36zM139 178c0 -66 53 -97 163 -97c38 0 94 7 135 17v162c-21 4 -89 13 -135 13c-110 0 -163 -31 -163 -95z" />
    <glyph glyph-name="ae" unicode="&#xe6;" horiz-adv-x="1036" 
d="M993 297c0 -11 0 -38 -1 -49h-454c14 -107 87 -172 198 -172c73 0 135 17 180 43l42 -77c-58 -31 -133 -53 -228 -53c-79 0 -145 23 -195 65v-26c-54 -17 -147 -38 -233 -38c-168 0 -263 66 -263 185v1c0 118 91 186 253 186c40 0 92 -5 145 -12v11
c0 78 -51 126 -169 126c-55 0 -129 -12 -189 -39l21 91c48 22 121 36 191 36c101 0 176 -30 215 -93c50 59 126 93 218 93c161 0 269 -111 269 -278zM722 487c-103 0 -167 -57 -182 -154h356c-6 95 -72 154 -174 154zM139 178c0 -66 53 -97 163 -97c38 0 94 7 135 17v162
c-21 4 -89 13 -135 13c-110 0 -163 -31 -163 -95z" />
    <glyph glyph-name="b" unicode="b" horiz-adv-x="657" 
d="M305 569c188 0 311 -106 311 -291v-1c0 -180 -115 -294 -312 -294c-67 0 -150 15 -214 35v793h100v-252c40 6 79 10 115 10zM520 276v2c0 119 -75 201 -212 201c-35 0 -74 -5 -118 -16v-377c39 -9 84 -13 117 -13c130 0 213 77 213 203z" />
    <glyph glyph-name="c" unicode="c" horiz-adv-x="551" 
d="M336 -11c-177 0 -291 114 -292 292v1c2 175 119 292 293 292c69 0 133 -14 187 -40l-39 -84c-45 22 -92 32 -147 32c-117 0 -192 -78 -194 -200v-1c1 -122 77 -200 195 -200c55 0 106 11 147 33l39 -85c-55 -26 -119 -40 -189 -40z" />
    <glyph glyph-name="cacute" unicode="&#x107;" horiz-adv-x="551" 
d="M267 640l128 141h116l-146 -141h-98zM336 -11c-177 0 -291 114 -292 292v1c2 175 119 292 293 292c69 0 133 -14 187 -40l-39 -84c-45 22 -92 32 -147 32c-117 0 -192 -78 -194 -200v-1c1 -122 77 -200 195 -200c55 0 106 11 147 33l39 -85c-55 -26 -119 -40 -189 -40z
" />
    <glyph glyph-name="ccaron" unicode="&#x10d;" horiz-adv-x="551" 
d="M285 636l-151 148h97l104 -106l102 106h97l-149 -148h-100zM336 -11c-177 0 -291 114 -292 292v1c2 175 119 292 293 292c69 0 133 -14 187 -40l-39 -84c-45 22 -92 32 -147 32c-117 0 -192 -78 -194 -200v-1c1 -122 77 -200 195 -200c55 0 106 11 147 33l39 -85
c-55 -26 -119 -40 -189 -40z" />
    <glyph glyph-name="ccedilla" unicode="&#xe7;" horiz-adv-x="551" 
d="M354 -56c48 0 99 -23 99 -76c-1 -60 -53 -88 -123 -88c-28 0 -53 3 -80 12l-4 46c21 -6 57 -14 80 -14c46 0 74 13 74 41c0 27 -25 37 -65 37c-25 0 -53 -7 -67 -12l-7 10l56 89c-166 8 -272 120 -273 292v1c2 175 119 292 293 292c69 0 133 -14 187 -40l-39 -84
c-45 22 -92 32 -147 32c-117 0 -192 -78 -194 -200v-1c1 -122 77 -200 195 -200c55 0 106 11 147 33l39 -85c-47 -22 -101 -36 -160 -39l-31 -48c3 1 13 2 20 2z" />
    <glyph glyph-name="ccircumflex" unicode="&#x109;" horiz-adv-x="551" 
d="M143 634l146 148h92l148 -148h-91l-102 105l-101 -105h-92zM336 -11c-177 0 -291 114 -292 292v1c2 175 119 292 293 292c69 0 133 -14 187 -40l-39 -84c-45 22 -92 32 -147 32c-117 0 -192 -78 -194 -200v-1c1 -122 77 -200 195 -200c55 0 106 11 147 33l39 -85
c-55 -26 -119 -40 -189 -40z" />
    <glyph glyph-name="cdotaccent" unicode="&#x10b;" horiz-adv-x="551" 
d="M335 635c-37 0 -70 22 -70 64c0 38 31 64 70 64c38 0 69 -26 69 -64c0 -42 -33 -64 -69 -64zM336 -11c-177 0 -291 114 -292 292v1c2 175 119 292 293 292c69 0 133 -14 187 -40l-39 -84c-45 22 -92 32 -147 32c-117 0 -192 -78 -194 -200v-1c1 -122 77 -200 195 -200
c55 0 106 11 147 33l39 -85c-55 -26 -119 -40 -189 -40z" />
    <glyph glyph-name="d" unicode="d" horiz-adv-x="657" 
d="M467 811h100v-793c-64 -20 -147 -35 -214 -35c-197 0 -312 114 -312 294v1c0 185 123 291 311 291c36 0 75 -4 115 -10v252zM350 73c33 0 78 4 117 13v377c-44 11 -83 16 -118 16c-137 0 -212 -82 -212 -201v-2c0 -126 83 -203 213 -203z" />
    <glyph glyph-name="eth" unicode="&#xf0;" horiz-adv-x="678" 
d="M575 464c39 -50 62 -113 62 -184v-1c0 -167 -129 -290 -299 -291h-1c-169 0 -297 124 -298 291v1c0 168 129 295 298 295h1c17 0 34 -1 50 -4l-63 86l-108 -38l-37 63l101 35l-67 92h107l46 -62l91 32l37 -63l-84 -29zM537 279v1c0 112 -81 201 -198 202h-1
c-117 0 -198 -90 -198 -202v-1c0 -110 81 -199 198 -199h1c117 0 198 89 198 199z" />
    <glyph glyph-name="dcaron" unicode="&#x10f;" horiz-adv-x="731" 
d="M467 559v252h100v-793c-64 -20 -147 -35 -214 -35c-197 0 -312 114 -312 294v1c0 185 123 291 311 291c36 0 75 -4 115 -10zM659 811h82l-64 -180h-59zM350 73c33 0 78 4 117 13v377c-44 11 -83 16 -118 16c-137 0 -212 -82 -212 -201v-2c0 -126 83 -203 213 -203z" />
    <glyph glyph-name="dcroat" unicode="&#x111;" horiz-adv-x="657" 
d="M658 735v-78h-91v-639c-64 -20 -147 -35 -214 -35c-197 0 -312 114 -312 294v1c0 185 123 291 311 291c36 0 75 -4 115 -10v98h-110v78h110v76h100v-76h91zM350 73c33 0 78 4 117 13v377c-44 11 -83 16 -118 16c-137 0 -212 -82 -212 -201v-2c0 -126 83 -203 213 -203z
" />
    <glyph glyph-name="e" unicode="e" horiz-adv-x="640" 
d="M597 297c0 -11 0 -38 -1 -49h-454c14 -107 87 -172 198 -172c73 0 135 17 180 43l42 -77c-58 -31 -133 -53 -228 -53c-176 0 -292 117 -292 292c0 176 115 294 286 294c161 0 269 -111 269 -278zM326 487c-103 0 -167 -57 -182 -154h356c-6 95 -72 154 -174 154z" />
    <glyph glyph-name="eacute" unicode="&#xe9;" horiz-adv-x="640" 
d="M505 787l-146 -141h-98l128 141h116zM597 297c0 -11 0 -38 -1 -49h-454c14 -107 87 -172 198 -172c73 0 135 17 180 43l42 -77c-58 -31 -133 -53 -228 -53c-176 0 -292 117 -292 292c0 176 115 294 286 294c161 0 269 -111 269 -278zM326 487c-103 0 -167 -57 -182 -154
h356c-6 95 -72 154 -174 154z" />
    <glyph glyph-name="ebreve" unicode="&#x115;" horiz-adv-x="640" 
d="M328 639c-100 0 -156 43 -167 142h66c9 -63 36 -89 101 -89s92 26 101 89h66c-11 -99 -67 -142 -167 -142zM597 297c0 -11 0 -38 -1 -49h-454c14 -107 87 -172 198 -172c73 0 135 17 180 43l42 -77c-58 -31 -133 -53 -228 -53c-176 0 -292 117 -292 292
c0 176 115 294 286 294c161 0 269 -111 269 -278zM326 487c-103 0 -167 -57 -182 -154h356c-6 95 -72 154 -174 154z" />
    <glyph glyph-name="ecaron" unicode="&#x11b;" horiz-adv-x="640" 
d="M379 642h-100l-151 148h97l104 -106l102 106h97zM597 297c0 -11 0 -38 -1 -49h-454c14 -107 87 -172 198 -172c73 0 135 17 180 43l42 -77c-58 -31 -133 -53 -228 -53c-176 0 -292 117 -292 292c0 176 115 294 286 294c161 0 269 -111 269 -278zM326 487
c-103 0 -167 -57 -182 -154h356c-6 95 -72 154 -174 154z" />
    <glyph glyph-name="ecircumflex" unicode="&#xea;" horiz-adv-x="640" 
d="M330 745l-101 -105h-92l146 148h92l148 -148h-91zM597 297c0 -11 0 -38 -1 -49h-454c14 -107 87 -172 198 -172c73 0 135 17 180 43l42 -77c-58 -31 -133 -53 -228 -53c-176 0 -292 117 -292 292c0 176 115 294 286 294c161 0 269 -111 269 -278zM326 487
c-103 0 -167 -57 -182 -154h356c-6 95 -72 154 -174 154z" />
    <glyph glyph-name="edieresis" unicode="&#xeb;" horiz-adv-x="640" 
d="M238 642c-36 0 -69 21 -68 61c1 37 31 62 68 62c36 0 65 -25 65 -62c0 -40 -31 -61 -65 -61zM417 642c-36 0 -69 21 -68 61c0 37 31 62 68 62c36 0 65 -25 65 -62c0 -40 -31 -61 -65 -61zM597 297c0 -11 0 -38 -1 -49h-454c14 -107 87 -172 198 -172c73 0 135 17 180 43
l42 -77c-58 -31 -133 -53 -228 -53c-176 0 -292 117 -292 292c0 176 115 294 286 294c161 0 269 -111 269 -278zM326 487c-103 0 -167 -57 -182 -154h356c-6 95 -72 154 -174 154z" />
    <glyph glyph-name="edotaccent" unicode="&#x117;" horiz-adv-x="640" 
d="M329 641c-37 0 -70 22 -70 64c0 38 31 64 70 64c38 0 69 -26 69 -64c0 -42 -33 -64 -69 -64zM597 297c0 -11 0 -38 -1 -49h-454c14 -107 87 -172 198 -172c73 0 135 17 180 43l42 -77c-58 -31 -133 -53 -228 -53c-176 0 -292 117 -292 292c0 176 115 294 286 294
c161 0 269 -111 269 -278zM326 487c-103 0 -167 -57 -182 -154h356c-6 95 -72 154 -174 154z" />
    <glyph glyph-name="egrave" unicode="&#xe8;" horiz-adv-x="640" 
d="M394 642h-66l-143 148h119zM597 297c0 -11 0 -38 -1 -49h-454c14 -107 87 -172 198 -172c73 0 135 17 180 43l42 -77c-58 -31 -133 -53 -228 -53c-176 0 -292 117 -292 292c0 176 115 294 286 294c161 0 269 -111 269 -278zM326 487c-103 0 -167 -57 -182 -154h356
c-6 95 -72 154 -174 154z" />
    <glyph glyph-name="emacron" unicode="&#x113;" horiz-adv-x="640" 
d="M476 713v-71h-296v71h296zM597 297c0 -11 0 -38 -1 -49h-454c14 -107 87 -172 198 -172c73 0 135 17 180 43l42 -77c-58 -31 -133 -53 -228 -53c-176 0 -292 117 -292 292c0 176 115 294 286 294c161 0 269 -111 269 -278zM326 487c-103 0 -167 -57 -182 -154h356
c-6 95 -72 154 -174 154z" />
    <glyph glyph-name="eogonek" unicode="&#x119;" horiz-adv-x="640" 
d="M597 297c0 -11 0 -38 -1 -49h-454c14 -107 87 -172 198 -172c73 0 135 17 180 43l42 -77c-13 -7 -27 -14 -42 -20c-50 -25 -76 -48 -77 -79c-2 -40 37 -56 83 -56c14 0 27 3 37 4v-47c-11 -2 -38 -5 -58 -5c-78 0 -151 24 -149 94c1 21 10 40 26 58c-16 -1 -31 -2 -48 -2
c-176 0 -292 117 -292 292c0 176 115 294 286 294c161 0 269 -111 269 -278zM326 487c-103 0 -167 -57 -182 -154h356c-6 95 -72 154 -174 154z" />
    <glyph glyph-name="uni1EBD" unicode="&#x1ebd;" horiz-adv-x="640" 
d="M265 680c-23 0 -33 -12 -40 -42h-75c6 72 32 119 101 119c68 0 95 -43 145 -43c22 0 32 14 39 42h75c-6 -72 -30 -118 -100 -118c-66 0 -95 42 -145 42zM597 297c0 -11 0 -38 -1 -49h-454c14 -107 87 -172 198 -172c73 0 135 17 180 43l42 -77c-58 -31 -133 -53 -228 -53
c-176 0 -292 117 -292 292c0 176 115 294 286 294c161 0 269 -111 269 -278zM326 487c-103 0 -167 -57 -182 -154h356c-6 95 -72 154 -174 154z" />
    <glyph glyph-name="uni0259" unicode="&#x259;" horiz-adv-x="635" 
d="M300 573c176 0 292 -117 292 -292c0 -176 -115 -294 -286 -294c-161 0 -269 111 -269 278c0 11 0 38 1 49h454c-14 107 -87 172 -198 172c-73 0 -135 -17 -180 -43l-42 77c58 31 133 53 228 53zM308 75c103 0 167 57 182 154h-356c6 -95 72 -154 174 -154z" />
    <glyph glyph-name="f" unicode="f" horiz-adv-x="496" 
d="M135 0v464h-108v92h108v73c0 143 69 182 218 182h103v-84h-94c-87 0 -128 -28 -128 -116v-55h220v-92h-220v-464h-99z" />
    <glyph glyph-name="g" unicode="g" horiz-adv-x="662" 
d="M356 571c53 0 144 -12 219 -29v-550c0 -152 -103 -222 -246 -222c-70 0 -138 12 -181 30l-19 91c52 -23 121 -34 179 -34c109 0 170 37 170 139v21c-41 -5 -81 -8 -115 -8h-3c-210 0 -319 109 -319 285v1c0 170 123 276 314 276h1zM475 118v340c-42 11 -78 17 -114 17h-1
c-133 0 -217 -60 -217 -184v-1c0 -120 83 -185 219 -185h3c31 0 67 3 110 13z" />
    <glyph glyph-name="gbreve" unicode="&#x11f;" horiz-adv-x="662" 
d="M369 633c-100 0 -156 43 -167 142h66c9 -63 36 -89 101 -89s92 26 101 89h66c-11 -99 -67 -142 -167 -142zM356 571c53 0 144 -12 219 -29v-550c0 -152 -103 -222 -246 -222c-70 0 -138 12 -181 30l-19 91c52 -23 121 -34 179 -34c109 0 170 37 170 139v21
c-41 -5 -81 -8 -115 -8h-3c-210 0 -319 109 -319 285v1c0 170 123 276 314 276h1zM475 118v340c-42 11 -78 17 -114 17h-1c-133 0 -217 -60 -217 -184v-1c0 -120 83 -185 219 -185h3c31 0 67 3 110 13z" />
    <glyph glyph-name="gcircumflex" unicode="&#x11d;" horiz-adv-x="662" 
d="M371 739l-101 -105h-92l146 148h92l148 -148h-91zM356 571c53 0 144 -12 219 -29v-550c0 -152 -103 -222 -246 -222c-70 0 -138 12 -181 30l-19 91c52 -23 121 -34 179 -34c109 0 170 37 170 139v21c-41 -5 -81 -8 -115 -8h-3c-210 0 -319 109 -319 285v1
c0 170 123 276 314 276h1zM475 118v340c-42 11 -78 17 -114 17h-1c-133 0 -217 -60 -217 -184v-1c0 -120 83 -185 219 -185h3c31 0 67 3 110 13z" />
    <glyph glyph-name="gcommaaccent" unicode="&#x123;" horiz-adv-x="662" 
d="M356 571c53 0 144 -12 219 -29v-550c0 -152 -103 -222 -246 -222c-70 0 -138 12 -181 30l-19 91c52 -23 121 -34 179 -34c109 0 170 37 170 139v21c-41 -5 -81 -8 -115 -8h-3c-210 0 -319 109 -319 285v1c0 170 123 276 314 276h1zM475 118v340c-42 11 -78 17 -114 17h-1
c-133 0 -217 -60 -217 -184v-1c0 -120 83 -185 219 -185h3c31 0 67 3 110 13zM235 -449l61 178h92l-85 -178h-68z" />
    <glyph glyph-name="gdotaccent" unicode="&#x121;" horiz-adv-x="662" 
d="M370 635c-37 0 -70 22 -70 64c0 38 31 64 70 64c38 0 69 -26 69 -64c0 -42 -33 -64 -69 -64zM356 571c53 0 144 -12 219 -29v-550c0 -152 -103 -222 -246 -222c-70 0 -138 12 -181 30l-19 91c52 -23 121 -34 179 -34c109 0 170 37 170 139v21c-41 -5 -81 -8 -115 -8h-3
c-210 0 -319 109 -319 285v1c0 170 123 276 314 276h1zM475 118v340c-42 11 -78 17 -114 17h-1c-133 0 -217 -60 -217 -184v-1c0 -120 83 -185 219 -185h3c31 0 67 3 110 13z" />
    <glyph glyph-name="h" unicode="h" horiz-adv-x="668" 
d="M579 0h-100v344c0 97 -55 131 -147 131c-39 0 -90 -5 -142 -15v-460h-100v811h100v-252c57 7 110 12 147 12c134 0 241 -49 241 -208c0 -121 1 -242 1 -363z" />
    <glyph glyph-name="hbar" unicode="&#x127;" horiz-adv-x="668" 
d="M579 0h-100v344c0 97 -55 131 -147 131c-39 0 -90 -5 -142 -15v-460h-100v657h-95v78h95v76h100v-76h106v-78h-106v-98c57 7 110 12 147 12c134 0 241 -49 241 -208c0 -121 1 -242 1 -363z" />
    <glyph glyph-name="hcircumflex" unicode="&#x125;" horiz-adv-x="668" 
d="M244 889l-102 105l-101 -105h-92l146 148h92l148 -148h-91zM579 0h-100v344c0 97 -55 131 -147 131c-39 0 -90 -5 -142 -15v-460h-100v811h100v-252c57 7 110 12 147 12c134 0 241 -49 241 -208c0 -121 1 -242 1 -363z" />
    <glyph glyph-name="i" unicode="i" horiz-adv-x="279" 
d="M141 635c-37 0 -70 22 -70 64c0 38 31 64 70 64c38 0 69 -26 69 -64c0 -42 -33 -64 -69 -64zM90 0v556h100v-556h-100z" />
    <glyph glyph-name="dotlessi" unicode="&#x131;" horiz-adv-x="279" 
d="M90 0v556h100v-556h-100z" />
    <glyph glyph-name="iacute" unicode="&#xed;" horiz-adv-x="279" 
d="M73 640l128 141h116l-146 -141h-98zM90 0v556h100v-556h-100z" />
    <glyph glyph-name="ibreve" unicode="&#x12d;" horiz-adv-x="279" 
d="M140 633c-100 0 -156 43 -167 142h66c9 -63 36 -89 101 -89s92 26 101 89h66c-11 -99 -67 -142 -167 -142zM90 0v556h100v-556h-100z" />
    <glyph glyph-name="uni01D0" unicode="&#x1d0;" horiz-adv-x="279" 
d="M91 636l-151 148h97l104 -106l102 106h97l-149 -148h-100zM90 0v556h100v-556h-100z" />
    <glyph glyph-name="icircumflex" unicode="&#xee;" horiz-adv-x="279" 
d="M-51 634l146 148h92l148 -148h-91l-102 105l-101 -105h-92zM90 0v556h100v-556h-100z" />
    <glyph glyph-name="idieresis" unicode="&#xef;" horiz-adv-x="279" 
d="M50 636c-36 0 -69 21 -68 61c1 37 31 62 68 62c36 0 65 -25 65 -62c0 -40 -31 -61 -65 -61zM229 636c-36 0 -69 21 -68 61c0 37 31 62 68 62c36 0 65 -25 65 -62c0 -40 -31 -61 -65 -61zM90 0v556h100v-556h-100z" />
    <glyph glyph-name="i.loclTRK" horiz-adv-x="279" 
d="M141 635c-37 0 -70 22 -70 64c0 38 31 64 70 64c38 0 69 -26 69 -64c0 -42 -33 -64 -69 -64zM90 0v556h100v-556h-100z" />
    <glyph glyph-name="uni1ECB" unicode="&#x1ecb;" horiz-adv-x="279" 
d="M141 635c-37 0 -70 22 -70 64c0 38 31 64 70 64c38 0 69 -26 69 -64c0 -42 -33 -64 -69 -64zM90 0v556h100v-556h-100zM141 -197c-37 0 -71 23 -71 66c0 38 32 64 71 64s71 -26 71 -64c0 -43 -34 -66 -71 -66z" />
    <glyph glyph-name="igrave" unicode="&#xec;" horiz-adv-x="279" 
d="M140 636l-143 148h119l90 -148h-66zM90 0v556h100v-556h-100z" />
    <glyph glyph-name="ij" unicode="&#x133;" horiz-adv-x="585" 
d="M141 635c-37 0 -70 22 -70 64c0 38 31 64 70 64c38 0 69 -26 69 -64c0 -42 -33 -64 -69 -64zM446 635c-37 0 -70 22 -70 64c0 38 31 64 70 64c38 0 69 -26 69 -64c0 -42 -33 -64 -69 -64zM90 0v556h100v-556h-100zM323 -229c-17 0 -39 3 -54 6l-15 89c15 -3 37 -6 50 -6
c70 0 91 31 91 131v565h100v-555c0 -176 -41 -230 -172 -230z" />
    <glyph glyph-name="imacron" unicode="&#x12b;" horiz-adv-x="279" 
d="M-8 636v71h296v-71h-296zM90 0v556h100v-556h-100z" />
    <glyph glyph-name="iogonek" unicode="&#x12f;" horiz-adv-x="279" 
d="M141 763c38 0 69 -26 69 -64c0 -42 -33 -64 -69 -64c-37 0 -70 22 -70 64c0 38 31 64 70 64zM71 -99c-2 -40 37 -56 83 -56c14 0 27 3 37 4v-47c-11 -2 -38 -5 -58 -5c-78 0 -151 24 -149 94c2 44 37 79 106 113v552h100v-556c-78 -34 -118 -60 -119 -99z" />
    <glyph glyph-name="itilde" unicode="&#x129;" horiz-adv-x="279" 
d="M-38 632c6 72 32 119 101 119c68 0 95 -43 145 -43c22 0 32 14 39 42h75c-6 -72 -30 -118 -100 -118c-66 0 -95 42 -145 42c-23 0 -33 -12 -40 -42h-75zM90 0v556h100v-556h-100z" />
    <glyph glyph-name="j" unicode="j" horiz-adv-x="306" 
d="M167 635c-37 0 -70 22 -70 64c0 38 31 64 70 64c38 0 69 -26 69 -64c0 -42 -33 -64 -69 -64zM44 -229c-17 0 -39 3 -54 6l-15 89c15 -3 37 -6 50 -6c70 0 91 31 91 131v565h100v-555c0 -176 -41 -230 -172 -230z" />
    <glyph glyph-name="j.alt" horiz-adv-x="306" 
d="M167 635c-37 0 -70 22 -70 64c0 38 31 64 70 64c38 0 69 -26 69 -64c0 -42 -33 -64 -69 -64zM44 -229c-11 0 -24 1 -35 2l-14 89c9 -1 22 -2 30 -2c70 0 91 31 91 131v565h100v-555c0 -176 -41 -230 -172 -230z" />
    <glyph glyph-name="uni0237" unicode="&#x237;" horiz-adv-x="306" 
d="M44 -229c-17 0 -39 3 -54 6l-15 89c15 -3 37 -6 50 -6c70 0 91 31 91 131v565h100v-555c0 -176 -41 -230 -172 -230z" />
    <glyph glyph-name="jcircumflex" unicode="&#x135;" horiz-adv-x="306" 
d="M-25 634l146 148h92l148 -148h-91l-102 105l-101 -105h-92zM44 -229c-17 0 -39 3 -54 6l-15 89c15 -3 37 -6 50 -6c70 0 91 31 91 131v565h100v-555c0 -176 -41 -230 -172 -230z" />
    <glyph glyph-name="k" unicode="k" horiz-adv-x="585" 
d="M566 0h-128l-248 272v-272h-100v811h100v-528l240 273h117l-240 -273z" />
    <glyph glyph-name="kcommaaccent" unicode="&#x137;" horiz-adv-x="585" 
d="M307 283l259 -283h-128l-248 272v-272h-100v811h100v-528l240 273h117zM191 -220l61 178h92l-85 -178h-68z" />
    <glyph glyph-name="l" unicode="l" horiz-adv-x="279" 
d="M90 0v811h100v-811h-100z" />
    <glyph glyph-name="lacute" unicode="&#x13a;" horiz-adv-x="279" 
d="M73 895l128 141h116l-146 -141h-98zM90 0v811h100v-811h-100z" />
    <glyph glyph-name="lcaron" unicode="&#x13e;" horiz-adv-x="343" 
d="M90 0v811h100v-811h-100zM231 631l41 180h82l-64 -180h-59z" />
    <glyph glyph-name="lcommaaccent" unicode="&#x13c;" horiz-adv-x="279" 
d="M90 0v811h100v-811h-100zM28 -220l61 178h92l-85 -178h-68z" />
    <glyph glyph-name="ldot" unicode="&#x140;" horiz-adv-x="397" 
d="M90 0v811h100v-811h-100zM318 363c-37 0 -71 23 -71 66c0 39 32 65 71 65s71 -26 71 -65c0 -43 -34 -66 -71 -66z" />
    <glyph glyph-name="lslash" unicode="&#x142;" horiz-adv-x="394" 
d="M367 486l-120 -64v-422h-100v369l-94 -50l-27 58l121 64v370h100v-316l93 49z" />
    <glyph glyph-name="m" unicode="m" horiz-adv-x="985" 
d="M895 361c0 -120 1 -241 1 -361h-100c0 115 -1 228 -1 343c0 81 -28 131 -135 131c-39 0 -90 -14 -126 -38c7 -24 11 -51 11 -81c0 -121 1 -235 1 -355h-99c0 115 -1 228 -1 343c0 97 -55 131 -139 131c-35 0 -74 -5 -117 -14v-460h-100v544c96 18 176 27 223 27
c69 0 128 -16 170 -52c51 31 114 52 182 52c147 0 230 -63 230 -210z" />
    <glyph glyph-name="n" unicode="n" horiz-adv-x="668" 
d="M91 0v544c91 16 189 27 246 27c134 0 240 -49 240 -208c0 -121 1 -242 1 -363h-99v344c0 97 -56 131 -147 131c-39 0 -91 -5 -143 -15v-460h-98z" />
    <glyph glyph-name="nacute" unicode="&#x144;" horiz-adv-x="668" 
d="M268 646l128 141h116l-146 -141h-98zM91 0v544c91 16 189 27 246 27c134 0 240 -49 240 -208c0 -121 1 -242 1 -363h-99v344c0 97 -56 131 -147 131c-39 0 -91 -5 -143 -15v-460h-98z" />
    <glyph glyph-name="ncaron" unicode="&#x148;" horiz-adv-x="668" 
d="M286 642l-151 148h97l104 -106l102 106h97l-149 -148h-100zM91 0v544c91 16 189 27 246 27c134 0 240 -49 240 -208c0 -121 1 -242 1 -363h-99v344c0 97 -56 131 -147 131c-39 0 -91 -5 -143 -15v-460h-98z" />
    <glyph glyph-name="ncommaaccent" unicode="&#x146;" horiz-adv-x="668" 
d="M91 0v544c91 16 189 27 246 27c134 0 240 -49 240 -208c0 -121 1 -242 1 -363h-99v344c0 97 -56 131 -147 131c-39 0 -91 -5 -143 -15v-460h-98zM223 -220l61 178h92l-85 -178h-68z" />
    <glyph glyph-name="eng" unicode="&#x14b;" horiz-adv-x="667" 
d="M577 -29c1 -151 -59 -200 -186 -200c-13 0 -27 1 -38 3l-16 74c13 -4 42 -7 50 -7c70 0 91 32 91 138l-1 365c0 96 -55 131 -146 131c-39 0 -90 -6 -141 -15v-460h-100v544c91 16 189 27 246 27c134 0 240 -49 240 -208z" />
    <glyph glyph-name="ntilde" unicode="&#xf1;" horiz-adv-x="668" 
d="M157 638c6 72 32 119 101 119c68 0 95 -43 145 -43c22 0 32 14 39 42h75c-6 -72 -30 -118 -100 -118c-66 0 -95 42 -145 42c-23 0 -33 -12 -40 -42h-75zM91 0v544c91 16 189 27 246 27c134 0 240 -49 240 -208c0 -121 1 -242 1 -363h-99v344c0 97 -56 131 -147 131
c-39 0 -91 -5 -143 -15v-460h-98z" />
    <glyph glyph-name="o" unicode="o" horiz-adv-x="676" 
d="M337 -12c-169 0 -297 124 -298 291v1c0 168 129 295 298 295h1c170 -1 299 -127 299 -295v-1c0 -167 -129 -290 -299 -291h-1zM338 80h1c117 0 198 89 198 199v1c0 112 -81 201 -198 202h-1c-117 0 -198 -90 -198 -202v-1c0 -110 81 -199 198 -199z" />
    <glyph glyph-name="oacute" unicode="&#xf3;" horiz-adv-x="676" 
d="M271 646l128 141h116l-146 -141h-98zM337 -12c-169 0 -297 124 -298 291v1c0 168 129 295 298 295h1c170 -1 299 -127 299 -295v-1c0 -167 -129 -290 -299 -291h-1zM338 80h1c117 0 198 89 198 199v1c0 112 -81 201 -198 202h-1c-117 0 -198 -90 -198 -202v-1
c0 -110 81 -199 198 -199z" />
    <glyph glyph-name="obreve" unicode="&#x14f;" horiz-adv-x="676" 
d="M338 639c-100 0 -156 43 -167 142h66c9 -63 36 -89 101 -89s92 26 101 89h66c-11 -99 -67 -142 -167 -142zM337 -12c-169 0 -297 124 -298 291v1c0 168 129 295 298 295h1c170 -1 299 -127 299 -295v-1c0 -167 -129 -290 -299 -291h-1zM338 80h1c117 0 198 89 198 199v1
c0 112 -81 201 -198 202h-1c-117 0 -198 -90 -198 -202v-1c0 -110 81 -199 198 -199z" />
    <glyph glyph-name="uni01D2" unicode="&#x1d2;" horiz-adv-x="676" 
d="M289 642l-151 148h97l104 -106l102 106h97l-149 -148h-100zM337 -12c-169 0 -297 124 -298 291v1c0 168 129 295 298 295h1c170 -1 299 -127 299 -295v-1c0 -167 -129 -290 -299 -291h-1zM338 80h1c117 0 198 89 198 199v1c0 112 -81 201 -198 202h-1
c-117 0 -198 -90 -198 -202v-1c0 -110 81 -199 198 -199z" />
    <glyph glyph-name="ocircumflex" unicode="&#xf4;" horiz-adv-x="676" 
d="M147 640l146 148h92l148 -148h-91l-102 105l-101 -105h-92zM337 -12c-169 0 -297 124 -298 291v1c0 168 129 295 298 295h1c170 -1 299 -127 299 -295v-1c0 -167 -129 -290 -299 -291h-1zM338 80h1c117 0 198 89 198 199v1c0 112 -81 201 -198 202h-1
c-117 0 -198 -90 -198 -202v-1c0 -110 81 -199 198 -199z" />
    <glyph glyph-name="odieresis" unicode="&#xf6;" horiz-adv-x="676" 
d="M248 642c-36 0 -69 21 -68 61c1 37 31 62 68 62c36 0 65 -25 65 -62c0 -40 -31 -61 -65 -61zM427 642c-36 0 -69 21 -68 61c0 37 31 62 68 62c36 0 65 -25 65 -62c0 -40 -31 -61 -65 -61zM337 -12c-169 0 -297 124 -298 291v1c0 168 129 295 298 295h1
c170 -1 299 -127 299 -295v-1c0 -167 -129 -290 -299 -291h-1zM338 80h1c117 0 198 89 198 199v1c0 112 -81 201 -198 202h-1c-117 0 -198 -90 -198 -202v-1c0 -110 81 -199 198 -199z" />
    <glyph glyph-name="uni1ECD" unicode="&#x1ecd;" horiz-adv-x="676" 
d="M337 -12c-169 0 -297 124 -298 291v1c0 168 129 295 298 295h1c170 -1 299 -127 299 -295v-1c0 -167 -129 -290 -299 -291h-1zM338 80h1c117 0 198 89 198 199v1c0 112 -81 201 -198 202h-1c-117 0 -198 -90 -198 -202v-1c0 -110 81 -199 198 -199zM338 -201
c-37 0 -71 23 -71 66c0 38 32 64 71 64s71 -26 71 -64c0 -43 -34 -66 -71 -66z" />
    <glyph glyph-name="ograve" unicode="&#xf2;" horiz-adv-x="676" 
d="M338 642l-143 148h119l90 -148h-66zM337 -12c-169 0 -297 124 -298 291v1c0 168 129 295 298 295h1c170 -1 299 -127 299 -295v-1c0 -167 -129 -290 -299 -291h-1zM338 80h1c117 0 198 89 198 199v1c0 112 -81 201 -198 202h-1c-117 0 -198 -90 -198 -202v-1
c0 -110 81 -199 198 -199z" />
    <glyph glyph-name="ohungarumlaut" unicode="&#x151;" horiz-adv-x="676" 
d="M184 631l108 141h114l-126 -141h-96zM405 631l108 141h114l-126 -141h-96zM337 -12c-169 0 -297 124 -298 291v1c0 168 129 295 298 295h1c170 -1 299 -127 299 -295v-1c0 -167 -129 -290 -299 -291h-1zM338 80h1c117 0 198 89 198 199v1c0 112 -81 201 -198 202h-1
c-117 0 -198 -90 -198 -202v-1c0 -110 81 -199 198 -199z" />
    <glyph glyph-name="omacron" unicode="&#x14d;" horiz-adv-x="676" 
d="M190 642v71h296v-71h-296zM337 -12c-169 0 -297 124 -298 291v1c0 168 129 295 298 295h1c170 -1 299 -127 299 -295v-1c0 -167 -129 -290 -299 -291h-1zM338 80h1c117 0 198 89 198 199v1c0 112 -81 201 -198 202h-1c-117 0 -198 -90 -198 -202v-1
c0 -110 81 -199 198 -199z" />
    <glyph glyph-name="oslash" unicode="&#xf8;" horiz-adv-x="676" 
d="M678 532l-91 -85c32 -47 50 -104 50 -167v-1c0 -167 -129 -290 -299 -291h-1c-68 0 -129 20 -178 55l-82 -77l-80 55l95 89c-33 47 -53 105 -53 169v1c0 168 129 295 298 295h1c70 0 134 -22 184 -60l76 72zM140 279c0 -36 9 -70 25 -100l286 270c-31 20 -69 33 -112 33
h-1c-117 0 -198 -90 -198 -202v-1zM537 280c0 36 -8 69 -23 98l-284 -268c30 -19 67 -30 108 -30h1c117 0 198 89 198 199v1z" />
    <glyph glyph-name="otilde" unicode="&#xf5;" horiz-adv-x="676" 
d="M160 638c6 72 32 119 101 119c68 0 95 -43 145 -43c22 0 32 14 39 42h75c-6 -72 -30 -118 -100 -118c-66 0 -95 42 -145 42c-23 0 -33 -12 -40 -42h-75zM337 -12c-169 0 -297 124 -298 291v1c0 168 129 295 298 295h1c170 -1 299 -127 299 -295v-1
c0 -167 -129 -290 -299 -291h-1zM338 80h1c117 0 198 89 198 199v1c0 112 -81 201 -198 202h-1c-117 0 -198 -90 -198 -202v-1c0 -110 81 -199 198 -199z" />
    <glyph glyph-name="oe" unicode="&#x153;" horiz-adv-x="1137" 
d="M1094 298c0 -11 0 -38 -1 -49h-454c14 -107 87 -172 198 -172c73 0 135 17 180 43l42 -77c-58 -31 -133 -53 -228 -53c-109 0 -196 45 -245 122c-53 -76 -143 -123 -248 -124h-1c-169 0 -297 124 -298 291v1c0 168 129 295 298 295h1c104 -1 193 -48 246 -123
c49 78 134 124 241 124c161 0 269 -111 269 -278zM823 488c-103 0 -167 -57 -182 -154h356c-6 95 -72 154 -174 154zM537 279v1c0 112 -81 201 -198 202h-1c-117 0 -198 -90 -198 -202v-1c0 -110 81 -199 198 -199h1c117 0 198 89 198 199z" />
    <glyph glyph-name="p" unicode="p" horiz-adv-x="657" 
d="M305 569c188 0 311 -106 311 -291v-1c0 -180 -115 -294 -312 -294c-35 0 -75 4 -114 11v-215h-100v762h18c66 18 136 28 197 28zM520 276v2c0 119 -75 201 -212 201c-35 0 -74 -5 -118 -16v-377c39 -9 84 -13 117 -13c130 0 213 77 213 203z" />
    <glyph glyph-name="thorn" unicode="&#xfe;" horiz-adv-x="657" 
d="M305 569c188 0 311 -106 311 -291v-1c0 -180 -115 -294 -312 -294c-35 0 -75 4 -114 11v-214h-100v1031h100v-252c40 6 79 10 115 10zM520 276v2c0 119 -75 201 -212 201c-36 0 -72 -5 -118 -17v-376c40 -9 83 -13 117 -13c130 0 213 77 213 203z" />
    <glyph glyph-name="q" unicode="q" horiz-adv-x="657" 
d="M549 541h18v-762h-100v215c-39 -7 -79 -11 -114 -11c-197 0 -312 114 -312 294v1c0 185 123 291 311 291c61 0 131 -10 197 -28zM350 73c33 0 78 4 117 13v377c-44 11 -83 16 -118 16c-137 0 -212 -82 -212 -201v-2c0 -126 83 -203 213 -203z" />
    <glyph glyph-name="r" unicode="r" horiz-adv-x="423" 
d="M80 0v528c74 22 147 29 206 29h97v-94c-36 0 -47 1 -86 1c-34 0 -94 -3 -119 -15v-449h-98z" />
    <glyph glyph-name="racute" unicode="&#x155;" horiz-adv-x="423" 
d="M150 625l128 141h116l-146 -141h-98zM80 0v528c74 22 147 29 206 29h97v-94c-36 0 -47 1 -86 1c-34 0 -94 -3 -119 -15v-449h-98z" />
    <glyph glyph-name="rcaron" unicode="&#x159;" horiz-adv-x="423" 
d="M168 621l-151 148h97l104 -106l102 106h97l-149 -148h-100zM80 0v528c74 22 147 29 206 29h97v-94c-36 0 -47 1 -86 1c-34 0 -94 -3 -119 -15v-449h-98z" />
    <glyph glyph-name="rcommaaccent" unicode="&#x157;" horiz-adv-x="423" 
d="M80 0v528c74 22 147 29 206 29h97v-94c-36 0 -47 1 -86 1c-34 0 -94 -3 -119 -15v-449h-98zM17 -220l61 178h92l-85 -178h-68z" />
    <glyph glyph-name="s" unicode="s" horiz-adv-x="514" 
d="M245 -12c-81 0 -154 14 -225 46l27 80c63 -27 131 -40 189 -40c88 0 149 17 149 75c0 50 -20 63 -126 91c-17 4 -33 9 -50 13c-123 32 -177 82 -177 170c0 94 82 151 215 151c82 0 159 -16 215 -45l-28 -80c-54 25 -114 39 -175 39c-78 0 -123 -18 -123 -65
c0 -49 34 -60 123 -83c14 -4 28 -7 42 -11c132 -35 183 -87 183 -175c0 -108 -81 -166 -239 -166z" />
    <glyph glyph-name="sacute" unicode="&#x15b;" horiz-adv-x="514" 
d="M191 646l128 141h116l-146 -141h-98zM245 -12c-81 0 -154 14 -225 46l27 80c63 -27 131 -40 189 -40c88 0 149 17 149 75c0 50 -20 63 -126 91c-17 4 -33 9 -50 13c-123 32 -177 82 -177 170c0 94 82 151 215 151c82 0 159 -16 215 -45l-28 -80c-54 25 -114 39 -175 39
c-78 0 -123 -18 -123 -65c0 -49 34 -60 123 -83c14 -4 28 -7 42 -11c132 -35 183 -87 183 -175c0 -108 -81 -166 -239 -166z" />
    <glyph glyph-name="scaron" unicode="&#x161;" horiz-adv-x="514" 
d="M209 642l-151 148h97l104 -106l102 106h97l-149 -148h-100zM245 -12c-81 0 -154 14 -225 46l27 80c63 -27 131 -40 189 -40c88 0 149 17 149 75c0 50 -20 63 -126 91c-17 4 -33 9 -50 13c-123 32 -177 82 -177 170c0 94 82 151 215 151c82 0 159 -16 215 -45l-28 -80
c-54 25 -114 39 -175 39c-78 0 -123 -18 -123 -65c0 -49 34 -60 123 -83c14 -4 28 -7 42 -11c132 -35 183 -87 183 -175c0 -108 -81 -166 -239 -166z" />
    <glyph glyph-name="scedilla" unicode="&#x15f;" horiz-adv-x="514" 
d="M484 154c0 -102 -72 -159 -211 -165l-31 -47c3 1 13 2 20 2c48 0 99 -23 99 -76c-1 -60 -53 -88 -123 -88c-28 0 -53 3 -80 12l-4 46c21 -6 57 -14 80 -14c46 0 74 13 74 41c0 27 -25 37 -65 37c-25 0 -53 -7 -67 -12l-7 10l56 88c-73 2 -140 17 -205 46l27 80
c63 -27 131 -40 189 -40c88 0 149 17 149 75c0 50 -20 63 -126 91c-17 4 -33 9 -50 13c-123 32 -177 82 -177 170c0 94 82 151 215 151c82 0 159 -16 215 -45l-28 -80c-54 25 -114 39 -175 39c-78 0 -123 -18 -123 -65c0 -49 34 -60 123 -83c14 -4 28 -7 42 -11
c132 -35 183 -87 183 -175z" />
    <glyph glyph-name="scircumflex" unicode="&#x15d;" horiz-adv-x="514" 
d="M67 640l146 148h92l148 -148h-91l-102 105l-101 -105h-92zM245 -12c-81 0 -154 14 -225 46l27 80c63 -27 131 -40 189 -40c88 0 149 17 149 75c0 50 -20 63 -126 91c-17 4 -33 9 -50 13c-123 32 -177 82 -177 170c0 94 82 151 215 151c82 0 159 -16 215 -45l-28 -80
c-54 25 -114 39 -175 39c-78 0 -123 -18 -123 -65c0 -49 34 -60 123 -83c14 -4 28 -7 42 -11c132 -35 183 -87 183 -175c0 -108 -81 -166 -239 -166z" />
    <glyph glyph-name="scommaaccent" unicode="&#x219;" horiz-adv-x="514" 
d="M245 -12c-81 0 -154 14 -225 46l27 80c63 -27 131 -40 189 -40c88 0 149 17 149 75c0 50 -20 63 -126 91c-17 4 -33 9 -50 13c-123 32 -177 82 -177 170c0 94 82 151 215 151c82 0 159 -16 215 -45l-28 -80c-54 25 -114 39 -175 39c-78 0 -123 -18 -123 -65
c0 -49 34 -60 123 -83c14 -4 28 -7 42 -11c132 -35 183 -87 183 -175c0 -108 -81 -166 -239 -166zM144 -220l61 178h92l-85 -178h-68z" />
    <glyph glyph-name="germandbls" unicode="&#xdf;" horiz-adv-x="754" 
d="M534 448c112 -22 184 -94 184 -212v-4c-2 -154 -111 -243 -292 -243c-30 0 -78 3 -119 10l18 94c29 -5 58 -8 86 -8c124 0 205 53 205 153v5c0 103 -86 144 -226 144h-27l-2 96h28c113 0 166 46 166 121v4c0 78 -65 120 -173 120c-136 0 -192 -59 -192 -202v-526h-100
v528c0 215 109 296 298 296c162 0 271 -75 271 -198v-5c-1 -86 -54 -156 -125 -173z" />
    <glyph glyph-name="t" unicode="t" horiz-adv-x="488" 
d="M325 0c-146 0 -192 58 -192 175v291h-106v90h106v203h98v-203h219v-90h-219v-261c0 -89 43 -114 127 -114h94v-91h-127z" />
    <glyph glyph-name="tbar" unicode="&#x167;" horiz-adv-x="488" 
d="M358 91h94v-91h-127c-146 0 -192 58 -192 175v127h-108v89h108v75h-106v90h106v203h98v-203h219v-90h-219v-75h217v-89h-217v-97c0 -89 43 -114 127 -114z" />
    <glyph glyph-name="tcaron" unicode="&#x165;" horiz-adv-x="488" 
d="M307 631l41 180h82l-64 -180h-59zM325 0c-146 0 -192 58 -192 175v291h-106v90h106v203h98v-203h219v-90h-219v-261c0 -89 43 -114 127 -114h94v-91h-127z" />
    <glyph glyph-name="uni0163" unicode="&#x163;" horiz-adv-x="488" 
d="M452 0h-107l-33 -55c6 2 15 4 25 4c50 0 100 -23 100 -76c0 -59 -53 -87 -122 -87c-29 0 -54 3 -81 12l-4 41c20 -7 57 -14 80 -14c46 0 80 15 80 47c1 30 -28 44 -70 44c-25 0 -53 -6 -69 -12l-4 6l56 90c-129 6 -170 64 -170 175v291h-106v90h106v203h98v-203h219v-90
h-219v-261c0 -89 43 -114 127 -114h94v-91z" />
    <glyph glyph-name="uni021B" unicode="&#x21b;" horiz-adv-x="488" 
d="M325 0c-146 0 -192 58 -192 175v291h-106v90h106v203h98v-203h219v-90h-219v-261c0 -89 43 -114 127 -114h94v-91h-127zM221 -219l61 178h92l-85 -178h-68z" />
    <glyph glyph-name="u" unicode="u" horiz-adv-x="668" 
d="M578 556v-541c-92 -16 -189 -27 -247 -27c-159 0 -240 66 -240 209v359h98c0 -115 1 -225 1 -340c0 -103 55 -131 147 -131c39 0 91 5 142 14v457h99z" />
    <glyph glyph-name="uacute" unicode="&#xfa;" horiz-adv-x="668" 
d="M268 646l128 141h116l-146 -141h-98zM578 556v-541c-92 -16 -189 -27 -247 -27c-159 0 -240 66 -240 209v359h98c0 -115 1 -225 1 -340c0 -103 55 -131 147 -131c39 0 91 5 142 14v457h99z" />
    <glyph glyph-name="ubreve" unicode="&#x16d;" horiz-adv-x="668" 
d="M335 639c-100 0 -156 43 -167 142h66c9 -63 36 -89 101 -89s92 26 101 89h66c-11 -99 -67 -142 -167 -142zM578 556v-541c-92 -16 -189 -27 -247 -27c-159 0 -240 66 -240 209v359h98c0 -115 1 -225 1 -340c0 -103 55 -131 147 -131c39 0 91 5 142 14v457h99z" />
    <glyph glyph-name="uni01D4" unicode="&#x1d4;" horiz-adv-x="668" 
d="M286 642l-151 148h97l104 -106l102 106h97l-149 -148h-100zM578 556v-541c-92 -16 -189 -27 -247 -27c-159 0 -240 66 -240 209v359h98c0 -115 1 -225 1 -340c0 -103 55 -131 147 -131c39 0 91 5 142 14v457h99z" />
    <glyph glyph-name="ucircumflex" unicode="&#xfb;" horiz-adv-x="668" 
d="M144 640l146 148h92l148 -148h-91l-102 105l-101 -105h-92zM578 556v-541c-92 -16 -189 -27 -247 -27c-159 0 -240 66 -240 209v359h98c0 -115 1 -225 1 -340c0 -103 55 -131 147 -131c39 0 91 5 142 14v457h99z" />
    <glyph glyph-name="udieresis" unicode="&#xfc;" horiz-adv-x="668" 
d="M245 642c-36 0 -69 21 -68 61c1 37 31 62 68 62c36 0 65 -25 65 -62c0 -40 -31 -61 -65 -61zM424 642c-36 0 -69 21 -68 61c0 37 31 62 68 62c36 0 65 -25 65 -62c0 -40 -31 -61 -65 -61zM578 556v-541c-92 -16 -189 -27 -247 -27c-159 0 -240 66 -240 209v359h98
c0 -115 1 -225 1 -340c0 -103 55 -131 147 -131c39 0 91 5 142 14v457h99z" />
    <glyph glyph-name="uni1EE5" unicode="&#x1ee5;" horiz-adv-x="668" 
d="M578 556v-541c-92 -16 -189 -27 -247 -27c-159 0 -240 66 -240 209v359h98c0 -115 1 -225 1 -340c0 -103 55 -131 147 -131c39 0 91 5 142 14v457h99zM332 -201c-37 0 -71 23 -71 66c0 38 32 64 71 64s71 -26 71 -64c0 -43 -34 -66 -71 -66z" />
    <glyph glyph-name="ugrave" unicode="&#xf9;" horiz-adv-x="668" 
d="M335 642l-143 148h119l90 -148h-66zM578 556v-541c-92 -16 -189 -27 -247 -27c-159 0 -240 66 -240 209v359h98c0 -115 1 -225 1 -340c0 -103 55 -131 147 -131c39 0 91 5 142 14v457h99z" />
    <glyph glyph-name="uhungarumlaut" unicode="&#x171;" horiz-adv-x="668" 
d="M181 631l108 141h114l-126 -141h-96zM402 631l108 141h114l-126 -141h-96zM578 556v-541c-92 -16 -189 -27 -247 -27c-159 0 -240 66 -240 209v359h98c0 -115 1 -225 1 -340c0 -103 55 -131 147 -131c39 0 91 5 142 14v457h99z" />
    <glyph glyph-name="umacron" unicode="&#x16b;" horiz-adv-x="668" 
d="M187 642v71h296v-71h-296zM578 556v-541c-92 -16 -189 -27 -247 -27c-159 0 -240 66 -240 209v359h98c0 -115 1 -225 1 -340c0 -103 55 -131 147 -131c39 0 91 5 142 14v457h99z" />
    <glyph glyph-name="uogonek" unicode="&#x173;" horiz-adv-x="668" 
d="M347 -12c-68 -31 -103 -56 -104 -92c-2 -40 37 -56 83 -56c14 0 27 3 37 4v-47c-11 -2 -38 -5 -58 -5c-78 0 -151 24 -149 94c2 42 34 76 97 108c-107 20 -162 85 -162 203v359h98c0 -115 1 -225 1 -340c0 -103 55 -131 147 -131c39 0 91 5 142 14v457h99v-541
c-84 -15 -172 -25 -231 -27z" />
    <glyph glyph-name="uring" unicode="&#x16f;" horiz-adv-x="668" 
d="M337 640c-62 0 -113 48 -113 110s49 108 113 108c61 0 111 -49 111 -110c0 -63 -48 -108 -111 -108zM336 696c34 0 56 22 56 53c-1 30 -23 53 -55 53c-33 0 -57 -23 -56 -53c-2 -31 24 -53 55 -53zM578 556v-541c-92 -16 -189 -27 -247 -27c-159 0 -240 66 -240 209v359
h98c0 -115 1 -225 1 -340c0 -103 55 -131 147 -131c39 0 91 5 142 14v457h99z" />
    <glyph glyph-name="utilde" unicode="&#x169;" horiz-adv-x="668" 
d="M157 638c6 72 32 119 101 119c68 0 95 -43 145 -43c22 0 32 14 39 42h75c-6 -72 -30 -118 -100 -118c-66 0 -95 42 -145 42c-23 0 -33 -12 -40 -42h-75zM578 556v-541c-92 -16 -189 -27 -247 -27c-159 0 -240 66 -240 209v359h98c0 -115 1 -225 1 -340
c0 -103 55 -131 147 -131c39 0 91 5 142 14v457h99z" />
    <glyph glyph-name="v" unicode="v" horiz-adv-x="584" 
d="M454 556h104l-200 -556h-130l-202 556h104l163 -466z" />
    <glyph glyph-name="w" unicode="w" horiz-adv-x="844" 
d="M714 557h104l-140 -557h-130l-126 459l-127 -459h-127l-142 557h104l109 -449l123 449h121l123 -448z" />
    <glyph glyph-name="wacute" unicode="&#x1e83;" horiz-adv-x="844" 
d="M599 786l-146 -141h-98l128 141h116zM714 557h104l-140 -557h-130l-126 459l-127 -459h-127l-142 557h104l109 -449l123 449h121l123 -448z" />
    <glyph glyph-name="wcircumflex" unicode="&#x175;" horiz-adv-x="844" 
d="M424 744l-101 -105h-92l146 148h92l148 -148h-91zM714 557h104l-140 -557h-130l-126 459l-127 -459h-127l-142 557h104l109 -449l123 449h121l123 -448z" />
    <glyph glyph-name="wdieresis" unicode="&#x1e85;" horiz-adv-x="844" 
d="M332 641c-36 0 -69 21 -68 61c1 37 31 62 68 62c36 0 65 -25 65 -62c0 -40 -31 -61 -65 -61zM511 641c-36 0 -69 21 -68 61c0 37 31 62 68 62c36 0 65 -25 65 -62c0 -40 -31 -61 -65 -61zM714 557h104l-140 -557h-130l-126 459l-127 -459h-127l-142 557h104l109 -449
l123 449h121l123 -448z" />
    <glyph glyph-name="wgrave" unicode="&#x1e81;" horiz-adv-x="844" 
d="M488 641h-66l-143 148h119zM714 557h104l-140 -557h-130l-126 459l-127 -459h-127l-142 557h104l109 -449l123 449h121l123 -448z" />
    <glyph glyph-name="x" unicode="x" horiz-adv-x="600" 
d="M575 0h-116l-161 211l-163 -211h-110l217 285l-204 271h115l148 -194l149 194h113l-205 -268z" />
    <glyph glyph-name="y" unicode="y" horiz-adv-x="655" 
d="M571 53c-1 0 -2 -1 -3 -1v-60c0 -152 -103 -222 -246 -222c-70 0 -138 12 -181 30l-19 91c52 -23 121 -34 179 -34c109 0 170 37 170 139v29c-45 -10 -91 -16 -147 -16c-159 0 -233 65 -233 210c0 115 -1 223 -1 337h99c0 -109 1 -211 1 -320c0 -101 51 -131 139 -131
c48 0 96 4 142 18v433h97v-501z" />
    <glyph glyph-name="yacute" unicode="&#xfd;" horiz-adv-x="655" 
d="M507 781l-146 -141h-98l128 141h116zM571 53c-1 0 -2 -1 -3 -1v-60c0 -152 -103 -222 -246 -222c-70 0 -138 12 -181 30l-19 91c52 -23 121 -34 179 -34c109 0 170 37 170 139v29c-45 -10 -91 -16 -147 -16c-159 0 -233 65 -233 210c0 115 -1 223 -1 337h99
c0 -109 1 -211 1 -320c0 -101 51 -131 139 -131c48 0 96 4 142 18v433h97v-501z" />
    <glyph glyph-name="ycircumflex" unicode="&#x177;" horiz-adv-x="655" 
d="M332 739l-101 -105h-92l146 148h92l148 -148h-91zM571 53c-1 0 -2 -1 -3 -1v-60c0 -152 -103 -222 -246 -222c-70 0 -138 12 -181 30l-19 91c52 -23 121 -34 179 -34c109 0 170 37 170 139v29c-45 -10 -91 -16 -147 -16c-159 0 -233 65 -233 210c0 115 -1 223 -1 337h99
c0 -109 1 -211 1 -320c0 -101 51 -131 139 -131c48 0 96 4 142 18v433h97v-501z" />
    <glyph glyph-name="ydieresis" unicode="&#xff;" horiz-adv-x="655" 
d="M240 636c-36 0 -69 21 -68 61c1 37 31 62 68 62c36 0 65 -25 65 -62c0 -40 -31 -61 -65 -61zM419 636c-36 0 -69 21 -68 61c0 37 31 62 68 62c36 0 65 -25 65 -62c0 -40 -31 -61 -65 -61zM571 53c-1 0 -2 -1 -3 -1v-60c0 -152 -103 -222 -246 -222c-70 0 -138 12 -181 30
l-19 91c52 -23 121 -34 179 -34c109 0 170 37 170 139v29c-45 -10 -91 -16 -147 -16c-159 0 -233 65 -233 210c0 115 -1 223 -1 337h99c0 -109 1 -211 1 -320c0 -101 51 -131 139 -131c48 0 96 4 142 18v433h97v-501z" />
    <glyph glyph-name="ygrave" unicode="&#x1ef3;" horiz-adv-x="655" 
d="M396 636h-66l-143 148h119zM571 53c-1 0 -2 -1 -3 -1v-60c0 -152 -103 -222 -246 -222c-70 0 -138 12 -181 30l-19 91c52 -23 121 -34 179 -34c109 0 170 37 170 139v29c-45 -10 -91 -16 -147 -16c-159 0 -233 65 -233 210c0 115 -1 223 -1 337h99c0 -109 1 -211 1 -320
c0 -101 51 -131 139 -131c48 0 96 4 142 18v433h97v-501z" />
    <glyph glyph-name="uni0233" unicode="&#x233;" horiz-adv-x="655" 
d="M478 707v-71h-296v71h296zM571 53c-1 0 -2 -1 -3 -1v-60c0 -152 -103 -222 -246 -222c-70 0 -138 12 -181 30l-19 91c52 -23 121 -34 179 -34c109 0 170 37 170 139v29c-45 -10 -91 -16 -147 -16c-159 0 -233 65 -233 210c0 115 -1 223 -1 337h99c0 -109 1 -211 1 -320
c0 -101 51 -131 139 -131c48 0 96 4 142 18v433h97v-501z" />
    <glyph glyph-name="z" unicode="z" horiz-adv-x="586" 
d="M181 91h347v-91h-470v86l340 380h-322v90h445v-83z" />
    <glyph glyph-name="zacute" unicode="&#x17a;" horiz-adv-x="586" 
d="M477 787l-146 -141h-98l128 141h116zM181 91h347v-91h-470v86l340 380h-322v90h445v-83z" />
    <glyph glyph-name="zcaron" unicode="&#x17e;" horiz-adv-x="586" 
d="M351 642h-100l-151 148h97l104 -106l102 106h97zM181 91h347v-91h-470v86l340 380h-322v90h445v-83z" />
    <glyph glyph-name="zdotaccent" unicode="&#x17c;" horiz-adv-x="586" 
d="M301 641c-37 0 -70 22 -70 64c0 38 31 64 70 64c38 0 69 -26 69 -64c0 -42 -33 -64 -69 -64zM181 91h347v-91h-470v86l340 380h-322v90h445v-83z" />
    <glyph glyph-name="ordfeminine" unicode="&#xaa;" horiz-adv-x="432" 
d="M219 770c117 0 173 -48 173 -147v-233c-36 -13 -106 -25 -165 -25c-119 0 -187 36 -187 123v1c0 79 65 117 175 117c29 -1 65 -3 106 -9v27c0 55 -33 86 -119 86c-38 0 -89 -8 -129 -26l14 61c33 15 83 25 132 25zM320 439v100c-9 2 -63 8 -92 8c-75 0 -116 -8 -116 -58
v-1c1 -51 41 -63 116 -63c26 0 70 5 92 14z" />
    <glyph glyph-name="ordmasculine" unicode="&#xba;" horiz-adv-x="485" 
d="M242 365c-121 0 -202 81 -202 203s81 204 202 204c122 0 203 -82 203 -204c0 -121 -81 -202 -203 -203zM242 449h1c67 0 112 48 112 119c0 72 -45 120 -112 120h-1c-67 0 -112 -48 -112 -120c0 -71 45 -119 112 -119z" />
    <glyph glyph-name="uni0394" unicode="&#x394;" horiz-adv-x="837" 
d="M11 0l357 795h101l357 -795h-815zM155 93h526l-263 583z" />
    <glyph glyph-name="uni03A9" unicode="&#x3a9;" horiz-adv-x="893" 
d="M627 201v-107h169v-94h-268v247c128 27 201 116 201 246v1c0 140 -113 234 -282 234s-284 -94 -284 -234v-1c0 -130 79 -219 202 -246v-247h-268v94h168v107c-125 53 -204 168 -204 298c0 199 153 325 385 325s386 -125 386 -325c0 -129 -79 -245 -205 -298z" />
    <glyph glyph-name="uni03BC" unicode="&#x3bc;" horiz-adv-x="706" 
d="M578 210c0 -88 38 -125 104 -125v-97c-77 0 -129 17 -162 54c-40 -37 -102 -54 -186 -54c-62 0 -109 10 -144 29v-237h-100v776h100v-341c0 -102 55 -130 144 -130s143 28 143 130c0 114 1 227 1 341h100v-346z" />
    <glyph glyph-name="pi" unicode="&#x3c0;" horiz-adv-x="806" 
d="M131 0v464h-75v92h691v-92h-83v-282c0 -72 15 -89 75 -89h15v-93h-28c-127 0 -162 33 -162 151v313h-333v-464h-100z" />
    <glyph glyph-name="uni0621" unicode="&#x621;" horiz-adv-x="487" 
d="M60 0v184c0 173 85 255 251 255h36v-97h-52c-89 0 -142 -43 -142 -144v-100h281v-98h-374z" />
    <glyph glyph-name="uni0627" unicode="&#x627;" horiz-adv-x="272" 
d="M87 0v811h98v-811h-98z" />
    <glyph glyph-name="uni0627.short" horiz-adv-x="272" 
d="M87 675h98v-659h-98v659z" />
    <glyph glyph-name="uniFE8E.short" horiz-adv-x="340" 
d="M185 98h175v-98h-273v691h98v-593z" />
    <glyph glyph-name="uni0623" unicode="&#x623;" horiz-adv-x="272" 
d="M119 828h91v-59h-149v72c0 61 37 102 101 102h21v-55h-27c-25 0 -37 -17 -37 -42v-18zM87 675h98v-659h-98v659z" />
    <glyph glyph-name="uni0625" unicode="&#x625;" horiz-adv-x="272" 
d="M87 0v811h98v-811h-98zM56 -239v72c0 61 38 102 102 102h29v-55h-35c-25 0 -37 -17 -37 -42v-18h100v-59h-159z" />
    <glyph glyph-name="uni0622" unicode="&#x622;" horiz-adv-x="272" 
d="M46 856v66h180v-66h-180zM87 0v811h98v-811h-98z" />
    <glyph glyph-name="uni0671" unicode="&#x671;" horiz-adv-x="272" 
d="M138 903c72 0 110 -34 110 -100v-68h-225v68c0 66 38 100 110 100h5zM178 794v14c0 26 -14 39 -40 39h-5c-27 0 -40 -13 -40 -39v-14h85zM87 675h98v-659h-98v659z" />
    <glyph glyph-name="uni066E" unicode="&#x66e;" horiz-adv-x="804" 
d="M639 556h98v-556h-387c-202 0 -296 98 -296 281v188h98v-178c0 -138 85 -193 218 -193h269v458z" />
    <glyph glyph-name="uni066E.ss01" horiz-adv-x="806" 
d="M640 556h98v-556h-455c-108 0 -186 24 -258 71l41 79c64 -38 128 -52 207 -52h367v458z" />
    <glyph glyph-name="uni066E.fina.ss01" horiz-adv-x="840" 
d="M738 98h122v-98h-577c-108 0 -186 24 -258 71l41 79c64 -38 128 -52 207 -52h367v458h98v-458z" />
    <glyph glyph-name="uni066E.medi.alt" horiz-adv-x="417" 
d="M437 98v-98h-437v98h160v458h98v-458h179z" />
    <glyph glyph-name="uni066E.init.alt" horiz-adv-x="360" 
d="M0 0v98h194v458h98v-556h-292z" />
    <glyph glyph-name="uni0628" unicode="&#x628;" horiz-adv-x="804" 
d="M639 556h98v-556h-387c-202 0 -296 98 -296 281v188h98v-178c0 -138 85 -193 218 -193h269v458zM441 -111c38 0 70 -26 70 -64c0 -43 -34 -66 -70 -66c-38 0 -71 23 -71 66c0 38 31 64 71 64z" />
    <glyph glyph-name="uni0628.ss01" horiz-adv-x="806" 
d="M640 556h98v-556h-455c-108 0 -186 24 -258 71l41 79c64 -38 128 -52 207 -52h367v458zM456 -111c38 0 70 -26 70 -64c0 -43 -34 -66 -70 -66c-38 0 -71 23 -71 66c0 38 31 64 71 64z" />
    <glyph glyph-name="uniFE90.ss01" horiz-adv-x="840" 
d="M738 98h122v-98h-577c-108 0 -186 24 -258 71l41 79c64 -38 128 -52 207 -52h367v458h98v-458zM456 -111c38 0 70 -26 70 -64c0 -43 -34 -66 -70 -66c-38 0 -71 23 -71 66c0 38 31 64 71 64z" />
    <glyph glyph-name="uni067E" unicode="&#x67e;" horiz-adv-x="804" 
d="M639 556h98v-556h-387c-202 0 -296 98 -296 281v188h98v-178c0 -138 85 -193 218 -193h269v458zM418 -182c0 -40 -32 -63 -68 -63s-68 23 -68 63c0 37 30 63 68 63c39 0 68 -26 68 -63zM531 -119c39 0 68 -26 68 -63c0 -40 -31 -63 -68 -63c-36 0 -68 23 -68 63
c0 37 30 63 68 63zM441 -258c35 0 61 -23 61 -56c0 -36 -27 -57 -61 -57c-31 0 -61 21 -61 57c0 33 27 56 61 56z" />
    <glyph glyph-name="uniFB57.ss01" horiz-adv-x="840" 
d="M738 98h122v-98h-577c-108 0 -186 24 -258 71l41 79c64 -38 128 -52 207 -52h367v458h98v-458zM433 -182c0 -40 -32 -63 -68 -63s-68 23 -68 63c0 37 30 63 68 63c39 0 68 -26 68 -63zM546 -119c39 0 68 -26 68 -63c0 -40 -31 -63 -68 -63c-36 0 -68 23 -68 63
c0 37 30 63 68 63zM456 -258c35 0 61 -23 61 -56c0 -36 -27 -57 -61 -57c-31 0 -61 21 -61 57c0 33 27 56 61 56z" />
    <glyph glyph-name="uni067E.ss01" horiz-adv-x="806" 
d="M640 556h98v-556h-455c-108 0 -186 24 -258 71l41 79c64 -38 128 -52 207 -52h367v458zM433 -182c0 -40 -32 -63 -68 -63s-68 23 -68 63c0 37 30 63 68 63c39 0 68 -26 68 -63zM546 -119c39 0 68 -26 68 -63c0 -40 -31 -63 -68 -63c-36 0 -68 23 -68 63c0 37 30 63 68 63
zM456 -258c35 0 61 -23 61 -56c0 -36 -27 -57 -61 -57c-31 0 -61 21 -61 57c0 33 27 56 61 56z" />
    <glyph glyph-name="uni062A" unicode="&#x62a;" horiz-adv-x="804" 
d="M315 624c-37 0 -70 24 -70 65c0 38 31 65 70 65c40 0 70 -27 70 -65c0 -41 -32 -65 -70 -65zM500 624c-37 0 -70 24 -70 65c0 38 31 65 70 65c40 0 70 -27 70 -65c0 -41 -32 -65 -70 -65zM639 556h98v-556h-387c-202 0 -296 98 -296 281v188h98v-178
c0 -138 85 -193 218 -193h269v458z" />
    <glyph glyph-name="uni062A.ss01" horiz-adv-x="806" 
d="M640 556h98v-556h-455c-108 0 -186 24 -258 71l41 79c64 -38 128 -52 207 -52h367v458zM266 347c-37 0 -70 24 -70 65c0 38 31 65 70 65c40 0 70 -27 70 -65c0 -41 -32 -65 -70 -65zM451 347c-37 0 -70 24 -70 65c0 38 31 65 70 65c40 0 70 -27 70 -65
c0 -41 -32 -65 -70 -65z" />
    <glyph glyph-name="uniFE96.ss01" horiz-adv-x="840" 
d="M738 98h122v-98h-577c-108 0 -186 24 -258 71l41 79c64 -38 128 -52 207 -52h367v458h98v-458zM266 347c-37 0 -70 24 -70 65c0 38 31 65 70 65c40 0 70 -27 70 -65c0 -41 -32 -65 -70 -65zM451 347c-37 0 -70 24 -70 65c0 38 31 65 70 65c40 0 70 -27 70 -65
c0 -41 -32 -65 -70 -65z" />
    <glyph glyph-name="uni062B" unicode="&#x62b;" horiz-adv-x="804" 
d="M408 761c-31 0 -61 21 -61 57c0 33 27 56 61 56c35 0 61 -23 61 -56c0 -36 -28 -57 -61 -57zM317 624c-36 0 -68 23 -68 63c0 37 30 63 68 63c39 0 68 -26 68 -63c0 -40 -32 -63 -68 -63zM430 687c0 37 30 63 68 63c39 0 68 -26 68 -63c0 -40 -31 -63 -68 -63
c-36 0 -68 23 -68 63zM639 556h98v-556h-387c-202 0 -296 98 -296 281v188h98v-178c0 -138 85 -193 218 -193h269v458z" />
    <glyph glyph-name="uni062B.ss01" horiz-adv-x="806" 
d="M359 484c-31 0 -61 21 -61 57c0 33 27 56 61 56c35 0 61 -23 61 -56c0 -36 -28 -57 -61 -57zM640 556h98v-556h-455c-108 0 -186 24 -258 71l41 79c64 -38 128 -52 207 -52h367v458zM268 347c-36 0 -68 23 -68 63c0 37 30 63 68 63c39 0 68 -26 68 -63
c0 -40 -32 -63 -68 -63zM381 410c0 37 30 63 68 63c39 0 68 -26 68 -63c0 -40 -31 -63 -68 -63c-36 0 -68 23 -68 63z" />
    <glyph glyph-name="uniFE9A.ss01" horiz-adv-x="840" 
d="M359 484c-31 0 -61 21 -61 57c0 33 27 56 61 56c35 0 61 -23 61 -56c0 -36 -28 -57 -61 -57zM738 98h122v-98h-577c-108 0 -186 24 -258 71l41 79c64 -38 128 -52 207 -52h367v458h98v-458zM268 347c-36 0 -68 23 -68 63c0 37 30 63 68 63c39 0 68 -26 68 -63
c0 -40 -32 -63 -68 -63zM381 410c0 37 30 63 68 63c39 0 68 -26 68 -63c0 -40 -31 -63 -68 -63c-36 0 -68 23 -68 63z" />
    <glyph glyph-name="uni0679" unicode="&#x679;" horiz-adv-x="804" 
d="M521 661v-69h-226v203h74v-40h53c60 0 99 -37 99 -94zM447 651v18c0 20 -11 31 -32 31h-46v-49h78zM639 556h98v-556h-387c-202 0 -296 98 -296 281v188h98v-178c0 -138 85 -193 218 -193h269v458z" />
    <glyph glyph-name="uni0679.ss01" horiz-adv-x="806" 
d="M640 556h98v-556h-455c-108 0 -186 24 -258 71l41 79c64 -38 128 -52 207 -52h367v458zM472 384v-69h-226v203h74v-40h53c60 0 99 -37 99 -94zM398 374v18c0 20 -11 31 -32 31h-46v-49h78z" />
    <glyph glyph-name="uniFB67.ss01" horiz-adv-x="840" 
d="M738 98h122v-98h-577c-108 0 -186 24 -258 71l41 79c64 -38 128 -52 207 -52h367v458h98v-458zM472 384v-69h-226v203h74v-40h53c60 0 99 -37 99 -94zM398 374v18c0 20 -11 31 -32 31h-46v-49h78z" />
    <glyph glyph-name="uni062C" unicode="&#x62c;" horiz-adv-x="618" 
d="M297 571c173 0 267 -112 267 -298c0 -88 -20 -198 -42 -273h-230c-63 0 -95 -24 -122 -90l-56 -139l-89 34l62 153c40 102 94 140 196 140h165c14 57 23 127 23 180c0 121 -69 195 -181 195c-57 0 -98 -12 -160 -49l-35 90c72 38 133 57 202 57zM347 -133
c38 0 70 -26 70 -65c0 -43 -34 -66 -70 -66c-38 0 -71 23 -71 66c0 39 31 65 71 65z" />
    <glyph glyph-name="uniFE9F.001" horiz-adv-x="577" 
d="M256 571c173 0 267 -112 267 -298c0 -88 -20 -198 -42 -273h-481v98h407c14 57 23 127 23 180c0 121 -69 195 -181 195c-57 0 -98 -12 -160 -49l-35 90c72 38 133 57 202 57zM269 -111c38 0 70 -26 70 -64c0 -43 -34 -66 -70 -66c-38 0 -71 23 -71 66c0 38 31 64 71 64z
" />
    <glyph glyph-name="uni0686" unicode="&#x686;" horiz-adv-x="672" 
d="M351 571c173 0 267 -112 267 -298c0 -88 -20 -198 -42 -273h-260c-81 0 -130 -29 -172 -96l-42 -64l-77 56l51 75c59 89 125 127 231 127h195c14 57 23 127 23 180c0 121 -69 195 -181 195c-57 0 -98 -12 -160 -49l-35 90c72 38 133 57 202 57zM367 -187
c0 -40 -32 -63 -68 -63s-68 23 -68 63c0 37 30 63 68 63c39 0 68 -26 68 -63zM480 -124c39 0 68 -26 68 -63c0 -40 -31 -63 -68 -63c-36 0 -68 23 -68 63c0 37 30 63 68 63zM390 -263c35 0 61 -23 61 -56c0 -36 -27 -57 -61 -57c-31 0 -61 21 -61 57c0 33 27 56 61 56z" />
    <glyph glyph-name="uni062D" unicode="&#x62d;" horiz-adv-x="618" 
d="M297 571c173 0 267 -112 267 -298c0 -88 -20 -198 -42 -273h-230c-63 0 -95 -24 -122 -90l-56 -139l-89 34l62 153c40 102 94 140 196 140h165c14 57 23 127 23 180c0 121 -69 195 -181 195c-57 0 -98 -12 -160 -49l-35 90c72 38 133 57 202 57z" />
    <glyph glyph-name="uni062D.alt" horiz-adv-x="672" 
d="M351 571c173 0 267 -112 267 -298c0 -88 -20 -198 -42 -273h-260c-81 0 -130 -29 -172 -96l-42 -64l-77 56l51 75c59 89 125 127 231 127h195c14 57 23 127 23 180c0 121 -69 195 -181 195c-57 0 -98 -12 -160 -49l-35 90c72 38 133 57 202 57z" />
    <glyph glyph-name="uniFEA2.alt" horiz-adv-x="699" 
d="M599 98h120v-98h-403c-81 0 -130 -29 -172 -96l-42 -64l-77 56l51 75c59 89 125 127 231 127h195c14 57 23 127 23 180c0 121 -69 195 -181 195c-57 0 -98 -12 -160 -49l-35 90c72 38 133 57 202 57c173 0 267 -112 267 -298c0 -54 -8 -117 -19 -175z" />
    <glyph glyph-name="uni062E" unicode="&#x62e;" horiz-adv-x="618" 
d="M317 688c-38 0 -71 23 -71 65c0 39 31 65 71 65c38 0 70 -26 70 -65c0 -42 -34 -65 -70 -65zM297 571c173 0 267 -112 267 -298c0 -88 -20 -198 -42 -273h-230c-63 0 -95 -24 -122 -90l-56 -139l-89 34l62 153c40 102 94 140 196 140h165c14 57 23 127 23 180
c0 121 -69 195 -181 195c-57 0 -98 -12 -160 -49l-35 90c72 38 133 57 202 57z" />
    <glyph glyph-name="uni062F" unicode="&#x62f;" horiz-adv-x="538" 
d="M28 0v98h360v211c0 102 -51 149 -145 149h-38v98h24c172 0 252 -87 252 -255v-301h-453z" />
    <glyph glyph-name="uni0630" unicode="&#x630;" horiz-adv-x="538" 
d="M243 673c-38 0 -71 23 -71 65c0 39 31 65 71 65c38 0 70 -26 70 -65c0 -42 -34 -65 -70 -65zM28 0v98h360v211c0 102 -51 149 -145 149h-38v98h24c172 0 252 -87 252 -255v-301h-453z" />
    <glyph glyph-name="uni0688" unicode="&#x688;" horiz-adv-x="538" 
d="M129 634v203h74v-40h53c60 0 99 -37 99 -94v-69h-226zM203 693h78v18c0 20 -11 31 -32 31h-46v-49zM28 0v98h360v211c0 102 -51 149 -145 149h-38v98h24c172 0 252 -87 252 -255v-301h-453z" />
    <glyph glyph-name="uni0631" unicode="&#x631;" horiz-adv-x="320" 
d="M68 -220c-26 0 -53 4 -78 10l-8 85c30 -4 52 -6 77 -6c59 0 96 29 96 111v576h98v-561c0 -165 -62 -215 -185 -215z" />
    <glyph glyph-name="uni0632" unicode="&#x632;" horiz-adv-x="320" 
d="M205 673c-38 0 -71 23 -71 65c0 39 31 65 71 65c38 0 70 -26 70 -65c0 -42 -34 -65 -70 -65zM68 -220c-26 0 -53 4 -78 10l-8 85c30 -4 52 -6 77 -6c59 0 96 29 96 111v576h98v-561c0 -165 -62 -215 -185 -215z" />
    <glyph glyph-name="uni0691" unicode="&#x691;" horiz-adv-x="320" 
d="M91 634v203h74v-40h53c60 0 99 -37 99 -94v-69h-226zM165 693h78v18c0 20 -11 31 -32 31h-46v-49zM68 -220c-26 0 -53 4 -78 10l-8 85c30 -4 52 -6 77 -6c59 0 96 29 96 111v576h98v-561c0 -165 -62 -215 -185 -215z" />
    <glyph glyph-name="uni0698" unicode="&#x698;" horiz-adv-x="320" 
d="M204 803c-31 0 -61 21 -61 57c0 33 27 56 61 56c35 0 61 -23 61 -56c0 -36 -28 -57 -61 -57zM113 666c-36 0 -68 23 -68 63c0 37 30 63 68 63c39 0 68 -26 68 -63c0 -40 -32 -63 -68 -63zM294 666c-36 0 -68 23 -68 63c0 37 30 63 68 63c39 0 68 -26 68 -63
c0 -40 -31 -63 -68 -63zM68 -220c-26 0 -53 4 -78 10l-8 85c30 -4 52 -6 77 -6c59 0 96 29 96 111v576h98v-561c0 -165 -62 -215 -185 -215z" />
    <glyph glyph-name="uni0633" unicode="&#x633;" horiz-adv-x="1387" 
d="M1231 563h98v-309c0 -176 -82 -264 -249 -264c-98 0 -178 46 -205 123c-33 -72 -101 -113 -198 -113h-102v-125h-225c-193 0 -296 98 -296 277v336h99v-324c0 -138 84 -191 212 -191h112v515h98v-390h101c82 0 157 46 157 151v239h98v-252c0 -91 59 -147 149 -147
c95 0 151 52 151 156v318z" />
    <glyph glyph-name="uni0633.ss01" horiz-adv-x="1457" 
d="M1301 563h98v-309c0 -176 -82 -264 -249 -264c-98 0 -178 46 -205 123c-33 -72 -101 -113 -198 -113h-101v-125h-374c-102 0 -176 22 -247 67l32 83c64 -37 129 -52 208 -52h282v515h99v-390h100c82 0 157 46 157 151v239h98v-252c0 -91 59 -147 149 -147
c95 0 151 52 151 156v318z" />
    <glyph glyph-name="uniFEB2.ss01" horiz-adv-x="1544" 
d="M1400 267c0 -116 57 -169 164 -169v-98c-96 0 -166 36 -196 100c-38 -73 -110 -110 -218 -110c-98 0 -178 46 -205 123c-33 -72 -101 -113 -198 -113h-101v-125h-374c-102 0 -176 22 -247 67l32 83c64 -37 129 -52 208 -52h282v515h99v-390h100c82 0 157 46 157 151v239
h98v-252c0 -91 59 -147 149 -147c95 0 151 52 151 156v318h98v-299z" />
    <glyph glyph-name="uni0634" unicode="&#x634;" horiz-adv-x="1387" 
d="M883 735c-31 0 -61 21 -61 57c0 33 27 56 61 56c35 0 61 -23 61 -56c0 -36 -28 -57 -61 -57zM792 598c-36 0 -68 23 -68 63c0 37 30 63 68 63c39 0 68 -26 68 -63c0 -40 -32 -63 -68 -63zM905 661c0 37 30 63 68 63c39 0 68 -26 68 -63c0 -40 -31 -63 -68 -63
c-36 0 -68 23 -68 63zM1231 563h98v-309c0 -176 -82 -264 -249 -264c-98 0 -178 46 -205 123c-33 -72 -101 -113 -198 -113h-102v-125h-225c-193 0 -296 98 -296 277v336h99v-324c0 -138 84 -191 212 -191h112v515h98v-390h101c82 0 157 46 157 151v239h98v-252
c0 -91 59 -147 149 -147c95 0 151 52 151 156v318z" />
    <glyph glyph-name="uni0634.ss01" horiz-adv-x="1457" 
d="M953 735c-31 0 -61 21 -61 57c0 33 27 56 61 56c35 0 61 -23 61 -56c0 -36 -28 -57 -61 -57zM862 598c-36 0 -68 23 -68 63c0 37 30 63 68 63c39 0 68 -26 68 -63c0 -40 -32 -63 -68 -63zM975 661c0 37 30 63 68 63c39 0 68 -26 68 -63c0 -40 -31 -63 -68 -63
c-36 0 -68 23 -68 63zM1301 563h98v-309c0 -176 -82 -264 -249 -264c-98 0 -178 46 -205 123c-33 -72 -101 -113 -198 -113h-101v-125h-374c-102 0 -176 22 -247 67l32 83c64 -37 129 -52 208 -52h282v515h99v-390h100c82 0 157 46 157 151v239h98v-252
c0 -91 59 -147 149 -147c95 0 151 52 151 156v318z" />
    <glyph glyph-name="uniFEB6.ss01" horiz-adv-x="1544" 
d="M953 735c-31 0 -61 21 -61 57c0 33 27 56 61 56c35 0 61 -23 61 -56c0 -36 -28 -57 -61 -57zM862 598c-36 0 -68 23 -68 63c0 37 30 63 68 63c39 0 68 -26 68 -63c0 -40 -32 -63 -68 -63zM975 661c0 37 30 63 68 63c39 0 68 -26 68 -63c0 -40 -31 -63 -68 -63
c-36 0 -68 23 -68 63zM1400 267c0 -116 57 -169 164 -169v-98c-96 0 -166 36 -196 100c-38 -73 -110 -110 -218 -110c-98 0 -178 46 -205 123c-33 -72 -101 -113 -198 -113h-101v-125h-374c-102 0 -176 22 -247 67l32 83c64 -37 129 -52 208 -52h282v515h99v-390h100
c82 0 157 46 157 151v239h98v-252c0 -91 59 -147 149 -147c95 0 151 52 151 156v318h98v-299z" />
    <glyph glyph-name="uni0635" unicode="&#x635;" horiz-adv-x="1173" 
d="M821 556c192 0 295 -99 294 -280l-1 -276h-539v-125h-225c-193 0 -296 98 -296 277v336h99v-324c0 -138 84 -191 212 -191h112v637h98v-54h246zM1016 292c1 116 -74 166 -187 166h-254v-360h441v194z" />
    <glyph glyph-name="uni0635.ss01" horiz-adv-x="1243" 
d="M892 556c192 0 295 -99 294 -280l-1 -276h-539v-125h-374c-102 0 -176 22 -247 67l32 83c64 -37 129 -52 208 -52h282v515h1v122h98v-54h246zM1087 292c1 116 -74 166 -187 166h-254v-360h441v194z" />
    <glyph glyph-name="uniFEBA.ss01" horiz-adv-x="1287" 
d="M1185 98h122v-98h-661v-125h-374c-102 0 -176 22 -247 67l32 83c64 -37 129 -52 208 -52h282v515h1v122h98v-54h246c192 0 295 -99 294 -280zM1087 292c1 116 -74 166 -187 166h-254v-360h441v194z" />
    <glyph glyph-name="uni0636" unicode="&#x636;" horiz-adv-x="1173" 
d="M816 673c-38 0 -71 23 -71 65c0 39 31 65 71 65c38 0 70 -26 70 -65c0 -42 -34 -65 -70 -65zM821 556c192 0 295 -99 294 -280l-1 -276h-539v-125h-225c-193 0 -296 98 -296 277v336h99v-324c0 -138 84 -191 212 -191h112v637h98v-54h246zM1016 292
c1 116 -74 166 -187 166h-254v-360h441v194z" />
    <glyph glyph-name="uni0636.ss01" horiz-adv-x="1243" 
d="M886 673c-38 0 -71 23 -71 65c0 39 31 65 71 65c38 0 70 -26 70 -65c0 -42 -34 -65 -70 -65zM892 556c192 0 295 -99 294 -280l-1 -276h-539v-125h-374c-102 0 -176 22 -247 67l32 83c64 -37 129 -52 208 -52h282v515h1v122h98v-54h246zM1087 292c1 116 -74 166 -187 166
h-254v-360h441v194z" />
    <glyph glyph-name="uniFEBE.ss01" horiz-adv-x="1287" 
d="M886 673c-38 0 -71 23 -71 65c0 39 31 65 71 65c38 0 70 -26 70 -65c0 -42 -34 -65 -70 -65zM1185 98h122v-98h-661v-125h-374c-102 0 -176 22 -247 67l32 83c64 -37 129 -52 208 -52h282v515h1v122h98v-54h246c192 0 295 -99 294 -280zM1087 292c1 116 -74 166 -187 166
h-254v-360h441v194z" />
    <glyph glyph-name="uni0637" unicode="&#x637;" horiz-adv-x="851" 
d="M499 556c192 0 295 -99 294 -280l-1 -276h-765l20 98h108v713h98v-255h246zM694 292c1 116 -74 166 -187 166h-254v-360h441v194z" />
    <glyph glyph-name="uni0638" unicode="&#x638;" horiz-adv-x="851" 
d="M499 556c192 0 295 -99 294 -280l-1 -276h-765l20 98h108v713h98v-255h246zM505 673c-38 0 -71 23 -71 65c0 39 31 65 71 65c38 0 70 -26 70 -65c0 -42 -34 -65 -70 -65zM694 292c1 116 -74 166 -187 166h-254v-360h441v194z" />
    <glyph glyph-name="uni0639" unicode="&#x639;" horiz-adv-x="687" 
d="M633 98v-98h-338c-63 0 -95 -24 -122 -90l-56 -139l-89 34l62 153c28 71 62 110 114 128c-37 92 -54 164 -54 222c0 168 104 263 258 263c57 0 125 -17 203 -51l-33 -91c-65 30 -114 44 -163 44c-102 0 -172 -67 -172 -181c0 -58 25 -129 68 -194h322z" />
    <glyph glyph-name="uni063A" unicode="&#x63a;" horiz-adv-x="687" 
d="M411 688c-38 0 -71 23 -71 65c0 39 31 65 71 65c38 0 70 -26 70 -65c0 -42 -34 -65 -70 -65zM633 98v-98h-338c-63 0 -95 -24 -122 -90l-56 -139l-89 34l62 153c28 71 62 110 114 128c-37 92 -54 164 -54 222c0 168 104 263 258 263c57 0 125 -17 203 -51l-33 -91
c-65 30 -114 44 -163 44c-102 0 -172 -67 -172 -181c0 -58 25 -129 68 -194h322z" />
    <glyph glyph-name="uni0641" unicode="&#x641;" horiz-adv-x="995" 
d="M740 673c-38 0 -71 23 -71 65c0 39 31 65 71 65c38 0 70 -26 70 -65c0 -42 -34 -65 -70 -65zM928 556v-499l-1 -11v-46h-4h-153h-420c-202 0 -296 98 -296 281v188h98v-178c0 -138 85 -193 218 -193h156c-41 46 -63 107 -63 178v1c0 168 127 279 320 279h145zM763 98h67
v361h-67c-122 0 -207 -70 -207 -182v-1c0 -108 86 -178 207 -178z" />
    <glyph glyph-name="uni0641.ss01" horiz-adv-x="936" 
d="M716 673c-38 0 -71 23 -71 65c0 39 31 65 71 65c38 0 70 -26 70 -65c0 -42 -34 -65 -70 -65zM724 556h145v-556h-5h-153h-428c-108 0 -186 24 -258 71l41 79c64 -38 128 -52 207 -52h194c-41 46 -63 107 -63 178v1c0 168 127 279 320 279zM704 98h67v361h-67
c-122 0 -207 -70 -207 -182v-1c0 -108 86 -178 207 -178z" />
    <glyph glyph-name="uniFED2.ss01" horiz-adv-x="971" 
d="M716 673c-38 0 -71 23 -71 65c0 39 31 65 71 65c38 0 70 -26 70 -65c0 -42 -34 -65 -70 -65zM869 98h122v-98h-127h-5h-148h-428c-108 0 -186 24 -258 71l41 79c64 -38 128 -52 207 -52h194c-41 46 -63 107 -63 178v1c0 168 127 279 320 279h145v-458zM704 98h67v361h-67
c-122 0 -207 -70 -207 -182v-1c0 -108 86 -178 207 -178z" />
    <glyph glyph-name="uni06A4" unicode="&#x6a4;" horiz-adv-x="995" 
d="M739 803c-31 0 -61 21 -61 57c0 33 27 56 61 56c35 0 61 -23 61 -56c0 -36 -28 -57 -61 -57zM648 666c-36 0 -68 23 -68 63c0 37 30 63 68 63c39 0 68 -26 68 -63c0 -40 -32 -63 -68 -63zM761 729c0 37 30 63 68 63c39 0 68 -26 68 -63c0 -40 -31 -63 -68 -63
c-36 0 -68 23 -68 63zM928 556v-499l-1 -11v-46h-4h-153h-420c-202 0 -296 98 -296 281v188h98v-178c0 -138 85 -193 218 -193h156c-41 46 -63 107 -63 178v1c0 168 127 279 320 279h145zM763 98h67v361h-67c-122 0 -207 -70 -207 -182v-1c0 -108 86 -178 207 -178z" />
    <glyph glyph-name="uni06A4.ss01" horiz-adv-x="936" 
d="M715 803c-31 0 -61 21 -61 57c0 33 27 56 61 56c35 0 61 -23 61 -56c0 -36 -28 -57 -61 -57zM624 666c-36 0 -68 23 -68 63c0 37 30 63 68 63c39 0 68 -26 68 -63c0 -40 -32 -63 -68 -63zM737 729c0 37 30 63 68 63c39 0 68 -26 68 -63c0 -40 -31 -63 -68 -63
c-36 0 -68 23 -68 63zM404 277c0 168 127 279 320 279h145v-556h-5h-153h-428c-108 0 -186 24 -258 71l41 79c64 -38 128 -52 207 -52h194c-41 46 -63 107 -63 178v1zM771 98v361h-67c-122 0 -207 -70 -207 -182v-1c0 -108 86 -178 207 -178h67z" />
    <glyph glyph-name="uniFB6B.ss01" horiz-adv-x="1029" 
d="M739 803c-31 0 -61 21 -61 57c0 33 27 56 61 56c35 0 61 -23 61 -56c0 -36 -28 -57 -61 -57zM648 666c-36 0 -68 23 -68 63c0 37 30 63 68 63c39 0 68 -26 68 -63c0 -40 -32 -63 -68 -63zM761 729c0 37 30 63 68 63c39 0 68 -26 68 -63c0 -40 -31 -63 -68 -63
c-36 0 -68 23 -68 63zM928 98h121v-98h-126h-6h-147h-420c-202 0 -296 98 -296 281v188h98v-178c0 -138 85 -193 218 -193h156c-41 46 -63 107 -63 178v1c0 168 127 279 320 279h145v-458zM763 98h67v361h-67c-122 0 -207 -70 -207 -182v-1c0 -108 86 -178 207 -178z" />
    <glyph glyph-name="uni06A1" unicode="&#x6a1;" horiz-adv-x="995" 
d="M928 556v-499l-1 -11v-46h-4h-153h-420c-202 0 -296 98 -296 281v188h98v-178c0 -138 85 -193 218 -193h156c-41 46 -63 107 -63 178v1c0 168 127 279 320 279h145zM763 98h67v361h-67c-122 0 -207 -70 -207 -182v-1c0 -108 86 -178 207 -178z" />
    <glyph glyph-name="uni06A1.ss01" horiz-adv-x="936" 
d="M724 556h145v-556h-5h-153h-428c-108 0 -186 24 -258 71l41 79c64 -38 128 -52 207 -52h194c-41 46 -63 107 -63 178v1c0 168 127 279 320 279zM704 98h67v361h-67c-122 0 -207 -70 -207 -182v-1c0 -108 86 -178 207 -178z" />
    <glyph glyph-name="uni06A1.fina.ss01" horiz-adv-x="971" 
d="M869 98h122v-98h-127h-5h-148h-428c-108 0 -186 24 -258 71l41 79c64 -38 128 -52 207 -52h194c-41 46 -63 107 -63 178v1c0 168 127 279 320 279h145v-458zM704 98h67v361h-67c-122 0 -207 -70 -207 -182v-1c0 -108 86 -178 207 -178z" />
    <glyph glyph-name="uni066F" unicode="&#x66f;" horiz-adv-x="843" 
d="M630 556h145v-776h-425c-199 0 -296 95 -296 281v220h98v-210c0 -140 88 -193 218 -193h307v137h-60c-183 0 -307 97 -307 261v1c0 168 127 279 320 279zM677 98v361h-67c-122 0 -207 -70 -207 -182v-1c0 -108 86 -178 207 -178h67z" />
    <glyph glyph-name="uni066F.ss01" horiz-adv-x="826" 
d="M759 556v-541h-1v-235h-475c-108 0 -186 24 -258 71l41 79c64 -38 128 -52 207 -52h387v137h-59c-183 0 -307 97 -307 261v1c0 168 127 279 320 279h145zM594 98h66v288h1v73h-67c-122 0 -207 -70 -207 -182v-1c0 -108 86 -178 207 -178z" />
    <glyph glyph-name="uni066F.fina.ss01" horiz-adv-x="861" 
d="M881 98v-98h-123v-220h-475c-108 0 -186 24 -258 71l41 79c64 -38 128 -52 207 -52h387v137h-59c-183 0 -307 97 -307 261v1c0 168 127 279 320 279h145v-458h122zM594 98h66v288h1v73h-67c-122 0 -207 -70 -207 -182v-1c0 -108 86 -178 207 -178z" />
    <glyph glyph-name="uni0642" unicode="&#x642;" horiz-adv-x="843" 
d="M513 666c-37 0 -70 24 -70 65c0 38 31 65 70 65c40 0 70 -27 70 -65c0 -41 -32 -65 -70 -65zM698 666c-37 0 -70 24 -70 65c0 38 31 65 70 65c40 0 70 -27 70 -65c0 -41 -32 -65 -70 -65zM630 556h145v-776h-425c-199 0 -296 95 -296 281v220h98v-210
c0 -140 88 -193 218 -193h307v137h-60c-183 0 -307 97 -307 261v1c0 168 127 279 320 279zM677 98v361h-67c-122 0 -207 -70 -207 -182v-1c0 -108 86 -178 207 -178h67z" />
    <glyph glyph-name="uni0642.ss01" horiz-adv-x="826" 
d="M477 666c-37 0 -70 24 -70 65c0 38 31 65 70 65c40 0 70 -27 70 -65c0 -41 -32 -65 -70 -65zM662 666c-37 0 -70 24 -70 65c0 38 31 65 70 65c40 0 70 -27 70 -65c0 -41 -32 -65 -70 -65zM759 556v-541h-1v-235h-475c-108 0 -186 24 -258 71l41 79
c64 -38 128 -52 207 -52h387v137h-59c-183 0 -307 97 -307 261v1c0 168 127 279 320 279h145zM594 98h66v288h1v73h-67c-122 0 -207 -70 -207 -182v-1c0 -108 86 -178 207 -178z" />
    <glyph glyph-name="uniFED6.ss01" horiz-adv-x="861" 
d="M477 666c-37 0 -70 24 -70 65c0 38 31 65 70 65c40 0 70 -27 70 -65c0 -41 -32 -65 -70 -65zM662 666c-37 0 -70 24 -70 65c0 38 31 65 70 65c40 0 70 -27 70 -65c0 -41 -32 -65 -70 -65zM881 98v-98h-123v-220h-475c-108 0 -186 24 -258 71l41 79
c64 -38 128 -52 207 -52h387v137h-59c-183 0 -307 97 -307 261v1c0 168 127 279 320 279h145v-458h122zM594 98h66v288h1v73h-67c-122 0 -207 -70 -207 -182v-1c0 -108 86 -178 207 -178z" />
    <glyph glyph-name="uni0643" unicode="&#x643;" horiz-adv-x="824" 
d="M639 811h98v-811h-387c-202 0 -296 98 -296 281v188h98v-178c0 -138 85 -193 218 -193h269v713zM514 538v-76h-210v116c0 68 42 110 110 110h63v-58h-57c-33 0 -51 -17 -51 -50v-42h145z" />
    <glyph glyph-name="uni0643.ss01" horiz-adv-x="824" 
d="M639 811h98v-811h-454c-108 0 -186 24 -258 71l41 79c64 -38 128 -52 207 -52h366v713zM483 433v-76h-210v116c0 68 42 110 110 110h63v-58h-57c-33 0 -51 -17 -51 -50v-42h145z" />
    <glyph glyph-name="uniFEDA.ss01" horiz-adv-x="839" 
d="M737 98h122v-98h-576c-108 0 -186 24 -258 71l41 79c64 -38 128 -52 207 -52h366v713h98v-713zM483 433v-76h-210v116c0 68 42 110 110 110h63v-58h-57c-33 0 -51 -17 -51 -50v-42h145z" />
    <glyph glyph-name="uni06A9" unicode="&#x6a9;" horiz-adv-x="909" 
d="M600 508c167 0 251 -83 251 -255v-253h-501c-202 0 -296 98 -296 281v188h98v-178c0 -138 85 -193 218 -193h382v169c0 97 -53 142 -141 142h-236c-16 23 -32 57 -33 98l156 305h120l-166 -304h148z" />
    <glyph glyph-name="uni06A9.ss01" horiz-adv-x="894" 
d="M586 508c166 0 251 -83 251 -255v-253h-554c-108 0 -186 24 -258 71l41 79c64 -38 128 -52 207 -52h464v169c0 97 -53 142 -141 142h-276c-16 23 -31 57 -33 98l156 304h120l-166 -303h189z" />
    <glyph glyph-name="uniFB8F.ss01" horiz-adv-x="939" 
d="M837 98h122v-98h-676c-108 0 -186 24 -258 71l41 79c64 -38 128 -52 207 -52h464v169c0 97 -53 142 -141 142h-276c-16 23 -31 57 -33 98l156 304h120l-166 -303h189c166 0 251 -83 251 -255v-155z" />
    <glyph glyph-name="uni06AF" unicode="&#x6af;" horiz-adv-x="909" 
d="M600 508c167 0 251 -83 251 -255v-253h-501c-202 0 -296 98 -296 281v188h98v-178c0 -138 85 -193 218 -193h382v169c0 97 -53 142 -141 142h-236c-16 23 -32 57 -33 98l156 305h120l-166 -304h148zM422 812l-166 -312l-99 -1l167 313h98z" />
    <glyph glyph-name="uni06AF.ss01" horiz-adv-x="894" 
d="M381 812l-166 -312l-99 -1l167 313h98zM586 508c166 0 251 -83 251 -255v-253h-554c-108 0 -186 24 -258 71l41 79c64 -38 128 -52 207 -52h464v169c0 97 -53 142 -141 142h-276c-16 23 -31 57 -33 98l156 304h120l-166 -303h189z" />
    <glyph glyph-name="uniFB93.ss01" horiz-adv-x="939" 
d="M381 812l-166 -312l-99 -1l167 313h98zM837 98h122v-98h-676c-108 0 -186 24 -258 71l41 79c64 -38 128 -52 207 -52h464v169c0 97 -53 142 -141 142h-276c-16 23 -31 57 -33 98l156 304h120l-166 -303h189c166 0 251 -83 251 -255v-155z" />
    <glyph glyph-name="uni06AA" unicode="&#x6aa;" horiz-adv-x="909" 
d="M600 508c167 0 251 -83 251 -255v-253h-501c-202 0 -296 98 -296 281v188h98v-178c0 -138 85 -193 218 -193h382v169c0 97 -53 142 -141 142h-236c-16 23 -32 57 -33 98l156 305h120l-166 -304h148z" />
    <glyph glyph-name="uni0644" unicode="&#x644;" horiz-adv-x="662" 
d="M477 811h98v-936h-225c-193 0 -296 98 -296 277v336h99v-324c0 -138 84 -191 212 -191h112v838z" />
    <glyph glyph-name="uni0644.ss01" horiz-adv-x="733" 
d="M548 811h98v-936h-374c-102 0 -176 22 -247 67l32 83c64 -37 129 -52 208 -52h282v515h1v323z" />
    <glyph glyph-name="uniFEDE.ss01" horiz-adv-x="748" 
d="M768 98v-98h-122v-125h-374c-102 0 -176 22 -247 67l32 83c64 -37 129 -52 208 -52h282v515h1v323h98v-713h122z" />
    <glyph glyph-name="uni0645" unicode="&#x645;" horiz-adv-x="885" 
d="M567 488c164 0 274 -120 274 -301v-1c0 -176 -110 -295 -274 -295h-1c-150 0 -255 96 -274 245c-94 -7 -140 -76 -140 -187v-169h-98v184c0 169 87 264 238 270c17 154 123 254 274 254h1zM743 188v1c0 120 -70 201 -176 201h-1c-107 0 -178 -81 -178 -201v-1
c0 -119 71 -198 178 -198h1c106 0 176 80 176 198z" />
    <glyph glyph-name="uni0645.ss01" horiz-adv-x="850" 
d="M533 488c164 0 274 -120 274 -301v-1c0 -176 -110 -295 -274 -295h-1c-82 0 -151 29 -200 80l-280 -201l-52 84l280 199c-16 39 -25 84 -25 133v1c0 181 111 301 277 301h1zM709 188v1c0 120 -70 201 -176 201h-1c-107 0 -178 -81 -178 -201v-1c0 -119 71 -198 178 -198
h1c106 0 176 80 176 198z" />
    <glyph glyph-name="uniFEE2.ss01" horiz-adv-x="876" 
d="M896 98v-98h-142c-48 -69 -125 -109 -221 -109h-1c-82 0 -151 29 -200 80l-280 -201l-52 84l280 199c-16 39 -25 84 -25 133v1c0 181 111 301 277 301h1c164 0 274 -120 274 -301v-1c0 -31 -3 -61 -10 -88h99zM709 188v1c0 120 -70 201 -176 201h-1
c-107 0 -178 -81 -178 -201v-1c0 -119 71 -198 178 -198h1c106 0 176 80 176 198z" />
    <glyph glyph-name="uni0646" unicode="&#x646;" horiz-adv-x="643" 
d="M319 605c-38 0 -71 23 -71 65c0 39 31 65 71 65c38 0 70 -26 70 -65c0 -42 -34 -65 -70 -65zM350 -125c-193 0 -296 98 -296 277v336h99v-324c0 -138 84 -191 212 -191h112v515h98v-613h-225z" />
    <glyph glyph-name="uni0646.ss01" horiz-adv-x="713" 
d="M547 488h99v-613h-374c-102 0 -176 22 -247 67l32 83c64 -37 129 -52 208 -52h282v515zM299 223c-38 0 -71 23 -71 65c0 39 31 65 71 65c38 0 70 -26 70 -65c0 -42 -34 -65 -70 -65z" />
    <glyph glyph-name="uniFEE6.ss01" horiz-adv-x="748" 
d="M768 98v-98h-122v-125h-374c-102 0 -176 22 -247 67l32 83c64 -37 129 -52 208 -52h282v515h99v-390h122zM299 223c-38 0 -71 23 -71 65c0 39 31 65 71 65c38 0 70 -26 70 -65c0 -42 -34 -65 -70 -65z" />
    <glyph glyph-name="uni06BA" unicode="&#x6ba;" horiz-adv-x="643" 
d="M350 -125c-193 0 -296 98 -296 277v336h99v-324c0 -138 84 -191 212 -191h112v515h98v-613h-225z" />
    <glyph glyph-name="uni06BA.ss01" horiz-adv-x="713" 
d="M547 488h99v-613h-374c-102 0 -176 22 -247 67l32 83c64 -37 129 -52 208 -52h282v515z" />
    <glyph glyph-name="uniFB9F.ss01" horiz-adv-x="748" 
d="M768 98v-98h-122v-125h-374c-102 0 -176 22 -247 67l32 83c64 -37 129 -52 208 -52h282v515h99v-390h122z" />
    <glyph glyph-name="uni0647" unicode="&#x647;" horiz-adv-x="585" 
d="M420 606h98v-606h-98h-60c-184 0 -307 110 -307 276v1c0 168 127 279 320 279h47v50zM420 98v361h-67c-122 0 -207 -70 -207 -182v-1c0 -108 86 -178 207 -178h67z" />
    <glyph glyph-name="uni06C0" unicode="&#x6c0;" horiz-adv-x="585" 
d="M381 739h145v-76h-210v116c0 68 42 110 110 110h63v-58h-57c-33 0 -51 -17 -51 -50v-42zM420 556v50h98v-606h-98h-60c-184 0 -307 110 -307 276v1c0 168 127 279 320 279h47zM420 98v361h-67c-122 0 -207 -70 -207 -182v-1c0 -108 86 -178 207 -178h67z" />
    <glyph glyph-name="uni06C1" unicode="&#x6c1;" horiz-adv-x="585" 
d="M420 606h98v-606h-98h-60c-184 0 -307 110 -307 276v1c0 168 127 279 320 279h47v50zM420 98v361h-67c-122 0 -207 -70 -207 -182v-1c0 -108 86 -178 207 -178h67z" />
    <glyph glyph-name="uni06C2" unicode="&#x6c2;" horiz-adv-x="585" 
d="M381 739h145v-76h-210v116c0 68 42 110 110 110h63v-58h-57c-33 0 -51 -17 -51 -50v-42zM420 556v50h98v-606h-98h-60c-184 0 -307 110 -307 276v1c0 168 127 279 320 279h47zM420 98v361h-67c-122 0 -207 -70 -207 -182v-1c0 -108 86 -178 207 -178h67z" />
    <glyph glyph-name="uni06BE" unicode="&#x6be;" horiz-adv-x="840" 
d="M412 666c225 0 392 -144 392 -409c0 -60 -10 -152 -29 -257h-748l20 98h123c-7 35 -11 76 -11 109c0 140 89 233 214 233s214 -92 214 -230c0 -34 -5 -76 -12 -112h117c9 60 13 108 13 152c0 209 -125 318 -308 318c-82 0 -153 -20 -230 -62l-35 88c96 49 189 72 280 72z
M257 196c0 -34 4 -69 10 -98h212c6 28 10 63 10 98c0 87 -47 146 -118 146c-69 0 -114 -59 -114 -146z" />
    <glyph glyph-name="uni0629" unicode="&#x629;" horiz-adv-x="585" 
d="M269 686c-37 0 -70 24 -70 65c0 38 31 65 70 65c40 0 70 -27 70 -65c0 -41 -32 -65 -70 -65zM454 686c-37 0 -70 24 -70 65c0 38 31 65 70 65c40 0 70 -27 70 -65c0 -41 -32 -65 -70 -65zM420 556v50h98v-606h-98h-60c-184 0 -307 110 -307 276v1c0 168 127 279 320 279
h47zM420 98v361h-67c-122 0 -207 -70 -207 -182v-1c0 -108 86 -178 207 -178h67z" />
    <glyph glyph-name="uni06C3" unicode="&#x6c3;" horiz-adv-x="585" 
d="M269 686c-37 0 -70 24 -70 65c0 38 31 65 70 65c40 0 70 -27 70 -65c0 -41 -32 -65 -70 -65zM454 686c-37 0 -70 24 -70 65c0 38 31 65 70 65c40 0 70 -27 70 -65c0 -41 -32 -65 -70 -65zM420 556v50h98v-606h-98h-60c-184 0 -307 110 -307 276v1c0 168 127 279 320 279
h47zM420 98v361h-67c-122 0 -207 -70 -207 -182v-1c0 -108 86 -178 207 -178h67z" />
    <glyph glyph-name="uni0648" unicode="&#x648;" horiz-adv-x="585" 
d="M373 556h145v-546c0 -172 -78 -230 -225 -230c-54 0 -102 7 -159 27l-18 104c63 -22 116 -32 173 -32c78 0 131 28 131 112v9h-60c-184 0 -307 110 -307 276v1c0 168 127 279 320 279zM420 98v361h-67c-122 0 -207 -70 -207 -182v-1c0 -108 86 -178 207 -178h67z" />
    <glyph glyph-name="uni0624" unicode="&#x624;" horiz-adv-x="585" 
d="M468 702v-76h-210v116c0 68 42 110 110 110h63v-58h-57c-33 0 -51 -17 -51 -50v-42h145zM373 556h145v-546c0 -172 -78 -230 -225 -230c-54 0 -102 7 -159 27l-18 104c63 -22 116 -32 173 -32c78 0 131 28 131 112v9h-60c-184 0 -307 110 -307 276v1
c0 168 127 279 320 279zM420 98v361h-67c-122 0 -207 -70 -207 -182v-1c0 -108 86 -178 207 -178h67z" />
    <glyph glyph-name="uni0649" unicode="&#x649;" horiz-adv-x="1027" 
d="M779 556h180v-556h-98v463h-98c-91 0 -135 -57 -135 -141v-447h-278c-199 0 -296 95 -296 281v220h98v-210c0 -140 88 -193 218 -193h160v333c-1 168 91 250 249 250z" />
    <glyph glyph-name="uni0649.ss01" horiz-adv-x="1005" 
d="M757 556h180v-556h-98v463h-98c-91 0 -135 -57 -135 -141v-447h-323c-108 0 -186 24 -258 71l41 79c64 -38 128 -52 207 -52h235v333c-1 168 91 250 249 250z" />
    <glyph glyph-name="uniFEF0.ss01" horiz-adv-x="1039" 
d="M937 98h122v-98h-220v463h-98c-91 0 -135 -57 -135 -141v-447h-323c-108 0 -186 24 -258 71l41 79c64 -38 128 -52 207 -52h235v333c-1 168 91 250 249 250h180v-458z" />
    <glyph glyph-name="uni064A" unicode="&#x64a;" horiz-adv-x="1027" 
d="M779 556h180v-556h-98v463h-98c-91 0 -135 -57 -135 -141v-447h-278c-199 0 -296 95 -296 281v220h98v-210c0 -140 88 -193 218 -193h160v333c-1 168 91 250 249 250zM328 -236c40 0 70 -26 70 -64c0 -41 -32 -65 -70 -65c-37 0 -70 24 -70 65c0 38 31 64 70 64z
M513 -236c40 0 70 -26 70 -64c0 -41 -32 -65 -70 -65c-37 0 -70 24 -70 65c0 38 31 64 70 64z" />
    <glyph glyph-name="uni064A.ss01" horiz-adv-x="1005" 
d="M757 556h180v-556h-98v463h-98c-91 0 -135 -57 -135 -141v-447h-323c-108 0 -186 24 -258 71l41 79c64 -38 128 -52 207 -52h235v333c-1 168 91 250 249 250zM319 344c-37 0 -71 23 -71 65c0 39 32 65 71 65c38 0 69 -26 69 -65c0 -42 -33 -65 -69 -65zM319 153
c-37 0 -71 23 -71 65c0 39 32 65 71 65c38 0 69 -26 69 -65c0 -42 -33 -65 -69 -65z" />
    <glyph glyph-name="uniFEF2.ss01" horiz-adv-x="1039" 
d="M937 98h122v-98h-220v463h-98c-91 0 -135 -57 -135 -141v-447h-323c-108 0 -186 24 -258 71l41 79c64 -38 128 -52 207 -52h235v333c-1 168 91 250 249 250h180v-458zM319 344c-37 0 -71 23 -71 65c0 39 32 65 71 65c38 0 69 -26 69 -65c0 -42 -33 -65 -69 -65zM319 153
c-37 0 -71 23 -71 65c0 39 32 65 71 65c38 0 69 -26 69 -65c0 -42 -33 -65 -69 -65z" />
    <glyph glyph-name="uni0626" unicode="&#x626;" horiz-adv-x="1027" 
d="M889 702v-76h-210v116c0 68 42 110 110 110h63v-58h-57c-33 0 -51 -17 -51 -50v-42h145zM779 556h180v-556h-98v463h-98c-91 0 -135 -57 -135 -141v-447h-278c-199 0 -296 95 -296 281v220h98v-210c0 -140 88 -193 218 -193h160v333c-1 168 91 250 249 250z" />
    <glyph glyph-name="uni0626.ss01" horiz-adv-x="1005" 
d="M868 702v-76h-210v116c0 68 42 110 110 110h63v-58h-57c-33 0 -51 -17 -51 -50v-42h145zM757 556h180v-556h-98v463h-98c-91 0 -135 -57 -135 -141v-447h-323c-108 0 -186 24 -258 71l41 79c64 -38 128 -52 207 -52h235v333c-1 168 91 250 249 250z" />
    <glyph glyph-name="uniFE8A.ss01" horiz-adv-x="1039" 
d="M868 702v-76h-210v116c0 68 42 110 110 110h63v-58h-57c-33 0 -51 -17 -51 -50v-42h145zM937 98h122v-98h-220v463h-98c-91 0 -135 -57 -135 -141v-447h-323c-108 0 -186 24 -258 71l41 79c64 -38 128 -52 207 -52h235v333c-1 168 91 250 249 250h180v-458z" />
    <glyph glyph-name="uni06CC" unicode="&#x6cc;" horiz-adv-x="1027" 
d="M779 556h180v-556h-98v463h-98c-91 0 -135 -57 -135 -141v-447h-278c-199 0 -296 95 -296 281v220h98v-210c0 -140 88 -193 218 -193h160v333c-1 168 91 250 249 250z" />
    <glyph glyph-name="uni06CC.ss01" horiz-adv-x="1005" 
d="M757 556h180v-556h-98v463h-98c-91 0 -135 -57 -135 -141v-447h-323c-108 0 -186 24 -258 71l41 79c64 -38 128 -52 207 -52h235v333c-1 168 91 250 249 250z" />
    <glyph glyph-name="uniFBFD.ss01" horiz-adv-x="1039" 
d="M937 98h122v-98h-220v463h-98c-91 0 -135 -57 -135 -141v-447h-323c-108 0 -186 24 -258 71l41 79c64 -38 128 -52 207 -52h235v333c-1 168 91 250 249 250h180v-458z" />
    <glyph glyph-name="uni06D2" unicode="&#x6d2;" horiz-adv-x="910" 
d="M54 0v188c0 171 81 255 251 255h42c48 0 67 16 67 63v45h98v-47c0 -124 -53 -159 -158 -159h-57c-94 0 -145 -47 -145 -149v-98h704v-98h-802z" />
    <glyph glyph-name="uni06D3" unicode="&#x6d3;" horiz-adv-x="910" 
d="M384 628v72c0 61 37 102 101 102h21v-55h-27c-25 0 -37 -17 -37 -42v-18h91v-59h-149zM54 0v188c0 171 81 255 251 255h42c48 0 67 16 67 63v45h98v-47c0 -124 -53 -159 -158 -159h-57c-94 0 -145 -47 -145 -149v-98h704v-98h-802z" />
    <glyph glyph-name="uni06D5" unicode="&#x6d5;" horiz-adv-x="585" 
d="M420 606h98v-606h-98h-60c-184 0 -307 110 -307 276v1c0 168 127 279 320 279h47v50zM420 98v361h-67c-122 0 -207 -70 -207 -182v-1c0 -108 86 -178 207 -178h67z" />
    <glyph glyph-name="uni0640" unicode="&#x640;" horiz-adv-x="165" 
d="M0 0v98h185v-98h-185z" />
    <glyph glyph-name="uni0640.alt" horiz-adv-x="112" 
d="M0 0v98h132v-98h-132z" />
    <glyph glyph-name="uni066E0649.fina" horiz-adv-x="1162" 
d="M1160 99h22v-99h-22c-166 0 -254 91 -254 264v199h-126c-101 0 -152 -64 -152 -158v-430h-278c-199 0 -296 95 -296 281v220h98v-210c0 -140 88 -193 218 -193h160v333c0 168 91 250 250 250h126v120h99v-418c0 -104 53 -159 155 -159z" />
    <glyph glyph-name="uni066E0649.fina.ss01" horiz-adv-x="1134" 
d="M1132 99h22v-99h-22c-167 0 -254 91 -254 264v199h-127c-101 0 -151 -64 -151 -158v-430h-317c-108 0 -186 24 -258 71l41 79c64 -38 128 -52 207 -52h228v333c0 168 91 250 250 250h127v120h98v-418c0 -104 53 -159 156 -159z" />
    <glyph glyph-name="uniFC6D.ss01" horiz-adv-x="1133" 
d="M1131 99h22v-99h-22c-166 0 -254 91 -254 264v126h-231v-515h-374c-102 0 -176 22 -247 67l32 83c64 -37 129 -52 208 -52h282v515h330v120h98v-350c0 -104 54 -159 156 -159zM307 223c-38 0 -71 23 -71 65c0 39 31 65 71 65c38 0 70 -26 70 -65c0 -42 -34 -65 -70 -65z
M865 -111c38 0 70 -26 70 -64c0 -43 -34 -66 -70 -66c-38 0 -71 23 -71 66c0 38 31 64 71 64z" />
    <glyph glyph-name="uniFC6E.ss01" horiz-adv-x="1134" 
d="M1132 99h22v-99h-22c-167 0 -254 91 -254 264v199h-127c-101 0 -151 -64 -151 -158v-430h-317c-108 0 -186 24 -258 71l41 79c64 -38 128 -52 207 -52h228v333c0 168 91 250 250 250h127v120h98v-418c0 -104 53 -159 156 -159zM828 -111c38 0 70 -26 70 -64
c0 -43 -34 -66 -70 -66c-38 0 -71 23 -71 66c0 38 31 64 71 64z" />
    <glyph glyph-name="uniFC6F.ss01" horiz-adv-x="1134" 
d="M1132 99h22v-99h-22c-167 0 -254 91 -254 264v199h-127c-101 0 -151 -64 -151 -158v-430h-317c-108 0 -186 24 -258 71l41 79c64 -38 128 -52 207 -52h228v333c0 168 91 250 250 250h127v120h98v-418c0 -104 53 -159 156 -159zM319 344c-37 0 -71 23 -71 65
c0 39 32 65 71 65c38 0 69 -26 69 -65c0 -42 -33 -65 -69 -65zM319 153c-37 0 -71 23 -71 65c0 39 32 65 71 65c38 0 69 -26 69 -65c0 -42 -33 -65 -69 -65zM828 -111c38 0 70 -26 70 -64c0 -43 -34 -66 -70 -66c-38 0 -71 23 -71 66c0 38 31 64 71 64z" />
    <glyph glyph-name="uni06280626.fina" horiz-adv-x="1162" 
d="M1160 99h22v-99h-22c-166 0 -254 91 -254 264v199h-126c-101 0 -152 -64 -152 -158v-430h-278c-199 0 -296 95 -296 281v220h98v-210c0 -140 88 -193 218 -193h160v333c0 168 91 250 250 250h126v120h99v-418c0 -104 53 -159 155 -159zM177 512v-59h-149v72
c0 61 37 102 101 102h21v-55h-27c-25 0 -37 -17 -37 -42v-18h91zM861 -111c38 0 70 -26 70 -64c0 -43 -34 -66 -70 -66c-38 0 -71 23 -71 66c0 38 31 64 71 64z" />
    <glyph glyph-name="uni06280626.fina.ss01" horiz-adv-x="1134" 
d="M1132 99h22v-99h-22c-167 0 -254 91 -254 264v199h-127c-101 0 -151 -64 -151 -158v-430h-317c-108 0 -186 24 -258 71l41 79c64 -38 128 -52 207 -52h228v333c0 168 91 250 250 250h127v120h98v-418c0 -104 53 -159 156 -159zM356 262v-59h-149v72c0 61 37 102 101 102
h21v-55h-27c-25 0 -37 -17 -37 -42v-18h91zM828 -111c38 0 70 -26 70 -64c0 -43 -34 -66 -70 -66c-38 0 -71 23 -71 66c0 38 31 64 71 64z" />
    <glyph glyph-name="uni067E0631.fina" horiz-adv-x="726" 
d="M724 99h22v-99h-22c-167 0 -254 91 -254 264v194h-217v-463c0 -165 -62 -215 -185 -215c-26 0 -53 4 -78 10l-8 85c30 -4 52 -6 77 -6c59 0 96 29 96 111v576h315v120h98v-418c0 -104 53 -159 156 -159zM444 -182c0 -40 -32 -63 -68 -63s-68 23 -68 63c0 37 30 63 68 63
c39 0 68 -26 68 -63zM557 -119c39 0 68 -26 68 -63c0 -40 -31 -63 -68 -63c-36 0 -68 23 -68 63c0 37 30 63 68 63zM467 -258c35 0 61 -23 61 -56c0 -36 -27 -57 -61 -57c-31 0 -61 21 -61 57c0 33 27 56 61 56z" />
    <glyph glyph-name="uni067E0632.fina" horiz-adv-x="726" 
d="M199 673c-38 0 -71 23 -71 65c0 39 31 65 71 65c38 0 70 -26 70 -65c0 -42 -34 -65 -70 -65zM724 99h22v-99h-22c-167 0 -254 91 -254 264v194h-217v-463c0 -165 -62 -215 -185 -215c-26 0 -53 4 -78 10l-8 85c30 -4 52 -6 77 -6c59 0 96 29 96 111v576h315v120h98v-418
c0 -104 53 -159 156 -159zM444 -182c0 -40 -32 -63 -68 -63s-68 23 -68 63c0 37 30 63 68 63c39 0 68 -26 68 -63zM557 -119c39 0 68 -26 68 -63c0 -40 -31 -63 -68 -63c-36 0 -68 23 -68 63c0 37 30 63 68 63zM467 -258c35 0 61 -23 61 -56c0 -36 -27 -57 -61 -57
c-31 0 -61 21 -61 57c0 33 27 56 61 56z" />
    <glyph glyph-name="uni067E0646.fina" horiz-adv-x="1063" 
d="M319 605c-38 0 -71 23 -71 65c0 39 31 65 71 65c38 0 70 -26 70 -65c0 -42 -34 -65 -70 -65zM1061 99h22v-99h-22c-167 0 -254 91 -254 264v126h-232v-515h-225c-193 0 -296 98 -296 277v336h99v-324c0 -138 84 -191 212 -191h112v515h330v120h98v-350
c0 -104 53 -159 156 -159zM772 -182c0 -40 -32 -63 -68 -63s-68 23 -68 63c0 37 30 63 68 63c39 0 68 -26 68 -63zM885 -119c39 0 68 -26 68 -63c0 -40 -31 -63 -68 -63c-36 0 -68 23 -68 63c0 37 30 63 68 63zM795 -258c35 0 61 -23 61 -56c0 -36 -27 -57 -61 -57
c-31 0 -61 21 -61 57c0 33 27 56 61 56z" />
    <glyph glyph-name="uni067E0646.fina.ss01" horiz-adv-x="1133" 
d="M1131 99h22v-99h-22c-166 0 -254 91 -254 264v126h-231v-515h-374c-102 0 -176 22 -247 67l32 83c64 -37 129 -52 208 -52h282v515h330v120h98v-350c0 -104 54 -159 156 -159zM307 223c-38 0 -71 23 -71 65c0 39 31 65 71 65c38 0 70 -26 70 -65c0 -42 -34 -65 -70 -65z
M842 -182c0 -40 -32 -63 -68 -63s-68 23 -68 63c0 37 30 63 68 63c39 0 68 -26 68 -63zM955 -119c39 0 68 -26 68 -63c0 -40 -31 -63 -68 -63c-36 0 -68 23 -68 63c0 37 30 63 68 63zM865 -258c35 0 61 -23 61 -56c0 -36 -27 -57 -61 -57c-31 0 -61 21 -61 57
c0 33 27 56 61 56z" />
    <glyph glyph-name="uni067E0649.fina" horiz-adv-x="1162" 
d="M1160 99h22v-99h-22c-166 0 -254 91 -254 264v199h-126c-101 0 -152 -64 -152 -158v-430h-278c-199 0 -296 95 -296 281v220h98v-210c0 -140 88 -193 218 -193h160v333c0 168 91 250 250 250h126v120h99v-418c0 -104 53 -159 155 -159zM838 -182c0 -40 -32 -63 -68 -63
s-68 23 -68 63c0 37 30 63 68 63c39 0 68 -26 68 -63zM951 -119c39 0 68 -26 68 -63c0 -40 -31 -63 -68 -63c-36 0 -68 23 -68 63c0 37 30 63 68 63zM861 -258c35 0 61 -23 61 -56c0 -36 -27 -57 -61 -57c-31 0 -61 21 -61 57c0 33 27 56 61 56z" />
    <glyph glyph-name="uni067E0649.fina.ss01" horiz-adv-x="1134" 
d="M1132 99h22v-99h-22c-167 0 -254 91 -254 264v199h-127c-101 0 -151 -64 -151 -158v-430h-317c-108 0 -186 24 -258 71l41 79c64 -38 128 -52 207 -52h228v333c0 168 91 250 250 250h127v120h98v-418c0 -104 53 -159 156 -159zM805 -182c0 -40 -32 -63 -68 -63
s-68 23 -68 63c0 37 30 63 68 63c39 0 68 -26 68 -63zM918 -119c39 0 68 -26 68 -63c0 -40 -31 -63 -68 -63c-36 0 -68 23 -68 63c0 37 30 63 68 63zM828 -258c35 0 61 -23 61 -56c0 -36 -27 -57 -61 -57c-31 0 -61 21 -61 57c0 33 27 56 61 56z" />
    <glyph glyph-name="uni067E064A.fina" horiz-adv-x="1162" 
d="M1160 99h22v-99h-22c-166 0 -254 91 -254 264v199h-126c-101 0 -152 -64 -152 -158v-430h-278c-199 0 -296 95 -296 281v220h98v-210c0 -140 88 -193 218 -193h160v333c0 168 91 250 250 250h126v120h99v-418c0 -104 53 -159 155 -159zM838 -182c0 -40 -32 -63 -68 -63
s-68 23 -68 63c0 37 30 63 68 63c39 0 68 -26 68 -63zM951 -119c39 0 68 -26 68 -63c0 -40 -31 -63 -68 -63c-36 0 -68 23 -68 63c0 37 30 63 68 63zM328 -236c40 0 70 -26 70 -64c0 -41 -32 -65 -70 -65c-37 0 -70 24 -70 65c0 38 31 64 70 64zM513 -236
c40 0 70 -26 70 -64c0 -41 -32 -65 -70 -65c-37 0 -70 24 -70 65c0 38 31 64 70 64zM861 -258c35 0 61 -23 61 -56c0 -36 -27 -57 -61 -57c-31 0 -61 21 -61 57c0 33 27 56 61 56z" />
    <glyph glyph-name="uni067E064A.fina.ss01" horiz-adv-x="1134" 
d="M1132 99h22v-99h-22c-167 0 -254 91 -254 264v199h-127c-101 0 -151 -64 -151 -158v-430h-317c-108 0 -186 24 -258 71l41 79c64 -38 128 -52 207 -52h228v333c0 168 91 250 250 250h127v120h98v-418c0 -104 53 -159 156 -159zM319 344c-37 0 -71 23 -71 65
c0 39 32 65 71 65c38 0 69 -26 69 -65c0 -42 -33 -65 -69 -65zM319 153c-37 0 -71 23 -71 65c0 39 32 65 71 65c38 0 69 -26 69 -65c0 -42 -33 -65 -69 -65zM805 -182c0 -40 -32 -63 -68 -63s-68 23 -68 63c0 37 30 63 68 63c39 0 68 -26 68 -63zM918 -119
c39 0 68 -26 68 -63c0 -40 -31 -63 -68 -63c-36 0 -68 23 -68 63c0 37 30 63 68 63zM828 -258c35 0 61 -23 61 -56c0 -36 -27 -57 -61 -57c-31 0 -61 21 -61 57c0 33 27 56 61 56z" />
    <glyph glyph-name="uni067E0626.fina" horiz-adv-x="1162" 
d="M1160 99h22v-99h-22c-166 0 -254 91 -254 264v199h-126c-101 0 -152 -64 -152 -158v-430h-278c-199 0 -296 95 -296 281v220h98v-210c0 -140 88 -193 218 -193h160v333c0 168 91 250 250 250h126v120h99v-418c0 -104 53 -159 155 -159zM177 512v-59h-149v72
c0 61 37 102 101 102h21v-55h-27c-25 0 -37 -17 -37 -42v-18h91zM838 -182c0 -40 -32 -63 -68 -63s-68 23 -68 63c0 37 30 63 68 63c39 0 68 -26 68 -63zM951 -119c39 0 68 -26 68 -63c0 -40 -31 -63 -68 -63c-36 0 -68 23 -68 63c0 37 30 63 68 63zM861 -258
c35 0 61 -23 61 -56c0 -36 -27 -57 -61 -57c-31 0 -61 21 -61 57c0 33 27 56 61 56z" />
    <glyph glyph-name="uni067E0626.fina.ss01" horiz-adv-x="1134" 
d="M1132 99h22v-99h-22c-167 0 -254 91 -254 264v199h-127c-101 0 -151 -64 -151 -158v-430h-317c-108 0 -186 24 -258 71l41 79c64 -38 128 -52 207 -52h228v333c0 168 91 250 250 250h127v120h98v-418c0 -104 53 -159 156 -159zM356 262v-59h-149v72c0 61 37 102 101 102
h21v-55h-27c-25 0 -37 -17 -37 -42v-18h91zM805 -182c0 -40 -32 -63 -68 -63s-68 23 -68 63c0 37 30 63 68 63c39 0 68 -26 68 -63zM918 -119c39 0 68 -26 68 -63c0 -40 -31 -63 -68 -63c-36 0 -68 23 -68 63c0 37 30 63 68 63zM828 -258c35 0 61 -23 61 -56
c0 -36 -27 -57 -61 -57c-31 0 -61 21 -61 57c0 33 27 56 61 56z" />
    <glyph glyph-name="uniFC73.ss01" horiz-adv-x="1133" 
d="M835 718c-37 0 -70 24 -70 65c0 38 31 65 70 65c40 0 70 -27 70 -65c0 -41 -32 -65 -70 -65zM1020 718c-37 0 -70 24 -70 65c0 38 31 65 70 65c40 0 70 -27 70 -65c0 -41 -32 -65 -70 -65zM1131 99h22v-99h-22c-166 0 -254 91 -254 264v126h-231v-515h-374
c-102 0 -176 22 -247 67l32 83c64 -37 129 -52 208 -52h282v515h330v120h98v-350c0 -104 54 -159 156 -159zM307 223c-38 0 -71 23 -71 65c0 39 31 65 71 65c38 0 70 -26 70 -65c0 -42 -34 -65 -70 -65z" />
    <glyph glyph-name="uniFC74.ss01" horiz-adv-x="1134" 
d="M835 786c-37 0 -70 24 -70 65c0 38 31 65 70 65c40 0 70 -27 70 -65c0 -41 -32 -65 -70 -65zM1020 786c-37 0 -70 24 -70 65c0 38 31 65 70 65c40 0 70 -27 70 -65c0 -41 -32 -65 -70 -65zM1132 99h22v-99h-22c-167 0 -254 91 -254 264v199h-127
c-101 0 -151 -64 -151 -158v-430h-317c-108 0 -186 24 -258 71l41 79c64 -38 128 -52 207 -52h228v333c0 168 91 250 250 250h127v120h98v-418c0 -104 53 -159 156 -159z" />
    </font>
</defs>
</svg>
