<?xml version="1.0" standalone="no"?>
<!DOCTYPE svg PUBLIC "-//W3C//DTD SVG 1.1//EN" "http://www.w3.org/Graphics/SVG/1.1/DTD/svg11.dtd" >
<svg xmlns="http://www.w3.org/2000/svg" xmlns:xlink="http://www.w3.org/1999/xlink" version="1.1">
<metadata>
Created by FontForge 20170924 at Fri Jun 16 23:29:04 2017
 By www-data
Copyright \(c\) 2017 by 29Letters. All rights reserved.
</metadata>
<defs>
<font id="29LTBukra-Md" horiz-adv-x="0" >
  <font-face 
    font-family="29LT Bukra Md"
    font-weight="500"
    font-stretch="normal"
    units-per-em="1000"
    panose-1="0 0 6 0 0 0 0 0 0 0"
    ascent="800"
    descent="-200"
    x-height="565"
    cap-height="811"
    bbox="-843 -455 1959 1098"
    underline-thickness="50"
    underline-position="-100"
    stemh="86"
    stemv="128"
    unicode-range="U+000D-FEFC"
  />
<missing-glyph horiz-adv-x="500" 
 />
    <glyph glyph-name="T_T.liga" unicode="TT" horiz-adv-x="1288" 
d="M1263 811v-120h-263v-691h-128v691h-454v-691h-128v691h-264v120h1237z" />
    <glyph glyph-name="f_b.liga" unicode="fb" horiz-adv-x="1099" 
d="M737 578c190 0 314 -109 314 -297v-1c0 -185 -118 -299 -314 -299c-74 0 -162 17 -231 39v672h-156c-66 0 -93 -20 -93 -81v-46h209v-119h-209v-446h-129v446h-104v119h104v64c0 137 64 182 227 182h280v-241c36 5 70 8 102 8zM927 279v2c0 106 -66 180 -186 180
c-32 0 -66 -4 -106 -13v-342c35 -7 75 -9 105 -9c115 0 187 70 187 182z" />
    <glyph glyph-name="f_h.liga" unicode="fh" horiz-adv-x="1099" 
d="M1017 -1h-129v341c0 85 -48 115 -131 115c-33 0 -78 -4 -122 -12v-443h-129v692h-156c-66 0 -93 -20 -93 -81v-46h209v-119h-209v-446h-129v446h-104v119h104v64c0 137 64 182 227 182h280v-241c51 6 96 10 128 10c138 0 253 -49 253 -215c0 -122 1 -244 1 -366z" />
    <glyph glyph-name="f_k.liga" unicode="fk" horiz-adv-x="1026" 
d="M1017 0h-165l-217 275v-275h-129v692h-156c-66 0 -93 -20 -93 -81v-46h209v-119h-209v-446h-129v446h-104v119h104v64c0 137 64 182 227 182h280v-524l216 278h151l-218 -277z" />
    <glyph glyph-name="f_t.liga" unicode="ft" horiz-adv-x="894" 
d="M748 118h103v-118h-149c-145 0 -193 58 -193 180v269h-27v-3h-225v-446h-129v446h-104v119h104v48c0 137 64 182 227 182h71v-119h-76c-66 0 -93 -20 -93 -81v-30h252v204h127v-204h214v-116h-214v-231c0 -77 37 -100 112 -100z" />
    <glyph glyph-name="fi" unicode="fi" horiz-adv-x="667" 
d="M585 565v-565h-129v445h-198v-445h-129v445h-104v120h104v64c0 142 66 182 227 182h222v-119h-215c-80 0 -105 -18 -105 -90v-37h327z" />
    <glyph glyph-name="fl" unicode="fl" horiz-adv-x="718" 
d="M635 811v-811h-129v692h-156c-66 0 -93 -20 -93 -81v-46h209v-119h-209v-446h-129v446h-104v119h104v64c0 137 64 182 227 182h280z" />
    <glyph glyph-name="uni067E067E.init" unicode="&#xfb58;&#xfb59;" horiz-adv-x="939" 
d="M0 0v128h158v437h127v-437h462v437h127v-565h-874zM208 -178c0 -46 -37 -71 -78 -71c-40 0 -77 25 -77 71c0 42 34 70 77 70c44 0 78 -28 78 -70zM325 -108c44 0 77 -28 77 -70c0 -46 -36 -71 -77 -71s-77 25 -77 71c0 42 33 70 77 70zM703 -178c0 -46 -37 -71 -78 -71
c-40 0 -77 25 -77 71c0 42 34 70 77 70c44 0 78 -28 78 -70zM820 -108c44 0 77 -28 77 -70c0 -46 -36 -71 -77 -71s-77 25 -77 71c0 42 33 70 77 70zM228 -257c39 0 68 -25 68 -61c0 -41 -30 -62 -68 -62c-35 0 -68 21 -68 62c0 36 29 61 68 61zM723 -257
c39 0 68 -25 68 -61c0 -41 -30 -62 -68 -62c-35 0 -68 21 -68 62c0 36 29 61 68 61z" />
    <glyph glyph-name="uniFEFB" unicode="&#xfedf;&#xfe8e;" horiz-adv-x="689" arabic-form="isolated" 
d="M51 0l-26 128h289c104 0 165 51 165 144v613h127v-603c0 -187 -102 -282 -307 -282h-248zM163 196v523h128v-523h-128z" />
    <glyph glyph-name="uniFEFC" unicode="&#xfee0;&#xfe8e;" horiz-adv-x="740" arabic-form="final" 
d="M606 287c0 -110 53 -159 154 -159v-128c-100 0 -173 38 -202 103c-49 -68 -135 -103 -259 -103h-248l-26 128h289c104 0 165 51 165 144v613h127v-598zM291 719v-523h-128v523h128z" />
    <glyph glyph-name="uniFEF7" unicode="&#xfedf;&#xfe84;" horiz-adv-x="689" arabic-form="isolated" 
d="M150 789v80c0 61 43 102 107 102h25v-70h-33c-14 0 -24 -10 -24 -25v-12h80v-75h-155zM51 0l-26 128h289c104 0 165 51 165 144v613h127v-603c0 -187 -102 -282 -307 -282h-248zM163 196v523h128v-523h-128z" />
    <glyph glyph-name="uniFEF8" unicode="&#xfee0;&#xfe84;" horiz-adv-x="740" arabic-form="final" 
d="M305 864v-75h-155v80c0 61 43 102 107 102h25v-70h-33c-14 0 -24 -10 -24 -25v-12h80zM606 287c0 -110 53 -159 154 -159v-128c-100 0 -173 38 -202 103c-49 -68 -135 -103 -259 -103h-248l-26 128h289c104 0 165 51 165 144v613h127v-598zM291 196h-128v523h128v-523z
" />
    <glyph glyph-name="uniFEF9" unicode="&#xfedf;&#xfe88;" horiz-adv-x="689" arabic-form="isolated" 
d="M51 0l-26 128h289c104 0 165 51 165 144v613h127v-603c0 -187 -102 -282 -307 -282h-248zM163 196v523h128v-523h-128zM157 -242v80c0 61 43 102 107 102h37v-70h-45c-14 0 -24 -10 -24 -25v-12h92v-75h-167z" />
    <glyph glyph-name="uniFEFA" unicode="&#xfee0;&#xfe88;" horiz-adv-x="740" arabic-form="final" 
d="M606 287c0 -110 53 -159 154 -159v-128c-100 0 -173 38 -202 103c-49 -68 -135 -103 -259 -103h-248l-26 128h289c104 0 165 51 165 144v613h127v-598zM291 719v-523h-128v523h128zM232 -155v-12h92v-75h-167v80c0 61 43 102 107 102h37v-70h-45c-14 0 -24 -10 -24 -25z
" />
    <glyph glyph-name="uniFEF5" unicode="&#xfedf;&#xfe82;" horiz-adv-x="689" arabic-form="isolated" 
d="M51 0l-26 128h289c104 0 165 51 165 144v613h127v-603c0 -187 -102 -282 -307 -282h-248zM135 759v85h185v-85h-185zM163 196v523h128v-523h-128z" />
    <glyph glyph-name="uniFEF6" unicode="&#xfee0;&#xfe82;" horiz-adv-x="740" arabic-form="final" 
d="M606 287c0 -110 53 -159 154 -159v-128c-100 0 -173 38 -202 103c-49 -68 -135 -103 -259 -103h-248l-26 128h289c104 0 165 51 165 144v613h127v-598zM320 844v-85h-185v85h185zM291 196h-128v523h128v-523z" />
    <glyph glyph-name="uni06440671" unicode="&#xfedf;&#xfb51;" horiz-adv-x="689" 
d="M105 759v75c0 73 42 111 122 111h1c80 0 122 -38 122 -111v-75h-245zM51 0l-26 128h289c104 0 165 51 165 144v613h127v-603c0 -187 -102 -282 -307 -282h-248zM195 834h65v7c0 22 -11 33 -32 33h-1c-21 0 -32 -11 -32 -33v-7zM163 196v523h128v-523h-128z" />
    <glyph glyph-name="uni06440671.fina" unicode="&#xfee0;&#xfb51;" horiz-adv-x="740" 
d="M350 834v-75h-245v75c0 73 42 111 122 111h1c80 0 122 -38 122 -111zM606 287c0 -110 53 -159 154 -159v-128c-100 0 -173 38 -202 103c-49 -68 -135 -103 -259 -103h-248l-26 128h289c104 0 165 51 165 144v613h127v-598zM260 834v7c0 22 -11 33 -32 33h-1
c-21 0 -32 -11 -32 -33v-7h65zM291 196h-128v523h128v-523z" />
    <glyph glyph-name="uniFC5A.init" unicode="&#xfef3;&#xfef4;" horiz-adv-x="939" 
d="M0 0v128h158v437h127v-437h462v437h127v-565h-874zM126 -100c45 0 80 -30 80 -73c0 -48 -37 -73 -80 -73c-42 0 -80 25 -80 73c0 43 35 73 80 73zM326 -100c46 0 80 -30 80 -73c0 -48 -37 -73 -80 -73c-42 0 -80 25 -80 73c0 43 35 73 80 73zM621 -100
c45 0 80 -30 80 -73c0 -48 -37 -73 -80 -73c-42 0 -80 25 -80 73c0 43 35 73 80 73zM821 -100c46 0 80 -30 80 -73c0 -48 -37 -73 -80 -73c-42 0 -80 25 -80 73c0 43 35 73 80 73z" />
    <glyph glyph-name="uniFE8E" unicode="&#x627;" horiz-adv-x="360" arabic-form="final" 
d="M210 128h170v-128h-297v811h127v-683z" />
    <glyph glyph-name="uniFE84" unicode="&#x623;" horiz-adv-x="360" arabic-form="final" 
d="M224 837v-75h-155v80c0 61 43 102 107 102h25v-70h-33c-14 0 -24 -10 -24 -25v-12h80zM210 128h170v-128h-297v692h127v-564z" />
    <glyph glyph-name="uniFE88" unicode="&#x625;" horiz-adv-x="360" arabic-form="final" 
d="M210 128h170v-128h-297v811h127v-683zM186 -155v-12h92v-75h-167v80c0 61 43 102 107 102h37v-70h-45c-14 0 -24 -10 -24 -25z" />
    <glyph glyph-name="uniFE82" unicode="&#x622;" horiz-adv-x="360" arabic-form="final" 
d="M239 936v-85h-185v85h185zM210 128h170v-128h-297v811h127v-683z" />
    <glyph glyph-name="uniFB51" unicode="&#x671;" horiz-adv-x="360" arabic-form="final" 
d="M269 807v-75h-245v75c0 73 42 111 122 111h1c80 0 122 -38 122 -111zM179 807v7c0 22 -11 33 -32 33h-1c-21 0 -32 -11 -32 -33v-7h65zM210 128h170v-128h-297v692h127v-564z" />
    <glyph glyph-name="uni066E.init" unicode="&#x66e;" horiz-adv-x="290" 
d="M0 0v128h98v437h127v-565h-225z" />
    <glyph glyph-name="uni066E.medi" unicode="&#x66e;" horiz-adv-x="323" 
d="M225 128h118v-128h-343v128h98v437h127v-437z" />
    <glyph glyph-name="uni066E.fina" unicode="&#x66e;" horiz-adv-x="866" 
d="M768 128h118v-128h-527c-211 0 -309 105 -309 298v183h128v-170c0 -130 80 -183 208 -183h255v437h127v-437z" />
    <glyph glyph-name="uniFE90" unicode="&#x628;" horiz-adv-x="866" arabic-form="final" 
d="M768 128h118v-128h-527c-211 0 -309 105 -309 298v183h128v-170c0 -130 80 -183 208 -183h255v437h127v-437zM455 -100c44 0 80 -29 80 -73c0 -49 -38 -74 -80 -74c-43 0 -82 25 -82 74c0 44 36 73 82 73z" />
    <glyph glyph-name="uniFE92" unicode="&#x628;" horiz-adv-x="323" arabic-form="medial" 
d="M225 128h118v-128h-343v128h98v437h127v-437zM163 -101c44 0 80 -29 80 -73c0 -49 -38 -74 -80 -74c-43 0 -82 25 -82 74c0 44 36 73 82 73z" />
    <glyph glyph-name="uniFE91" unicode="&#x628;" horiz-adv-x="290" arabic-form="initial" 
d="M0 0v128h98v437h127v-565h-225zM114 -247c-43 0 -82 25 -82 74c0 44 36 73 82 73c44 0 80 -29 80 -73c0 -49 -38 -74 -80 -74z" />
    <glyph glyph-name="uniFB57" unicode="&#x67e;" horiz-adv-x="866" arabic-form="final" 
d="M768 128h118v-128h-527c-211 0 -309 105 -309 298v183h128v-170c0 -130 80 -183 208 -183h255v437h127v-437zM435 -178c0 -46 -37 -71 -78 -71c-40 0 -77 25 -77 71c0 42 34 70 77 70c44 0 78 -28 78 -70zM552 -108c44 0 77 -28 77 -70c0 -46 -36 -71 -77 -71
s-77 25 -77 71c0 42 33 70 77 70zM455 -257c39 0 68 -25 68 -61c0 -41 -30 -62 -68 -62c-35 0 -68 21 -68 62c0 36 29 61 68 61z" />
    <glyph glyph-name="uniFB59" unicode="&#x67e;" horiz-adv-x="443" arabic-form="medial" 
d="M463 128v-128h-463v128h158v437h127v-437h178zM208 -178c0 -46 -37 -71 -78 -71c-40 0 -77 25 -77 71c0 42 34 70 77 70c44 0 78 -28 78 -70zM325 -108c44 0 77 -28 77 -70c0 -46 -36 -71 -77 -71s-77 25 -77 71c0 42 33 70 77 70zM228 -257c39 0 68 -25 68 -61
c0 -41 -30 -62 -68 -62c-35 0 -68 21 -68 62c0 36 29 61 68 61z" />
    <glyph glyph-name="uniFB58" unicode="&#x67e;" horiz-adv-x="388" arabic-form="initial" 
d="M0 0v128h196v437h127v-565h-323zM74 -249c-40 0 -77 25 -77 71c0 42 34 70 77 70c44 0 78 -28 78 -70c0 -46 -37 -71 -78 -71zM269 -249c-41 0 -77 25 -77 71c0 42 33 70 77 70s77 -28 77 -70c0 -46 -36 -71 -77 -71zM172 -380c-35 0 -68 21 -68 62c0 36 29 61 68 61
s68 -25 68 -61c0 -41 -30 -62 -68 -62z" />
    <glyph glyph-name="uniFE96" unicode="&#x62a;" horiz-adv-x="866" arabic-form="final" 
d="M323 631c-42 0 -80 25 -80 73c0 43 35 73 80 73s80 -30 80 -73c0 -48 -37 -73 -80 -73zM523 631c-42 0 -80 25 -80 73c0 43 35 73 80 73c46 0 80 -30 80 -73c0 -48 -37 -73 -80 -73zM768 128h118v-128h-527c-211 0 -309 105 -309 298v183h128v-170
c0 -130 80 -183 208 -183h255v437h127v-437z" />
    <glyph glyph-name="uniFE98" unicode="&#x62a;" horiz-adv-x="443" arabic-form="medial" 
d="M126 665c-42 0 -80 25 -80 73c0 43 35 73 80 73s80 -30 80 -73c0 -48 -37 -73 -80 -73zM326 665c-42 0 -80 25 -80 73c0 43 35 73 80 73c46 0 80 -30 80 -73c0 -48 -37 -73 -80 -73zM463 128v-128h-463v128h158v437h127v-437h178z" />
    <glyph glyph-name="uniFE97" unicode="&#x62a;" horiz-adv-x="470" arabic-form="initial" 
d="M165 666c-42 0 -80 25 -80 73c0 43 35 73 80 73s80 -30 80 -73c0 -48 -37 -73 -80 -73zM365 666c-42 0 -80 25 -80 73c0 43 35 73 80 73c46 0 80 -30 80 -73c0 -48 -37 -73 -80 -73zM0 0v128h196v437h127v-565h-323z" />
    <glyph glyph-name="uniFE9A" unicode="&#x62b;" horiz-adv-x="866" arabic-form="final" 
d="M424 778c-35 0 -68 21 -68 62c0 36 29 61 68 61s68 -25 68 -61c0 -41 -32 -62 -68 -62zM326 631c-40 0 -77 24 -77 71c0 42 34 70 77 70c44 0 78 -28 78 -70c0 -47 -37 -71 -78 -71zM444 702c0 42 33 70 77 70s77 -28 77 -70c0 -47 -36 -71 -77 -71s-77 24 -77 71z
M768 128h118v-128h-527c-211 0 -309 105 -309 298v183h128v-170c0 -130 80 -183 208 -183h255v437h127v-437z" />
    <glyph glyph-name="uniFE9C" unicode="&#x62b;" horiz-adv-x="443" arabic-form="medial" 
d="M227 812c-35 0 -68 21 -68 62c0 36 29 61 68 61s68 -25 68 -61c0 -41 -32 -62 -68 -62zM129 665c-40 0 -77 24 -77 71c0 42 34 70 77 70c44 0 78 -28 78 -70c0 -47 -37 -71 -78 -71zM247 736c0 42 33 70 77 70s77 -28 77 -70c0 -47 -36 -71 -77 -71s-77 24 -77 71z
M463 128v-128h-463v128h158v437h127v-437h178z" />
    <glyph glyph-name="uniFE9B" unicode="&#x62b;" horiz-adv-x="465" arabic-form="initial" 
d="M265 824c-35 0 -68 21 -68 62c0 36 29 61 68 61s68 -25 68 -61c0 -41 -32 -62 -68 -62zM167 677c-40 0 -77 24 -77 71c0 42 34 70 77 70c44 0 78 -28 78 -70c0 -47 -37 -71 -78 -71zM362 677c-41 0 -77 24 -77 71c0 42 33 70 77 70s77 -28 77 -70c0 -47 -36 -71 -77 -71z
M0 0v128h196v437h127v-565h-323z" />
    <glyph glyph-name="uniFB67" unicode="&#x679;" horiz-adv-x="866" arabic-form="final" 
d="M546 677v-75h-245v213h95v-35h43c64 0 107 -41 107 -103zM451 677v12c0 13 -8 21 -21 21h-34v-33h55zM768 128h118v-128h-527c-211 0 -309 105 -309 298v183h128v-170c0 -130 80 -183 208 -183h255v437h127v-437z" />
    <glyph glyph-name="uniFB69" unicode="&#x679;" horiz-adv-x="443" arabic-form="medial" 
d="M349 711v-75h-245v213h95v-35h43c64 0 107 -41 107 -103zM254 711v12c0 13 -8 21 -21 21h-34v-33h55zM463 128v-128h-463v128h158v437h127v-437h178z" />
    <glyph glyph-name="uniFB68" unicode="&#x679;" horiz-adv-x="398" arabic-form="initial" 
d="M160 630v213h95v-35h43c64 0 107 -41 107 -103v-75h-245zM255 705h55v12c0 13 -8 21 -21 21h-34v-33zM0 0v128h196v437h127v-565h-323z" />
    <glyph glyph-name="uniFE9E" unicode="&#x62c;" horiz-adv-x="666" arabic-form="final" 
d="M575 128h111v-128h-369c-62 0 -92 -22 -118 -87l-58 -143l-116 44l65 161c45 112 103 153 216 153h143c13 48 21 107 21 153c0 110 -65 176 -167 176c-57 0 -98 -12 -157 -48l-46 117c71 37 139 59 211 59c183 0 279 -118 279 -310c0 -47 -6 -98 -15 -147zM373 -119
c44 0 80 -29 80 -73c0 -49 -38 -74 -80 -74c-43 0 -82 25 -82 74c0 44 36 73 82 73z" />
    <glyph glyph-name="uniFEA0" unicode="&#x62c;" horiz-adv-x="615" arabic-form="medial" 
d="M524 128h111v-128h-635v128h398c13 48 21 107 21 153c0 110 -65 176 -167 176c-57 0 -98 -12 -157 -48l-46 117c71 37 139 59 211 59c183 0 279 -118 279 -310c0 -47 -6 -98 -15 -147zM271 -100c44 0 80 -29 80 -73c0 -49 -38 -74 -80 -74c-43 0 -82 25 -82 74
c0 44 36 73 82 73z" />
    <glyph glyph-name="uniFE9F" unicode="&#x62c;" horiz-adv-x="589" arabic-form="initial" 
d="M260 585c183 0 279 -118 279 -310c0 -92 -23 -202 -44 -275h-495v128h398c13 48 21 107 21 153c0 110 -65 176 -167 176c-57 0 -98 -12 -157 -48l-46 117c71 37 139 59 211 59zM271 -100c44 0 80 -29 80 -73c0 -49 -38 -74 -80 -74c-43 0 -82 25 -82 74c0 44 36 73 82 73
z" />
    <glyph glyph-name="uniFB7B" unicode="&#x686;" horiz-adv-x="740" arabic-form="final" 
d="M649 128h111v-128h-409c-83 0 -133 -29 -178 -96l-48 -68l-100 74l60 82c66 96 139 136 255 136h183c13 48 21 107 21 153c0 110 -65 176 -167 176c-57 0 -98 -12 -157 -48l-46 117c71 37 139 59 211 59c183 0 279 -118 279 -310c0 -47 -6 -98 -15 -147zM426 -185
c0 -46 -37 -71 -78 -71c-40 0 -77 25 -77 71c0 42 34 70 77 70c44 0 78 -28 78 -70zM543 -115c44 0 77 -28 77 -70c0 -46 -36 -71 -77 -71s-77 25 -77 71c0 42 33 70 77 70zM446 -264c39 0 68 -25 68 -61c0 -41 -30 -62 -68 -62c-35 0 -68 21 -68 62c0 36 29 61 68 61z" />
    <glyph glyph-name="uniFB7D" unicode="&#x686;" horiz-adv-x="615" arabic-form="medial" 
d="M524 128h111v-128h-635v128h398c13 48 21 107 21 153c0 110 -65 176 -167 176c-57 0 -98 -12 -157 -48l-46 117c71 37 139 59 211 59c183 0 279 -118 279 -310c0 -47 -6 -98 -15 -147zM251 -178c0 -46 -37 -71 -78 -71c-40 0 -77 25 -77 71c0 42 34 70 77 70
c44 0 78 -28 78 -70zM368 -108c44 0 77 -28 77 -70c0 -46 -36 -71 -77 -71s-77 25 -77 71c0 42 33 70 77 70zM271 -257c39 0 68 -25 68 -61c0 -41 -30 -62 -68 -62c-35 0 -68 21 -68 62c0 36 29 61 68 61z" />
    <glyph glyph-name="uniFB7C" unicode="&#x686;" horiz-adv-x="589" arabic-form="initial" 
d="M260 585c183 0 279 -118 279 -310c0 -92 -23 -202 -44 -275h-495v128h398c13 48 21 107 21 153c0 110 -65 176 -167 176c-57 0 -98 -12 -157 -48l-46 117c71 37 139 59 211 59zM251 -178c0 -46 -37 -71 -78 -71c-40 0 -77 25 -77 71c0 42 34 70 77 70c44 0 78 -28 78 -70
zM368 -108c44 0 77 -28 77 -70c0 -46 -36 -71 -77 -71s-77 25 -77 71c0 42 33 70 77 70zM271 -257c39 0 68 -25 68 -61c0 -41 -30 -62 -68 -62c-35 0 -68 21 -68 62c0 36 29 61 68 61z" />
    <glyph glyph-name="uniFEA2" unicode="&#x62d;" horiz-adv-x="666" arabic-form="final" 
d="M575 128h111v-128h-369c-62 0 -92 -22 -118 -87l-58 -143l-116 44l65 161c45 112 103 153 216 153h143c13 48 21 107 21 153c0 110 -65 176 -167 176c-57 0 -98 -12 -157 -48l-46 117c71 37 139 59 211 59c183 0 279 -118 279 -310c0 -47 -6 -98 -15 -147z" />
    <glyph glyph-name="uniFEA4" unicode="&#x62d;" horiz-adv-x="615" arabic-form="medial" 
d="M524 128h111v-128h-635v128h398c13 48 21 107 21 153c0 110 -65 176 -167 176c-57 0 -98 -12 -157 -48l-46 117c71 37 139 59 211 59c183 0 279 -118 279 -310c0 -47 -6 -98 -15 -147z" />
    <glyph glyph-name="uniFEA3" unicode="&#x62d;" horiz-adv-x="589" arabic-form="initial" 
d="M260 585c183 0 279 -118 279 -310c0 -92 -23 -202 -44 -275h-495v128h398c13 48 21 107 21 153c0 110 -65 176 -167 176c-57 0 -98 -12 -157 -48l-46 117c71 37 139 59 211 59z" />
    <glyph glyph-name="uniFEA6" unicode="&#x62e;" horiz-adv-x="666" arabic-form="final" 
d="M330 690c-43 0 -82 25 -82 74c0 44 36 73 82 73c44 0 80 -29 80 -73c0 -49 -38 -74 -80 -74zM575 128h111v-128h-369c-62 0 -92 -22 -118 -87l-58 -143l-116 44l65 161c45 112 103 153 216 153h143c13 48 21 107 21 153c0 110 -65 176 -167 176c-57 0 -98 -12 -157 -48
l-46 117c71 37 139 59 211 59c183 0 279 -118 279 -310c0 -47 -6 -98 -15 -147z" />
    <glyph glyph-name="uniFEA8" unicode="&#x62e;" horiz-adv-x="615" arabic-form="medial" 
d="M266 690c-43 0 -82 25 -82 74c0 44 36 73 82 73c44 0 80 -29 80 -73c0 -49 -38 -74 -80 -74zM524 128h111v-128h-635v128h398c13 48 21 107 21 153c0 110 -65 176 -167 176c-57 0 -98 -12 -157 -48l-46 117c71 37 139 59 211 59c183 0 279 -118 279 -310
c0 -47 -6 -98 -15 -147z" />
    <glyph glyph-name="uniFEA7" unicode="&#x62e;" horiz-adv-x="589" arabic-form="initial" 
d="M266 690c-43 0 -82 25 -82 74c0 44 36 73 82 73c44 0 80 -29 80 -73c0 -49 -38 -74 -80 -74zM260 585c183 0 279 -118 279 -310c0 -92 -23 -202 -44 -275h-495v128h398c13 48 21 107 21 153c0 110 -65 176 -167 176c-57 0 -98 -12 -157 -48l-46 117c71 37 139 59 211 59z
" />
    <glyph glyph-name="uniFEAA" unicode="&#x62f;" horiz-adv-x="596" arabic-form="final" 
d="M498 128h118v-128h-591v128h353v172c0 93 -45 138 -133 138h-43v127h25c187 0 271 -94 271 -277v-160z" />
    <glyph glyph-name="uniFEAC" unicode="&#x630;" horiz-adv-x="596" arabic-form="final" 
d="M238 670c-43 0 -82 25 -82 74c0 44 36 73 82 73c44 0 80 -29 80 -73c0 -49 -38 -74 -80 -74zM498 128h118v-128h-591v128h353v172c0 93 -45 138 -133 138h-43v127h25c187 0 271 -94 271 -277v-160z" />
    <glyph glyph-name="uniFB89" unicode="&#x688;" horiz-adv-x="596" arabic-form="final" 
d="M359 711v-75h-245v213h95v-35h43c64 0 107 -41 107 -103zM264 711v12c0 13 -8 21 -21 21h-34v-33h55zM498 128h118v-128h-591v128h353v172c0 93 -45 138 -133 138h-43v127h25c187 0 271 -94 271 -277v-160z" />
    <glyph glyph-name="uniFEAE" unicode="&#x631;" horiz-adv-x="374" arabic-form="final" 
d="M394 128v-128h-113c-6 -170 -76 -220 -206 -220c-28 0 -56 3 -81 9l-13 111c33 -3 55 -5 81 -5c54 0 91 28 91 107v563h128v-437h113z" />
    <glyph glyph-name="uniFEB0" unicode="&#x632;" horiz-adv-x="374" arabic-form="final" 
d="M219 670c-43 0 -82 25 -82 74c0 44 36 73 82 73c44 0 80 -29 80 -73c0 -49 -38 -74 -80 -74zM394 128v-128h-113c-6 -170 -76 -220 -206 -220c-28 0 -56 3 -81 9l-13 111c33 -3 55 -5 81 -5c54 0 91 28 91 107v563h128v-437h113z" />
    <glyph glyph-name="uniFB8D" unicode="&#x691;" horiz-adv-x="374" arabic-form="final" 
d="M340 711v-75h-245v213h95v-35h43c64 0 107 -41 107 -103zM245 711v12c0 13 -8 21 -21 21h-34v-33h55zM394 128v-128h-113c-6 -170 -76 -220 -206 -220c-28 0 -56 3 -81 9l-13 111c33 -3 55 -5 81 -5c54 0 91 28 91 107v563h128v-437h113z" />
    <glyph glyph-name="uniFB8B" unicode="&#x698;" horiz-adv-x="374" arabic-form="final" 
d="M218 812c-35 0 -68 21 -68 62c0 36 29 61 68 61s68 -25 68 -61c0 -41 -32 -62 -68 -62zM120 665c-40 0 -77 24 -77 71c0 42 34 70 77 70c44 0 78 -28 78 -70c0 -47 -37 -71 -78 -71zM238 736c0 42 33 70 77 70s77 -28 77 -70c0 -47 -36 -71 -77 -71s-77 24 -77 71z
M394 128v-128h-113c-6 -170 -76 -220 -206 -220c-28 0 -56 3 -81 9l-13 111c33 -3 55 -5 81 -5c54 0 91 28 91 107v563h128v-437h113z" />
    <glyph glyph-name="uniFEB2" unicode="&#x633;" horiz-adv-x="1488" arabic-form="final" 
d="M1354 287c0 -110 53 -159 154 -159v-128c-93 0 -163 33 -196 91c-41 -67 -114 -101 -220 -101c-96 0 -174 42 -206 114c-39 -66 -109 -104 -205 -104h-82v-125h-240c-200 0 -309 105 -309 293v329h128v-313c0 -130 80 -181 201 -181h92v494h128v-369h81
c74 0 151 37 151 142v227h128v-245c0 -83 53 -134 133 -134c84 0 134 48 134 142v311h128v-284z" />
    <glyph glyph-name="uniFEB4" unicode="&#x633;" horiz-adv-x="1139" arabic-form="medial" 
d="M1005 287c0 -110 53 -159 154 -159v-128c-93 0 -163 33 -196 91c-41 -67 -114 -101 -220 -101c-96 0 -174 42 -206 114c-39 -66 -109 -104 -205 -104h-332v128h123v369h127v-369h81c74 0 151 37 151 142v227h128v-245c0 -83 53 -134 133 -134c84 0 134 48 134 142v311
h128v-284z" />
    <glyph glyph-name="uniFEB3" unicode="&#x633;" horiz-adv-x="1060" arabic-form="initial" 
d="M877 571h128v-298c0 -189 -84 -283 -262 -283c-96 0 -174 42 -206 114c-39 -66 -109 -104 -205 -104h-332v128h123v369h127v-369h81c74 0 151 37 151 142v227h128v-245c0 -83 53 -134 133 -134c84 0 134 48 134 142v311z" />
    <glyph glyph-name="uniFEB6" unicode="&#x634;" horiz-adv-x="1488" arabic-form="final" 
d="M897 744c-35 0 -68 21 -68 62c0 36 29 61 68 61s68 -25 68 -61c0 -41 -32 -62 -68 -62zM799 597c-40 0 -77 24 -77 71c0 42 34 70 77 70c44 0 78 -28 78 -70c0 -47 -37 -71 -78 -71zM917 668c0 42 33 70 77 70s77 -28 77 -70c0 -47 -36 -71 -77 -71s-77 24 -77 71z
M1354 287c0 -110 53 -159 154 -159v-128c-93 0 -163 33 -196 91c-41 -67 -114 -101 -220 -101c-96 0 -174 42 -206 114c-39 -66 -109 -104 -205 -104h-82v-125h-240c-200 0 -309 105 -309 293v329h128v-313c0 -130 80 -181 201 -181h92v494h128v-369h81c74 0 151 37 151 142
v227h128v-245c0 -83 53 -134 133 -134c84 0 134 48 134 142v311h128v-284z" />
    <glyph glyph-name="uniFEB8" unicode="&#x634;" horiz-adv-x="1139" arabic-form="medial" 
d="M545 744c-35 0 -68 21 -68 62c0 36 29 61 68 61s68 -25 68 -61c0 -41 -32 -62 -68 -62zM447 597c-40 0 -77 24 -77 71c0 42 34 70 77 70c44 0 78 -28 78 -70c0 -47 -37 -71 -78 -71zM565 668c0 42 33 70 77 70s77 -28 77 -70c0 -47 -36 -71 -77 -71s-77 24 -77 71z
M1005 287c0 -110 53 -159 154 -159v-128c-93 0 -163 33 -196 91c-41 -67 -114 -101 -220 -101c-96 0 -174 42 -206 114c-39 -66 -109 -104 -205 -104h-332v128h123v369h127v-369h81c74 0 151 37 151 142v227h128v-245c0 -83 53 -134 133 -134c84 0 134 48 134 142v311h128
v-284z" />
    <glyph glyph-name="uniFEB7" unicode="&#x634;" horiz-adv-x="1060" arabic-form="initial" 
d="M545 744c-35 0 -68 21 -68 62c0 36 29 61 68 61s68 -25 68 -61c0 -41 -32 -62 -68 -62zM447 597c-40 0 -77 24 -77 71c0 42 34 70 77 70c44 0 78 -28 78 -70c0 -47 -37 -71 -78 -71zM565 668c0 42 33 70 77 70s77 -28 77 -70c0 -47 -36 -71 -77 -71s-77 24 -77 71z
M877 571h128v-298c0 -189 -84 -283 -262 -283c-96 0 -174 42 -206 114c-39 -66 -109 -104 -205 -104h-332v128h123v369h127v-369h81c74 0 151 37 151 142v227h128v-245c0 -83 53 -134 133 -134c84 0 134 48 134 142v311z" />
    <glyph glyph-name="uniFEBA" unicode="&#x635;" horiz-adv-x="1232" arabic-form="final" 
d="M1134 128h118v-128h-653v-125h-240c-200 0 -309 105 -309 293v329h128v-313c0 -130 80 -181 201 -181h92v617h128v-55h230c198 0 306 -106 306 -297zM1006 128l1 161c0 102 -66 148 -167 149h-241v-310h407z" />
    <glyph glyph-name="uniFEBC" unicode="&#x635;" horiz-adv-x="859" arabic-form="medial" 
d="M761 128h118v-128h-879v128h98v492h128v-55h230c198 0 306 -106 306 -297zM633 128l1 161c0 102 -66 148 -167 149h-241v-310h407z" />
    <glyph glyph-name="uniFEBB" unicode="&#x635;" horiz-adv-x="816" arabic-form="initial" 
d="M456 565c198 0 306 -106 306 -297l-1 -268h-761v128h98v492h128v-55h230zM633 128l1 161c0 102 -66 148 -167 149h-241v-310h407z" />
    <glyph glyph-name="uniFEBE" unicode="&#x636;" horiz-adv-x="1232" arabic-form="final" 
d="M827 670c-43 0 -82 25 -82 74c0 44 36 73 82 73c44 0 80 -29 80 -73c0 -49 -38 -74 -80 -74zM1134 128h118v-128h-653v-125h-240c-200 0 -309 105 -309 293v329h128v-313c0 -130 80 -181 201 -181h92v617h128v-55h230c198 0 306 -106 306 -297zM1006 128l1 161
c0 102 -66 148 -167 149h-241v-310h407z" />
    <glyph glyph-name="uniFEC0" unicode="&#x636;" horiz-adv-x="859" arabic-form="medial" 
d="M438 670c-43 0 -82 25 -82 74c0 44 36 73 82 73c44 0 80 -29 80 -73c0 -49 -38 -74 -80 -74zM761 128h118v-128h-879v128h98v492h128v-55h230c198 0 306 -106 306 -297zM633 128l1 161c0 102 -66 148 -167 149h-241v-310h407z" />
    <glyph glyph-name="uniFEBF" unicode="&#x636;" horiz-adv-x="816" arabic-form="initial" 
d="M438 670c-43 0 -82 25 -82 74c0 44 36 73 82 73c44 0 80 -29 80 -73c0 -49 -38 -74 -80 -74zM456 565c198 0 306 -106 306 -297l-1 -268h-761v128h98v492h128v-55h230zM633 128l1 161c0 102 -66 148 -167 149h-241v-310h407z" />
    <glyph glyph-name="uniFEC2" unicode="&#x637;" horiz-adv-x="909" arabic-form="final" 
d="M811 128h118v-128h-904l25 128h98v492h1v191h127v-246h230c198 0 306 -106 306 -297zM683 128l1 161c0 102 -66 148 -167 149h-241v-310h407z" />
    <glyph glyph-name="uniFEC4" unicode="&#x637;" horiz-adv-x="864" arabic-form="medial" 
d="M766 128h118v-128h-884v128h103v690h127v-198h1v-55h230c198 0 306 -106 306 -297zM638 128l1 161c0 102 -66 148 -167 149h-241v-310h407z" />
    <glyph glyph-name="uniFEC3" unicode="&#x637;" horiz-adv-x="821" arabic-form="initial" 
d="M461 565c198 0 306 -106 306 -297l-1 -268h-766v128h103v690h127v-198h1v-55h230zM638 128l1 161c0 102 -66 148 -167 149h-241v-310h407z" />
    <glyph glyph-name="uniFEC6" unicode="&#x638;" horiz-adv-x="909" arabic-form="final" 
d="M519 670c-43 0 -82 25 -82 74c0 44 36 73 82 73c44 0 80 -29 80 -73c0 -49 -38 -74 -80 -74zM811 128h118v-128h-904l25 128h98v492h1v191h127v-246h230c198 0 306 -106 306 -297zM683 128l1 161c0 102 -66 148 -167 149h-241v-310h407z" />
    <glyph glyph-name="uniFEC8" unicode="&#x638;" horiz-adv-x="864" arabic-form="medial" 
d="M766 128h118v-128h-884v128h103v690h127v-198h1v-55h230c198 0 306 -106 306 -297zM474 670c-43 0 -82 25 -82 74c0 44 36 73 82 73c44 0 80 -29 80 -73c0 -49 -38 -74 -80 -74zM638 128l1 161c0 102 -66 148 -167 149h-241v-310h407z" />
    <glyph glyph-name="uniFEC7" unicode="&#x638;" horiz-adv-x="821" arabic-form="initial" 
d="M461 565c198 0 306 -106 306 -297l-1 -268h-766v128h103v690h127v-198h1v-55h230zM474 670c-43 0 -82 25 -82 74c0 44 36 73 82 73c44 0 80 -29 80 -73c0 -49 -38 -74 -80 -74zM638 128l1 161c0 102 -66 148 -167 149h-241v-310h407z" />
    <glyph glyph-name="uniFECA" unicode="&#x639;" horiz-adv-x="766" arabic-form="final" 
d="M786 128v-128h-469c-62 0 -92 -22 -118 -87l-58 -143l-116 44l65 161c34 85 76 130 144 146l-127 336c92 81 195 128 308 128c115 0 214 -47 309 -129l-122 -328h184zM477 128l106 264c-52 43 -110 65 -168 65c-55 0 -114 -22 -168 -65l104 -264h126z" />
    <glyph glyph-name="uniFECC" unicode="&#x639;" horiz-adv-x="700" arabic-form="medial" 
d="M720 128v-128h-720v128h166l-125 329c92 81 195 128 308 128c115 0 214 -47 309 -129l-122 -328h184zM411 128l106 264c-52 43 -110 65 -168 65c-55 0 -114 -22 -168 -65l104 -264h126z" />
    <glyph glyph-name="uniFECB" unicode="&#x639;" horiz-adv-x="620" arabic-form="initial" 
d="M254 128h316v-128h-570v128h115c-28 78 -40 139 -40 190c0 171 110 267 268 267c59 0 131 -18 207 -51l-42 -118c-59 27 -107 42 -156 42c-91 0 -156 -60 -156 -162c0 -52 20 -112 58 -168z" />
    <glyph glyph-name="uniFECE" unicode="&#x63a;" horiz-adv-x="766" arabic-form="final" 
d="M416 690c-43 0 -82 25 -82 74c0 44 36 73 82 73c44 0 80 -29 80 -73c0 -49 -38 -74 -80 -74zM786 128v-128h-469c-62 0 -92 -22 -118 -87l-58 -143l-116 44l65 161c34 85 76 130 144 146l-127 336c92 81 195 128 308 128c115 0 214 -47 309 -129l-122 -328h184zM477 128
l106 264c-52 43 -110 65 -168 65c-55 0 -114 -22 -168 -65l104 -264h126z" />
    <glyph glyph-name="uniFED0" unicode="&#x63a;" horiz-adv-x="700" arabic-form="medial" 
d="M352 690c-43 0 -82 25 -82 74c0 44 36 73 82 73c44 0 80 -29 80 -73c0 -49 -38 -74 -80 -74zM720 128v-128h-720v128h166l-125 329c92 81 195 128 308 128c115 0 214 -47 309 -129l-122 -328h184zM411 128l106 264c-52 43 -110 65 -168 65c-55 0 -114 -22 -168 -65
l104 -264h126z" />
    <glyph glyph-name="uniFECF" unicode="&#x63a;" horiz-adv-x="620" arabic-form="initial" 
d="M344 690c-43 0 -82 25 -82 74c0 44 36 73 82 73c44 0 80 -29 80 -73c0 -49 -38 -74 -80 -74zM254 128h316v-128h-570v128h115c-28 78 -40 139 -40 190c0 171 110 267 268 267c59 0 131 -18 207 -51l-42 -118c-59 27 -107 42 -156 42c-91 0 -156 -60 -156 -162
c0 -52 20 -112 58 -168z" />
    <glyph glyph-name="uniFED2" unicode="&#x641;" horiz-adv-x="1051" arabic-form="final" 
d="M755 670c-43 0 -82 25 -82 74c0 44 36 73 82 73c44 0 80 -29 80 -73c0 -49 -38 -74 -80 -74zM953 128h118v-128h-124h-4h-165h-419c-211 0 -309 105 -309 298v183h128v-170c0 -130 80 -183 208 -183h124c-27 43 -42 94 -42 153v1c0 170 130 283 327 283h158v-437z
M768 128h58v310h-58c-104 0 -179 -58 -179 -156v-1c0 -95 76 -153 179 -153z" />
    <glyph glyph-name="uniFED4" unicode="&#x641;" horiz-adv-x="666" arabic-form="medial" 
d="M415 670c-43 0 -82 25 -82 74c0 44 36 73 82 73c44 0 80 -29 80 -73c0 -49 -38 -74 -80 -74zM568 128h118v-128h-124h-4h-165h-393v128h125c-27 43 -42 94 -42 153v1c0 170 130 283 327 283h158v-437zM383 128h58v310h-58c-104 0 -179 -58 -179 -156v-1
c0 -95 76 -153 179 -153z" />
    <glyph glyph-name="uniFED3" unicode="&#x641;" horiz-adv-x="633" arabic-form="initial" 
d="M415 670c-43 0 -82 25 -82 74c0 44 36 73 82 73c44 0 80 -29 80 -73c0 -49 -38 -74 -80 -74zM410 565h158v-565h-6h-169h-393v128h125c-27 43 -42 94 -42 153v1c0 170 130 283 327 283zM383 128h58v310h-58c-104 0 -179 -58 -179 -156v-1c0 -95 76 -153 179 -153z" />
    <glyph glyph-name="uniFB6B" unicode="&#x6a4;" horiz-adv-x="1051" arabic-form="final" 
d="M754 812c-35 0 -68 21 -68 62c0 36 29 61 68 61s68 -25 68 -61c0 -41 -32 -62 -68 -62zM656 665c-40 0 -77 24 -77 71c0 42 34 70 77 70c44 0 78 -28 78 -70c0 -47 -37 -71 -78 -71zM774 736c0 42 33 70 77 70s77 -28 77 -70c0 -47 -36 -71 -77 -71s-77 24 -77 71z
M953 128h118v-128h-124h-4h-165h-419c-211 0 -309 105 -309 298v183h128v-170c0 -130 80 -183 208 -183h124c-27 43 -42 94 -42 153v1c0 170 130 283 327 283h158v-437zM768 128h58v310h-58c-104 0 -179 -58 -179 -156v-1c0 -95 76 -153 179 -153z" />
    <glyph glyph-name="uniFB6D" unicode="&#x6a4;" horiz-adv-x="666" arabic-form="medial" 
d="M414 812c-35 0 -68 21 -68 62c0 36 29 61 68 61s68 -25 68 -61c0 -41 -32 -62 -68 -62zM316 665c-40 0 -77 24 -77 71c0 42 34 70 77 70c44 0 78 -28 78 -70c0 -47 -37 -71 -78 -71zM434 736c0 42 33 70 77 70s77 -28 77 -70c0 -47 -36 -71 -77 -71s-77 24 -77 71z
M568 128h118v-128h-124h-4h-165h-393v128h125c-27 43 -42 94 -42 153v1c0 170 130 283 327 283h158v-437zM383 128h58v310h-58c-104 0 -179 -58 -179 -156v-1c0 -95 76 -153 179 -153z" />
    <glyph glyph-name="uniFB6C" unicode="&#x6a4;" horiz-adv-x="633" arabic-form="initial" 
d="M414 812c-35 0 -68 21 -68 62c0 36 29 61 68 61s68 -25 68 -61c0 -41 -32 -62 -68 -62zM316 665c-40 0 -77 24 -77 71c0 42 34 70 77 70c44 0 78 -28 78 -70c0 -47 -37 -71 -78 -71zM511 806c44 0 77 -28 77 -70c0 -47 -36 -71 -77 -71s-77 24 -77 71c0 42 33 70 77 70z
M83 282c0 170 130 283 327 283h158v-565h-6h-169h-393v128h125c-27 43 -42 94 -42 153v1zM441 128v310h-58c-104 0 -179 -58 -179 -156v-1c0 -95 76 -153 179 -153h58z" />
    <glyph glyph-name="uni06A1.init" unicode="&#x6a1;" horiz-adv-x="633" 
d="M410 565h158v-565h-6h-169h-393v128h125c-27 43 -42 94 -42 153v1c0 170 130 283 327 283zM383 128h58v310h-58c-104 0 -179 -58 -179 -156v-1c0 -95 76 -153 179 -153z" />
    <glyph glyph-name="uni06A1.medi" unicode="&#x6a1;" horiz-adv-x="666" 
d="M568 128h118v-128h-124h-4h-165h-393v128h125c-27 43 -42 94 -42 153v1c0 170 130 283 327 283h158v-437zM383 128h58v310h-58c-104 0 -179 -58 -179 -156v-1c0 -95 76 -153 179 -153z" />
    <glyph glyph-name="uni06A1.fina" unicode="&#x6a1;" horiz-adv-x="1051" 
d="M953 128h118v-128h-124h-4h-165h-419c-211 0 -309 105 -309 298v183h128v-170c0 -130 80 -183 208 -183h124c-27 43 -42 94 -42 153v1c0 170 130 283 327 283h158v-437zM768 128h58v310h-58c-104 0 -179 -58 -179 -156v-1c0 -95 76 -153 179 -153z" />
    <glyph glyph-name="uni066F.fina" unicode="&#x66f;" horiz-adv-x="900" 
d="M920 128v-128h-118v-220h-443c-208 0 -309 100 -309 298v212h128v-199c0 -133 84 -184 208 -184h80v1h209v113h-48c-184 0 -310 94 -310 260v1c0 170 130 283 327 283h158v-437h118zM617 128h58v310h-58c-104 0 -179 -58 -179 -156v-1c0 -95 76 -153 179 -153z" />
    <glyph glyph-name="uniFED6" unicode="&#x642;" horiz-adv-x="900" arabic-form="final" 
d="M516 665c-42 0 -80 25 -80 73c0 43 35 73 80 73s80 -30 80 -73c0 -48 -37 -73 -80 -73zM716 665c-42 0 -80 25 -80 73c0 43 35 73 80 73c46 0 80 -30 80 -73c0 -48 -37 -73 -80 -73zM920 128v-128h-118v-220h-443c-208 0 -309 100 -309 298v212h128v-199
c0 -133 84 -184 208 -184h80v1h209v113h-48c-184 0 -310 94 -310 260v1c0 170 130 283 327 283h158v-437h118zM617 128h58v310h-58c-104 0 -179 -58 -179 -156v-1c0 -95 76 -153 179 -153z" />
    <glyph glyph-name="uniFED8" unicode="&#x642;" horiz-adv-x="666" arabic-form="medial" 
d="M313 665c-42 0 -80 25 -80 73c0 43 35 73 80 73s80 -30 80 -73c0 -48 -37 -73 -80 -73zM513 665c-42 0 -80 25 -80 73c0 43 35 73 80 73c46 0 80 -30 80 -73c0 -48 -37 -73 -80 -73zM568 128h118v-128h-124h-4h-165h-393v128h125c-27 43 -42 94 -42 153v1
c0 170 130 283 327 283h158v-437zM383 128h58v310h-58c-104 0 -179 -58 -179 -156v-1c0 -95 76 -153 179 -153z" />
    <glyph glyph-name="uniFED7" unicode="&#x642;" horiz-adv-x="633" arabic-form="initial" 
d="M313 665c-42 0 -80 25 -80 73c0 43 35 73 80 73s80 -30 80 -73c0 -48 -37 -73 -80 -73zM513 811c46 0 80 -30 80 -73c0 -48 -37 -73 -80 -73c-42 0 -80 25 -80 73c0 43 35 73 80 73zM83 282c0 170 130 283 327 283h158v-565h-6h-169h-393v128h125c-27 43 -42 94 -42 153
v1zM441 128v310h-58c-104 0 -179 -58 -179 -156v-1c0 -95 76 -153 179 -153h58z" />
    <glyph glyph-name="uniFEDA" unicode="&#x643;" horiz-adv-x="863" arabic-form="final" 
d="M768 128h115v-128h-524c-211 0 -309 105 -309 298v183h128v-170c0 -130 80 -183 208 -183h255v683h127v-683zM534 573v-98h-222v123c0 70 44 115 114 115h72v-74h-64c-25 0 -40 -14 -40 -38v-28h140z" />
    <glyph glyph-name="uniFEDC" unicode="&#x643;" horiz-adv-x="727" arabic-form="medial" 
d="M629 128h118v-128h-747v128h500v136c0 87 -49 129 -128 129h-278c-20 28 -40 73 -41 127l151 291h156l-164 -291h161c180 0 272 -88 272 -277v-115z" />
    <glyph glyph-name="uniFEDB" unicode="&#x643;" horiz-adv-x="684" arabic-form="initial" 
d="M0 0v128h500v136c0 87 -49 129 -128 129h-278c-20 28 -40 73 -41 127l151 291h156l-164 -291h161c180 0 272 -88 272 -277v-243h-629z" />
    <glyph glyph-name="uniFB8F" unicode="&#x6a9;" horiz-adv-x="983" arabic-form="final" 
d="M885 128h118v-128h-644c-211 0 -309 105 -309 298v183h128v-170c0 -130 80 -183 208 -183h370v136c0 87 -48 129 -127 129h-241c-21 28 -40 73 -42 127l152 292h155l-163 -292h124c180 0 271 -88 271 -277v-115z" />
    <glyph glyph-name="uniFB91" unicode="&#x6a9;" horiz-adv-x="727" arabic-form="medial" 
d="M629 128h118v-128h-747v128h500v136c0 87 -49 129 -128 129h-278c-20 28 -40 73 -41 127l151 291h156l-164 -291h161c180 0 272 -88 272 -277v-115z" />
    <glyph glyph-name="uniFB90" unicode="&#x6a9;" horiz-adv-x="684" arabic-form="initial" 
d="M0 0v128h500v136c0 87 -49 129 -128 129h-278c-20 28 -40 73 -41 127l151 291h156l-164 -291h161c180 0 272 -88 272 -277v-243h-629z" />
    <glyph glyph-name="uniFB93" unicode="&#x6af;" horiz-adv-x="983" arabic-form="final" 
d="M885 128h118v-128h-644c-211 0 -309 105 -309 298v183h128v-170c0 -130 80 -183 208 -183h370v136c0 87 -48 129 -127 129h-241c-21 28 -40 73 -42 127l152 292h155l-163 -292h124c180 0 271 -88 271 -277v-115zM435 812l-164 -302l-127 -1l165 303h126z" />
    <glyph glyph-name="uniFB95" unicode="&#x6af;" horiz-adv-x="855" arabic-form="medial" 
d="M269 812l-164 -302l-127 -1l165 303h126zM757 128h118v-128h-875v128h628v136c0 87 -49 129 -128 129h-278c-20 28 -40 73 -41 127l151 291h156l-164 -291h161c180 0 272 -88 272 -277v-115z" />
    <glyph glyph-name="uniFB94" unicode="&#x6af;" horiz-adv-x="812" arabic-form="initial" 
d="M269 812l-164 -302l-127 -1l165 303h126zM485 520c180 0 272 -88 272 -277v-243h-757v128h628v136c0 87 -49 129 -128 129h-278c-20 28 -40 73 -41 127l151 291h156l-164 -291h161z" />
    <glyph glyph-name="uniFEDE" unicode="&#x644;" horiz-adv-x="697" arabic-form="final" 
d="M717 128v-128h-118v-125h-240c-200 0 -309 105 -309 293v329h128v-313c0 -130 80 -181 201 -181h92v494h1v314h127v-683h118z" />
    <glyph glyph-name="uniFEE0" unicode="&#x644;" horiz-adv-x="333" arabic-form="medial" 
d="M235 128h118v-128h-353v128h108v683h127v-683z" />
    <glyph glyph-name="uniFEDF" unicode="&#x644;" horiz-adv-x="360" arabic-form="initial" 
d="M151 811h127v-811h-288v128h161v683z" />
    <glyph glyph-name="uniFEE2" unicode="&#x645;" horiz-adv-x="923" arabic-form="final" 
d="M944 128v-128h-142c-49 -69 -129 -110 -227 -110h-1c-148 0 -252 90 -277 231c-81 -8 -119 -73 -119 -172v-169h-128v188c0 173 90 274 245 281c22 151 128 248 279 248h1c169 0 282 -123 282 -307v-1c0 -21 -2 -42 -5 -61h92zM730 192v1c0 106 -62 176 -155 176h-1
c-93 0 -156 -70 -156 -176v-1c0 -105 63 -174 156 -174h1c93 0 155 70 155 174z" />
    <glyph glyph-name="uniFEE4" unicode="&#x645;" horiz-adv-x="722" arabic-form="medial" 
d="M743 128v-128h-153c-49 -69 -129 -110 -227 -110h-1c-99 0 -179 41 -228 110h-134v128h84c-3 19 -5 40 -5 61v1c0 184 113 307 283 307h1c169 0 282 -123 282 -307v-1c0 -21 -2 -42 -5 -61h103zM518 192v1c0 106 -62 176 -155 176h-1c-93 0 -156 -70 -156 -176v-1
c0 -105 63 -174 156 -174h1c93 0 155 70 155 174z" />
    <glyph glyph-name="uniFEE3" unicode="&#x645;" horiz-adv-x="685" arabic-form="initial" 
d="M363 497c169 0 282 -123 282 -307v-1c0 -179 -113 -299 -282 -299h-1c-99 0 -179 41 -228 110h-134v128h84c-3 19 -5 40 -5 61v1c0 184 113 307 283 307h1zM518 192v1c0 106 -62 176 -155 176h-1c-93 0 -156 -70 -156 -176v-1c0 -105 63 -174 156 -174h1
c93 0 155 70 155 174z" />
    <glyph glyph-name="uniFEE6" unicode="&#x646;" horiz-adv-x="696" arabic-form="final" 
d="M328 602c-43 0 -82 25 -82 74c0 44 36 73 82 73c44 0 80 -29 80 -73c0 -49 -38 -74 -80 -74zM716 128v-128h-117v-125h-240c-200 0 -309 105 -309 293v329h128v-313c0 -130 80 -181 201 -181h92v494h128v-369h117z" />
    <glyph glyph-name="uniFEE8" unicode="&#x646;" horiz-adv-x="323" arabic-form="medial" 
d="M163 670c-43 0 -82 25 -82 74c0 44 36 73 82 73c44 0 80 -29 80 -73c0 -49 -38 -74 -80 -74zM225 128h118v-128h-343v128h98v437h127v-437z" />
    <glyph glyph-name="uniFEE7" unicode="&#x646;" horiz-adv-x="290" arabic-form="initial" 
d="M165 670c-43 0 -82 25 -82 74c0 44 36 73 82 73c44 0 80 -29 80 -73c0 -49 -38 -74 -80 -74zM0 0v128h98v437h127v-565h-225z" />
    <glyph glyph-name="uniFB9F" unicode="&#x6ba;" horiz-adv-x="697" arabic-form="final" 
d="M717 128v-128h-118v-125h-240c-200 0 -309 105 -309 293v329h128v-313c0 -130 80 -181 201 -181h92v494h128v-369h118z" />
    <glyph glyph-name="uniFEE9" unicode="&#x647;" horiz-adv-x="848" arabic-form="isolated" 
d="M416 678c228 0 407 -144 407 -412c0 -64 -11 -157 -31 -266h-767l25 128h116c-5 29 -8 63 -8 90c0 139 93 230 220 230c126 0 218 -90 218 -226c0 -28 -3 -63 -8 -94h96c7 52 10 88 10 129c0 195 -123 293 -298 293c-80 0 -150 -19 -226 -60l-45 115c97 48 200 73 291 73
zM285 204c0 -27 2 -53 7 -76h171c4 23 6 49 6 76c0 70 -37 116 -94 116c-54 0 -90 -46 -90 -116z" />
    <glyph glyph-name="uniFEEA" unicode="&#x647;" horiz-adv-x="633" arabic-form="final" 
d="M535 128h118v-128h-245h-48c-185 0 -310 112 -310 281v1c0 170 130 283 327 283h31v50h127v-487zM408 128v310h-58c-104 0 -179 -58 -179 -156v-1c0 -95 76 -153 179 -153h58z" />
    <glyph glyph-name="uniFEEC" unicode="&#x647;" horiz-adv-x="884" arabic-form="medial" 
d="M762 128h142v-128h-904v128h116c-5 29 -8 63 -8 90c0 139 93 230 220 230c126 0 218 -90 218 -226c0 -28 -3 -63 -8 -94h96c7 52 10 88 10 129c0 195 -123 293 -298 293c-80 0 -150 -19 -226 -60l-45 115c97 48 200 73 291 73c228 0 407 -144 407 -412
c0 -37 -4 -84 -11 -138zM235 204c0 -27 2 -53 7 -76h171c4 23 6 49 6 76c0 70 -37 116 -94 116c-54 0 -90 -46 -90 -116z" />
    <glyph glyph-name="uniFEEB" unicode="&#x647;" horiz-adv-x="822" arabic-form="initial" 
d="M366 678c228 0 407 -144 407 -412c0 -64 -11 -157 -31 -266h-742v128h116c-5 29 -8 63 -8 90c0 139 93 230 220 230c126 0 218 -90 218 -226c0 -28 -3 -63 -8 -94h96c7 52 10 88 10 129c0 195 -123 293 -298 293c-80 0 -150 -19 -226 -60l-45 115c97 48 200 73 291 73z
M235 204c0 -27 2 -53 7 -76h171c4 23 6 49 6 76c0 70 -37 116 -94 116c-54 0 -90 -46 -90 -116z" />
    <glyph glyph-name="uniFBA5" unicode="&#x6c0;" horiz-adv-x="633" arabic-form="final" 
d="M547 769v-98h-222v123c0 70 44 115 114 115h72v-74h-64c-25 0 -40 -14 -40 -38v-28h140zM535 128h118v-128h-245h-48c-185 0 -310 112 -310 281v1c0 170 130 283 327 283h31v50h127v-487zM408 128v310h-58c-104 0 -179 -58 -179 -156v-1c0 -95 76 -153 179 -153h58z" />
    <glyph glyph-name="uniFBA7" unicode="&#x6c1;" horiz-adv-x="603" arabic-form="final" 
d="M506 128h118v-128h-246v445h-72c-83 0 -124 -51 -123 -128v-170h-127l-1 147c0 183 96 271 273 271h178v-437z" />
    <glyph glyph-name="uniFBA9" unicode="&#x6c1;" horiz-adv-x="836" arabic-form="medial" 
d="M337 -220c-132 0 -228 65 -238 200v20h-99v128h93v288h127v-431c0 -84 45 -125 117 -125h70v268h449v-128h-321v-220h-198zM692 -222l-95 2l52 175l135 -1z" />
    <glyph glyph-name="uniFBA8" unicode="&#x6c1;" horiz-adv-x="388" arabic-form="initial" 
d="M0 0v128h196v437h127v-565h-323zM190 -222l-95 2l52 175l134 -1z" />
    <glyph glyph-name="uni06C2.fina" unicode="&#x6c2;" horiz-adv-x="603" 
d="M435 730v-98h-222v123c0 70 44 115 114 115h72v-74h-64c-25 0 -40 -14 -40 -38v-28h140zM506 128h118v-128h-246v445h-72c-83 0 -124 -51 -123 -128v-170h-127l-1 147c0 183 96 271 273 271h178v-437z" />
    <glyph glyph-name="uniFBAB" unicode="&#x6be;" horiz-adv-x="934" arabic-form="final" 
d="M812 128h142v-128h-929l25 128h116c-5 29 -8 63 -8 90c0 139 93 230 220 230c126 0 218 -90 218 -226c0 -28 -3 -63 -8 -94h96c7 52 10 88 10 129c0 195 -123 293 -298 293c-80 0 -150 -19 -226 -60l-45 115c97 48 200 73 291 73c228 0 407 -144 407 -412
c0 -37 -4 -84 -11 -138zM285 204c0 -27 2 -53 7 -76h171c4 23 6 49 6 76c0 70 -37 116 -94 116c-54 0 -90 -46 -90 -116z" />
    <glyph glyph-name="uniFBAD" unicode="&#x6be;" horiz-adv-x="884" arabic-form="medial" 
d="M762 128h142v-128h-904v128h116c-5 29 -8 63 -8 90c0 139 93 230 220 230c126 0 218 -90 218 -226c0 -28 -3 -63 -8 -94h96c7 52 10 88 10 129c0 195 -123 293 -298 293c-80 0 -150 -19 -226 -60l-45 115c97 48 200 73 291 73c228 0 407 -144 407 -412
c0 -37 -4 -84 -11 -138zM235 204c0 -27 2 -53 7 -76h171c4 23 6 49 6 76c0 70 -37 116 -94 116c-54 0 -90 -46 -90 -116z" />
    <glyph glyph-name="uniFBAC" unicode="&#x6be;" horiz-adv-x="822" arabic-form="initial" 
d="M366 678c228 0 407 -144 407 -412c0 -64 -11 -157 -31 -266h-742v128h116c-5 29 -8 63 -8 90c0 139 93 230 220 230c126 0 218 -90 218 -226c0 -28 -3 -63 -8 -94h96c7 52 10 88 10 129c0 195 -123 293 -298 293c-80 0 -150 -19 -226 -60l-45 115c97 48 200 73 291 73z
M235 204c0 -27 2 -53 7 -76h171c4 23 6 49 6 76c0 70 -37 116 -94 116c-54 0 -90 -46 -90 -116z" />
    <glyph glyph-name="uniFE94" unicode="&#x629;" horiz-adv-x="633" arabic-form="final" 
d="M261 691c-42 0 -80 25 -80 73c0 43 35 73 80 73s80 -30 80 -73c0 -48 -37 -73 -80 -73zM461 691c-42 0 -80 25 -80 73c0 43 35 73 80 73c46 0 80 -30 80 -73c0 -48 -37 -73 -80 -73zM535 128h118v-128h-245h-48c-185 0 -310 112 -310 281v1c0 170 130 283 327 283h31v50
h127v-487zM408 128v310h-58c-104 0 -179 -58 -179 -156v-1c0 -95 76 -153 179 -153h58z" />
    <glyph glyph-name="uni06C3.fina" unicode="&#x6c3;" horiz-adv-x="603" 
d="M223 666c-42 0 -80 25 -80 73c0 43 35 73 80 73s80 -30 80 -73c0 -48 -37 -73 -80 -73zM423 666c-42 0 -80 25 -80 73c0 43 35 73 80 73c46 0 80 -30 80 -73c0 -48 -37 -73 -80 -73zM506 128h118v-128h-246v445h-72c-83 0 -124 -51 -123 -128v-170h-127l-1 147
c0 183 96 271 273 271h178v-437z" />
    <glyph glyph-name="uniFEEE" unicode="&#x648;" horiz-adv-x="633" arabic-form="final" 
d="M653 128v-128h-119c-9 -167 -91 -220 -244 -220c-51 0 -97 6 -147 20l-26 135c58 -18 113 -27 168 -27c70 0 119 22 122 92h-47c-185 0 -310 112 -310 281v1c0 170 130 283 327 283h158v-437h118zM350 128h57v151h1v159h-58c-104 0 -179 -58 -179 -156v-1
c0 -95 76 -153 179 -153z" />
    <glyph glyph-name="uniFE86" unicode="&#x624;" horiz-adv-x="633" arabic-form="final" 
d="M489 729v-98h-222v123c0 70 44 115 114 115h72v-74h-64c-25 0 -40 -14 -40 -38v-28h140zM653 128v-128h-119c-9 -167 -91 -220 -244 -220c-51 0 -97 6 -147 20l-26 135c58 -18 113 -27 168 -27c70 0 119 22 122 92h-47c-185 0 -310 112 -310 281v1c0 170 130 283 327 283
h158v-437h118zM350 128h57v151h1v159h-58c-104 0 -179 -58 -179 -156v-1c0 -95 76 -153 179 -153z" />
    <glyph glyph-name="uniFEF0" unicode="&#x649;" horiz-adv-x="1083" arabic-form="final" 
d="M985 128h118v-128h-246v445h-80c-83 0 -123 -51 -122 -128v-442h-296c-208 0 -309 100 -309 298v212h128v-199c0 -133 84 -184 208 -184h141v292c-1 183 96 271 273 271h185v-437z" />
    <glyph glyph-name="uniFEF2" unicode="&#x64a;" horiz-adv-x="1083" arabic-form="final" 
d="M985 128h118v-128h-246v445h-80c-83 0 -123 -51 -122 -128v-442h-296c-208 0 -309 100 -309 298v212h128v-199c0 -133 84 -184 208 -184h141v292c-1 183 96 271 273 271h185v-437zM339 -225c45 0 80 -30 80 -73c0 -48 -37 -73 -80 -73c-42 0 -80 25 -80 73
c0 43 35 73 80 73zM539 -225c46 0 80 -30 80 -73c0 -48 -37 -73 -80 -73c-42 0 -80 25 -80 73c0 43 35 73 80 73z" />
    <glyph glyph-name="uniFEF4" unicode="&#x64a;" horiz-adv-x="443" arabic-form="medial" 
d="M463 128v-128h-463v128h158v437h127v-437h178zM126 -100c45 0 80 -30 80 -73c0 -48 -37 -73 -80 -73c-42 0 -80 25 -80 73c0 43 35 73 80 73zM326 -100c46 0 80 -30 80 -73c0 -48 -37 -73 -80 -73c-42 0 -80 25 -80 73c0 43 35 73 80 73z" />
    <glyph glyph-name="uniFEF3" unicode="&#x64a;" horiz-adv-x="388" arabic-form="initial" 
d="M0 0v128h196v437h127v-565h-323zM70 -246c-42 0 -80 25 -80 73c0 43 35 73 80 73s80 -30 80 -73c0 -48 -37 -73 -80 -73zM270 -246c-42 0 -80 25 -80 73c0 43 35 73 80 73c46 0 80 -30 80 -73c0 -48 -37 -73 -80 -73z" />
    <glyph glyph-name="uniFE8A" unicode="&#x626;" horiz-adv-x="1082" arabic-form="final" 
d="M917 733v-98h-222v123c0 70 44 115 114 115h72v-74h-64c-25 0 -40 -14 -40 -38v-28h140zM985 128h118v-128h-246v445h-80c-83 0 -123 -51 -122 -128v-442h-296c-208 0 -309 100 -309 298v212h128v-199c0 -133 84 -184 208 -184h141v292c-1 183 96 271 273 271h185v-437z
" />
    <glyph glyph-name="uniFE8C" unicode="&#x626;" horiz-adv-x="323" arabic-form="medial" 
d="M239 710v-75h-155v80c0 61 43 102 107 102h25v-70h-33c-14 0 -24 -10 -24 -25v-12h80zM225 128h118v-128h-343v128h98v437h127v-437z" />
    <glyph glyph-name="uniFE8B" unicode="&#x626;" horiz-adv-x="290" arabic-form="initial" 
d="M75 635v80c0 61 43 102 107 102h25v-70h-33c-14 0 -24 -10 -24 -25v-12h80v-75h-155zM0 0v128h98v437h127v-565h-225z" />
    <glyph glyph-name="uniFBFD" unicode="&#x6cc;" horiz-adv-x="1083" arabic-form="final" 
d="M985 128h118v-128h-246v445h-80c-83 0 -123 -51 -122 -128v-442h-296c-208 0 -309 100 -309 298v212h128v-199c0 -133 84 -184 208 -184h141v292c-1 183 96 271 273 271h185v-437z" />
    <glyph glyph-name="uniFBFF" unicode="&#x6cc;" horiz-adv-x="443" arabic-form="medial" 
d="M463 128v-128h-463v128h158v437h127v-437h178zM126 -100c45 0 80 -30 80 -73c0 -48 -37 -73 -80 -73c-42 0 -80 25 -80 73c0 43 35 73 80 73zM326 -100c46 0 80 -30 80 -73c0 -48 -37 -73 -80 -73c-42 0 -80 25 -80 73c0 43 35 73 80 73z" />
    <glyph glyph-name="uniFBFE" unicode="&#x6cc;" horiz-adv-x="388" arabic-form="initial" 
d="M0 0v128h196v437h127v-565h-323zM70 -246c-42 0 -80 25 -80 73c0 43 35 73 80 73s80 -30 80 -73c0 -48 -37 -73 -80 -73zM270 -246c-42 0 -80 25 -80 73c0 43 35 73 80 73c46 0 80 -30 80 -73c0 -48 -37 -73 -80 -73z" />
    <glyph glyph-name="uniFBAF" unicode="&#x6d2;" horiz-adv-x="762" arabic-form="final" 
d="M271 -220c-167 0 -246 61 -246 203v145h757v-128h-628v-25c0 -49 28 -67 86 -67h305v-128h-274z" />
    <glyph glyph-name="uniFBB1" unicode="&#x6d3;" horiz-adv-x="762" arabic-form="final" 
d="M257 234v123c0 70 44 115 114 115h72v-74h-64c-25 0 -40 -14 -40 -38v-28h140v-98h-222zM271 -220c-167 0 -246 61 -246 203v145h757v-128h-628v-25c0 -49 28 -67 86 -67h305v-128h-274z" />
    <glyph glyph-name="uni06D5.fina" unicode="&#x6d5;" horiz-adv-x="633" 
d="M535 128h118v-128h-245h-48c-185 0 -310 112 -310 281v1c0 170 130 283 327 283h31v50h127v-487zM408 128v310h-58c-104 0 -179 -58 -179 -156v-1c0 -95 76 -153 179 -153h58z" />
    <glyph glyph-name="uniFC6A" unicode="&#xfc6a;" horiz-adv-x="758" arabic-form="final" 
d="M756 128h22v-128h-22c-177 0 -269 97 -269 282v156h-206v-415c0 -189 -70 -243 -206 -243c-28 0 -56 3 -81 9l-13 111c33 -3 55 -5 81 -5c54 0 91 28 91 107v563h334v120h127v-411c0 -95 49 -146 142 -146zM434 -100c44 0 80 -29 80 -73c0 -49 -38 -74 -80 -74
c-43 0 -82 25 -82 74c0 44 36 73 82 73z" />
    <glyph glyph-name="uniFC6B" unicode="&#xfc6b;" horiz-adv-x="758" arabic-form="final" 
d="M219 670c-43 0 -82 25 -82 74c0 44 36 73 82 73c44 0 80 -29 80 -73c0 -49 -38 -74 -80 -74zM756 128h22v-128h-22c-177 0 -269 97 -269 282v156h-206v-415c0 -189 -70 -243 -206 -243c-28 0 -56 3 -81 9l-13 111c33 -3 55 -5 81 -5c54 0 91 28 91 107v563h334v120h127
v-411c0 -95 49 -146 142 -146zM434 -100c44 0 80 -29 80 -73c0 -49 -38 -74 -80 -74c-43 0 -82 25 -82 74c0 44 36 73 82 73z" />
    <glyph glyph-name="uniFC6D" unicode="&#xfc6d;" horiz-adv-x="1095" arabic-form="final" 
d="M328 602c-43 0 -82 25 -82 74c0 44 36 73 82 73c44 0 80 -29 80 -73c0 -49 -38 -74 -80 -74zM1093 128h22v-128h-22c-177 0 -269 97 -269 282v87h-225v-494h-240c-200 0 -309 105 -309 293v329h128v-313c0 -130 80 -181 201 -181h92v494h353v119h127v-342
c0 -95 49 -146 142 -146zM790 -100c44 0 80 -29 80 -73c0 -49 -38 -74 -80 -74c-43 0 -82 25 -82 74c0 44 36 73 82 73z" />
    <glyph glyph-name="uniFC6E" unicode="&#xfc6e;" horiz-adv-x="1188" arabic-form="final" 
d="M1186 128h22v-128h-22c-177 0 -269 97 -269 282v163h-117c-98 0 -146 -59 -146 -151v-419h-295c-208 0 -309 100 -309 298v212h128v-199c0 -133 84 -184 208 -184h141v292c0 183 95 271 272 271h118v120h127v-411c0 -95 49 -146 142 -146zM859 -100c44 0 80 -29 80 -73
c0 -49 -38 -74 -80 -74c-43 0 -82 25 -82 74c0 44 36 73 82 73z" />
    <glyph glyph-name="uniFC6F" unicode="&#xfc6f;" horiz-adv-x="1188" arabic-form="final" 
d="M1186 128h22v-128h-22c-177 0 -269 97 -269 282v163h-117c-98 0 -146 -59 -146 -151v-419h-295c-208 0 -309 100 -309 298v212h128v-199c0 -133 84 -184 208 -184h141v292c0 183 95 271 272 271h118v120h127v-411c0 -95 49 -146 142 -146zM859 -100c44 0 80 -29 80 -73
c0 -49 -38 -74 -80 -74c-43 0 -82 25 -82 74c0 44 36 73 82 73zM339 -225c45 0 80 -30 80 -73c0 -48 -37 -73 -80 -73c-42 0 -80 25 -80 73c0 43 35 73 80 73zM539 -225c46 0 80 -30 80 -73c0 -48 -37 -73 -80 -73c-42 0 -80 25 -80 73c0 43 35 73 80 73z" />
    <glyph glyph-name="uniFC70" unicode="&#xfc70;" horiz-adv-x="758" arabic-form="final" 
d="M451 785c-42 0 -80 25 -80 73c0 43 35 73 80 73s80 -30 80 -73c0 -48 -37 -73 -80 -73zM651 785c-42 0 -80 25 -80 73c0 43 35 73 80 73c46 0 80 -30 80 -73c0 -48 -37 -73 -80 -73zM756 128h22v-128h-22c-177 0 -269 97 -269 282v156h-206v-415
c0 -189 -70 -243 -206 -243c-28 0 -56 3 -81 9l-13 111c33 -3 55 -5 81 -5c54 0 91 28 91 107v563h334v120h127v-411c0 -95 49 -146 142 -146z" />
    <glyph glyph-name="uniFC71" unicode="&#xfc71;" horiz-adv-x="758" arabic-form="final" 
d="M451 785c-42 0 -80 25 -80 73c0 43 35 73 80 73s80 -30 80 -73c0 -48 -37 -73 -80 -73zM651 785c-42 0 -80 25 -80 73c0 43 35 73 80 73c46 0 80 -30 80 -73c0 -48 -37 -73 -80 -73zM210 670c-43 0 -82 25 -82 74c0 44 36 73 82 73c44 0 80 -29 80 -73
c0 -49 -38 -74 -80 -74zM756 128h22v-128h-22c-177 0 -269 97 -269 282v156h-206v-415c0 -189 -70 -243 -206 -243c-28 0 -56 3 -81 9l-13 111c33 -3 55 -5 81 -5c54 0 91 28 91 107v563h334v120h127v-411c0 -95 49 -146 142 -146z" />
    <glyph glyph-name="uniFC73" unicode="&#xfc73;" horiz-adv-x="1095" arabic-form="final" 
d="M788 716c-42 0 -80 25 -80 73c0 43 35 73 80 73s80 -30 80 -73c0 -48 -37 -73 -80 -73zM988 716c-42 0 -80 25 -80 73c0 43 35 73 80 73c46 0 80 -30 80 -73c0 -48 -37 -73 -80 -73zM328 602c-43 0 -82 25 -82 74c0 44 36 73 82 73c44 0 80 -29 80 -73
c0 -49 -38 -74 -80 -74zM1093 128h22v-128h-22c-177 0 -269 97 -269 282v87h-225v-494h-240c-200 0 -309 105 -309 293v329h128v-313c0 -130 80 -181 201 -181h92v494h353v119h127v-342c0 -95 49 -146 142 -146z" />
    <glyph glyph-name="uniFC74" unicode="&#xfc74;" horiz-adv-x="1188" arabic-form="final" 
d="M881 785c-42 0 -80 25 -80 73c0 43 35 73 80 73s80 -30 80 -73c0 -48 -37 -73 -80 -73zM1081 785c-42 0 -80 25 -80 73c0 43 35 73 80 73c46 0 80 -30 80 -73c0 -48 -37 -73 -80 -73zM1186 128h22v-128h-22c-177 0 -269 97 -269 282v163h-117c-98 0 -146 -59 -146 -151
v-419h-295c-208 0 -309 100 -309 298v212h128v-199c0 -133 84 -184 208 -184h141v292c0 183 95 271 272 271h118v120h127v-411c0 -95 49 -146 142 -146z" />
    <glyph glyph-name="uniFC75" unicode="&#xfc75;" horiz-adv-x="1188" arabic-form="final" 
d="M881 785c-42 0 -80 25 -80 73c0 43 35 73 80 73s80 -30 80 -73c0 -48 -37 -73 -80 -73zM1081 785c-42 0 -80 25 -80 73c0 43 35 73 80 73c46 0 80 -30 80 -73c0 -48 -37 -73 -80 -73zM1186 128h22v-128h-22c-177 0 -269 97 -269 282v163h-117c-98 0 -146 -59 -146 -151
v-419h-295c-208 0 -309 100 -309 298v212h128v-199c0 -133 84 -184 208 -184h141v292c0 183 95 271 272 271h118v120h127v-411c0 -95 49 -146 142 -146zM339 -225c45 0 80 -30 80 -73c0 -48 -37 -73 -80 -73c-42 0 -80 25 -80 73c0 43 35 73 80 73zM539 -225
c46 0 80 -30 80 -73c0 -48 -37 -73 -80 -73c-42 0 -80 25 -80 73c0 43 35 73 80 73z" />
    <glyph glyph-name="uniFC76" unicode="&#xfc76;" horiz-adv-x="758" arabic-form="final" 
d="M552 932c-35 0 -68 21 -68 62c0 36 29 61 68 61s68 -25 68 -61c0 -41 -32 -62 -68 -62zM454 785c-40 0 -77 24 -77 71c0 42 34 70 77 70c44 0 78 -28 78 -70c0 -47 -37 -71 -78 -71zM572 856c0 42 33 70 77 70s77 -28 77 -70c0 -47 -36 -71 -77 -71s-77 24 -77 71z
M756 128h22v-128h-22c-177 0 -269 97 -269 282v156h-206v-415c0 -189 -70 -243 -206 -243c-28 0 -56 3 -81 9l-13 111c33 -3 55 -5 81 -5c54 0 91 28 91 107v563h334v120h127v-411c0 -95 49 -146 142 -146z" />
    <glyph glyph-name="uniFC77" unicode="&#xfc77;" horiz-adv-x="758" arabic-form="final" 
d="M552 932c-35 0 -68 21 -68 62c0 36 29 61 68 61s68 -25 68 -61c0 -41 -32 -62 -68 -62zM454 785c-40 0 -77 24 -77 71c0 42 34 70 77 70c44 0 78 -28 78 -70c0 -47 -37 -71 -78 -71zM572 856c0 42 33 70 77 70s77 -28 77 -70c0 -47 -36 -71 -77 -71s-77 24 -77 71z
M210 670c-43 0 -82 25 -82 74c0 44 36 73 82 73c44 0 80 -29 80 -73c0 -49 -38 -74 -80 -74zM756 128h22v-128h-22c-177 0 -269 97 -269 282v156h-206v-415c0 -189 -70 -243 -206 -243c-28 0 -56 3 -81 9l-13 111c33 -3 55 -5 81 -5c54 0 91 28 91 107v563h334v120h127v-411
c0 -95 49 -146 142 -146z" />
    <glyph glyph-name="uniFC79" unicode="&#xfc79;" horiz-adv-x="1095" arabic-form="final" 
d="M889 863c-35 0 -68 21 -68 62c0 36 29 61 68 61s68 -25 68 -61c0 -41 -32 -62 -68 -62zM791 716c-40 0 -77 24 -77 71c0 42 34 70 77 70c44 0 78 -28 78 -70c0 -47 -37 -71 -78 -71zM909 787c0 42 33 70 77 70s77 -28 77 -70c0 -47 -36 -71 -77 -71s-77 24 -77 71z
M328 602c-43 0 -82 25 -82 74c0 44 36 73 82 73c44 0 80 -29 80 -73c0 -49 -38 -74 -80 -74zM1093 128h22v-128h-22c-177 0 -269 97 -269 282v87h-225v-494h-240c-200 0 -309 105 -309 293v329h128v-313c0 -130 80 -181 201 -181h92v494h353v119h127v-342
c0 -95 49 -146 142 -146z" />
    <glyph glyph-name="uniFC7A" unicode="&#xfc7a;" horiz-adv-x="1188" arabic-form="final" 
d="M982 932c-35 0 -68 21 -68 62c0 36 29 61 68 61s68 -25 68 -61c0 -41 -32 -62 -68 -62zM884 785c-40 0 -77 24 -77 71c0 42 34 70 77 70c44 0 78 -28 78 -70c0 -47 -37 -71 -78 -71zM1002 856c0 42 33 70 77 70s77 -28 77 -70c0 -47 -36 -71 -77 -71s-77 24 -77 71z
M1186 128h22v-128h-22c-177 0 -269 97 -269 282v163h-117c-98 0 -146 -59 -146 -151v-419h-295c-208 0 -309 100 -309 298v212h128v-199c0 -133 84 -184 208 -184h141v292c0 183 95 271 272 271h118v120h127v-411c0 -95 49 -146 142 -146z" />
    <glyph glyph-name="uniFC7B" unicode="&#xfc7b;" horiz-adv-x="1188" arabic-form="final" 
d="M982 932c-35 0 -68 21 -68 62c0 36 29 61 68 61s68 -25 68 -61c0 -41 -32 -62 -68 -62zM884 785c-40 0 -77 24 -77 71c0 42 34 70 77 70c44 0 78 -28 78 -70c0 -47 -37 -71 -78 -71zM1002 856c0 42 33 70 77 70s77 -28 77 -70c0 -47 -36 -71 -77 -71s-77 24 -77 71z
M1186 128h22v-128h-22c-177 0 -269 97 -269 282v163h-117c-98 0 -146 -59 -146 -151v-419h-295c-208 0 -309 100 -309 298v212h128v-199c0 -133 84 -184 208 -184h141v292c0 183 95 271 272 271h118v120h127v-411c0 -95 49 -146 142 -146zM339 -225c45 0 80 -30 80 -73
c0 -48 -37 -73 -80 -73c-42 0 -80 25 -80 73c0 43 35 73 80 73zM539 -225c46 0 80 -30 80 -73c0 -48 -37 -73 -80 -73c-42 0 -80 25 -80 73c0 43 35 73 80 73z" />
    <glyph glyph-name="uniFD0E" unicode="&#xfd0e;" horiz-adv-x="1458" arabic-form="isolated" 
d="M1276 571h127v-299c0 -193 -88 -282 -262 -282c-89 0 -153 33 -192 92c-37 -61 -101 -92 -203 -92c-171 0 -260 97 -260 282v97h-205v-346c0 -189 -70 -243 -206 -243c-28 0 -56 3 -81 9l-13 111c33 -3 55 -5 81 -5c54 0 91 28 91 107v614h128v-119h332v-237
c0 -94 47 -142 133 -142c84 0 135 48 135 142v237h127v-237c0 -94 47 -142 133 -142c84 0 135 48 135 142v311z" />
    <glyph glyph-name="uniFD2A" unicode="&#xfd2a;" horiz-adv-x="1537" arabic-form="final" 
d="M1403 287c0 -110 53 -159 154 -159v-128c-93 0 -163 33 -195 90c-42 -68 -116 -100 -221 -100c-89 0 -153 33 -192 92c-37 -61 -101 -92 -203 -92c-171 0 -260 97 -260 282v97h-205v-346c0 -189 -70 -243 -206 -243c-28 0 -56 3 -81 9l-13 111c33 -3 55 -5 81 -5
c54 0 91 28 91 107v614h128v-119h332v-237c0 -94 47 -142 133 -142c84 0 135 48 135 142v237h127v-237c0 -94 47 -142 133 -142c84 0 135 48 135 142v311h127v-284z" />
    <glyph glyph-name="uniFCFB" unicode="&#xfcfb;" horiz-adv-x="1854" arabic-form="isolated" 
d="M1672 571h127v-299c0 -193 -88 -282 -249 -282c-95 0 -162 37 -201 103c-37 -69 -108 -103 -222 -103c-171 0 -275 97 -275 282v293h-75c-83 0 -123 -51 -123 -128v-562h-295c-208 0 -309 100 -309 298v212h128v-199c0 -133 84 -184 208 -184h141v412
c0 183 95 271 272 271h180v-415c0 -97 54 -152 148 -152c93 0 150 53 150 152v227h127v-237c0 -93 46 -142 134 -142c85 0 134 46 134 142v311z" />
    <glyph glyph-name="uniFD17" unicode="&#xfd17;" horiz-adv-x="1933" arabic-form="final" 
d="M1799 287c0 -110 53 -159 154 -159v-128c-92 0 -162 33 -195 90c-41 -68 -111 -100 -208 -100c-95 0 -162 37 -201 103c-37 -69 -108 -103 -222 -103c-171 0 -275 97 -275 282v293h-75c-83 0 -123 -51 -123 -128v-562h-295c-208 0 -309 100 -309 298v212h128v-199
c0 -133 84 -184 208 -184h141v412c0 183 95 271 272 271h180v-415c0 -97 54 -152 148 -152c93 0 150 53 150 152v227h127v-237c0 -93 46 -142 134 -142c85 0 134 46 134 142v311h127v-284z" />
    <glyph glyph-name="uniFCFC" unicode="&#xfcfc;" horiz-adv-x="1854" arabic-form="isolated" 
d="M1672 571h127v-299c0 -193 -88 -282 -249 -282c-95 0 -162 37 -201 103c-37 -69 -108 -103 -222 -103c-171 0 -275 97 -275 282v293h-75c-83 0 -123 -51 -123 -128v-562h-295c-208 0 -309 100 -309 298v212h128v-199c0 -133 84 -184 208 -184h141v412
c0 183 95 271 272 271h180v-415c0 -97 54 -152 148 -152c93 0 150 53 150 152v227h127v-237c0 -93 46 -142 134 -142c85 0 134 46 134 142v311zM339 -225c45 0 80 -30 80 -73c0 -48 -37 -73 -80 -73c-42 0 -80 25 -80 73c0 43 35 73 80 73zM539 -225c46 0 80 -30 80 -73
c0 -48 -37 -73 -80 -73c-42 0 -80 25 -80 73c0 43 35 73 80 73z" />
    <glyph glyph-name="uniFD18" unicode="&#xfd18;" horiz-adv-x="1933" arabic-form="final" 
d="M1799 287c0 -110 53 -159 154 -159v-128c-92 0 -162 33 -195 90c-41 -68 -111 -100 -208 -100c-95 0 -162 37 -201 103c-37 -69 -108 -103 -222 -103c-171 0 -275 97 -275 282v293h-75c-83 0 -123 -51 -123 -128v-562h-295c-208 0 -309 100 -309 298v212h128v-199
c0 -133 84 -184 208 -184h141v412c0 183 95 271 272 271h180v-415c0 -97 54 -152 148 -152c93 0 150 53 150 152v227h127v-237c0 -93 46 -142 134 -142c85 0 134 46 134 142v311h127v-284zM339 -225c45 0 80 -30 80 -73c0 -48 -37 -73 -80 -73c-42 0 -80 25 -80 73
c0 43 35 73 80 73zM539 -225c46 0 80 -30 80 -73c0 -48 -37 -73 -80 -73c-42 0 -80 25 -80 73c0 43 35 73 80 73z" />
    <glyph glyph-name="uniFD0D" unicode="&#xfd0d;" horiz-adv-x="1458" arabic-form="isolated" 
d="M946 744c-35 0 -68 21 -68 62c0 36 29 61 68 61s68 -25 68 -61c0 -41 -32 -62 -68 -62zM848 597c-40 0 -77 24 -77 71c0 42 34 70 77 70c44 0 78 -28 78 -70c0 -47 -37 -71 -78 -71zM966 668c0 42 33 70 77 70s77 -28 77 -70c0 -47 -36 -71 -77 -71s-77 24 -77 71z
M1276 571h127v-299c0 -193 -88 -282 -262 -282c-89 0 -153 33 -192 92c-37 -61 -101 -92 -203 -92c-171 0 -260 97 -260 282v97h-205v-346c0 -189 -70 -243 -206 -243c-28 0 -56 3 -81 9l-13 111c33 -3 55 -5 81 -5c54 0 91 28 91 107v614h128v-119h332v-237
c0 -94 47 -142 133 -142c84 0 135 48 135 142v237h127v-237c0 -94 47 -142 133 -142c84 0 135 48 135 142v311z" />
    <glyph glyph-name="uniFD29" unicode="&#xfd29;" horiz-adv-x="1537" arabic-form="final" 
d="M946 744c-35 0 -68 21 -68 62c0 36 29 61 68 61s68 -25 68 -61c0 -41 -32 -62 -68 -62zM848 597c-40 0 -77 24 -77 71c0 42 34 70 77 70c44 0 78 -28 78 -70c0 -47 -37 -71 -78 -71zM966 668c0 42 33 70 77 70s77 -28 77 -70c0 -47 -36 -71 -77 -71s-77 24 -77 71z
M1403 287c0 -110 53 -159 154 -159v-128c-93 0 -163 33 -195 90c-42 -68 -116 -100 -221 -100c-89 0 -153 33 -192 92c-37 -61 -101 -92 -203 -92c-171 0 -260 97 -260 282v97h-205v-346c0 -189 -70 -243 -206 -243c-28 0 -56 3 -81 9l-13 111c33 -3 55 -5 81 -5
c54 0 91 28 91 107v614h128v-119h332v-237c0 -94 47 -142 133 -142c84 0 135 48 135 142v237h127v-237c0 -94 47 -142 133 -142c84 0 135 48 135 142v311h127v-284z" />
    <glyph glyph-name="uniFCFD" unicode="&#xfcfd;" horiz-adv-x="1854" arabic-form="isolated" 
d="M1341 744c-35 0 -68 21 -68 62c0 36 29 61 68 61s68 -25 68 -61c0 -41 -32 -62 -68 -62zM1243 597c-40 0 -77 24 -77 71c0 42 34 70 77 70c44 0 78 -28 78 -70c0 -47 -37 -71 -78 -71zM1361 668c0 42 33 70 77 70s77 -28 77 -70c0 -47 -36 -71 -77 -71s-77 24 -77 71z
M1672 571h127v-299c0 -193 -88 -282 -249 -282c-95 0 -162 37 -201 103c-37 -69 -108 -103 -222 -103c-171 0 -275 97 -275 282v293h-75c-83 0 -123 -51 -123 -128v-562h-295c-208 0 -309 100 -309 298v212h128v-199c0 -133 84 -184 208 -184h141v412c0 183 95 271 272 271
h180v-415c0 -97 54 -152 148 -152c93 0 150 53 150 152v227h127v-237c0 -93 46 -142 134 -142c85 0 134 46 134 142v311z" />
    <glyph glyph-name="uniFD19" unicode="&#xfd19;" horiz-adv-x="1933" arabic-form="final" 
d="M1341 744c-35 0 -68 21 -68 62c0 36 29 61 68 61s68 -25 68 -61c0 -41 -32 -62 -68 -62zM1243 597c-40 0 -77 24 -77 71c0 42 34 70 77 70c44 0 78 -28 78 -70c0 -47 -37 -71 -78 -71zM1361 668c0 42 33 70 77 70s77 -28 77 -70c0 -47 -36 -71 -77 -71s-77 24 -77 71z
M1799 287c0 -110 53 -159 154 -159v-128c-92 0 -162 33 -195 90c-41 -68 -111 -100 -208 -100c-95 0 -162 37 -201 103c-37 -69 -108 -103 -222 -103c-171 0 -275 97 -275 282v293h-75c-83 0 -123 -51 -123 -128v-562h-295c-208 0 -309 100 -309 298v212h128v-199
c0 -133 84 -184 208 -184h141v412c0 183 95 271 272 271h180v-415c0 -97 54 -152 148 -152c93 0 150 53 150 152v227h127v-237c0 -93 46 -142 134 -142c85 0 134 46 134 142v311h127v-284z" />
    <glyph glyph-name="uniFCFE" unicode="&#xfcfe;" horiz-adv-x="1854" arabic-form="isolated" 
d="M1341 744c-35 0 -68 21 -68 62c0 36 29 61 68 61s68 -25 68 -61c0 -41 -32 -62 -68 -62zM1243 597c-40 0 -77 24 -77 71c0 42 34 70 77 70c44 0 78 -28 78 -70c0 -47 -37 -71 -78 -71zM1361 668c0 42 33 70 77 70s77 -28 77 -70c0 -47 -36 -71 -77 -71s-77 24 -77 71z
M1672 571h127v-299c0 -193 -88 -282 -249 -282c-95 0 -162 37 -201 103c-37 -69 -108 -103 -222 -103c-171 0 -275 97 -275 282v293h-75c-83 0 -123 -51 -123 -128v-562h-295c-208 0 -309 100 -309 298v212h128v-199c0 -133 84 -184 208 -184h141v412c0 183 95 271 272 271
h180v-415c0 -97 54 -152 148 -152c93 0 150 53 150 152v227h127v-237c0 -93 46 -142 134 -142c85 0 134 46 134 142v311zM339 -225c45 0 80 -30 80 -73c0 -48 -37 -73 -80 -73c-42 0 -80 25 -80 73c0 43 35 73 80 73zM539 -225c46 0 80 -30 80 -73c0 -48 -37 -73 -80 -73
c-42 0 -80 25 -80 73c0 43 35 73 80 73z" />
    <glyph glyph-name="uniFD1A" unicode="&#xfd1a;" horiz-adv-x="1933" arabic-form="final" 
d="M1341 744c-35 0 -68 21 -68 62c0 36 29 61 68 61s68 -25 68 -61c0 -41 -32 -62 -68 -62zM1243 597c-40 0 -77 24 -77 71c0 42 34 70 77 70c44 0 78 -28 78 -70c0 -47 -37 -71 -78 -71zM1361 668c0 42 33 70 77 70s77 -28 77 -70c0 -47 -36 -71 -77 -71s-77 24 -77 71z
M1799 287c0 -110 53 -159 154 -159v-128c-92 0 -162 33 -195 90c-41 -68 -111 -100 -208 -100c-95 0 -162 37 -201 103c-37 -69 -108 -103 -222 -103c-171 0 -275 97 -275 282v293h-75c-83 0 -123 -51 -123 -128v-562h-295c-208 0 -309 100 -309 298v212h128v-199
c0 -133 84 -184 208 -184h141v412c0 183 95 271 272 271h180v-415c0 -97 54 -152 148 -152c93 0 150 53 150 152v227h127v-237c0 -93 46 -142 134 -142c85 0 134 46 134 142v311h127v-284zM339 -225c45 0 80 -30 80 -73c0 -48 -37 -73 -80 -73c-42 0 -80 25 -80 73
c0 43 35 73 80 73zM539 -225c46 0 80 -30 80 -73c0 -48 -37 -73 -80 -73c-42 0 -80 25 -80 73c0 43 35 73 80 73z" />
    <glyph glyph-name="uniFD05" unicode="&#xfd05;" horiz-adv-x="1693" arabic-form="isolated" 
d="M1332 565c211 0 306 -100 306 -297l-1 -268h-525c-171 0 -260 97 -260 282v283h-75c-83 0 -123 -51 -123 -128v-562h-295c-208 0 -309 100 -309 298v212h128v-199c0 -133 84 -184 208 -184h141v412c0 183 95 271 272 271h180v-120h353zM1517 128l1 161
c0 102 -66 149 -167 149h-372v-168c0 -94 47 -142 133 -142h405z" />
    <glyph glyph-name="uniFD21" unicode="&#xfd21;" horiz-adv-x="1735" arabic-form="final" 
d="M1637 128h118v-128h-643c-171 0 -260 97 -260 282v283h-75c-83 0 -123 -51 -123 -128v-562h-295c-208 0 -309 100 -309 298v212h128v-199c0 -133 84 -184 208 -184h141v412c0 183 95 271 272 271h180v-120h353c211 0 306 -100 306 -297zM1517 128l1 161
c0 102 -66 149 -167 149h-372v-168c0 -94 47 -142 133 -142h405z" />
    <glyph glyph-name="uniFD06" unicode="&#xfd06;" horiz-adv-x="1693" arabic-form="isolated" 
d="M1332 565c211 0 306 -100 306 -297l-1 -268h-525c-171 0 -260 97 -260 282v283h-75c-83 0 -123 -51 -123 -128v-562h-295c-208 0 -309 100 -309 298v212h128v-199c0 -133 84 -184 208 -184h141v412c0 183 95 271 272 271h180v-120h353zM1517 128l1 161
c0 102 -66 149 -167 149h-372v-168c0 -94 47 -142 133 -142h405zM339 -225c45 0 80 -30 80 -73c0 -48 -37 -73 -80 -73c-42 0 -80 25 -80 73c0 43 35 73 80 73zM539 -225c46 0 80 -30 80 -73c0 -48 -37 -73 -80 -73c-42 0 -80 25 -80 73c0 43 35 73 80 73z" />
    <glyph glyph-name="uniFD22" unicode="&#xfd22;" horiz-adv-x="1735" arabic-form="final" 
d="M1637 128h118v-128h-643c-171 0 -260 97 -260 282v283h-75c-83 0 -123 -51 -123 -128v-562h-295c-208 0 -309 100 -309 298v212h128v-199c0 -133 84 -184 208 -184h141v412c0 183 95 271 272 271h180v-120h353c211 0 306 -100 306 -297zM1517 128l1 161
c0 102 -66 149 -167 149h-372v-168c0 -94 47 -142 133 -142h405zM339 -225c45 0 80 -30 80 -73c0 -48 -37 -73 -80 -73c-42 0 -80 25 -80 73c0 43 35 73 80 73zM539 -225c46 0 80 -30 80 -73c0 -48 -37 -73 -80 -73c-42 0 -80 25 -80 73c0 43 35 73 80 73z" />
    <glyph glyph-name="uniFD07" unicode="&#xfd07;" horiz-adv-x="1693" arabic-form="isolated" 
d="M1288 670c-43 0 -82 25 -82 74c0 44 36 73 82 73c44 0 80 -29 80 -73c0 -49 -38 -74 -80 -74zM1332 565c211 0 306 -100 306 -297l-1 -268h-525c-171 0 -260 97 -260 282v283h-75c-83 0 -123 -51 -123 -128v-562h-295c-208 0 -309 100 -309 298v212h128v-199
c0 -133 84 -184 208 -184h141v412c0 183 95 271 272 271h180v-120h353zM1517 128l1 161c0 102 -66 149 -167 149h-372v-168c0 -94 47 -142 133 -142h405z" />
    <glyph glyph-name="uniFD23" unicode="&#xfd23;" horiz-adv-x="1735" arabic-form="final" 
d="M1288 670c-43 0 -82 25 -82 74c0 44 36 73 82 73c44 0 80 -29 80 -73c0 -49 -38 -74 -80 -74zM1637 128h118v-128h-643c-171 0 -260 97 -260 282v283h-75c-83 0 -123 -51 -123 -128v-562h-295c-208 0 -309 100 -309 298v212h128v-199c0 -133 84 -184 208 -184h141v412
c0 183 95 271 272 271h180v-120h353c211 0 306 -100 306 -297zM1517 128l1 161c0 102 -66 149 -167 149h-372v-168c0 -94 47 -142 133 -142h405z" />
    <glyph glyph-name="uniFD08" unicode="&#xfd08;" horiz-adv-x="1693" arabic-form="isolated" 
d="M1288 670c-43 0 -82 25 -82 74c0 44 36 73 82 73c44 0 80 -29 80 -73c0 -49 -38 -74 -80 -74zM1332 565c211 0 306 -100 306 -297l-1 -268h-525c-171 0 -260 97 -260 282v283h-75c-83 0 -123 -51 -123 -128v-562h-295c-208 0 -309 100 -309 298v212h128v-199
c0 -133 84 -184 208 -184h141v412c0 183 95 271 272 271h180v-120h353zM1517 128l1 161c0 102 -66 149 -167 149h-372v-168c0 -94 47 -142 133 -142h405zM339 -225c45 0 80 -30 80 -73c0 -48 -37 -73 -80 -73c-42 0 -80 25 -80 73c0 43 35 73 80 73zM539 -225
c46 0 80 -30 80 -73c0 -48 -37 -73 -80 -73c-42 0 -80 25 -80 73c0 43 35 73 80 73z" />
    <glyph glyph-name="uniFD24" unicode="&#xfd24;" horiz-adv-x="1735" arabic-form="final" 
d="M1288 670c-43 0 -82 25 -82 74c0 44 36 73 82 73c44 0 80 -29 80 -73c0 -49 -38 -74 -80 -74zM1637 128h118v-128h-643c-171 0 -260 97 -260 282v283h-75c-83 0 -123 -51 -123 -128v-562h-295c-208 0 -309 100 -309 298v212h128v-199c0 -133 84 -184 208 -184h141v412
c0 183 95 271 272 271h180v-120h353c211 0 306 -100 306 -297zM1517 128l1 161c0 102 -66 149 -167 149h-372v-168c0 -94 47 -142 133 -142h405zM339 -225c45 0 80 -30 80 -73c0 -48 -37 -73 -80 -73c-42 0 -80 25 -80 73c0 43 35 73 80 73zM539 -225c46 0 80 -30 80 -73
c0 -48 -37 -73 -80 -73c-42 0 -80 25 -80 73c0 43 35 73 80 73z" />
    <glyph glyph-name="uniFC8A" unicode="&#xfc8a;" horiz-adv-x="758" arabic-form="final" 
d="M553 790c-43 0 -82 25 -82 74c0 44 36 73 82 73c44 0 80 -29 80 -73c0 -49 -38 -74 -80 -74zM756 128h22v-128h-22c-177 0 -269 97 -269 282v156h-206v-415c0 -189 -70 -243 -206 -243c-28 0 -56 3 -81 9l-13 111c33 -3 55 -5 81 -5c54 0 91 28 91 107v563h334v120h127
v-411c0 -95 49 -146 142 -146z" />
    <glyph glyph-name="uniFC8B" unicode="&#xfc8b;" horiz-adv-x="758" arabic-form="final" 
d="M553 790c-43 0 -82 25 -82 74c0 44 36 73 82 73c44 0 80 -29 80 -73c0 -49 -38 -74 -80 -74zM210 670c-43 0 -82 25 -82 74c0 44 36 73 82 73c44 0 80 -29 80 -73c0 -49 -38 -74 -80 -74zM756 128h22v-128h-22c-177 0 -269 97 -269 282v156h-206v-415
c0 -189 -70 -243 -206 -243c-28 0 -56 3 -81 9l-13 111c33 -3 55 -5 81 -5c54 0 91 28 91 107v563h334v120h127v-411c0 -95 49 -146 142 -146z" />
    <glyph glyph-name="uniFC8D" unicode="&#xfc8d;" horiz-adv-x="1095" arabic-form="final" 
d="M890 721c-43 0 -82 25 -82 74c0 44 36 73 82 73c44 0 80 -29 80 -73c0 -49 -38 -74 -80 -74zM328 602c-43 0 -82 25 -82 74c0 44 36 73 82 73c44 0 80 -29 80 -73c0 -49 -38 -74 -80 -74zM1093 128h22v-128h-22c-177 0 -269 97 -269 282v87h-225v-494h-240
c-200 0 -309 105 -309 293v329h128v-313c0 -130 80 -181 201 -181h92v494h353v119h127v-342c0 -95 49 -146 142 -146z" />
    <glyph glyph-name="uniFC8E" unicode="&#xfc8e;" horiz-adv-x="1188" arabic-form="final" 
d="M983 790c-43 0 -82 25 -82 74c0 44 36 73 82 73c44 0 80 -29 80 -73c0 -49 -38 -74 -80 -74zM1186 128h22v-128h-22c-177 0 -269 97 -269 282v163h-117c-98 0 -146 -59 -146 -151v-419h-295c-208 0 -309 100 -309 298v212h128v-199c0 -133 84 -184 208 -184h141v292
c0 183 95 271 272 271h118v120h127v-411c0 -95 49 -146 142 -146z" />
    <glyph glyph-name="uniFC8F" unicode="&#xfc8f;" horiz-adv-x="1188" arabic-form="final" 
d="M983 790c-43 0 -82 25 -82 74c0 44 36 73 82 73c44 0 80 -29 80 -73c0 -49 -38 -74 -80 -74zM1186 128h22v-128h-22c-177 0 -269 97 -269 282v163h-117c-98 0 -146 -59 -146 -151v-419h-295c-208 0 -309 100 -309 298v212h128v-199c0 -133 84 -184 208 -184h141v292
c0 183 95 271 272 271h118v120h127v-411c0 -95 49 -146 142 -146zM339 -225c45 0 80 -30 80 -73c0 -48 -37 -73 -80 -73c-42 0 -80 25 -80 73c0 43 35 73 80 73zM539 -225c46 0 80 -30 80 -73c0 -48 -37 -73 -80 -73c-42 0 -80 25 -80 73c0 43 35 73 80 73z" />
    <glyph glyph-name="uniFC91" unicode="&#xfc91;" horiz-adv-x="758" arabic-form="final" 
d="M756 128h22v-128h-22c-177 0 -269 97 -269 282v156h-206v-415c0 -189 -70 -243 -206 -243c-28 0 -56 3 -81 9l-13 111c33 -3 55 -5 81 -5c54 0 91 28 91 107v563h334v120h127v-411c0 -95 49 -146 142 -146zM393 -100c45 0 80 -30 80 -73c0 -48 -37 -73 -80 -73
c-42 0 -80 25 -80 73c0 43 35 73 80 73zM593 -100c46 0 80 -30 80 -73c0 -48 -37 -73 -80 -73c-42 0 -80 25 -80 73c0 43 35 73 80 73z" />
    <glyph glyph-name="uniFC92" unicode="&#xfc92;" horiz-adv-x="758" arabic-form="final" 
d="M210 670c-43 0 -82 25 -82 74c0 44 36 73 82 73c44 0 80 -29 80 -73c0 -49 -38 -74 -80 -74zM756 128h22v-128h-22c-177 0 -269 97 -269 282v156h-206v-415c0 -189 -70 -243 -206 -243c-28 0 -56 3 -81 9l-13 111c33 -3 55 -5 81 -5c54 0 91 28 91 107v563h334v120h127
v-411c0 -95 49 -146 142 -146zM393 -100c45 0 80 -30 80 -73c0 -48 -37 -73 -80 -73c-42 0 -80 25 -80 73c0 43 35 73 80 73zM593 -100c46 0 80 -30 80 -73c0 -48 -37 -73 -80 -73c-42 0 -80 25 -80 73c0 43 35 73 80 73z" />
    <glyph glyph-name="uniFC94" unicode="&#xfc94;" horiz-adv-x="1095" arabic-form="final" 
d="M328 602c-43 0 -82 25 -82 74c0 44 36 73 82 73c44 0 80 -29 80 -73c0 -49 -38 -74 -80 -74zM1093 128h22v-128h-22c-177 0 -269 97 -269 282v87h-225v-494h-240c-200 0 -309 105 -309 293v329h128v-313c0 -130 80 -181 201 -181h92v494h353v119h127v-342
c0 -95 49 -146 142 -146zM731 -100c45 0 80 -30 80 -73c0 -48 -37 -73 -80 -73c-42 0 -80 25 -80 73c0 43 35 73 80 73zM931 -100c46 0 80 -30 80 -73c0 -48 -37 -73 -80 -73c-42 0 -80 25 -80 73c0 43 35 73 80 73z" />
    <glyph glyph-name="uniFC64" unicode="&#xfc64;" horiz-adv-x="758" arabic-form="final" 
d="M629 830v-75h-155v80c0 61 43 102 107 102h25v-70h-33c-14 0 -24 -10 -24 -25v-12h80zM756 128h22v-128h-22c-177 0 -269 97 -269 282v156h-206v-415c0 -189 -70 -243 -206 -243c-28 0 -56 3 -81 9l-13 111c33 -3 55 -5 81 -5c54 0 91 28 91 107v563h334v120h127v-411
c0 -95 49 -146 142 -146z" />
    <glyph glyph-name="uniFC65" unicode="&#xfc65;" horiz-adv-x="758" arabic-form="final" 
d="M629 830v-75h-155v80c0 61 43 102 107 102h25v-70h-33c-14 0 -24 -10 -24 -25v-12h80zM210 670c-43 0 -82 25 -82 74c0 44 36 73 82 73c44 0 80 -29 80 -73c0 -49 -38 -74 -80 -74zM756 128h22v-128h-22c-177 0 -269 97 -269 282v156h-206v-415
c0 -189 -70 -243 -206 -243c-28 0 -56 3 -81 9l-13 111c33 -3 55 -5 81 -5c54 0 91 28 91 107v563h334v120h127v-411c0 -95 49 -146 142 -146z" />
    <glyph glyph-name="uniFC67" unicode="&#xfc67;" horiz-adv-x="1095" arabic-form="final" 
d="M966 761v-75h-155v80c0 61 43 102 107 102h25v-70h-33c-14 0 -24 -10 -24 -25v-12h80zM328 602c-43 0 -82 25 -82 74c0 44 36 73 82 73c44 0 80 -29 80 -73c0 -49 -38 -74 -80 -74zM1093 128h22v-128h-22c-177 0 -269 97 -269 282v87h-225v-494h-240
c-200 0 -309 105 -309 293v329h128v-313c0 -130 80 -181 201 -181h92v494h353v119h127v-342c0 -95 49 -146 142 -146z" />
    <glyph glyph-name="uniFC68" unicode="&#xfc68;" horiz-adv-x="1188" arabic-form="final" 
d="M1059 830v-75h-155v80c0 61 43 102 107 102h25v-70h-33c-14 0 -24 -10 -24 -25v-12h80zM1186 128h22v-128h-22c-177 0 -269 97 -269 282v163h-117c-98 0 -146 -59 -146 -151v-419h-295c-208 0 -309 100 -309 298v212h128v-199c0 -133 84 -184 208 -184h141v292
c0 183 95 271 272 271h118v120h127v-411c0 -95 49 -146 142 -146z" />
    <glyph glyph-name="uniFC69" unicode="&#xfc69;" horiz-adv-x="1188" arabic-form="final" 
d="M1059 830v-75h-155v80c0 61 43 102 107 102h25v-70h-33c-14 0 -24 -10 -24 -25v-12h80zM1186 128h22v-128h-22c-177 0 -269 97 -269 282v163h-117c-98 0 -146 -59 -146 -151v-419h-295c-208 0 -309 100 -309 298v212h128v-199c0 -133 84 -184 208 -184h141v292
c0 183 95 271 272 271h118v120h127v-411c0 -95 49 -146 142 -146zM339 -225c45 0 80 -30 80 -73c0 -48 -37 -73 -80 -73c-42 0 -80 25 -80 73c0 43 35 73 80 73zM539 -225c46 0 80 -30 80 -73c0 -48 -37 -73 -80 -73c-42 0 -80 25 -80 73c0 43 35 73 80 73z" />
    <glyph glyph-name=".notdef" horiz-adv-x="500" 
 />
    <glyph glyph-name="A" unicode="A" horiz-adv-x="800" 
d="M647 0l-80 219h-335l-79 -219h-132l300 811h155l303 -811h-132zM396 676l-125 -342h256l-126 342l-3 9z" />
    <glyph glyph-name="Aacute" unicode="&#xc1;" horiz-adv-x="800" 
d="M603 1018l-159 -141h-127l136 141h150zM647 0l-80 219h-335l-79 -219h-132l300 811h155l303 -811h-132zM396 676l-125 -342h256l-126 342l-3 9z" />
    <glyph glyph-name="Abreve" unicode="&#x102;" horiz-adv-x="800" 
d="M402 870c-102 0 -170 40 -181 147h87c8 -55 32 -82 94 -82c61 0 85 27 94 82h87c-11 -107 -79 -147 -181 -147zM647 0l-80 219h-335l-79 -219h-132l300 811h155l303 -811h-132zM396 676l-125 -342h256l-126 342l-3 9z" />
    <glyph glyph-name="uni01CD" unicode="&#x1cd;" horiz-adv-x="800" 
d="M465 872h-128l-157 151h126l95 -97l94 97h125zM647 0l-80 219h-335l-79 -219h-132l300 811h155l303 -811h-132zM396 676l-125 -342h256l-126 342l-3 9z" />
    <glyph glyph-name="Acircumflex" unicode="&#xc2;" horiz-adv-x="800" 
d="M400 949l-68 -75h-129l137 141h122l135 -141h-129zM647 0l-80 219h-335l-79 -219h-132l300 811h155l303 -811h-132zM396 676l-125 -342h256l-126 342l-3 9z" />
    <glyph glyph-name="Adieresis" unicode="&#xc4;" horiz-adv-x="800" 
d="M301 872c-40 0 -77 24 -77 69c1 41 34 69 77 69c41 0 74 -28 74 -69c0 -45 -35 -69 -74 -69zM499 872c-40 0 -77 24 -77 69c1 41 35 69 77 69c41 0 74 -28 74 -69c0 -45 -35 -69 -74 -69zM647 0l-80 219h-335l-79 -219h-132l300 811h155l303 -811h-132zM396 676
l-125 -342h256l-126 342l-3 9z" />
    <glyph glyph-name="Agrave" unicode="&#xc0;" horiz-adv-x="800" 
d="M477 872h-85l-155 151h154zM647 0l-80 219h-335l-79 -219h-132l300 811h155l303 -811h-132zM396 676l-125 -342h256l-126 342l-3 9z" />
    <glyph glyph-name="Amacron" unicode="&#x100;" horiz-adv-x="800" 
d="M555 957v-85h-309v85h309zM647 0l-80 219h-335l-79 -219h-132l300 811h155l303 -811h-132zM396 676l-125 -342h256l-126 342l-3 9z" />
    <glyph glyph-name="Aogonek" unicode="&#x104;" horiz-adv-x="800" 
d="M745 -166c15 0 33 2 44 4v-58c-14 -3 -45 -7 -71 -7c-80 0 -160 30 -162 108c-1 47 24 85 90 122l-79 216h-335l-79 -219h-132l300 811h155l303 -811c-84 -36 -112 -67 -112 -104c1 -41 34 -62 78 -62zM396 676l-125 -342h256l-126 342l-3 9z" />
    <glyph glyph-name="Aring" unicode="&#xc5;" horiz-adv-x="800" 
d="M402 870c-64 0 -117 51 -117 115c0 65 51 113 117 113c64 0 116 -51 116 -114c0 -66 -51 -114 -116 -114zM350 984c-1 -28 23 -49 51 -49c32 0 52 21 52 49c-1 28 -21 50 -51 50s-52 -22 -52 -50zM647 0l-80 219h-335l-79 -219h-132l300 811h155l303 -811h-132zM396 676
l-125 -342h256l-126 342l-3 9z" />
    <glyph glyph-name="Atilde" unicode="&#xc3;" horiz-adv-x="800" 
d="M340 909c-23 0 -33 -12 -38 -41h-91c5 79 29 131 106 131c64 0 99 -41 148 -41c22 0 31 13 37 40h91c-5 -79 -27 -130 -105 -130c-63 0 -100 41 -148 41zM647 0l-80 219h-335l-79 -219h-132l300 811h155l303 -811h-132zM396 676l-125 -342h256l-126 342l-3 9z" />
    <glyph glyph-name="AE" unicode="&#xc6;" horiz-adv-x="1127" 
d="M669 120h384v-120h-512v199h-269l-125 -199h-144l535 811h512v-120h-381v-214h345v-120h-345v-237zM541 632l-209 -318h209v318z" />
    <glyph glyph-name="B" unicode="B" horiz-adv-x="738" 
d="M522 431c103 -20 155 -91 155 -196v-1c0 -180 -134 -234 -299 -234h-278v811h272c177 0 272 -68 272 -200v-1c0 -85 -46 -158 -122 -179zM364 690h-136v-221h137c112 0 152 43 152 113v1c0 81 -61 107 -153 107zM547 246v1c0 88 -63 120 -157 120h-162v-245h159
c118 0 160 52 160 124z" />
    <glyph glyph-name="C" unicode="C" horiz-adv-x="780" 
d="M469 -13c-247 0 -421 170 -422 418v1c0 248 174 418 422 418h1c103 0 190 -29 264 -78l-50 -109c-70 44 -137 63 -208 63h-1c-153 0 -289 -97 -289 -294v-1c1 -196 135 -293 289 -293h1c70 0 138 18 208 62l50 -109c-72 -47 -156 -78 -264 -78h-1z" />
    <glyph glyph-name="Cacute" unicode="&#x106;" horiz-adv-x="780" 
d="M386 877l136 141h150l-159 -141h-127zM469 -13c-247 0 -421 170 -422 418v1c0 248 174 418 422 418h1c103 0 190 -29 264 -78l-50 -109c-70 44 -137 63 -208 63h-1c-153 0 -289 -97 -289 -294v-1c1 -196 135 -293 289 -293h1c70 0 138 18 208 62l50 -109
c-72 -47 -156 -78 -264 -78h-1z" />
    <glyph glyph-name="Ccaron" unicode="&#x10c;" horiz-adv-x="780" 
d="M406 872l-157 151h126l95 -97l94 97h125l-155 -151h-128zM469 -13c-247 0 -421 170 -422 418v1c0 248 174 418 422 418h1c103 0 190 -29 264 -78l-50 -109c-70 44 -137 63 -208 63h-1c-153 0 -289 -97 -289 -294v-1c1 -196 135 -293 289 -293h1c70 0 138 18 208 62
l50 -109c-72 -47 -156 -78 -264 -78h-1z" />
    <glyph glyph-name="Ccedilla" unicode="&#xc7;" horiz-adv-x="780" 
d="M734 65c-68 -44 -146 -74 -246 -78l-28 -41c2 1 9 1 14 1c49 0 105 -21 104 -76c0 -64 -57 -91 -127 -91c-31 0 -56 3 -84 12l-5 54c20 -7 60 -16 84 -16c42 0 70 11 71 37c0 27 -27 36 -66 36c-26 0 -55 -7 -71 -11l-6 7l59 89c-228 16 -385 181 -386 417v1
c0 248 174 418 422 418h1c103 0 190 -29 264 -78l-50 -109c-70 44 -137 63 -208 63h-1c-153 0 -289 -97 -289 -294v-1c1 -196 135 -293 289 -293h1c70 0 138 18 208 62z" />
    <glyph glyph-name="Ccircumflex" unicode="&#x108;" horiz-adv-x="780" 
d="M272 874l137 141h122l135 -141h-129l-68 75l-68 -75h-129zM469 -13c-247 0 -421 170 -422 418v1c0 248 174 418 422 418h1c103 0 190 -29 264 -78l-50 -109c-70 44 -137 63 -208 63h-1c-153 0 -289 -97 -289 -294v-1c1 -196 135 -293 289 -293h1c70 0 138 18 208 62
l50 -109c-72 -47 -156 -78 -264 -78h-1z" />
    <glyph glyph-name="Cdotaccent" unicode="&#x10a;" horiz-adv-x="780" 
d="M470 872c-42 0 -80 25 -80 73c0 43 35 71 80 71c43 0 78 -28 78 -71c0 -48 -37 -73 -78 -73zM469 -13c-247 0 -421 170 -422 418v1c0 248 174 418 422 418h1c103 0 190 -29 264 -78l-50 -109c-70 44 -137 63 -208 63h-1c-153 0 -289 -97 -289 -294v-1
c1 -196 135 -293 289 -293h1c70 0 138 18 208 62l50 -109c-72 -47 -156 -78 -264 -78h-1z" />
    <glyph glyph-name="D" unicode="D" horiz-adv-x="836" 
d="M338 811c275 0 447 -154 447 -401v-1c-1 -251 -173 -409 -447 -409h-238v811h238zM646 409v1c0 179 -106 281 -291 281h-127v-571h127c185 0 290 105 291 289z" />
    <glyph glyph-name="Eth" unicode="&#xd0;" horiz-adv-x="836" 
d="M338 811c275 0 447 -154 447 -401v-1c-1 -251 -173 -409 -447 -409h-238v369h-95v102h95v340h238zM646 409v1c0 179 -106 281 -291 281h-127v-220h108v-102h-108v-249h127c185 0 290 105 291 289z" />
    <glyph glyph-name="Dcaron" unicode="&#x10e;" horiz-adv-x="836" 
d="M483 872h-128l-157 151h126l95 -97l94 97h125zM338 811c275 0 447 -154 447 -401v-1c-1 -251 -173 -409 -447 -409h-238v811h238zM646 409v1c0 179 -106 281 -291 281h-127v-571h127c185 0 290 105 291 289z" />
    <glyph glyph-name="Dcroat" unicode="&#x110;" horiz-adv-x="836" 
d="M338 811c275 0 447 -154 447 -401v-1c-1 -251 -173 -409 -447 -409h-238v369h-95v102h95v340h238zM646 409v1c0 179 -106 281 -291 281h-127v-220h108v-102h-108v-249h127c185 0 290 105 291 289z" />
    <glyph glyph-name="E" unicode="E" horiz-adv-x="686" 
d="M100 0v811h509v-120h-381v-214h345v-120h-345v-237h384v-120h-512z" />
    <glyph glyph-name="Eacute" unicode="&#xc9;" horiz-adv-x="686" 
d="M280 877l136 141h150l-159 -141h-127zM100 0v811h509v-120h-381v-214h345v-120h-345v-237h384v-120h-512z" />
    <glyph glyph-name="Ebreve" unicode="&#x114;" horiz-adv-x="686" 
d="M365 870c-102 0 -170 40 -181 147h87c8 -55 32 -82 94 -82c61 0 85 27 94 82h87c-11 -107 -79 -147 -181 -147zM100 0v811h509v-120h-381v-214h345v-120h-345v-237h384v-120h-512z" />
    <glyph glyph-name="Ecaron" unicode="&#x11a;" horiz-adv-x="686" 
d="M300 872l-157 151h126l95 -97l94 97h125l-155 -151h-128zM100 0v811h509v-120h-381v-214h345v-120h-345v-237h384v-120h-512z" />
    <glyph glyph-name="Ecircumflex" unicode="&#xca;" horiz-adv-x="686" 
d="M166 874l137 141h122l135 -141h-129l-68 75l-68 -75h-129zM100 0v811h509v-120h-381v-214h345v-120h-345v-237h384v-120h-512z" />
    <glyph glyph-name="Edieresis" unicode="&#xcb;" horiz-adv-x="686" 
d="M264 872c-40 0 -77 24 -77 69c1 41 34 69 77 69c41 0 74 -28 74 -69c0 -45 -35 -69 -74 -69zM462 872c-40 0 -77 24 -77 69c1 41 35 69 77 69c41 0 74 -28 74 -69c0 -45 -35 -69 -74 -69zM100 0v811h509v-120h-381v-214h345v-120h-345v-237h384v-120h-512z" />
    <glyph glyph-name="Edotaccent" unicode="&#x116;" horiz-adv-x="686" 
d="M364 872c-42 0 -80 25 -80 73c0 43 35 71 80 71c43 0 78 -28 78 -71c0 -48 -37 -73 -78 -73zM100 0v811h509v-120h-381v-214h345v-120h-345v-237h384v-120h-512z" />
    <glyph glyph-name="Egrave" unicode="&#xc8;" horiz-adv-x="686" 
d="M355 872l-155 151h154l86 -151h-85zM100 0v811h509v-120h-381v-214h345v-120h-345v-237h384v-120h-512z" />
    <glyph glyph-name="Emacron" unicode="&#x112;" horiz-adv-x="686" 
d="M209 872v85h309v-85h-309zM100 0v811h509v-120h-381v-214h345v-120h-345v-237h384v-120h-512z" />
    <glyph glyph-name="Eogonek" unicode="&#x118;" horiz-adv-x="686" 
d="M575 -149c16 0 30 2 41 4v-58c-14 -3 -45 -7 -71 -7c-81 0 -162 23 -161 98c2 45 35 80 93 112h-377v811h509v-120h-381v-214h345v-120h-345v-237h384v-120c-74 -34 -115 -59 -116 -98c-2 -37 35 -51 79 -51z" />
    <glyph glyph-name="uni1EBC" unicode="&#x1ebc;" horiz-adv-x="686" 
d="M174 868c5 79 29 131 106 131c64 0 99 -41 148 -41c22 0 31 13 37 40h91c-5 -79 -27 -130 -105 -130c-63 0 -100 41 -148 41c-23 0 -33 -12 -38 -41h-91zM100 0v811h509v-120h-381v-214h345v-120h-345v-237h384v-120h-512z" />
    <glyph glyph-name="F" unicode="F" horiz-adv-x="673" 
d="M100 0v811h504v-120h-376v-215h339v-120h-339v-356h-128z" />
    <glyph glyph-name="G" unicode="G" horiz-adv-x="813" 
d="M412 432h352v-364c-77 -51 -194 -80 -295 -80c-248 0 -422 172 -423 418v1c0 246 175 417 424 417c100 0 191 -24 284 -78l-50 -116c-62 44 -141 70 -229 70c-154 0 -290 -98 -290 -293v-1c1 -195 136 -294 290 -294c62 0 118 15 169 46v156h-232v118z" />
    <glyph glyph-name="Gbreve" unicode="&#x11e;" horiz-adv-x="813" 
d="M456 870c-102 0 -170 40 -181 147h87c8 -55 32 -82 94 -82c61 0 85 27 94 82h87c-11 -107 -79 -147 -181 -147zM412 432h352v-364c-77 -51 -194 -80 -295 -80c-248 0 -422 172 -423 418v1c0 246 175 417 424 417c100 0 191 -24 284 -78l-50 -116c-62 44 -141 70 -229 70
c-154 0 -290 -98 -290 -293v-1c1 -195 136 -294 290 -294c62 0 118 15 169 46v156h-232v118z" />
    <glyph glyph-name="Gcircumflex" unicode="&#x11c;" horiz-adv-x="813" 
d="M454 949l-68 -75h-129l137 141h122l135 -141h-129zM412 432h352v-364c-77 -51 -194 -80 -295 -80c-248 0 -422 172 -423 418v1c0 246 175 417 424 417c100 0 191 -24 284 -78l-50 -116c-62 44 -141 70 -229 70c-154 0 -290 -98 -290 -293v-1c1 -195 136 -294 290 -294
c62 0 118 15 169 46v156h-232v118z" />
    <glyph glyph-name="Gcommaaccent" unicode="&#x122;" horiz-adv-x="813" 
d="M412 432h352v-364c-77 -51 -194 -80 -295 -80c-248 0 -422 172 -423 418v1c0 246 175 417 424 417c100 0 191 -24 284 -78l-50 -116c-62 44 -141 70 -229 70c-154 0 -290 -98 -290 -293v-1c1 -195 136 -294 290 -294c62 0 118 15 169 46v156h-232v118zM351 -220l62 176
h118l-92 -176h-88z" />
    <glyph glyph-name="Gdotaccent" unicode="&#x120;" horiz-adv-x="813" 
d="M455 872c-42 0 -80 25 -80 73c0 43 35 71 80 71c43 0 78 -28 78 -71c0 -48 -37 -73 -78 -73zM412 432h352v-364c-77 -51 -194 -80 -295 -80c-248 0 -422 172 -423 418v1c0 246 175 417 424 417c100 0 191 -24 284 -78l-50 -116c-62 44 -141 70 -229 70
c-154 0 -290 -98 -290 -293v-1c1 -195 136 -294 290 -294c62 0 118 15 169 46v156h-232v118z" />
    <glyph glyph-name="H" unicode="H" horiz-adv-x="848" 
d="M100 0v811h128v-335h392v335h128v-811h-128v356h-392v-356h-128z" />
    <glyph glyph-name="Hbar" unicode="&#x126;" horiz-adv-x="848" 
d="M812 705v-110h-64v-595h-128v356h-392v-356h-128v595h-65v110h65v106h128v-106h392v106h128v-106h64zM620 476v119h-392v-119h392z" />
    <glyph glyph-name="Hcircumflex" unicode="&#x124;" horiz-adv-x="848" 
d="M227 874l137 141h122l135 -141h-129l-68 75l-68 -75h-129zM100 0v811h128v-335h392v335h128v-811h-128v356h-392v-356h-128z" />
    <glyph glyph-name="I" unicode="I" horiz-adv-x="328" 
d="M100 0v811h128v-811h-128z" />
    <glyph glyph-name="IJ" unicode="&#x132;" horiz-adv-x="834" 
d="M100 0v811h128v-811h-128zM525 -12c-78 0 -146 20 -189 42l46 110c36 -16 74 -27 115 -27c67 0 109 35 109 129v569h128v-584c0 -159 -73 -239 -209 -239z" />
    <glyph glyph-name="Iacute" unicode="&#xcd;" horiz-adv-x="328" 
d="M82 877l136 141h150l-159 -141h-127zM100 0v811h128v-811h-128z" />
    <glyph glyph-name="Ibreve" unicode="&#x12c;" horiz-adv-x="328" 
d="M167 870c-102 0 -170 40 -181 147h87c8 -55 32 -82 94 -82c61 0 85 27 94 82h87c-11 -107 -79 -147 -181 -147zM100 0v811h128v-811h-128z" />
    <glyph glyph-name="uni01CF" unicode="&#x1cf;" horiz-adv-x="328" 
d="M102 872l-157 151h126l95 -97l94 97h125l-155 -151h-128zM100 0v811h128v-811h-128z" />
    <glyph glyph-name="Icircumflex" unicode="&#xce;" horiz-adv-x="328" 
d="M-32 874l137 141h122l135 -141h-129l-68 75l-68 -75h-129zM100 0v811h128v-811h-128z" />
    <glyph glyph-name="Idieresis" unicode="&#xcf;" horiz-adv-x="328" 
d="M66 872c-40 0 -77 24 -77 69c1 41 34 69 77 69c41 0 74 -28 74 -69c0 -45 -35 -69 -74 -69zM264 872c-40 0 -77 24 -77 69c1 41 35 69 77 69c41 0 74 -28 74 -69c0 -45 -35 -69 -74 -69zM100 0v811h128v-811h-128z" />
    <glyph glyph-name="Idotaccent" unicode="&#x130;" horiz-adv-x="328" 
d="M166 872c-42 0 -80 25 -80 73c0 43 35 71 80 71c43 0 78 -28 78 -71c0 -48 -37 -73 -78 -73zM100 0v811h128v-811h-128z" />
    <glyph glyph-name="uni1ECA" unicode="&#x1eca;" horiz-adv-x="328" 
d="M100 0v811h128v-811h-128zM167 -195c-43 0 -82 25 -82 74c0 44 36 73 82 73c44 0 80 -29 80 -73c0 -49 -38 -74 -80 -74z" />
    <glyph glyph-name="Igrave" unicode="&#xcc;" horiz-adv-x="328" 
d="M157 872l-155 151h154l86 -151h-85zM100 0v811h128v-811h-128z" />
    <glyph glyph-name="Imacron" unicode="&#x12a;" horiz-adv-x="328" 
d="M11 872v85h309v-85h-309zM100 0v811h128v-811h-128z" />
    <glyph glyph-name="Iogonek" unicode="&#x12e;" horiz-adv-x="328" 
d="M195 -166c16 0 30 2 41 4v-58c-14 -3 -45 -7 -71 -7c-86 0 -163 27 -162 105c1 58 34 93 97 126v807h128v-811c-75 -34 -114 -63 -115 -107c0 -41 33 -59 82 -59z" />
    <glyph glyph-name="Itilde" unicode="&#x128;" horiz-adv-x="328" 
d="M-24 868c5 79 29 131 106 131c64 0 99 -41 148 -41c22 0 31 13 37 40h91c-5 -79 -27 -130 -105 -130c-63 0 -100 41 -148 41c-23 0 -33 -12 -38 -41h-91zM100 0v811h128v-811h-128z" />
    <glyph glyph-name="J" unicode="J" horiz-adv-x="506" 
d="M197 -12c-78 0 -146 20 -189 42l46 110c36 -16 74 -27 115 -27c67 0 109 35 109 129v569h128v-584c0 -159 -73 -239 -209 -239z" />
    <glyph glyph-name="Jcircumflex" unicode="&#x134;" horiz-adv-x="506" 
d="M149 874l137 141h122l135 -141h-129l-68 75l-68 -75h-129zM197 -12c-78 0 -146 20 -189 42l46 110c36 -16 74 -27 115 -27c67 0 109 35 109 129v569h128v-584c0 -159 -73 -239 -209 -239z" />
    <glyph glyph-name="K" unicode="K" horiz-adv-x="758" 
d="M365 408l366 -408h-157l-346 390v-390h-128v811h128v-394l332 394h150z" />
    <glyph glyph-name="Kcommaaccent" unicode="&#x136;" horiz-adv-x="758" 
d="M365 408l366 -408h-157l-346 390v-390h-128v811h128v-394l332 394h150zM254 -220l62 176h118l-92 -176h-88z" />
    <glyph glyph-name="L" unicode="L" horiz-adv-x="669" 
d="M100 0v811h128v-691h366v-120h-494z" />
    <glyph glyph-name="Lacute" unicode="&#x139;" horiz-adv-x="669" 
d="M84 877l136 141h150l-159 -141h-127zM100 0v811h128v-691h366v-120h-494z" />
    <glyph glyph-name="Lcaron" unicode="&#x13d;" horiz-adv-x="669" 
d="M100 0v811h128v-691h366v-120h-494zM292 580l41 231h106l-72 -231h-75z" />
    <glyph glyph-name="Lcommaaccent" unicode="&#x13b;" horiz-adv-x="669" 
d="M100 0v811h128v-691h366v-120h-494zM230 -220l62 176h118l-92 -176h-88z" />
    <glyph glyph-name="Ldot" unicode="&#x13f;" horiz-adv-x="669" 
d="M100 0v811h128v-691h366v-120h-494zM432 378c-43 0 -82 25 -82 74c0 44 36 73 82 73c44 0 80 -29 80 -73c0 -49 -38 -74 -80 -74z" />
    <glyph glyph-name="uni1E36" unicode="&#x1e36;" horiz-adv-x="669" 
d="M100 0v811h128v-691h366v-120h-494zM355 -195c-43 0 -82 25 -82 74c0 44 36 73 82 73c44 0 80 -29 80 -73c0 -49 -38 -74 -80 -74z" />
    <glyph glyph-name="Lslash" unicode="&#x141;" horiz-adv-x="669" 
d="M228 120h366v-120h-494v363l-83 -45l-35 75l118 64v354h128v-285l89 48l35 -75l-124 -67v-312z" />
    <glyph glyph-name="M" unicode="M" horiz-adv-x="999" 
d="M736 811h162v-811h-127v596l-8 -28l-204 -568h-120l-205 569l-7 26v-595h-127v811h161l214 -585l24 -95l25 94z" />
    <glyph glyph-name="N" unicode="N" horiz-adv-x="861" 
d="M633 811h128v-811h-148l-386 620v-620h-127v811h147l386 -619v619z" />
    <glyph glyph-name="Nacute" unicode="&#x143;" horiz-adv-x="861" 
d="M615 1018l-159 -141h-127l136 141h150zM633 811h128v-811h-148l-386 620v-620h-127v811h147l386 -619v619z" />
    <glyph glyph-name="Ncaron" unicode="&#x147;" horiz-adv-x="861" 
d="M477 872h-128l-157 151h126l95 -97l94 97h125zM633 811h128v-811h-148l-386 620v-620h-127v811h147l386 -619v619z" />
    <glyph glyph-name="Ncommaaccent" unicode="&#x145;" horiz-adv-x="861" 
d="M633 811h128v-811h-148l-386 620v-620h-127v811h147l386 -619v619zM306 -220l62 176h118l-92 -176h-88z" />
    <glyph glyph-name="Eng" unicode="&#x14a;" horiz-adv-x="824" 
d="M597 811h126v-772c0 -208 -48 -269 -209 -269c-14 0 -28 1 -41 4l-21 118c24 -6 41 -8 59 -8c62 0 86 35 86 134v14l-369 653v-685h-128v811h171l326 -576v576z" />
    <glyph glyph-name="Ntilde" unicode="&#xd1;" horiz-adv-x="861" 
d="M352 909c-23 0 -33 -12 -38 -41h-91c5 79 29 131 106 131c64 0 99 -41 148 -41c22 0 31 13 37 40h91c-5 -79 -27 -130 -105 -130c-63 0 -100 41 -148 41zM633 811h128v-811h-148l-386 620v-620h-127v811h147l386 -619v619z" />
    <glyph glyph-name="O" unicode="O" horiz-adv-x="906" 
d="M453 -12c-249 0 -406 189 -406 419v1c0 231 156 416 406 416h1c248 0 405 -185 405 -416v-1c0 -230 -158 -419 -405 -419h-1zM453 113h1c164 0 276 128 277 295v1c0 168 -112 291 -277 291h-1c-167 0 -278 -123 -278 -291v-1c1 -167 113 -295 278 -295z" />
    <glyph glyph-name="Oacute" unicode="&#xd3;" horiz-adv-x="906" 
d="M363 877l136 141h150l-159 -141h-127zM453 -12c-249 0 -406 189 -406 419v1c0 231 156 416 406 416h1c248 0 405 -185 405 -416v-1c0 -230 -158 -419 -405 -419h-1zM453 113h1c164 0 276 128 277 295v1c0 168 -112 291 -277 291h-1c-167 0 -278 -123 -278 -291v-1
c1 -167 113 -295 278 -295z" />
    <glyph glyph-name="Obreve" unicode="&#x14e;" horiz-adv-x="906" 
d="M448 870c-102 0 -170 40 -181 147h87c8 -55 32 -82 94 -82c61 0 85 27 94 82h87c-11 -107 -79 -147 -181 -147zM453 -12c-249 0 -406 189 -406 419v1c0 231 156 416 406 416h1c248 0 405 -185 405 -416v-1c0 -230 -158 -419 -405 -419h-1zM453 113h1
c164 0 276 128 277 295v1c0 168 -112 291 -277 291h-1c-167 0 -278 -123 -278 -291v-1c1 -167 113 -295 278 -295z" />
    <glyph glyph-name="uni01D1" unicode="&#x1d1;" horiz-adv-x="906" 
d="M383 872l-157 151h126l95 -97l94 97h125l-155 -151h-128zM453 -12c-249 0 -406 189 -406 419v1c0 231 156 416 406 416h1c248 0 405 -185 405 -416v-1c0 -230 -158 -419 -405 -419h-1zM453 113h1c164 0 276 128 277 295v1c0 168 -112 291 -277 291h-1
c-167 0 -278 -123 -278 -291v-1c1 -167 113 -295 278 -295z" />
    <glyph glyph-name="Ocircumflex" unicode="&#xd4;" horiz-adv-x="906" 
d="M249 874l137 141h122l135 -141h-129l-68 75l-68 -75h-129zM453 -12c-249 0 -406 189 -406 419v1c0 231 156 416 406 416h1c248 0 405 -185 405 -416v-1c0 -230 -158 -419 -405 -419h-1zM453 113h1c164 0 276 128 277 295v1c0 168 -112 291 -277 291h-1
c-167 0 -278 -123 -278 -291v-1c1 -167 113 -295 278 -295z" />
    <glyph glyph-name="Odieresis" unicode="&#xd6;" horiz-adv-x="906" 
d="M347 872c-40 0 -77 24 -77 69c1 41 34 69 77 69c41 0 74 -28 74 -69c0 -45 -35 -69 -74 -69zM545 872c-40 0 -77 24 -77 69c1 41 35 69 77 69c41 0 74 -28 74 -69c0 -45 -35 -69 -74 -69zM453 -12c-249 0 -406 189 -406 419v1c0 231 156 416 406 416h1
c248 0 405 -185 405 -416v-1c0 -230 -158 -419 -405 -419h-1zM453 113h1c164 0 276 128 277 295v1c0 168 -112 291 -277 291h-1c-167 0 -278 -123 -278 -291v-1c1 -167 113 -295 278 -295z" />
    <glyph glyph-name="uni1ECC" unicode="&#x1ecc;" horiz-adv-x="906" 
d="M453 -12c-249 0 -406 189 -406 419v1c0 231 156 416 406 416h1c248 0 405 -185 405 -416v-1c0 -230 -158 -419 -405 -419h-1zM453 113h1c164 0 276 128 277 295v1c0 168 -112 291 -277 291h-1c-167 0 -278 -123 -278 -291v-1c1 -167 113 -295 278 -295zM452 -215
c-43 0 -82 25 -82 74c0 44 36 73 82 73c44 0 80 -29 80 -73c0 -49 -38 -74 -80 -74z" />
    <glyph glyph-name="Ograve" unicode="&#xd2;" horiz-adv-x="906" 
d="M438 872l-155 151h154l86 -151h-85zM453 -12c-249 0 -406 189 -406 419v1c0 231 156 416 406 416h1c248 0 405 -185 405 -416v-1c0 -230 -158 -419 -405 -419h-1zM453 113h1c164 0 276 128 277 295v1c0 168 -112 291 -277 291h-1c-167 0 -278 -123 -278 -291v-1
c1 -167 113 -295 278 -295z" />
    <glyph glyph-name="Ohungarumlaut" unicode="&#x150;" horiz-adv-x="906" 
d="M293 880l106 141h150l-129 -141h-127zM504 880l106 141h150l-129 -141h-127zM453 -12c-249 0 -406 189 -406 419v1c0 231 156 416 406 416h1c248 0 405 -185 405 -416v-1c0 -230 -158 -419 -405 -419h-1zM453 113h1c164 0 276 128 277 295v1c0 168 -112 291 -277 291h-1
c-167 0 -278 -123 -278 -291v-1c1 -167 113 -295 278 -295z" />
    <glyph glyph-name="Omacron" unicode="&#x14c;" horiz-adv-x="906" 
d="M292 872v85h309v-85h-309zM453 -12c-249 0 -406 189 -406 419v1c0 231 156 416 406 416h1c248 0 405 -185 405 -416v-1c0 -230 -158 -419 -405 -419h-1zM453 113h1c164 0 276 128 277 295v1c0 168 -112 291 -277 291h-1c-167 0 -278 -123 -278 -291v-1
c1 -167 113 -295 278 -295z" />
    <glyph glyph-name="Oslash" unicode="&#xd8;" horiz-adv-x="906" 
d="M868 821l-109 -129c64 -74 100 -174 100 -284v-1c0 -230 -158 -419 -405 -419h-1c-90 0 -167 24 -230 67l-83 -99l-115 45l112 133c-58 73 -90 169 -90 273v1c0 231 156 416 406 416h1c84 0 157 -21 218 -58l82 97zM175 408c0 -65 18 -124 48 -172l366 432
c-39 20 -85 32 -135 32h-1c-167 0 -278 -123 -278 -291v-1zM731 409c0 71 -20 134 -56 183l-369 -439c42 -25 91 -40 147 -40h1c164 0 276 128 277 295v1z" />
    <glyph glyph-name="Otilde" unicode="&#xd5;" horiz-adv-x="906" 
d="M257 868c5 79 29 131 106 131c64 0 99 -41 148 -41c22 0 31 13 37 40h91c-5 -79 -27 -130 -105 -130c-63 0 -100 41 -148 41c-23 0 -33 -12 -38 -41h-91zM453 -12c-249 0 -406 189 -406 419v1c0 231 156 416 406 416h1c248 0 405 -185 405 -416v-1
c0 -230 -158 -419 -405 -419h-1zM453 113h1c164 0 276 128 277 295v1c0 168 -112 291 -277 291h-1c-167 0 -278 -123 -278 -291v-1c1 -167 113 -295 278 -295z" />
    <glyph glyph-name="OE" unicode="&#x152;" horiz-adv-x="1317" 
d="M859 120h384v-120h-512v93c-69 -65 -164 -105 -277 -105h-1c-249 0 -406 189 -406 419v1c0 231 156 416 406 416h1c114 0 208 -39 277 -103v90h509v-120h-381v-214h345v-120h-345v-237zM454 113c164 0 276 128 277 295v1c0 168 -112 291 -277 291h-1
c-167 0 -278 -123 -278 -291v-1c1 -167 113 -295 278 -295h1z" />
    <glyph glyph-name="P" unicode="P" horiz-adv-x="722" 
d="M389 811c210 0 286 -116 286 -249v-1c-1 -157 -99 -260 -285 -260h-162v-301h-128v811h289zM547 558v1c0 97 -61 133 -166 133h-153v-272h153c120 0 165 51 166 138z" />
    <glyph glyph-name="Thorn" unicode="&#xde;" horiz-adv-x="702" 
d="M369 658c210 0 286 -116 286 -249c-1 -158 -99 -261 -285 -261h-157v-148h-129v811h129v-153h156zM361 267c120 0 166 51 166 139c0 97 -61 133 -166 133h-148v-272h148z" />
    <glyph glyph-name="Q" unicode="Q" horiz-adv-x="921" 
d="M875 -10l-86 -85l-133 133c-58 -32 -126 -50 -202 -50h-1c-249 0 -406 189 -406 419v1c0 231 156 416 406 416h1c248 0 405 -185 405 -416v-1c0 -114 -39 -218 -108 -294zM454 113c39 0 74 7 106 20l-101 101l86 85l115 -114c45 52 71 123 71 203v1
c0 168 -112 291 -277 291h-1c-167 0 -278 -123 -278 -291v-1c1 -167 113 -295 278 -295h1z" />
    <glyph glyph-name="R" unicode="R" horiz-adv-x="768" 
d="M580 0l-203 327h-149v-327h-128v811h313c203 0 287 -98 287 -236v-1c0 -118 -66 -208 -191 -237l212 -337h-141zM228 692v-253h195c92 0 149 47 149 130v1c0 82 -58 122 -149 122h-195z" />
    <glyph glyph-name="Racute" unicode="&#x154;" horiz-adv-x="768" 
d="M579 1018l-159 -141h-127l136 141h150zM580 0l-203 327h-149v-327h-128v811h313c203 0 287 -98 287 -236v-1c0 -118 -66 -208 -191 -237l212 -337h-141zM228 692v-253h195c92 0 149 47 149 130v1c0 82 -58 122 -149 122h-195z" />
    <glyph glyph-name="Rcaron" unicode="&#x158;" horiz-adv-x="768" 
d="M441 872h-128l-157 151h126l95 -97l94 97h125zM580 0l-203 327h-149v-327h-128v811h313c203 0 287 -98 287 -236v-1c0 -118 -66 -208 -191 -237l212 -337h-141zM228 692v-253h195c92 0 149 47 149 130v1c0 82 -58 122 -149 122h-195z" />
    <glyph glyph-name="Rcommaaccent" unicode="&#x156;" horiz-adv-x="768" 
d="M509 337l212 -337h-141l-203 327h-149v-327h-128v811h313c203 0 287 -98 287 -236v-1c0 -118 -66 -208 -191 -237zM228 692v-253h195c92 0 149 47 149 130v1c0 82 -58 122 -149 122h-195zM271 -220l62 176h118l-92 -176h-88z" />
    <glyph glyph-name="S" unicode="S" horiz-adv-x="721" 
d="M350 -12c-108 0 -213 27 -285 75l50 107c61 -42 145 -67 230 -67c116 0 181 47 181 119v2c0 61 -44 92 -161 127l-70 21c-144 42 -207 112 -207 233v2c0 130 105 217 280 217c100 0 200 -25 269 -70l-49 -107c-60 40 -140 63 -219 63c-104 0 -153 -42 -153 -100v-2
c0 -70 42 -95 126 -122c22 -7 51 -15 73 -21c171 -48 240 -120 240 -239v-2c0 -148 -117 -236 -305 -236z" />
    <glyph glyph-name="Sacute" unicode="&#x15a;" horiz-adv-x="721" 
d="M278 877l136 141h150l-159 -141h-127zM350 -12c-108 0 -213 27 -285 75l50 107c61 -42 145 -67 230 -67c116 0 181 47 181 119v2c0 61 -44 92 -161 127l-70 21c-144 42 -207 112 -207 233v2c0 130 105 217 280 217c100 0 200 -25 269 -70l-49 -107
c-60 40 -140 63 -219 63c-104 0 -153 -42 -153 -100v-2c0 -70 42 -95 126 -122c22 -7 51 -15 73 -21c171 -48 240 -120 240 -239v-2c0 -148 -117 -236 -305 -236z" />
    <glyph glyph-name="Scaron" unicode="&#x160;" horiz-adv-x="721" 
d="M298 872l-157 151h126l95 -97l94 97h125l-155 -151h-128zM350 -12c-108 0 -213 27 -285 75l50 107c61 -42 145 -67 230 -67c116 0 181 47 181 119v2c0 61 -44 92 -161 127l-70 21c-144 42 -207 112 -207 233v2c0 130 105 217 280 217c100 0 200 -25 269 -70l-49 -107
c-60 40 -140 63 -219 63c-104 0 -153 -42 -153 -100v-2c0 -70 42 -95 126 -122c22 -7 51 -15 73 -21c171 -48 240 -120 240 -239v-2c0 -148 -117 -236 -305 -236z" />
    <glyph glyph-name="Scedilla" unicode="&#x15e;" horiz-adv-x="721" 
d="M415 465c171 -48 240 -120 240 -239v-2c0 -139 -103 -225 -272 -235l-29 -43c2 1 9 1 14 1c49 0 105 -21 104 -76c0 -64 -57 -91 -127 -91c-31 0 -56 3 -84 12l-5 54c20 -7 60 -16 84 -16c42 0 70 11 71 37c0 27 -27 36 -66 36c-26 0 -55 -7 -71 -11l-6 7l59 89
c-100 4 -195 30 -262 75l50 107c61 -42 145 -67 230 -67c116 0 181 47 181 119v2c0 61 -44 92 -161 127l-70 21c-144 42 -207 112 -207 233v2c0 130 105 217 280 217c100 0 200 -25 269 -70l-49 -107c-60 40 -140 63 -219 63c-104 0 -153 -42 -153 -100v-2
c0 -70 42 -95 126 -122c22 -7 51 -15 73 -21z" />
    <glyph glyph-name="Scircumflex" unicode="&#x15c;" horiz-adv-x="721" 
d="M164 874l137 141h122l135 -141h-129l-68 75l-68 -75h-129zM350 -12c-108 0 -213 27 -285 75l50 107c61 -42 145 -67 230 -67c116 0 181 47 181 119v2c0 61 -44 92 -161 127l-70 21c-144 42 -207 112 -207 233v2c0 130 105 217 280 217c100 0 200 -25 269 -70l-49 -107
c-60 40 -140 63 -219 63c-104 0 -153 -42 -153 -100v-2c0 -70 42 -95 126 -122c22 -7 51 -15 73 -21c171 -48 240 -120 240 -239v-2c0 -148 -117 -236 -305 -236z" />
    <glyph glyph-name="Scommaaccent" unicode="&#x218;" horiz-adv-x="721" 
d="M350 -12c-108 0 -213 27 -285 75l50 107c61 -42 145 -67 230 -67c116 0 181 47 181 119v2c0 61 -44 92 -161 127l-70 21c-144 42 -207 112 -207 233v2c0 130 105 217 280 217c100 0 200 -25 269 -70l-49 -107c-60 40 -140 63 -219 63c-104 0 -153 -42 -153 -100v-2
c0 -70 42 -95 126 -122c22 -7 51 -15 73 -21c171 -48 240 -120 240 -239v-2c0 -148 -117 -236 -305 -236zM239 -220l62 176h118l-92 -176h-88z" />
    <glyph glyph-name="uni018F" unicode="&#x18f;" horiz-adv-x="850" 
d="M413 826c237 0 377 -155 377 -417v-1c0 -264 -133 -420 -357 -420h-1c-233 0 -372 144 -372 389v74h599c-13 159 -105 252 -253 252h-1c-82 0 -171 -24 -242 -64l-50 109c85 50 195 78 299 78h1zM433 112c124 0 201 77 222 214h-463c18 -135 105 -214 240 -214h1z" />
    <glyph glyph-name="T" unicode="T" horiz-adv-x="707" 
d="M290 0v691h-264v120h655v-120h-263v-691h-128z" />
    <glyph glyph-name="Tbar" unicode="&#x166;" horiz-adv-x="707" 
d="M681 691h-263v-153h102v-102h-102v-436h-128v436h-101v102h101v153h-264v120h655v-120z" />
    <glyph glyph-name="Tcaron" unicode="&#x164;" horiz-adv-x="707" 
d="M291 872l-157 151h126l95 -97l94 97h125l-155 -151h-128zM290 0v691h-264v120h655v-120h-263v-691h-128z" />
    <glyph glyph-name="uni0162" unicode="&#x162;" horiz-adv-x="707" 
d="M418 0h-36l-37 -54c2 1 9 1 14 1c49 0 105 -21 104 -76c0 -64 -57 -91 -127 -91c-31 0 -56 3 -84 12l-5 54c20 -7 60 -16 84 -16c42 0 70 11 71 37c0 27 -27 36 -66 36c-26 0 -55 -7 -71 -11l-6 7l67 101h-36v691h-264v120h655v-120h-263v-691z" />
    <glyph glyph-name="uni021A" unicode="&#x21a;" horiz-adv-x="707" 
d="M290 0v691h-264v120h655v-120h-263v-691h-128zM230 -220l62 176h118l-92 -176h-88z" />
    <glyph glyph-name="U" unicode="U" horiz-adv-x="881" 
d="M441 -12c-241 0 -341 121 -341 328v495h128v-462c0 -164 60 -236 213 -236c152 0 212 72 212 236v462h128v-495c0 -207 -100 -328 -340 -328z" />
    <glyph glyph-name="Uacute" unicode="&#xda;" horiz-adv-x="881" 
d="M358 877l136 141h150l-159 -141h-127zM441 -12c-241 0 -341 121 -341 328v495h128v-462c0 -164 60 -236 213 -236c152 0 212 72 212 236v462h128v-495c0 -207 -100 -328 -340 -328z" />
    <glyph glyph-name="Ubreve" unicode="&#x16c;" horiz-adv-x="881" 
d="M443 870c-102 0 -170 40 -181 147h87c8 -55 32 -82 94 -82c61 0 85 27 94 82h87c-11 -107 -79 -147 -181 -147zM441 -12c-241 0 -341 121 -341 328v495h128v-462c0 -164 60 -236 213 -236c152 0 212 72 212 236v462h128v-495c0 -207 -100 -328 -340 -328z" />
    <glyph glyph-name="uni01D3" unicode="&#x1d3;" horiz-adv-x="881" 
d="M378 872l-157 151h126l95 -97l94 97h125l-155 -151h-128zM441 -12c-241 0 -341 121 -341 328v495h128v-462c0 -164 60 -236 213 -236c152 0 212 72 212 236v462h128v-495c0 -207 -100 -328 -340 -328z" />
    <glyph glyph-name="Ucircumflex" unicode="&#xdb;" horiz-adv-x="881" 
d="M244 874l137 141h122l135 -141h-129l-68 75l-68 -75h-129zM441 -12c-241 0 -341 121 -341 328v495h128v-462c0 -164 60 -236 213 -236c152 0 212 72 212 236v462h128v-495c0 -207 -100 -328 -340 -328z" />
    <glyph glyph-name="Udieresis" unicode="&#xdc;" horiz-adv-x="881" 
d="M342 872c-40 0 -77 24 -77 69c1 41 34 69 77 69c41 0 74 -28 74 -69c0 -45 -35 -69 -74 -69zM540 872c-40 0 -77 24 -77 69c1 41 35 69 77 69c41 0 74 -28 74 -69c0 -45 -35 -69 -74 -69zM441 -12c-241 0 -341 121 -341 328v495h128v-462c0 -164 60 -236 213 -236
c152 0 212 72 212 236v462h128v-495c0 -207 -100 -328 -340 -328z" />
    <glyph glyph-name="uni1EE4" unicode="&#x1ee4;" horiz-adv-x="881" 
d="M441 -12c-241 0 -341 121 -341 328v495h128v-462c0 -164 60 -236 213 -236c152 0 212 72 212 236v462h128v-495c0 -207 -100 -328 -340 -328zM441 -210c-43 0 -82 25 -82 74c0 44 36 73 82 73c44 0 80 -29 80 -73c0 -49 -38 -74 -80 -74z" />
    <glyph glyph-name="Ugrave" unicode="&#xd9;" horiz-adv-x="881" 
d="M433 872l-155 151h154l86 -151h-85zM441 -12c-241 0 -341 121 -341 328v495h128v-462c0 -164 60 -236 213 -236c152 0 212 72 212 236v462h128v-495c0 -207 -100 -328 -340 -328z" />
    <glyph glyph-name="Uhungarumlaut" unicode="&#x170;" horiz-adv-x="881" 
d="M288 880l106 141h150l-129 -141h-127zM499 880l106 141h150l-129 -141h-127zM441 -12c-241 0 -341 121 -341 328v495h128v-462c0 -164 60 -236 213 -236c152 0 212 72 212 236v462h128v-495c0 -207 -100 -328 -340 -328z" />
    <glyph glyph-name="Umacron" unicode="&#x16a;" horiz-adv-x="881" 
d="M287 872v85h309v-85h-309zM441 -12c-241 0 -341 121 -341 328v495h128v-462c0 -164 60 -236 213 -236c152 0 212 72 212 236v462h128v-495c0 -207 -100 -328 -340 -328z" />
    <glyph glyph-name="Uogonek" unicode="&#x172;" horiz-adv-x="881" 
d="M653 811h128v-495c0 -179 -74 -293 -249 -321c-71 -33 -110 -58 -111 -96c-2 -37 35 -51 79 -51c16 0 30 2 41 4v-58c-14 -3 -45 -7 -71 -7c-81 0 -162 23 -161 98c2 41 31 75 81 105c-204 16 -290 134 -290 326v495h128v-462c0 -164 60 -236 213 -236
c152 0 212 72 212 236v462z" />
    <glyph glyph-name="Uring" unicode="&#x16e;" horiz-adv-x="881" 
d="M443 870c-64 0 -117 51 -117 115c0 65 51 113 117 113c64 0 116 -51 116 -114c0 -66 -51 -114 -116 -114zM442 935c32 0 52 21 52 49c-1 28 -21 50 -51 50s-52 -22 -52 -50c-1 -28 23 -49 51 -49zM441 -12c-241 0 -341 121 -341 328v495h128v-462
c0 -164 60 -236 213 -236c152 0 212 72 212 236v462h128v-495c0 -207 -100 -328 -340 -328z" />
    <glyph glyph-name="Utilde" unicode="&#x168;" horiz-adv-x="881" 
d="M252 868c5 79 29 131 106 131c64 0 99 -41 148 -41c22 0 31 13 37 40h91c-5 -79 -27 -130 -105 -130c-63 0 -100 41 -148 41c-23 0 -33 -12 -38 -41h-91zM441 -12c-241 0 -341 121 -341 328v495h128v-462c0 -164 60 -236 213 -236c152 0 212 72 212 236v462h128v-495
c0 -207 -100 -328 -340 -328z" />
    <glyph glyph-name="V" unicode="V" horiz-adv-x="770" 
d="M606 811h138l-268 -811h-184l-266 811h138l220 -686z" />
    <glyph glyph-name="W" unicode="W" horiz-adv-x="1068" 
d="M901 811h133l-192 -811h-175l-132 662l-133 -662h-176l-192 811h134l150 -675l133 675h167l132 -675z" />
    <glyph glyph-name="Wacute" unicode="&#x1e82;" horiz-adv-x="1068" 
d="M737 1018l-159 -141h-127l136 141h150zM901 811h133l-192 -811h-175l-132 662l-133 -662h-176l-192 811h134l150 -675l133 675h167l132 -675z" />
    <glyph glyph-name="Wcircumflex" unicode="&#x174;" horiz-adv-x="1068" 
d="M534 949l-68 -75h-129l137 141h122l135 -141h-129zM901 811h133l-192 -811h-175l-132 662l-133 -662h-176l-192 811h134l150 -675l133 675h167l132 -675z" />
    <glyph glyph-name="Wdieresis" unicode="&#x1e84;" horiz-adv-x="1068" 
d="M435 872c-40 0 -77 24 -77 69c1 41 34 69 77 69c41 0 74 -28 74 -69c0 -45 -35 -69 -74 -69zM633 872c-40 0 -77 24 -77 69c1 41 35 69 77 69c41 0 74 -28 74 -69c0 -45 -35 -69 -74 -69zM901 811h133l-192 -811h-175l-132 662l-133 -662h-176l-192 811h134l150 -675
l133 675h167l132 -675z" />
    <glyph glyph-name="Wgrave" unicode="&#x1e80;" horiz-adv-x="1068" 
d="M611 872h-85l-155 151h154zM901 811h133l-192 -811h-175l-132 662l-133 -662h-176l-192 811h134l150 -675l133 675h167l132 -675z" />
    <glyph glyph-name="X" unicode="X" horiz-adv-x="781" 
d="M25 0l291 409l-284 402h151l210 -300l211 300h146l-284 -397l290 -414h-150l-218 312l-221 -312h-142z" />
    <glyph glyph-name="Y" unicode="Y" horiz-adv-x="767" 
d="M603 811h144l-300 -501v-310h-128v310l-299 501h144l219 -381z" />
    <glyph glyph-name="Yacute" unicode="&#xdd;" horiz-adv-x="767" 
d="M587 1018l-159 -141h-127l136 141h150zM603 811h144l-300 -501v-310h-128v310l-299 501h144l219 -381z" />
    <glyph glyph-name="Ycircumflex" unicode="&#x176;" horiz-adv-x="767" 
d="M384 949l-68 -75h-129l137 141h122l135 -141h-129zM603 811h144l-300 -501v-310h-128v310l-299 501h144l219 -381z" />
    <glyph glyph-name="Ydieresis" unicode="&#x178;" horiz-adv-x="767" 
d="M285 872c-40 0 -77 24 -77 69c1 41 34 69 77 69c41 0 74 -28 74 -69c0 -45 -35 -69 -74 -69zM483 872c-40 0 -77 24 -77 69c1 41 35 69 77 69c41 0 74 -28 74 -69c0 -45 -35 -69 -74 -69zM603 811h144l-300 -501v-310h-128v310l-299 501h144l219 -381z" />
    <glyph glyph-name="Ygrave" unicode="&#x1ef2;" horiz-adv-x="767" 
d="M461 872h-85l-155 151h154zM603 811h144l-300 -501v-310h-128v310l-299 501h144l219 -381z" />
    <glyph glyph-name="uni0232" unicode="&#x232;" horiz-adv-x="767" 
d="M539 957v-85h-309v85h309zM603 811h144l-300 -501v-310h-128v310l-299 501h144l219 -381z" />
    <glyph glyph-name="uni1EF8" unicode="&#x1ef8;" horiz-adv-x="767" 
d="M324 909c-23 0 -33 -12 -38 -41h-91c5 79 29 131 106 131c64 0 99 -41 148 -41c22 0 31 13 37 40h91c-5 -79 -27 -130 -105 -130c-63 0 -100 41 -148 41zM603 811h144l-300 -501v-310h-128v310l-299 501h144l219 -381z" />
    <glyph glyph-name="Z" unicode="Z" horiz-adv-x="710" 
d="M661 811v-119l-458 -572h458v-120h-616v120l458 572h-429v120z" />
    <glyph glyph-name="Zacute" unicode="&#x179;" horiz-adv-x="710" 
d="M571 1018l-159 -141h-127l136 141h150zM661 811v-119l-458 -572h458v-120h-616v120l458 572h-429v120z" />
    <glyph glyph-name="Zcaron" unicode="&#x17d;" horiz-adv-x="710" 
d="M433 872h-128l-157 151h126l95 -97l94 97h125zM661 811v-119l-458 -572h458v-120h-616v120l458 572h-429v120z" />
    <glyph glyph-name="Zdotaccent" unicode="&#x17b;" horiz-adv-x="710" 
d="M369 872c-42 0 -80 25 -80 73c0 43 35 71 80 71c43 0 78 -28 78 -71c0 -48 -37 -73 -78 -73zM661 811v-119l-458 -572h458v-120h-616v120l458 572h-429v120z" />
    <glyph glyph-name="a" unicode="a" horiz-adv-x="627" 
d="M299 584c149 0 253 -65 253 -220v-338c-62 -17 -161 -36 -250 -36c-173 0 -268 67 -268 192v1c0 121 90 187 255 187c40 0 87 -4 136 -10v3c0 68 -52 108 -155 108c-53 0 -131 -11 -193 -37l30 118c44 19 120 32 192 32zM164 185c0 -54 44 -80 139 -80c34 0 91 5 122 13
v134c-22 4 -81 11 -122 11c-95 0 -139 -25 -139 -78z" />
    <glyph glyph-name="aacute" unicode="&#xe1;" horiz-adv-x="627" 
d="M509 789l-159 -141h-127l136 141h150zM299 584c149 0 253 -65 253 -220v-338c-62 -17 -161 -36 -250 -36c-173 0 -268 67 -268 192v1c0 121 90 187 255 187c40 0 87 -4 136 -10v3c0 68 -52 108 -155 108c-53 0 -131 -11 -193 -37l30 118c44 19 120 32 192 32zM164 185
c0 -54 44 -80 139 -80c34 0 91 5 122 13v134c-22 4 -81 11 -122 11c-95 0 -139 -25 -139 -78z" />
    <glyph glyph-name="abreve" unicode="&#x103;" horiz-adv-x="627" 
d="M308 641c-102 0 -170 40 -181 147h87c8 -55 32 -82 94 -82c61 0 85 27 94 82h87c-11 -107 -79 -147 -181 -147zM299 584c149 0 253 -65 253 -220v-338c-62 -17 -161 -36 -250 -36c-173 0 -268 67 -268 192v1c0 121 90 187 255 187c40 0 87 -4 136 -10v3
c0 68 -52 108 -155 108c-53 0 -131 -11 -193 -37l30 118c44 19 120 32 192 32zM164 185c0 -54 44 -80 139 -80c34 0 91 5 122 13v134c-22 4 -81 11 -122 11c-95 0 -139 -25 -139 -78z" />
    <glyph glyph-name="uni01CE" unicode="&#x1ce;" horiz-adv-x="627" 
d="M371 643h-128l-157 151h126l95 -97l94 97h125zM299 584c149 0 253 -65 253 -220v-338c-62 -17 -161 -36 -250 -36c-173 0 -268 67 -268 192v1c0 121 90 187 255 187c40 0 87 -4 136 -10v3c0 68 -52 108 -155 108c-53 0 -131 -11 -193 -37l30 118c44 19 120 32 192 32z
M164 185c0 -54 44 -80 139 -80c34 0 91 5 122 13v134c-22 4 -81 11 -122 11c-95 0 -139 -25 -139 -78z" />
    <glyph glyph-name="acircumflex" unicode="&#xe2;" horiz-adv-x="627" 
d="M306 720l-68 -75h-129l137 141h122l135 -141h-129zM299 584c149 0 253 -65 253 -220v-338c-62 -17 -161 -36 -250 -36c-173 0 -268 67 -268 192v1c0 121 90 187 255 187c40 0 87 -4 136 -10v3c0 68 -52 108 -155 108c-53 0 -131 -11 -193 -37l30 118c44 19 120 32 192 32
zM164 185c0 -54 44 -80 139 -80c34 0 91 5 122 13v134c-22 4 -81 11 -122 11c-95 0 -139 -25 -139 -78z" />
    <glyph glyph-name="adieresis" unicode="&#xe4;" horiz-adv-x="627" 
d="M207 643c-40 0 -77 24 -77 69c1 41 34 69 77 69c41 0 74 -28 74 -69c0 -45 -35 -69 -74 -69zM405 643c-40 0 -77 24 -77 69c1 41 35 69 77 69c41 0 74 -28 74 -69c0 -45 -35 -69 -74 -69zM299 584c149 0 253 -65 253 -220v-338c-62 -17 -161 -36 -250 -36
c-173 0 -268 67 -268 192v1c0 121 90 187 255 187c40 0 87 -4 136 -10v3c0 68 -52 108 -155 108c-53 0 -131 -11 -193 -37l30 118c44 19 120 32 192 32zM164 185c0 -54 44 -80 139 -80c34 0 91 5 122 13v134c-22 4 -81 11 -122 11c-95 0 -139 -25 -139 -78z" />
    <glyph glyph-name="agrave" unicode="&#xe0;" horiz-adv-x="627" 
d="M383 643h-85l-155 151h154zM299 584c149 0 253 -65 253 -220v-338c-62 -17 -161 -36 -250 -36c-173 0 -268 67 -268 192v1c0 121 90 187 255 187c40 0 87 -4 136 -10v3c0 68 -52 108 -155 108c-53 0 -131 -11 -193 -37l30 118c44 19 120 32 192 32zM164 185
c0 -54 44 -80 139 -80c34 0 91 5 122 13v134c-22 4 -81 11 -122 11c-95 0 -139 -25 -139 -78z" />
    <glyph glyph-name="amacron" unicode="&#x101;" horiz-adv-x="627" 
d="M461 728v-85h-309v85h309zM299 584c149 0 253 -65 253 -220v-338c-62 -17 -161 -36 -250 -36c-173 0 -268 67 -268 192v1c0 121 90 187 255 187c40 0 87 -4 136 -10v3c0 68 -52 108 -155 108c-53 0 -131 -11 -193 -37l30 118c44 19 120 32 192 32zM164 185
c0 -54 44 -80 139 -80c34 0 91 5 122 13v134c-22 4 -81 11 -122 11c-95 0 -139 -25 -139 -78z" />
    <glyph glyph-name="aogonek" unicode="&#x105;" horiz-adv-x="627" 
d="M515 -122c16 0 30 2 41 4v-58c-14 -3 -45 -7 -71 -7c-81 0 -162 23 -161 98c1 29 16 55 43 78c-22 -2 -44 -3 -65 -3c-173 0 -268 67 -268 192v1c0 121 90 187 255 187c40 0 87 -4 136 -10v3c0 68 -52 108 -155 108c-53 0 -131 -11 -193 -37l30 118c44 19 120 32 192 32
c149 0 253 -65 253 -220v-338c-2 0 -3 -1 -5 -1c-71 -33 -110 -58 -111 -96c-2 -37 35 -51 79 -51zM164 185c0 -54 44 -80 139 -80c34 0 91 5 122 13v134c-22 4 -81 11 -122 11c-95 0 -139 -25 -139 -78z" />
    <glyph glyph-name="aring" unicode="&#xe5;" horiz-adv-x="627" 
d="M308 641c-64 0 -117 51 -117 115c0 65 51 113 117 113c64 0 116 -51 116 -114c0 -66 -51 -114 -116 -114zM256 755c-1 -28 23 -49 51 -49c32 0 52 21 52 49c-1 28 -21 50 -51 50s-52 -22 -52 -50zM299 584c149 0 253 -65 253 -220v-338c-62 -17 -161 -36 -250 -36
c-173 0 -268 67 -268 192v1c0 121 90 187 255 187c40 0 87 -4 136 -10v3c0 68 -52 108 -155 108c-53 0 -131 -11 -193 -37l30 118c44 19 120 32 192 32zM164 185c0 -54 44 -80 139 -80c34 0 91 5 122 13v134c-22 4 -81 11 -122 11c-95 0 -139 -25 -139 -78z" />
    <glyph glyph-name="atilde" unicode="&#xe3;" horiz-adv-x="627" 
d="M246 680c-23 0 -33 -12 -38 -41h-91c5 79 29 131 106 131c64 0 99 -41 148 -41c22 0 31 13 37 40h91c-5 -79 -27 -130 -105 -130c-63 0 -100 41 -148 41zM299 584c149 0 253 -65 253 -220v-338c-62 -17 -161 -36 -250 -36c-173 0 -268 67 -268 192v1
c0 121 90 187 255 187c40 0 87 -4 136 -10v3c0 68 -52 108 -155 108c-53 0 -131 -11 -193 -37l30 118c44 19 120 32 192 32zM164 185c0 -54 44 -80 139 -80c34 0 91 5 122 13v134c-22 4 -81 11 -122 11c-95 0 -139 -25 -139 -78z" />
    <glyph glyph-name="ae" unicode="&#xe6;" horiz-adv-x="1030" 
d="M992 301v-61h-434c17 -88 79 -139 176 -139c68 0 132 17 175 42l54 -100c-59 -31 -138 -55 -238 -55c-67 0 -126 17 -173 47v-9c-62 -17 -161 -36 -250 -36c-173 0 -268 67 -268 192v1c0 121 90 187 255 187c40 0 87 -4 136 -10v3c0 68 -52 108 -155 108
c-53 0 -131 -11 -193 -37l30 118c44 19 120 32 192 32c91 0 165 -24 209 -78c51 51 124 80 210 80c165 0 274 -114 274 -285zM715 473c-87 0 -140 -46 -156 -124h308c-8 77 -65 124 -152 124zM164 185c0 -54 44 -80 139 -80c34 0 91 5 122 13v134c-22 4 -81 11 -122 11
c-95 0 -139 -25 -139 -78z" />
    <glyph glyph-name="b" unicode="b" horiz-adv-x="664" 
d="M315 578c190 0 314 -109 314 -297v-1c0 -185 -118 -299 -314 -299c-74 0 -162 17 -231 39v791h129v-241c36 5 70 8 102 8zM505 279v2c0 106 -66 180 -186 180c-32 0 -66 -4 -106 -13v-342c35 -7 75 -9 105 -9c115 0 187 70 187 182z" />
    <glyph glyph-name="c" unicode="c" horiz-adv-x="557" 
d="M341 -12c-185 0 -301 115 -302 299v1c2 178 123 297 303 297c70 0 138 -14 193 -41l-50 -109c-44 21 -89 31 -142 31c-106 0 -173 -69 -174 -178v-2c1 -109 68 -178 175 -178c54 0 104 10 142 31l50 -109c-56 -27 -124 -42 -195 -42z" />
    <glyph glyph-name="cacute" unicode="&#x107;" horiz-adv-x="557" 
d="M257 646l136 141h150l-159 -141h-127zM341 -12c-185 0 -301 115 -302 299v1c2 178 123 297 303 297c70 0 138 -14 193 -41l-50 -109c-44 21 -89 31 -142 31c-106 0 -173 -69 -174 -178v-2c1 -109 68 -178 175 -178c54 0 104 10 142 31l50 -109c-56 -27 -124 -42 -195 -42
z" />
    <glyph glyph-name="ccaron" unicode="&#x10d;" horiz-adv-x="557" 
d="M277 641l-157 151h126l95 -97l94 97h125l-155 -151h-128zM341 -12c-185 0 -301 115 -302 299v1c2 178 123 297 303 297c70 0 138 -14 193 -41l-50 -109c-44 21 -89 31 -142 31c-106 0 -173 -69 -174 -178v-2c1 -109 68 -178 175 -178c54 0 104 10 142 31l50 -109
c-56 -27 -124 -42 -195 -42z" />
    <glyph glyph-name="ccedilla" unicode="&#xe7;" horiz-adv-x="557" 
d="M357 -53c49 0 105 -21 104 -76c0 -64 -57 -91 -127 -91c-31 0 -56 3 -84 12l-5 54c20 -7 60 -16 84 -16c42 0 70 11 71 37c0 27 -27 36 -66 36c-26 0 -55 -7 -71 -11l-6 7l59 90c-170 9 -276 122 -277 298v1c2 178 123 297 303 297c70 0 138 -14 193 -41l-50 -109
c-44 21 -89 31 -142 31c-106 0 -173 -69 -174 -178v-2c1 -109 68 -178 175 -178c54 0 104 10 142 31l50 -109c-48 -23 -104 -37 -164 -41l-29 -43c2 1 9 1 14 1z" />
    <glyph glyph-name="ccircumflex" unicode="&#x109;" horiz-adv-x="557" 
d="M143 643l137 141h122l135 -141h-129l-68 75l-68 -75h-129zM341 -12c-185 0 -301 115 -302 299v1c2 178 123 297 303 297c70 0 138 -14 193 -41l-50 -109c-44 21 -89 31 -142 31c-106 0 -173 -69 -174 -178v-2c1 -109 68 -178 175 -178c54 0 104 10 142 31l50 -109
c-56 -27 -124 -42 -195 -42z" />
    <glyph glyph-name="cdotaccent" unicode="&#x10b;" horiz-adv-x="557" 
d="M341 641c-42 0 -80 25 -80 73c0 43 35 71 80 71c43 0 78 -28 78 -71c0 -48 -37 -73 -78 -73zM341 -12c-185 0 -301 115 -302 299v1c2 178 123 297 303 297c70 0 138 -14 193 -41l-50 -109c-44 21 -89 31 -142 31c-106 0 -173 -69 -174 -178v-2c1 -109 68 -178 175 -178
c54 0 104 10 142 31l50 -109c-56 -27 -124 -42 -195 -42z" />
    <glyph glyph-name="d" unicode="d" horiz-adv-x="664" 
d="M451 811h129v-791c-69 -22 -157 -39 -231 -39c-196 0 -314 114 -314 299v1c0 188 124 297 314 297c32 0 66 -3 102 -8v241zM346 97c30 0 70 2 105 9v342c-40 9 -74 13 -106 13c-120 0 -186 -74 -186 -180v-2c0 -112 72 -182 187 -182z" />
    <glyph glyph-name="eth" unicode="&#xf0;" horiz-adv-x="640" 
d="M542 517c66 -54 107 -136 107 -232v-1c0 -172 -132 -296 -309 -297h-1c-174 0 -306 125 -307 297v1c0 173 133 301 307 301h1c7 0 13 0 20 -1l-38 55l-105 -34l-48 84l98 32l-57 84h125l36 -50l91 29l48 -83l-81 -27zM520 284v1c0 101 -72 180 -179 181h-1
c-106 0 -178 -80 -178 -181v-1c0 -99 72 -178 178 -178h1c107 0 179 79 179 178z" />
    <glyph glyph-name="dcaron" unicode="&#x10f;" horiz-adv-x="765" 
d="M451 570v241h129v-791c-69 -22 -157 -39 -231 -39c-196 0 -314 114 -314 299v1c0 188 124 297 314 297c32 0 66 -3 102 -8zM675 811h106l-72 -176h-75zM346 97c30 0 70 2 105 9v342c-40 9 -74 13 -106 13c-120 0 -186 -74 -186 -180v-2c0 -112 72 -182 187 -182z" />
    <glyph glyph-name="dcroat" unicode="&#x111;" horiz-adv-x="664" 
d="M677 758v-102h-97v-636c-69 -22 -157 -39 -231 -39c-196 0 -314 114 -314 299v1c0 188 124 297 314 297c32 0 66 -3 102 -8v86h-105v102h105v53h129v-53h97zM346 97c30 0 70 2 105 9v342c-40 9 -74 13 -106 13c-120 0 -186 -74 -186 -180v-2c0 -112 72 -182 187 -182z
" />
    <glyph glyph-name="e" unicode="e" horiz-adv-x="640" 
d="M602 301v-61h-434c17 -88 79 -139 176 -139c68 0 132 17 175 42l54 -100c-59 -31 -138 -55 -238 -55c-180 0 -299 120 -299 298v1c0 179 117 299 292 299c165 0 274 -114 274 -285zM325 473c-87 0 -140 -46 -156 -124h308c-8 77 -65 124 -152 124z" />
    <glyph glyph-name="eacute" unicode="&#xe9;" horiz-adv-x="640" 
d="M531 796l-159 -141h-127l136 141h150zM602 301v-61h-434c17 -88 79 -139 176 -139c68 0 132 17 175 42l54 -100c-59 -31 -138 -55 -238 -55c-180 0 -299 120 -299 298v1c0 179 117 299 292 299c165 0 274 -114 274 -285zM325 473c-87 0 -140 -46 -156 -124h308
c-8 77 -65 124 -152 124z" />
    <glyph glyph-name="ebreve" unicode="&#x115;" horiz-adv-x="640" 
d="M330 648c-102 0 -170 40 -181 147h87c8 -55 32 -82 94 -82c61 0 85 27 94 82h87c-11 -107 -79 -147 -181 -147zM602 301v-61h-434c17 -88 79 -139 176 -139c68 0 132 17 175 42l54 -100c-59 -31 -138 -55 -238 -55c-180 0 -299 120 -299 298v1c0 179 117 299 292 299
c165 0 274 -114 274 -285zM325 473c-87 0 -140 -46 -156 -124h308c-8 77 -65 124 -152 124z" />
    <glyph glyph-name="ecaron" unicode="&#x11b;" horiz-adv-x="640" 
d="M393 650h-128l-157 151h126l95 -97l94 97h125zM602 301v-61h-434c17 -88 79 -139 176 -139c68 0 132 17 175 42l54 -100c-59 -31 -138 -55 -238 -55c-180 0 -299 120 -299 298v1c0 179 117 299 292 299c165 0 274 -114 274 -285zM325 473c-87 0 -140 -46 -156 -124h308
c-8 77 -65 124 -152 124z" />
    <glyph glyph-name="ecircumflex" unicode="&#xea;" horiz-adv-x="640" 
d="M328 727l-68 -75h-129l137 141h122l135 -141h-129zM602 301v-61h-434c17 -88 79 -139 176 -139c68 0 132 17 175 42l54 -100c-59 -31 -138 -55 -238 -55c-180 0 -299 120 -299 298v1c0 179 117 299 292 299c165 0 274 -114 274 -285zM325 473c-87 0 -140 -46 -156 -124
h308c-8 77 -65 124 -152 124z" />
    <glyph glyph-name="edieresis" unicode="&#xeb;" horiz-adv-x="640" 
d="M229 650c-40 0 -77 24 -77 69c1 41 34 69 77 69c41 0 74 -28 74 -69c0 -45 -35 -69 -74 -69zM427 650c-40 0 -77 24 -77 69c1 41 35 69 77 69c41 0 74 -28 74 -69c0 -45 -35 -69 -74 -69zM602 301v-61h-434c17 -88 79 -139 176 -139c68 0 132 17 175 42l54 -100
c-59 -31 -138 -55 -238 -55c-180 0 -299 120 -299 298v1c0 179 117 299 292 299c165 0 274 -114 274 -285zM325 473c-87 0 -140 -46 -156 -124h308c-8 77 -65 124 -152 124z" />
    <glyph glyph-name="edotaccent" unicode="&#x117;" horiz-adv-x="640" 
d="M329 650c-42 0 -80 25 -80 73c0 43 35 71 80 71c43 0 78 -28 78 -71c0 -48 -37 -73 -78 -73zM602 301v-61h-434c17 -88 79 -139 176 -139c68 0 132 17 175 42l54 -100c-59 -31 -138 -55 -238 -55c-180 0 -299 120 -299 298v1c0 179 117 299 292 299
c165 0 274 -114 274 -285zM325 473c-87 0 -140 -46 -156 -124h308c-8 77 -65 124 -152 124z" />
    <glyph glyph-name="egrave" unicode="&#xe8;" horiz-adv-x="640" 
d="M405 650h-85l-155 151h154zM602 301v-61h-434c17 -88 79 -139 176 -139c68 0 132 17 175 42l54 -100c-59 -31 -138 -55 -238 -55c-180 0 -299 120 -299 298v1c0 179 117 299 292 299c165 0 274 -114 274 -285zM325 473c-87 0 -140 -46 -156 -124h308
c-8 77 -65 124 -152 124z" />
    <glyph glyph-name="emacron" unicode="&#x113;" horiz-adv-x="640" 
d="M483 735v-85h-309v85h309zM602 301v-61h-434c17 -88 79 -139 176 -139c68 0 132 17 175 42l54 -100c-59 -31 -138 -55 -238 -55c-180 0 -299 120 -299 298v1c0 179 117 299 292 299c165 0 274 -114 274 -285zM325 473c-87 0 -140 -46 -156 -124h308
c-8 77 -65 124 -152 124z" />
    <glyph glyph-name="eogonek" unicode="&#x119;" horiz-adv-x="640" 
d="M602 301v-61h-434c17 -88 79 -139 176 -139c68 0 132 17 175 42l54 -100l-31 -15c-54 -27 -84 -50 -85 -83c-2 -37 35 -51 79 -51c16 0 30 2 41 4v-58c-14 -3 -45 -7 -71 -7c-81 0 -162 23 -161 98c1 21 9 40 23 58c-11 -1 -22 -1 -33 -1c-180 0 -299 120 -299 298v1
c0 179 117 299 292 299c165 0 274 -114 274 -285zM325 473c-87 0 -140 -46 -156 -124h308c-8 77 -65 124 -152 124z" />
    <glyph glyph-name="uni1EBD" unicode="&#x1ebd;" horiz-adv-x="640" 
d="M268 687c-23 0 -33 -12 -38 -41h-91c5 79 29 131 106 131c64 0 99 -41 148 -41c22 0 31 13 37 40h91c-5 -79 -27 -130 -105 -130c-63 0 -100 41 -148 41zM602 301v-61h-434c17 -88 79 -139 176 -139c68 0 132 17 175 42l54 -100c-59 -31 -138 -55 -238 -55
c-180 0 -299 120 -299 298v1c0 179 117 299 292 299c165 0 274 -114 274 -285zM325 473c-87 0 -140 -46 -156 -124h308c-8 77 -65 124 -152 124z" />
    <glyph glyph-name="uni0259" unicode="&#x259;" horiz-adv-x="634" 
d="M297 584c180 0 299 -120 299 -298v-1c0 -179 -117 -299 -292 -299c-165 0 -274 114 -274 285v61h434c-17 88 -79 139 -176 139c-68 0 -132 -17 -175 -42l-54 100c59 31 138 55 238 55zM307 99c87 0 140 46 156 124h-308c8 -77 65 -124 152 -124z" />
    <glyph glyph-name="f" unicode="f" horiz-adv-x="517" 
d="M129 0v445h-104v120h104v64c0 142 66 182 227 182h118v-109h-102c-80 0 -114 -23 -114 -95v-42h214v-120h-214v-445h-129z" />
    <glyph glyph-name="g" unicode="g" horiz-adv-x="670" 
d="M352 581c55 0 151 -11 239 -30v-549c0 -160 -112 -233 -257 -233c-72 0 -144 12 -185 29l-27 117c55 -23 128 -33 184 -33c105 0 158 32 158 124v14c-36 -3 -72 -5 -102 -5h-3c-215 0 -324 110 -324 287v1c0 171 125 278 316 278h1zM461 151v290c-37 11 -69 15 -101 15
h-1c-116 0 -192 -48 -192 -157v-1c0 -105 75 -158 195 -158h3c27 0 62 2 96 11z" />
    <glyph glyph-name="gbreve" unicode="&#x11f;" horiz-adv-x="670" 
d="M374 639c-102 0 -170 40 -181 147h87c8 -55 32 -82 94 -82c61 0 85 27 94 82h87c-11 -107 -79 -147 -181 -147zM352 581c55 0 151 -11 239 -30v-549c0 -160 -112 -233 -257 -233c-72 0 -144 12 -185 29l-27 117c55 -23 128 -33 184 -33c105 0 158 32 158 124v14
c-36 -3 -72 -5 -102 -5h-3c-215 0 -324 110 -324 287v1c0 171 125 278 316 278h1zM461 151v290c-37 11 -69 15 -101 15h-1c-116 0 -192 -48 -192 -157v-1c0 -105 75 -158 195 -158h3c27 0 62 2 96 11z" />
    <glyph glyph-name="gcircumflex" unicode="&#x11d;" horiz-adv-x="670" 
d="M372 718l-68 -75h-129l137 141h122l135 -141h-129zM352 581c55 0 151 -11 239 -30v-549c0 -160 -112 -233 -257 -233c-72 0 -144 12 -185 29l-27 117c55 -23 128 -33 184 -33c105 0 158 32 158 124v14c-36 -3 -72 -5 -102 -5h-3c-215 0 -324 110 -324 287v1
c0 171 125 278 316 278h1zM461 151v290c-37 11 -69 15 -101 15h-1c-116 0 -192 -48 -192 -157v-1c0 -105 75 -158 195 -158h3c27 0 62 2 96 11z" />
    <glyph glyph-name="gcommaaccent" unicode="&#x123;" horiz-adv-x="670" 
d="M352 581c55 0 151 -11 239 -30v-549c0 -160 -112 -233 -257 -233c-72 0 -144 12 -185 29l-27 117c55 -23 128 -33 184 -33c105 0 158 32 158 124v14c-36 -3 -72 -5 -102 -5h-3c-215 0 -324 110 -324 287v1c0 171 125 278 316 278h1zM461 151v290c-37 11 -69 15 -101 15
h-1c-116 0 -192 -48 -192 -157v-1c0 -105 75 -158 195 -158h3c27 0 62 2 96 11zM230 -451l62 176h118l-92 -176h-88z" />
    <glyph glyph-name="gdotaccent" unicode="&#x121;" horiz-adv-x="670" 
d="M373 641c-42 0 -80 25 -80 73c0 43 35 71 80 71c43 0 78 -28 78 -71c0 -48 -37 -73 -78 -73zM352 581c55 0 151 -11 239 -30v-549c0 -160 -112 -233 -257 -233c-72 0 -144 12 -185 29l-27 117c55 -23 128 -33 184 -33c105 0 158 32 158 124v14c-36 -3 -72 -5 -102 -5h-3
c-215 0 -324 110 -324 287v1c0 171 125 278 316 278h1zM461 151v290c-37 11 -69 15 -101 15h-1c-116 0 -192 -48 -192 -157v-1c0 -105 75 -158 195 -158h3c27 0 62 2 96 11z" />
    <glyph glyph-name="h" unicode="h" horiz-adv-x="678" 
d="M595 -1h-129v341c0 85 -48 115 -131 115c-33 0 -78 -4 -122 -12v-443h-129v811h129v-241c51 6 96 10 128 10c138 0 253 -49 253 -215c0 -122 1 -244 1 -366z" />
    <glyph glyph-name="hbar" unicode="&#x127;" horiz-adv-x="678" 
d="M595 -1h-129v341c0 85 -48 115 -131 115c-33 0 -78 -4 -122 -12v-443h-129v656h-100v102h100v53h129v-53h102v-102h-102v-86c51 6 96 10 128 10c138 0 253 -49 253 -215c0 -122 1 -244 1 -366z" />
    <glyph glyph-name="hcircumflex" unicode="&#x125;" horiz-adv-x="678" 
d="M217 890l-68 75l-68 -75h-129l137 141h122l135 -141h-129zM595 -1h-129v341c0 85 -48 115 -131 115c-33 0 -78 -4 -122 -12v-443h-129v811h129v-241c51 6 96 10 128 10c138 0 253 -49 253 -215c0 -122 1 -244 1 -366z" />
    <glyph glyph-name="i" unicode="i" horiz-adv-x="296" 
d="M149 641c-42 0 -80 25 -80 73c0 43 35 71 80 71c43 0 78 -28 78 -71c0 -48 -37 -73 -78 -73zM84 0v565h129v-565h-129z" />
    <glyph glyph-name="dotlessi" unicode="&#x131;" horiz-adv-x="296" 
d="M84 0v565h129v-565h-129z" />
    <glyph glyph-name="iacute" unicode="&#xed;" horiz-adv-x="296" 
d="M65 646l136 141h150l-159 -141h-127zM84 0v565h129v-565h-129z" />
    <glyph glyph-name="ibreve" unicode="&#x12d;" horiz-adv-x="296" 
d="M150 639c-102 0 -170 40 -181 147h87c8 -55 32 -82 94 -82c61 0 85 27 94 82h87c-11 -107 -79 -147 -181 -147zM84 0v565h129v-565h-129z" />
    <glyph glyph-name="uni01D0" unicode="&#x1d0;" horiz-adv-x="296" 
d="M85 641l-157 151h126l95 -97l94 97h125l-155 -151h-128zM84 0v565h129v-565h-129z" />
    <glyph glyph-name="icircumflex" unicode="&#xee;" horiz-adv-x="296" 
d="M-49 643l137 141h122l135 -141h-129l-68 75l-68 -75h-129zM84 0v565h129v-565h-129z" />
    <glyph glyph-name="idieresis" unicode="&#xef;" horiz-adv-x="296" 
d="M49 641c-40 0 -77 24 -77 69c1 41 34 69 77 69c41 0 74 -28 74 -69c0 -45 -35 -69 -74 -69zM247 641c-40 0 -77 24 -77 69c1 41 35 69 77 69c41 0 74 -28 74 -69c0 -45 -35 -69 -74 -69zM84 0v565h129v-565h-129z" />
    <glyph glyph-name="i.loclTRK" horiz-adv-x="296" 
d="M149 641c-42 0 -80 25 -80 73c0 43 35 71 80 71c43 0 78 -28 78 -71c0 -48 -37 -73 -78 -73zM84 0v565h129v-565h-129z" />
    <glyph glyph-name="uni1ECB" unicode="&#x1ecb;" horiz-adv-x="296" 
d="M149 641c-42 0 -80 25 -80 73c0 43 35 71 80 71c43 0 78 -28 78 -71c0 -48 -37 -73 -78 -73zM84 0v565h129v-565h-129zM151 -210c-43 0 -82 25 -82 74c0 44 36 73 82 73c44 0 80 -29 80 -73c0 -49 -38 -74 -80 -74z" />
    <glyph glyph-name="igrave" unicode="&#xec;" horiz-adv-x="296" 
d="M140 641l-155 151h154l86 -151h-85zM84 0v565h129v-565h-129z" />
    <glyph glyph-name="ij" unicode="&#x133;" horiz-adv-x="621" 
d="M149 641c-42 0 -80 25 -80 73c0 43 35 71 80 71c43 0 78 -28 78 -71c0 -48 -37 -73 -78 -73zM473 641c-42 0 -80 25 -80 73c0 43 35 71 80 71c43 0 78 -28 78 -71c0 -48 -37 -73 -78 -73zM84 0v565h129v-565h-129zM347 -230c-20 0 -45 3 -62 8l-20 115c18 -5 43 -8 58 -8
c64 0 85 29 85 118v562h129v-547c0 -190 -45 -248 -190 -248z" />
    <glyph glyph-name="imacron" unicode="&#x12b;" horiz-adv-x="296" 
d="M-6 641v85h309v-85h-309zM84 0v565h129v-565h-129z" />
    <glyph glyph-name="iogonek" unicode="&#x12f;" horiz-adv-x="296" 
d="M149 641c-42 0 -80 25 -80 73c0 43 35 71 80 71c43 0 78 -28 78 -71c0 -48 -37 -73 -78 -73zM97 -98c-2 -37 35 -51 79 -51c16 0 30 2 41 4v-58c-14 -3 -45 -7 -71 -7c-81 0 -162 23 -161 98c2 46 38 83 99 115v562h129v-565c-74 -34 -115 -59 -116 -98z" />
    <glyph glyph-name="itilde" unicode="&#x129;" horiz-adv-x="296" 
d="M-41 637c5 79 29 131 106 131c64 0 99 -41 148 -41c22 0 31 13 37 40h91c-5 -79 -27 -130 -105 -130c-63 0 -100 41 -148 41c-23 0 -33 -12 -38 -41h-91zM84 0v565h129v-565h-129z" />
    <glyph glyph-name="j" unicode="j" horiz-adv-x="325" 
d="M177 641c-42 0 -80 25 -80 73c0 43 35 71 80 71c43 0 78 -28 78 -71c0 -48 -37 -73 -78 -73zM51 -230c-20 0 -45 3 -62 8l-20 115c18 -5 43 -8 58 -8c64 0 85 29 85 118v562h129v-547c0 -190 -45 -248 -190 -248z" />
    <glyph glyph-name="j.alt" horiz-adv-x="325" 
d="M177 641c-42 0 -80 25 -80 73c0 43 35 71 80 71c43 0 78 -28 78 -71c0 -48 -37 -73 -78 -73zM51 -230c-12 0 -25 1 -36 2l-20 115c11 -1 24 -2 32 -2c64 0 85 28 85 118v562h129v-547c0 -190 -45 -248 -190 -248z" />
    <glyph glyph-name="uni0237" unicode="&#x237;" horiz-adv-x="325" 
d="M51 -230c-20 0 -45 3 -62 8l-20 115c18 -5 43 -8 58 -8c64 0 85 29 85 118v562h129v-547c0 -190 -45 -248 -190 -248z" />
    <glyph glyph-name="jcircumflex" unicode="&#x135;" horiz-adv-x="325" 
d="M-21 643l137 141h122l135 -141h-129l-68 75l-68 -75h-129zM51 -230c-20 0 -45 3 -62 8l-20 115c18 -5 43 -8 58 -8c64 0 85 29 85 118v562h129v-547c0 -190 -45 -248 -190 -248z" />
    <glyph glyph-name="k" unicode="k" horiz-adv-x="611" 
d="M595 0h-165l-217 275v-275h-129v811h129v-524l216 278h151l-218 -277z" />
    <glyph glyph-name="kcommaaccent" unicode="&#x137;" horiz-adv-x="611" 
d="M362 288l233 -288h-165l-217 275v-275h-129v811h129v-524l216 278h151zM181 -220l62 176h118l-92 -176h-88z" />
    <glyph glyph-name="l" unicode="l" horiz-adv-x="296" 
d="M84 0v811h129v-811h-129z" />
    <glyph glyph-name="lacute" unicode="&#x13a;" horiz-adv-x="296" 
d="M66 893l136 141h150l-159 -141h-127zM84 0v811h129v-811h-129z" />
    <glyph glyph-name="lcaron" unicode="&#x13e;" horiz-adv-x="385" 
d="M84 0v811h129v-811h-129zM254 635l41 176h106l-72 -176h-75z" />
    <glyph glyph-name="lcommaaccent" unicode="&#x13c;" horiz-adv-x="296" 
d="M84 0v811h129v-811h-129zM24 -220l62 176h118l-92 -176h-88z" />
    <glyph glyph-name="ldot" unicode="&#x140;" horiz-adv-x="439" 
d="M84 0v811h129v-811h-129zM351 358c-43 0 -82 25 -82 74c0 44 36 73 82 73c44 0 80 -29 80 -73c0 -49 -38 -74 -80 -74z" />
    <glyph glyph-name="lslash" unicode="&#x142;" horiz-adv-x="440" 
d="M405 485l-120 -65v-420h-129v350l-86 -46l-35 75l121 65v367h129v-297l85 46z" />
    <glyph glyph-name="m" unicode="m" horiz-adv-x="993" 
d="M669 581c146 0 241 -60 241 -216v-365h-129c0 114 -1 227 -1 341c0 70 -24 115 -117 115c-32 0 -75 -12 -106 -31c4 -21 7 -44 7 -69v-356h-129v341c0 84 -47 115 -120 115c-30 0 -65 -5 -102 -13v-443h-129v553c96 18 188 28 237 28c67 0 126 -14 170 -48
c50 29 112 48 178 48z" />
    <glyph glyph-name="n" unicode="n" horiz-adv-x="677" 
d="M84 0v553c93 16 199 28 256 28c138 0 253 -49 253 -215c0 -122 1 -244 1 -366h-129v341c0 85 -48 115 -131 115c-33 0 -78 -4 -122 -12v-444h-128z" />
    <glyph glyph-name="nacute" unicode="&#x144;" horiz-adv-x="677" 
d="M255 655l136 141h150l-159 -141h-127zM84 0v553c93 16 199 28 256 28c138 0 253 -49 253 -215c0 -122 1 -244 1 -366h-129v341c0 85 -48 115 -131 115c-33 0 -78 -4 -122 -12v-444h-128z" />
    <glyph glyph-name="ncaron" unicode="&#x148;" horiz-adv-x="677" 
d="M275 650l-157 151h126l95 -97l94 97h125l-155 -151h-128zM84 0v553c93 16 199 28 256 28c138 0 253 -49 253 -215c0 -122 1 -244 1 -366h-129v341c0 85 -48 115 -131 115c-33 0 -78 -4 -122 -12v-444h-128z" />
    <glyph glyph-name="ncommaaccent" unicode="&#x146;" horiz-adv-x="677" 
d="M84 0v553c93 16 199 28 256 28c138 0 253 -49 253 -215c0 -122 1 -244 1 -366h-129v341c0 85 -48 115 -131 115c-33 0 -78 -4 -122 -12v-444h-128zM214 -220l62 176h118l-92 -176h-88z" />
    <glyph glyph-name="eng" unicode="&#x14b;" horiz-adv-x="677" 
d="M593 366l1 -389c0 -157 -69 -207 -210 -207c-14 0 -28 1 -41 4l-21 94c16 -5 50 -8 58 -8c65 0 85 29 85 127l-1 354c0 84 -47 115 -130 115c-33 0 -77 -5 -121 -13v-443h-129v553c93 16 199 28 256 28c138 0 253 -49 253 -215z" />
    <glyph glyph-name="ntilde" unicode="&#xf1;" horiz-adv-x="677" 
d="M149 646c5 79 29 131 106 131c64 0 99 -41 148 -41c22 0 31 13 37 40h91c-5 -79 -27 -130 -105 -130c-63 0 -100 41 -148 41c-23 0 -33 -12 -38 -41h-91zM84 0v553c93 16 199 28 256 28c138 0 253 -49 253 -215c0 -122 1 -244 1 -366h-129v341c0 85 -48 115 -131 115
c-33 0 -78 -4 -122 -12v-444h-128z" />
    <glyph glyph-name="o" unicode="o" horiz-adv-x="681" 
d="M339 -13c-174 0 -306 125 -307 297v1c0 173 133 301 307 301h1c177 -1 309 -128 309 -301v-1c0 -172 -132 -296 -309 -297h-1zM340 106h1c107 0 179 79 179 178v1c0 101 -72 180 -179 181h-1c-106 0 -178 -80 -178 -181v-1c0 -99 72 -178 178 -178z" />
    <glyph glyph-name="oacute" unicode="&#xf3;" horiz-adv-x="681" 
d="M258 655l136 141h150l-159 -141h-127zM339 -13c-174 0 -306 125 -307 297v1c0 173 133 301 307 301h1c177 -1 309 -128 309 -301v-1c0 -172 -132 -296 -309 -297h-1zM340 106h1c107 0 179 79 179 178v1c0 101 -72 180 -179 181h-1c-106 0 -178 -80 -178 -181v-1
c0 -99 72 -178 178 -178z" />
    <glyph glyph-name="obreve" unicode="&#x14f;" horiz-adv-x="681" 
d="M343 648c-102 0 -170 40 -181 147h87c8 -55 32 -82 94 -82c61 0 85 27 94 82h87c-11 -107 -79 -147 -181 -147zM339 -13c-174 0 -306 125 -307 297v1c0 173 133 301 307 301h1c177 -1 309 -128 309 -301v-1c0 -172 -132 -296 -309 -297h-1zM340 106h1
c107 0 179 79 179 178v1c0 101 -72 180 -179 181h-1c-106 0 -178 -80 -178 -181v-1c0 -99 72 -178 178 -178z" />
    <glyph glyph-name="uni01D2" unicode="&#x1d2;" horiz-adv-x="681" 
d="M278 650l-157 151h126l95 -97l94 97h125l-155 -151h-128zM339 -13c-174 0 -306 125 -307 297v1c0 173 133 301 307 301h1c177 -1 309 -128 309 -301v-1c0 -172 -132 -296 -309 -297h-1zM340 106h1c107 0 179 79 179 178v1c0 101 -72 180 -179 181h-1
c-106 0 -178 -80 -178 -181v-1c0 -99 72 -178 178 -178z" />
    <glyph glyph-name="ocircumflex" unicode="&#xf4;" horiz-adv-x="681" 
d="M144 652l137 141h122l135 -141h-129l-68 75l-68 -75h-129zM339 -13c-174 0 -306 125 -307 297v1c0 173 133 301 307 301h1c177 -1 309 -128 309 -301v-1c0 -172 -132 -296 -309 -297h-1zM340 106h1c107 0 179 79 179 178v1c0 101 -72 180 -179 181h-1
c-106 0 -178 -80 -178 -181v-1c0 -99 72 -178 178 -178z" />
    <glyph glyph-name="odieresis" unicode="&#xf6;" horiz-adv-x="681" 
d="M242 650c-40 0 -77 24 -77 69c1 41 34 69 77 69c41 0 74 -28 74 -69c0 -45 -35 -69 -74 -69zM440 650c-40 0 -77 24 -77 69c1 41 35 69 77 69c41 0 74 -28 74 -69c0 -45 -35 -69 -74 -69zM339 -13c-174 0 -306 125 -307 297v1c0 173 133 301 307 301h1
c177 -1 309 -128 309 -301v-1c0 -172 -132 -296 -309 -297h-1zM340 106h1c107 0 179 79 179 178v1c0 101 -72 180 -179 181h-1c-106 0 -178 -80 -178 -181v-1c0 -99 72 -178 178 -178z" />
    <glyph glyph-name="uni1ECD" unicode="&#x1ecd;" horiz-adv-x="681" 
d="M339 -13c-174 0 -306 125 -307 297v1c0 173 133 301 307 301h1c177 -1 309 -128 309 -301v-1c0 -172 -132 -296 -309 -297h-1zM340 106h1c107 0 179 79 179 178v1c0 101 -72 180 -179 181h-1c-106 0 -178 -80 -178 -181v-1c0 -99 72 -178 178 -178zM342 -214
c-43 0 -82 25 -82 74c0 44 36 73 82 73c44 0 80 -29 80 -73c0 -49 -38 -74 -80 -74z" />
    <glyph glyph-name="ograve" unicode="&#xf2;" horiz-adv-x="681" 
d="M333 650l-155 151h154l86 -151h-85zM339 -13c-174 0 -306 125 -307 297v1c0 173 133 301 307 301h1c177 -1 309 -128 309 -301v-1c0 -172 -132 -296 -309 -297h-1zM340 106h1c107 0 179 79 179 178v1c0 101 -72 180 -179 181h-1c-106 0 -178 -80 -178 -181v-1
c0 -99 72 -178 178 -178z" />
    <glyph glyph-name="ohungarumlaut" unicode="&#x151;" horiz-adv-x="681" 
d="M171 642l108 140h148l-132 -140h-124zM402 642l108 140h148l-132 -140h-124zM339 -13c-174 0 -306 125 -307 297v1c0 173 133 301 307 301h1c177 -1 309 -128 309 -301v-1c0 -172 -132 -296 -309 -297h-1zM340 106h1c107 0 179 79 179 178v1c0 101 -72 180 -179 181h-1
c-106 0 -178 -80 -178 -181v-1c0 -99 72 -178 178 -178z" />
    <glyph glyph-name="omacron" unicode="&#x14d;" horiz-adv-x="681" 
d="M187 650v85h309v-85h-309zM339 -13c-174 0 -306 125 -307 297v1c0 173 133 301 307 301h1c177 -1 309 -128 309 -301v-1c0 -172 -132 -296 -309 -297h-1zM340 106h1c107 0 179 79 179 178v1c0 101 -72 180 -179 181h-1c-106 0 -178 -80 -178 -181v-1
c0 -99 72 -178 178 -178z" />
    <glyph glyph-name="oslash" unicode="&#xf8;" horiz-adv-x="681" 
d="M705 533l-99 -90c28 -45 43 -99 43 -158v-1c0 -172 -132 -296 -309 -297h-1c-67 0 -127 18 -176 51l-81 -74l-105 71l99 91c-28 45 -44 99 -44 158v1c0 173 133 301 307 301h1c69 0 131 -20 181 -54l79 72zM162 284c0 -24 4 -48 13 -69l252 231c-25 12 -54 20 -86 20h-1
c-106 0 -178 -80 -178 -181v-1zM520 285c0 24 -4 47 -12 68l-250 -229c24 -11 51 -18 82 -18h1c107 0 179 79 179 178v1z" />
    <glyph glyph-name="otilde" unicode="&#xf5;" horiz-adv-x="681" 
d="M152 646c5 79 29 131 106 131c64 0 99 -41 148 -41c22 0 31 13 37 40h91c-5 -79 -27 -130 -105 -130c-63 0 -100 41 -148 41c-23 0 -33 -12 -38 -41h-91zM339 -13c-174 0 -306 125 -307 297v1c0 173 133 301 307 301h1c177 -1 309 -128 309 -301v-1
c0 -172 -132 -296 -309 -297h-1zM340 106h1c107 0 179 79 179 178v1c0 101 -72 180 -179 181h-1c-106 0 -178 -80 -178 -181v-1c0 -99 72 -178 178 -178z" />
    <glyph glyph-name="oe" unicode="&#x153;" horiz-adv-x="1126" 
d="M1088 302v-61h-434c17 -88 79 -139 176 -139c68 0 132 17 175 42l54 -100c-59 -31 -138 -55 -238 -55c-103 0 -186 39 -238 106c-56 -67 -142 -107 -243 -108h-1c-174 0 -306 125 -307 297v1c0 173 133 301 307 301h1c100 -1 185 -41 240 -107c51 68 133 108 234 108
c165 0 274 -114 274 -285zM811 474c-87 0 -140 -46 -156 -124h308c-8 77 -65 124 -152 124zM520 284v1c0 101 -72 180 -179 181h-1c-106 0 -178 -80 -178 -181v-1c0 -99 72 -178 178 -178h1c107 0 179 79 179 178z" />
    <glyph glyph-name="p" unicode="p" horiz-adv-x="664" 
d="M315 578c190 0 314 -109 314 -297v-1c0 -185 -118 -299 -314 -299c-32 0 -67 3 -102 9v-211h-129v770h25c69 19 143 29 206 29zM505 279v2c0 106 -66 180 -186 180c-32 0 -66 -4 -106 -13v-342c35 -7 75 -9 105 -9c115 0 187 70 187 182z" />
    <glyph glyph-name="thorn" unicode="&#xfe;" horiz-adv-x="664" 
d="M315 578c190 0 314 -109 314 -297v-1c0 -185 -118 -299 -314 -299c-32 0 -67 3 -102 9v-210h-129v1031h129v-241c36 5 70 8 102 8zM505 279v2c0 106 -66 180 -186 180c-33 0 -65 -4 -106 -14v-340c36 -8 74 -10 105 -10c115 0 187 70 187 182z" />
    <glyph glyph-name="q" unicode="q" horiz-adv-x="664" 
d="M555 549h25v-770h-129v211c-35 -6 -70 -9 -102 -9c-196 0 -314 114 -314 299v1c0 188 124 297 314 297c63 0 137 -10 206 -29zM346 97c30 0 70 2 105 9v342c-40 9 -74 13 -106 13c-120 0 -186 -74 -186 -180v-2c0 -112 72 -182 187 -182z" />
    <glyph glyph-name="r" unicode="r" horiz-adv-x="436" 
d="M75 0v538c80 22 164 27 222 27h103v-119h-87c-28 0 -90 -2 -110 -12v-434h-128z" />
    <glyph glyph-name="racute" unicode="&#x155;" horiz-adv-x="436" 
d="M145 635l136 141h150l-159 -141h-127zM75 0v538c80 22 164 27 222 27h103v-119h-87c-28 0 -90 -2 -110 -12v-434h-128z" />
    <glyph glyph-name="rcaron" unicode="&#x159;" horiz-adv-x="436" 
d="M165 630l-157 151h126l95 -97l94 97h125l-155 -151h-128zM75 0v538c80 22 164 27 222 27h103v-119h-87c-28 0 -90 -2 -110 -12v-434h-128z" />
    <glyph glyph-name="rcommaaccent" unicode="&#x157;" horiz-adv-x="436" 
d="M75 0v538c80 22 164 27 222 27h103v-119h-87c-28 0 -90 -2 -110 -12v-434h-128zM13 -220l62 176h118l-92 -176h-88z" />
    <glyph glyph-name="s" unicode="s" horiz-adv-x="539" 
d="M262 -13c-85 0 -162 15 -238 49l34 101c66 -28 134 -41 192 -41c79 0 132 12 132 60c0 43 -19 52 -114 77c-17 4 -34 9 -51 13c-123 31 -178 86 -178 178c0 100 84 161 225 161c85 0 167 -17 224 -48l-36 -101c-53 25 -115 40 -173 40c-67 0 -107 -13 -107 -52
c0 -41 33 -50 110 -70l41 -11c131 -34 185 -90 185 -180c0 -116 -82 -176 -246 -176z" />
    <glyph glyph-name="sacute" unicode="&#x15b;" horiz-adv-x="539" 
d="M190 655l136 141h150l-159 -141h-127zM262 -13c-85 0 -162 15 -238 49l34 101c66 -28 134 -41 192 -41c79 0 132 12 132 60c0 43 -19 52 -114 77c-17 4 -34 9 -51 13c-123 31 -178 86 -178 178c0 100 84 161 225 161c85 0 167 -17 224 -48l-36 -101
c-53 25 -115 40 -173 40c-67 0 -107 -13 -107 -52c0 -41 33 -50 110 -70l41 -11c131 -34 185 -90 185 -180c0 -116 -82 -176 -246 -176z" />
    <glyph glyph-name="scaron" unicode="&#x161;" horiz-adv-x="539" 
d="M210 650l-157 151h126l95 -97l94 97h125l-155 -151h-128zM262 -13c-85 0 -162 15 -238 49l34 101c66 -28 134 -41 192 -41c79 0 132 12 132 60c0 43 -19 52 -114 77c-17 4 -34 9 -51 13c-123 31 -178 86 -178 178c0 100 84 161 225 161c85 0 167 -17 224 -48l-36 -101
c-53 25 -115 40 -173 40c-67 0 -107 -13 -107 -52c0 -41 33 -50 110 -70l41 -11c131 -34 185 -90 185 -180c0 -116 -82 -176 -246 -176z" />
    <glyph glyph-name="scedilla" unicode="&#x15f;" horiz-adv-x="539" 
d="M508 163c0 -108 -71 -168 -214 -175l-29 -42c2 1 9 1 14 1c49 0 105 -21 104 -76c0 -64 -57 -91 -127 -91c-31 0 -56 3 -84 12l-5 54c20 -7 60 -16 84 -16c42 0 70 11 71 37c0 27 -27 36 -66 36c-26 0 -55 -7 -71 -11l-6 7l59 88c-76 3 -145 18 -214 49l34 101
c66 -28 134 -41 192 -41c79 0 132 12 132 60c0 43 -19 52 -114 77c-17 4 -34 9 -51 13c-123 31 -178 86 -178 178c0 100 84 161 225 161c85 0 167 -17 224 -48l-36 -101c-53 25 -115 40 -173 40c-67 0 -107 -13 -107 -52c0 -41 33 -50 110 -70l41 -11
c131 -34 185 -90 185 -180z" />
    <glyph glyph-name="scircumflex" unicode="&#x15d;" horiz-adv-x="539" 
d="M76 652l137 141h122l135 -141h-129l-68 75l-68 -75h-129zM262 -13c-85 0 -162 15 -238 49l34 101c66 -28 134 -41 192 -41c79 0 132 12 132 60c0 43 -19 52 -114 77c-17 4 -34 9 -51 13c-123 31 -178 86 -178 178c0 100 84 161 225 161c85 0 167 -17 224 -48l-36 -101
c-53 25 -115 40 -173 40c-67 0 -107 -13 -107 -52c0 -41 33 -50 110 -70l41 -11c131 -34 185 -90 185 -180c0 -116 -82 -176 -246 -176z" />
    <glyph glyph-name="scommaaccent" unicode="&#x219;" horiz-adv-x="539" 
d="M262 -13c-85 0 -162 15 -238 49l34 101c66 -28 134 -41 192 -41c79 0 132 12 132 60c0 43 -19 52 -114 77c-17 4 -34 9 -51 13c-123 31 -178 86 -178 178c0 100 84 161 225 161c85 0 167 -17 224 -48l-36 -101c-53 25 -115 40 -173 40c-67 0 -107 -13 -107 -52
c0 -41 33 -50 110 -70l41 -11c131 -34 185 -90 185 -180c0 -116 -82 -176 -246 -176zM150 -220l62 176h118l-92 -176h-88z" />
    <glyph glyph-name="germandbls" unicode="&#xdf;" horiz-adv-x="769" 
d="M564 447c102 -23 173 -92 173 -207v-5c-2 -157 -115 -246 -296 -246c-33 0 -87 4 -131 11l24 122c27 -6 57 -10 86 -10c109 0 184 45 184 132v4c0 90 -82 120 -212 120h-31l-1 124h30c106 0 155 37 155 101v4c0 69 -62 103 -158 103c-125 0 -175 -53 -175 -183v-517h-129
v518c0 227 118 306 312 306c167 0 284 -75 284 -203v-4c-1 -83 -51 -152 -115 -170z" />
    <glyph glyph-name="t" unicode="t" horiz-adv-x="505" 
d="M320 0c-145 0 -193 58 -193 180v269h-103v116h103v204h127v-204h214v-116h-214v-231c0 -77 37 -100 112 -100h103v-118h-149z" />
    <glyph glyph-name="tbar" unicode="&#x167;" horiz-adv-x="505" 
d="M366 118h103v-118h-149c-145 0 -193 58 -193 180v101h-104v115h104v53h-103v116h103v204h127v-204h214v-116h-214v-53h213v-115h-213v-63c0 -77 37 -100 112 -100z" />
    <glyph glyph-name="tcaron" unicode="&#x165;" horiz-adv-x="505" 
d="M322 635l41 176h106l-72 -176h-75zM320 0c-145 0 -193 58 -193 180v269h-103v116h103v204h127v-204h214v-116h-214v-231c0 -77 37 -100 112 -100h103v-118h-149z" />
    <glyph glyph-name="uni0163" unicode="&#x163;" horiz-adv-x="505" 
d="M469 0h-117l-31 -49c4 1 11 2 17 2c49 0 104 -21 105 -77c-1 -62 -58 -90 -128 -90c-31 0 -56 3 -85 12l-4 51c20 -6 59 -15 85 -15c41 0 73 12 73 40c0 27 -29 38 -69 38c-25 0 -55 -5 -72 -10l-4 5l59 93c-128 6 -171 64 -171 180v269h-103v116h103v204h127v-204h214
v-116h-214v-231c0 -77 37 -100 112 -100h103v-118z" />
    <glyph glyph-name="uni021B" unicode="&#x21b;" horiz-adv-x="505" 
d="M320 0c-145 0 -193 58 -193 180v269h-103v116h103v204h127v-204h214v-116h-214v-231c0 -77 37 -100 112 -100h103v-118h-149zM207 -219l62 176h118l-92 -176h-88z" />
    <glyph glyph-name="u" unicode="u" horiz-adv-x="677" 
d="M594 565v-549c-94 -17 -199 -29 -257 -29c-158 0 -253 63 -253 216v362h128c0 -114 1 -223 1 -337c0 -90 47 -115 130 -115c34 0 78 4 122 12v440h129z" />
    <glyph glyph-name="uacute" unicode="&#xfa;" horiz-adv-x="677" 
d="M256 655l136 141h150l-159 -141h-127zM594 565v-549c-94 -17 -199 -29 -257 -29c-158 0 -253 63 -253 216v362h128c0 -114 1 -223 1 -337c0 -90 47 -115 130 -115c34 0 78 4 122 12v440h129z" />
    <glyph glyph-name="ubreve" unicode="&#x16d;" horiz-adv-x="677" 
d="M341 648c-102 0 -170 40 -181 147h87c8 -55 32 -82 94 -82c61 0 85 27 94 82h87c-11 -107 -79 -147 -181 -147zM594 565v-549c-94 -17 -199 -29 -257 -29c-158 0 -253 63 -253 216v362h128c0 -114 1 -223 1 -337c0 -90 47 -115 130 -115c34 0 78 4 122 12v440h129z" />
    <glyph glyph-name="uni01D4" unicode="&#x1d4;" horiz-adv-x="677" 
d="M276 650l-157 151h126l95 -97l94 97h125l-155 -151h-128zM594 565v-549c-94 -17 -199 -29 -257 -29c-158 0 -253 63 -253 216v362h128c0 -114 1 -223 1 -337c0 -90 47 -115 130 -115c34 0 78 4 122 12v440h129z" />
    <glyph glyph-name="ucircumflex" unicode="&#xfb;" horiz-adv-x="677" 
d="M142 652l137 141h122l135 -141h-129l-68 75l-68 -75h-129zM594 565v-549c-94 -17 -199 -29 -257 -29c-158 0 -253 63 -253 216v362h128c0 -114 1 -223 1 -337c0 -90 47 -115 130 -115c34 0 78 4 122 12v440h129z" />
    <glyph glyph-name="udieresis" unicode="&#xfc;" horiz-adv-x="677" 
d="M240 650c-40 0 -77 24 -77 69c1 41 34 69 77 69c41 0 74 -28 74 -69c0 -45 -35 -69 -74 -69zM438 650c-40 0 -77 24 -77 69c1 41 35 69 77 69c41 0 74 -28 74 -69c0 -45 -35 -69 -74 -69zM594 565v-549c-94 -17 -199 -29 -257 -29c-158 0 -253 63 -253 216v362h128
c0 -114 1 -223 1 -337c0 -90 47 -115 130 -115c34 0 78 4 122 12v440h129z" />
    <glyph glyph-name="uni1EE5" unicode="&#x1ee5;" horiz-adv-x="677" 
d="M594 565v-549c-94 -17 -199 -29 -257 -29c-158 0 -253 63 -253 216v362h128c0 -114 1 -223 1 -337c0 -90 47 -115 130 -115c34 0 78 4 122 12v440h129zM339 -214c-43 0 -82 25 -82 74c0 44 36 73 82 73c44 0 80 -29 80 -73c0 -49 -38 -74 -80 -74z" />
    <glyph glyph-name="ugrave" unicode="&#xf9;" horiz-adv-x="677" 
d="M331 650l-155 151h154l86 -151h-85zM594 565v-549c-94 -17 -199 -29 -257 -29c-158 0 -253 63 -253 216v362h128c0 -114 1 -223 1 -337c0 -90 47 -115 130 -115c34 0 78 4 122 12v440h129z" />
    <glyph glyph-name="uhungarumlaut" unicode="&#x171;" horiz-adv-x="677" 
d="M169 642l108 140h148l-132 -140h-124zM400 642l108 140h148l-132 -140h-124zM594 565v-549c-94 -17 -199 -29 -257 -29c-158 0 -253 63 -253 216v362h128c0 -114 1 -223 1 -337c0 -90 47 -115 130 -115c34 0 78 4 122 12v440h129z" />
    <glyph glyph-name="umacron" unicode="&#x16b;" horiz-adv-x="677" 
d="M185 650v85h309v-85h-309zM594 565v-549c-94 -17 -199 -29 -257 -29c-158 0 -253 63 -253 216v362h128c0 -114 1 -223 1 -337c0 -90 47 -115 130 -115c34 0 78 4 122 12v440h129z" />
    <glyph glyph-name="uogonek" unicode="&#x173;" horiz-adv-x="677" 
d="M335 -13c-62 -30 -96 -54 -97 -89c-2 -37 35 -51 79 -51c16 0 30 2 41 4v-58c-14 -3 -45 -7 -71 -7c-81 0 -162 23 -161 98c2 47 39 84 101 116c-91 26 -143 90 -143 203v362h128c0 -114 1 -223 1 -337c0 -90 47 -115 130 -115c34 0 78 4 122 12v440h129v-549
c-94 -17 -199 -29 -257 -29h-2z" />
    <glyph glyph-name="uring" unicode="&#x16f;" horiz-adv-x="677" 
d="M341 648c-64 0 -117 51 -117 115c0 65 51 113 117 113c64 0 116 -51 116 -114c0 -66 -51 -114 -116 -114zM340 713c32 0 52 21 52 49c-1 28 -21 50 -51 50s-52 -22 -52 -50c-1 -28 23 -49 51 -49zM594 565v-549c-94 -17 -199 -29 -257 -29c-158 0 -253 63 -253 216v362
h128c0 -114 1 -223 1 -337c0 -90 47 -115 130 -115c34 0 78 4 122 12v440h129z" />
    <glyph glyph-name="utilde" unicode="&#x169;" horiz-adv-x="677" 
d="M150 646c5 79 29 131 106 131c64 0 99 -41 148 -41c22 0 31 13 37 40h91c-5 -79 -27 -130 -105 -130c-63 0 -100 41 -148 41c-23 0 -33 -12 -38 -41h-91zM594 565v-549c-94 -17 -199 -29 -257 -29c-158 0 -253 63 -253 216v362h128c0 -114 1 -223 1 -337
c0 -90 47 -115 130 -115c34 0 78 4 122 12v440h129z" />
    <glyph glyph-name="v" unicode="v" horiz-adv-x="605" 
d="M445 565h135l-192 -565h-168l-196 565h136l144 -448z" />
    <glyph glyph-name="w" unicode="w" horiz-adv-x="858" 
d="M697 566h135l-127 -566h-170l-106 438l-107 -438h-167l-131 566h136l89 -420l101 420h158l102 -417z" />
    <glyph glyph-name="wacute" unicode="&#x1e83;" horiz-adv-x="858" 
d="M632 794l-159 -141h-127l136 141h150zM697 566h135l-127 -566h-170l-106 438l-107 -438h-167l-131 566h136l89 -420l101 420h158l102 -417z" />
    <glyph glyph-name="wcircumflex" unicode="&#x175;" horiz-adv-x="858" 
d="M429 725l-68 -75h-129l137 141h122l135 -141h-129zM697 566h135l-127 -566h-170l-106 438l-107 -438h-167l-131 566h136l89 -420l101 420h158l102 -417z" />
    <glyph glyph-name="wdieresis" unicode="&#x1e85;" horiz-adv-x="858" 
d="M330 648c-40 0 -77 24 -77 69c1 41 34 69 77 69c41 0 74 -28 74 -69c0 -45 -35 -69 -74 -69zM528 648c-40 0 -77 24 -77 69c1 41 35 69 77 69c41 0 74 -28 74 -69c0 -45 -35 -69 -74 -69zM697 566h135l-127 -566h-170l-106 438l-107 -438h-167l-131 566h136l89 -420
l101 420h158l102 -417z" />
    <glyph glyph-name="wgrave" unicode="&#x1e81;" horiz-adv-x="858" 
d="M506 648h-85l-155 151h154zM697 566h135l-127 -566h-170l-106 438l-107 -438h-167l-131 566h136l89 -420l101 420h158l102 -417z" />
    <glyph glyph-name="x" unicode="x" horiz-adv-x="627" 
d="M607 0h-150l-146 192l-149 -192h-142l219 289l-206 276h149l133 -176l134 176h146l-208 -272z" />
    <glyph glyph-name="y" unicode="y" horiz-adv-x="661" 
d="M584 62c-1 0 -1 0 -2 -1v-58c0 -160 -112 -233 -257 -233c-72 0 -144 12 -185 29l-27 117c55 -23 128 -33 184 -33c105 0 158 32 158 124v20c-38 -8 -79 -12 -128 -12c-158 0 -243 62 -243 216v334h128v-310c0 -87 43 -116 121 -116c48 0 87 5 122 14v412h127v-502z" />
    <glyph glyph-name="yacute" unicode="&#xfd;" horiz-adv-x="661" 
d="M537 787l-159 -141h-127l136 141h150zM584 62c-1 0 -1 0 -2 -1v-58c0 -160 -112 -233 -257 -233c-72 0 -144 12 -185 29l-27 117c55 -23 128 -33 184 -33c105 0 158 32 158 124v20c-38 -8 -79 -12 -128 -12c-158 0 -243 62 -243 216v334h128v-310c0 -87 43 -116 121 -116
c48 0 87 5 122 14v412h127v-502z" />
    <glyph glyph-name="ycircumflex" unicode="&#x177;" horiz-adv-x="661" 
d="M334 718l-68 -75h-129l137 141h122l135 -141h-129zM584 62c-1 0 -1 0 -2 -1v-58c0 -160 -112 -233 -257 -233c-72 0 -144 12 -185 29l-27 117c55 -23 128 -33 184 -33c105 0 158 32 158 124v20c-38 -8 -79 -12 -128 -12c-158 0 -243 62 -243 216v334h128v-310
c0 -87 43 -116 121 -116c48 0 87 5 122 14v412h127v-502z" />
    <glyph glyph-name="ydieresis" unicode="&#xff;" horiz-adv-x="661" 
d="M235 641c-40 0 -77 24 -77 69c1 41 34 69 77 69c41 0 74 -28 74 -69c0 -45 -35 -69 -74 -69zM433 641c-40 0 -77 24 -77 69c1 41 35 69 77 69c41 0 74 -28 74 -69c0 -45 -35 -69 -74 -69zM584 62c-1 0 -1 0 -2 -1v-58c0 -160 -112 -233 -257 -233c-72 0 -144 12 -185 29
l-27 117c55 -23 128 -33 184 -33c105 0 158 32 158 124v20c-38 -8 -79 -12 -128 -12c-158 0 -243 62 -243 216v334h128v-310c0 -87 43 -116 121 -116c48 0 87 5 122 14v412h127v-502z" />
    <glyph glyph-name="ygrave" unicode="&#x1ef3;" horiz-adv-x="661" 
d="M411 641h-85l-155 151h154zM584 62c-1 0 -1 0 -2 -1v-58c0 -160 -112 -233 -257 -233c-72 0 -144 12 -185 29l-27 117c55 -23 128 -33 184 -33c105 0 158 32 158 124v20c-38 -8 -79 -12 -128 -12c-158 0 -243 62 -243 216v334h128v-310c0 -87 43 -116 121 -116
c48 0 87 5 122 14v412h127v-502z" />
    <glyph glyph-name="uni0233" unicode="&#x233;" horiz-adv-x="661" 
d="M489 726v-85h-309v85h309zM584 62c-1 0 -1 0 -2 -1v-58c0 -160 -112 -233 -257 -233c-72 0 -144 12 -185 29l-27 117c55 -23 128 -33 184 -33c105 0 158 32 158 124v20c-38 -8 -79 -12 -128 -12c-158 0 -243 62 -243 216v334h128v-310c0 -87 43 -116 121 -116
c48 0 87 5 122 14v412h127v-502z" />
    <glyph glyph-name="z" unicode="z" horiz-adv-x="593" 
d="M216 118h323v-118h-484v111l316 337h-300v117h460v-107z" />
    <glyph glyph-name="zacute" unicode="&#x17a;" horiz-adv-x="593" 
d="M507 796l-159 -141h-127l136 141h150zM216 118h323v-118h-484v111l316 337h-300v117h460v-107z" />
    <glyph glyph-name="zcaron" unicode="&#x17e;" horiz-adv-x="593" 
d="M369 650h-128l-157 151h126l95 -97l94 97h125zM216 118h323v-118h-484v111l316 337h-300v117h460v-107z" />
    <glyph glyph-name="zdotaccent" unicode="&#x17c;" horiz-adv-x="593" 
d="M305 650c-42 0 -80 25 -80 73c0 43 35 71 80 71c43 0 78 -28 78 -71c0 -48 -37 -73 -78 -73zM216 118h323v-118h-484v111l316 337h-300v117h460v-107z" />
    <glyph glyph-name="ordfeminine" unicode="&#xaa;" horiz-adv-x="441" 
d="M223 777c119 0 180 -46 180 -152v-235c-40 -14 -112 -25 -173 -25c-120 0 -192 35 -192 126v1c0 81 67 119 176 119c29 -1 61 -3 98 -7v23c0 48 -33 74 -110 74c-37 0 -91 -7 -132 -25l20 78c30 13 83 23 133 23zM311 448v92c-9 2 -54 7 -79 7c-65 0 -101 -8 -101 -52v-1
c1 -45 36 -57 101 -57c23 0 60 4 79 11z" />
    <glyph glyph-name="ordmasculine" unicode="&#xba;" horiz-adv-x="497" 
d="M248 365c-125 0 -210 82 -210 206c0 125 85 209 210 209s211 -84 211 -209c0 -123 -86 -206 -211 -206zM248 465h1c61 0 102 43 102 106c0 65 -41 108 -102 108h-1c-61 0 -102 -43 -102 -108c0 -63 41 -106 102 -106z" />
    <glyph glyph-name="uni0394" unicode="&#x394;" horiz-adv-x="854" 
d="M9 -1l352 799h133l352 -799h-837zM194 120h465l-232 527z" />
    <glyph glyph-name="uni03A9" unicode="&#x3a9;" horiz-adv-x="889" 
d="M830 506c0 -120 -71 -229 -187 -286v-99h152v-121h-281v277c119 24 184 101 184 222s-99 202 -253 202c-153 0 -254 -81 -254 -202s72 -198 184 -222v-277h-281v121h151v100c-116 57 -187 165 -187 285v1c0 198 151 317 386 317c236 0 386 -118 386 -317v-1z" />
    <glyph glyph-name="uni03BC" unicode="&#x3bc;" horiz-adv-x="715" 
d="M692 113v-125c-78 0 -132 14 -168 46c-44 -32 -106 -47 -184 -47c-52 0 -94 7 -127 20v-227h-129v785h129v-337c0 -90 47 -115 127 -115s127 25 127 115c0 113 1 224 1 337h130v-338c0 -81 33 -114 94 -114z" />
    <glyph glyph-name="pi" unicode="&#x3c0;" horiz-adv-x="823" 
d="M131 0v446h-75v119h711v-119h-84v-248c0 -63 15 -78 71 -78h18v-120h-35c-143 0 -183 35 -183 157v289h-294v-446h-129z" />
    <glyph glyph-name="uni0621" unicode="&#x621;" horiz-adv-x="501" 
d="M55 0v187c0 190 93 277 272 277h40v-125h-62c-81 0 -130 -39 -130 -131v-80h276v-128h-396z" />
    <glyph glyph-name="uni0627" unicode="&#x627;" horiz-adv-x="293" 
d="M83 0v811h127v-811h-127z" />
    <glyph glyph-name="uni0627.short" horiz-adv-x="293" 
d="M83 670h127v-648h-127v648z" />
    <glyph glyph-name="uniFE8E.short" horiz-adv-x="360" 
d="M210 128h170v-128h-297v692h127v-564z" />
    <glyph glyph-name="uni0623" unicode="&#x623;" horiz-adv-x="293" 
d="M144 837h80v-75h-155v80c0 61 43 102 107 102h25v-70h-33c-14 0 -24 -10 -24 -25v-12zM83 670h127v-648h-127v648z" />
    <glyph glyph-name="uni0625" unicode="&#x625;" horiz-adv-x="293" 
d="M83 0v811h127v-811h-127zM63 -242v80c0 61 43 102 107 102h37v-70h-45c-14 0 -24 -10 -24 -25v-12h92v-75h-167z" />
    <glyph glyph-name="uni0622" unicode="&#x622;" horiz-adv-x="293" 
d="M54 851v85h185v-85h-185zM83 0v811h127v-811h-127z" />
    <glyph glyph-name="uni0671" unicode="&#x671;" horiz-adv-x="293" 
d="M147 918c80 0 122 -38 122 -111v-75h-245v75c0 73 42 111 122 111h1zM179 807v7c0 22 -11 33 -32 33h-1c-21 0 -32 -11 -32 -33v-7h65zM83 670h127v-648h-127v648z" />
    <glyph glyph-name="uni066E" unicode="&#x66e;" horiz-adv-x="833" 
d="M641 565h127v-565h-409c-211 0 -309 105 -309 298v183h128v-170c0 -130 80 -183 208 -183h255v437z" />
    <glyph glyph-name="uni066E.ss01" horiz-adv-x="854" 
d="M662 565h127v-565h-490c-117 0 -201 27 -274 77l54 102c64 -39 127 -51 204 -51h379v437z" />
    <glyph glyph-name="uni066E.fina.ss01" horiz-adv-x="887" 
d="M789 128h118v-128h-608c-117 0 -201 27 -274 77l54 102c64 -39 127 -51 204 -51h379v437h127v-437z" />
    <glyph glyph-name="uni066E.medi.alt" horiz-adv-x="443" 
d="M463 128v-128h-463v128h158v437h127v-437h178z" />
    <glyph glyph-name="uni066E.init.alt" horiz-adv-x="388" 
d="M0 0v128h196v437h127v-565h-323z" />
    <glyph glyph-name="uni0628" unicode="&#x628;" horiz-adv-x="833" 
d="M641 565h127v-565h-409c-211 0 -309 105 -309 298v183h128v-170c0 -130 80 -183 208 -183h255v437zM455 -100c44 0 80 -29 80 -73c0 -49 -38 -74 -80 -74c-43 0 -82 25 -82 74c0 44 36 73 82 73z" />
    <glyph glyph-name="uni0628.ss01" horiz-adv-x="854" 
d="M662 565h127v-565h-490c-117 0 -201 27 -274 77l54 102c64 -39 127 -51 204 -51h379v437zM480 -100c44 0 80 -29 80 -73c0 -49 -38 -74 -80 -74c-43 0 -82 25 -82 74c0 44 36 73 82 73z" />
    <glyph glyph-name="uniFE90.ss01" horiz-adv-x="887" 
d="M789 128h118v-128h-608c-117 0 -201 27 -274 77l54 102c64 -39 127 -51 204 -51h379v437h127v-437zM480 -100c44 0 80 -29 80 -73c0 -49 -38 -74 -80 -74c-43 0 -82 25 -82 74c0 44 36 73 82 73z" />
    <glyph glyph-name="uni067E" unicode="&#x67e;" horiz-adv-x="833" 
d="M641 565h127v-565h-409c-211 0 -309 105 -309 298v183h128v-170c0 -130 80 -183 208 -183h255v437zM435 -178c0 -46 -37 -71 -78 -71c-40 0 -77 25 -77 71c0 42 34 70 77 70c44 0 78 -28 78 -70zM552 -108c44 0 77 -28 77 -70c0 -46 -36 -71 -77 -71s-77 25 -77 71
c0 42 33 70 77 70zM455 -257c39 0 68 -25 68 -61c0 -41 -30 -62 -68 -62c-35 0 -68 21 -68 62c0 36 29 61 68 61z" />
    <glyph glyph-name="uniFB57.ss01" horiz-adv-x="887" 
d="M789 128h118v-128h-608c-117 0 -201 27 -274 77l54 102c64 -39 127 -51 204 -51h379v437h127v-437zM460 -178c0 -46 -37 -71 -78 -71c-40 0 -77 25 -77 71c0 42 34 70 77 70c44 0 78 -28 78 -70zM577 -108c44 0 77 -28 77 -70c0 -46 -36 -71 -77 -71s-77 25 -77 71
c0 42 33 70 77 70zM480 -257c39 0 68 -25 68 -61c0 -41 -30 -62 -68 -62c-35 0 -68 21 -68 62c0 36 29 61 68 61z" />
    <glyph glyph-name="uni067E.ss01" horiz-adv-x="854" 
d="M662 565h127v-565h-490c-117 0 -201 27 -274 77l54 102c64 -39 127 -51 204 -51h379v437zM460 -178c0 -46 -37 -71 -78 -71c-40 0 -77 25 -77 71c0 42 34 70 77 70c44 0 78 -28 78 -70zM577 -108c44 0 77 -28 77 -70c0 -46 -36 -71 -77 -71s-77 25 -77 71
c0 42 33 70 77 70zM480 -257c39 0 68 -25 68 -61c0 -41 -30 -62 -68 -62c-35 0 -68 21 -68 62c0 36 29 61 68 61z" />
    <glyph glyph-name="uni062A" unicode="&#x62a;" horiz-adv-x="833" 
d="M323 631c-42 0 -80 25 -80 73c0 43 35 73 80 73s80 -30 80 -73c0 -48 -37 -73 -80 -73zM523 631c-42 0 -80 25 -80 73c0 43 35 73 80 73c46 0 80 -30 80 -73c0 -48 -37 -73 -80 -73zM641 565h127v-565h-409c-211 0 -309 105 -309 298v183h128v-170
c0 -130 80 -183 208 -183h255v437z" />
    <glyph glyph-name="uni062A.ss01" horiz-adv-x="854" 
d="M662 565h127v-565h-490c-117 0 -201 27 -274 77l54 102c64 -39 127 -51 204 -51h379v437zM280 349c-42 0 -80 25 -80 73c0 43 35 73 80 73s80 -30 80 -73c0 -48 -37 -73 -80 -73zM480 349c-42 0 -80 25 -80 73c0 43 35 73 80 73c46 0 80 -30 80 -73
c0 -48 -37 -73 -80 -73z" />
    <glyph glyph-name="uniFE96.ss01" horiz-adv-x="887" 
d="M789 128h118v-128h-608c-117 0 -201 27 -274 77l54 102c64 -39 127 -51 204 -51h379v437h127v-437zM280 349c-42 0 -80 25 -80 73c0 43 35 73 80 73s80 -30 80 -73c0 -48 -37 -73 -80 -73zM480 349c-42 0 -80 25 -80 73c0 43 35 73 80 73c46 0 80 -30 80 -73
c0 -48 -37 -73 -80 -73z" />
    <glyph glyph-name="uni062B" unicode="&#x62b;" horiz-adv-x="833" 
d="M424 778c-35 0 -68 21 -68 62c0 36 29 61 68 61s68 -25 68 -61c0 -41 -32 -62 -68 -62zM326 631c-40 0 -77 24 -77 71c0 42 34 70 77 70c44 0 78 -28 78 -70c0 -47 -37 -71 -78 -71zM444 702c0 42 33 70 77 70s77 -28 77 -70c0 -47 -36 -71 -77 -71s-77 24 -77 71z
M641 565h127v-565h-409c-211 0 -309 105 -309 298v183h128v-170c0 -130 80 -183 208 -183h255v437z" />
    <glyph glyph-name="uni062B.ss01" horiz-adv-x="854" 
d="M381 496c-35 0 -68 21 -68 62c0 36 29 61 68 61s68 -25 68 -61c0 -41 -32 -62 -68 -62zM662 565h127v-565h-490c-117 0 -201 27 -274 77l54 102c64 -39 127 -51 204 -51h379v437zM283 349c-40 0 -77 24 -77 71c0 42 34 70 77 70c44 0 78 -28 78 -70
c0 -47 -37 -71 -78 -71zM401 420c0 42 33 70 77 70s77 -28 77 -70c0 -47 -36 -71 -77 -71s-77 24 -77 71z" />
    <glyph glyph-name="uniFE9A.ss01" horiz-adv-x="887" 
d="M381 496c-35 0 -68 21 -68 62c0 36 29 61 68 61s68 -25 68 -61c0 -41 -32 -62 -68 -62zM789 128h118v-128h-608c-117 0 -201 27 -274 77l54 102c64 -39 127 -51 204 -51h379v437h127v-437zM283 349c-40 0 -77 24 -77 71c0 42 34 70 77 70c44 0 78 -28 78 -70
c0 -47 -37 -71 -78 -71zM401 420c0 42 33 70 77 70s77 -28 77 -70c0 -47 -36 -71 -77 -71s-77 24 -77 71z" />
    <glyph glyph-name="uni0679" unicode="&#x679;" horiz-adv-x="833" 
d="M546 677v-75h-245v213h95v-35h43c64 0 107 -41 107 -103zM451 677v12c0 13 -8 21 -21 21h-34v-33h55zM641 565h127v-565h-409c-211 0 -309 105 -309 298v183h128v-170c0 -130 80 -183 208 -183h255v437z" />
    <glyph glyph-name="uni0679.ss01" horiz-adv-x="854" 
d="M662 565h127v-565h-490c-117 0 -201 27 -274 77l54 102c64 -39 127 -51 204 -51h379v437zM503 395v-75h-245v213h95v-35h43c64 0 107 -41 107 -103zM408 395v12c0 13 -8 21 -21 21h-34v-33h55z" />
    <glyph glyph-name="uniFB67.ss01" horiz-adv-x="887" 
d="M789 128h118v-128h-608c-117 0 -201 27 -274 77l54 102c64 -39 127 -51 204 -51h379v437h127v-437zM503 395v-75h-245v213h95v-35h43c64 0 107 -41 107 -103zM408 395v12c0 13 -8 21 -21 21h-34v-33h55z" />
    <glyph glyph-name="uni062C" unicode="&#x62c;" horiz-adv-x="640" 
d="M311 585c183 0 279 -118 279 -310c0 -92 -23 -202 -44 -275h-229c-62 0 -92 -22 -118 -87l-58 -143l-116 44l65 161c45 112 103 153 216 153h143c13 48 21 107 21 153c0 110 -65 176 -167 176c-57 0 -98 -12 -157 -48l-46 117c71 37 139 59 211 59zM373 -119
c44 0 80 -29 80 -73c0 -49 -38 -74 -80 -74c-43 0 -82 25 -82 74c0 44 36 73 82 73z" />
    <glyph glyph-name="uniFE9F.001" horiz-adv-x="589" 
d="M260 585c183 0 279 -118 279 -310c0 -92 -23 -202 -44 -275h-495v128h398c13 48 21 107 21 153c0 110 -65 176 -167 176c-57 0 -98 -12 -157 -48l-46 117c71 37 139 59 211 59zM271 -100c44 0 80 -29 80 -73c0 -49 -38 -74 -80 -74c-43 0 -82 25 -82 74c0 44 36 73 82 73
z" />
    <glyph glyph-name="uni0686" unicode="&#x686;" horiz-adv-x="714" 
d="M385 585c183 0 279 -118 279 -310c0 -92 -23 -202 -44 -275h-269c-83 0 -133 -29 -178 -96l-48 -68l-100 74l60 82c66 96 139 136 255 136h183c13 48 21 107 21 153c0 110 -65 176 -167 176c-57 0 -98 -12 -157 -48l-46 117c71 37 139 59 211 59zM405 -184
c0 -46 -37 -71 -78 -71c-40 0 -77 25 -77 71c0 42 34 70 77 70c44 0 78 -28 78 -70zM522 -114c44 0 77 -28 77 -70c0 -46 -36 -71 -77 -71s-77 25 -77 71c0 42 33 70 77 70zM425 -263c39 0 68 -25 68 -61c0 -41 -30 -62 -68 -62c-35 0 -68 21 -68 62c0 36 29 61 68 61z" />
    <glyph glyph-name="uni062D" unicode="&#x62d;" horiz-adv-x="640" 
d="M311 585c183 0 279 -118 279 -310c0 -92 -23 -202 -44 -275h-229c-62 0 -92 -22 -118 -87l-58 -143l-116 44l65 161c45 112 103 153 216 153h143c13 48 21 107 21 153c0 110 -65 176 -167 176c-57 0 -98 -12 -157 -48l-46 117c71 37 139 59 211 59z" />
    <glyph glyph-name="uni062D.alt" horiz-adv-x="714" 
d="M385 585c183 0 279 -118 279 -310c0 -92 -23 -202 -44 -275h-269c-83 0 -133 -29 -178 -96l-48 -68l-100 74l60 82c66 96 139 136 255 136h183c13 48 21 107 21 153c0 110 -65 176 -167 176c-57 0 -98 -12 -157 -48l-46 117c71 37 139 59 211 59z" />
    <glyph glyph-name="uniFEA2.alt" horiz-adv-x="740" 
d="M649 128h111v-128h-409c-83 0 -133 -29 -178 -96l-48 -68l-100 74l60 82c66 96 139 136 255 136h183c13 48 21 107 21 153c0 110 -65 176 -167 176c-57 0 -98 -12 -157 -48l-46 117c71 37 139 59 211 59c183 0 279 -118 279 -310c0 -47 -6 -98 -15 -147z" />
    <glyph glyph-name="uni062E" unicode="&#x62e;" horiz-adv-x="640" 
d="M330 690c-43 0 -82 25 -82 74c0 44 36 73 82 73c44 0 80 -29 80 -73c0 -49 -38 -74 -80 -74zM311 585c183 0 279 -118 279 -310c0 -92 -23 -202 -44 -275h-229c-62 0 -92 -22 -118 -87l-58 -143l-116 44l65 161c45 112 103 153 216 153h143c13 48 21 107 21 153
c0 110 -65 176 -167 176c-57 0 -98 -12 -157 -48l-46 117c71 37 139 59 211 59z" />
    <glyph glyph-name="uni062F" unicode="&#x62f;" horiz-adv-x="553" 
d="M25 0v128h353v172c0 93 -45 138 -133 138h-43v127h25c187 0 271 -94 271 -277v-288h-473z" />
    <glyph glyph-name="uni0630" unicode="&#x630;" horiz-adv-x="553" 
d="M238 670c-43 0 -82 25 -82 74c0 44 36 73 82 73c44 0 80 -29 80 -73c0 -49 -38 -74 -80 -74zM25 0v128h353v172c0 93 -45 138 -133 138h-43v127h25c187 0 271 -94 271 -277v-288h-473z" />
    <glyph glyph-name="uni0688" unicode="&#x688;" horiz-adv-x="553" 
d="M114 636v213h95v-35h43c64 0 107 -41 107 -103v-75h-245zM209 711h55v12c0 13 -8 21 -21 21h-34v-33zM25 0v128h353v172c0 93 -45 138 -133 138h-43v127h25c187 0 271 -94 271 -277v-288h-473z" />
    <glyph glyph-name="uni0631" unicode="&#x631;" horiz-adv-x="346" 
d="M75 -220c-28 0 -56 3 -81 9l-13 111c33 -3 55 -5 81 -5c54 0 91 28 91 107v563h128v-542c0 -189 -70 -243 -206 -243z" />
    <glyph glyph-name="uni0632" unicode="&#x632;" horiz-adv-x="346" 
d="M219 670c-43 0 -82 25 -82 74c0 44 36 73 82 73c44 0 80 -29 80 -73c0 -49 -38 -74 -80 -74zM75 -220c-28 0 -56 3 -81 9l-13 111c33 -3 55 -5 81 -5c54 0 91 28 91 107v563h128v-542c0 -189 -70 -243 -206 -243z" />
    <glyph glyph-name="uni0691" unicode="&#x691;" horiz-adv-x="346" 
d="M95 636v213h95v-35h43c64 0 107 -41 107 -103v-75h-245zM190 711h55v12c0 13 -8 21 -21 21h-34v-33zM75 -220c-28 0 -56 3 -81 9l-13 111c33 -3 55 -5 81 -5c54 0 91 28 91 107v563h128v-542c0 -189 -70 -243 -206 -243z" />
    <glyph glyph-name="uni0698" unicode="&#x698;" horiz-adv-x="346" 
d="M218 812c-35 0 -68 21 -68 62c0 36 29 61 68 61s68 -25 68 -61c0 -41 -32 -62 -68 -62zM120 665c-40 0 -77 24 -77 71c0 42 34 70 77 70c44 0 78 -28 78 -70c0 -47 -37 -71 -78 -71zM315 665c-41 0 -77 24 -77 71c0 42 33 70 77 70s77 -28 77 -70c0 -47 -36 -71 -77 -71z
M75 -220c-28 0 -56 3 -81 9l-13 111c33 -3 55 -5 81 -5c54 0 91 28 91 107v563h128v-542c0 -189 -70 -243 -206 -243z" />
    <glyph glyph-name="uni0633" unicode="&#x633;" horiz-adv-x="1409" 
d="M1226 571h128v-298c0 -189 -84 -283 -262 -283c-96 0 -174 42 -206 114c-39 -66 -109 -104 -205 -104h-82v-125h-240c-200 0 -309 105 -309 293v329h128v-313c0 -130 80 -181 201 -181h92v494h128v-369h81c74 0 151 37 151 142v227h128v-245c0 -83 53 -134 133 -134
c84 0 134 48 134 142v311z" />
    <glyph glyph-name="uni0633.ss01" horiz-adv-x="1490" 
d="M1307 571h128v-298c0 -189 -84 -283 -262 -283c-96 0 -174 42 -206 114c-39 -66 -109 -104 -205 -104h-82v-125h-396c-109 0 -187 24 -259 71l42 108c64 -37 128 -51 206 -51h279v494h128v-369h81c74 0 151 37 151 142v227h128v-245c0 -83 53 -134 133 -134
c84 0 134 48 134 142v311z" />
    <glyph glyph-name="uniFEB2.ss01" horiz-adv-x="1569" 
d="M1435 287c0 -110 53 -159 154 -159v-128c-93 0 -163 33 -196 91c-41 -67 -114 -101 -220 -101c-96 0 -174 42 -206 114c-39 -66 -109 -104 -205 -104h-82v-125h-396c-109 0 -187 24 -259 71l42 108c64 -37 128 -51 206 -51h279v494h128v-369h81c74 0 151 37 151 142v227
h128v-245c0 -83 53 -134 133 -134c84 0 134 48 134 142v311h128v-284z" />
    <glyph glyph-name="uni0634" unicode="&#x634;" horiz-adv-x="1409" 
d="M897 744c-35 0 -68 21 -68 62c0 36 29 61 68 61s68 -25 68 -61c0 -41 -32 -62 -68 -62zM799 597c-40 0 -77 24 -77 71c0 42 34 70 77 70c44 0 78 -28 78 -70c0 -47 -37 -71 -78 -71zM917 668c0 42 33 70 77 70s77 -28 77 -70c0 -47 -36 -71 -77 -71s-77 24 -77 71z
M1226 571h128v-298c0 -189 -84 -283 -262 -283c-96 0 -174 42 -206 114c-39 -66 -109 -104 -205 -104h-82v-125h-240c-200 0 -309 105 -309 293v329h128v-313c0 -130 80 -181 201 -181h92v494h128v-369h81c74 0 151 37 151 142v227h128v-245c0 -83 53 -134 133 -134
c84 0 134 48 134 142v311z" />
    <glyph glyph-name="uni0634.ss01" horiz-adv-x="1490" 
d="M978 744c-35 0 -68 21 -68 62c0 36 29 61 68 61s68 -25 68 -61c0 -41 -32 -62 -68 -62zM880 597c-40 0 -77 24 -77 71c0 42 34 70 77 70c44 0 78 -28 78 -70c0 -47 -37 -71 -78 -71zM998 668c0 42 33 70 77 70s77 -28 77 -70c0 -47 -36 -71 -77 -71s-77 24 -77 71z
M1307 571h128v-298c0 -189 -84 -283 -262 -283c-96 0 -174 42 -206 114c-39 -66 -109 -104 -205 -104h-82v-125h-396c-109 0 -187 24 -259 71l42 108c64 -37 128 -51 206 -51h279v494h128v-369h81c74 0 151 37 151 142v227h128v-245c0 -83 53 -134 133 -134
c84 0 134 48 134 142v311z" />
    <glyph glyph-name="uniFEB6.ss01" horiz-adv-x="1569" 
d="M978 744c-35 0 -68 21 -68 62c0 36 29 61 68 61s68 -25 68 -61c0 -41 -32 -62 -68 -62zM880 597c-40 0 -77 24 -77 71c0 42 34 70 77 70c44 0 78 -28 78 -70c0 -47 -37 -71 -78 -71zM998 668c0 42 33 70 77 70s77 -28 77 -70c0 -47 -36 -71 -77 -71s-77 24 -77 71z
M1435 287c0 -110 53 -159 154 -159v-128c-93 0 -163 33 -196 91c-41 -67 -114 -101 -220 -101c-96 0 -174 42 -206 114c-39 -66 -109 -104 -205 -104h-82v-125h-396c-109 0 -187 24 -259 71l42 108c64 -37 128 -51 206 -51h279v494h128v-369h81c74 0 151 37 151 142v227h128
v-245c0 -83 53 -134 133 -134c84 0 134 48 134 142v311h128v-284z" />
    <glyph glyph-name="uni0635" unicode="&#x635;" horiz-adv-x="1190" 
d="M1135 268l-1 -268h-535v-125h-240c-200 0 -309 105 -309 293v329h128v-313c0 -130 80 -181 201 -181h92v617h128v-55h230c198 0 306 -106 306 -297zM1006 128l1 161c0 102 -66 148 -167 149h-241v-310h407z" />
    <glyph glyph-name="uni0635.ss01" horiz-adv-x="1271" 
d="M1216 268l-1 -268h-535v-125h-396c-109 0 -187 24 -259 71l42 108c64 -37 128 -51 206 -51h279v617h128v-55h230c198 0 306 -106 306 -297zM1087 128l1 161c0 102 -66 148 -167 149h-241v-310h407z" />
    <glyph glyph-name="uniFEBA.ss01" horiz-adv-x="1313" 
d="M1215 128h118v-128h-653v-125h-396c-109 0 -187 24 -259 71l42 108c64 -37 128 -51 206 -51h279v617h128v-55h230c198 0 306 -106 306 -297zM1087 128l1 161c0 102 -66 148 -167 149h-241v-310h407z" />
    <glyph glyph-name="uni0636" unicode="&#x636;" horiz-adv-x="1190" 
d="M827 670c-43 0 -82 25 -82 74c0 44 36 73 82 73c44 0 80 -29 80 -73c0 -49 -38 -74 -80 -74zM1135 268l-1 -268h-535v-125h-240c-200 0 -309 105 -309 293v329h128v-313c0 -130 80 -181 201 -181h92v617h128v-55h230c198 0 306 -106 306 -297zM1006 128l1 161
c0 102 -66 148 -167 149h-241v-310h407z" />
    <glyph glyph-name="uni0636.ss01" horiz-adv-x="1271" 
d="M908 670c-43 0 -82 25 -82 74c0 44 36 73 82 73c44 0 80 -29 80 -73c0 -49 -38 -74 -80 -74zM1216 268l-1 -268h-535v-125h-396c-109 0 -187 24 -259 71l42 108c64 -37 128 -51 206 -51h279v617h128v-55h230c198 0 306 -106 306 -297zM1087 128l1 161
c0 102 -66 148 -167 149h-241v-310h407z" />
    <glyph glyph-name="uniFEBE.ss01" horiz-adv-x="1313" 
d="M908 670c-43 0 -82 25 -82 74c0 44 36 73 82 73c44 0 80 -29 80 -73c0 -49 -38 -74 -80 -74zM1215 128h118v-128h-653v-125h-396c-109 0 -187 24 -259 71l42 108c64 -37 128 -51 206 -51h279v617h128v-55h230c198 0 306 -106 306 -297zM1087 128l1 161
c0 102 -66 148 -167 149h-241v-310h407z" />
    <glyph glyph-name="uni0637" unicode="&#x637;" horiz-adv-x="867" 
d="M506 565c198 0 306 -106 306 -297l-1 -268h-786l25 128h98v492h1v191h127v-246h230zM683 128l1 161c0 102 -66 148 -167 149h-241v-310h407z" />
    <glyph glyph-name="uni0638" unicode="&#x638;" horiz-adv-x="867" 
d="M519 670c-43 0 -82 25 -82 74c0 44 36 73 82 73c44 0 80 -29 80 -73c0 -49 -38 -74 -80 -74zM506 565c198 0 306 -106 306 -297l-1 -268h-786l25 128h98v492h1v191h127v-246h230zM683 128l1 161c0 102 -66 148 -167 149h-241v-310h407z" />
    <glyph glyph-name="uni0639" unicode="&#x639;" horiz-adv-x="706" 
d="M656 128v-128h-339c-62 0 -92 -22 -118 -87l-58 -143l-116 44l65 161c29 73 64 116 116 137c-31 86 -45 152 -45 206c0 171 110 267 268 267c59 0 131 -18 207 -51l-42 -118c-59 27 -107 42 -156 42c-91 0 -156 -60 -156 -162c0 -52 20 -112 58 -168h316z" />
    <glyph glyph-name="uni063A" unicode="&#x63a;" horiz-adv-x="706" 
d="M432 690c-43 0 -82 25 -82 74c0 44 36 73 82 73c44 0 80 -29 80 -73c0 -49 -38 -74 -80 -74zM656 128v-128h-339c-62 0 -92 -22 -118 -87l-58 -143l-116 44l65 161c29 73 64 116 116 137c-31 86 -45 152 -45 206c0 171 110 267 268 267c59 0 131 -18 207 -51l-42 -118
c-59 27 -107 42 -156 42c-91 0 -156 -60 -156 -162c0 -52 20 -112 58 -168h316z" />
    <glyph glyph-name="uni0641" unicode="&#x641;" horiz-adv-x="1018" 
d="M755 670c-43 0 -82 25 -82 74c0 44 36 73 82 73c44 0 80 -29 80 -73c0 -49 -38 -74 -80 -74zM795 565h158v-565h-6h-169h-419c-211 0 -309 105 -309 298v183h128v-170c0 -130 80 -183 208 -183h124c-27 43 -42 94 -42 153v1c0 170 130 283 327 283zM768 128h58v310h-58
c-104 0 -179 -58 -179 -156v-1c0 -95 76 -153 179 -153z" />
    <glyph glyph-name="uni0641.ss01" horiz-adv-x="968" 
d="M731 670c-43 0 -82 25 -82 74c0 44 36 73 82 73c44 0 80 -29 80 -73c0 -49 -38 -74 -80 -74zM745 565h158v-565h-6h-169h-5h-6h-418c-117 0 -201 27 -274 77l54 102c64 -39 127 -51 204 -51h177c-27 43 -42 94 -42 153v1c0 170 130 283 327 283zM723 128h53v310h-58
c-104 0 -179 -58 -179 -156v-1c0 -95 76 -153 179 -153h5z" />
    <glyph glyph-name="uniFED2.ss01" horiz-adv-x="1000" 
d="M731 670c-43 0 -82 25 -82 74c0 44 36 73 82 73c44 0 80 -29 80 -73c0 -49 -38 -74 -80 -74zM903 128h117v-128h-123h-5h-164h-5h-6h-418c-117 0 -201 27 -274 77l54 102c64 -39 127 -51 204 -51h177c-27 43 -42 94 -42 153v1c0 170 130 283 327 283h158v-437zM723 128
h53v310h-58c-104 0 -179 -58 -179 -156v-1c0 -95 76 -153 179 -153h5z" />
    <glyph glyph-name="uni06A4" unicode="&#x6a4;" horiz-adv-x="1018" 
d="M754 812c-35 0 -68 21 -68 62c0 36 29 61 68 61s68 -25 68 -61c0 -41 -32 -62 -68 -62zM656 665c-40 0 -77 24 -77 71c0 42 34 70 77 70c44 0 78 -28 78 -70c0 -47 -37 -71 -78 -71zM774 736c0 42 33 70 77 70s77 -28 77 -70c0 -47 -36 -71 -77 -71s-77 24 -77 71z
M795 565h158v-565h-6h-169h-419c-211 0 -309 105 -309 298v183h128v-170c0 -130 80 -183 208 -183h124c-27 43 -42 94 -42 153v1c0 170 130 283 327 283zM768 128h58v310h-58c-104 0 -179 -58 -179 -156v-1c0 -95 76 -153 179 -153z" />
    <glyph glyph-name="uni06A4.ss01" horiz-adv-x="968" 
d="M730 812c-35 0 -68 21 -68 62c0 36 29 61 68 61s68 -25 68 -61c0 -41 -32 -62 -68 -62zM632 665c-40 0 -77 24 -77 71c0 42 34 70 77 70c44 0 78 -28 78 -70c0 -47 -37 -71 -78 -71zM750 736c0 42 33 70 77 70s77 -28 77 -70c0 -47 -36 -71 -77 -71s-77 24 -77 71z
M418 282c0 170 130 283 327 283h158v-565h-6h-169h-5h-6h-418c-117 0 -201 27 -274 77l54 102c64 -39 127 -51 204 -51h177c-27 43 -42 94 -42 153v1zM776 128v310h-58c-104 0 -179 -58 -179 -156v-1c0 -95 76 -153 179 -153h5h53z" />
    <glyph glyph-name="uniFB6B.ss01" horiz-adv-x="1051" 
d="M754 812c-35 0 -68 21 -68 62c0 36 29 61 68 61s68 -25 68 -61c0 -41 -32 -62 -68 -62zM656 665c-40 0 -77 24 -77 71c0 42 34 70 77 70c44 0 78 -28 78 -70c0 -47 -37 -71 -78 -71zM774 736c0 42 33 70 77 70s77 -28 77 -70c0 -47 -36 -71 -77 -71s-77 24 -77 71z
M953 128h118v-128h-124h-4h-165h-419c-211 0 -309 105 -309 298v183h128v-170c0 -130 80 -183 208 -183h124c-27 43 -42 94 -42 153v1c0 170 130 283 327 283h158v-437zM768 128h58v310h-58c-104 0 -179 -58 -179 -156v-1c0 -95 76 -153 179 -153z" />
    <glyph glyph-name="uni06A1" unicode="&#x6a1;" horiz-adv-x="1018" 
d="M795 565h158v-565h-6h-169h-419c-211 0 -309 105 -309 298v183h128v-170c0 -130 80 -183 208 -183h124c-27 43 -42 94 -42 153v1c0 170 130 283 327 283zM768 128h58v310h-58c-104 0 -179 -58 -179 -156v-1c0 -95 76 -153 179 -153z" />
    <glyph glyph-name="uni06A1.ss01" horiz-adv-x="968" 
d="M745 565h158v-565h-6h-169h-5h-6h-418c-117 0 -201 27 -274 77l54 102c64 -39 127 -51 204 -51h177c-27 43 -42 94 -42 153v1c0 170 130 283 327 283zM723 128h53v310h-58c-104 0 -179 -58 -179 -156v-1c0 -95 76 -153 179 -153h5z" />
    <glyph glyph-name="uni06A1.fina.ss01" horiz-adv-x="1001" 
d="M903 128h118v-128h-124h-4h-165h-5h-6h-418c-117 0 -201 27 -274 77l54 102c64 -39 127 -51 204 -51h177c-27 43 -42 94 -42 153v1c0 170 130 283 327 283h158v-437zM723 128h53v310h-58c-104 0 -179 -58 -179 -156v-1c0 -95 76 -153 179 -153h5z" />
    <glyph glyph-name="uni066F" unicode="&#x66f;" horiz-adv-x="867" 
d="M644 565h158v-785h-443c-208 0 -309 100 -309 298v212h128v-199c0 -133 84 -184 208 -184h80v1h209v113h-48c-184 0 -310 94 -310 260v1c0 170 130 283 327 283zM675 128v310h-58c-104 0 -179 -58 -179 -156v-1c0 -95 76 -153 179 -153h58z" />
    <glyph glyph-name="uni066F.ss01" horiz-adv-x="853" 
d="M630 565h158v-785h-489c-117 0 -201 27 -274 76l54 102c64 -38 127 -51 204 -51h223v1h155v113h-48c-184 0 -310 94 -310 260v1c0 170 130 283 327 283zM661 128v310h-58c-104 0 -179 -58 -179 -156v-1c0 -95 76 -153 179 -153h58z" />
    <glyph glyph-name="uni066F.fina.ss01" horiz-adv-x="886" 
d="M906 128v-128h-118v-220h-489c-117 0 -201 27 -274 76l54 102c64 -38 127 -51 204 -51h223v1h155v113h-48c-184 0 -310 94 -310 260v1c0 170 130 283 327 283h158v-437h118zM603 128h58v310h-58c-104 0 -179 -58 -179 -156v-1c0 -95 76 -153 179 -153z" />
    <glyph glyph-name="uni0642" unicode="&#x642;" horiz-adv-x="867" 
d="M516 665c-42 0 -80 25 -80 73c0 43 35 73 80 73s80 -30 80 -73c0 -48 -37 -73 -80 -73zM716 665c-42 0 -80 25 -80 73c0 43 35 73 80 73c46 0 80 -30 80 -73c0 -48 -37 -73 -80 -73zM644 565h158v-785h-443c-208 0 -309 100 -309 298v212h128v-199
c0 -133 84 -184 208 -184h80v1h209v113h-48c-184 0 -310 94 -310 260v1c0 170 130 283 327 283zM675 128v310h-58c-104 0 -179 -58 -179 -156v-1c0 -95 76 -153 179 -153h58z" />
    <glyph glyph-name="uni0642.ss01" horiz-adv-x="853" 
d="M489 665c-42 0 -80 25 -80 73c0 43 35 73 80 73s80 -30 80 -73c0 -48 -37 -73 -80 -73zM689 665c-42 0 -80 25 -80 73c0 43 35 73 80 73c46 0 80 -30 80 -73c0 -48 -37 -73 -80 -73zM630 565h158v-785h-489c-117 0 -201 27 -274 76l54 102c64 -38 127 -51 204 -51h223v1
h155v113h-48c-184 0 -310 94 -310 260v1c0 170 130 283 327 283zM661 128v310h-58c-104 0 -179 -58 -179 -156v-1c0 -95 76 -153 179 -153h58z" />
    <glyph glyph-name="uniFED6.ss01" horiz-adv-x="886" 
d="M489 665c-42 0 -80 25 -80 73c0 43 35 73 80 73s80 -30 80 -73c0 -48 -37 -73 -80 -73zM689 665c-42 0 -80 25 -80 73c0 43 35 73 80 73c46 0 80 -30 80 -73c0 -48 -37 -73 -80 -73zM906 128v-128h-118v-220h-489c-117 0 -201 27 -274 76l54 102c64 -38 127 -51 204 -51
h223v1h155v113h-48c-184 0 -310 94 -310 260v1c0 170 130 283 327 283h158v-437h118zM603 128h58v310h-58c-104 0 -179 -58 -179 -156v-1c0 -95 76 -153 179 -153z" />
    <glyph glyph-name="uni0643" unicode="&#x643;" horiz-adv-x="850" 
d="M641 811h127v-811h-409c-211 0 -309 105 -309 298v183h128v-170c0 -130 80 -183 208 -183h255v683zM534 573v-98h-222v123c0 70 44 115 114 115h72v-74h-64c-25 0 -40 -14 -40 -38v-28h140z" />
    <glyph glyph-name="uni0643.ss01" horiz-adv-x="871" 
d="M662 811h127v-811h-490c-117 0 -201 27 -274 77l54 102c64 -39 127 -51 204 -51h379v683zM511 460v-98h-222v123c0 70 44 115 114 115h72v-74h-64c-25 0 -40 -14 -40 -38v-28h140z" />
    <glyph glyph-name="uniFEDA.ss01" horiz-adv-x="887" 
d="M789 128h118v-128h-608c-117 0 -201 27 -274 77l54 102c64 -39 127 -51 204 -51h379v683h127v-683zM511 460v-98h-222v123c0 70 44 115 114 115h72v-74h-64c-25 0 -40 -14 -40 -38v-28h140z" />
    <glyph glyph-name="uni06A9" unicode="&#x6a9;" horiz-adv-x="940" 
d="M614 520c180 0 271 -88 271 -277v-243h-526c-211 0 -309 105 -309 298v183h128v-170c0 -130 80 -183 208 -183h370v136c0 87 -48 129 -127 129h-241c-21 28 -40 73 -42 127l152 292h155l-163 -292h124z" />
    <glyph glyph-name="uni06A9.ss01" horiz-adv-x="924" 
d="M597 520c180 0 272 -88 272 -277v-243h-570c-117 0 -201 27 -274 77l54 102c64 -39 127 -51 204 -51h457v136c0 87 -49 129 -128 129h-278c-20 28 -40 73 -41 127l151 291h156l-164 -291h161z" />
    <glyph glyph-name="uniFB8F.ss01" horiz-adv-x="967" 
d="M869 128h118v-128h-688c-117 0 -201 27 -274 77l54 102c64 -39 127 -51 204 -51h457v136c0 87 -49 129 -128 129h-278c-20 28 -40 73 -41 127l151 291h156l-164 -291h161c180 0 272 -88 272 -277v-115z" />
    <glyph glyph-name="uni06AF" unicode="&#x6af;" horiz-adv-x="940" 
d="M614 520c180 0 271 -88 271 -277v-243h-526c-211 0 -309 105 -309 298v183h128v-170c0 -130 80 -183 208 -183h370v136c0 87 -48 129 -127 129h-241c-21 28 -40 73 -42 127l152 292h155l-163 -292h124zM435 812l-164 -302l-127 -1l165 303h126z" />
    <glyph glyph-name="uni06AF.ss01" horiz-adv-x="924" 
d="M401 812l-164 -302l-127 -1l165 303h126zM597 520c180 0 272 -88 272 -277v-243h-570c-117 0 -201 27 -274 77l54 102c64 -39 127 -51 204 -51h457v136c0 87 -49 129 -128 129h-278c-20 28 -40 73 -41 127l151 291h156l-164 -291h161z" />
    <glyph glyph-name="uniFB93.ss01" horiz-adv-x="967" 
d="M401 812l-164 -302l-127 -1l165 303h126zM869 128h118v-128h-688c-117 0 -201 27 -274 77l54 102c64 -39 127 -51 204 -51h457v136c0 87 -49 129 -128 129h-278c-20 28 -40 73 -41 127l151 291h156l-164 -291h161c180 0 272 -88 272 -277v-115z" />
    <glyph glyph-name="uni06AA" unicode="&#x6aa;" horiz-adv-x="940" 
d="M614 520c180 0 271 -88 271 -277v-243h-526c-211 0 -309 105 -309 298v183h128v-170c0 -130 80 -183 208 -183h370v136c0 87 -48 129 -127 129h-241c-21 28 -40 73 -42 127l152 292h155l-163 -292h124z" />
    <glyph glyph-name="uni0644" unicode="&#x644;" horiz-adv-x="681" 
d="M472 811h127v-936h-240c-200 0 -309 105 -309 293v329h128v-313c0 -130 80 -181 201 -181h92v494h1v314z" />
    <glyph glyph-name="uni0644.ss01" horiz-adv-x="762" 
d="M553 811h127v-936h-396c-109 0 -187 24 -259 71l42 108c64 -37 128 -51 206 -51h279v494h1v314z" />
    <glyph glyph-name="uniFEDE.ss01" horiz-adv-x="778" 
d="M798 128v-128h-118v-125h-396c-109 0 -187 24 -259 71l42 108c64 -37 128 -51 206 -51h279v494h1v314h127v-683h118z" />
    <glyph glyph-name="uni0645" unicode="&#x645;" horiz-adv-x="897" 
d="M575 497c169 0 282 -123 282 -307v-1c0 -179 -113 -299 -282 -299h-1c-148 0 -252 90 -277 231c-81 -8 -119 -73 -119 -172v-169h-128v188c0 173 90 274 245 281c22 151 128 248 279 248h1zM730 192v1c0 106 -62 176 -155 176h-1c-93 0 -156 -70 -156 -176v-1
c0 -105 63 -174 156 -174h1c93 0 155 70 155 174z" />
    <glyph glyph-name="uni0645.ss01" horiz-adv-x="871" 
d="M549 497c169 0 282 -123 282 -307v-1c0 -179 -113 -299 -282 -299h-1c-81 0 -150 27 -199 76l-281 -197l-68 108l283 197c-12 35 -18 73 -18 115v1c0 184 113 307 283 307h1zM704 192v1c0 106 -62 176 -155 176h-1c-93 0 -156 -70 -156 -176v-1c0 -105 63 -174 156 -174
h1c93 0 155 70 155 174z" />
    <glyph glyph-name="uniFEE2.ss01" horiz-adv-x="897" 
d="M918 128v-128h-142c-49 -69 -129 -110 -227 -110h-1c-81 0 -150 27 -199 76l-281 -197l-68 108l283 197c-12 35 -18 73 -18 115v1c0 184 113 307 283 307h1c169 0 282 -123 282 -307v-1c0 -21 -2 -42 -5 -61h92zM704 192v1c0 106 -62 176 -155 176h-1
c-93 0 -156 -70 -156 -176v-1c0 -105 63 -174 156 -174h1c93 0 155 70 155 174z" />
    <glyph glyph-name="uni0646" unicode="&#x646;" horiz-adv-x="664" 
d="M328 602c-43 0 -82 25 -82 74c0 44 36 73 82 73c44 0 80 -29 80 -73c0 -49 -38 -74 -80 -74zM359 -125c-200 0 -309 105 -309 293v329h128v-313c0 -130 80 -181 201 -181h92v494h128v-622h-240z" />
    <glyph glyph-name="uni0646.ss01" horiz-adv-x="745" 
d="M552 497h128v-622h-396c-109 0 -187 24 -259 71l42 108c64 -37 128 -51 206 -51h279v494zM300 223c-43 0 -82 25 -82 74c0 44 36 73 82 73c44 0 80 -29 80 -73c0 -49 -38 -74 -80 -74z" />
    <glyph glyph-name="uniFEE6.ss01" horiz-adv-x="778" 
d="M798 128v-128h-118v-125h-396c-109 0 -187 24 -259 71l42 108c64 -37 128 -51 206 -51h279v494h128v-369h118zM300 223c-43 0 -82 25 -82 74c0 44 36 73 82 73c44 0 80 -29 80 -73c0 -49 -38 -74 -80 -74z" />
    <glyph glyph-name="uni06BA" unicode="&#x6ba;" horiz-adv-x="664" 
d="M359 -125c-200 0 -309 105 -309 293v329h128v-313c0 -130 80 -181 201 -181h92v494h128v-622h-240z" />
    <glyph glyph-name="uni06BA.ss01" horiz-adv-x="745" 
d="M552 497h128v-622h-396c-109 0 -187 24 -259 71l42 108c64 -37 128 -51 206 -51h279v494z" />
    <glyph glyph-name="uniFB9F.ss01" horiz-adv-x="778" 
d="M798 128v-128h-118v-125h-396c-109 0 -187 24 -259 71l42 108c64 -37 128 -51 206 -51h279v494h128v-369h118z" />
    <glyph glyph-name="uni0647" unicode="&#x647;" horiz-adv-x="600" 
d="M408 615h127v-615h-127h-48c-185 0 -310 112 -310 281v1c0 170 130 283 327 283h31v50zM408 128v310h-58c-104 0 -179 -58 -179 -156v-1c0 -95 76 -153 179 -153h58z" />
    <glyph glyph-name="uni06C0" unicode="&#x6c0;" horiz-adv-x="600" 
d="M407 769h140v-98h-222v123c0 70 44 115 114 115h72v-74h-64c-25 0 -40 -14 -40 -38v-28zM408 565v50h127v-615h-127h-48c-185 0 -310 112 -310 281v1c0 170 130 283 327 283h31zM408 128v310h-58c-104 0 -179 -58 -179 -156v-1c0 -95 76 -153 179 -153h58z" />
    <glyph glyph-name="uni06C1" unicode="&#x6c1;" horiz-adv-x="600" 
d="M408 615h127v-615h-127h-48c-185 0 -310 112 -310 281v1c0 170 130 283 327 283h31v50zM408 128v310h-58c-104 0 -179 -58 -179 -156v-1c0 -95 76 -153 179 -153h58z" />
    <glyph glyph-name="uni06C2" unicode="&#x6c2;" horiz-adv-x="600" 
d="M407 769h140v-98h-222v123c0 70 44 115 114 115h72v-74h-64c-25 0 -40 -14 -40 -38v-28zM408 565v50h127v-615h-127h-48c-185 0 -310 112 -310 281v1c0 170 130 283 327 283h31zM408 128v310h-58c-104 0 -179 -58 -179 -156v-1c0 -95 76 -153 179 -153h58z" />
    <glyph glyph-name="uni06BE" unicode="&#x6be;" horiz-adv-x="848" 
d="M416 678c228 0 407 -144 407 -412c0 -64 -11 -157 -31 -266h-767l25 128h116c-5 29 -8 63 -8 90c0 139 93 230 220 230c126 0 218 -90 218 -226c0 -28 -3 -63 -8 -94h96c7 52 10 88 10 129c0 195 -123 293 -298 293c-80 0 -150 -19 -226 -60l-45 115c97 48 200 73 291 73
zM285 204c0 -27 2 -53 7 -76h171c4 23 6 49 6 76c0 70 -37 116 -94 116c-54 0 -90 -46 -90 -116z" />
    <glyph glyph-name="uni0629" unicode="&#x629;" horiz-adv-x="600" 
d="M261 691c-42 0 -80 25 -80 73c0 43 35 73 80 73s80 -30 80 -73c0 -48 -37 -73 -80 -73zM461 691c-42 0 -80 25 -80 73c0 43 35 73 80 73c46 0 80 -30 80 -73c0 -48 -37 -73 -80 -73zM408 565v50h127v-615h-127h-48c-185 0 -310 112 -310 281v1c0 170 130 283 327 283h31z
M408 128v310h-58c-104 0 -179 -58 -179 -156v-1c0 -95 76 -153 179 -153h58z" />
    <glyph glyph-name="uni06C3" unicode="&#x6c3;" horiz-adv-x="600" 
d="M261 691c-42 0 -80 25 -80 73c0 43 35 73 80 73s80 -30 80 -73c0 -48 -37 -73 -80 -73zM461 691c-42 0 -80 25 -80 73c0 43 35 73 80 73c46 0 80 -30 80 -73c0 -48 -37 -73 -80 -73zM408 565v50h127v-615h-127h-48c-185 0 -310 112 -310 281v1c0 170 130 283 327 283h31z
M408 128v310h-58c-104 0 -179 -58 -179 -156v-1c0 -95 76 -153 179 -153h58z" />
    <glyph glyph-name="uni0648" unicode="&#x648;" horiz-adv-x="600" 
d="M377 565h158v-532c0 -193 -82 -253 -245 -253c-51 0 -97 6 -147 20l-26 135c58 -18 113 -27 168 -27c70 0 119 22 122 92h-47c-185 0 -310 112 -310 281v1c0 170 130 283 327 283zM407 279h1v159h-58c-104 0 -179 -58 -179 -156v-1c0 -95 76 -153 179 -153h57v151z" />
    <glyph glyph-name="uni0624" unicode="&#x624;" horiz-adv-x="600" 
d="M489 729v-98h-222v123c0 70 44 115 114 115h72v-74h-64c-25 0 -40 -14 -40 -38v-28h140zM377 565h158v-532c0 -193 -82 -253 -245 -253c-51 0 -97 6 -147 20l-26 135c58 -18 113 -27 168 -27c70 0 119 22 122 92h-47c-185 0 -310 112 -310 281v1c0 170 130 283 327 283z
M407 279h1v159h-58c-104 0 -179 -58 -179 -156v-1c0 -95 76 -153 179 -153h57v151z" />
    <glyph glyph-name="uni0649" unicode="&#x649;" horiz-adv-x="1049" 
d="M800 565h185v-565h-128v445h-80c-83 0 -123 -51 -122 -128v-442h-296c-208 0 -309 100 -309 298v212h128v-199c0 -133 84 -184 208 -184h141v292c-1 183 96 271 273 271z" />
    <glyph glyph-name="uni0649.ss01" horiz-adv-x="1031" 
d="M782 565h185v-565h-128v445h-80c-83 0 -123 -51 -122 -128v-442h-338c-117 0 -201 27 -274 77l54 102c64 -39 127 -51 204 -51h226v291c-1 183 96 271 273 271z" />
    <glyph glyph-name="uniFEF0.ss01" horiz-adv-x="1065" 
d="M967 128h118v-128h-246v445h-80c-83 0 -123 -51 -122 -128v-442h-338c-117 0 -201 27 -274 77l54 102c64 -39 127 -51 204 -51h226v291c-1 183 96 271 273 271h185v-437z" />
    <glyph glyph-name="uni064A" unicode="&#x64a;" horiz-adv-x="1049" 
d="M800 565h185v-565h-128v445h-80c-83 0 -123 -51 -122 -128v-442h-296c-208 0 -309 100 -309 298v212h128v-199c0 -133 84 -184 208 -184h141v292c-1 183 96 271 273 271zM339 -225c45 0 80 -30 80 -73c0 -48 -37 -73 -80 -73c-42 0 -80 25 -80 73c0 43 35 73 80 73z
M539 -225c46 0 80 -30 80 -73c0 -48 -37 -73 -80 -73c-42 0 -80 25 -80 73c0 43 35 73 80 73z" />
    <glyph glyph-name="uni064A.ss01" horiz-adv-x="1031" 
d="M782 565h185v-565h-128v445h-80c-83 0 -123 -51 -122 -128v-442h-338c-117 0 -201 27 -274 77l54 102c64 -39 127 -51 204 -51h226v291c-1 183 96 271 273 271zM325 361c-43 0 -81 25 -81 73c0 44 36 73 81 73c44 0 79 -29 79 -73c0 -48 -38 -73 -79 -73zM325 160
c-43 0 -81 25 -81 73c0 44 36 73 81 73c44 0 79 -29 79 -73c0 -48 -38 -73 -79 -73z" />
    <glyph glyph-name="uniFEF2.ss01" horiz-adv-x="1064" 
d="M967 128h118v-128h-246v445h-80c-83 0 -123 -51 -122 -128v-442h-338c-117 0 -201 27 -274 77l54 102c64 -39 127 -51 204 -51h226v291c-1 183 96 271 273 271h185v-437zM325 361c-43 0 -81 25 -81 73c0 44 36 73 81 73c44 0 79 -29 79 -73c0 -48 -38 -73 -79 -73z
M325 160c-43 0 -81 25 -81 73c0 44 36 73 81 73c44 0 79 -29 79 -73c0 -48 -38 -73 -79 -73z" />
    <glyph glyph-name="uni0626" unicode="&#x626;" horiz-adv-x="1049" 
d="M910 729v-98h-222v123c0 70 44 115 114 115h72v-74h-64c-25 0 -40 -14 -40 -38v-28h140zM800 565h185v-565h-128v445h-80c-83 0 -123 -51 -122 -128v-442h-296c-208 0 -309 100 -309 298v212h128v-199c0 -133 84 -184 208 -184h141v292c-1 183 96 271 273 271z" />
    <glyph glyph-name="uni0626.ss01" horiz-adv-x="1031" 
d="M897 729v-98h-222v123c0 70 44 115 114 115h72v-74h-64c-25 0 -40 -14 -40 -38v-28h140zM782 565h185v-565h-128v445h-80c-83 0 -123 -51 -122 -128v-442h-338c-117 0 -201 27 -274 77l54 102c64 -39 127 -51 204 -51h226v291c-1 183 96 271 273 271z" />
    <glyph glyph-name="uniFE8A.ss01" horiz-adv-x="1065" 
d="M897 729v-98h-222v123c0 70 44 115 114 115h72v-74h-64c-25 0 -40 -14 -40 -38v-28h140zM967 128h118v-128h-246v445h-80c-83 0 -123 -51 -122 -128v-442h-338c-117 0 -201 27 -274 77l54 102c64 -39 127 -51 204 -51h226v291c-1 183 96 271 273 271h185v-437z" />
    <glyph glyph-name="uni06CC" unicode="&#x6cc;" horiz-adv-x="1049" 
d="M800 565h185v-565h-128v445h-80c-83 0 -123 -51 -122 -128v-442h-296c-208 0 -309 100 -309 298v212h128v-199c0 -133 84 -184 208 -184h141v292c-1 183 96 271 273 271z" />
    <glyph glyph-name="uni06CC.ss01" horiz-adv-x="1031" 
d="M782 565h185v-565h-128v445h-80c-83 0 -123 -51 -122 -128v-442h-338c-117 0 -201 27 -274 77l54 102c64 -39 127 -51 204 -51h226v291c-1 183 96 271 273 271z" />
    <glyph glyph-name="uniFBFD.ss01" horiz-adv-x="1065" 
d="M967 128h118v-128h-246v445h-80c-83 0 -123 -51 -122 -128v-442h-338c-117 0 -201 27 -274 77l54 102c64 -39 127 -51 204 -51h226v291c-1 183 96 271 273 271h185v-437z" />
    <glyph glyph-name="uni06D2" unicode="&#x6d2;" horiz-adv-x="940" 
d="M50 0v197c0 185 88 277 272 277h42c45 0 67 17 67 63v44h127v-46c0 -147 -65 -189 -186 -189h-61c-88 0 -133 -44 -133 -137v-81h712v-128h-840z" />
    <glyph glyph-name="uni06D3" unicode="&#x6d3;" horiz-adv-x="940" 
d="M412 651v80c0 61 43 102 107 102h25v-70h-33c-14 0 -24 -10 -24 -25v-12h80v-75h-155zM50 0v197c0 185 88 277 272 277h42c45 0 67 17 67 63v44h127v-46c0 -147 -65 -189 -186 -189h-61c-88 0 -133 -44 -133 -137v-81h712v-128h-840z" />
    <glyph glyph-name="uni06D5" unicode="&#x6d5;" horiz-adv-x="600" 
d="M408 615h127v-615h-127h-48c-185 0 -310 112 -310 281v1c0 170 130 283 327 283h31v50zM408 128v310h-58c-104 0 -179 -58 -179 -156v-1c0 -95 76 -153 179 -153h58z" />
    <glyph glyph-name="uni0640" unicode="&#x640;" horiz-adv-x="160" 
d="M0 0v128h180v-128h-180z" />
    <glyph glyph-name="uni0640.alt" horiz-adv-x="108" 
d="M0 0v128h128v-128h-128z" />
    <glyph glyph-name="uni066E0649.fina" horiz-adv-x="1188" 
d="M1186 128h22v-128h-22c-177 0 -269 97 -269 282v163h-117c-98 0 -146 -59 -146 -151v-419h-295c-208 0 -309 100 -309 298v212h128v-199c0 -133 84 -184 208 -184h141v292c0 183 95 271 272 271h118v120h127v-411c0 -95 49 -146 142 -146z" />
    <glyph glyph-name="uni066E0649.fina.ss01" horiz-adv-x="1165" 
d="M1163 128h22v-128h-22c-177 0 -269 97 -269 282v163h-117c-98 0 -146 -59 -146 -151v-419h-332c-117 0 -201 27 -274 77l54 102c64 -39 127 -51 204 -51h221v291c0 183 95 271 272 271h118v120h127v-411c0 -95 49 -146 142 -146z" />
    <glyph glyph-name="uniFC6D.ss01" horiz-adv-x="1176" 
d="M1174 128h22v-128h-22c-177 0 -269 97 -269 282v87h-225v-494h-396c-109 0 -187 24 -259 71l42 108c64 -37 128 -51 206 -51h279v494h353v119h127v-342c0 -95 49 -146 142 -146zM316 223c-43 0 -82 25 -82 74c0 44 36 73 82 73c44 0 80 -29 80 -73c0 -49 -38 -74 -80 -74
zM914 -100c44 0 80 -29 80 -73c0 -49 -38 -74 -80 -74c-43 0 -82 25 -82 74c0 44 36 73 82 73z" />
    <glyph glyph-name="uniFC6E.ss01" horiz-adv-x="1165" 
d="M1163 128h22v-128h-22c-177 0 -269 97 -269 282v163h-117c-98 0 -146 -59 -146 -151v-419h-332c-117 0 -201 27 -274 77l54 102c64 -39 127 -51 204 -51h221v291c0 183 95 271 272 271h118v120h127v-411c0 -95 49 -146 142 -146zM872 -100c44 0 80 -29 80 -73
c0 -49 -38 -74 -80 -74c-43 0 -82 25 -82 74c0 44 36 73 82 73z" />
    <glyph glyph-name="uniFC6F.ss01" horiz-adv-x="1165" 
d="M1163 128h22v-128h-22c-177 0 -269 97 -269 282v163h-117c-98 0 -146 -59 -146 -151v-419h-332c-117 0 -201 27 -274 77l54 102c64 -39 127 -51 204 -51h221v291c0 183 95 271 272 271h118v120h127v-411c0 -95 49 -146 142 -146zM325 361c-43 0 -81 25 -81 73
c0 44 36 73 81 73c44 0 79 -29 79 -73c0 -48 -38 -73 -79 -73zM325 160c-43 0 -81 25 -81 73c0 44 36 73 81 73c44 0 79 -29 79 -73c0 -48 -38 -73 -79 -73zM872 -100c44 0 80 -29 80 -73c0 -49 -38 -74 -80 -74c-43 0 -82 25 -82 74c0 44 36 73 82 73z" />
    <glyph glyph-name="uni06280626.fina" horiz-adv-x="1188" 
d="M1186 128h22v-128h-22c-177 0 -269 97 -269 282v163h-117c-98 0 -146 -59 -146 -151v-419h-295c-208 0 -309 100 -309 298v212h128v-199c0 -133 84 -184 208 -184h141v292c0 183 95 271 272 271h118v120h127v-411c0 -95 49 -146 142 -146zM191 530v-75h-155v80
c0 61 43 102 107 102h25v-70h-33c-14 0 -24 -10 -24 -25v-12h80zM899 -100c44 0 80 -29 80 -73c0 -49 -38 -74 -80 -74c-43 0 -82 25 -82 74c0 44 36 73 82 73z" />
    <glyph glyph-name="uni06280626.fina.ss01" horiz-adv-x="1165" 
d="M1163 128h22v-128h-22c-177 0 -269 97 -269 282v163h-117c-98 0 -146 -59 -146 -151v-419h-332c-117 0 -201 27 -274 77l54 102c64 -39 127 -51 204 -51h221v291c0 183 95 271 272 271h118v120h127v-411c0 -95 49 -146 142 -146zM366 286v-75h-155v80
c0 61 43 102 107 102h25v-70h-33c-14 0 -24 -10 -24 -25v-12h80zM872 -100c44 0 80 -29 80 -73c0 -49 -38 -74 -80 -74c-43 0 -82 25 -82 74c0 44 36 73 82 73z" />
    <glyph glyph-name="uni067E0631.fina" horiz-adv-x="758" 
d="M756 128h22v-128h-22c-177 0 -269 97 -269 282v156h-206v-415c0 -189 -70 -243 -206 -243c-28 0 -56 3 -81 9l-13 111c33 -3 55 -5 81 -5c54 0 91 28 91 107v563h334v120h127v-411c0 -95 49 -146 142 -146zM475 -178c0 -46 -37 -71 -78 -71c-40 0 -77 25 -77 71
c0 42 34 70 77 70c44 0 78 -28 78 -70zM592 -108c44 0 77 -28 77 -70c0 -46 -36 -71 -77 -71s-77 25 -77 71c0 42 33 70 77 70zM495 -257c39 0 68 -25 68 -61c0 -41 -30 -62 -68 -62c-35 0 -68 21 -68 62c0 36 29 61 68 61z" />
    <glyph glyph-name="uni067E0632.fina" horiz-adv-x="758" 
d="M210 670c-43 0 -82 25 -82 74c0 44 36 73 82 73c44 0 80 -29 80 -73c0 -49 -38 -74 -80 -74zM756 128h22v-128h-22c-177 0 -269 97 -269 282v156h-206v-415c0 -189 -70 -243 -206 -243c-28 0 -56 3 -81 9l-13 111c33 -3 55 -5 81 -5c54 0 91 28 91 107v563h334v120h127
v-411c0 -95 49 -146 142 -146zM475 -178c0 -46 -37 -71 -78 -71c-40 0 -77 25 -77 71c0 42 34 70 77 70c44 0 78 -28 78 -70zM592 -108c44 0 77 -28 77 -70c0 -46 -36 -71 -77 -71s-77 25 -77 71c0 42 33 70 77 70zM495 -257c39 0 68 -25 68 -61c0 -41 -30 -62 -68 -62
c-35 0 -68 21 -68 62c0 36 29 61 68 61z" />
    <glyph glyph-name="uni067E0646.fina" horiz-adv-x="1095" 
d="M328 602c-43 0 -82 25 -82 74c0 44 36 73 82 73c44 0 80 -29 80 -73c0 -49 -38 -74 -80 -74zM1093 128h22v-128h-22c-177 0 -269 97 -269 282v87h-225v-494h-240c-200 0 -309 105 -309 293v329h128v-313c0 -130 80 -181 201 -181h92v494h353v119h127v-342
c0 -95 49 -146 142 -146zM813 -178c0 -46 -37 -71 -78 -71c-40 0 -77 25 -77 71c0 42 34 70 77 70c44 0 78 -28 78 -70zM930 -108c44 0 77 -28 77 -70c0 -46 -36 -71 -77 -71s-77 25 -77 71c0 42 33 70 77 70zM833 -257c39 0 68 -25 68 -61c0 -41 -30 -62 -68 -62
c-35 0 -68 21 -68 62c0 36 29 61 68 61z" />
    <glyph glyph-name="uni067E0646.fina.ss01" horiz-adv-x="1176" 
d="M1174 128h22v-128h-22c-177 0 -269 97 -269 282v87h-225v-494h-396c-109 0 -187 24 -259 71l42 108c64 -37 128 -51 206 -51h279v494h353v119h127v-342c0 -95 49 -146 142 -146zM316 223c-43 0 -82 25 -82 74c0 44 36 73 82 73c44 0 80 -29 80 -73c0 -49 -38 -74 -80 -74
zM894 -178c0 -46 -37 -71 -78 -71c-40 0 -77 25 -77 71c0 42 34 70 77 70c44 0 78 -28 78 -70zM1011 -108c44 0 77 -28 77 -70c0 -46 -36 -71 -77 -71s-77 25 -77 71c0 42 33 70 77 70zM914 -257c39 0 68 -25 68 -61c0 -41 -30 -62 -68 -62c-35 0 -68 21 -68 62
c0 36 29 61 68 61z" />
    <glyph glyph-name="uni067E0649.fina" horiz-adv-x="1188" 
d="M1186 128h22v-128h-22c-177 0 -269 97 -269 282v163h-117c-98 0 -146 -59 -146 -151v-419h-295c-208 0 -309 100 -309 298v212h128v-199c0 -133 84 -184 208 -184h141v292c0 183 95 271 272 271h118v120h127v-411c0 -95 49 -146 142 -146zM879 -178
c0 -46 -37 -71 -78 -71c-40 0 -77 25 -77 71c0 42 34 70 77 70c44 0 78 -28 78 -70zM996 -108c44 0 77 -28 77 -70c0 -46 -36 -71 -77 -71s-77 25 -77 71c0 42 33 70 77 70zM899 -257c39 0 68 -25 68 -61c0 -41 -30 -62 -68 -62c-35 0 -68 21 -68 62c0 36 29 61 68 61z" />
    <glyph glyph-name="uni067E0649.fina.ss01" horiz-adv-x="1165" 
d="M1163 128h22v-128h-22c-177 0 -269 97 -269 282v163h-117c-98 0 -146 -59 -146 -151v-419h-332c-117 0 -201 27 -274 77l54 102c64 -39 127 -51 204 -51h221v291c0 183 95 271 272 271h118v120h127v-411c0 -95 49 -146 142 -146zM852 -178c0 -46 -37 -71 -78 -71
c-40 0 -77 25 -77 71c0 42 34 70 77 70c44 0 78 -28 78 -70zM969 -108c44 0 77 -28 77 -70c0 -46 -36 -71 -77 -71s-77 25 -77 71c0 42 33 70 77 70zM872 -257c39 0 68 -25 68 -61c0 -41 -30 -62 -68 -62c-35 0 -68 21 -68 62c0 36 29 61 68 61z" />
    <glyph glyph-name="uni067E064A.fina" horiz-adv-x="1188" 
d="M1186 128h22v-128h-22c-177 0 -269 97 -269 282v163h-117c-98 0 -146 -59 -146 -151v-419h-295c-208 0 -309 100 -309 298v212h128v-199c0 -133 84 -184 208 -184h141v292c0 183 95 271 272 271h118v120h127v-411c0 -95 49 -146 142 -146zM879 -178
c0 -46 -37 -71 -78 -71c-40 0 -77 25 -77 71c0 42 34 70 77 70c44 0 78 -28 78 -70zM996 -108c44 0 77 -28 77 -70c0 -46 -36 -71 -77 -71s-77 25 -77 71c0 42 33 70 77 70zM339 -225c45 0 80 -30 80 -73c0 -48 -37 -73 -80 -73c-42 0 -80 25 -80 73c0 43 35 73 80 73z
M539 -225c46 0 80 -30 80 -73c0 -48 -37 -73 -80 -73c-42 0 -80 25 -80 73c0 43 35 73 80 73zM899 -257c39 0 68 -25 68 -61c0 -41 -30 -62 -68 -62c-35 0 -68 21 -68 62c0 36 29 61 68 61z" />
    <glyph glyph-name="uni067E064A.fina.ss01" horiz-adv-x="1165" 
d="M1163 128h22v-128h-22c-177 0 -269 97 -269 282v163h-117c-98 0 -146 -59 -146 -151v-419h-332c-117 0 -201 27 -274 77l54 102c64 -39 127 -51 204 -51h221v291c0 183 95 271 272 271h118v120h127v-411c0 -95 49 -146 142 -146zM325 361c-43 0 -81 25 -81 73
c0 44 36 73 81 73c44 0 79 -29 79 -73c0 -48 -38 -73 -79 -73zM325 160c-43 0 -81 25 -81 73c0 44 36 73 81 73c44 0 79 -29 79 -73c0 -48 -38 -73 -79 -73zM852 -178c0 -46 -37 -71 -78 -71c-40 0 -77 25 -77 71c0 42 34 70 77 70c44 0 78 -28 78 -70zM969 -108
c44 0 77 -28 77 -70c0 -46 -36 -71 -77 -71s-77 25 -77 71c0 42 33 70 77 70zM872 -257c39 0 68 -25 68 -61c0 -41 -30 -62 -68 -62c-35 0 -68 21 -68 62c0 36 29 61 68 61z" />
    <glyph glyph-name="uni067E0626.fina" horiz-adv-x="1188" 
d="M1186 128h22v-128h-22c-177 0 -269 97 -269 282v163h-117c-98 0 -146 -59 -146 -151v-419h-295c-208 0 -309 100 -309 298v212h128v-199c0 -133 84 -184 208 -184h141v292c0 183 95 271 272 271h118v120h127v-411c0 -95 49 -146 142 -146zM191 530v-75h-155v80
c0 61 43 102 107 102h25v-70h-33c-14 0 -24 -10 -24 -25v-12h80zM879 -178c0 -46 -37 -71 -78 -71c-40 0 -77 25 -77 71c0 42 34 70 77 70c44 0 78 -28 78 -70zM996 -108c44 0 77 -28 77 -70c0 -46 -36 -71 -77 -71s-77 25 -77 71c0 42 33 70 77 70zM899 -257
c39 0 68 -25 68 -61c0 -41 -30 -62 -68 -62c-35 0 -68 21 -68 62c0 36 29 61 68 61z" />
    <glyph glyph-name="uni067E0626.fina.ss01" horiz-adv-x="1165" 
d="M1163 128h22v-128h-22c-177 0 -269 97 -269 282v163h-117c-98 0 -146 -59 -146 -151v-419h-332c-117 0 -201 27 -274 77l54 102c64 -39 127 -51 204 -51h221v291c0 183 95 271 272 271h118v120h127v-411c0 -95 49 -146 142 -146zM366 286v-75h-155v80
c0 61 43 102 107 102h25v-70h-33c-14 0 -24 -10 -24 -25v-12h80zM852 -178c0 -46 -37 -71 -78 -71c-40 0 -77 25 -77 71c0 42 34 70 77 70c44 0 78 -28 78 -70zM969 -108c44 0 77 -28 77 -70c0 -46 -36 -71 -77 -71s-77 25 -77 71c0 42 33 70 77 70zM872 -257
c39 0 68 -25 68 -61c0 -41 -30 -62 -68 -62c-35 0 -68 21 -68 62c0 36 29 61 68 61z" />
    <glyph glyph-name="uniFC73.ss01" horiz-adv-x="1176" 
d="M869 716c-42 0 -80 25 -80 73c0 43 35 73 80 73s80 -30 80 -73c0 -48 -37 -73 -80 -73zM1069 716c-42 0 -80 25 -80 73c0 43 35 73 80 73c46 0 80 -30 80 -73c0 -48 -37 -73 -80 -73zM1174 128h22v-128h-22c-177 0 -269 97 -269 282v87h-225v-494h-396
c-109 0 -187 24 -259 71l42 108c64 -37 128 -51 206 -51h279v494h353v119h127v-342c0 -95 49 -146 142 -146zM316 223c-43 0 -82 25 -82 74c0 44 36 73 82 73c44 0 80 -29 80 -73c0 -49 -38 -74 -80 -74z" />
    </font>
</defs>
</svg>
