<?xml version="1.0" standalone="no"?>
<!DOCTYPE svg PUBLIC "-//W3C//DTD SVG 1.1//EN" "http://www.w3.org/Graphics/SVG/1.1/DTD/svg11.dtd" >
<svg xmlns="http://www.w3.org/2000/svg" xmlns:xlink="http://www.w3.org/1999/xlink" version="1.1">
<metadata>
Created by FontForge 20170924 at Thu Sep 10 15:49:34 2009
 By www-data
(c)2008-09 Paul Barnes and Christian Schwartz, under exclusive license to Schwartzco Inc./Commercial Type. All rights reserved.
</metadata>
<defs>
<font id="GuardianEgyp-Medium" horiz-adv-x="492" >
  <font-face 
    font-family="Guardian Egyp Medium"
    font-weight="500"
    font-stretch="normal"
    units-per-em="1000"
    panose-1="2 6 6 3 5 5 3 6 8 3"
    ascent="790"
    descent="-210"
    x-height="521"
    cap-height="693"
    bbox="-174 -216 1233 1064"
    underline-thickness="50"
    underline-position="-100"
    stemh="73"
    stemv="138"
    unicode-range="U+0020-FB04"
  />
<missing-glyph horiz-adv-x="496" 
 />
    <glyph glyph-name="f_b" unicode="fb" horiz-adv-x="895" 
d="M515 741v-263h6c37 28 81 54 152 54c96 0 197 -53 197 -251c0 -201 -111 -293 -275 -293c-88 0 -160 20 -205 41v622c-28 8 -50 14 -83 14c-63 0 -95 -21 -95 -98v-46h109v-78h-109v-373l78 -15v-55h-272v55l68 16v372h-67v53l67 24v62c0 123 93 166 192 166
c56 0 107 -16 142 -29l82 29zM604 62c80 0 134 45 134 199c0 132 -46 177 -126 177c-41 0 -76 -12 -97 -21v-329c19 -12 40 -26 89 -26z" />
    <glyph glyph-name="f_f" unicode="ff" horiz-adv-x="635" 
d="M18 0v55l68 16v372h-67v53l67 24v54c0 119 79 164 165 164c46 0 77 -11 95 -19v-69c-13 3 -27 5 -52 5c-50 0 -82 -22 -82 -96v-38h178v53c0 129 84 174 179 174c54 0 87 -11 106 -21v-69c-18 4 -38 7 -67 7c-59 0 -92 -21 -92 -101v-43h115v-78h-115v-372l81 -16v-55
h-267v55l60 15v373h-178v-373l59 -15v-55h-253z" />
    <glyph glyph-name="f_f_b" unicode="ffb" horiz-adv-x="1199" 
d="M18 0v55l68 16v372h-67v53l67 24v54c0 119 79 164 165 164c46 0 77 -11 95 -19v-69c-13 3 -27 5 -52 5c-50 0 -82 -22 -82 -96v-38h178v61c0 123 93 166 192 166c56 0 107 -16 142 -29l82 29l13 -7v-263h6c37 28 81 54 152 54c96 0 197 -53 197 -251
c0 -201 -111 -293 -275 -293c-88 0 -160 20 -205 41v622c-28 8 -50 14 -83 14c-63 0 -95 -21 -95 -98v-46h109v-78h-109v-373l78 -15v-55h-264v55l60 15v373h-178v-373l59 -15v-55h-253zM908 62c80 0 134 45 134 199c0 132 -46 177 -126 177c-41 0 -76 -12 -97 -21v-329
c19 -12 40 -26 89 -26z" />
    <glyph glyph-name="f_f_h" unicode="ffh" horiz-adv-x="1212" 
d="M18 0v55l68 16v372h-67v53l67 24v54c0 119 79 164 165 164c46 0 77 -11 95 -19v-69c-13 3 -27 5 -52 5c-50 0 -82 -22 -82 -96v-38h178v61c0 123 93 166 192 166c56 0 107 -16 142 -29l83 29l13 -7v-265h6c49 32 101 55 168 55c90 0 142 -36 142 -135v-325l67 -16v-55
h-255v55l61 15v287c0 60 -30 79 -90 79c-36 0 -67 -10 -99 -20v-346l62 -15v-55h-248v55l60 15v581c-28 8 -50 14 -83 14c-63 0 -95 -21 -95 -98v-46h109v-78h-109v-373l59 -15v-55h-245v55l60 15v373h-178v-373l59 -15v-55h-253z" />
    <glyph glyph-name="f_f_i" unicode="ffi" horiz-adv-x="900" 
d="M18 0v55l68 16v372h-67v53l67 24v54c0 119 79 164 165 164c46 0 77 -11 95 -19v-69c-13 3 -27 5 -52 5c-50 0 -82 -22 -82 -96v-38h178v68c0 113 76 159 163 159c42 0 70 -10 85 -18v-69c-11 2 -24 4 -44 4c-49 0 -78 -22 -78 -89v-55h291l13 -7v-443l67 -16v-55h-253v55
l60 15v373h-178v-373l59 -15v-55h-245v55l60 15v373h-178v-373l59 -15v-55h-253zM755 595c-39 0 -72 29 -72 68c0 40 33 69 72 69c40 0 71 -29 71 -69c0 -39 -31 -68 -71 -68z" />
    <glyph glyph-name="f_f_j" unicode="ffj" horiz-adv-x="885" 
d="M18 0v55l68 16v372h-67v53l67 24v54c0 119 79 164 165 164c46 0 77 -11 95 -19v-69c-13 3 -27 5 -52 5c-50 0 -82 -22 -82 -96v-38h178v68c0 113 76 159 163 159c42 0 70 -10 85 -18v-69c-11 2 -24 4 -44 4c-49 0 -78 -22 -78 -89v-55h291l13 -7v-551
c0 -103 -55 -160 -172 -160c-31 0 -58 6 -82 15v66c14 -2 32 -3 45 -3c48 0 83 18 83 87v475h-178v-372l81 -16v-55h-267v55l60 15v373h-178v-373l59 -15v-55h-253zM755 595c-39 0 -72 29 -72 68c0 40 33 69 72 69c40 0 71 -29 71 -69c0 -39 -31 -68 -71 -68z" />
    <glyph glyph-name="f_f_k" unicode="ffk" horiz-adv-x="1169" 
d="M18 0v55l68 16v372h-67v53l67 24v54c0 119 79 164 165 164c46 0 77 -11 95 -19v-69c-13 3 -27 5 -52 5c-50 0 -82 -22 -82 -96v-38h178v61c0 123 93 166 192 166c56 0 107 -16 142 -29l83 29l13 -7v-672l66 -14v-55h-252v55l60 15v581c-28 8 -50 14 -83 14
c-63 0 -95 -21 -95 -98v-46h109v-78h-109v-373l59 -15v-55h-245v55l60 15v373h-178v-373l59 -15v-55h-253zM1016 0l-167 240v34l138 176l-59 14v57h221v-57l-68 -15l-128 -153l157 -225l56 -16v-55h-150z" />
    <glyph glyph-name="f_f_l" unicode="ffl" horiz-adv-x="901" 
d="M18 0v55l68 16v372h-67v53l67 24v54c0 119 79 164 165 164c46 0 77 -11 95 -19v-69c-13 3 -27 5 -52 5c-50 0 -82 -22 -82 -96v-38h178v61c0 123 93 166 192 166c56 0 107 -16 142 -29l83 29l13 -7v-671l68 -15v-55h-254v55l60 15v581c-28 8 -50 14 -83 14
c-63 0 -95 -21 -95 -98v-46h109v-78h-109v-373l59 -15v-55h-245v55l60 15v373h-178v-373l59 -15v-55h-253z" />
    <glyph glyph-name="f_h" unicode="fh" horiz-adv-x="908" 
d="M18 0v55l68 16v372h-67v53l67 24v62c0 123 93 166 192 166c56 0 107 -16 142 -29l83 29l13 -7v-265h6c49 32 101 55 168 55c90 0 142 -36 142 -135v-325l67 -16v-55h-255v55l61 15v287c0 60 -30 79 -90 79c-36 0 -67 -10 -99 -20v-346l62 -15v-55h-248v55l60 15v581
c-28 8 -50 14 -83 14c-63 0 -95 -21 -95 -98v-46h109v-78h-109v-373l59 -15v-55h-253z" />
    <glyph glyph-name="f_i" unicode="fi" horiz-adv-x="596" 
d="M18 0v55l68 16v372h-67v53l67 24v69c0 113 76 159 163 159c42 0 70 -10 85 -18v-69c-11 2 -24 4 -44 4c-49 0 -78 -22 -78 -89v-55h291l13 -7v-443l67 -16v-55h-253v55l60 15v373h-178v-373l59 -15v-55h-253zM451 595c-39 0 -72 29 -72 68c0 40 33 69 72 69
c40 0 71 -29 71 -69c0 -39 -31 -68 -71 -68z" />
    <glyph glyph-name="f_j" unicode="fj" horiz-adv-x="581" 
d="M344 -197c-31 0 -58 6 -82 15v66c14 -2 32 -3 45 -3c48 0 83 18 83 87v475h-178v-372l81 -16v-55h-275v55l68 16v372h-67v53l67 24v69c0 113 76 159 163 159c42 0 70 -10 85 -18v-69c-11 2 -24 4 -44 4c-49 0 -78 -22 -78 -89v-55h291l13 -7v-551
c0 -103 -55 -160 -172 -160zM451 595c-39 0 -72 29 -72 68c0 40 33 69 72 69c40 0 71 -29 71 -69c0 -39 -31 -68 -71 -68z" />
    <glyph glyph-name="f_k" unicode="fk" horiz-adv-x="865" 
d="M18 0v55l68 16v372h-67v53l67 24v62c0 123 93 166 192 166c56 0 107 -16 142 -29l83 29l13 -7v-672l66 -14v-55h-252v55l60 15v581c-28 8 -50 14 -83 14c-63 0 -95 -21 -95 -98v-46h109v-78h-109v-373l59 -15v-55h-253zM712 0l-167 240v34l138 176l-59 14v57h221v-57
l-68 -15l-128 -153l157 -225l56 -16v-55h-150z" />
    <glyph glyph-name="f_l" unicode="fl" horiz-adv-x="597" 
d="M330 0v55l60 15v581c-28 8 -50 14 -83 14c-63 0 -95 -21 -95 -98v-46h109v-78h-109v-373l59 -15v-55h-253v55l68 16v372h-67v53l67 24v62c0 123 93 166 192 166c56 0 107 -16 142 -29l83 29l13 -7v-671l68 -15v-55h-254z" />
    <glyph glyph-name=".notdef" horiz-adv-x="496" 
 />
    <glyph glyph-name="Eth" unicode="&#xd0;" horiz-adv-x="690" 
d="M27 310v82h73v221l-80 18v62h299c236 0 346 -110 346 -331c0 -240 -117 -362 -338 -362h-308v62l81 18v230h-73zM239 78h84c130 0 196 61 196 269c0 235 -79 268 -216 268h-64v-223h155v-82h-155v-232z" />
    <glyph glyph-name="eth" unicode="&#xf0;" horiz-adv-x="556" 
d="M444 680l-83 -37c103 -80 170 -189 170 -348c0 -205 -109 -308 -253 -308c-160 0 -256 107 -256 267c0 169 107 266 227 266c45 0 74 -11 98 -26h6c-25 38 -56 72 -94 103l-127 -56l-23 50l100 44c-27 19 -57 36 -89 55l46 60c51 -20 99 -43 143 -70l113 50zM279 62
c65 0 120 37 120 204c0 65 -7 111 -20 151c-23 17 -56 31 -100 31c-74 0 -125 -43 -125 -187c0 -153 58 -199 125 -199z" />
    <glyph glyph-name="Lslash" unicode="&#x141;" horiz-adv-x="573" 
d="M24 216v83l76 29v285l-81 18v62h306v-62l-87 -17v-235l181 72v-83l-181 -72v-219h202l49 157h71l-13 -234h-528v62l81 18v165z" />
    <glyph glyph-name="lslash" unicode="&#x142;" horiz-adv-x="290" 
d="M8 271v80l75 43v255l-75 16v59l188 23l13 -7v-274l79 45v-80l-79 -45v-315l68 -16v-55h-263v55l69 16v243z" />
    <glyph glyph-name="Scaron" unicode="&#x160;" horiz-adv-x="537" 
d="M407 879l23 -38l-120 -106h-61l-119 106l23 38l127 -54zM253 -12c-81 0 -157 14 -207 34l-8 169h76l30 -96c31 -16 63 -26 113 -26c82 0 123 46 123 103c0 63 -45 89 -120 119l-67 28c-89 34 -146 83 -146 191c0 110 73 196 239 196c86 0 142 -13 181 -26l8 -157h-75
l-24 81c-18 9 -46 22 -97 22c-63 0 -111 -29 -111 -87c0 -52 34 -79 102 -105l68 -28c101 -39 172 -80 172 -201s-80 -217 -257 -217z" />
    <glyph glyph-name="scaron" unicode="&#x161;" horiz-adv-x="443" 
d="M195 578l-116 126l26 37l121 -71l120 71l27 -37l-117 -126h-61zM201 -13c-57 0 -121 12 -169 30l-9 141h73l24 -78c17 -9 48 -20 88 -20c56 0 95 22 95 67c0 44 -23 58 -85 77l-56 16c-87 25 -135 68 -135 151c0 89 66 160 205 160c60 0 117 -10 155 -23v-133h-70l-19 69
c-16 8 -38 15 -74 15c-49 0 -87 -16 -87 -61c0 -38 23 -55 89 -74l59 -17c98 -28 135 -75 135 -150c0 -97 -69 -170 -219 -170z" />
    <glyph glyph-name="Yacute" unicode="&#xdd;" horiz-adv-x="633" 
d="M172 0v62l82 18v216l-192 317l-58 18v62h268v-62l-63 -17l138 -239h4l128 239l-66 17v62h216v-62l-57 -18l-179 -316v-217l80 -18v-62h-301zM471 787l-219 -61l-20 52l198 105z" />
    <glyph glyph-name="yacute" unicode="&#xfd;" horiz-adv-x="555" 
d="M141 -201c-30 0 -67 9 -85 18v76c22 -5 35 -8 53 -8c52 0 81 18 103 68l24 59l-183 438l-52 14v57h248v-57l-61 -13l114 -298h4l101 297l-59 14v57h205v-57l-51 -14l-196 -519c-33 -88 -75 -132 -165 -132zM215 571l-25 50l187 125l51 -93z" />
    <glyph glyph-name="Thorn" unicode="&#xde;" horiz-adv-x="598" 
d="M19 0v62l81 18v533l-81 18v62h296v-62l-77 -18v-65h83c192 0 257 -76 257 -187c0 -126 -97 -188 -223 -188c-32 0 -65 5 -73 6v62c3 0 20 -2 41 -2c75 0 114 40 114 117c0 82 -34 113 -115 113h-84v-389l96 -18v-62h-315z" />
    <glyph glyph-name="thorn" unicode="&#xfe;" horiz-adv-x="572" 
d="M-2 -199v54l68 14v779l-69 16v60l181 23l14 -6v-263h5c37 28 82 54 153 54c96 0 196 -53 196 -251c0 -201 -110 -293 -266 -293c-40 0 -63 2 -88 7v-125l80 -15v-54h-274zM281 62c80 0 133 45 133 199c0 132 -45 177 -125 177c-41 0 -77 -12 -97 -21v-329
c18 -12 39 -26 89 -26z" />
    <glyph glyph-name="Zcaron" unicode="&#x17d;" horiz-adv-x="556" 
d="M413 879l23 -38l-120 -106h-61l-119 106l23 38l127 -54zM14 0v73l364 537v4h-230l-43 -124h-75l11 203h499v-73l-365 -537v-4h251l45 131h73l-10 -210h-520z" />
    <glyph glyph-name="zcaron" unicode="&#x17e;" horiz-adv-x="485" 
d="M216 578l-116 126l26 37l121 -71l120 71l27 -37l-117 -126h-61zM24 0v66l282 381v4h-175l-29 -100h-64l9 170h404v-66l-278 -380v-4h182l35 111h66l-13 -182h-419z" />
    <glyph glyph-name="onehalf" unicode="&#xbd;" horiz-adv-x="859" 
d="M119 -40l483 753h83l-483 -753h-83zM43 282v47l60 10v268l-65 -5v46l124 55h45v-364l61 -10v-47h-225zM524 0v55l100 95c47 45 83 86 83 133c0 44 -26 68 -78 68c-32 0 -63 -8 -89 -17v55c32 18 77 35 131 35c90 0 144 -45 144 -124c0 -67 -48 -119 -129 -180l-62 -48v-1
h127l25 47h50l-9 -118h-293z" />
    <glyph glyph-name="onequarter" unicode="&#xbc;" horiz-adv-x="831" 
d="M43 282v47l60 10v268l-65 -5v46l124 55h45v-364l61 -10v-47h-225zM130 -40l483 753h83l-483 -753h-83zM592 0v47l50 10v63h-185v50l200 247h84v-241h56v-56h-56v-63l51 -10v-47h-200zM530 176h112v140h-3l-109 -138v-2z" />
    <glyph glyph-name="threequarters" unicode="&#xbe;" horiz-adv-x="851" 
d="M158 275c-58 0 -98 14 -124 28v52c25 -8 58 -15 94 -15c56 0 88 21 88 65c0 48 -27 64 -82 64h-36v56h31c51 0 77 20 77 58s-23 59 -72 59c-35 0 -59 -4 -83 -12v51c27 14 71 25 117 25c87 0 138 -37 138 -104c0 -52 -35 -84 -83 -98v-3c54 -8 99 -39 99 -104
c0 -75 -60 -122 -164 -122zM150 -42l483 753h83l-483 -753h-83zM612 -2v47l50 10v63h-185v50l200 247h84v-241h56v-56h-56v-63l51 -10v-47h-200zM550 174h112v140h-3l-109 -138v-2z" />
    <glyph glyph-name="brokenbar" unicode="&#xa6;" horiz-adv-x="228" 
d="M72 -120v399h83v-399h-83zM72 371v362h83v-362h-83z" />
    <glyph glyph-name="minus" unicode="&#x2212;" horiz-adv-x="531" 
d="M53 299v83h425v-83h-425z" />
    <glyph glyph-name="multiply" unicode="&#xd7;" horiz-adv-x="531" 
d="M411 539l57 -57l-145 -146l146 -146l-58 -57l-145 146l-145 -146l-57 57l145 146l-145 147l57 57l145 -146z" />
    <glyph glyph-name="space" unicode=" " horiz-adv-x="184" 
 />
    <glyph glyph-name="exclam" unicode="!" horiz-adv-x="259" 
d="M129 -13c-41 0 -71 32 -71 70c0 37 30 69 71 69s71 -32 71 -69c0 -38 -30 -70 -71 -70zM87 200l-28 493h139l-30 -493h-81z" />
    <glyph glyph-name="quotedbl" unicode="&#x22;" horiz-adv-x="404" 
d="M73 479l-23 214h129l-24 -214h-82zM248 479l-23 214h129l-24 -214h-82z" />
    <glyph glyph-name="numbersign" unicode="#" horiz-adv-x="517" 
d="M61 403v109h96l28 181h75l-29 -181h107l29 181h74l-28 -181h78v-109h-96l-16 -102h79v-109h-96l-31 -192h-74l30 192h-107l-30 -192h-75l31 192h-78v109h95l17 102h-79zM214 403l-17 -102h107l17 102h-107z" />
    <glyph glyph-name="dollar" unicode="$" horiz-adv-x="530" 
d="M176 -117l12 107c-59 5 -110 16 -149 32l-8 163h74l31 -95c17 -9 37 -16 61 -20l27 238l-37 14c-92 31 -150 83 -150 190c0 108 73 192 232 194l7 59h70l-7 -62c55 -6 94 -19 120 -28l8 -144h-72l-24 80c-10 3 -24 8 -41 11l-24 -212l25 -9c98 -34 170 -79 170 -198
c0 -116 -75 -210 -243 -215l-12 -105h-70zM382 172c0 55 -29 83 -91 110l-24 -216c78 5 115 50 115 106zM150 539c0 -51 27 -78 88 -103l22 193c-63 -2 -110 -34 -110 -90z" />
    <glyph glyph-name="percent" unicode="%" horiz-adv-x="860" 
d="M200 375c51 0 68 43 68 132c0 90 -16 139 -67 139c-52 0 -69 -47 -69 -135c0 -87 17 -136 68 -136zM200 316c-95 0 -176 63 -176 191c0 133 85 198 177 198c90 0 176 -63 176 -193c0 -131 -83 -196 -177 -196zM146 -40l477 753h83l-477 -753h-83zM659 47
c51 0 68 43 68 132s-16 139 -67 139c-52 0 -69 -47 -69 -135c0 -87 17 -136 68 -136zM659 -12c-95 0 -176 63 -176 191c0 133 85 198 177 198c89 0 176 -63 176 -193c0 -131 -83 -196 -177 -196z" />
    <glyph glyph-name="ampersand" unicode="&#x26;" horiz-adv-x="707" 
d="M260 -12c-146 0 -240 73 -240 192c0 95 63 151 158 201c-37 49 -57 93 -57 146c0 107 83 178 198 178c101 0 174 -55 174 -145c0 -88 -70 -133 -158 -178l160 -185c20 34 34 71 43 108l-67 18v59h217v-59l-62 -18c-15 -56 -42 -114 -81 -165l51 -59l80 -19v-62h-175
l-45 52c-55 -39 -121 -64 -196 -64zM291 69c46 0 86 13 120 36l-190 223c-45 -36 -65 -75 -65 -131c0 -73 49 -128 135 -128zM243 540c0 -45 21 -76 51 -111c63 36 87 69 87 127c0 50 -26 76 -64 76c-45 0 -74 -35 -74 -92z" />
    <glyph glyph-name="quotesingle" unicode="'" horiz-adv-x="229" 
d="M73 479l-23 214h129l-24 -214h-82z" />
    <glyph glyph-name="parenleft" unicode="(" horiz-adv-x="330" 
d="M271 -145c-113 89 -237 218 -237 447c0 209 125 358 237 447l44 -41c-85 -97 -154 -226 -154 -387c0 -206 67 -325 154 -425z" />
    <glyph glyph-name="parenright" unicode=")" horiz-adv-x="330" 
d="M59 -145l-45 41c86 97 155 226 155 388c0 205 -67 324 -155 424l45 41c113 -89 237 -218 237 -447c0 -209 -125 -358 -237 -447z" />
    <glyph glyph-name="asterisk" unicode="*" horiz-adv-x="375" 
d="M140 378l25 118l-92 -78l-44 77l113 40l-113 40l44 77l92 -78l-25 119h95l-26 -119l93 78l44 -77l-113 -40l113 -40l-44 -77l-93 78l26 -118h-95z" />
    <glyph glyph-name="plus" unicode="+" horiz-adv-x="531" 
d="M53 299v83h169v176h87v-176h169v-83h-169v-176h-87v176h-169z" />
    <glyph glyph-name="comma" unicode="," horiz-adv-x="235" 
d="M44 -95c9 69 15 133 15 219h130c-9 -82 -28 -153 -61 -219h-84z" />
    <glyph glyph-name="hyphen" unicode="-" horiz-adv-x="312" 
d="M38 236v100h236v-100h-236z" />
    <glyph glyph-name="period" unicode="." horiz-adv-x="235" 
d="M116 -14c-43 0 -76 33 -76 74c0 42 33 75 76 75c44 0 77 -33 77 -75c0 -41 -33 -74 -77 -74z" />
    <glyph glyph-name="slash" unicode="/" horiz-adv-x="353" 
d="M1 -120l240 853h89l-240 -853h-89z" />
    <glyph glyph-name="zero" unicode="0" horiz-adv-x="640" 
d="M320 66c99 0 145 85 145 275c0 194 -43 285 -144 285c-100 0 -147 -91 -147 -277c0 -193 44 -283 146 -283zM319 -13c-164 0 -287 110 -287 355c0 253 133 363 290 363c158 0 285 -108 285 -356c0 -250 -129 -362 -288 -362z" />
    <glyph glyph-name="one" unicode="1" horiz-adv-x="396" 
d="M37 0v62l98 17v489l-107 -9v62l193 80h53v-622l97 -17v-62h-334z" />
    <glyph glyph-name="two" unicode="2" horiz-adv-x="524" 
d="M11 0v72l167 165c87 87 147 158 147 246c0 77 -42 121 -140 121c-54 0 -103 -13 -147 -29v73c49 29 125 57 203 57c139 0 226 -70 226 -204c0 -107 -80 -200 -214 -310l-106 -88v-2h231l41 86h67l-13 -187h-462z" />
    <glyph glyph-name="three" unicode="3" horiz-adv-x="507" 
d="M216 -11c-88 0 -152 22 -196 47v71c45 -16 98 -27 157 -27c95 0 153 39 153 119c0 90 -47 121 -146 121h-52v80h43c89 0 136 35 136 106s-38 108 -127 108c-56 0 -94 -8 -136 -21v69c46 24 112 43 183 43c135 0 215 -61 215 -173c0 -84 -54 -140 -132 -163v-4
c86 -15 160 -65 160 -176c0 -124 -97 -200 -258 -200z" />
    <glyph glyph-name="four" unicode="4" horiz-adv-x="582" 
d="M237 0v62l87 16v122h-306v73l326 420h113v-413h98v-80h-98v-122l85 -16v-62h-305zM121 280h203v264h-4l-199 -261v-3z" />
    <glyph glyph-name="five" unicode="5" horiz-adv-x="516" 
d="M209 -11c-85 0 -142 24 -187 49v70c47 -17 94 -28 152 -28c96 0 160 43 160 134c0 88 -58 134 -165 134c-39 0 -79 -7 -110 -13l25 358h371l-10 -105h-283l-13 -162c21 4 52 8 86 8c150 0 243 -79 243 -214c0 -136 -97 -231 -269 -231z" />
    <glyph glyph-name="six" unicode="6" horiz-adv-x="585" 
d="M302 -13c-169 0 -269 126 -269 330c0 279 157 388 325 388c72 0 124 -16 157 -37v-72c-30 12 -80 18 -130 18c-104 0 -196 -47 -210 -232c40 26 100 50 169 50c126 0 212 -80 212 -209c0 -130 -88 -236 -254 -236zM301 66c79 0 115 55 115 147c0 98 -47 134 -118 134
c-53 0 -92 -12 -124 -32v-20c0 -135 30 -229 127 -229z" />
    <glyph glyph-name="seven" unicode="7" horiz-adv-x="509" 
d="M91 0l315 584v4h-289l-28 -74h-70l9 179h465v-86l-249 -607h-153z" />
    <glyph glyph-name="eight" unicode="8" horiz-adv-x="587" 
d="M293 -13c-170 0 -263 70 -263 186c0 86 70 143 149 173c-84 40 -122 95 -122 175c0 104 89 184 237 184c145 0 234 -64 234 -169c0 -83 -62 -129 -129 -158c98 -38 158 -93 158 -187c0 -122 -93 -204 -264 -204zM287 64c94 0 138 41 138 107c0 73 -61 100 -181 142
c-55 -28 -94 -73 -94 -136c0 -72 44 -113 137 -113zM328 408c43 24 81 60 81 121c0 72 -48 100 -112 100c-67 0 -112 -37 -112 -91c0 -69 43 -96 143 -130z" />
    <glyph glyph-name="nine" unicode="9" horiz-adv-x="585" 
d="M221 -13c-68 0 -119 18 -155 39v71c33 -11 82 -19 128 -19c123 0 204 48 216 232c-40 -25 -100 -50 -170 -50c-126 0 -211 80 -211 209c0 131 88 236 254 236c170 0 269 -126 269 -330c0 -274 -134 -388 -331 -388zM287 346c53 0 91 12 124 31c1 5 1 15 1 20
c0 135 -31 229 -128 229c-78 0 -115 -55 -115 -147c0 -98 47 -133 118 -133z" />
    <glyph glyph-name="colon" unicode=":" horiz-adv-x="241" 
d="M120 -14c-43 0 -77 33 -77 74c0 42 34 75 77 75c44 0 77 -33 77 -75c0 -41 -33 -74 -77 -74zM120 280c-43 0 -77 33 -77 75s34 75 77 75c44 0 77 -33 77 -75s-33 -75 -77 -75z" />
    <glyph glyph-name="semicolon" unicode=";" horiz-adv-x="241" 
d="M43 -95c9 69 14 133 14 219h131c-10 -82 -29 -153 -62 -219h-83zM120 280c-43 0 -76 33 -76 75s33 75 76 75c44 0 77 -33 77 -75s-33 -75 -77 -75z" />
    <glyph glyph-name="less" unicode="&#x3c;" horiz-adv-x="504" 
d="M440 123l-385 175v74l385 174v-94l-279 -117l279 -118v-94z" />
    <glyph glyph-name="equal" unicode="=" horiz-adv-x="524" 
d="M55 175v83h414v-83h-414zM55 357v83h414v-83h-414z" />
    <glyph glyph-name="greater" unicode="&#x3e;" horiz-adv-x="504" 
d="M63 123v94l280 117l-280 118v94l386 -174v-74z" />
    <glyph glyph-name="question" unicode="?" horiz-adv-x="423" 
d="M129 199c-8 19 -18 44 -18 79c0 56 31 82 86 126c43 34 64 60 64 115c0 69 -45 101 -115 101c-52 0 -82 -6 -124 -19v67c45 22 97 37 164 37c116 0 208 -47 208 -180c0 -87 -43 -128 -120 -178c-48 -32 -82 -49 -83 -92c0 -14 2 -32 8 -56h-70zM166 -13
c-41 0 -71 32 -71 70c0 37 30 69 71 69s71 -32 71 -69c0 -38 -30 -70 -71 -70z" />
    <glyph glyph-name="at" unicode="@" horiz-adv-x="889" 
d="M443 -155c-258 0 -404 139 -404 369c0 251 179 466 448 466c221 0 366 -133 366 -353c0 -181 -107 -300 -245 -300c-69 0 -102 28 -114 66h-6c-36 -37 -76 -58 -127 -58c-68 0 -128 53 -128 157c0 157 93 289 231 289c59 0 86 -17 115 -35l24 26h63l-64 -324
c-8 -40 1 -56 28 -56c82 0 152 84 152 232c0 186 -101 297 -296 297c-236 0 -372 -184 -372 -405c0 -204 110 -311 331 -311c87 0 172 17 229 36v-53c-60 -26 -140 -43 -231 -43zM410 110c33 0 59 18 79 36l44 233c-10 21 -29 39 -64 39c-79 0 -119 -107 -119 -224
c0 -59 20 -84 60 -84z" />
    <glyph glyph-name="A" unicode="A" horiz-adv-x="682" 
d="M1 0v63l64 17l217 613h123l212 -613l64 -17v-63h-288v62l74 18l-44 137h-216l-46 -137l76 -18v-62h-236zM315 541l-86 -256h173l-82 256h-5z" />
    <glyph glyph-name="B" unicode="B" horiz-adv-x="626" 
d="M19 0v62l81 18v533l-80 18v62h307c161 0 244 -55 244 -171c0 -74 -36 -139 -133 -159v-5c121 -17 168 -71 168 -172c0 -109 -82 -186 -256 -186h-331zM238 77h88c88 0 133 33 133 120c0 91 -45 125 -131 125h-90v-245zM238 391h74c69 0 118 25 118 108
c0 95 -43 117 -119 117h-73v-225z" />
    <glyph glyph-name="C" unicode="C" horiz-adv-x="621" 
d="M357 -12c-194 0 -332 99 -332 351c0 274 172 366 349 366c86 0 158 -13 201 -28l6 -183h-74l-38 107c-23 10 -61 22 -104 22c-133 0 -193 -98 -193 -264c0 -199 58 -288 201 -288c43 0 77 11 102 25l37 114h75l-7 -185c-50 -22 -119 -37 -223 -37z" />
    <glyph glyph-name="D" unicode="D" horiz-adv-x="690" 
d="M19 0v62l81 18v533l-80 18v62h299c236 0 346 -110 346 -331c0 -240 -117 -362 -338 -362h-308zM239 78h84c130 0 196 61 196 269c0 235 -79 268 -216 268h-64v-537z" />
    <glyph glyph-name="E" unicode="E" horiz-adv-x="606" 
d="M19 0v62l81 18v533l-80 18v62h539l10 -186h-72l-40 110h-219v-225h105l24 83h61v-240h-61l-24 85h-105v-244h226l52 136h72l-11 -212h-558z" />
    <glyph glyph-name="F" unicode="F" horiz-adv-x="601" 
d="M19 0v62l81 18v533l-80 18v62h543l10 -196h-72l-40 118h-222v-236h109l22 84h61v-241h-62l-21 86h-109v-228l89 -18v-62h-309z" />
    <glyph glyph-name="G" unicode="G" horiz-adv-x="676" 
d="M380 -13c-220 0 -355 100 -355 352c0 274 174 366 359 366c90 0 162 -13 205 -28l8 -183h-74l-39 106c-26 14 -61 23 -112 23c-135 0 -200 -96 -200 -264c0 -198 57 -290 202 -290c40 0 70 8 92 15v163l-81 17v62h281v-62l-67 -17v-226c-55 -20 -133 -34 -219 -34z" />
    <glyph glyph-name="H" unicode="H" horiz-adv-x="741" 
d="M19 0v62l81 18v533l-81 18v62h296v-62l-77 -18v-222h267v222l-78 18v62h295v-62l-79 -18v-533l80 -18v-62h-296v62l78 17v239h-267v-239l77 -17v-62h-296z" />
    <glyph glyph-name="I" unicode="I" horiz-adv-x="338" 
d="M19 0v62l81 18v533l-81 18v62h300v-62l-80 -18v-533l80 -18v-62h-300z" />
    <glyph glyph-name="J" unicode="J" horiz-adv-x="430" 
d="M141 -9c-67 0 -103 14 -130 27v79c30 -8 51 -15 97 -15c57 0 94 21 94 101v430l-81 18v62h299v-62l-79 -18v-441c0 -117 -70 -181 -200 -181z" />
    <glyph glyph-name="K" unicode="K" horiz-adv-x="684" 
d="M494 0l-220 310v47l210 256l-64 18v62h239v-62l-64 -18l-205 -241l212 -292l68 -18v-62h-176zM19 0v62l81 18v533l-81 18v62h299v-62l-80 -17v-535l80 -17v-62h-299z" />
    <glyph glyph-name="L" unicode="L" horiz-adv-x="573" 
d="M19 0v62l81 18v533l-81 18v62h307v-62l-88 -17v-537h202l49 157h71l-13 -234h-528z" />
    <glyph glyph-name="M" unicode="M" horiz-adv-x="895" 
d="M19 0v61l81 19v533l-81 18v62h273l147 -468h4l152 468h281v-62l-87 -18v-533l87 -18v-62h-291v62l69 18v506h-3l-185 -562h-89l-181 560h-4v-504l71 -18v-62h-244z" />
    <glyph glyph-name="N" unicode="N" horiz-adv-x="718" 
d="M19 0v61l81 19v533l-81 18v62h245l273 -470h5v389l-81 19v62h246v-61l-72 -19v-613h-117l-320 553h-4v-473l82 -19v-61h-257z" />
    <glyph glyph-name="O" unicode="O" horiz-adv-x="694" 
d="M347 70c118 0 176 101 176 268c0 196 -59 286 -177 286s-175 -103 -175 -268c0 -185 47 -286 176 -286zM345 -12c-180 0 -320 122 -320 357c0 250 162 360 324 360c180 0 319 -120 319 -355c0 -250 -160 -362 -323 -362z" />
    <glyph glyph-name="P" unicode="P" horiz-adv-x="588" 
d="M19 0v62l81 18v533l-81 18v62h293c196 0 267 -74 267 -196c0 -147 -100 -208 -227 -208c-30 0 -69 6 -70 6v63c1 0 21 -2 44 -2c74 0 113 46 113 131c0 89 -37 125 -119 125h-82v-532l96 -18v-62h-315z" />
    <glyph glyph-name="Q" unicode="Q" horiz-adv-x="694" 
d="M661 -130l-396 123c-110 34 -240 118 -240 352c0 250 162 360 324 360c180 0 319 -120 319 -355c0 -194 -96 -289 -214 -321v-3l237 -45zM349 70c119 0 174 101 174 268c0 196 -59 286 -177 286s-175 -103 -175 -268c0 -185 48 -286 178 -286z" />
    <glyph glyph-name="R" unicode="R" horiz-adv-x="663" 
d="M19 0v62l82 18v532l-80 19v62h315c174 0 251 -72 251 -194c0 -98 -64 -143 -133 -168v-4l145 -248l64 -18v-61h-172l-167 298h-84v-218l76 -18v-62h-297zM240 369h87c90 0 119 58 119 128c0 81 -36 116 -122 116h-84v-244z" />
    <glyph glyph-name="S" unicode="S" horiz-adv-x="537" 
d="M253 -12c-81 0 -157 14 -207 34l-8 169h76l30 -96c31 -16 63 -26 113 -26c82 0 123 46 123 103c0 63 -45 89 -120 119l-67 28c-89 34 -146 83 -146 191c0 110 73 196 239 196c86 0 142 -13 181 -26l8 -157h-75l-24 81c-18 9 -46 22 -97 22c-63 0 -111 -29 -111 -87
c0 -52 34 -79 102 -105l68 -28c101 -39 172 -80 172 -201s-80 -217 -257 -217z" />
    <glyph glyph-name="T" unicode="T" horiz-adv-x="620" 
d="M156 0v62l85 18v536h-122l-35 -135h-74l10 212h580l10 -212h-74l-35 135h-121v-536l84 -18v-62h-308z" />
    <glyph glyph-name="U" unicode="U" horiz-adv-x="691" 
d="M354 -13c-184 0 -271 90 -271 228v398l-78 18v62h296v-62l-79 -17v-383c0 -112 56 -158 151 -158c97 0 151 46 151 158v382l-79 17v63h241v-62l-70 -18v-388c0 -143 -86 -238 -262 -238z" />
    <glyph glyph-name="V" unicode="V" horiz-adv-x="672" 
d="M276 0l-211 613l-59 18v62h280v-62l-75 -18l146 -457h5l147 457l-74 18v62h231v-62l-60 -18l-210 -613h-120z" />
    <glyph glyph-name="W" unicode="W" horiz-adv-x="964" 
d="M223 0l-160 613l-56 18v62h266v-62l-69 -18l107 -434h5l139 514h92l140 -509h4l105 429l-71 18v62h232v-62l-63 -18l-160 -613h-124l-127 481h-4l-132 -481h-124z" />
    <glyph glyph-name="X" unicode="X" horiz-adv-x="689" 
d="M19 0v62l66 17l179 274l-168 260l-69 18v62h294v-62l-62 -16l113 -192l112 192l-66 16v62h237v-62l-67 -18l-164 -259l179 -274l68 -18v-62h-290v62l65 16l-130 211l-127 -210l66 -18v-61h-236z" />
    <glyph glyph-name="Y" unicode="Y" horiz-adv-x="633" 
d="M172 0v62l82 18v216l-192 317l-58 18v62h268v-62l-63 -17l138 -239h4l128 239l-66 17v62h216v-62l-57 -18l-179 -316v-217l80 -18v-62h-301z" />
    <glyph glyph-name="Z" unicode="Z" horiz-adv-x="556" 
d="M14 0v73l364 537v4h-230l-43 -124h-75l11 203h499v-73l-365 -537v-4h251l45 131h73l-10 -210h-520z" />
    <glyph glyph-name="bracketleft" unicode="[" horiz-adv-x="328" 
d="M58 -120v853h240v-62l-118 -18v-693l118 -18v-62h-240z" />
    <glyph glyph-name="backslash" unicode="\" horiz-adv-x="353" 
d="M262 -120l-240 853h89l240 -853h-89z" />
    <glyph glyph-name="bracketright" unicode="]" horiz-adv-x="328" 
d="M30 -120v62l118 18v693l-118 18v62h240v-853h-240z" />
    <glyph glyph-name="asciicircum" unicode="^" horiz-adv-x="409" 
d="M21 448l146 245h76l145 -245h-72l-111 140l-112 -140h-72z" />
    <glyph glyph-name="underscore" unicode="_" horiz-adv-x="323" 
d="M-8 -133v73h339v-73h-339z" />
    <glyph glyph-name="grave" unicode="`" 
d="M333 571l-213 82l51 93l187 -125z" />
    <glyph glyph-name="a" unicode="a" horiz-adv-x="500" 
d="M171 -13c-93 0 -156 56 -156 142c0 95 67 127 171 147l117 24v43c0 70 -16 95 -110 95c-43 0 -100 -5 -132 -10v66c43 18 119 37 193 37c120 0 175 -51 175 -160v-273c0 -30 17 -36 43 -36h22v-54c-14 -8 -52 -19 -91 -19c-47 0 -77 16 -87 57h-5
c-27 -31 -73 -59 -140 -59zM221 66c34 0 66 16 82 30v135l-82 -6c-59 -4 -79 -32 -79 -80c0 -50 24 -79 79 -79z" />
    <glyph glyph-name="b" unicode="b" horiz-adv-x="563" 
d="M263 -12c-88 0 -160 20 -205 41v619l-69 16v60l181 23l13 -6v-263h6c37 28 81 54 152 54c96 0 197 -53 197 -251c0 -201 -111 -293 -275 -293zM272 62c80 0 134 45 134 199c0 132 -46 177 -126 177c-41 0 -76 -12 -97 -21v-329c19 -12 39 -26 89 -26z" />
    <glyph glyph-name="c" unicode="c" horiz-adv-x="473" 
d="M282 -12c-171 0 -260 104 -260 268c0 195 121 275 279 275c55 0 109 -8 145 -20v-144h-77l-17 81c-14 4 -26 8 -61 8c-84 0 -137 -57 -137 -187c0 -146 70 -193 166 -193c62 0 108 13 133 25v-66c-32 -23 -87 -47 -171 -47z" />
    <glyph glyph-name="d" unicode="d" horiz-adv-x="586" 
d="M240 -12c-97 0 -214 60 -214 260c0 199 109 283 262 283c41 0 66 -6 92 -14v132l-75 16v59l187 23l14 -6v-656l69 -16v-56l-171 -23l-13 6v52h-6c-28 -35 -77 -60 -145 -60zM284 80c40 0 75 13 96 24v325c-19 13 -39 27 -89 27c-79 0 -134 -42 -134 -194
c0 -133 47 -182 127 -182z" />
    <glyph glyph-name="e" unicode="e" horiz-adv-x="514" 
d="M285 -12c-180 0 -263 109 -263 276c0 168 106 267 248 267c155 0 222 -95 222 -280h-340c7 -121 65 -176 163 -176c72 0 114 14 152 26v-64c-35 -22 -91 -49 -182 -49zM152 314l208 7c0 98 -34 136 -95 136c-65 0 -106 -40 -113 -143z" />
    <glyph glyph-name="f" unicode="f" horiz-adv-x="331" 
d="M18 0v55l68 16v372h-67v53l67 24v54c0 129 84 174 179 174c54 0 87 -11 106 -21v-69c-18 4 -38 7 -67 7c-59 0 -92 -21 -92 -101v-43h115v-78h-115v-372l81 -16v-55h-275z" />
    <glyph glyph-name="g" unicode="g" horiz-adv-x="526" 
d="M231 -205c-159 0 -226 60 -226 122c0 55 46 93 103 114v5c-37 13 -60 39 -60 75c0 40 27 78 70 110c-46 27 -76 71 -76 134c0 114 92 176 211 176c39 0 75 -6 105 -17l157 22v-83l-86 5c22 -24 35 -52 35 -92c0 -114 -91 -176 -211 -176c-30 0 -59 4 -84 11
c-15 -14 -22 -33 -22 -47c0 -15 11 -29 37 -29h172c86 0 158 -33 158 -134c0 -106 -92 -196 -283 -196zM241 -131c113 0 160 43 160 91c0 41 -26 55 -79 55h-152c-29 -13 -47 -41 -47 -75c0 -42 33 -71 118 -71zM253 256c53 0 90 31 90 104c0 78 -39 106 -90 106
c-53 0 -89 -32 -89 -104c0 -77 38 -106 89 -106z" />
    <glyph glyph-name="h" unicode="h" horiz-adv-x="600" 
d="M14 0v55l68 16v578l-69 16v59l183 23l13 -7v-264h5c50 32 102 55 168 55c90 0 142 -36 142 -135v-325l67 -16v-55h-255v55l62 15v287c0 60 -30 79 -90 79c-36 0 -68 -10 -99 -20v-346l61 -15v-55h-256z" />
    <glyph glyph-name="i" unicode="i" horiz-adv-x="289" 
d="M15 0v55l67 16v360l-73 16v59l187 24l13 -7v-452l67 -16v-55h-261zM141 595c-40 0 -73 29 -73 68c0 40 33 69 73 69c41 0 74 -29 74 -69c0 -39 -33 -68 -74 -68z" />
    <glyph glyph-name="j" unicode="j" horiz-adv-x="278" 
d="M41 -197c-32 0 -59 6 -82 15v66c14 -2 31 -3 45 -3c48 0 83 18 83 87v463l-74 16v59l187 24l13 -7v-560c0 -103 -56 -160 -172 -160zM145 595c-40 0 -73 29 -73 68c0 40 33 69 73 69c41 0 74 -29 74 -69c0 -39 -33 -68 -74 -68z" />
    <glyph glyph-name="k" unicode="k" horiz-adv-x="558" 
d="M404 0l-167 240v34l138 176l-58 14v57h220v-57l-68 -15l-127 -153l157 -225l56 -16v-55h-151zM14 0v55l68 15v579l-69 16v59l182 23l14 -7v-671l65 -14v-55h-260z" />
    <glyph glyph-name="l" unicode="l" horiz-adv-x="290" 
d="M14 0v55l69 16v578l-75 16v59l188 23l13 -7v-669l68 -16v-55h-263z" />
    <glyph glyph-name="m" unicode="m" horiz-adv-x="898" 
d="M14 0v55l68 16v360l-69 16v59l177 24l13 -7v-48h6c49 33 97 56 170 56c58 0 99 -19 120 -61h5c48 34 108 61 178 61c86 0 139 -42 139 -139v-321l66 -16v-55h-253v55l61 15v282c0 64 -30 84 -90 84c-33 0 -64 -9 -94 -20c2 -8 3 -22 3 -39v-307l61 -15v-55h-248v55l62 15
v282c0 64 -29 84 -86 84c-39 0 -63 -9 -94 -20v-346l61 -15v-55h-256z" />
    <glyph glyph-name="n" unicode="n" horiz-adv-x="601" 
d="M14 0v55l68 16v360l-69 16v59l177 24l13 -7v-49h6c50 33 107 57 173 57c90 0 142 -36 142 -135v-325l67 -16v-55h-255v55l62 15v287c0 60 -30 78 -90 78c-36 0 -68 -9 -99 -19v-346l61 -15v-55h-256z" />
    <glyph glyph-name="o" unicode="o" horiz-adv-x="558" 
d="M281 63c65 0 122 44 122 192c0 154 -60 201 -126 201s-123 -43 -123 -192c0 -153 60 -201 127 -201zM280 -13c-160 0 -258 106 -258 270c0 169 114 274 256 274c158 0 258 -102 258 -268c0 -170 -115 -276 -256 -276z" />
    <glyph glyph-name="p" unicode="p" horiz-adv-x="585" 
d="M12 -199v54l67 14v562l-69 16v59l176 24l13 -7v-49h6c37 30 87 58 158 58c97 0 196 -53 196 -251c0 -201 -110 -293 -266 -293c-40 0 -63 2 -87 7v-125l79 -15v-54h-273zM294 62c81 0 134 45 134 199c0 132 -46 177 -126 177c-41 0 -76 -12 -96 -21v-330
c18 -12 39 -25 88 -25z" />
    <glyph glyph-name="q" unicode="q" horiz-adv-x="572" 
d="M300 -199v56l80 16v169h-6c-36 -31 -72 -54 -137 -54c-99 0 -211 55 -211 256c0 198 112 287 273 287c83 0 147 -11 207 -33v-627l67 -14v-56h-273zM284 80c40 0 75 13 96 24v325c-19 13 -39 27 -92 27c-75 0 -131 -42 -131 -194c0 -133 47 -182 127 -182z" />
    <glyph glyph-name="r" unicode="r" horiz-adv-x="378" 
d="M14 0v55l68 16v360l-69 16v59l177 24l13 -7v-70h6c28 40 75 78 133 78c9 0 22 -2 27 -4v-111c-12 3 -30 4 -42 4c-48 0 -86 -10 -118 -29v-320l79 -16v-55h-274z" />
    <glyph glyph-name="s" unicode="s" horiz-adv-x="443" 
d="M201 -13c-57 0 -121 12 -169 30l-9 141h73l24 -78c17 -9 48 -20 88 -20c56 0 95 22 95 67c0 44 -23 58 -85 77l-56 16c-87 25 -135 68 -135 151c0 89 66 160 205 160c60 0 117 -10 155 -23v-133h-70l-19 69c-16 8 -38 15 -74 15c-49 0 -87 -16 -87 -61
c0 -38 23 -55 89 -74l59 -17c98 -28 135 -75 135 -150c0 -97 -69 -170 -219 -170z" />
    <glyph glyph-name="t" unicode="t" horiz-adv-x="359" 
d="M224 -10c-95 0 -145 33 -145 133v320h-67v53l78 25l18 122h97v-122h125v-78h-125v-297c0 -53 19 -74 75 -74c20 0 40 3 58 7v-59c-23 -15 -65 -30 -114 -30z" />
    <glyph glyph-name="u" unicode="u" horiz-adv-x="601" 
d="M223 -11c-106 0 -149 57 -149 150v298l-69 16v58l181 18l13 -7v-349c0 -62 17 -91 85 -91c51 0 79 13 105 24v331l-66 16v58l179 18l13 -7v-437l68 -16v-56l-175 -23l-13 6v57h-6c-39 -38 -94 -64 -166 -64z" />
    <glyph glyph-name="v" unicode="v" horiz-adv-x="555" 
d="M222 0l-170 450l-51 14v57h243v-57l-57 -11l111 -322h4l112 322l-57 11v57h196v-57l-51 -14l-169 -450h-111z" />
    <glyph glyph-name="w" unicode="w" horiz-adv-x="801" 
d="M186 0l-137 450l-48 14v57h233v-57l-57 -14l82 -291h4l113 362h86l112 -362h4l82 291l-55 14v57h194v-57l-48 -14l-137 -450h-103l-105 351h-3l-115 -351h-102z" />
    <glyph glyph-name="x" unicode="x" horiz-adv-x="559" 
d="M11 0v55l56 15l138 190l-133 189l-55 15v57h253v-57l-52 -12l89 -139h3l88 139l-55 12v57h197v-57l-51 -14l-131 -186l135 -194l56 -15v-55h-254v55l55 12l-94 141h-2l-95 -141l57 -12v-55h-205z" />
    <glyph glyph-name="y" unicode="y" horiz-adv-x="555" 
d="M141 -201c-30 0 -67 9 -85 18v76c22 -5 35 -8 53 -8c52 0 81 18 103 68l24 59l-183 438l-52 14v57h248v-57l-61 -13l114 -298h4l101 297l-59 14v57h205v-57l-51 -14l-196 -519c-33 -88 -75 -132 -165 -132z" />
    <glyph glyph-name="z" unicode="z" horiz-adv-x="485" 
d="M24 0v66l282 381v4h-175l-29 -100h-64l9 170h404v-66l-278 -380v-4h182l35 111h66l-13 -182h-419z" />
    <glyph glyph-name="braceleft" unicode="{" horiz-adv-x="379" 
d="M349 -120c-183 5 -239 57 -239 138c0 53 33 133 33 173c0 38 -15 62 -113 74v83c98 13 113 36 113 74c0 40 -33 120 -33 173c0 81 56 133 239 138v-62c-85 -13 -111 -27 -111 -77c0 -42 20 -114 20 -164c0 -55 -19 -95 -136 -121v-5c117 -26 136 -66 136 -120
c0 -50 -20 -123 -20 -165c0 -50 26 -64 111 -77v-62z" />
    <glyph glyph-name="bar" unicode="|" horiz-adv-x="228" 
d="M72 -120v853h83v-853h-83z" />
    <glyph glyph-name="braceright" unicode="}" horiz-adv-x="379" 
d="M30 -120v62c85 13 111 27 111 77c0 42 -20 115 -20 165c0 54 19 94 136 120v5c-117 26 -136 66 -136 121c0 50 20 122 20 164c0 50 -26 64 -111 77v62c184 -5 239 -57 239 -138c0 -53 -32 -133 -32 -173c0 -38 14 -62 113 -74v-83c-99 -13 -113 -36 -113 -74
c0 -40 32 -120 32 -173c0 -81 -55 -133 -239 -138z" />
    <glyph glyph-name="asciitilde" unicode="~" horiz-adv-x="430" 
d="M75 225l-57 35c32 77 71 117 129 117c57 0 102 -45 139 -45c26 0 47 16 69 52l57 -34c-31 -77 -71 -117 -129 -117c-57 0 -102 45 -138 45c-27 0 -48 -16 -70 -53z" />
    <glyph glyph-name="Adieresis" unicode="&#xc4;" horiz-adv-x="682" 
d="M1 0v63l64 17l217 613h123l212 -613l64 -17v-63h-288v62l74 18l-44 137h-216l-46 -137l76 -18v-62h-236zM315 541l-86 -256h173l-82 256h-5zM251 733c-36 0 -67 28 -67 65c0 38 31 64 67 64c37 0 68 -26 68 -64c0 -37 -31 -65 -68 -65zM433 733c-37 0 -68 28 -68 65
c0 38 31 64 68 64s67 -26 67 -64c0 -37 -30 -65 -67 -65z" />
    <glyph glyph-name="Aring" unicode="&#xc5;" horiz-adv-x="682" 
d="M1 0v63l64 17l217 613h123l212 -613l64 -17v-63h-288v62l74 18l-44 137h-216l-46 -137l76 -18v-62h-236zM315 541l-86 -256h173l-82 256h-5zM342 767c29 0 48 20 48 49s-19 50 -48 50s-48 -21 -48 -50s19 -49 48 -49zM342 719c-59 0 -102 44 -102 97s43 97 102 97
c58 0 102 -44 102 -97s-44 -97 -102 -97z" />
    <glyph glyph-name="Ccedilla" unicode="&#xc7;" horiz-adv-x="621" 
d="M252 -216v43c79 10 102 24 102 47c0 22 -21 32 -80 33v88c-149 26 -249 129 -249 344c0 274 172 366 349 366c86 0 158 -13 201 -28l6 -183h-74l-38 107c-23 10 -61 22 -104 22c-133 0 -193 -98 -193 -264c0 -199 58 -288 201 -288c43 0 77 11 102 25l37 114h75l-7 -185
c-50 -22 -119 -37 -223 -37c-10 0 -19 0 -28 1v-34c82 -4 117 -26 117 -74c0 -53 -55 -90 -194 -97z" />
    <glyph glyph-name="Eacute" unicode="&#xc9;" horiz-adv-x="606" 
d="M448 787l-219 -61l-20 52l198 105zM19 0v62l81 18v533l-80 18v62h539l10 -186h-72l-40 110h-219v-225h105l24 83h61v-240h-61l-24 85h-105v-244h226l52 136h72l-11 -212h-558z" />
    <glyph glyph-name="Ntilde" unicode="&#xd1;" horiz-adv-x="718" 
d="M272 732l-50 29c25 59 61 97 109 97c44 0 82 -31 111 -31c21 0 37 10 54 38l51 -28c-25 -59 -62 -98 -110 -98c-44 0 -82 31 -111 31c-21 0 -36 -10 -54 -38zM19 0v61l81 19v533l-81 18v62h245l273 -470h5v389l-81 19v62h246v-61l-72 -19v-613h-117l-320 553h-4v-473
l82 -19v-61h-257z" />
    <glyph glyph-name="Odieresis" unicode="&#xd6;" horiz-adv-x="694" 
d="M256 733c-36 0 -67 28 -67 65c0 38 31 64 67 64c37 0 68 -26 68 -64c0 -37 -31 -65 -68 -65zM438 733c-37 0 -68 28 -68 65c0 38 31 64 68 64s67 -26 67 -64c0 -37 -30 -65 -67 -65zM347 70c118 0 176 101 176 268c0 196 -59 286 -177 286s-175 -103 -175 -268
c0 -185 47 -286 176 -286zM345 -12c-180 0 -320 122 -320 357c0 250 162 360 324 360c180 0 319 -120 319 -355c0 -250 -160 -362 -323 -362z" />
    <glyph glyph-name="Udieresis" unicode="&#xdc;" horiz-adv-x="691" 
d="M354 -13c-184 0 -271 90 -271 228v398l-78 18v62h296v-62l-79 -17v-383c0 -112 56 -158 151 -158c97 0 151 46 151 158v382l-79 17v63h241v-62l-70 -18v-388c0 -143 -86 -238 -262 -238zM280 733c-36 0 -67 28 -67 65c0 38 31 64 67 64c37 0 68 -26 68 -64
c0 -37 -31 -65 -68 -65zM462 733c-37 0 -68 28 -68 65c0 38 31 64 68 64s67 -26 67 -64c0 -37 -30 -65 -67 -65z" />
    <glyph glyph-name="aacute" unicode="&#xe1;" horiz-adv-x="500" 
d="M171 -13c-93 0 -156 56 -156 142c0 95 67 127 171 147l117 24v43c0 70 -16 95 -110 95c-43 0 -100 -5 -132 -10v66c43 18 119 37 193 37c120 0 175 -51 175 -160v-273c0 -30 17 -36 43 -36h22v-54c-14 -8 -52 -19 -91 -19c-47 0 -77 16 -87 57h-5
c-27 -31 -73 -59 -140 -59zM221 66c34 0 66 16 82 30v135l-82 -6c-59 -4 -79 -32 -79 -80c0 -50 24 -79 79 -79zM164 571l-25 50l187 125l51 -93z" />
    <glyph glyph-name="agrave" unicode="&#xe0;" horiz-adv-x="500" 
d="M171 -13c-93 0 -156 56 -156 142c0 95 67 127 171 147l117 24v43c0 70 -16 95 -110 95c-43 0 -100 -5 -132 -10v66c43 18 119 37 193 37c120 0 175 -51 175 -160v-273c0 -30 17 -36 43 -36h22v-54c-14 -8 -52 -19 -91 -19c-47 0 -77 16 -87 57h-5
c-27 -31 -73 -59 -140 -59zM221 66c34 0 66 16 82 30v135l-82 -6c-59 -4 -79 -32 -79 -80c0 -50 24 -79 79 -79zM331 571l-213 82l51 93l187 -125z" />
    <glyph glyph-name="acircumflex" unicode="&#xe2;" horiz-adv-x="500" 
d="M171 -13c-93 0 -156 56 -156 142c0 95 67 127 171 147l117 24v43c0 70 -16 95 -110 95c-43 0 -100 -5 -132 -10v66c43 18 119 37 193 37c120 0 175 -51 175 -160v-273c0 -30 17 -36 43 -36h22v-54c-14 -8 -52 -19 -91 -19c-47 0 -77 16 -87 57h-5
c-27 -31 -73 -59 -140 -59zM221 66c34 0 66 16 82 30v135l-82 -6c-59 -4 -79 -32 -79 -80c0 -50 24 -79 79 -79zM128 574l-26 37l116 126h61l117 -126l-27 -37l-120 71z" />
    <glyph glyph-name="adieresis" unicode="&#xe4;" horiz-adv-x="500" 
d="M171 -13c-93 0 -156 56 -156 142c0 95 67 127 171 147l117 24v43c0 70 -16 95 -110 95c-43 0 -100 -5 -132 -10v66c43 18 119 37 193 37c120 0 175 -51 175 -160v-273c0 -30 17 -36 43 -36h22v-54c-14 -8 -52 -19 -91 -19c-47 0 -77 16 -87 57h-5
c-27 -31 -73 -59 -140 -59zM221 66c34 0 66 16 82 30v135l-82 -6c-59 -4 -79 -32 -79 -80c0 -50 24 -79 79 -79zM158 594c-36 0 -67 28 -67 65c0 38 31 64 67 64c37 0 68 -26 68 -64c0 -37 -31 -65 -68 -65zM340 594c-37 0 -68 28 -68 65c0 38 31 64 68 64s67 -26 67 -64
c0 -37 -30 -65 -67 -65z" />
    <glyph glyph-name="atilde" unicode="&#xe3;" horiz-adv-x="500" 
d="M171 -13c-93 0 -156 56 -156 142c0 95 67 127 171 147l117 24v43c0 70 -16 95 -110 95c-43 0 -100 -5 -132 -10v66c43 18 119 37 193 37c120 0 175 -51 175 -160v-273c0 -30 17 -36 43 -36h22v-54c-14 -8 -52 -19 -91 -19c-47 0 -77 16 -87 57h-5
c-27 -31 -73 -59 -140 -59zM221 66c34 0 66 16 82 30v135l-82 -6c-59 -4 -79 -32 -79 -80c0 -50 24 -79 79 -79zM138 590l-51 29c26 59 62 98 110 98c44 0 79 -32 108 -32c21 0 37 10 54 38l51 -29c-26 -59 -62 -98 -110 -98c-44 0 -79 32 -108 32c-21 0 -37 -10 -54 -38z
" />
    <glyph glyph-name="aring" unicode="&#xe5;" horiz-adv-x="500" 
d="M171 -13c-93 0 -156 56 -156 142c0 95 67 127 171 147l117 24v43c0 70 -16 95 -110 95c-43 0 -100 -5 -132 -10v66c43 18 119 37 193 37c120 0 175 -51 175 -160v-273c0 -30 17 -36 43 -36h22v-54c-14 -8 -52 -19 -91 -19c-47 0 -77 16 -87 57h-5
c-27 -31 -73 -59 -140 -59zM221 66c34 0 66 16 82 30v135l-82 -6c-59 -4 -79 -32 -79 -80c0 -50 24 -79 79 -79zM249 622c29 0 48 19 48 49c0 28 -19 49 -48 49s-48 -21 -48 -49c0 -30 19 -49 48 -49zM249 574c-59 0 -102 44 -102 97s43 96 102 96c58 0 102 -43 102 -96
s-44 -97 -102 -97z" />
    <glyph glyph-name="ccedilla" unicode="&#xe7;" horiz-adv-x="473" 
d="M173 -216v43c79 10 102 24 102 47c0 22 -21 32 -80 33v92c-114 30 -173 123 -173 257c0 195 121 275 279 275c55 0 109 -8 145 -20v-144h-77l-17 81c-14 4 -26 8 -61 8c-84 0 -137 -57 -137 -187c0 -146 70 -193 166 -193c62 0 108 13 133 25v-66
c-32 -23 -87 -47 -171 -47c-11 0 -22 0 -32 1v-34c82 -4 117 -26 117 -74c0 -53 -55 -90 -194 -97z" />
    <glyph glyph-name="eacute" unicode="&#xe9;" horiz-adv-x="514" 
d="M184 571l-25 50l187 125l51 -93zM285 -12c-180 0 -263 109 -263 276c0 168 106 267 248 267c155 0 222 -95 222 -280h-340c7 -121 65 -176 163 -176c72 0 114 14 152 26v-64c-35 -22 -91 -49 -182 -49zM152 314l208 7c0 98 -34 136 -95 136c-65 0 -106 -40 -113 -143z
" />
    <glyph glyph-name="egrave" unicode="&#xe8;" horiz-adv-x="514" 
d="M285 -12c-180 0 -263 109 -263 276c0 168 106 267 248 267c155 0 222 -95 222 -280h-340c7 -121 65 -176 163 -176c72 0 114 14 152 26v-64c-35 -22 -91 -49 -182 -49zM152 314l208 7c0 98 -34 136 -95 136c-65 0 -106 -40 -113 -143zM351 571l-213 82l51 93l187 -125z
" />
    <glyph glyph-name="ecircumflex" unicode="&#xea;" horiz-adv-x="514" 
d="M147 574l-26 37l116 126h61l117 -126l-27 -37l-120 71zM285 -12c-180 0 -263 109 -263 276c0 168 106 267 248 267c155 0 222 -95 222 -280h-340c7 -121 65 -176 163 -176c72 0 114 14 152 26v-64c-35 -22 -91 -49 -182 -49zM152 314l208 7c0 98 -34 136 -95 136
c-65 0 -106 -40 -113 -143z" />
    <glyph glyph-name="edieresis" unicode="&#xeb;" horiz-adv-x="514" 
d="M177 594c-36 0 -67 28 -67 65c0 38 31 64 67 64c37 0 68 -26 68 -64c0 -37 -31 -65 -68 -65zM359 594c-37 0 -68 28 -68 65c0 38 31 64 68 64s67 -26 67 -64c0 -37 -30 -65 -67 -65zM285 -12c-180 0 -263 109 -263 276c0 168 106 267 248 267c155 0 222 -95 222 -280
h-340c7 -121 65 -176 163 -176c72 0 114 14 152 26v-64c-35 -22 -91 -49 -182 -49zM152 314l208 7c0 98 -34 136 -95 136c-65 0 -106 -40 -113 -143z" />
    <glyph glyph-name="iacute" unicode="&#xed;" horiz-adv-x="289" 
d="M57 571l-25 50l187 125l51 -93zM15 0v55l67 16v360l-73 16v59l187 24l13 -7v-452l67 -16v-55h-261z" />
    <glyph glyph-name="igrave" unicode="&#xec;" horiz-adv-x="289" 
d="M15 0v55l67 16v360l-73 16v59l187 24l13 -7v-452l67 -16v-55h-261zM224 571l-213 82l51 93l187 -125z" />
    <glyph glyph-name="icircumflex" unicode="&#xee;" horiz-adv-x="289" 
d="M20 574l-26 37l116 126h61l117 -126l-27 -37l-120 71zM15 0v55l67 16v360l-73 16v59l187 24l13 -7v-452l67 -16v-55h-261z" />
    <glyph glyph-name="idieresis" unicode="&#xef;" horiz-adv-x="289" 
d="M50 594c-36 0 -67 28 -67 65c0 38 31 64 67 64c37 0 68 -26 68 -64c0 -37 -31 -65 -68 -65zM232 594c-37 0 -68 28 -68 65c0 38 31 64 68 64s67 -26 67 -64c0 -37 -30 -65 -67 -65zM15 0v55l67 16v360l-73 16v59l187 24l13 -7v-452l67 -16v-55h-261z" />
    <glyph glyph-name="ntilde" unicode="&#xf1;" horiz-adv-x="601" 
d="M14 0v55l68 16v360l-69 16v59l177 24l13 -7v-49h6c50 33 107 57 173 57c90 0 142 -36 142 -135v-325l67 -16v-55h-255v55l62 15v287c0 60 -30 78 -90 78c-36 0 -68 -9 -99 -19v-346l61 -15v-55h-256zM193 590l-51 29c26 59 62 98 110 98c44 0 79 -32 108 -32
c21 0 37 10 54 38l51 -29c-26 -59 -62 -98 -110 -98c-44 0 -79 32 -108 32c-21 0 -37 -10 -54 -38z" />
    <glyph glyph-name="oacute" unicode="&#xf3;" horiz-adv-x="558" 
d="M194 571l-25 50l187 125l51 -93zM281 63c65 0 122 44 122 192c0 154 -60 201 -126 201s-123 -43 -123 -192c0 -153 60 -201 127 -201zM280 -13c-160 0 -258 106 -258 270c0 169 114 274 256 274c158 0 258 -102 258 -268c0 -170 -115 -276 -256 -276z" />
    <glyph glyph-name="ograve" unicode="&#xf2;" horiz-adv-x="558" 
d="M281 63c65 0 122 44 122 192c0 154 -60 201 -126 201s-123 -43 -123 -192c0 -153 60 -201 127 -201zM280 -13c-160 0 -258 106 -258 270c0 169 114 274 256 274c158 0 258 -102 258 -268c0 -170 -115 -276 -256 -276zM362 571l-213 82l51 93l187 -125z" />
    <glyph glyph-name="ocircumflex" unicode="&#xf4;" horiz-adv-x="558" 
d="M158 574l-26 37l116 126h61l117 -126l-27 -37l-120 71zM281 63c65 0 122 44 122 192c0 154 -60 201 -126 201s-123 -43 -123 -192c0 -153 60 -201 127 -201zM280 -13c-160 0 -258 106 -258 270c0 169 114 274 256 274c158 0 258 -102 258 -268
c0 -170 -115 -276 -256 -276z" />
    <glyph glyph-name="odieresis" unicode="&#xf6;" horiz-adv-x="558" 
d="M188 594c-36 0 -67 28 -67 65c0 38 31 64 67 64c37 0 68 -26 68 -64c0 -37 -31 -65 -68 -65zM370 594c-37 0 -68 28 -68 65c0 38 31 64 68 64s67 -26 67 -64c0 -37 -30 -65 -67 -65zM281 63c65 0 122 44 122 192c0 154 -60 201 -126 201s-123 -43 -123 -192
c0 -153 60 -201 127 -201zM280 -13c-160 0 -258 106 -258 270c0 169 114 274 256 274c158 0 258 -102 258 -268c0 -170 -115 -276 -256 -276z" />
    <glyph glyph-name="otilde" unicode="&#xf5;" horiz-adv-x="558" 
d="M281 63c65 0 122 44 122 192c0 154 -60 201 -126 201s-123 -43 -123 -192c0 -153 60 -201 127 -201zM280 -13c-160 0 -258 106 -258 270c0 169 114 274 256 274c158 0 258 -102 258 -268c0 -170 -115 -276 -256 -276zM168 590l-51 29c26 59 62 98 110 98
c44 0 79 -32 108 -32c21 0 37 10 54 38l51 -29c-26 -59 -62 -98 -110 -98c-44 0 -79 32 -108 32c-21 0 -37 -10 -54 -38z" />
    <glyph glyph-name="uacute" unicode="&#xfa;" horiz-adv-x="601" 
d="M209 571l-25 50l187 125l51 -93zM223 -11c-106 0 -149 57 -149 150v298l-69 16v58l181 18l13 -7v-349c0 -62 17 -91 85 -91c51 0 79 13 105 24v331l-66 16v58l179 18l13 -7v-437l68 -16v-56l-175 -23l-13 6v57h-6c-39 -38 -94 -64 -166 -64z" />
    <glyph glyph-name="ugrave" unicode="&#xf9;" horiz-adv-x="601" 
d="M223 -11c-106 0 -149 57 -149 150v298l-69 16v58l181 18l13 -7v-349c0 -62 17 -91 85 -91c51 0 79 13 105 24v331l-66 16v58l179 18l13 -7v-437l68 -16v-56l-175 -23l-13 6v57h-6c-39 -38 -94 -64 -166 -64zM376 571l-213 82l51 93l187 -125z" />
    <glyph glyph-name="ucircumflex" unicode="&#xfb;" horiz-adv-x="601" 
d="M172 574l-26 37l116 126h61l117 -126l-27 -37l-120 71zM223 -11c-106 0 -149 57 -149 150v298l-69 16v58l181 18l13 -7v-349c0 -62 17 -91 85 -91c51 0 79 13 105 24v331l-66 16v58l179 18l13 -7v-437l68 -16v-56l-175 -23l-13 6v57h-6c-39 -38 -94 -64 -166 -64z" />
    <glyph glyph-name="udieresis" unicode="&#xfc;" horiz-adv-x="601" 
d="M202 594c-36 0 -67 28 -67 65c0 38 31 64 67 64c37 0 68 -26 68 -64c0 -37 -31 -65 -68 -65zM384 594c-37 0 -68 28 -68 65c0 38 31 64 68 64s67 -26 67 -64c0 -37 -30 -65 -67 -65zM223 -11c-106 0 -149 57 -149 150v298l-69 16v58l181 18l13 -7v-349
c0 -62 17 -91 85 -91c51 0 79 13 105 24v331l-66 16v58l179 18l13 -7v-437l68 -16v-56l-175 -23l-13 6v57h-6c-39 -38 -94 -64 -166 -64z" />
    <glyph glyph-name="dagger" unicode="&#x2020;" horiz-adv-x="421" 
d="M27 428v116l144 -25l-23 174h125l-23 -174l144 25v-116l-145 23l23 -113v-46l-31 -292h-61l-31 292v46l23 113z" />
    <glyph glyph-name="degree" unicode="&#xb0;" horiz-adv-x="351" 
d="M176 468c52 0 81 43 81 91s-29 90 -81 90c-53 0 -82 -42 -82 -90s29 -91 82 -91zM176 415c-84 0 -147 66 -147 144s63 143 147 143c83 0 146 -65 146 -143s-63 -144 -146 -144z" />
    <glyph glyph-name="cent" unicode="&#xa2;" horiz-adv-x="481" 
d="M209 -119l12 113c-129 24 -198 120 -198 262c0 184 110 265 255 274l7 65h69l-7 -66c41 -3 80 -10 107 -19v-143h-68l-17 82c-9 2 -17 5 -30 7l-42 -383c8 -1 16 -1 24 -1c62 0 116 16 141 28v-65c-33 -23 -91 -46 -174 -47l-11 -107h-68zM150 269c0 -99 29 -154 81 -180
l39 367c-74 -12 -120 -71 -120 -187z" />
    <glyph glyph-name="sterling" unicode="&#xa3;" horiz-adv-x="542" 
d="M55 304v77h64v92c0 161 105 232 225 232c81 0 123 -19 161 -46v-73c-37 13 -68 20 -116 20c-70 0 -132 -24 -138 -144l-4 -81h172v-77h-176l-2 -42c-5 -85 -32 -120 -75 -156v-2h347l-13 -104h-466v72c56 32 85 72 85 162v70h-64z" />
    <glyph glyph-name="section" unicode="&#xa7;" horiz-adv-x="520" 
d="M247 -132c-70 0 -125 13 -171 31l-8 135h72l25 -72c20 -10 43 -20 86 -20c52 0 95 21 95 68c0 41 -27 66 -90 89l-79 28c-98 35 -153 78 -153 160c0 66 44 109 114 132c-43 28 -65 68 -65 127c0 95 69 159 207 159c65 0 120 -11 156 -24v-128h-69l-20 63
c-15 8 -36 16 -75 16c-50 0 -89 -20 -89 -66c0 -41 18 -59 82 -83l78 -28c97 -34 153 -76 153 -158c0 -66 -42 -111 -113 -135c47 -30 77 -71 77 -129c0 -93 -69 -165 -213 -165zM288 357l-72 26c-43 -9 -76 -34 -76 -72c0 -44 32 -63 97 -87l67 -25c43 7 76 32 76 72
c0 43 -30 62 -92 86z" />
    <glyph glyph-name="bullet" unicode="&#x2022;" horiz-adv-x="360" 
d="M178 181c-76 0 -137 63 -137 139c0 79 61 139 137 139c75 0 141 -60 141 -139c0 -76 -66 -139 -141 -139z" />
    <glyph glyph-name="paragraph" unicode="&#xb6;" horiz-adv-x="584" 
d="M288 -120v449c-12 -2 -26 -3 -41 -3c-108 0 -204 58 -204 187c0 114 70 180 236 180h307v-62l-74 -18v-733h-78v739h-68v-739h-78z" />
    <glyph glyph-name="germandbls" unicode="&#xdf;" horiz-adv-x="625" 
d="M420 -13c-56 0 -106 12 -140 24l-8 127h69l21 -65c13 -6 32 -13 56 -13c44 0 75 20 75 59c0 41 -37 61 -77 86l-42 26c-47 27 -88 59 -88 122c0 100 129 157 129 240c0 47 -26 80 -84 80c-85 0 -119 -60 -119 -145v-528h-194v55l68 16v372h-67v53l67 24v21
c0 119 97 207 249 207c131 0 205 -59 205 -143c0 -97 -146 -153 -146 -213c0 -29 15 -42 59 -68l42 -25c55 -33 112 -68 112 -153c0 -89 -62 -159 -187 -159z" />
    <glyph glyph-name="registered" unicode="&#xae;" horiz-adv-x="449" 
d="M131 410v25l20 6v127l-20 5v27h98c50 0 78 -21 78 -55c0 -27 -17 -38 -35 -44v-3l38 -58l15 -5v-25h-58l-43 74h-17v-43l18 -6v-25h-94zM207 515h18c22 0 27 9 27 27c0 19 -7 26 -27 26h-18v-53zM224 337c95 0 159 73 159 165c0 91 -64 165 -159 165s-159 -74 -159 -165
c0 -92 64 -165 159 -165zM224 299c-115 0 -204 91 -204 203c0 113 89 203 204 203s205 -90 205 -203c0 -112 -90 -203 -205 -203z" />
    <glyph glyph-name="copyright" unicode="&#xa9;" horiz-adv-x="774" 
d="M394 157c-107 0 -186 61 -186 186c0 136 91 193 195 193c46 0 88 -8 112 -16l5 -105h-51l-22 57c-13 5 -27 10 -49 10c-64 0 -85 -50 -85 -129c0 -96 21 -142 89 -142c22 0 38 3 47 8l23 66h52l-7 -108c-26 -10 -67 -20 -123 -20zM386 38c173 0 293 138 293 306
s-120 306 -293 306c-174 0 -293 -138 -293 -306s119 -306 293 -306zM386 -14c-201 0 -354 161 -354 358s153 356 354 356c200 0 356 -159 356 -356s-156 -358 -356 -358z" />
    <glyph glyph-name="trademark" unicode="&#x2122;" horiz-adv-x="756" 
d="M332 406v36l33 7v200l-33 7v37h139l59 -171h3l60 171h145v-37l-36 -7v-199l36 -8v-36h-142v36l29 8v181h-4l-75 -216h-52l-74 215h-3v-180l29 -8v-36h-114zM86 406v36l34 7v202h-39l-17 -63h-45l4 105h275l4 -105h-45l-17 63h-40v-202l35 -7v-36h-149z" />
    <glyph glyph-name="acute" unicode="&#xb4;" 
d="M159 571l-25 50l187 125l51 -93z" />
    <glyph glyph-name="dieresis" unicode="&#xa8;" 
d="M155 594c-36 0 -67 28 -67 65c0 38 31 64 67 64c37 0 68 -26 68 -64c0 -37 -31 -65 -68 -65zM337 594c-37 0 -68 28 -68 65c0 38 31 64 68 64s67 -26 67 -64c0 -37 -30 -65 -67 -65z" />
    <glyph glyph-name="AE" unicode="&#xc6;" horiz-adv-x="947" 
d="M158 81l79 -19v-62h-236v63l60 18l320 541l-63 9v62h584l10 -186h-72l-40 110h-213v-225h99l23 83h61v-240h-61l-23 85h-99v-244h221l51 136h73l-12 -212h-550v62l81 18v134h-216zM274 283h177v305h-3z" />
    <glyph glyph-name="Oslash" unicode="&#xd8;" horiz-adv-x="694" 
d="M90 -29l-55 38l68 85c-49 60 -78 143 -78 251c0 250 162 360 324 360c73 0 139 -20 192 -60l54 68l55 -39l-60 -75c49 -59 78 -142 78 -249c0 -250 -160 -362 -323 -362c-74 0 -140 20 -194 60zM347 70c119 0 179 101 179 268c0 63 -6 116 -18 158l-292 -367
c28 -39 70 -59 131 -59zM168 356c0 -63 5 -116 17 -159l291 367c-29 40 -72 60 -130 60c-120 0 -178 -103 -178 -268z" />
    <glyph glyph-name="yen" unicode="&#xa5;" horiz-adv-x="608" 
d="M77 314v64h133l-152 235l-51 18v62h261v-62l-62 -17l129 -216h4l118 216l-65 17v62h209v-62l-51 -18l-142 -235h136v-64h-166v-69h166v-64h-166v-101l83 -18v-62h-301v62l83 18v101h-166v64h166v69h-166z" />
    <glyph glyph-name="ordfeminine" unicode="&#xaa;" horiz-adv-x="470" 
d="M166 219c-83 0 -139 51 -139 127c0 85 63 117 157 134l98 19v35c0 60 -18 81 -97 81c-38 0 -86 -6 -115 -10v65c40 16 104 33 171 33c108 0 160 -47 160 -143v-236c0 -25 14 -31 37 -31h19v-53c-13 -8 -41 -18 -80 -18c-43 0 -73 13 -82 50h-5c-24 -28 -65 -53 -124 -53z
M211 294c29 0 58 11 71 23v118l-68 -4c-46 -3 -69 -28 -69 -71s23 -66 66 -66z" />
    <glyph glyph-name="ordmasculine" unicode="&#xba;" horiz-adv-x="507" 
d="M255 291c57 0 103 38 103 166c0 135 -50 175 -106 175c-57 0 -104 -36 -104 -167c0 -134 50 -174 107 -174zM254 219c-141 0 -228 94 -228 240c0 152 102 244 226 244c141 0 229 -91 229 -239c0 -152 -102 -245 -227 -245z" />
    <glyph glyph-name="ae" unicode="&#xe6;" horiz-adv-x="785" 
d="M175 -13c-97 0 -160 56 -160 142c0 95 65 133 171 152l117 22v40c0 70 -16 95 -110 95c-43 0 -100 -5 -132 -10v66c43 18 117 37 189 37c68 0 114 -20 138 -62c39 40 93 62 157 62c154 0 218 -98 218 -283h-333c6 -121 61 -173 159 -173c72 0 111 14 149 26v-64
c-35 -22 -88 -49 -179 -49c-98 0 -165 32 -207 87c-39 -50 -103 -88 -177 -88zM327 118c-16 33 -24 74 -26 119l-80 -6c-59 -4 -79 -38 -79 -86c0 -50 25 -79 80 -79c33 0 68 15 105 52zM430 311l201 7c0 98 -31 139 -92 139c-65 0 -102 -43 -109 -146z" />
    <glyph glyph-name="oslash" unicode="&#xf8;" horiz-adv-x="558" 
d="M67 -28l-51 38l59 69c-34 45 -53 106 -53 178c0 169 114 274 256 274c60 0 112 -15 153 -43l50 58l50 -39l-53 -61c37 -46 58 -108 58 -183c0 -170 -115 -276 -256 -276c-64 0 -118 17 -159 47zM281 62c67 0 126 44 126 193c0 39 -4 71 -10 97l-213 -245
c23 -33 56 -45 97 -45zM150 264c0 -36 3 -65 8 -90l211 243c-23 29 -55 40 -92 40c-67 0 -127 -43 -127 -193z" />
    <glyph glyph-name="questiondown" unicode="&#xbf;" horiz-adv-x="423" 
d="M237 -132c-117 0 -208 47 -208 180c0 87 43 128 120 178c48 32 82 49 83 92c0 14 -2 32 -8 56h70c8 -18 18 -44 18 -79c0 -56 -31 -82 -86 -126c-43 -34 -64 -60 -64 -115c0 -69 45 -101 115 -101c52 0 82 6 124 19v-67c-45 -22 -98 -37 -164 -37zM257 447
c-41 0 -72 32 -72 69c0 38 31 70 72 70s71 -32 71 -70c0 -37 -30 -69 -71 -69z" />
    <glyph glyph-name="exclamdown" unicode="&#xa1;" horiz-adv-x="259" 
d="M61 -120l30 493h81l28 -493h-139zM130 447c-41 0 -71 32 -71 69c0 38 30 70 71 70s71 -32 71 -70c0 -37 -30 -69 -71 -69z" />
    <glyph glyph-name="florin" unicode="&#x192;" horiz-adv-x="430" 
d="M38 341v77h89l20 117c22 120 93 167 187 167c49 0 79 -11 99 -20v-71c-20 4 -36 7 -62 7c-57 0 -83 -24 -97 -103l-18 -97h113v-77h-126l-69 -386c-18 -99 -77 -138 -164 -138c-41 0 -74 12 -86 18v69c12 -2 29 -4 49 -4c40 0 65 21 75 77l65 364h-75z" />
    <glyph glyph-name="guillemotleft" unicode="&#xab;" horiz-adv-x="441" 
d="M143 57l-107 178v35l107 179h81l-79 -196l79 -196h-81zM321 57l-106 178v35l106 179h82l-80 -196l80 -196h-82z" />
    <glyph glyph-name="guillemotright" unicode="&#xbb;" horiz-adv-x="441" 
d="M38 57l80 195l-80 197h82l106 -179v-35l-106 -178h-82zM217 57l80 195l-80 197h82l106 -179v-35l-106 -178h-82z" />
    <glyph glyph-name="ellipsis" unicode="&#x2026;" horiz-adv-x="723" 
d="M117 -14c-44 0 -77 33 -77 74c0 42 33 75 77 75c43 0 76 -33 76 -75c0 -41 -33 -74 -76 -74zM361 -14c-43 0 -77 33 -77 74c0 42 34 75 77 75c44 0 77 -33 77 -75c0 -41 -33 -74 -77 -74zM606 -14c-43 0 -76 33 -76 74c0 42 33 75 76 75c44 0 77 -33 77 -75
c0 -41 -33 -74 -77 -74z" />
    <glyph glyph-name="uni00A0" unicode="&#xa0;" horiz-adv-x="184" 
 />
    <glyph glyph-name="Agrave" unicode="&#xc0;" horiz-adv-x="682" 
d="M1 0v63l64 17l217 613h123l212 -613l64 -17v-63h-288v62l74 18l-44 137h-216l-46 -137l76 -18v-62h-236zM315 541l-86 -256h173l-82 256h-5zM427 726l-219 61l41 96l198 -105z" />
    <glyph glyph-name="Atilde" unicode="&#xc3;" horiz-adv-x="682" 
d="M1 0v63l64 17l217 613h123l212 -613l64 -17v-63h-288v62l74 18l-44 137h-216l-46 -137l76 -18v-62h-236zM315 541l-86 -256h173l-82 256h-5zM230 732l-50 29c25 59 61 97 109 97c44 0 82 -31 111 -31c21 0 37 10 54 38l51 -28c-25 -59 -62 -98 -110 -98
c-44 0 -82 31 -111 31c-21 0 -36 -10 -54 -38z" />
    <glyph glyph-name="Otilde" unicode="&#xd5;" horiz-adv-x="694" 
d="M235 732l-50 29c25 59 61 97 109 97c44 0 82 -31 111 -31c21 0 37 10 54 38l51 -28c-25 -59 -62 -98 -110 -98c-44 0 -82 31 -111 31c-21 0 -36 -10 -54 -38zM347 70c118 0 176 101 176 268c0 196 -59 286 -177 286s-175 -103 -175 -268c0 -185 47 -286 176 -286z
M345 -12c-180 0 -320 122 -320 357c0 250 162 360 324 360c180 0 319 -120 319 -355c0 -250 -160 -362 -323 -362z" />
    <glyph glyph-name="OE" unicode="&#x152;" horiz-adv-x="938" 
d="M380 0c-240 0 -355 110 -355 331c0 240 122 362 347 362h521l10 -186h-72l-40 110h-213v-225h99l23 83h61v-240h-61l-23 85h-99v-244h221l51 136h73l-12 -212h-531zM440 615h-64c-133 0 -205 -61 -205 -269c0 -235 84 -268 225 -268h44v537z" />
    <glyph glyph-name="oe" unicode="&#x153;" horiz-adv-x="895" 
d="M666 -12c-100 0 -163 35 -200 96c-42 -62 -108 -97 -186 -97c-160 0 -258 106 -258 270c0 169 114 274 256 274c86 0 152 -34 192 -94c38 61 102 94 181 94c155 0 222 -95 222 -280h-339c6 -121 65 -176 163 -176c72 0 114 14 151 26v-64c-34 -22 -90 -49 -182 -49z
M281 63c65 0 122 44 122 192c0 154 -60 201 -126 201s-123 -43 -123 -192c0 -153 60 -201 127 -201zM647 457c-66 0 -106 -40 -113 -143l207 7c0 98 -33 136 -94 136z" />
    <glyph glyph-name="endash" unicode="&#x2013;" horiz-adv-x="399" 
d="M30 251v73h339v-73h-339z" />
    <glyph glyph-name="emdash" unicode="&#x2014;" horiz-adv-x="688" 
d="M30 251v73h628v-73h-628z" />
    <glyph glyph-name="quotedblleft" unicode="&#x201c;" horiz-adv-x="406" 
d="M43 481c10 77 30 147 63 212h80c-9 -67 -17 -133 -17 -212h-126zM221 481c10 77 29 147 62 212h81c-10 -67 -17 -133 -17 -212h-126z" />
    <glyph glyph-name="quotedblright" unicode="&#x201d;" horiz-adv-x="406" 
d="M42 481c10 67 17 133 17 212h126c-10 -77 -29 -148 -62 -212h-81zM220 481c10 67 17 133 17 212h126c-10 -77 -29 -148 -62 -212h-81z" />
    <glyph glyph-name="quoteleft" unicode="&#x2018;" horiz-adv-x="228" 
d="M43 481c10 77 30 147 63 212h80c-9 -67 -17 -133 -17 -212h-126z" />
    <glyph glyph-name="quoteright" unicode="&#x2019;" horiz-adv-x="228" 
d="M42 481c10 67 17 133 17 212h126c-10 -77 -29 -148 -62 -212h-81z" />
    <glyph glyph-name="divide" unicode="&#xf7;" horiz-adv-x="531" 
d="M265 91c-42 0 -74 34 -74 71c0 40 32 72 74 72s74 -32 74 -72c0 -37 -32 -71 -74 -71zM53 299v83h425v-83h-425zM265 446c-42 0 -74 33 -74 71c0 40 32 72 74 72s74 -32 74 -72c0 -38 -32 -71 -74 -71z" />
    <glyph glyph-name="ydieresis" unicode="&#xff;" horiz-adv-x="555" 
d="M141 -201c-30 0 -67 9 -85 18v76c22 -5 35 -8 53 -8c52 0 81 18 103 68l24 59l-183 438l-52 14v57h248v-57l-61 -13l114 -298h4l101 297l-59 14v57h205v-57l-51 -14l-196 -519c-33 -88 -75 -132 -165 -132zM208 594c-36 0 -67 28 -67 65c0 38 31 64 67 64
c37 0 68 -26 68 -64c0 -37 -31 -65 -68 -65zM390 594c-37 0 -68 28 -68 65c0 38 31 64 68 64s67 -26 67 -64c0 -37 -30 -65 -67 -65z" />
    <glyph glyph-name="Ydieresis" unicode="&#x178;" horiz-adv-x="633" 
d="M172 0v62l82 18v216l-192 317l-58 18v62h268v-62l-63 -17l138 -239h4l128 239l-66 17v62h216v-62l-57 -18l-179 -316v-217l80 -18v-62h-301zM248 733c-36 0 -67 28 -67 65c0 38 31 64 67 64c37 0 68 -26 68 -64c0 -37 -31 -65 -68 -65zM430 733c-37 0 -68 28 -68 65
c0 38 31 64 68 64s67 -26 67 -64c0 -37 -30 -65 -67 -65z" />
    <glyph glyph-name="fraction" unicode="&#x2044;" horiz-adv-x="223" 
d="M-174 -40l483 753h83l-483 -753h-83z" />
    <glyph glyph-name="Euro" unicode="&#x20ac;" horiz-adv-x="614" 
d="M26 374v64h73c30 198 156 267 301 267c75 0 123 -11 166 -26l5 -170h-71l-34 97c-20 11 -43 18 -74 18c-96 0 -147 -64 -161 -186h192v-64h-196v-14c0 -20 0 -38 1 -55h195v-64h-188c19 -116 74 -160 180 -160c68 0 128 20 159 32v-71c-36 -24 -94 -54 -189 -54
c-152 0 -259 73 -286 253h-73v64h66v35c0 12 0 17 1 34h-67z" />
    <glyph glyph-name="guilsinglleft" unicode="&#x2039;" horiz-adv-x="262" 
d="M143 57l-107 178v35l107 179h81l-79 -196l79 -196h-81z" />
    <glyph glyph-name="guilsinglright" unicode="&#x203a;" horiz-adv-x="262" 
d="M38 57l80 195l-80 197h82l106 -179v-35l-106 -178h-82z" />
    <glyph glyph-name="daggerdbl" unicode="&#x2021;" horiz-adv-x="429" 
d="M31 431v116l145 -25l-24 171h125l-24 -171l145 25v-116l-145 24l25 -91v-35l-25 -91l145 25v-116l-145 24l24 -171h-125l25 171l-146 -24v116l145 -25l-25 91v35l25 91z" />
    <glyph glyph-name="periodcentered" unicode="&#xb7;" horiz-adv-x="233" 
d="M117 254c-44 0 -77 33 -77 74c0 42 33 75 77 75c43 0 76 -33 76 -75c0 -41 -33 -74 -76 -74z" />
    <glyph glyph-name="quotesinglbase" unicode="&#x201a;" horiz-adv-x="228" 
d="M42 -85c10 67 17 133 17 212h126c-10 -77 -29 -148 -62 -212h-81z" />
    <glyph glyph-name="quotedblbase" unicode="&#x201e;" horiz-adv-x="406" 
d="M42 -85c10 67 17 133 17 212h126c-10 -77 -29 -148 -62 -212h-81zM220 -85c10 67 17 133 17 212h126c-10 -77 -29 -148 -62 -212h-81z" />
    <glyph glyph-name="perthousand" unicode="&#x2030;" horiz-adv-x="1257" 
d="M200 375c51 0 68 43 68 132c0 90 -16 139 -67 139c-52 0 -69 -47 -69 -135c0 -87 17 -136 68 -136zM200 316c-95 0 -176 63 -176 191c0 133 85 198 177 198c90 0 176 -63 176 -193c0 -131 -83 -196 -177 -196zM145 -40l477 753h82l-477 -753h-82zM656 47
c51 0 68 43 68 132s-16 139 -67 139c-52 0 -69 -47 -69 -135c0 -87 17 -136 68 -136zM656 -12c-95 0 -176 63 -176 191c0 133 85 198 177 198c89 0 176 -63 176 -193c0 -131 -83 -196 -177 -196zM1056 47c51 0 68 43 68 132s-16 139 -67 139c-52 0 -69 -47 -69 -135
c0 -87 17 -136 68 -136zM1056 -12c-95 0 -176 63 -176 191c0 133 85 198 177 198c89 0 176 -63 176 -193c0 -131 -83 -196 -177 -196z" />
    <glyph glyph-name="Acircumflex" unicode="&#xc2;" horiz-adv-x="682" 
d="M1 0v63l64 17l217 613h123l212 -613l64 -17v-63h-288v62l74 18l-44 137h-216l-46 -137l76 -18v-62h-236zM315 541l-86 -256h173l-82 256h-5zM215 728l-23 39l119 105h61l120 -105l-23 -39l-127 54z" />
    <glyph glyph-name="Ecircumflex" unicode="&#xca;" horiz-adv-x="606" 
d="M189 728l-23 39l119 105h61l120 -105l-23 -39l-127 54zM19 0v62l81 18v533l-80 18v62h539l10 -186h-72l-40 110h-219v-225h105l24 83h61v-240h-61l-24 85h-105v-244h226l52 136h72l-11 -212h-558z" />
    <glyph glyph-name="Aacute" unicode="&#xc1;" horiz-adv-x="682" 
d="M1 0v63l64 17l217 613h123l212 -613l64 -17v-63h-288v62l74 18l-44 137h-216l-46 -137l76 -18v-62h-236zM315 541l-86 -256h173l-82 256h-5zM474 787l-219 -61l-20 52l198 105z" />
    <glyph glyph-name="Edieresis" unicode="&#xcb;" horiz-adv-x="606" 
d="M19 0v62l81 18v533l-80 18v62h539l10 -186h-72l-40 110h-219v-225h105l24 83h61v-240h-61l-24 85h-105v-244h226l52 136h72l-11 -212h-558zM225 733c-36 0 -67 28 -67 65c0 38 31 64 67 64c37 0 68 -26 68 -64c0 -37 -31 -65 -68 -65zM407 733c-37 0 -68 28 -68 65
c0 38 31 64 68 64s67 -26 67 -64c0 -37 -30 -65 -67 -65z" />
    <glyph glyph-name="Egrave" unicode="&#xc8;" horiz-adv-x="606" 
d="M401 726l-219 61l41 96l198 -105zM19 0v62l81 18v533l-80 18v62h539l10 -186h-72l-40 110h-219v-225h105l24 83h61v-240h-61l-24 85h-105v-244h226l52 136h72l-11 -212h-558z" />
    <glyph glyph-name="Iacute" unicode="&#xcd;" horiz-adv-x="338" 
d="M19 0v62l81 18v533l-81 18v62h300v-62l-80 -18v-533l80 -18v-62h-300zM296 787l-219 -61l-20 52l198 105z" />
    <glyph glyph-name="Icircumflex" unicode="&#xce;" horiz-adv-x="338" 
d="M19 0v62l81 18v533l-81 18v62h300v-62l-80 -18v-533l80 -18v-62h-300zM42 728l-23 39l119 105h61l120 -105l-23 -39l-127 54z" />
    <glyph glyph-name="Idieresis" unicode="&#xcf;" horiz-adv-x="338" 
d="M19 0v62l81 18v533l-81 18v62h300v-62l-80 -18v-533l80 -18v-62h-300zM78 733c-36 0 -67 28 -67 65c0 38 31 64 67 64c37 0 68 -26 68 -64c0 -37 -31 -65 -68 -65zM260 733c-37 0 -68 28 -68 65c0 38 31 64 68 64s67 -26 67 -64c0 -37 -30 -65 -67 -65z" />
    <glyph glyph-name="Igrave" unicode="&#xcc;" horiz-adv-x="338" 
d="M19 0v62l81 18v533l-81 18v62h300v-62l-80 -18v-533l80 -18v-62h-300zM254 726l-219 61l41 96l198 -105z" />
    <glyph glyph-name="Oacute" unicode="&#xd3;" horiz-adv-x="694" 
d="M479 787l-219 -61l-20 52l198 105zM347 70c118 0 176 101 176 268c0 196 -59 286 -177 286s-175 -103 -175 -268c0 -185 47 -286 176 -286zM345 -12c-180 0 -320 122 -320 357c0 250 162 360 324 360c180 0 319 -120 319 -355c0 -250 -160 -362 -323 -362z" />
    <glyph glyph-name="Ocircumflex" unicode="&#xd4;" horiz-adv-x="694" 
d="M220 728l-23 39l119 105h61l120 -105l-23 -39l-127 54zM347 70c118 0 176 101 176 268c0 196 -59 286 -177 286s-175 -103 -175 -268c0 -185 47 -286 176 -286zM345 -12c-180 0 -320 122 -320 357c0 250 162 360 324 360c180 0 319 -120 319 -355
c0 -250 -160 -362 -323 -362z" />
    <glyph glyph-name="Ograve" unicode="&#xd2;" horiz-adv-x="694" 
d="M432 726l-219 61l41 96l198 -105zM347 70c118 0 176 101 176 268c0 196 -59 286 -177 286s-175 -103 -175 -268c0 -185 47 -286 176 -286zM345 -12c-180 0 -320 122 -320 357c0 250 162 360 324 360c180 0 319 -120 319 -355c0 -250 -160 -362 -323 -362z" />
    <glyph glyph-name="Uacute" unicode="&#xda;" horiz-adv-x="691" 
d="M502 787l-219 -61l-20 52l198 105zM354 -13c-184 0 -271 90 -271 228v398l-78 18v62h296v-62l-79 -17v-383c0 -112 56 -158 151 -158c97 0 151 46 151 158v382l-79 17v63h241v-62l-70 -18v-388c0 -143 -86 -238 -262 -238z" />
    <glyph glyph-name="Ucircumflex" unicode="&#xdb;" horiz-adv-x="691" 
d="M244 728l-23 39l119 105h61l120 -105l-23 -39l-127 54zM354 -13c-184 0 -271 90 -271 228v398l-78 18v62h296v-62l-79 -17v-383c0 -112 56 -158 151 -158c97 0 151 46 151 158v382l-79 17v63h241v-62l-70 -18v-388c0 -143 -86 -238 -262 -238z" />
    <glyph glyph-name="Ugrave" unicode="&#xd9;" horiz-adv-x="691" 
d="M456 726l-219 61l41 96l198 -105zM354 -13c-184 0 -271 90 -271 228v398l-78 18v62h296v-62l-79 -17v-383c0 -112 56 -158 151 -158c97 0 151 46 151 158v382l-79 17v63h241v-62l-70 -18v-388c0 -143 -86 -238 -262 -238z" />
    <glyph glyph-name="dotlessi" unicode="&#x131;" horiz-adv-x="289" 
d="M15 0v55l67 16v360l-73 16v59l187 24l13 -7v-452l67 -16v-55h-261z" />
    <glyph glyph-name="circumflex" unicode="&#x2c6;" 
d="M125 574l-26 37l116 126h61l117 -126l-27 -37l-120 71z" />
    <glyph glyph-name="tilde" unicode="&#x2dc;" 
d="M136 590l-51 29c26 59 62 98 110 98c44 0 79 -32 108 -32c21 0 37 10 54 38l51 -29c-26 -59 -62 -98 -110 -98c-44 0 -79 32 -108 32c-21 0 -37 -10 -54 -38z" />
    <glyph glyph-name="macron" unicode="&#xaf;" 
d="M115 602v80h261v-80h-261z" />
    <glyph glyph-name="breve" unicode="&#x2d8;" 
d="M263 583c-82 0 -139 57 -142 134h75c7 -35 32 -53 67 -53c36 0 60 18 68 53h74c-3 -77 -60 -134 -142 -134z" />
    <glyph glyph-name="dotaccent" unicode="&#x2d9;" 
d="M246 595c-40 0 -73 29 -73 68c0 40 33 69 73 69s72 -29 72 -69c0 -39 -32 -68 -72 -68z" />
    <glyph glyph-name="ring" unicode="&#x2da;" 
d="M246 622c29 0 48 19 48 49c0 28 -19 49 -48 49s-48 -21 -48 -49c0 -30 19 -49 48 -49zM246 574c-59 0 -102 44 -102 97s43 96 102 96c58 0 102 -43 102 -96s-44 -97 -102 -97z" />
    <glyph glyph-name="cedilla" unicode="&#xb8;" 
d="M196 -216v43c79 10 102 24 102 47c0 22 -21 32 -80 33v93h55v-45c82 -4 117 -26 117 -74c0 -53 -55 -90 -194 -97z" />
    <glyph glyph-name="hungarumlaut" unicode="&#x2dd;" 
d="M153 568l-42 28l103 161l80 -59zM326 568l-42 30l108 159l78 -62z" />
    <glyph glyph-name="ogonek" unicode="&#x2db;" horiz-adv-x="507" 
d="M253 -200c-79 0 -112 35 -112 83c0 55 49 93 99 117h58c-31 -36 -52 -67 -52 -100c0 -25 15 -38 46 -38c11 0 20 1 28 2v-53c-17 -6 -37 -11 -67 -11z" />
    <glyph glyph-name="caron" unicode="&#x2c7;" 
d="M215 578l-116 126l26 37l121 -71l120 71l27 -37l-117 -126h-61z" />
    <glyph glyph-name="space_uni0326" 
d="M169 -185c9 40 13 89 13 145h124c-6 -53 -22 -107 -51 -145h-86z" />
    <glyph glyph-name="caron.alt" 
d="M257 565l-59 10l14 170l106 -17z" />
    <glyph glyph-name="space_uni0326.alt" 
d="M315 746c-9 -39 -13 -89 -13 -145h-124c6 53 22 108 51 145h86z" />
    <glyph glyph-name="acute.pl" 
d="M285 571l-62 16l58 167l112 -46z" />
    <glyph glyph-name="grave.uc" 
d="M335 726l-219 61l41 96l198 -105z" />
    <glyph glyph-name="dieresis.uc" 
d="M155 733c-36 0 -67 28 -67 65c0 38 31 64 67 64c37 0 68 -26 68 -64c0 -37 -31 -65 -68 -65zM337 733c-37 0 -68 28 -68 65c0 38 31 64 68 64s67 -26 67 -64c0 -37 -30 -65 -67 -65z" />
    <glyph glyph-name="macron.uc" 
d="M115 748v80h261v-80h-261z" />
    <glyph glyph-name="acute.uc" 
d="M377 787l-219 -61l-20 52l198 105z" />
    <glyph glyph-name="circumflex.uc" 
d="M119 728l-23 39l119 105h61l120 -105l-23 -39l-127 54z" />
    <glyph glyph-name="caron.uc" 
d="M373 879l23 -38l-120 -106h-61l-119 106l23 38l127 -54z" />
    <glyph glyph-name="breve.uc" 
d="M263 732c-83 0 -134 54 -140 124h75c7 -25 30 -41 65 -41c36 0 58 16 65 41h75c-5 -70 -57 -124 -140 -124z" />
    <glyph glyph-name="dotaccent.uc" 
d="M246 733c-40 0 -73 30 -73 69c0 40 33 68 73 68s72 -28 72 -68c0 -39 -32 -69 -72 -69z" />
    <glyph glyph-name="ring.uc" 
d="M246 767c29 0 48 20 48 49s-19 50 -48 50s-48 -21 -48 -50s19 -49 48 -49zM246 719c-59 0 -102 44 -102 97s43 97 102 97c58 0 102 -44 102 -97s-44 -97 -102 -97z" />
    <glyph glyph-name="tilde.uc" 
d="M134 732l-50 29c25 59 61 97 109 97c44 0 82 -31 111 -31c21 0 37 10 54 38l51 -28c-25 -59 -62 -98 -110 -98c-44 0 -82 31 -111 31c-21 0 -36 -10 -54 -38z" />
    <glyph glyph-name="hungarumlaut.uc" 
d="M164 729l-46 30l85 137l85 -55zM332 730l-44 31l89 136l83 -60z" />
    <glyph glyph-name="acute.ucpl" 
d="M291 727l-69 16l57 159l115 -45z" />
    <glyph glyph-name="Dcroat" unicode="&#x110;" horiz-adv-x="690" 
d="M27 310v82h73v221l-80 18v62h299c236 0 346 -110 346 -331c0 -240 -117 -362 -338 -362h-308v62l81 18v230h-73zM239 78h84c130 0 196 61 196 269c0 235 -79 268 -216 268h-64v-223h155v-82h-155v-232z" />
    <glyph glyph-name="Eng" unicode="&#x14a;" horiz-adv-x="718" 
d="M468 -179c-47 0 -78 8 -102 19v69c19 -4 39 -6 64 -6c60 0 97 13 103 77l-335 573h-4v-473l82 -19v-61h-257v61l81 19v533l-81 18v62h245l273 -470h5v389l-81 19v62h246v-61l-72 -19v-626c0 -107 -55 -166 -167 -166z" />
    <glyph glyph-name="IJ" unicode="&#x132;" horiz-adv-x="756" 
d="M19 0v62l81 18v533l-81 18v62h300v-62l-80 -18v-533l80 -18v-62h-300zM467 -9c-61 0 -94 13 -119 25v80c26 -7 49 -14 88 -14c56 0 92 21 92 101v430l-80 18v62h298v-62l-79 -18v-441c0 -117 -69 -181 -200 -181z" />
    <glyph glyph-name="uni0237" unicode="&#x237;" horiz-adv-x="278" 
d="M41 -197c-32 0 -59 6 -82 15v66c14 -2 31 -3 45 -3c48 0 83 18 83 87v463l-74 16v59l187 24l13 -7v-560c0 -103 -56 -160 -172 -160z" />
    <glyph glyph-name="dcroat" unicode="&#x111;" horiz-adv-x="586" 
d="M219 576v46h161v27l-75 16v59l187 23l14 -6v-119h67v-46h-67v-491l69 -16v-56l-171 -23l-13 6v52h-6c-28 -35 -77 -60 -145 -60c-97 0 -214 60 -214 260c0 199 109 283 262 283c41 0 66 -6 92 -14v59h-161zM284 80c40 0 75 13 96 24v325c-19 13 -39 27 -89 27
c-79 0 -134 -42 -134 -194c0 -133 47 -182 127 -182z" />
    <glyph glyph-name="eng" unicode="&#x14b;" horiz-adv-x="583" 
d="M524 396v-433c0 -103 -58 -160 -167 -160c-34 0 -58 6 -81 15v66c13 -2 26 -3 39 -3c48 0 83 18 83 87v389c0 60 -30 78 -90 78c-36 0 -68 -9 -99 -19v-346l64 -15v-55h-259v55l68 16v360l-69 16v59l177 24l13 -7v-49h6c50 33 107 57 173 57c90 0 142 -36 142 -135z" />
    <glyph glyph-name="ij" unicode="&#x133;" horiz-adv-x="557" 
d="M15 0v55l67 16v360l-73 16v59l187 24l13 -7v-452l67 -16v-55h-261zM141 595c-40 0 -73 29 -73 68c0 40 33 69 73 69c41 0 74 -29 74 -69c0 -39 -33 -68 -74 -68zM320 -197c-32 0 -59 6 -82 15v66c14 -2 31 -3 45 -3c48 0 83 18 83 87v463l-74 16v59l187 24l13 -7v-560
c0 -103 -56 -160 -172 -160zM424 595c-40 0 -73 29 -73 68c0 40 33 69 73 69c41 0 74 -29 74 -69c0 -39 -33 -68 -74 -68z" />
    <glyph glyph-name="Abreve" unicode="&#x102;" horiz-adv-x="682" 
d="M1 0v63l64 17l217 613h123l212 -613l64 -17v-63h-288v62l74 18l-44 137h-216l-46 -137l76 -18v-62h-236zM315 541l-86 -256h173l-82 256h-5zM342 732c-83 0 -134 54 -140 124h75c7 -25 30 -41 65 -41c36 0 58 16 65 41h75c-5 -70 -57 -124 -140 -124z" />
    <glyph glyph-name="Amacron" unicode="&#x100;" horiz-adv-x="682" 
d="M1 0v63l64 17l217 613h123l212 -613l64 -17v-63h-288v62l74 18l-44 137h-216l-46 -137l76 -18v-62h-236zM315 541l-86 -256h173l-82 256h-5zM211 748v80h261v-80h-261z" />
    <glyph glyph-name="Aogonek" unicode="&#x104;" horiz-adv-x="682" 
d="M571 -200c-79 0 -112 35 -112 83c0 51 39 90 83 117h-149v62l74 18l-44 137h-216l-46 -137l76 -18v-62h-236v63l64 17l217 613h123l212 -613l64 -17v-63h-65c-31 -36 -53 -67 -53 -100c0 -25 16 -38 46 -38c11 0 21 1 29 2v-53c-17 -6 -37 -11 -67 -11zM229 285h173
l-82 256h-5z" />
    <glyph glyph-name="Aringacute" unicode="&#x1fa;" horiz-adv-x="682" 
d="M1 0v63l64 17l217 613h123l212 -613l64 -17v-63h-288v62l74 18l-44 137h-216l-46 -137l76 -18v-62h-236zM315 541l-86 -256h173l-82 256h-5zM460 968l-219 -61l-20 52l198 105zM340 757c29 0 48 20 48 49s-19 50 -48 50s-48 -21 -48 -50s19 -49 48 -49zM340 709
c-59 0 -102 44 -102 97s43 97 102 97c58 0 102 -44 102 -97s-44 -97 -102 -97z" />
    <glyph glyph-name="AEacute" unicode="&#x1fc;" horiz-adv-x="947" 
d="M753 787l-219 -61l-20 52l198 105zM158 81l79 -19v-62h-236v63l60 18l320 541l-63 9v62h584l10 -186h-72l-40 110h-213v-225h99l23 83h61v-240h-61l-23 85h-99v-244h221l51 136h73l-12 -212h-550v62l81 18v134h-216zM274 283h177v305h-3z" />
    <glyph glyph-name="Cacute" unicode="&#x106;" horiz-adv-x="621" 
d="M357 -12c-194 0 -332 99 -332 351c0 274 172 366 349 366c86 0 158 -13 201 -28l6 -183h-74l-38 107c-23 10 -61 22 -104 22c-133 0 -193 -98 -193 -264c0 -199 58 -288 201 -288c43 0 77 11 102 25l37 114h75l-7 -185c-50 -22 -119 -37 -223 -37zM481 787l-219 -61
l-20 52l198 105z" />
    <glyph glyph-name="Ccaron" unicode="&#x10c;" horiz-adv-x="621" 
d="M483 879l23 -38l-120 -106h-61l-119 106l23 38l127 -54zM357 -12c-194 0 -332 99 -332 351c0 274 172 366 349 366c86 0 158 -13 201 -28l6 -183h-74l-38 107c-23 10 -61 22 -104 22c-133 0 -193 -98 -193 -264c0 -199 58 -288 201 -288c43 0 77 11 102 25l37 114h75
l-7 -185c-50 -22 -119 -37 -223 -37z" />
    <glyph glyph-name="Ccircumflex" unicode="&#x108;" horiz-adv-x="621" 
d="M234 728l-23 39l119 105h61l120 -105l-23 -39l-127 54zM357 -12c-194 0 -332 99 -332 351c0 274 172 366 349 366c86 0 158 -13 201 -28l6 -183h-74l-38 107c-23 10 -61 22 -104 22c-133 0 -193 -98 -193 -264c0 -199 58 -288 201 -288c43 0 77 11 102 25l37 114h75
l-7 -185c-50 -22 -119 -37 -223 -37z" />
    <glyph glyph-name="Cdotaccent" unicode="&#x10a;" horiz-adv-x="621" 
d="M357 -12c-194 0 -332 99 -332 351c0 274 172 366 349 366c86 0 158 -13 201 -28l6 -183h-74l-38 107c-23 10 -61 22 -104 22c-133 0 -193 -98 -193 -264c0 -199 58 -288 201 -288c43 0 77 11 102 25l37 114h75l-7 -185c-50 -22 -119 -37 -223 -37zM354 733
c-40 0 -73 30 -73 69c0 40 33 68 73 68s72 -28 72 -68c0 -39 -32 -69 -72 -69z" />
    <glyph glyph-name="Cacute.pl" horiz-adv-x="621" 
d="M357 -12c-194 0 -332 99 -332 351c0 274 172 366 349 366c86 0 158 -13 201 -28l6 -183h-74l-38 107c-23 10 -61 22 -104 22c-133 0 -193 -98 -193 -264c0 -199 58 -288 201 -288c43 0 77 11 102 25l37 114h75l-7 -185c-50 -22 -119 -37 -223 -37zM380 727l-69 16l57 159
l115 -45z" />
    <glyph glyph-name="Dcaron" unicode="&#x10e;" horiz-adv-x="690" 
d="M459 879l23 -38l-120 -106h-61l-119 106l23 38l127 -54zM19 0v62l81 18v533l-80 18v62h299c236 0 346 -110 346 -331c0 -240 -117 -362 -338 -362h-308zM239 78h84c130 0 196 61 196 269c0 235 -79 268 -216 268h-64v-537z" />
    <glyph glyph-name="Ebreve" unicode="&#x114;" horiz-adv-x="606" 
d="M19 0v62l81 18v533l-80 18v62h539l10 -186h-72l-40 110h-219v-225h105l24 83h61v-240h-61l-24 85h-105v-244h226l52 136h72l-11 -212h-558zM316 732c-83 0 -134 54 -140 124h75c7 -25 30 -41 65 -41c36 0 58 16 65 41h75c-5 -70 -57 -124 -140 -124z" />
    <glyph glyph-name="Ecaron" unicode="&#x11a;" horiz-adv-x="606" 
d="M443 879l23 -38l-120 -106h-61l-119 106l23 38l127 -54zM19 0v62l81 18v533l-80 18v62h539l10 -186h-72l-40 110h-219v-225h105l24 83h61v-240h-61l-24 85h-105v-244h226l52 136h72l-11 -212h-558z" />
    <glyph glyph-name="Edotaccent" unicode="&#x116;" horiz-adv-x="606" 
d="M316 733c-40 0 -73 30 -73 69c0 40 33 68 73 68s72 -28 72 -68c0 -39 -32 -69 -72 -69zM19 0v62l81 18v533l-80 18v62h539l10 -186h-72l-40 110h-219v-225h105l24 83h61v-240h-61l-24 85h-105v-244h226l52 136h72l-11 -212h-558z" />
    <glyph glyph-name="Emacron" unicode="&#x112;" horiz-adv-x="606" 
d="M19 0v62l81 18v533l-80 18v62h539l10 -186h-72l-40 110h-219v-225h105l24 83h61v-240h-61l-24 85h-105v-244h226l52 136h72l-11 -212h-558zM185 748v80h261v-80h-261z" />
    <glyph glyph-name="Eogonek" unicode="&#x118;" horiz-adv-x="606" 
d="M19 0v62l81 18v533l-80 18v62h539l10 -186h-72l-40 110h-219v-225h105l24 83h61v-240h-61l-24 85h-105v-244h226l52 136h72l-11 -212h-65c-31 -36 -53 -67 -53 -100c0 -25 16 -38 46 -38c11 0 21 1 29 2v-53c-17 -6 -38 -11 -67 -11c-79 0 -112 35 -112 83
c0 51 41 91 87 117h-423z" />
    <glyph glyph-name="Gbreve" unicode="&#x11e;" horiz-adv-x="676" 
d="M360 732c-83 0 -134 54 -140 124h75c7 -25 30 -41 65 -41c36 0 58 16 65 41h75c-5 -70 -57 -124 -140 -124zM380 -13c-220 0 -355 100 -355 352c0 274 174 366 359 366c90 0 162 -13 205 -28l8 -183h-74l-39 106c-26 14 -61 23 -112 23c-135 0 -200 -96 -200 -264
c0 -198 57 -290 202 -290c40 0 70 8 92 15v163l-81 17v62h281v-62l-67 -17v-226c-55 -20 -133 -34 -219 -34z" />
    <glyph glyph-name="Gcircumflex" unicode="&#x11c;" horiz-adv-x="676" 
d="M240 728l-23 39l119 105h61l120 -105l-23 -39l-127 54zM380 -13c-220 0 -355 100 -355 352c0 274 174 366 359 366c90 0 162 -13 205 -28l8 -183h-74l-39 106c-26 14 -61 23 -112 23c-135 0 -200 -96 -200 -264c0 -198 57 -290 202 -290c40 0 70 8 92 15v163l-81 17v62
h281v-62l-67 -17v-226c-55 -20 -133 -34 -219 -34z" />
    <glyph glyph-name="Gcommaaccent" unicode="&#x122;" horiz-adv-x="676" 
d="M288 -185c9 40 13 89 13 145h124c-6 -53 -22 -107 -51 -145h-86zM380 -13c-220 0 -355 100 -355 352c0 274 174 366 359 366c90 0 162 -13 205 -28l8 -183h-74l-39 106c-26 14 -61 23 -112 23c-135 0 -200 -96 -200 -264c0 -198 57 -290 202 -290c40 0 70 8 92 15v163
l-81 17v62h281v-62l-67 -17v-226c-55 -20 -133 -34 -219 -34z" />
    <glyph glyph-name="Gdotaccent" unicode="&#x120;" horiz-adv-x="676" 
d="M360 733c-40 0 -73 30 -73 69c0 40 33 68 73 68s72 -28 72 -68c0 -39 -32 -69 -72 -69zM380 -13c-220 0 -355 100 -355 352c0 274 174 366 359 366c90 0 162 -13 205 -28l8 -183h-74l-39 106c-26 14 -61 23 -112 23c-135 0 -200 -96 -200 -264c0 -198 57 -290 202 -290
c40 0 70 8 92 15v163l-81 17v62h281v-62l-67 -17v-226c-55 -20 -133 -34 -219 -34z" />
    <glyph glyph-name="Hbar" unicode="&#x126;" horiz-adv-x="741" 
d="M17 476v56h83v81l-81 18v62h296v-61l-77 -18v-82h267v82l-78 18v61h295v-62l-79 -18v-81h81v-56h-81v-396l80 -18v-62h-296v62l78 17v239h-267v-239l77 -17v-62h-296v62l81 18v396h-83zM238 388h267v88h-267v-88z" />
    <glyph glyph-name="Hcircumflex" unicode="&#x124;" horiz-adv-x="741" 
d="M19 0v62l81 18v533l-81 18v62h296v-62l-77 -18v-222h267v222l-78 18v62h295v-62l-79 -18v-533l80 -18v-62h-296v62l78 17v239h-267v-239l77 -17v-62h-296zM244 728l-23 39l119 105h61l120 -105l-23 -39l-127 54z" />
    <glyph glyph-name="Idotaccent" unicode="&#x130;" horiz-adv-x="338" 
d="M19 0v62l81 18v533l-81 18v62h300v-62l-80 -18v-533l80 -18v-62h-300zM169 733c-40 0 -73 30 -73 69c0 40 33 68 73 68s72 -28 72 -68c0 -39 -32 -69 -72 -69z" />
    <glyph glyph-name="Ibreve" unicode="&#x12c;" horiz-adv-x="338" 
d="M19 0v62l81 18v533l-81 18v62h300v-62l-80 -18v-533l80 -18v-62h-300zM169 732c-83 0 -134 54 -140 124h75c7 -25 30 -41 65 -41c36 0 58 16 65 41h75c-5 -70 -57 -124 -140 -124z" />
    <glyph glyph-name="Imacron" unicode="&#x12a;" horiz-adv-x="338" 
d="M19 0v62l81 18v533l-81 18v62h300v-62l-80 -18v-533l80 -18v-62h-300zM38 748v80h261v-80h-261z" />
    <glyph glyph-name="Iogonek" unicode="&#x12e;" horiz-adv-x="338" 
d="M19 0v62l81 18v533l-81 18v62h300v-62l-80 -18v-533l80 -18v-62h-78c-30 -36 -45 -67 -45 -100c0 -25 15 -38 45 -38c11 0 21 1 29 2v-53c-17 -6 -37 -11 -67 -11c-79 0 -112 35 -112 83c0 49 36 90 75 117h-147z" />
    <glyph glyph-name="Itilde" unicode="&#x128;" horiz-adv-x="338" 
d="M19 0v62l81 18v533l-81 18v62h300v-62l-80 -18v-533l80 -18v-62h-300zM57 732l-50 29c25 59 61 97 109 97c44 0 82 -31 111 -31c21 0 37 10 54 38l51 -28c-25 -59 -62 -98 -110 -98c-44 0 -82 31 -111 31c-21 0 -36 -10 -54 -38z" />
    <glyph glyph-name="Jcircumflex" unicode="&#x134;" horiz-adv-x="430" 
d="M142 728l-23 39l119 105h61l120 -105l-23 -39l-127 54zM141 -9c-67 0 -103 14 -130 27v79c30 -8 51 -15 97 -15c57 0 94 21 94 101v430l-81 18v62h299v-62l-79 -18v-441c0 -117 -70 -181 -200 -181z" />
    <glyph glyph-name="Kcommaaccent" unicode="&#x136;" horiz-adv-x="684" 
d="M294 -185c9 40 13 89 13 145h124c-6 -53 -22 -107 -51 -145h-86zM494 0l-220 310v47l210 256l-64 18v62h239v-62l-64 -18l-205 -241l212 -292l68 -18v-62h-176zM19 0v62l81 18v533l-81 18v62h299v-62l-80 -17v-535l80 -17v-62h-299z" />
    <glyph glyph-name="Lacute" unicode="&#x139;" horiz-adv-x="573" 
d="M295 787l-219 -61l-20 52l198 105zM19 0v62l81 18v533l-81 18v62h307v-62l-88 -17v-537h202l49 157h71l-13 -234h-528z" />
    <glyph glyph-name="Lcaron" unicode="&#x13d;" horiz-adv-x="573" 
d="M377 544l15 172l112 -16l-60 -166zM19 0v62l81 18v533l-81 18v62h307v-62l-88 -17v-537h202l49 157h71l-13 -234h-528z" />
    <glyph glyph-name="Lcommaaccent" unicode="&#x13b;" horiz-adv-x="573" 
d="M223 -185c9 40 13 89 13 145h124c-6 -53 -22 -107 -51 -145h-86zM19 0v62l81 18v533l-81 18v62h307v-62l-88 -17v-537h202l49 157h71l-13 -234h-528z" />
    <glyph glyph-name="Ldot" unicode="&#x13f;" horiz-adv-x="573" 
d="M19 0v62l81 18v533l-81 18v62h307v-62l-88 -17v-537h202l49 153h71l-13 -230h-528zM471 310c-42 0 -74 32 -74 71c0 40 32 72 74 72c41 0 73 -32 73 -72c0 -39 -32 -71 -73 -71z" />
    <glyph glyph-name="Nacute" unicode="&#x143;" horiz-adv-x="718" 
d="M517 787l-219 -61l-20 52l198 105zM19 0v61l81 19v533l-81 18v62h245l273 -470h5v389l-81 19v62h246v-61l-72 -19v-613h-117l-320 553h-4v-473l82 -19v-61h-257z" />
    <glyph glyph-name="Ncaron" unicode="&#x147;" horiz-adv-x="718" 
d="M512 879l23 -38l-120 -106h-61l-119 106l23 38l127 -54zM19 0v61l81 19v533l-81 18v62h245l273 -470h5v389l-81 19v62h246v-61l-72 -19v-613h-117l-320 553h-4v-473l82 -19v-61h-257z" />
    <glyph glyph-name="Ncommaaccent" unicode="&#x145;" horiz-adv-x="718" 
d="M304 -185c9 40 13 89 13 145h124c-6 -53 -22 -107 -51 -145h-86zM19 0v61l81 19v533l-81 18v62h245l273 -470h5v389l-81 19v62h246v-61l-72 -19v-613h-117l-320 553h-4v-473l82 -19v-61h-257z" />
    <glyph glyph-name="Nacute.pl" horiz-adv-x="718" 
d="M402 727l-69 16l57 159l115 -45zM19 0v61l81 19v533l-81 18v62h245l273 -470h5v389l-81 19v62h246v-61l-72 -19v-613h-117l-320 553h-4v-473l82 -19v-61h-257z" />
    <glyph glyph-name="Obreve" unicode="&#x14e;" horiz-adv-x="694" 
d="M347 732c-83 0 -134 54 -140 124h75c7 -25 30 -41 65 -41c36 0 58 16 65 41h75c-5 -70 -57 -124 -140 -124zM347 70c118 0 176 101 176 268c0 196 -59 286 -177 286s-175 -103 -175 -268c0 -185 47 -286 176 -286zM345 -12c-180 0 -320 122 -320 357
c0 250 162 360 324 360c180 0 319 -120 319 -355c0 -250 -160 -362 -323 -362z" />
    <glyph glyph-name="Ohungarumlaut" unicode="&#x150;" horiz-adv-x="694" 
d="M271 729l-46 30l85 137l85 -55zM439 730l-44 31l89 136l83 -60zM347 70c118 0 176 101 176 268c0 196 -59 286 -177 286s-175 -103 -175 -268c0 -185 47 -286 176 -286zM345 -12c-180 0 -320 122 -320 357c0 250 162 360 324 360c180 0 319 -120 319 -355
c0 -250 -160 -362 -323 -362z" />
    <glyph glyph-name="Omacron" unicode="&#x14c;" horiz-adv-x="694" 
d="M216 748v80h261v-80h-261zM347 70c118 0 176 101 176 268c0 196 -59 286 -177 286s-175 -103 -175 -268c0 -185 47 -286 176 -286zM345 -12c-180 0 -320 122 -320 357c0 250 162 360 324 360c180 0 319 -120 319 -355c0 -250 -160 -362 -323 -362z" />
    <glyph glyph-name="Oacute.pl" horiz-adv-x="694" 
d="M366 727l-69 16l57 159l115 -45zM347 70c118 0 176 101 176 268c0 196 -59 286 -177 286s-175 -103 -175 -268c0 -185 47 -286 176 -286zM345 -12c-180 0 -320 122 -320 357c0 250 162 360 324 360c180 0 319 -120 319 -355c0 -250 -160 -362 -323 -362z" />
    <glyph glyph-name="Oslashacute" unicode="&#x1fe;" horiz-adv-x="694" 
d="M90 -29l-55 38l68 85c-49 60 -78 143 -78 251c0 250 162 360 324 360c73 0 139 -20 192 -60l54 68l55 -39l-60 -75c49 -59 78 -142 78 -249c0 -250 -160 -362 -323 -362c-74 0 -140 20 -194 60zM347 70c119 0 179 101 179 268c0 63 -6 116 -18 158l-292 -367
c28 -39 70 -59 131 -59zM168 356c0 -63 5 -116 17 -159l291 367c-29 40 -72 60 -130 60c-120 0 -178 -103 -178 -268zM479 787l-219 -61l-20 52l198 105z" />
    <glyph glyph-name="Racute" unicode="&#x154;" horiz-adv-x="663" 
d="M450 787l-219 -61l-20 52l198 105zM19 0v62l82 18v532l-80 19v62h315c174 0 251 -72 251 -194c0 -98 -64 -143 -133 -168v-4l145 -248l64 -18v-61h-172l-167 298h-84v-218l76 -18v-62h-297zM240 369h87c90 0 119 58 119 128c0 81 -36 116 -122 116h-84v-244z" />
    <glyph glyph-name="Rcaron" unicode="&#x158;" horiz-adv-x="663" 
d="M443 879l23 -38l-120 -106h-61l-119 106l23 38l127 -54zM19 0v62l82 18v532l-80 19v62h315c174 0 251 -72 251 -194c0 -98 -64 -143 -133 -168v-4l145 -248l64 -18v-61h-172l-167 298h-84v-218l76 -18v-62h-297zM240 369h87c90 0 119 58 119 128c0 81 -36 116 -122 116
h-84v-244z" />
    <glyph glyph-name="Rcommaaccent" unicode="&#x156;" horiz-adv-x="663" 
d="M281 -185c9 40 13 89 13 145h124c-6 -53 -22 -107 -51 -145h-86zM19 0v62l82 18v532l-80 19v62h315c174 0 251 -72 251 -194c0 -98 -64 -143 -133 -168v-4l145 -248l64 -18v-61h-172l-167 298h-84v-218l76 -18v-62h-297zM240 369h87c90 0 119 58 119 128
c0 81 -36 116 -122 116h-84v-244z" />
    <glyph glyph-name="Sacute" unicode="&#x15a;" horiz-adv-x="537" 
d="M253 -12c-81 0 -157 14 -207 34l-8 169h76l30 -96c31 -16 63 -26 113 -26c82 0 123 46 123 103c0 63 -45 89 -120 119l-67 28c-89 34 -146 83 -146 191c0 110 73 196 239 196c86 0 142 -13 181 -26l8 -157h-75l-24 81c-18 9 -46 22 -97 22c-63 0 -111 -29 -111 -87
c0 -52 34 -79 102 -105l68 -28c101 -39 172 -80 172 -201s-80 -217 -257 -217zM411 787l-219 -61l-20 52l198 105z" />
    <glyph glyph-name="Scedilla" unicode="&#x15e;" horiz-adv-x="537" 
d="M184 -216v43c79 10 102 24 102 47c0 22 -21 32 -80 33v83c-63 4 -120 16 -160 32l-8 169h76l30 -96c31 -16 63 -26 113 -26c82 0 123 46 123 103c0 63 -45 89 -120 119l-67 28c-89 34 -146 83 -146 191c0 110 73 196 239 196c86 0 142 -13 181 -26l8 -157h-75l-24 81
c-18 9 -46 22 -97 22c-63 0 -111 -29 -111 -87c0 -52 34 -79 102 -105l68 -28c101 -39 172 -80 172 -201c0 -119 -78 -214 -249 -217v-33c82 -4 117 -26 117 -74c0 -53 -55 -90 -194 -97z" />
    <glyph glyph-name="Scircumflex" unicode="&#x15c;" horiz-adv-x="537" 
d="M153 728l-23 39l119 105h61l120 -105l-23 -39l-127 54zM253 -12c-81 0 -157 14 -207 34l-8 169h76l30 -96c31 -16 63 -26 113 -26c82 0 123 46 123 103c0 63 -45 89 -120 119l-67 28c-89 34 -146 83 -146 191c0 110 73 196 239 196c86 0 142 -13 181 -26l8 -157h-75
l-24 81c-18 9 -46 22 -97 22c-63 0 -111 -29 -111 -87c0 -52 34 -79 102 -105l68 -28c101 -39 172 -80 172 -201s-80 -217 -257 -217z" />
    <glyph glyph-name="Scommaaccent" unicode="&#x218;" horiz-adv-x="537" 
d="M203 -185c9 40 13 89 13 145h124c-6 -53 -22 -107 -51 -145h-86zM253 -12c-81 0 -157 14 -207 34l-8 169h76l30 -96c31 -16 63 -26 113 -26c82 0 123 46 123 103c0 63 -45 89 -120 119l-67 28c-89 34 -146 83 -146 191c0 110 73 196 239 196c86 0 142 -13 181 -26l8 -157
h-75l-24 81c-18 9 -46 22 -97 22c-63 0 -111 -29 -111 -87c0 -52 34 -79 102 -105l68 -28c101 -39 172 -80 172 -201s-80 -217 -257 -217z" />
    <glyph glyph-name="Sacute.pl" horiz-adv-x="537" 
d="M253 -12c-81 0 -157 14 -207 34l-8 169h76l30 -96c31 -16 63 -26 113 -26c82 0 123 46 123 103c0 63 -45 89 -120 119l-67 28c-89 34 -146 83 -146 191c0 110 73 196 239 196c86 0 142 -13 181 -26l8 -157h-75l-24 81c-18 9 -46 22 -97 22c-63 0 -111 -29 -111 -87
c0 -52 34 -79 102 -105l68 -28c101 -39 172 -80 172 -201s-80 -217 -257 -217zM304 727l-69 16l57 159l115 -45z" />
    <glyph glyph-name="Tcaron" unicode="&#x164;" horiz-adv-x="620" 
d="M437 879l23 -38l-120 -106h-61l-119 106l23 38l127 -54zM156 0v62l85 18v536h-122l-35 -135h-74l10 212h580l10 -212h-74l-35 135h-121v-536l84 -18v-62h-308z" />
    <glyph glyph-name="Tcommaaccent" unicode="&#x162;" horiz-adv-x="620" 
d="M238 -185c9 40 13 89 13 145h124c-6 -53 -22 -107 -51 -145h-86zM156 0v62l85 18v536h-122l-35 -135h-74l10 212h580l10 -212h-74l-35 135h-121v-536l84 -18v-62h-308z" />
    <glyph glyph-name="Tbar" unicode="&#x166;" horiz-adv-x="620" 
d="M100 347v65h141v204h-122l-35 -135h-74l10 212h580l10 -212h-74l-35 135h-121v-204h140v-65h-140v-267l84 -18v-62h-308v62l85 18v267h-141z" />
    <glyph glyph-name="Ubreve" unicode="&#x16c;" horiz-adv-x="691" 
d="M354 -13c-184 0 -271 90 -271 228v398l-78 18v62h296v-62l-79 -17v-383c0 -112 56 -158 151 -158c97 0 151 46 151 158v382l-79 17v63h241v-62l-70 -18v-388c0 -143 -86 -238 -262 -238zM371 732c-83 0 -134 54 -140 124h75c7 -25 30 -41 65 -41c36 0 58 16 65 41h75
c-5 -70 -57 -124 -140 -124z" />
    <glyph glyph-name="Uhungarumlaut" unicode="&#x170;" horiz-adv-x="691" 
d="M294 729l-46 30l85 137l85 -55zM462 730l-44 31l89 136l83 -60zM354 -13c-184 0 -271 90 -271 228v398l-78 18v62h296v-62l-79 -17v-383c0 -112 56 -158 151 -158c97 0 151 46 151 158v382l-79 17v63h241v-62l-70 -18v-388c0 -143 -86 -238 -262 -238z" />
    <glyph glyph-name="Umacron" unicode="&#x16a;" horiz-adv-x="691" 
d="M354 -13c-184 0 -271 90 -271 228v398l-78 18v62h296v-62l-79 -17v-383c0 -112 56 -158 151 -158c97 0 151 46 151 158v382l-79 17v63h241v-62l-70 -18v-388c0 -143 -86 -238 -262 -238zM240 748v80h261v-80h-261z" />
    <glyph glyph-name="Uogonek" unicode="&#x172;" horiz-adv-x="691" 
d="M351 -13c-180 0 -268 90 -268 228v398l-78 18v62h296v-62l-79 -17v-383c0 -112 56 -158 151 -158c97 0 151 46 151 158v382l-79 17v63h241v-62l-70 -18v-388c0 -91 -35 -161 -104 -201c-54 -32 -114 -59 -114 -124c0 -25 16 -38 46 -38c11 0 21 1 29 2v-53
c-17 -6 -38 -11 -68 -11c-78 0 -111 35 -111 83c0 47 36 81 78 105c-5 -1 -15 -1 -21 -1z" />
    <glyph glyph-name="Uring" unicode="&#x16e;" horiz-adv-x="691" 
d="M354 -13c-184 0 -271 90 -271 228v398l-78 18v62h296v-62l-79 -17v-383c0 -112 56 -158 151 -158c97 0 151 46 151 158v382l-79 17v63h241v-62l-70 -18v-388c0 -143 -86 -238 -262 -238zM371 753c29 0 48 20 48 49s-19 50 -48 50s-48 -21 -48 -50s19 -49 48 -49zM371 705
c-59 0 -102 44 -102 97s43 97 102 97c58 0 102 -44 102 -97s-44 -97 -102 -97z" />
    <glyph glyph-name="Utilde" unicode="&#x168;" horiz-adv-x="691" 
d="M354 -13c-184 0 -271 90 -271 228v398l-78 18v62h296v-62l-79 -17v-383c0 -112 56 -158 151 -158c97 0 151 46 151 158v382l-79 17v63h241v-62l-70 -18v-388c0 -143 -86 -238 -262 -238zM258 732l-50 29c25 59 61 97 109 97c44 0 82 -31 111 -31c21 0 37 10 54 38l51 -28
c-25 -59 -62 -98 -110 -98c-44 0 -82 31 -111 31c-21 0 -36 -10 -54 -38z" />
    <glyph glyph-name="Wacute" unicode="&#x1e82;" horiz-adv-x="964" 
d="M632 787l-219 -61l-20 52l198 105zM223 0l-160 613l-56 18v62h266v-62l-69 -18l107 -434h5l139 514h92l140 -509h4l105 429l-71 18v62h232v-62l-63 -18l-160 -613h-124l-127 481h-4l-132 -481h-124z" />
    <glyph glyph-name="Wcircumflex" unicode="&#x174;" horiz-adv-x="964" 
d="M374 728l-23 39l119 105h61l120 -105l-23 -39l-127 54zM223 0l-160 613l-56 18v62h266v-62l-69 -18l107 -434h5l139 514h92l140 -509h4l105 429l-71 18v62h232v-62l-63 -18l-160 -613h-124l-127 481h-4l-132 -481h-124z" />
    <glyph glyph-name="Wdieresis" unicode="&#x1e84;" horiz-adv-x="964" 
d="M410 733c-36 0 -67 28 -67 65c0 38 31 64 67 64c37 0 68 -26 68 -64c0 -37 -31 -65 -68 -65zM592 733c-37 0 -68 28 -68 65c0 38 31 64 68 64s67 -26 67 -64c0 -37 -30 -65 -67 -65zM223 0l-160 613l-56 18v62h266v-62l-69 -18l107 -434h5l139 514h92l140 -509h4l105 429
l-71 18v62h232v-62l-63 -18l-160 -613h-124l-127 481h-4l-132 -481h-124z" />
    <glyph glyph-name="Wgrave" unicode="&#x1e80;" horiz-adv-x="964" 
d="M586 726l-219 61l41 96l198 -105zM223 0l-160 613l-56 18v62h266v-62l-69 -18l107 -434h5l139 514h92l140 -509h4l105 429l-71 18v62h232v-62l-63 -18l-160 -613h-124l-127 481h-4l-132 -481h-124z" />
    <glyph glyph-name="Ycircumflex" unicode="&#x176;" horiz-adv-x="633" 
d="M172 0v62l82 18v216l-192 317l-58 18v62h268v-62l-63 -17l138 -239h4l128 239l-66 17v62h216v-62l-57 -18l-179 -316v-217l80 -18v-62h-301zM212 728l-23 39l119 105h61l120 -105l-23 -39l-127 54z" />
    <glyph glyph-name="Ygrave" unicode="&#x1ef2;" horiz-adv-x="633" 
d="M172 0v62l82 18v216l-192 317l-58 18v62h268v-62l-63 -17l138 -239h4l128 239l-66 17v62h216v-62l-57 -18l-179 -316v-217l80 -18v-62h-301zM424 726l-219 61l41 96l198 -105z" />
    <glyph glyph-name="Zacute" unicode="&#x179;" horiz-adv-x="556" 
d="M422 787l-219 -61l-20 52l198 105zM14 0v73l364 537v4h-230l-43 -124h-75l11 203h499v-73l-365 -537v-4h251l45 131h73l-10 -210h-520z" />
    <glyph glyph-name="Zdotaccent" unicode="&#x17b;" horiz-adv-x="556" 
d="M14 0v73l364 537v4h-230l-43 -124h-75l11 203h499v-73l-365 -537v-4h251l45 131h73l-10 -210h-520zM286 733c-40 0 -73 30 -73 69c0 40 33 68 73 68s72 -28 72 -68c0 -39 -32 -69 -72 -69z" />
    <glyph glyph-name="Zacute.pl" horiz-adv-x="556" 
d="M14 0v73l364 537v4h-230l-43 -124h-75l11 203h499v-73l-365 -537v-4h251l45 131h73l-10 -210h-520zM318 727l-69 16l57 159l115 -45z" />
    <glyph glyph-name="abreve" unicode="&#x103;" horiz-adv-x="500" 
d="M171 -13c-93 0 -156 56 -156 142c0 95 67 127 171 147l117 24v43c0 70 -16 95 -110 95c-43 0 -100 -5 -132 -10v66c43 18 119 37 193 37c120 0 175 -51 175 -160v-273c0 -30 17 -36 43 -36h22v-54c-14 -8 -52 -19 -91 -19c-47 0 -77 16 -87 57h-5
c-27 -31 -73 -59 -140 -59zM221 66c34 0 66 16 82 30v135l-82 -6c-59 -4 -79 -32 -79 -80c0 -50 24 -79 79 -79zM244 583c-82 0 -139 57 -142 134h75c7 -35 32 -53 67 -53c36 0 60 18 68 53h74c-3 -77 -60 -134 -142 -134z" />
    <glyph glyph-name="amacron" unicode="&#x101;" horiz-adv-x="500" 
d="M171 -13c-93 0 -156 56 -156 142c0 95 67 127 171 147l117 24v43c0 70 -16 95 -110 95c-43 0 -100 -5 -132 -10v66c43 18 119 37 193 37c120 0 175 -51 175 -160v-273c0 -30 17 -36 43 -36h22v-54c-14 -8 -52 -19 -91 -19c-47 0 -77 16 -87 57h-5
c-27 -31 -73 -59 -140 -59zM221 66c34 0 66 16 82 30v135l-82 -6c-59 -4 -79 -32 -79 -80c0 -50 24 -79 79 -79zM118 602v80h261v-80h-261z" />
    <glyph glyph-name="aogonek" unicode="&#x105;" horiz-adv-x="500" 
d="M408 -200c-79 0 -112 35 -112 83c0 49 40 85 86 107c-35 5 -58 23 -66 56h-5c-27 -31 -73 -59 -140 -59c-93 0 -156 56 -156 142c0 95 67 127 171 147l117 24v43c0 70 -16 95 -110 95c-43 0 -100 -5 -132 -10v66c43 18 119 37 193 37c120 0 175 -51 175 -160v-273
c0 -30 17 -36 43 -36h22v-54c-56 -21 -93 -65 -93 -108c0 -25 15 -38 45 -38c11 0 21 1 29 2v-53c-17 -6 -37 -11 -67 -11zM221 66c34 0 66 16 82 30v135l-82 -6c-59 -4 -79 -32 -79 -80c0 -50 24 -79 79 -79z" />
    <glyph glyph-name="aringacute" unicode="&#x1fb;" horiz-adv-x="500" 
d="M171 -13c-93 0 -156 56 -156 142c0 95 67 127 171 147l117 24v43c0 70 -16 95 -110 95c-43 0 -100 -5 -132 -10v66c43 18 119 37 193 37c120 0 175 -51 175 -160v-273c0 -30 17 -36 43 -36h22v-54c-14 -8 -52 -19 -91 -19c-47 0 -77 16 -87 57h-5
c-27 -31 -73 -59 -140 -59zM221 66c34 0 66 16 82 30v135l-82 -6c-59 -4 -79 -32 -79 -80c0 -50 24 -79 79 -79zM249 608c29 0 48 19 48 49c0 28 -19 49 -48 49s-48 -21 -48 -49c0 -30 19 -49 48 -49zM249 560c-59 0 -102 44 -102 97s43 96 102 96c58 0 102 -43 102 -96
s-44 -97 -102 -97zM371 826l-219 -61l-20 52l198 105z" />
    <glyph glyph-name="aeacute" unicode="&#x1fd;" horiz-adv-x="785" 
d="M344 571l-25 50l187 125l51 -93zM175 -13c-97 0 -160 56 -160 142c0 95 65 133 171 152l117 22v40c0 70 -16 95 -110 95c-43 0 -100 -5 -132 -10v66c43 18 117 37 189 37c68 0 114 -20 138 -62c39 40 93 62 157 62c154 0 218 -98 218 -283h-333c6 -121 61 -173 159 -173
c72 0 111 14 149 26v-64c-35 -22 -88 -49 -179 -49c-98 0 -165 32 -207 87c-39 -50 -103 -88 -177 -88zM327 118c-16 33 -24 74 -26 119l-80 -6c-59 -4 -79 -38 -79 -86c0 -50 25 -79 80 -79c33 0 68 15 105 52zM430 311l201 7c0 98 -31 139 -92 139
c-65 0 -102 -43 -109 -146z" />
    <glyph glyph-name="cacute" unicode="&#x107;" horiz-adv-x="473" 
d="M194 571l-25 50l187 125l51 -93zM282 -12c-171 0 -260 104 -260 268c0 195 121 275 279 275c55 0 109 -8 145 -20v-144h-77l-17 81c-14 4 -26 8 -61 8c-84 0 -137 -57 -137 -187c0 -146 70 -193 166 -193c62 0 108 13 133 25v-66c-32 -23 -87 -47 -171 -47z" />
    <glyph glyph-name="ccaron" unicode="&#x10d;" horiz-adv-x="473" 
d="M249 578l-116 126l26 37l121 -71l120 71l27 -37l-117 -126h-61zM282 -12c-171 0 -260 104 -260 268c0 195 121 275 279 275c55 0 109 -8 145 -20v-144h-77l-17 81c-14 4 -26 8 -61 8c-84 0 -137 -57 -137 -187c0 -146 70 -193 166 -193c62 0 108 13 133 25v-66
c-32 -23 -87 -47 -171 -47z" />
    <glyph glyph-name="ccircumflex" unicode="&#x109;" horiz-adv-x="473" 
d="M158 574l-26 37l116 126h61l117 -126l-27 -37l-120 71zM282 -12c-171 0 -260 104 -260 268c0 195 121 275 279 275c55 0 109 -8 145 -20v-144h-77l-17 81c-14 4 -26 8 -61 8c-84 0 -137 -57 -137 -187c0 -146 70 -193 166 -193c62 0 108 13 133 25v-66
c-32 -23 -87 -47 -171 -47z" />
    <glyph glyph-name="cdotaccent" unicode="&#x10b;" horiz-adv-x="473" 
d="M282 -12c-171 0 -260 104 -260 268c0 195 121 275 279 275c55 0 109 -8 145 -20v-144h-77l-17 81c-14 4 -26 8 -61 8c-84 0 -137 -57 -137 -187c0 -146 70 -193 166 -193c62 0 108 13 133 25v-66c-32 -23 -87 -47 -171 -47zM280 595c-40 0 -73 29 -73 68
c0 40 33 69 73 69s72 -29 72 -69c0 -39 -32 -68 -72 -68z" />
    <glyph glyph-name="cacute.pl" horiz-adv-x="473" 
d="M282 -12c-171 0 -260 104 -260 268c0 195 121 275 279 275c55 0 109 -8 145 -20v-144h-77l-17 81c-14 4 -26 8 -61 8c-84 0 -137 -57 -137 -187c0 -146 70 -193 166 -193c62 0 108 13 133 25v-66c-32 -23 -87 -47 -171 -47zM302 571l-62 16l58 167l112 -46z" />
    <glyph glyph-name="dcaron" unicode="&#x10f;" horiz-adv-x="586" 
d="M604 565l-59 10l14 170l106 -17zM240 -12c-97 0 -214 60 -214 260c0 199 109 283 262 283c41 0 66 -6 92 -14v132l-75 16v59l187 23l14 -6v-656l69 -16v-56l-171 -23l-13 6v52h-6c-28 -35 -77 -60 -145 -60zM284 80c40 0 75 13 96 24v325c-19 13 -39 27 -89 27
c-79 0 -134 -42 -134 -194c0 -133 47 -182 127 -182z" />
    <glyph glyph-name="ebreve" unicode="&#x115;" horiz-adv-x="514" 
d="M285 -12c-180 0 -263 109 -263 276c0 168 106 267 248 267c155 0 222 -95 222 -280h-340c7 -121 65 -176 163 -176c72 0 114 14 152 26v-64c-35 -22 -91 -49 -182 -49zM152 314l208 7c0 98 -34 136 -95 136c-65 0 -106 -40 -113 -143zM268 583c-82 0 -139 57 -142 134h75
c7 -35 32 -53 67 -53c36 0 60 18 68 53h74c-3 -77 -60 -134 -142 -134z" />
    <glyph glyph-name="ecaron" unicode="&#x11b;" horiz-adv-x="514" 
d="M237 578l-116 126l26 37l121 -71l120 71l27 -37l-117 -126h-61zM285 -12c-180 0 -263 109 -263 276c0 168 106 267 248 267c155 0 222 -95 222 -280h-340c7 -121 65 -176 163 -176c72 0 114 14 152 26v-64c-35 -22 -91 -49 -182 -49zM152 314l208 7c0 98 -34 136 -95 136
c-65 0 -106 -40 -113 -143z" />
    <glyph glyph-name="edotaccent" unicode="&#x117;" horiz-adv-x="514" 
d="M285 -12c-180 0 -263 109 -263 276c0 168 106 267 248 267c155 0 222 -95 222 -280h-340c7 -121 65 -176 163 -176c72 0 114 14 152 26v-64c-35 -22 -91 -49 -182 -49zM152 314l208 7c0 98 -34 136 -95 136c-65 0 -106 -40 -113 -143zM269 595c-40 0 -73 29 -73 68
c0 40 33 69 73 69s72 -29 72 -69c0 -39 -32 -68 -72 -68z" />
    <glyph glyph-name="emacron" unicode="&#x113;" horiz-adv-x="514" 
d="M285 -12c-180 0 -263 109 -263 276c0 168 106 267 248 267c155 0 222 -95 222 -280h-340c7 -121 65 -176 163 -176c72 0 114 14 152 26v-64c-35 -22 -91 -49 -182 -49zM152 314l208 7c0 98 -34 136 -95 136c-65 0 -106 -40 -113 -143zM137 602v80h261v-80h-261z" />
    <glyph glyph-name="eogonek" unicode="&#x119;" horiz-adv-x="514" 
d="M405 -189c-17 -6 -37 -11 -67 -11c-79 0 -112 35 -112 83c0 47 40 83 88 106c-7 -1 -22 -1 -29 -1c-180 0 -263 109 -263 276c0 168 106 267 248 267c155 0 222 -95 222 -280h-340c7 -121 65 -176 163 -176c72 0 114 14 152 26v-64c-67 -34 -136 -84 -136 -137
c0 -25 15 -38 46 -38c11 0 20 1 28 2v-53zM265 457c-65 0 -106 -40 -113 -143l208 7c0 98 -34 136 -95 136z" />
    <glyph glyph-name="gbreve" unicode="&#x11f;" horiz-adv-x="526" 
d="M231 -205c-159 0 -226 60 -226 122c0 55 46 93 103 114v5c-37 13 -60 39 -60 75c0 40 27 78 70 110c-46 27 -76 71 -76 134c0 114 92 176 211 176c39 0 75 -6 105 -17l157 22v-83l-86 5c22 -24 35 -52 35 -92c0 -114 -91 -176 -211 -176c-30 0 -59 4 -84 11
c-15 -14 -22 -33 -22 -47c0 -15 11 -29 37 -29h172c86 0 158 -33 158 -134c0 -106 -92 -196 -283 -196zM241 -131c113 0 160 43 160 91c0 41 -26 55 -79 55h-152c-29 -13 -47 -41 -47 -75c0 -42 33 -71 118 -71zM253 256c53 0 90 31 90 104c0 78 -39 106 -90 106
c-53 0 -89 -32 -89 -104c0 -77 38 -106 89 -106zM262 583c-82 0 -139 57 -142 134h75c7 -35 32 -53 67 -53c36 0 60 18 68 53h74c-3 -77 -60 -134 -142 -134z" />
    <glyph glyph-name="gcircumflex" unicode="&#x11d;" horiz-adv-x="526" 
d="M142 574l-26 37l116 126h61l117 -126l-27 -37l-120 71zM231 -205c-159 0 -226 60 -226 122c0 55 46 93 103 114v5c-37 13 -60 39 -60 75c0 40 27 78 70 110c-46 27 -76 71 -76 134c0 114 92 176 211 176c39 0 75 -6 105 -17l157 22v-83l-86 5c22 -24 35 -52 35 -92
c0 -114 -91 -176 -211 -176c-30 0 -59 4 -84 11c-15 -14 -22 -33 -22 -47c0 -15 11 -29 37 -29h172c86 0 158 -33 158 -134c0 -106 -92 -196 -283 -196zM241 -131c113 0 160 43 160 91c0 41 -26 55 -79 55h-152c-29 -13 -47 -41 -47 -75c0 -42 33 -71 118 -71zM253 256
c53 0 90 31 90 104c0 78 -39 106 -90 106c-53 0 -89 -32 -89 -104c0 -77 38 -106 89 -106z" />
    <glyph glyph-name="gcommaaccent" unicode="&#x123;" horiz-adv-x="526" 
d="M337 746c-9 -39 -13 -89 -13 -145h-124c6 53 22 108 51 145h86zM231 -205c-159 0 -226 60 -226 122c0 55 46 93 103 114v5c-37 13 -60 39 -60 75c0 40 27 78 70 110c-46 27 -76 71 -76 134c0 114 92 176 211 176c39 0 75 -6 105 -17l157 22v-83l-86 5
c22 -24 35 -52 35 -92c0 -114 -91 -176 -211 -176c-30 0 -59 4 -84 11c-15 -14 -22 -33 -22 -47c0 -15 11 -29 37 -29h172c86 0 158 -33 158 -134c0 -106 -92 -196 -283 -196zM241 -131c113 0 160 43 160 91c0 41 -26 55 -79 55h-152c-29 -13 -47 -41 -47 -75
c0 -42 33 -71 118 -71zM253 256c53 0 90 31 90 104c0 78 -39 106 -90 106c-53 0 -89 -32 -89 -104c0 -77 38 -106 89 -106z" />
    <glyph glyph-name="gdotaccent" unicode="&#x121;" horiz-adv-x="526" 
d="M231 -205c-159 0 -226 60 -226 122c0 55 46 93 103 114v5c-37 13 -60 39 -60 75c0 40 27 78 70 110c-46 27 -76 71 -76 134c0 114 92 176 211 176c39 0 75 -6 105 -17l157 22v-83l-86 5c22 -24 35 -52 35 -92c0 -114 -91 -176 -211 -176c-30 0 -59 4 -84 11
c-15 -14 -22 -33 -22 -47c0 -15 11 -29 37 -29h172c86 0 158 -33 158 -134c0 -106 -92 -196 -283 -196zM241 -131c113 0 160 43 160 91c0 41 -26 55 -79 55h-152c-29 -13 -47 -41 -47 -75c0 -42 33 -71 118 -71zM253 256c53 0 90 31 90 104c0 78 -39 106 -90 106
c-53 0 -89 -32 -89 -104c0 -77 38 -106 89 -106zM263 595c-40 0 -73 29 -73 68c0 40 33 69 73 69s72 -29 72 -69c0 -39 -32 -68 -72 -68z" />
    <glyph glyph-name="hbar" unicode="&#x127;" horiz-adv-x="600" 
d="M4 576v46h78v27l-69 16v59l183 23l13 -7v-118h152v-46h-152v-100h5c50 32 102 55 168 55c90 0 142 -36 142 -135v-325l67 -16v-55h-255v55l62 15v287c0 60 -30 79 -90 79c-36 0 -68 -10 -99 -20v-346l61 -15v-55h-256v55l68 16v505h-78z" />
    <glyph glyph-name="hcircumflex" unicode="&#x125;" horiz-adv-x="600" 
d="M14 0v55l68 16v578l-69 16v59l183 23l13 -7v-264h5c50 32 102 55 168 55c90 0 142 -36 142 -135v-325l67 -16v-55h-255v55l62 15v287c0 60 -30 79 -90 79c-36 0 -68 -10 -99 -20v-346l61 -15v-55h-256zM177 782l-23 39l119 105h61l120 -105l-23 -39l-127 54z" />
    <glyph glyph-name="ibreve" unicode="&#x12d;" horiz-adv-x="289" 
d="M15 0v55l67 16v360l-73 16v59l187 24l13 -7v-452l67 -16v-55h-261zM140 583c-82 0 -139 57 -142 134h75c7 -35 32 -53 67 -53c36 0 60 18 68 53h74c-3 -77 -60 -134 -142 -134z" />
    <glyph glyph-name="imacron" unicode="&#x12b;" horiz-adv-x="289" 
d="M15 0v55l67 16v360l-73 16v59l187 24l13 -7v-452l67 -16v-55h-261zM8 602v80h245v-80h-245z" />
    <glyph glyph-name="iogonek" unicode="&#x12f;" horiz-adv-x="289" 
d="M15 0v55l67 16v360l-73 16v59l187 24l13 -7v-452l67 -16v-55h-63c-29 -36 -50 -67 -50 -100c0 -25 16 -38 46 -38c11 0 21 1 29 2v-53c-17 -6 -38 -11 -68 -11c-78 0 -111 35 -111 83c0 53 45 92 86 117h-130zM141 595c-40 0 -73 29 -73 68c0 40 33 69 73 69
c41 0 74 -29 74 -69c0 -39 -33 -68 -74 -68z" />
    <glyph glyph-name="itilde" unicode="&#x129;" horiz-adv-x="289" 
d="M15 0v55l67 16v360l-73 16v59l187 24l13 -7v-452l67 -16v-55h-261zM30 590l-51 29c26 59 62 98 110 98c44 0 79 -32 108 -32c21 0 37 10 54 38l51 -29c-26 -59 -62 -98 -110 -98c-44 0 -79 32 -108 32c-21 0 -37 -10 -54 -38z" />
    <glyph glyph-name="idotaccent" horiz-adv-x="289" 
d="M15 0v55l67 16v360l-73 16v59l187 24l13 -7v-452l67 -16v-55h-261zM141 595c-40 0 -73 29 -73 68c0 40 33 69 73 69c41 0 74 -29 74 -69c0 -39 -33 -68 -74 -68z" />
    <glyph glyph-name="jcircumflex" unicode="&#x135;" horiz-adv-x="278" 
d="M41 -197c-32 0 -59 6 -82 15v66c14 -2 31 -3 45 -3c48 0 83 18 83 87v463l-74 16v59l187 24l13 -7v-560c0 -103 -56 -160 -172 -160zM17 574l-26 37l116 126h61l117 -126l-27 -37l-120 71z" />
    <glyph glyph-name="kcommaaccent" unicode="&#x137;" horiz-adv-x="558" 
d="M221 -185c9 40 13 89 13 145h124c-6 -53 -22 -107 -51 -145h-86zM404 0l-167 240v34l138 176l-58 14v57h220v-57l-68 -15l-127 -153l157 -225l56 -16v-55h-151zM14 0v55l68 15v579l-69 16v59l182 23l14 -7v-671l65 -14v-55h-260z" />
    <glyph glyph-name="lacute" unicode="&#x13a;" horiz-adv-x="290" 
d="M275 834l-219 -61l-20 52l198 105zM14 0v55l69 16v578l-75 16v59l188 23l13 -7v-669l68 -16v-55h-263z" />
    <glyph glyph-name="lcaron" unicode="&#x13e;" horiz-adv-x="290" 
d="M308 565l-59 10l14 170l106 -17zM14 0v55l69 16v578l-75 16v59l188 23l13 -7v-669l68 -16v-55h-263z" />
    <glyph glyph-name="lcommaaccent" unicode="&#x13c;" horiz-adv-x="290" 
d="M71 -185c9 40 13 89 13 145h124c-6 -53 -22 -107 -51 -145h-86zM14 0v55l69 16v578l-75 16v59l188 23l13 -7v-669l68 -16v-55h-263z" />
    <glyph glyph-name="ldot" unicode="&#x140;" horiz-adv-x="341" 
d="M14 0v55l69 16v578l-75 16v59l188 23l13 -7v-669l68 -16v-55h-263zM316 294c-39 0 -69 29 -69 66c0 38 30 68 69 68s69 -30 69 -68c0 -37 -30 -66 -69 -66z" />
    <glyph glyph-name="nacute" unicode="&#x144;" horiz-adv-x="601" 
d="M220 571l-25 50l187 125l51 -93zM14 0v55l68 16v360l-69 16v59l177 24l13 -7v-49h6c50 33 107 57 173 57c90 0 142 -36 142 -135v-325l67 -16v-55h-255v55l62 15v287c0 60 -30 78 -90 78c-36 0 -68 -9 -99 -19v-346l61 -15v-55h-256z" />
    <glyph glyph-name="napostrophe" unicode="&#x149;" horiz-adv-x="661" 
d="M-53 481c10 67 17 133 17 212h126c-10 -77 -29 -148 -62 -212h-81zM73 0v55l68 16v360l-69 16v59l177 24l13 -7v-49h6c50 33 107 57 173 57c90 0 142 -36 142 -135v-325l67 -16v-55h-255v55l62 15v287c0 60 -30 78 -90 78c-36 0 -68 -9 -99 -19v-346l61 -15v-55h-256z
" />
    <glyph glyph-name="ncaron" unicode="&#x148;" horiz-adv-x="601" 
d="M273 578l-116 126l26 37l121 -71l120 71l27 -37l-117 -126h-61zM14 0v55l68 16v360l-69 16v59l177 24l13 -7v-49h6c50 33 107 57 173 57c90 0 142 -36 142 -135v-325l67 -16v-55h-255v55l62 15v287c0 60 -30 78 -90 78c-36 0 -68 -9 -99 -19v-346l61 -15v-55h-256z" />
    <glyph glyph-name="ncommaaccent" unicode="&#x146;" horiz-adv-x="601" 
d="M232 -185c9 40 13 89 13 145h124c-6 -53 -22 -107 -51 -145h-86zM14 0v55l68 16v360l-69 16v59l177 24l13 -7v-49h6c50 33 107 57 173 57c90 0 142 -36 142 -135v-325l67 -16v-55h-255v55l62 15v287c0 60 -30 78 -90 78c-36 0 -68 -9 -99 -19v-346l61 -15v-55h-256z" />
    <glyph glyph-name="nacute.pl" horiz-adv-x="601" 
d="M319 571l-62 16l58 167l112 -46zM14 0v55l68 16v360l-69 16v59l177 24l13 -7v-49h6c50 33 107 57 173 57c90 0 142 -36 142 -135v-325l67 -16v-55h-255v55l62 15v287c0 60 -30 78 -90 78c-36 0 -68 -9 -99 -19v-346l61 -15v-55h-256z" />
    <glyph glyph-name="obreve" unicode="&#x14f;" horiz-adv-x="558" 
d="M281 63c65 0 122 44 122 192c0 154 -60 201 -126 201s-123 -43 -123 -192c0 -153 60 -201 127 -201zM280 -13c-160 0 -258 106 -258 270c0 169 114 274 256 274c158 0 258 -102 258 -268c0 -170 -115 -276 -256 -276zM278 583c-82 0 -139 57 -142 134h75
c7 -35 32 -53 67 -53c36 0 60 18 68 53h74c-3 -77 -60 -134 -142 -134z" />
    <glyph glyph-name="ohungarumlaut" unicode="&#x151;" horiz-adv-x="558" 
d="M189 568l-42 28l103 161l80 -59zM362 568l-42 30l108 159l78 -62zM281 63c65 0 122 44 122 192c0 154 -60 201 -126 201s-123 -43 -123 -192c0 -153 60 -201 127 -201zM280 -13c-160 0 -258 106 -258 270c0 169 114 274 256 274c158 0 258 -102 258 -268
c0 -170 -115 -276 -256 -276z" />
    <glyph glyph-name="omacron" unicode="&#x14d;" horiz-adv-x="558" 
d="M148 602v80h261v-80h-261zM281 63c65 0 122 44 122 192c0 154 -60 201 -126 201s-123 -43 -123 -192c0 -153 60 -201 127 -201zM280 -13c-160 0 -258 106 -258 270c0 169 114 274 256 274c158 0 258 -102 258 -268c0 -170 -115 -276 -256 -276z" />
    <glyph glyph-name="oacute.pl" horiz-adv-x="558" 
d="M281 63c65 0 122 44 122 192c0 154 -60 201 -126 201s-123 -43 -123 -192c0 -153 60 -201 127 -201zM280 -13c-160 0 -258 106 -258 270c0 169 114 274 256 274c158 0 258 -102 258 -268c0 -170 -115 -276 -256 -276zM302 571l-62 16l58 167l112 -46z" />
    <glyph glyph-name="oslashacute" unicode="&#x1ff;" horiz-adv-x="558" 
d="M67 -28l-51 38l59 69c-34 45 -53 106 -53 178c0 169 114 274 256 274c60 0 112 -15 153 -43l50 58l50 -39l-53 -61c37 -46 58 -108 58 -183c0 -170 -115 -276 -256 -276c-64 0 -118 17 -159 47zM281 62c67 0 126 44 126 193c0 39 -4 71 -10 97l-213 -245
c23 -33 56 -45 97 -45zM150 264c0 -36 3 -65 8 -90l211 243c-23 29 -55 40 -92 40c-67 0 -127 -43 -127 -193zM193 571l-25 50l187 125l51 -93z" />
    <glyph glyph-name="racute" unicode="&#x155;" horiz-adv-x="378" 
d="M131 571l-25 50l187 125l51 -93zM14 0v55l68 16v360l-69 16v59l177 24l13 -7v-70h6c28 40 75 78 133 78c9 0 22 -2 27 -4v-111c-12 3 -30 4 -42 4c-48 0 -86 -10 -118 -29v-320l79 -16v-55h-274z" />
    <glyph glyph-name="rcaron" unicode="&#x159;" horiz-adv-x="378" 
d="M184 578l-116 126l26 37l121 -71l120 71l27 -37l-117 -126h-61zM14 0v55l68 16v360l-69 16v59l177 24l13 -7v-70h6c28 40 75 78 133 78c9 0 22 -2 27 -4v-111c-12 3 -30 4 -42 4c-48 0 -86 -10 -118 -29v-320l79 -16v-55h-274z" />
    <glyph glyph-name="rcommaaccent" unicode="&#x157;" horiz-adv-x="378" 
d="M73 -185c9 40 13 89 13 145h124c-6 -53 -22 -107 -51 -145h-86zM14 0v55l68 16v360l-69 16v59l177 24l13 -7v-70h6c28 40 75 78 133 78c9 0 22 -2 27 -4v-111c-12 3 -30 4 -42 4c-48 0 -86 -10 -118 -29v-320l79 -16v-55h-274z" />
    <glyph glyph-name="sacute" unicode="&#x15b;" horiz-adv-x="443" 
d="M142 571l-25 50l187 125l51 -93zM201 -13c-57 0 -121 12 -169 30l-9 141h73l24 -78c17 -9 48 -20 88 -20c56 0 95 22 95 67c0 44 -23 58 -85 77l-56 16c-87 25 -135 68 -135 151c0 89 66 160 205 160c60 0 117 -10 155 -23v-133h-70l-19 69c-16 8 -38 15 -74 15
c-49 0 -87 -16 -87 -61c0 -38 23 -55 89 -74l59 -17c98 -28 135 -75 135 -150c0 -97 -69 -170 -219 -170z" />
    <glyph glyph-name="scedilla" unicode="&#x15f;" horiz-adv-x="443" 
d="M130 -216v43c79 10 102 24 102 47c0 22 -21 32 -80 33v83c-43 4 -86 14 -120 27l-9 141h73l24 -78c17 -9 48 -20 88 -20c56 0 95 22 95 67c0 44 -23 58 -85 77l-56 16c-87 25 -135 68 -135 151c0 89 66 160 205 160c60 0 117 -10 155 -23v-133h-70l-19 69
c-16 8 -38 15 -74 15c-49 0 -87 -16 -87 -61c0 -38 23 -55 89 -74l59 -17c98 -28 135 -75 135 -150c0 -96 -67 -168 -213 -170v-32c82 -4 117 -26 117 -74c0 -53 -55 -90 -194 -97z" />
    <glyph glyph-name="scircumflex" unicode="&#x15d;" horiz-adv-x="443" 
d="M105 574l-26 37l116 126h61l117 -126l-27 -37l-120 71zM201 -13c-57 0 -121 12 -169 30l-9 141h73l24 -78c17 -9 48 -20 88 -20c56 0 95 22 95 67c0 44 -23 58 -85 77l-56 16c-87 25 -135 68 -135 151c0 89 66 160 205 160c60 0 117 -10 155 -23v-133h-70l-19 69
c-16 8 -38 15 -74 15c-49 0 -87 -16 -87 -61c0 -38 23 -55 89 -74l59 -17c98 -28 135 -75 135 -150c0 -97 -69 -170 -219 -170z" />
    <glyph glyph-name="scommaaccent" unicode="&#x219;" horiz-adv-x="443" 
d="M148 -185c9 40 13 89 13 145h124c-6 -53 -22 -107 -51 -145h-86zM201 -13c-57 0 -121 12 -169 30l-9 141h73l24 -78c17 -9 48 -20 88 -20c56 0 95 22 95 67c0 44 -23 58 -85 77l-56 16c-87 25 -135 68 -135 151c0 89 66 160 205 160c60 0 117 -10 155 -23v-133h-70
l-19 69c-16 8 -38 15 -74 15c-49 0 -87 -16 -87 -61c0 -38 23 -55 89 -74l59 -17c98 -28 135 -75 135 -150c0 -97 -69 -170 -219 -170z" />
    <glyph glyph-name="sacute.pl" horiz-adv-x="443" 
d="M201 -13c-57 0 -121 12 -169 30l-9 141h73l24 -78c17 -9 48 -20 88 -20c56 0 95 22 95 67c0 44 -23 58 -85 77l-56 16c-87 25 -135 68 -135 151c0 89 66 160 205 160c60 0 117 -10 155 -23v-133h-70l-19 69c-16 8 -38 15 -74 15c-49 0 -87 -16 -87 -61
c0 -38 23 -55 89 -74l59 -17c98 -28 135 -75 135 -150c0 -97 -69 -170 -219 -170zM248 571l-62 16l58 167l112 -46z" />
    <glyph glyph-name="tbar" unicode="&#x167;" horiz-adv-x="359" 
d="M12 303v53h67v87h-67v53l78 25l18 122h97v-122h125v-78h-125v-87h125v-53h-125v-157c0 -53 19 -74 75 -74c20 0 40 3 58 7v-59c-23 -15 -65 -30 -114 -30c-95 0 -145 33 -145 133v180h-67z" />
    <glyph glyph-name="tcaron" unicode="&#x165;" horiz-adv-x="359" 
d="M313 565l-59 10l14 170l106 -17zM224 -10c-95 0 -145 33 -145 133v320h-67v53l78 25l18 122h97v-122h125v-78h-125v-297c0 -53 19 -74 75 -74c20 0 40 3 58 7v-59c-23 -15 -65 -30 -114 -30z" />
    <glyph glyph-name="tcommaaccent" unicode="&#x163;" horiz-adv-x="359" 
d="M126 -185c9 40 13 89 13 145h124c-6 -53 -22 -107 -51 -145h-86zM224 -10c-95 0 -145 33 -145 133v320h-67v53l78 25l18 122h97v-122h125v-78h-125v-297c0 -53 19 -74 75 -74c20 0 40 3 58 7v-59c-23 -15 -65 -30 -114 -30z" />
    <glyph glyph-name="ubreve" unicode="&#x16d;" horiz-adv-x="601" 
d="M223 -11c-106 0 -149 57 -149 150v298l-69 16v58l181 18l13 -7v-349c0 -62 17 -91 85 -91c51 0 79 13 105 24v331l-66 16v58l179 18l13 -7v-437l68 -16v-56l-175 -23l-13 6v57h-6c-39 -38 -94 -64 -166 -64zM293 583c-82 0 -139 57 -142 134h75c7 -35 32 -53 67 -53
c36 0 60 18 68 53h74c-3 -77 -60 -134 -142 -134z" />
    <glyph glyph-name="uhungarumlaut" unicode="&#x171;" horiz-adv-x="601" 
d="M223 -11c-106 0 -149 57 -149 150v298l-69 16v58l181 18l13 -7v-349c0 -62 17 -91 85 -91c51 0 79 13 105 24v331l-66 16v58l179 18l13 -7v-437l68 -16v-56l-175 -23l-13 6v57h-6c-39 -38 -94 -64 -166 -64zM203 568l-42 28l103 161l80 -59zM376 568l-42 30l108 159
l78 -62z" />
    <glyph glyph-name="umacron" unicode="&#x16b;" horiz-adv-x="601" 
d="M223 -11c-106 0 -149 57 -149 150v298l-69 16v58l181 18l13 -7v-349c0 -62 17 -91 85 -91c51 0 79 13 105 24v331l-66 16v58l179 18l13 -7v-437l68 -16v-56l-175 -23l-13 6v57h-6c-39 -38 -94 -64 -166 -64zM162 602v80h261v-80h-261z" />
    <glyph glyph-name="uogonek" unicode="&#x173;" horiz-adv-x="601" 
d="M426 -200c-79 0 -112 35 -112 83c0 49 38 85 81 110v60h-6c-39 -38 -94 -64 -166 -64c-106 0 -149 57 -149 150v298l-69 16v58l181 18l13 -7v-349c0 -62 17 -91 85 -91c51 0 79 13 105 24v331l-66 16v58l179 18l13 -7v-437l68 -16v-56l-111 -15c-32 -34 -53 -66 -53 -98
c0 -25 15 -38 45 -38c11 0 21 1 29 2v-53c-17 -6 -37 -11 -67 -11z" />
    <glyph glyph-name="uring" unicode="&#x16f;" horiz-adv-x="601" 
d="M287 622c29 0 48 19 48 49c0 28 -19 49 -48 49s-48 -21 -48 -49c0 -30 19 -49 48 -49zM287 574c-59 0 -102 44 -102 97s43 96 102 96c58 0 102 -43 102 -96s-44 -97 -102 -97zM223 -11c-106 0 -149 57 -149 150v298l-69 16v58l181 18l13 -7v-349c0 -62 17 -91 85 -91
c51 0 79 13 105 24v331l-66 16v58l179 18l13 -7v-437l68 -16v-56l-175 -23l-13 6v57h-6c-39 -38 -94 -64 -166 -64z" />
    <glyph glyph-name="utilde" unicode="&#x169;" horiz-adv-x="601" 
d="M223 -11c-106 0 -149 57 -149 150v298l-69 16v58l181 18l13 -7v-349c0 -62 17 -91 85 -91c51 0 79 13 105 24v331l-66 16v58l179 18l13 -7v-437l68 -16v-56l-175 -23l-13 6v57h-6c-39 -38 -94 -64 -166 -64zM183 590l-51 29c26 59 62 98 110 98c44 0 79 -32 108 -32
c21 0 37 10 54 38l51 -29c-26 -59 -62 -98 -110 -98c-44 0 -79 32 -108 32c-21 0 -37 -10 -54 -38z" />
    <glyph glyph-name="wacute" unicode="&#x1e83;" horiz-adv-x="801" 
d="M332 571l-25 50l187 125l51 -93zM186 0l-137 450l-48 14v57h233v-57l-57 -14l82 -291h4l113 362h86l112 -362h4l82 291l-55 14v57h194v-57l-48 -14l-137 -450h-103l-105 351h-3l-115 -351h-102z" />
    <glyph glyph-name="wcircumflex" unicode="&#x175;" horiz-adv-x="801" 
d="M295 574l-26 37l116 126h61l117 -126l-27 -37l-120 71zM186 0l-137 450l-48 14v57h233v-57l-57 -14l82 -291h4l113 362h86l112 -362h4l82 291l-55 14v57h194v-57l-48 -14l-137 -450h-103l-105 351h-3l-115 -351h-102z" />
    <glyph glyph-name="wdieresis" unicode="&#x1e85;" horiz-adv-x="801" 
d="M325 594c-36 0 -67 28 -67 65c0 38 31 64 67 64c37 0 68 -26 68 -64c0 -37 -31 -65 -68 -65zM507 594c-37 0 -68 28 -68 65c0 38 31 64 68 64s67 -26 67 -64c0 -37 -30 -65 -67 -65zM186 0l-137 450l-48 14v57h233v-57l-57 -14l82 -291h4l113 362h86l112 -362h4l82 291
l-55 14v57h194v-57l-48 -14l-137 -450h-103l-105 351h-3l-115 -351h-102z" />
    <glyph glyph-name="wgrave" unicode="&#x1e81;" horiz-adv-x="801" 
d="M186 0l-137 450l-48 14v57h233v-57l-57 -14l82 -291h4l113 362h86l112 -362h4l82 291l-55 14v57h194v-57l-48 -14l-137 -450h-103l-105 351h-3l-115 -351h-102zM499 571l-213 82l51 93l187 -125z" />
    <glyph glyph-name="ycircumflex" unicode="&#x177;" horiz-adv-x="555" 
d="M141 -201c-30 0 -67 9 -85 18v76c22 -5 35 -8 53 -8c52 0 81 18 103 68l24 59l-183 438l-52 14v57h248v-57l-61 -13l114 -298h4l101 297l-59 14v57h205v-57l-51 -14l-196 -519c-33 -88 -75 -132 -165 -132zM178 574l-26 37l116 126h61l117 -126l-27 -37l-120 71z" />
    <glyph glyph-name="ygrave" unicode="&#x1ef3;" horiz-adv-x="555" 
d="M141 -201c-30 0 -67 9 -85 18v76c22 -5 35 -8 53 -8c52 0 81 18 103 68l24 59l-183 438l-52 14v57h248v-57l-61 -13l114 -298h4l101 297l-59 14v57h205v-57l-51 -14l-196 -519c-33 -88 -75 -132 -165 -132zM382 571l-213 82l51 93l187 -125z" />
    <glyph glyph-name="zacute" unicode="&#x17a;" horiz-adv-x="485" 
d="M163 571l-25 50l187 125l51 -93zM24 0v66l282 381v4h-175l-29 -100h-64l9 170h404v-66l-278 -380v-4h182l35 111h66l-13 -182h-419z" />
    <glyph glyph-name="zdotaccent" unicode="&#x17c;" horiz-adv-x="485" 
d="M24 0v66l282 381v4h-175l-29 -100h-64l9 170h404v-66l-278 -380v-4h182l35 111h66l-13 -182h-419zM247 595c-40 0 -73 29 -73 68c0 40 33 69 73 69s72 -29 72 -69c0 -39 -32 -68 -72 -68z" />
    <glyph glyph-name="zacute.pl" horiz-adv-x="485" 
d="M24 0v66l282 381v4h-175l-29 -100h-64l9 170h404v-66l-278 -380v-4h182l35 111h66l-13 -182h-419zM272 571l-62 16l58 167l112 -46z" />
    <glyph glyph-name="oneeighth" unicode="&#x215b;" horiz-adv-x="879" 
d="M675 -8c-111 0 -167 43 -167 113c0 49 39 84 89 102c-51 23 -73 55 -73 103c0 66 56 114 153 114c94 0 149 -40 149 -103c0 -48 -34 -76 -77 -93c60 -22 96 -53 96 -111c0 -77 -61 -125 -170 -125zM671 46c53 0 77 21 77 58c0 39 -34 55 -104 78c-30 -16 -50 -39 -50 -73
c0 -40 26 -63 77 -63zM697 251c24 13 44 33 44 66c0 37 -27 52 -62 52c-37 0 -62 -18 -62 -47c0 -37 24 -52 80 -71zM43 282v47l60 10v268l-65 -5v46l124 55h45v-364l61 -10v-47h-225zM120 -40l483 753h83l-483 -753h-83z" />
    <glyph glyph-name="onethird" unicode="&#x2153;" horiz-adv-x="850" 
d="M652 -7c-58 0 -98 14 -124 28v52c25 -8 58 -15 94 -15c56 0 88 21 88 65c0 48 -27 64 -82 64h-36v56h31c51 0 77 20 77 58s-23 59 -72 59c-35 0 -59 -4 -83 -12v51c27 14 71 25 117 25c87 0 138 -37 138 -104c0 -52 -35 -84 -83 -98v-3c54 -8 99 -39 99 -104
c0 -75 -60 -122 -164 -122zM43 282v47l60 10v268l-65 -5v46l124 55h45v-364l61 -10v-47h-225zM125 -40l483 753h83l-483 -753h-83z" />
    <glyph glyph-name="threeeighths" unicode="&#x215c;" horiz-adv-x="900" 
d="M695 -8c-111 0 -167 43 -167 113c0 49 39 84 89 102c-51 23 -73 55 -73 103c0 66 56 114 153 114c94 0 149 -40 149 -103c0 -48 -34 -76 -77 -93c60 -22 96 -53 96 -111c0 -77 -61 -125 -170 -125zM691 46c53 0 77 21 77 58c0 39 -34 55 -104 78c-30 -16 -50 -39 -50 -73
c0 -40 26 -63 77 -63zM717 251c24 13 44 33 44 66c0 37 -27 52 -62 52c-37 0 -62 -18 -62 -47c0 -37 24 -52 80 -71zM144 -40l483 753h83l-483 -753h-83zM158 275c-58 0 -98 14 -124 28v52c25 -8 58 -15 94 -15c56 0 88 21 88 65c0 48 -27 64 -82 64h-36v56h31
c51 0 77 20 77 58s-23 59 -72 59c-35 0 -59 -4 -83 -12v51c27 14 71 25 117 25c87 0 138 -37 138 -104c0 -52 -35 -84 -83 -98v-3c54 -8 99 -39 99 -104c0 -75 -60 -122 -164 -122z" />
    <glyph glyph-name="fiveeighths" unicode="&#x215d;" horiz-adv-x="880" 
d="M675 -8c-111 0 -167 43 -167 113c0 49 39 84 89 102c-51 23 -73 55 -73 103c0 66 56 114 153 114c94 0 149 -40 149 -103c0 -48 -34 -76 -77 -93c60 -22 96 -53 96 -111c0 -77 -61 -125 -170 -125zM671 46c53 0 77 21 77 58c0 39 -34 55 -104 78c-30 -16 -50 -39 -50 -73
c0 -40 26 -63 77 -63zM697 251c24 13 44 33 44 66c0 37 -27 52 -62 52c-37 0 -62 -18 -62 -47c0 -37 24 -52 80 -71zM142 275c-57 0 -92 14 -119 30v50c27 -9 54 -15 88 -15c57 0 93 22 93 72c0 48 -32 72 -94 72c-26 0 -47 -4 -66 -7l15 222h234l-7 -75h-171l-7 -86
c13 3 32 6 54 6c91 0 148 -45 148 -128c0 -81 -58 -141 -168 -141zM126 -40l483 753h83l-483 -753h-83z" />
    <glyph glyph-name="twothirds" unicode="&#x2154;" horiz-adv-x="898" 
d="M701 -7c-58 0 -98 14 -124 28v52c25 -8 58 -15 94 -15c56 0 88 21 88 65c0 48 -27 64 -82 64h-36v56h31c51 0 77 20 77 58s-23 59 -72 59c-35 0 -59 -4 -83 -12v51c27 14 71 25 117 25c87 0 138 -37 138 -104c0 -52 -35 -84 -83 -98v-3c54 -8 99 -39 99 -104
c0 -75 -60 -122 -164 -122zM27 282v55l100 95c47 45 83 86 83 133c0 44 -26 68 -78 68c-32 0 -63 -8 -89 -17v55c32 18 77 35 131 35c90 0 144 -45 144 -124c0 -67 -48 -119 -129 -180l-62 -48v-1h127l25 47h50l-9 -118h-293zM171 -40l483 753h83l-483 -753h-83z" />
    <glyph glyph-name="seveneighths" unicode="&#x215e;" horiz-adv-x="869" 
d="M665 -8c-111 0 -167 43 -167 113c0 49 39 84 89 102c-51 23 -73 55 -73 103c0 66 56 114 153 114c94 0 149 -40 149 -103c0 -48 -34 -76 -77 -93c60 -22 96 -53 96 -111c0 -77 -61 -125 -170 -125zM661 46c53 0 77 21 77 58c0 39 -34 55 -104 78c-30 -16 -50 -39 -50 -73
c0 -40 26 -63 77 -63zM687 251c24 13 44 33 44 66c0 37 -27 52 -62 52c-37 0 -62 -18 -62 -47c0 -37 24 -52 80 -71zM80 282l191 339v3h-166l-17 -47h-54l7 122h299v-63l-146 -354h-114zM101 -40l483 753h83l-483 -753h-83z" />
    <glyph glyph-name="uni24C5" unicode="&#x24c5;" horiz-adv-x="782" 
d="M390 -14c-201 0 -354 161 -354 358s153 356 354 356c200 0 356 -159 356 -356s-156 -358 -356 -358zM390 38c173 0 293 138 293 306s-120 306 -293 306c-174 0 -292 -138 -292 -306s118 -306 292 -306zM394 309v43c8 -1 12 -1 18 -1c38 0 53 18 53 62s-19 62 -63 62h-30
v-263l45 -11v-42h-176v42l40 11v264l-40 9v42h162c104 0 152 -41 152 -110c0 -84 -64 -112 -126 -112c-13 0 -29 2 -35 4z" />
    <glyph glyph-name="dollar.old" horiz-adv-x="516" 
d="M168 -108l12 100c-55 4 -104 14 -141 28l-8 151h71l31 -88c16 -8 35 -14 57 -17l27 219l-30 11c-89 29 -150 80 -150 179c0 105 72 179 227 181l8 63h67l-9 -66c53 -6 91 -18 116 -26l8 -134h-70l-23 73c-10 4 -23 8 -40 11l-24 -193l24 -9c98 -32 167 -77 167 -187
c0 -114 -75 -195 -240 -199l-12 -97h-68zM370 160c0 52 -30 79 -88 102l-25 -200c77 3 113 42 113 98zM148 500c0 -48 27 -71 85 -93l22 176c-63 -1 -107 -30 -107 -83z" />
    <glyph glyph-name="Euro.old" horiz-adv-x="607" 
d="M26 353v60h73c32 178 157 242 296 242c71 0 121 -11 164 -25l5 -164h-70l-34 95c-20 11 -43 17 -74 17c-91 0 -142 -56 -157 -165h189v-60h-193v-14c0 -20 0 -39 2 -56h191v-61h-183c21 -102 76 -146 176 -146c65 0 125 21 155 32v-66c-35 -24 -93 -54 -185 -54
c-144 0 -251 73 -281 234h-74v61h67c-1 12 -1 25 -1 38c0 11 0 21 1 32h-67z" />
    <glyph glyph-name="sterling.old" horiz-adv-x="527" 
d="M54 281v75h63v73c0 157 105 226 220 226c77 0 121 -19 153 -43v-70c-35 13 -66 20 -113 20c-69 0 -129 -30 -135 -144l-3 -62h168v-75h-172l-1 -24c-5 -89 -31 -122 -72 -158v-2h336l-12 -97h-452v65c54 32 83 76 83 163v53h-63z" />
    <glyph glyph-name="yen.old" horiz-adv-x="593" 
d="M73 274v60h136l-152 230l-50 19v60h256v-60l-62 -17l124 -204h3l116 204l-62 17v60h204v-60l-50 -19l-142 -230h139v-60h-164v-59h164v-59h-164v-77l80 -18v-61h-294v61l82 18v77h-164v59h164v59h-164z" />
    <glyph glyph-name="zero.old" horiz-adv-x="614" 
d="M309 65c88 0 135 63 135 226c0 168 -46 237 -137 237c-90 0 -138 -69 -138 -228c0 -168 48 -235 140 -235zM308 -12c-155 0 -276 93 -276 304c0 219 129 313 276 313c148 0 274 -92 274 -306c0 -216 -125 -311 -274 -311z" />
    <glyph glyph-name="one.old" horiz-adv-x="402" 
d="M37 0v59l102 17v397l-108 -11v59l192 80h52v-525l100 -17v-59h-338z" />
    <glyph glyph-name="two.old" horiz-adv-x="491" 
d="M12 0v68l158 135c87 75 136 139 136 203c0 68 -39 105 -125 105c-56 0 -104 -14 -147 -28v69c49 29 124 53 201 53c134 0 215 -64 215 -179c0 -104 -76 -169 -211 -267l-86 -62v-2h215l41 74h59l-11 -169h-445z" />
    <glyph glyph-name="three.old" horiz-adv-x="493" 
d="M209 -110c-88 0 -152 22 -196 47v67c46 -16 99 -28 157 -28c95 0 153 44 153 120c0 94 -47 126 -146 126h-52v76h43c89 0 136 40 136 112c0 70 -37 108 -126 108c-56 0 -95 -9 -137 -22v66c46 25 112 43 183 43c135 0 211 -61 211 -173c0 -83 -49 -140 -133 -163v-4
c92 -14 160 -68 160 -176c0 -121 -95 -199 -253 -199z" />
    <glyph glyph-name="four.old" horiz-adv-x="581" 
d="M321 -101v184h-306v72l329 438h109v-431h97v-79h-97v-184h-132zM111 162h210v277h-4l-206 -274v-3z" />
    <glyph glyph-name="five.old" horiz-adv-x="498" 
d="M205 -111c-84 0 -139 22 -185 48v66c48 -16 93 -28 150 -28c95 0 160 50 160 140c0 95 -55 133 -162 133c-39 0 -79 -7 -110 -13l24 358h359l-9 -102h-272l-13 -167c21 4 51 8 86 8c149 0 234 -76 234 -211c0 -136 -99 -232 -262 -232z" />
    <glyph glyph-name="six.old" horiz-adv-x="566" 
d="M292 -13c-165 0 -260 131 -260 330c0 274 157 388 321 388c69 0 123 -16 155 -37v-68c-29 11 -81 17 -129 17c-102 0 -197 -50 -211 -238c39 28 98 52 165 52c123 0 205 -79 205 -208c0 -130 -85 -236 -246 -236zM291 62c76 0 111 57 111 150c0 98 -45 139 -114 139
c-52 0 -89 -14 -120 -36c-1 -4 -1 -16 -1 -21c0 -135 29 -232 124 -232z" />
    <glyph glyph-name="seven.old" horiz-adv-x="496" 
d="M89 -100l303 587v4h-285l-27 -74h-66l9 176h456v-83l-243 -610h-147z" />
    <glyph glyph-name="eight.old" horiz-adv-x="578" 
d="M290 -13c-165 0 -257 70 -257 186c0 86 71 146 144 173c-81 40 -118 95 -118 175c0 104 86 184 230 184c142 0 228 -64 228 -169c0 -84 -59 -130 -126 -158c96 -38 155 -93 155 -187c0 -122 -90 -204 -256 -204zM284 61c92 0 134 44 134 110c0 74 -61 101 -178 144
c-59 -29 -93 -74 -93 -137c0 -74 47 -117 137 -117zM322 407c48 26 83 60 83 122c0 72 -53 102 -113 102c-65 0 -111 -39 -111 -94c0 -68 44 -97 141 -130z" />
    <glyph glyph-name="nine.old" horiz-adv-x="566" 
d="M211 -112c-69 0 -124 16 -156 37v68c29 -11 81 -19 129 -19c115 0 200 51 214 239c-39 -27 -98 -52 -165 -52c-123 0 -205 79 -205 209s84 235 246 235c165 0 260 -126 260 -330c0 -273 -141 -387 -323 -387zM278 241c51 0 89 14 120 36c1 4 1 16 1 22
c0 135 -30 231 -124 231c-77 0 -111 -57 -111 -150c0 -97 45 -139 114 -139z" />
    <glyph glyph-name="percent.old" horiz-adv-x="826" 
d="M194 341c49 0 66 39 66 119s-16 125 -66 125s-66 -42 -66 -121s16 -123 66 -123zM194 285c-91 0 -170 57 -170 175c0 123 82 181 170 181c87 0 170 -57 170 -177s-80 -179 -170 -179zM140 -32l459 681h81l-459 -681h-81zM632 47c49 0 66 38 66 119c0 80 -16 125 -66 125
s-66 -42 -66 -121s16 -123 66 -123zM631 -10c-91 0 -168 58 -168 176c0 123 81 181 169 181c87 0 170 -57 170 -177s-80 -180 -171 -180z" />
    <glyph glyph-name="perthousand.old" horiz-adv-x="1201" 
d="M194 341c49 0 66 39 66 119s-16 125 -66 125s-66 -42 -66 -121s16 -123 66 -123zM194 285c-91 0 -170 57 -170 175c0 123 82 181 170 181c87 0 170 -57 170 -177s-80 -179 -170 -179zM136 -32l458 681h82l-459 -681h-81zM623 47c50 0 67 38 67 119c0 80 -16 125 -66 125
s-67 -42 -67 -121s17 -123 66 -123zM623 -10c-91 0 -169 58 -169 176c0 123 82 181 170 181c87 0 170 -57 170 -177s-80 -180 -171 -180zM1006 47c49 0 66 38 66 119c0 80 -16 125 -65 125c-50 0 -67 -42 -67 -121s17 -123 66 -123zM1006 -10c-91 0 -169 58 -169 176
c0 123 82 181 170 181c86 0 169 -57 169 -177s-80 -180 -170 -180z" />
    <glyph glyph-name="plus.old" horiz-adv-x="531" 
d="M222 530h87v-176h169v-83h-169v-176h-87v176h-169v83h169v176z" />
    <glyph glyph-name="minus.old" horiz-adv-x="531" 
d="M53 271v83h425v-83h-425z" />
    <glyph glyph-name="multiply.old" horiz-adv-x="531" 
d="M121 105l-57 57l145 146l-145 147l57 57l145 -146l145 145l57 -57l-145 -146l146 -146l-58 -57l-145 146z" />
    <glyph glyph-name="divide.old" horiz-adv-x="531" 
d="M265 63c-42 0 -74 34 -74 71c0 40 32 72 74 72s74 -32 74 -72c0 -37 -32 -71 -74 -71zM53 271v83h425v-83h-425zM265 418c-42 0 -74 33 -74 71c0 40 32 72 74 72s74 -32 74 -72c0 -38 -32 -71 -74 -71z" />
    <glyph glyph-name="equal.old" horiz-adv-x="524" 
d="M55 147v83h414v-83h-414zM55 329v83h414v-83h-414z" />
    <glyph glyph-name="less.old" horiz-adv-x="504" 
d="M55 344l385 174v-94l-279 -117l279 -118v-94l-385 175v74z" />
    <glyph glyph-name="greater.old" horiz-adv-x="504" 
d="M449 270l-386 -175v94l280 117l-280 118v94l386 -174v-74z" />
    <glyph glyph-name="numbersign.old" horiz-adv-x="515" 
d="M61 379v103h95l25 161h74l-26 -161h106l26 161h73l-25 -161h77v-103h-94l-16 -103h78v-103h-94l-28 -173h-73l27 173h-106l-27 -173h-74l28 173h-79v103h95l16 103h-78zM213 379l-17 -103h106l17 103h-106z" />
    <glyph glyph-name="zero.num" horiz-adv-x="427" 
d="M214 332c52 0 79 45 79 155c0 114 -24 161 -79 161c-54 0 -79 -50 -79 -156c0 -112 24 -160 79 -160zM214 274c-105 0 -184 66 -184 213c0 153 85 219 184 219c103 0 183 -66 183 -214c0 -151 -83 -218 -183 -218z" />
    <glyph glyph-name="one.num" horiz-adv-x="294" 
d="M40 282v47l60 10v268l-65 -5v46l124 55h45v-364l61 -10v-47h-225z" />
    <glyph glyph-name="two.num" horiz-adv-x="356" 
d="M24 282v55l100 95c47 45 83 86 83 133c0 44 -26 68 -78 68c-32 0 -63 -8 -89 -17v55c32 18 77 35 131 35c90 0 144 -45 144 -124c0 -67 -48 -119 -129 -180l-62 -48v-1h127l25 47h50l-9 -118h-293z" />
    <glyph glyph-name="three.num" horiz-adv-x="350" 
d="M155 275c-58 0 -98 14 -124 28v52c25 -8 58 -15 94 -15c56 0 88 21 88 65c0 48 -27 64 -82 64h-36v56h31c51 0 77 20 77 58s-23 59 -72 59c-35 0 -59 -4 -83 -12v51c27 14 71 25 117 25c87 0 138 -37 138 -104c0 -52 -35 -84 -83 -98v-3c54 -8 99 -39 99 -104
c0 -75 -60 -122 -164 -122z" />
    <glyph glyph-name="four.num" horiz-adv-x="396" 
d="M160 282v47l50 10v63h-185v50l200 247h84v-241h56v-56h-56v-63l51 -10v-47h-200zM98 458h112v140h-3l-109 -138v-2z" />
    <glyph glyph-name="five.num" horiz-adv-x="338" 
d="M139 275c-57 0 -92 14 -119 30v50c27 -9 54 -15 88 -15c57 0 93 22 93 72c0 48 -32 72 -94 72c-26 0 -47 -4 -66 -7l15 222h234l-7 -75h-171l-7 -86c13 3 32 6 54 6c91 0 148 -45 148 -128c0 -81 -58 -141 -168 -141z" />
    <glyph glyph-name="six.num" horiz-adv-x="395" 
d="M203 274c-109 0 -172 78 -172 201c0 164 97 231 202 231c49 0 84 -10 106 -23v-54c-19 7 -52 10 -83 10c-61 0 -116 -25 -123 -122c24 13 61 27 102 27c81 0 130 -49 130 -126c0 -78 -54 -144 -162 -144zM203 331c41 0 64 29 64 82s-28 74 -66 74c-27 0 -51 -6 -68 -17
v-15c0 -77 19 -124 70 -124z" />
    <glyph glyph-name="seven.num" horiz-adv-x="355" 
d="M77 282l191 339v3h-166l-17 -47h-54l7 122h299v-63l-146 -354h-114z" />
    <glyph glyph-name="eight.num" horiz-adv-x="400" 
d="M199 274c-111 0 -167 43 -167 113c0 49 39 84 89 102c-51 23 -73 55 -73 103c0 66 56 114 153 114c94 0 149 -40 149 -103c0 -48 -34 -76 -77 -93c60 -21 96 -53 96 -111c0 -77 -61 -125 -170 -125zM195 328c53 0 77 21 77 58c0 39 -34 55 -104 79
c-30 -17 -50 -40 -50 -74c0 -40 26 -63 77 -63zM221 533c24 13 44 33 44 67c0 37 -27 51 -62 51c-37 0 -62 -18 -62 -47c0 -37 24 -52 80 -71z" />
    <glyph glyph-name="nine.num" horiz-adv-x="394" 
d="M158 274c-47 0 -82 11 -104 24v54c19 -6 52 -11 82 -11c73 0 120 26 126 123c-23 -14 -61 -28 -103 -28c-81 0 -130 49 -130 126c0 79 54 144 162 144c110 0 173 -80 173 -201c0 -161 -84 -231 -206 -231zM194 494c28 0 51 6 68 17v14c0 78 -20 124 -71 124
c-40 0 -64 -29 -64 -82s27 -73 67 -73z" />
    <glyph glyph-name="zero.den" horiz-adv-x="427" 
d="M214 50c52 0 79 45 79 155c0 114 -24 161 -79 161c-54 0 -79 -50 -79 -156c0 -112 24 -160 79 -160zM214 -8c-105 0 -184 66 -184 213c0 153 85 219 184 219c103 0 183 -66 183 -214c0 -151 -83 -218 -183 -218z" />
    <glyph glyph-name="one.den" horiz-adv-x="294" 
d="M40 0v47l60 10v268l-65 -5v46l124 55h45v-364l61 -10v-47h-225z" />
    <glyph glyph-name="two.den" horiz-adv-x="356" 
d="M24 0v55l100 95c47 45 83 86 83 133c0 44 -26 68 -78 68c-32 0 -63 -8 -89 -17v55c32 18 77 35 131 35c90 0 144 -45 144 -124c0 -67 -48 -119 -129 -180l-62 -48v-1h127l25 47h50l-9 -118h-293z" />
    <glyph glyph-name="three.den" horiz-adv-x="350" 
d="M155 -7c-58 0 -98 14 -124 28v52c25 -8 58 -15 94 -15c56 0 88 21 88 65c0 48 -27 64 -82 64h-36v56h31c51 0 77 20 77 58s-23 59 -72 59c-35 0 -59 -4 -83 -12v51c27 14 71 25 117 25c87 0 138 -37 138 -104c0 -52 -35 -84 -83 -98v-3c54 -8 99 -39 99 -104
c0 -75 -60 -122 -164 -122z" />
    <glyph glyph-name="four.den" horiz-adv-x="396" 
d="M160 0v47l50 10v63h-185v50l200 247h84v-241h56v-56h-56v-63l51 -10v-47h-200zM98 176h112v140h-3l-109 -138v-2z" />
    <glyph glyph-name="five.den" horiz-adv-x="338" 
d="M139 -7c-57 0 -92 14 -119 30v50c27 -9 54 -15 88 -15c57 0 93 22 93 72c0 48 -32 72 -94 72c-26 0 -47 -4 -66 -7l15 222h232l-6 -74h-170l-7 -87c13 3 32 6 54 6c91 0 148 -45 148 -128c0 -81 -58 -141 -168 -141z" />
    <glyph glyph-name="six.den" horiz-adv-x="395" 
d="M203 -8c-109 0 -172 78 -172 201c0 164 97 231 202 231c49 0 84 -10 106 -23v-54c-19 7 -52 10 -83 10c-61 0 -116 -25 -123 -122c24 13 61 27 102 27c81 0 130 -49 130 -126c0 -78 -54 -144 -162 -144zM203 49c41 0 64 29 64 82s-28 74 -66 74c-27 0 -51 -6 -68 -17v-15
c0 -77 19 -124 70 -124z" />
    <glyph glyph-name="seven.den" horiz-adv-x="355" 
d="M77 0l191 339v3h-166l-17 -47h-54l7 122h299v-63l-146 -354h-114z" />
    <glyph glyph-name="eight.den" horiz-adv-x="400" 
d="M199 -8c-111 0 -167 43 -167 113c0 49 39 84 89 102c-51 23 -73 55 -73 103c0 66 56 114 153 114c94 0 149 -40 149 -103c0 -48 -34 -76 -77 -93c60 -22 96 -53 96 -111c0 -77 -61 -125 -170 -125zM195 46c53 0 77 21 77 58c0 39 -34 55 -104 78c-30 -16 -50 -39 -50 -73
c0 -40 26 -63 77 -63zM221 251c24 13 44 33 44 66c0 37 -27 52 -62 52c-37 0 -62 -18 -62 -47c0 -37 24 -52 80 -71z" />
    <glyph glyph-name="nine.den" horiz-adv-x="394" 
d="M158 -8c-47 0 -82 11 -104 24v54c19 -6 52 -11 82 -11c73 0 120 26 126 123c-23 -14 -61 -28 -103 -28c-81 0 -130 49 -130 126c0 79 54 144 162 144c110 0 173 -80 173 -201c0 -161 -84 -231 -206 -231zM194 212c28 0 51 6 68 17v14c0 78 -20 124 -71 124
c-40 0 -64 -29 -64 -82s27 -73 67 -73z" />
    <glyph glyph-name="zero.sub" horiz-adv-x="427" 
d="M214 -70c52 0 79 45 79 155c0 114 -24 161 -79 161c-54 0 -79 -50 -79 -156c0 -112 24 -160 79 -160zM214 -128c-105 0 -184 66 -184 213c0 153 85 219 184 219c103 0 183 -66 183 -214c0 -151 -83 -218 -183 -218z" />
    <glyph glyph-name="one.sub" horiz-adv-x="294" 
d="M40 -120v47l60 10v268l-65 -5v46l124 55h45v-364l61 -10v-47h-225z" />
    <glyph glyph-name="two.sub" horiz-adv-x="356" 
d="M24 -120v55l100 95c47 45 83 86 83 133c0 44 -26 68 -78 68c-32 0 -63 -8 -89 -17v55c32 18 77 35 131 35c90 0 144 -45 144 -124c0 -67 -48 -119 -129 -180l-62 -48v-2h127l25 48h50l-9 -118h-293z" />
    <glyph glyph-name="three.sub" horiz-adv-x="350" 
d="M155 -127c-58 0 -98 14 -124 28v51c25 -7 58 -14 94 -14c56 0 88 21 88 65c0 48 -27 64 -82 64h-36v56h31c51 0 77 20 77 58s-23 59 -72 59c-35 0 -59 -4 -83 -12v51c27 14 71 25 117 25c87 0 138 -37 138 -104c0 -52 -35 -84 -83 -98v-3c54 -8 99 -39 99 -104
c0 -75 -60 -122 -164 -122z" />
    <glyph glyph-name="four.sub" horiz-adv-x="396" 
d="M160 -120v47l50 10v63h-185v50l200 247h84v-241h56v-56h-56v-63l51 -10v-47h-200zM98 56h112v140h-3l-109 -138v-2z" />
    <glyph glyph-name="five.sub" horiz-adv-x="338" 
d="M139 -127c-57 0 -92 14 -119 30v50c27 -9 54 -15 88 -15c57 0 93 22 93 72c0 48 -32 72 -94 72c-26 0 -47 -4 -66 -7l15 222h232l-6 -74h-170l-7 -87c13 3 32 6 54 6c91 0 148 -45 148 -128c0 -81 -58 -141 -168 -141z" />
    <glyph glyph-name="six.sub" horiz-adv-x="395" 
d="M203 -128c-109 0 -172 78 -172 201c0 164 97 231 202 231c49 0 84 -10 106 -23v-54c-19 7 -52 10 -83 10c-61 0 -116 -25 -123 -122c24 13 61 27 102 27c81 0 130 -49 130 -126c0 -78 -54 -144 -162 -144zM203 -71c41 0 64 29 64 82s-28 74 -66 74c-27 0 -51 -6 -68 -17
v-15c0 -78 19 -124 70 -124z" />
    <glyph glyph-name="seven.sub" horiz-adv-x="355" 
d="M77 -120l191 339v3h-166l-17 -47h-54l7 122h299v-63l-146 -354h-114z" />
    <glyph glyph-name="eight.sub" horiz-adv-x="400" 
d="M199 -128c-111 0 -167 43 -167 113c0 49 39 84 89 102c-51 23 -73 55 -73 103c0 66 56 114 153 114c94 0 149 -40 149 -103c0 -48 -34 -76 -77 -93c60 -22 96 -53 96 -111c0 -77 -61 -125 -170 -125zM195 -74c53 0 77 21 77 58c0 39 -34 55 -104 78
c-30 -16 -50 -39 -50 -73c0 -40 26 -63 77 -63zM221 131c24 13 44 33 44 66c0 37 -27 52 -62 52c-37 0 -62 -18 -62 -47c0 -37 24 -52 80 -71z" />
    <glyph glyph-name="nine.sub" horiz-adv-x="394" 
d="M158 -128c-47 0 -82 11 -104 23v54c19 -5 52 -10 82 -10c73 0 120 26 126 123c-23 -14 -61 -28 -103 -28c-81 0 -130 49 -130 126c0 79 54 144 162 144c110 0 173 -80 173 -201c0 -161 -84 -231 -206 -231zM194 92c28 0 51 6 68 17v14c0 78 -20 124 -71 124
c-40 0 -64 -29 -64 -82s27 -73 67 -73z" />
    <glyph glyph-name="zero.sup" horiz-adv-x="427" 
d="M214 372c52 0 79 45 79 155c0 114 -24 161 -79 161c-54 0 -79 -50 -79 -156c0 -112 24 -160 79 -160zM214 314c-105 0 -184 66 -184 213c0 153 85 219 184 219c103 0 183 -66 183 -214c0 -151 -83 -218 -183 -218z" />
    <glyph glyph-name="one.sup" horiz-adv-x="294" 
d="M40 322v47l60 10v268l-65 -5v46l124 55h45v-364l61 -10v-47h-225z" />
    <glyph glyph-name="two.sup" horiz-adv-x="356" 
d="M24 322v55l100 95c47 45 83 86 83 133c0 44 -26 68 -78 68c-32 0 -63 -8 -89 -17v55c32 18 77 35 131 35c90 0 144 -45 144 -124c0 -67 -48 -119 -129 -180l-62 -48v-1h127l25 47h50l-9 -118h-293z" />
    <glyph glyph-name="three.sup" horiz-adv-x="350" 
d="M155 315c-58 0 -98 14 -124 28v52c25 -8 58 -15 94 -15c56 0 88 21 88 65c0 48 -27 64 -82 64h-36v56h31c51 0 77 20 77 58s-23 59 -72 59c-35 0 -59 -4 -83 -12v51c27 14 71 25 117 25c87 0 138 -37 138 -104c0 -52 -35 -84 -83 -98v-3c54 -8 99 -39 99 -104
c0 -75 -60 -122 -164 -122z" />
    <glyph glyph-name="four.sup" horiz-adv-x="396" 
d="M160 322v47l50 10v63h-185v50l200 247h84v-241h56v-56h-56v-63l51 -10v-47h-200zM98 498h112v140h-3l-109 -138v-2z" />
    <glyph glyph-name="five.sup" horiz-adv-x="338" 
d="M139 315c-57 0 -92 14 -119 30v50c27 -9 54 -15 88 -15c57 0 93 22 93 72c0 48 -32 72 -94 72c-26 0 -47 -4 -66 -7l15 222h232l-6 -74h-170l-7 -87c13 3 32 6 54 6c91 0 148 -45 148 -128c0 -81 -58 -141 -168 -141z" />
    <glyph glyph-name="six.sup" horiz-adv-x="395" 
d="M203 314c-109 0 -172 78 -172 201c0 164 97 231 202 231c49 0 84 -10 106 -23v-54c-19 7 -52 10 -83 10c-61 0 -116 -25 -123 -122c24 13 61 27 102 27c81 0 130 -49 130 -126c0 -78 -54 -144 -162 -144zM203 371c41 0 64 29 64 82s-28 74 -66 74c-27 0 -51 -6 -68 -17
v-15c0 -77 19 -124 70 -124z" />
    <glyph glyph-name="seven.sup" horiz-adv-x="355" 
d="M77 322l191 339v3h-166l-17 -47h-54l7 122h299v-63l-146 -354h-114z" />
    <glyph glyph-name="eight.sup" horiz-adv-x="400" 
d="M199 314c-111 0 -167 43 -167 113c0 49 39 84 89 102c-51 23 -73 55 -73 103c0 66 56 114 153 114c94 0 149 -40 149 -103c0 -48 -34 -76 -77 -93c60 -21 96 -53 96 -111c0 -77 -61 -125 -170 -125zM195 368c53 0 77 21 77 58c0 39 -34 55 -104 79
c-30 -17 -50 -40 -50 -74c0 -40 26 -63 77 -63zM221 573c24 13 44 33 44 67c0 37 -27 51 -62 51c-37 0 -62 -18 -62 -47c0 -37 24 -52 80 -71z" />
    <glyph glyph-name="nine.sup" horiz-adv-x="394" 
d="M158 314c-47 0 -82 11 -104 24v54c19 -6 52 -11 82 -11c73 0 120 26 126 123c-23 -14 -61 -28 -103 -28c-81 0 -130 49 -130 126c0 79 54 144 162 144c110 0 173 -80 173 -201c0 -161 -84 -231 -206 -231zM194 534c28 0 51 6 68 17v14c0 78 -20 124 -71 124
c-40 0 -64 -29 -64 -82s27 -73 67 -73z" />
    <glyph glyph-name="uni2033" unicode="&#x2033;" horiz-adv-x="405" 
d="M41 481l17 212h128l-61 -212h-84zM218 481l17 212h128l-61 -212h-84z" />
    <glyph glyph-name="uni2032" unicode="&#x2032;" horiz-adv-x="228" 
d="M41 481l17 212h128l-61 -212h-84z" />
    <glyph glyph-name="K.alt" horiz-adv-x="688" 
d="M19 0v62l81 18v533l-81 18v62h299v-62l-80 -17v-274l243 274l-62 17v62h240v-62l-64 -18l-197 -212l214 -321l69 -18v-62h-179l-200 304l-64 -60v-165l80 -17v-62h-299z" />
    <glyph glyph-name="P.alt" horiz-adv-x="587" 
d="M19 0v62l81 18v533l-81 18v62h287c196 0 267 -77 267 -201c0 -144 -85 -212 -238 -212c-36 0 -69 3 -97 8v-208l96 -18v-62h-315zM238 612v-256c19 -2 44 -4 71 -4c94 0 123 46 123 133c0 89 -36 127 -118 127h-76z" />
    <glyph glyph-name="R.alt" horiz-adv-x="669" 
d="M456 344v-4c80 -17 122 -50 122 -139v-79c0 -43 20 -54 58 -54h23v-58c-18 -11 -50 -20 -89 -20c-80 0 -130 30 -130 131v87c0 67 -23 90 -115 90h-85v-218l76 -18v-62h-297v62l82 18v532l-80 19v62h301c186 0 261 -70 261 -188c0 -94 -51 -141 -127 -161zM240 369h92
c85 0 112 49 112 131c0 80 -36 113 -123 113h-81v-244z" />
    <glyph glyph-name="a.alt" horiz-adv-x="500" 
d="M171 -13c-93 0 -156 56 -156 142c0 95 67 127 171 147l117 24v47c0 75 -16 106 -103 106c-17 0 -34 -1 -51 -4l-18 -79h-78v131c45 15 122 30 195 30c129 0 181 -51 181 -160v-273c0 -30 17 -36 43 -36h22v-54c-14 -8 -52 -19 -91 -19c-47 0 -77 16 -87 57h-5
c-27 -31 -73 -59 -140 -59zM221 66c34 0 66 16 82 30v135l-82 -6c-59 -4 -79 -32 -79 -80c0 -50 24 -79 79 -79z" />
    <glyph glyph-name="k.alt" horiz-adv-x="558" 
d="M14 0v55l68 15v581l-69 16v58l182 23l14 -7v-452l34 13l130 148l-57 14v57h218v-57l-65 -15l-129 -148l159 -232l56 -14v-55h-154l-155 230l-37 -4v-157l65 -14v-55h-260z" />
    <glyph glyph-name="Kcommaaccent.alt" horiz-adv-x="688" 
d="M19 0v62l81 18v533l-81 18v62h299v-62l-80 -17v-274l243 274l-62 17v62h240v-62l-64 -18l-197 -212l214 -321l69 -18v-62h-179l-200 304l-64 -60v-165l80 -17v-62h-299zM293 -185c9 40 13 89 13 145h124c-6 -53 -22 -107 -51 -145h-86z" />
    <glyph glyph-name="Racute.alt" horiz-adv-x="669" 
d="M456 787l-219 -61l-20 52l198 105zM456 344v-4c80 -17 122 -50 122 -139v-79c0 -43 20 -54 58 -54h23v-58c-18 -11 -50 -20 -89 -20c-80 0 -130 30 -130 131v87c0 67 -23 90 -115 90h-85v-218l76 -18v-62h-297v62l82 18v532l-80 19v62h301c186 0 261 -70 261 -188
c0 -94 -51 -141 -127 -161zM240 369h92c85 0 112 49 112 131c0 80 -36 113 -123 113h-81v-244z" />
    <glyph glyph-name="Rcaron.alt" horiz-adv-x="669" 
d="M448 879l23 -38l-120 -106h-61l-119 106l23 38l127 -54zM456 344v-4c80 -17 122 -50 122 -139v-79c0 -43 20 -54 58 -54h23v-58c-18 -11 -50 -20 -89 -20c-80 0 -130 30 -130 131v87c0 67 -23 90 -115 90h-85v-218l76 -18v-62h-297v62l82 18v532l-80 19v62h301
c186 0 261 -70 261 -188c0 -94 -51 -141 -127 -161zM240 369h92c85 0 112 49 112 131c0 80 -36 113 -123 113h-81v-244z" />
    <glyph glyph-name="Rcommaaccent.alt" horiz-adv-x="669" 
d="M276 -185c9 40 13 89 13 145h124c-6 -53 -22 -107 -51 -145h-86zM456 344v-4c80 -17 122 -50 122 -139v-79c0 -43 20 -54 58 -54h23v-58c-18 -11 -50 -20 -89 -20c-80 0 -130 30 -130 131v87c0 67 -23 90 -115 90h-85v-218l76 -18v-62h-297v62l82 18v532l-80 19v62h301
c186 0 261 -70 261 -188c0 -94 -51 -141 -127 -161zM240 369h92c85 0 112 49 112 131c0 80 -36 113 -123 113h-81v-244z" />
    <glyph glyph-name="Thorn.alt" horiz-adv-x="593" 
d="M19 0v62l81 18v533l-81 18v62h296v-62l-77 -18v-71h73c195 0 262 -74 262 -183c0 -125 -84 -192 -238 -192c-38 0 -70 3 -97 9v-96l96 -18v-62h-315zM238 464v-221c18 -2 43 -4 71 -4c94 0 123 38 123 116c0 79 -36 109 -118 109h-76z" />
    <glyph glyph-name="aacute.alt" horiz-adv-x="500" 
d="M155 571l-25 50l187 125l51 -93zM171 -13c-93 0 -156 56 -156 142c0 95 67 127 171 147l117 24v47c0 75 -16 106 -103 106c-17 0 -34 -1 -51 -4l-18 -79h-78v131c45 15 122 30 195 30c129 0 181 -51 181 -160v-273c0 -30 17 -36 43 -36h22v-54c-14 -8 -52 -19 -91 -19
c-47 0 -77 16 -87 57h-5c-27 -31 -73 -59 -140 -59zM221 66c34 0 66 16 82 30v135l-82 -6c-59 -4 -79 -32 -79 -80c0 -50 24 -79 79 -79z" />
    <glyph glyph-name="abreve.alt" horiz-adv-x="500" 
d="M171 -13c-93 0 -156 56 -156 142c0 95 67 127 171 147l117 24v47c0 75 -16 106 -103 106c-17 0 -34 -1 -51 -4l-18 -79h-78v131c45 15 122 30 195 30c129 0 181 -51 181 -160v-273c0 -30 17 -36 43 -36h22v-54c-14 -8 -52 -19 -91 -19c-47 0 -77 16 -87 57h-5
c-27 -31 -73 -59 -140 -59zM221 66c34 0 66 16 82 30v135l-82 -6c-59 -4 -79 -32 -79 -80c0 -50 24 -79 79 -79zM235 583c-82 0 -139 57 -142 134h75c7 -35 32 -53 67 -53c36 0 60 18 68 53h74c-3 -77 -60 -134 -142 -134z" />
    <glyph glyph-name="acircumflex.alt" horiz-adv-x="500" 
d="M118 574l-26 37l116 126h61l117 -126l-27 -37l-120 71zM171 -13c-93 0 -156 56 -156 142c0 95 67 127 171 147l117 24v47c0 75 -16 106 -103 106c-17 0 -34 -1 -51 -4l-18 -79h-78v131c45 15 122 30 195 30c129 0 181 -51 181 -160v-273c0 -30 17 -36 43 -36h22v-54
c-14 -8 -52 -19 -91 -19c-47 0 -77 16 -87 57h-5c-27 -31 -73 -59 -140 -59zM221 66c34 0 66 16 82 30v135l-82 -6c-59 -4 -79 -32 -79 -80c0 -50 24 -79 79 -79z" />
    <glyph glyph-name="adieresis.alt" horiz-adv-x="500" 
d="M148 594c-36 0 -67 28 -67 65c0 38 31 64 67 64c37 0 68 -26 68 -64c0 -37 -31 -65 -68 -65zM330 594c-37 0 -68 28 -68 65c0 38 31 64 68 64s67 -26 67 -64c0 -37 -30 -65 -67 -65zM171 -13c-93 0 -156 56 -156 142c0 95 67 127 171 147l117 24v47
c0 75 -16 106 -103 106c-17 0 -34 -1 -51 -4l-18 -79h-78v131c45 15 122 30 195 30c129 0 181 -51 181 -160v-273c0 -30 17 -36 43 -36h22v-54c-14 -8 -52 -19 -91 -19c-47 0 -77 16 -87 57h-5c-27 -31 -73 -59 -140 -59zM221 66c34 0 66 16 82 30v135l-82 -6
c-59 -4 -79 -32 -79 -80c0 -50 24 -79 79 -79z" />
    <glyph glyph-name="agrave.alt" horiz-adv-x="500" 
d="M171 -13c-93 0 -156 56 -156 142c0 95 67 127 171 147l117 24v47c0 75 -16 106 -103 106c-17 0 -34 -1 -51 -4l-18 -79h-78v131c45 15 122 30 195 30c129 0 181 -51 181 -160v-273c0 -30 17 -36 43 -36h22v-54c-14 -8 -52 -19 -91 -19c-47 0 -77 16 -87 57h-5
c-27 -31 -73 -59 -140 -59zM221 66c34 0 66 16 82 30v135l-82 -6c-59 -4 -79 -32 -79 -80c0 -50 24 -79 79 -79zM322 571l-213 82l51 93l187 -125z" />
    <glyph glyph-name="amacron.alt" horiz-adv-x="500" 
d="M171 -13c-93 0 -156 56 -156 142c0 95 67 127 171 147l117 24v47c0 75 -16 106 -103 106c-17 0 -34 -1 -51 -4l-18 -79h-78v131c45 15 122 30 195 30c129 0 181 -51 181 -160v-273c0 -30 17 -36 43 -36h22v-54c-14 -8 -52 -19 -91 -19c-47 0 -77 16 -87 57h-5
c-27 -31 -73 -59 -140 -59zM221 66c34 0 66 16 82 30v135l-82 -6c-59 -4 -79 -32 -79 -80c0 -50 24 -79 79 -79zM108 602v80h261v-80h-261z" />
    <glyph glyph-name="aogonek.alt" horiz-adv-x="500" 
d="M408 -200c-79 0 -112 35 -112 83c0 49 40 85 86 107c-35 5 -58 23 -66 56h-5c-27 -31 -73 -59 -140 -59c-93 0 -156 56 -156 142c0 95 67 127 171 147l117 24v47c0 75 -16 106 -103 106c-17 0 -34 -1 -51 -4l-18 -79h-78v131c45 15 122 30 195 30c129 0 181 -51 181 -160
v-273c0 -30 17 -36 43 -36h22v-54c-56 -21 -93 -65 -93 -108c0 -25 15 -38 45 -38c11 0 21 1 29 2v-53c-17 -6 -37 -11 -67 -11zM221 66c34 0 66 16 82 30v135l-82 -6c-59 -4 -79 -32 -79 -80c0 -50 24 -79 79 -79z" />
    <glyph glyph-name="aring.alt" horiz-adv-x="500" 
d="M239 622c29 0 48 19 48 49c0 28 -19 49 -48 49s-48 -21 -48 -49c0 -30 19 -49 48 -49zM239 574c-59 0 -102 44 -102 97s43 96 102 96c58 0 102 -43 102 -96s-44 -97 -102 -97zM171 -13c-93 0 -156 56 -156 142c0 95 67 127 171 147l117 24v47c0 75 -16 106 -103 106
c-17 0 -34 -1 -51 -4l-18 -79h-78v131c45 15 122 30 195 30c129 0 181 -51 181 -160v-273c0 -30 17 -36 43 -36h22v-54c-14 -8 -52 -19 -91 -19c-47 0 -77 16 -87 57h-5c-27 -31 -73 -59 -140 -59zM221 66c34 0 66 16 82 30v135l-82 -6c-59 -4 -79 -32 -79 -80
c0 -50 24 -79 79 -79z" />
    <glyph glyph-name="aringacute.alt" horiz-adv-x="500" 
d="M239 608c29 0 48 19 48 49c0 28 -19 49 -48 49s-48 -21 -48 -49c0 -30 19 -49 48 -49zM239 560c-59 0 -102 44 -102 97s43 96 102 96c58 0 102 -43 102 -96s-44 -97 -102 -97zM171 -13c-93 0 -156 56 -156 142c0 95 67 127 171 147l117 24v47c0 75 -16 106 -103 106
c-17 0 -34 -1 -51 -4l-18 -79h-78v131c45 15 122 30 195 30c129 0 181 -51 181 -160v-273c0 -30 17 -36 43 -36h22v-54c-14 -8 -52 -19 -91 -19c-47 0 -77 16 -87 57h-5c-27 -31 -73 -59 -140 -59zM221 66c34 0 66 16 82 30v135l-82 -6c-59 -4 -79 -32 -79 -80
c0 -50 24 -79 79 -79zM365 826l-219 -61l-20 52l198 105z" />
    <glyph glyph-name="atilde.alt" horiz-adv-x="500" 
d="M171 -13c-93 0 -156 56 -156 142c0 95 67 127 171 147l117 24v47c0 75 -16 106 -103 106c-17 0 -34 -1 -51 -4l-18 -79h-78v131c45 15 122 30 195 30c129 0 181 -51 181 -160v-273c0 -30 17 -36 43 -36h22v-54c-14 -8 -52 -19 -91 -19c-47 0 -77 16 -87 57h-5
c-27 -31 -73 -59 -140 -59zM221 66c34 0 66 16 82 30v135l-82 -6c-59 -4 -79 -32 -79 -80c0 -50 24 -79 79 -79zM129 590l-51 29c26 59 62 98 110 98c44 0 79 -32 108 -32c21 0 37 10 54 38l51 -29c-26 -59 -62 -98 -110 -98c-44 0 -79 32 -108 32c-21 0 -37 -10 -54 -38z
" />
    <glyph glyph-name="ae.alt" horiz-adv-x="785" 
d="M248 531c73 0 116 -20 140 -62c39 40 93 62 157 62c154 0 218 -98 218 -283h-333c6 -121 61 -173 159 -173c72 0 111 14 149 26v-64c-35 -22 -88 -49 -179 -49c-98 0 -165 32 -207 87c-39 -50 -103 -88 -177 -88c-97 0 -160 56 -160 142c0 95 65 133 171 152l117 22v44
c0 75 -16 106 -103 106c-17 0 -34 -1 -51 -4l-18 -79h-78v131c45 15 122 30 195 30zM327 118c-16 33 -24 74 -26 119l-80 -6c-59 -4 -79 -38 -79 -86c0 -50 25 -79 80 -79c33 0 68 15 105 52zM430 311l201 7c0 98 -31 139 -92 139c-65 0 -102 -43 -109 -146z" />
    <glyph glyph-name="aeacute.alt" horiz-adv-x="785" 
d="M344 571l-25 50l187 125l51 -93zM248 531c73 0 116 -20 140 -62c39 40 93 62 157 62c154 0 218 -98 218 -283h-333c6 -121 61 -173 159 -173c72 0 111 14 149 26v-64c-35 -22 -88 -49 -179 -49c-98 0 -165 32 -207 87c-39 -50 -103 -88 -177 -88c-97 0 -160 56 -160 142
c0 95 65 133 171 152l117 22v44c0 75 -16 106 -103 106c-17 0 -34 -1 -51 -4l-18 -79h-78v131c45 15 122 30 195 30zM327 118c-16 33 -24 74 -26 119l-80 -6c-59 -4 -79 -38 -79 -86c0 -50 25 -79 80 -79c33 0 68 15 105 52zM430 311l201 7c0 98 -31 139 -92 139
c-65 0 -102 -43 -109 -146z" />
    <glyph glyph-name="kcommaaccent.alt" horiz-adv-x="558" 
d="M14 0v55l68 15v581l-69 16v58l182 23l14 -7v-452l34 13l130 148l-57 14v57h218v-57l-65 -15l-129 -148l159 -232l56 -14v-55h-154l-155 230l-37 -4v-157l65 -14v-55h-260zM216 -185c9 40 13 89 13 145h124c-6 -53 -22 -107 -51 -145h-86z" />
    <glyph glyph-name="f_f_k.alt" horiz-adv-x="1170" 
d="M1013 0l-156 230l-37 -4v-157l66 -14v-55h-252v55l60 15v581c-28 8 -50 14 -83 14c-63 0 -95 -21 -95 -98v-46h109v-78h-109v-373l59 -15v-55h-245v55l60 15v373h-178v-373l59 -15v-55h-253v55l68 16v372h-67v53l67 24v54c0 119 79 164 165 164c46 0 77 -11 95 -19v-69
c-13 3 -27 5 -52 5c-50 0 -82 -22 -82 -96v-38h178v61c0 123 93 166 192 166c56 0 107 -16 142 -29l83 29l13 -7v-452l33 11l131 150l-57 14v57h219v-57l-66 -15l-129 -148l160 -232l55 -14v-55h-153z" />
    <glyph glyph-name="f_k.alt" horiz-adv-x="866" 
d="M709 0l-156 230l-37 -4v-157l66 -14v-55h-252v55l60 15v581c-28 8 -50 14 -83 14c-63 0 -95 -21 -95 -98v-46h109v-78h-109v-373l59 -15v-55h-253v55l68 16v372h-67v53l67 24v62c0 123 93 166 192 166c56 0 107 -16 142 -29l83 29l13 -7v-452l34 12l130 149l-57 14v57
h219v-57l-66 -15l-129 -148l160 -232l55 -14v-55h-153z" />
    <glyph glyph-name="registered.alt" horiz-adv-x="774" 
d="M227 168v42l37 10v251l-36 9v42h169c89 0 139 -38 139 -101c0 -51 -30 -74 -65 -85v-5l69 -112l33 -9v-42h-102l-84 146h-33v-95l35 -9v-42h-162zM354 361h39c40 0 54 22 54 55c0 39 -16 54 -56 54h-37v-109zM386 38c173 0 293 138 293 306s-120 306 -293 306
c-174 0 -293 -138 -293 -306s119 -306 293 -306zM386 -14c-201 0 -354 161 -354 358s153 356 354 356c200 0 356 -159 356 -356s-156 -358 -356 -358z" />
    <glyph glyph-name="questiondown.uc" horiz-adv-x="423" 
d="M237 -12c-117 0 -208 47 -208 180c0 87 43 128 120 178c48 32 82 49 83 92c0 14 -2 32 -8 56h70c8 -18 18 -44 18 -79c0 -56 -31 -82 -86 -126c-43 -34 -64 -60 -64 -115c0 -69 45 -101 115 -101c52 0 82 6 124 19v-66c-45 -23 -98 -38 -164 -38zM257 567
c-41 0 -72 32 -72 69c0 38 31 70 72 70s71 -32 71 -70c0 -37 -30 -69 -71 -69z" />
    <glyph glyph-name="exclamdown.uc" horiz-adv-x="259" 
d="M61 0l30 493h81l28 -493h-139zM130 567c-41 0 -71 32 -71 69c0 38 30 70 71 70s71 -32 71 -70c0 -37 -30 -69 -71 -69z" />
    <glyph glyph-name="hyphen.uc" horiz-adv-x="322" 
d="M38 286v100h246v-100h-246z" />
    <glyph glyph-name="endash.uc" horiz-adv-x="436" 
d="M30 301v73h376v-73h-376z" />
    <glyph glyph-name="emdash.uc" horiz-adv-x="745" 
d="M30 301v73h685v-73h-685z" />
    <glyph glyph-name="guilsinglleft.uc" horiz-adv-x="269" 
d="M147 87l-109 178v35l109 179h83l-82 -196l82 -196h-83z" />
    <glyph glyph-name="guilsinglright.uc" horiz-adv-x="269" 
d="M40 87l81 195l-81 197h83l109 -179v-35l-109 -178h-83z" />
    <glyph glyph-name="guillemotleft.uc" horiz-adv-x="452" 
d="M147 87l-109 178v35l109 179h83l-82 -196l82 -196h-83zM330 87l-109 178v35l109 179h83l-81 -196l81 -196h-83z" />
    <glyph glyph-name="guillemotright.uc" horiz-adv-x="452" 
d="M40 87l81 195l-81 197h83l109 -179v-35l-109 -178h-83zM223 87l81 195l-81 197h83l109 -179v-35l-109 -178h-83z" />
    <glyph glyph-name="parenleft.uc" horiz-adv-x="330" 
d="M271 -111c-113 89 -237 218 -237 447c0 209 125 357 237 447l44 -41c-85 -98 -154 -226 -154 -388c0 -205 67 -324 154 -425z" />
    <glyph glyph-name="parenright.uc" horiz-adv-x="330" 
d="M59 -111l-45 40c86 98 155 226 155 388c0 206 -67 324 -155 425l45 41c113 -90 237 -218 237 -447c0 -209 -125 -358 -237 -447z" />
    <glyph glyph-name="bracketleft.uc" horiz-adv-x="328" 
d="M58 -86v853h240v-62l-118 -18v-694l118 -17v-62h-240z" />
    <glyph glyph-name="bracketright.uc" horiz-adv-x="328" 
d="M30 -86v62l118 17v694l-118 18v62h240v-853h-240z" />
    <glyph glyph-name="braceleft.uc" horiz-adv-x="379" 
d="M349 -86c-183 5 -239 56 -239 138c0 53 33 133 33 173c0 38 -15 62 -113 74v83c98 12 113 36 113 74c0 39 -33 120 -33 172c0 82 56 133 239 139v-62c-85 -14 -111 -27 -111 -77c0 -42 20 -115 20 -165c0 -54 -19 -94 -136 -120v-5c117 -27 136 -66 136 -121
c0 -50 -20 -122 -20 -164c0 -50 26 -64 111 -77v-62z" />
    <glyph glyph-name="braceright.uc" horiz-adv-x="379" 
d="M30 -86v62c85 13 111 27 111 77c0 42 -20 114 -20 164c0 55 19 94 136 121v5c-117 26 -136 66 -136 120c0 50 20 123 20 165c0 50 -26 63 -111 77v62c184 -6 239 -57 239 -139c0 -52 -32 -133 -32 -172c0 -38 14 -62 113 -74v-83c-99 -13 -113 -36 -113 -74
c0 -40 32 -120 32 -173c0 -82 -55 -133 -239 -138z" />
    <glyph glyph-name="slash.uc" horiz-adv-x="353" 
d="M107 -60h-89l223 793h89z" />
    <glyph glyph-name="backslash.uc" horiz-adv-x="353" 
d="M334 -60h-89l-223 793h89z" />
    <glyph glyph-name="bar.uc" horiz-adv-x="228" 
d="M72 -60v793h83v-793h-83z" />
    <glyph glyph-name="at.uc" horiz-adv-x="828" 
d="M412 -37c-235 0 -371 127 -371 337c0 228 166 424 412 424c202 0 337 -121 337 -322c0 -166 -99 -273 -226 -273c-63 0 -95 25 -105 61h-6c-33 -35 -70 -54 -116 -54c-63 0 -118 49 -118 144c0 144 86 262 211 262c54 0 79 -15 105 -32l23 24h59l-57 -292
c-7 -36 1 -51 26 -51c72 0 137 75 137 210c0 167 -94 267 -271 267c-215 0 -341 -166 -341 -367c0 -184 102 -281 303 -281c81 0 157 15 209 32v-50c-55 -24 -128 -39 -211 -39zM383 207c29 0 52 16 70 32l39 208c-9 20 -25 35 -57 35c-69 0 -105 -94 -105 -200
c0 -53 18 -75 53 -75z" />
    <glyph glyph-name="uni2009" unicode="&#x2009;" horiz-adv-x="84" 
 />
    </font>
</defs>
</svg>
